<?xml version="1.0" encoding="UTF-8" standalone="no"?>
<svg
   xmlns:dc="http://purl.org/dc/elements/1.1/"
   xmlns:cc="http://creativecommons.org/ns#"
   xmlns:rdf="http://www.w3.org/1999/02/22-rdf-syntax-ns#"
   xmlns:svg="http://www.w3.org/2000/svg"
   xmlns="http://www.w3.org/2000/svg"
   xmlns:sodipodi="http://sodipodi.sourceforge.net/DTD/sodipodi-0.dtd"
   xmlns:inkscape="http://www.inkscape.org/namespaces/inkscape"
   width="249.99999999999997mm"
   height="249.99999999999994mm"
   viewBox="0 0 249.99999999999997 249.99999999999994"
   version="1.1"
   id="svg2"
   inkscape:version="0.91 r13725"
   sodipodi:docname="bed.svg">
  <metadata
     id="metadata14">
    <rdf:RDF>
      <cc:Work
         rdf:about="">
        <dc:format>image/svg+xml</dc:format>
        <dc:type
           rdf:resource="http://purl.org/dc/dcmitype/StillImage" />
      </cc:Work>
    </rdf:RDF>
  </metadata>
  <defs
     id="defs12" />
  <sodipodi:namedview
     pagecolor="#ffffff"
     bordercolor="#666666"
     borderopacity="1"
     objecttolerance="10"
     gridtolerance="10"
     guidetolerance="10"
     inkscape:pageopacity="0"
     inkscape:pageshadow="2"
     inkscape:window-width="1920"
     inkscape:window-height="1018"
     id="namedview10"
     showgrid="false"
     inkscape:zoom="0.53283556"
     inkscape:cx="88.094928"
     inkscape:cy="324.41636"
     inkscape:window-x="-8"
     inkscape:window-y="-8"
     inkscape:window-maximized="1"
     inkscape:current-layer="svg2" />
  <desc
     id="desc4">Output from Flights of Ideas SVG Sketchup Plugin</desc>
  <path
     id="face0-cut"
     style="fill:none;stroke:#000000;stroke-width:0.28222221;stroke-linecap:round;stroke-linejoin:round;stroke-miterlimit:4;stroke-dasharray:none"
     d="M 195,10 181.66667,60 68.333333,60 55,10 l -45,0 0,230 230,0 0,-230 -45,0 M 21.948889,20.111771 22,20.5 21.948889,20.888229 21.799038,21.25 21.56066,21.56066 21.25,21.799038 20.888229,21.948889 20.5,22 20.111771,21.948889 19.75,21.799038 19.43934,21.56066 19.200962,21.25 19.051111,20.888229 19,20.5 19.051111,20.111771 19.200962,19.75 19.43934,19.43934 19.75,19.200962 20.111771,19.051111 20.5,19 l 0.388229,0.05111 0.361771,0.149851 0.31066,0.238378 0.238378,0.31066 0.149851,0.361771 M 228.05111,20.888229 228,20.5 228.05111,20.111771 228.20096,19.75 228.43934,19.43934 228.75,19.200962 229.11177,19.051111 229.5,19 l 0.38823,0.05111 0.36177,0.149851 0.31066,0.238378 0.23838,0.31066 0.14985,0.361771 L 231,20.5 230.94889,20.888229 230.79904,21.25 230.56066,21.56066 230.25,21.799038 229.88823,21.948889 229.5,22 229.11177,21.948889 228.75,21.799038 228.43934,21.56066 228.20096,21.25 228.05111,20.888229 m 0,209.000001 L 228,229.5 l 0.0511,-0.38823 0.14985,-0.36177 0.23838,-0.31066 0.31066,-0.23838 0.36177,-0.14985 L 229.5,228 l 0.38823,0.0511 0.36177,0.14985 0.31066,0.23838 0.23838,0.31066 0.14985,0.36177 L 231,229.5 l -0.0511,0.38823 -0.14985,0.36177 -0.23838,0.31066 -0.31066,0.23838 -0.36177,0.14985 L 229.5,231 l -0.38823,-0.0511 -0.36177,-0.14985 -0.31066,-0.23838 -0.23838,-0.31066 -0.14985,-0.36177 M 21.948889,229.11177 22,229.5 21.948889,229.88823 21.799038,230.25 21.56066,230.56066 21.25,230.79904 20.888229,230.94889 20.5,231 20.111771,230.94889 19.75,230.79904 19.43934,230.56066 19.200962,230.25 19.051111,229.88823 19,229.5 19.051111,229.11177 19.200962,228.75 19.43934,228.43934 19.75,228.20096 20.111771,228.05111 20.5,228 l 0.388229,0.0511 0.361771,0.14985 0.31066,0.23838 0.238378,0.31066 0.149851,0.36177 M 193.55111,73.111771 193.70096,72.75 193.93934,72.43934 194.25,72.200962 194.61177,72.051111 195,72 l 0.38823,0.05111 0.36177,0.149851 0.31066,0.238378 0.23838,0.31066 0.14985,0.361771 L 196.5,73.5 196.44889,73.888229 196.29904,74.25 196.06066,74.56066 195.75,74.799038 195.38823,74.948889 195,75 194.61177,74.948889 194.25,74.799038 193.93934,74.56066 193.70096,74.25 193.55111,73.888229 193.5,73.5 l 0.0511,-0.388229 M 54.611771,74.948889 54.25,74.799038 53.93934,74.56066 53.700962,74.25 53.551111,73.888229 53.5,73.5 53.551111,73.111771 53.700962,72.75 53.93934,72.43934 54.25,72.200962 54.611771,72.051111 55,72 55.388229,72.051111 55.75,72.200962 56.06066,72.43934 56.299038,72.75 56.448889,73.111771 56.5,73.5 56.448889,73.888229 56.299038,74.25 56.06066,74.56066 55.75,74.799038 55.388229,74.948889 55,75 54.611771,74.948889 m 140.776459,100.102221 0.36177,0.14985 0.31066,0.23838 0.23838,0.31066 0.14985,0.36177 0.0511,0.38823 -0.0511,0.38823 -0.14985,0.36177 -0.23838,0.31066 -0.31066,0.23838 -0.36177,0.14985 L 195,178 l -0.38823,-0.0511 -0.36177,-0.14985 -0.31066,-0.23838 -0.23838,-0.31066 -0.14985,-0.36177 L 193.5,176.5 l 0.0511,-0.38823 0.14985,-0.36177 0.23838,-0.31066 0.31066,-0.23838 0.36177,-0.14985 L 195,175 l 0.38823,0.0511 M 53.551111,176.88823 53.5,176.5 53.551111,176.11177 53.700962,175.75 53.93934,175.43934 54.25,175.20096 54.611771,175.05111 55,175 l 0.388229,0.0511 0.361771,0.14985 0.31066,0.23838 0.238378,0.31066 0.149851,0.36177 L 56.5,176.5 56.448889,176.88823 56.299038,177.25 56.06066,177.56066 55.75,177.79904 55.388229,177.94889 55,178 54.611771,177.94889 54.25,177.79904 53.93934,177.56066 53.700962,177.25 53.551111,176.88823"
     inkscape:connector-curvature="0" />
  <path
     id="face0-interior"
     style="fill:none;stroke:#000000;stroke-width:0.28222221;stroke-linecap:round;stroke-linejoin:round;stroke-miterlimit:4;stroke-dasharray:none"
     d="M 195,10 M 181.66667,60 M 68.333333,60 M 55,10 m -45,0 m 0,230 m 230,0 M 240,10 M 21.948889,20.111771 M 22,20.5 m -0.05111,0.388229 M 21.799038,21.25 M 21.56066,21.56066 M 21.25,21.799038 m -0.361771,0.149851 M 20.5,22 m -0.388229,-0.05111 M 19.75,21.799038 M 19.43934,21.56066 M 19.200962,21.25 M 19.051111,20.888229 M 19,20.5 m 0.05111,-0.388229 M 19.200962,19.75 M 19.43934,19.43934 M 19.75,19.200962 m 0.361771,-0.149851 M 20.5,19 m 0.388229,0.05111 M 21.25,19.200962 m 0.31066,0.238378 M 21.799038,19.75 M 228.05111,20.888229 M 228,20.5 m 0.0511,-0.388229 M 228.20096,19.75 m 0.23838,-0.31066 M 228.75,19.200962 m 0.36177,-0.149851 M 229.5,19 m 0.38823,0.05111 m 0.36177,0.149851 m 0.31066,0.238378 m 0.23838,0.31066 m 0.14985,0.361771 M 231,20.5 m -0.0511,0.388229 M 230.79904,21.25 m -0.23838,0.31066 M 230.25,21.799038 m -0.36177,0.149851 M 229.5,22 m -0.38823,-0.05111 M 228.75,21.799038 M 228.43934,21.56066 M 228.20096,21.25 m -0.14985,208.63823 M 228,229.5 m 0.0511,-0.38823 m 0.14985,-0.36177 m 0.23838,-0.31066 m 0.31066,-0.23838 m 0.36177,-0.14985 M 229.5,228 m 0.38823,0.0511 m 0.36177,0.14985 m 0.31066,0.23838 m 0.23838,0.31066 m 0.14985,0.36177 M 231,229.5 m -0.0511,0.38823 m -0.14985,0.36177 m -0.23838,0.31066 m -0.31066,0.23838 m -0.36177,0.14985 M 229.5,231 m -0.38823,-0.0511 M 228.75,230.79904 m -0.31066,-0.23838 M 228.20096,230.25 M 21.948889,229.11177 M 22,229.5 m -0.05111,0.38823 M 21.799038,230.25 m -0.238378,0.31066 M 21.25,230.79904 m -0.361771,0.14985 M 20.5,231 m -0.388229,-0.0511 M 19.75,230.79904 m -0.31066,-0.23838 M 19.200962,230.25 m -0.149851,-0.36177 M 19,229.5 m 0.05111,-0.38823 M 19.200962,228.75 m 0.238378,-0.31066 M 19.75,228.20096 m 0.361771,-0.14985 M 20.5,228 m 0.388229,0.0511 M 21.25,228.20096 m 0.31066,0.23838 M 21.799038,228.75 M 193.55111,73.111771 M 193.70096,72.75 m 0.23838,-0.31066 M 194.25,72.200962 m 0.36177,-0.149851 M 195,72 m 0.38823,0.05111 m 0.36177,0.149851 m 0.31066,0.238378 m 0.23838,0.31066 m 0.14985,0.361771 M 196.5,73.5 m -0.0511,0.388229 M 196.29904,74.25 m -0.23838,0.31066 M 195.75,74.799038 m -0.36177,0.149851 M 195,75 m -0.38823,-0.05111 M 194.25,74.799038 M 193.93934,74.56066 M 193.70096,74.25 m -0.14985,-0.361771 M 193.5,73.5 M 54.611771,74.948889 M 54.25,74.799038 M 53.93934,74.56066 M 53.700962,74.25 M 53.551111,73.888229 M 53.5,73.5 m 0.05111,-0.388229 M 53.700962,72.75 M 53.93934,72.43934 M 54.25,72.200962 m 0.361771,-0.149851 M 55,72 m 0.388229,0.05111 M 55.75,72.200962 m 0.31066,0.238378 M 56.299038,72.75 m 0.149851,0.361771 M 56.5,73.5 m -0.05111,0.388229 M 56.299038,74.25 M 56.06066,74.56066 M 55.75,74.799038 m -0.361771,0.149851 M 55,75 m 140.38823,100.05111 m 0.36177,0.14985 m 0.31066,0.23838 m 0.23838,0.31066 m 0.14985,0.36177 M 196.5,176.5 m -0.0511,0.38823 m -0.14985,0.36177 m -0.23838,0.31066 m -0.31066,0.23838 m -0.36177,0.14985 M 195,178 m -0.38823,-0.0511 M 194.25,177.79904 m -0.31066,-0.23838 M 193.70096,177.25 m -0.14985,-0.36177 M 193.5,176.5 m 0.0511,-0.38823 m 0.14985,-0.36177 m 0.23838,-0.31066 m 0.31066,-0.23838 m 0.36177,-0.14985 M 195,175 M 53.551111,176.88823 M 53.5,176.5 m 0.05111,-0.38823 M 53.700962,175.75 m 0.238378,-0.31066 M 54.25,175.20096 m 0.361771,-0.14985 M 55,175 m 0.388229,0.0511 M 55.75,175.20096 m 0.31066,0.23838 m 0.238378,0.31066 m 0.149851,0.36177 M 56.5,176.5 m -0.05111,0.38823 M 56.299038,177.25 m -0.238378,0.31066 M 55.75,177.79904 m -0.361771,0.14985 M 55,178 m -0.388229,-0.0511 M 54.25,177.79904 m -0.31066,-0.23838 M 53.700962,177.25"
     inkscape:connector-curvature="0" />
  <path
     id="path8"
     style="fill:none;stroke:#000000;stroke-width:0.28222221;stroke-linecap:round;stroke-linejoin:round;stroke-miterlimit:4;stroke-dasharray:none"
     d="M 195,10 M 181.66667,60 M 68.333333,60 M 55,10 m -45,0 m 0,230 m 230,0 M 240,10 M 21.948889,20.111771 M 22,20.5 m -0.05111,0.388229 M 21.799038,21.25 M 21.56066,21.56066 M 21.25,21.799038 m -0.361771,0.149851 M 20.5,22 m -0.388229,-0.05111 M 19.75,21.799038 M 19.43934,21.56066 M 19.200962,21.25 M 19.051111,20.888229 M 19,20.5 m 0.05111,-0.388229 M 19.200962,19.75 M 19.43934,19.43934 M 19.75,19.200962 m 0.361771,-0.149851 M 20.5,19 m 0.388229,0.05111 M 21.25,19.200962 m 0.31066,0.238378 M 21.799038,19.75 M 228.05111,20.888229 M 228,20.5 m 0.0511,-0.388229 M 228.20096,19.75 m 0.23838,-0.31066 M 228.75,19.200962 m 0.36177,-0.149851 M 229.5,19 m 0.38823,0.05111 m 0.36177,0.149851 m 0.31066,0.238378 m 0.23838,0.31066 m 0.14985,0.361771 M 231,20.5 m -0.0511,0.388229 M 230.79904,21.25 m -0.23838,0.31066 M 230.25,21.799038 m -0.36177,0.149851 M 229.5,22 m -0.38823,-0.05111 M 228.75,21.799038 M 228.43934,21.56066 M 228.20096,21.25 m -0.14985,208.63823 M 228,229.5 m 0.0511,-0.38823 m 0.14985,-0.36177 m 0.23838,-0.31066 m 0.31066,-0.23838 m 0.36177,-0.14985 M 229.5,228 m 0.38823,0.0511 m 0.36177,0.14985 m 0.31066,0.23838 m 0.23838,0.31066 m 0.14985,0.36177 M 231,229.5 m -0.0511,0.38823 m -0.14985,0.36177 m -0.23838,0.31066 m -0.31066,0.23838 m -0.36177,0.14985 M 229.5,231 m -0.38823,-0.0511 M 228.75,230.79904 m -0.31066,-0.23838 M 228.20096,230.25 M 21.948889,229.11177 M 22,229.5 m -0.05111,0.38823 M 21.799038,230.25 m -0.238378,0.31066 M 21.25,230.79904 m -0.361771,0.14985 M 20.5,231 m -0.388229,-0.0511 M 19.75,230.79904 m -0.31066,-0.23838 M 19.200962,230.25 m -0.149851,-0.36177 M 19,229.5 m 0.05111,-0.38823 M 19.200962,228.75 m 0.238378,-0.31066 M 19.75,228.20096 m 0.361771,-0.14985 M 20.5,228 m 0.388229,0.0511 M 21.25,228.20096 m 0.31066,0.23838 M 21.799038,228.75 M 193.55111,73.111771 M 193.70096,72.75 m 0.23838,-0.31066 M 194.25,72.200962 m 0.36177,-0.149851 M 195,72 m 0.38823,0.05111 m 0.36177,0.149851 m 0.31066,0.238378 m 0.23838,0.31066 m 0.14985,0.361771 M 196.5,73.5 m -0.0511,0.388229 M 196.29904,74.25 m -0.23838,0.31066 M 195.75,74.799038 m -0.36177,0.149851 M 195,75 m -0.38823,-0.05111 M 194.25,74.799038 M 193.93934,74.56066 M 193.70096,74.25 m -0.14985,-0.361771 M 193.5,73.5 M 54.611771,74.948889 M 54.25,74.799038 M 53.93934,74.56066 M 53.700962,74.25 M 53.551111,73.888229 M 53.5,73.5 m 0.05111,-0.388229 M 53.700962,72.75 M 53.93934,72.43934 M 54.25,72.200962 m 0.361771,-0.149851 M 55,72 m 0.388229,0.05111 M 55.75,72.200962 m 0.31066,0.238378 M 56.299038,72.75 m 0.149851,0.361771 M 56.5,73.5 m -0.05111,0.388229 M 56.299038,74.25 M 56.06066,74.56066 M 55.75,74.799038 m -0.361771,0.149851 M 55,75 m 140.38823,100.05111 m 0.36177,0.14985 m 0.31066,0.23838 m 0.23838,0.31066 m 0.14985,0.36177 M 196.5,176.5 m -0.0511,0.38823 m -0.14985,0.36177 m -0.23838,0.31066 m -0.31066,0.23838 m -0.36177,0.14985 M 195,178 m -0.38823,-0.0511 M 194.25,177.79904 m -0.31066,-0.23838 M 193.70096,177.25 m -0.14985,-0.36177 M 193.5,176.5 m 0.0511,-0.38823 m 0.14985,-0.36177 m 0.23838,-0.31066 m 0.31066,-0.23838 m 0.36177,-0.14985 M 195,175 M 53.551111,176.88823 M 53.5,176.5 m 0.05111,-0.38823 M 53.700962,175.75 m 0.238378,-0.31066 M 54.25,175.20096 m 0.361771,-0.14985 M 55,175 m 0.388229,0.0511 M 55.75,175.20096 m 0.31066,0.23838 m 0.238378,0.31066 m 0.149851,0.36177 M 56.5,176.5 m -0.05111,0.38823 M 56.299038,177.25 m -0.238378,0.31066 M 55.75,177.79904 m -0.361771,0.14985 M 55,178 m -0.388229,-0.0511 M 54.25,177.79904 m -0.31066,-0.23838 M 53.700962,177.25"
     inkscape:connector-curvature="0" />
  <g
     id="g4760"
     transform="matrix(0.28222222,0,0,0.28222222,256.95503,56.733301)"
     style="stroke:#0000ff;stroke-width:1;stroke-miterlimit:4;stroke-dasharray:none">
    <g
       transform="translate(32,0)"
       id="text23819"
       style="font-style:normal;font-weight:normal;font-size:40px;line-height:125%;font-family:sans-serif;letter-spacing:0px;word-spacing:0px;fill:none;fill-opacity:1;stroke:#0000ff;stroke-width:1;stroke-linecap:butt;stroke-linejoin:miter;stroke-miterlimit:4;stroke-dasharray:none;stroke-opacity:1">
      <path
         inkscape:connector-curvature="0"
         id="path23906"
         style="font-style:normal;font-variant:normal;font-weight:bold;font-stretch:normal;font-size:50px;font-family:Verdana;-inkscape-font-specification:'Verdana Bold';letter-spacing:8.28000164px;fill:none;fill-opacity:1;stroke:#0000ff;stroke-width:1;stroke-miterlimit:4;stroke-dasharray:none;stroke-opacity:1"
         d="m -535.82251,559.45093 -9.79004,36.35254 -10.37598,0 -6.51855,-23.68164 -6.34766,23.68164 -10.37597,0 -9.79004,-36.35254 9.79004,0 5.59082,25.02441 6.68945,-25.02441 9.35059,0 6.37207,25.02441 5.85937,-25.02441 9.5459,0 z" />
      <path
         inkscape:connector-curvature="0"
         id="path23908"
         style="font-style:normal;font-variant:normal;font-weight:bold;font-stretch:normal;font-size:50px;font-family:Verdana;-inkscape-font-specification:'Verdana Bold';letter-spacing:8.28000164px;fill:none;fill-opacity:1;stroke:#0000ff;stroke-width:1;stroke-miterlimit:4;stroke-dasharray:none;stroke-opacity:1"
         d="m -512.96732,595.80347 -8.78906,0 0,-27.417 8.78906,0 0,27.417 z m 0.24414,-31.32325 -9.27734,0 0,-6.66503 9.27734,0 0,6.66503 z" />
      <path
         inkscape:connector-curvature="0"
         id="path23910"
         style="font-style:normal;font-variant:normal;font-weight:bold;font-stretch:normal;font-size:50px;font-family:Verdana;-inkscape-font-specification:'Verdana Bold';letter-spacing:8.28000164px;fill:none;fill-opacity:1;stroke:#0000ff;stroke-width:1;stroke-miterlimit:4;stroke-dasharray:none;stroke-opacity:1"
         d="m -487.59747,595.80347 -8.78906,0 0,-37.98828 8.78906,0 0,37.98828 z" />
      <path
         inkscape:connector-curvature="0"
         id="path23912"
         style="font-style:normal;font-variant:normal;font-weight:bold;font-stretch:normal;font-size:50px;font-family:Verdana;-inkscape-font-specification:'Verdana Bold';letter-spacing:8.28000164px;fill:none;fill-opacity:1;stroke:#0000ff;stroke-width:1;stroke-miterlimit:4;stroke-dasharray:none;stroke-opacity:1"
         d="m -447.18856,587.11206 q 0,4.24805 -3.80859,6.86035 -3.8086,2.58789 -10.42481,2.58789 -3.66211,0 -6.64062,-0.68359 -2.97852,-0.68359 -4.78516,-1.51367 l 0,-7.22657 0.80566,0 q 0.65918,0.46387 1.51368,1.0254 0.8789,0.5371 2.46582,1.17187 1.36718,0.56152 3.10058,0.97656 1.7334,0.39063 3.71094,0.39063 2.58789,0 3.83301,-0.56153 1.24511,-0.58593 1.24511,-1.70898 0,-1.00098 -0.73242,-1.44043 -0.73242,-0.46387 -2.7832,-0.87891 -0.97656,-0.21972 -2.66113,-0.46386 -1.66016,-0.26856 -3.02735,-0.63477 -3.73535,-0.97656 -5.54199,-3.02734 -1.80664,-2.0752 -1.80664,-5.15137 0,-3.95508 3.73535,-6.56738 3.75977,-2.63672 10.25391,-2.63672 3.07617,0 5.88379,0.63476 2.83203,0.61036 4.41894,1.31836 l 0,6.9336 -0.75683,0 q -1.95313,-1.34278 -4.46778,-2.17285 -2.49023,-0.8545 -5.05371,-0.8545 -2.12402,0 -3.58887,0.58594 -1.44042,0.58594 -1.44042,1.66016 0,0.97656 0.65917,1.48926 0.65918,0.51269 3.10059,1.02539 1.34277,0.26855 2.88086,0.53711 1.5625,0.24414 3.125,0.63476 3.4668,0.90332 5.12695,2.85645 1.66016,1.92871 1.66016,4.83398 z" />
      <path
         inkscape:connector-curvature="0"
         id="path23914"
         style="font-style:normal;font-variant:normal;font-weight:bold;font-stretch:normal;font-size:50px;font-family:Verdana;-inkscape-font-specification:'Verdana Bold';letter-spacing:8.28000164px;fill:none;fill-opacity:1;stroke:#0000ff;stroke-width:1;stroke-miterlimit:4;stroke-dasharray:none;stroke-opacity:1"
         d="m -405.02184,582.10718 q 0,6.76269 -3.95507,10.66894 -3.93067,3.88184 -11.05957,3.88184 -7.12891,0 -11.08399,-3.88184 -3.93066,-3.90625 -3.93066,-10.66894 0,-6.81153 3.95508,-10.69336 3.97949,-3.88184 11.05957,-3.88184 7.17773,0 11.08398,3.90625 3.93066,3.90625 3.93066,10.66895 z m -10.81543,6.66504 q 0.8545,-1.04981 1.26954,-2.51465 0.43945,-1.48926 0.43945,-4.10156 0,-2.417 -0.43945,-4.05274 -0.43946,-1.63574 -1.22071,-2.6123 -0.78125,-1.00098 -1.87988,-1.41602 -1.09863,-0.41504 -2.36816,-0.41504 -1.26954,0 -2.27051,0.3418 -0.97656,0.3418 -1.87988,1.36719 -0.80567,0.95214 -1.29395,2.6123 -0.46387,1.66016 -0.46387,4.17481 0,2.24609 0.41504,3.90625 0.41504,1.63574 1.22071,2.63671 0.78125,0.95215 1.85546,1.39161 1.09864,0.43945 2.49024,0.43945 1.19629,0 2.27051,-0.39063 1.09863,-0.41503 1.85546,-1.36718 z" />
      <path
         inkscape:connector-curvature="0"
         id="path23916"
         style="font-style:normal;font-variant:normal;font-weight:bold;font-stretch:normal;font-size:50px;font-family:Verdana;-inkscape-font-specification:'Verdana Bold';letter-spacing:8.28000164px;fill:none;fill-opacity:1;stroke:#0000ff;stroke-width:1;stroke-miterlimit:4;stroke-dasharray:none;stroke-opacity:1"
         d="m -362.85512,595.80347 -8.83789,0 0,-13.59864 q 0,-1.66015 -0.1709,-3.29589 -0.1709,-1.66016 -0.58593,-2.44141 -0.48829,-0.90332 -1.44043,-1.31836 -0.92774,-0.41504 -2.61231,-0.41504 -1.19629,0 -2.4414,0.39063 -1.22071,0.39062 -2.66114,1.24511 l 0,19.4336 -8.78906,0 0,-27.417 8.78906,0 0,3.02735 q 2.34375,-1.83106 4.49219,-2.80762 2.17285,-0.97656 4.80957,-0.97656 4.44336,0 6.93359,2.58789 2.51465,2.58789 2.51465,7.73926 l 0,17.84668 z" />
    </g>
    <path
       id="path4455"
       d="m -604.91842,563.66967 c -4.38769,4.38769 -7.10253,10.44824 -7.10253,17.14453"
       style="fill:none;stroke:#0000ff;stroke-width:1;stroke-miterlimit:4;stroke-dasharray:none"
       inkscape:connector-curvature="0" />
    <path
       id="path4457"
       d="m -612.02095,580.8142 c 0,13.39155 10.85644,24.24705 24.24707,24.24705"
       style="fill:none;stroke:#0000ff;stroke-width:1;stroke-miterlimit:4;stroke-dasharray:none"
       inkscape:connector-curvature="0" />
    <path
       id="path4459"
       d="m -587.77388,605.06125 c 13.39062,0 24.24707,-10.8555 24.24707,-24.24705"
       style="fill:none;stroke:#0000ff;stroke-width:1;stroke-miterlimit:4;stroke-dasharray:none"
       inkscape:connector-curvature="0" />
    <path
       id="path4461"
       d="m -563.52681,580.8142 c 0,-6.69532 -2.71387,-12.75684 -7.10156,-17.14405"
       style="fill:none;stroke:#0000ff;stroke-width:1;stroke-miterlimit:4;stroke-dasharray:none"
       inkscape:connector-curvature="0" />
    <path
       id="path4463"
       d="m -587.77388,546.52416 -17.14454,17.14551 17.14454,-17.14551 z"
       style="fill:none;stroke:#0000ff;stroke-width:1;stroke-miterlimit:4;stroke-dasharray:none"
       inkscape:connector-curvature="0" />
    <path
       id="path4465"
       d="m -570.62837,563.67015 -17.14551,-17.14599 0,0 17.14551,17.14599 z"
       style="fill:none;stroke:#0000ff;stroke-width:1;stroke-miterlimit:4;stroke-dasharray:none"
       inkscape:connector-curvature="0" />
    <path
       inkscape:connector-curvature="0"
       style="opacity:1;fill:none;fill-opacity:1;stroke:#0000ff;stroke-width:1;stroke-linejoin:miter;stroke-miterlimit:4;stroke-dasharray:none;stroke-opacity:1"
       d="m -620.4538,531.69269 295.86615,0 c 3.92598,0 7.08661,3.16063 7.08661,7.08661 l 0,74.40946 c 0,3.92598 -3.16063,7.08661 -7.08661,7.08661 l -295.86615,0 c -3.92598,0 -7.08661,-3.16063 -7.08661,-7.08661 l 0,-74.40946 c 0,-3.92598 3.16063,-7.08661 7.08661,-7.08661 z"
       id="rect4758" />
  </g>
</svg>
