  0
SECTION
  2
HEADER
  9
$ACADVER
  1
AC1014
  9
$HANDSEED
  5
FFFF
  9
$MEASUREMENT
 70
     1
  0
ENDSEC
  0
SECTION
  2
TABLES
  0
TABLE
  2
VPORT
  5
8
330
0
100
AcDbSymbolTable
 70
     4
  0
VPORT
  5
2E
330
8
100
AcDbSymbolTableRecord
100
AcDbViewportTableRecord
  2
*ACTIVE
 70
     0
 10
0.0
 20
0.0
 11
1.0
 21
1.0
 12
210.0
 22
148.5
 13
0.0
 23
0.0
 14
10.0
 24
10.0
 15
10.0
 25
10.0
 16
0.0
 26
0.0
 36
1.0
 17
0.0
 27
0.0
 37
0.0
 40
341.0
 41
1.24
 42
50.0
 43
0.0
 44
0.0
 50
0.0
 51
0.0
 71
     0
 72
   100
 73
     1
 74
     3
 75
     0
 76
     0
 77
     0
 78
     0
  0
ENDTAB
  0
TABLE
  2
LTYPE
  5
5
330
0
100
AcDbSymbolTable
 70
     1
  0
LTYPE
  5
14
330
5
100
AcDbSymbolTableRecord
100
AcDbLinetypeTableRecord
  2
BYBLOCK
 70
     0
  3

 72
    65
 73
     0
 40
0.0
  0
LTYPE
  5
15
330
5
100
AcDbSymbolTableRecord
100
AcDbLinetypeTableRecord
  2
BYLAYER
 70
     0
  3

 72
    65
 73
     0
 40
0.0
  0
LTYPE
  5
16
330
5
100
AcDbSymbolTableRecord
100
AcDbLinetypeTableRecord
  2
CONTINUOUS
 70
     0
  3
Solid line
 72
    65
 73
     0
 40
0.0
  0
ENDTAB
  0
TABLE
  2
LAYER
  5
2
100
AcDbSymbolTable
 70
1
  0
LAYER
  5
50
100
AcDbSymbolTableRecord
100
AcDbLayerTableRecord
  2
0
 70
0
  6
CONTINUOUS
  0
ENDTAB
  0
TABLE
  2
STYLE
  5
3
330
0
100
AcDbSymbolTable
 70
     1
  0
STYLE
  5
11
330
3
100
AcDbSymbolTableRecord
100
AcDbTextStyleTableRecord
  2
STANDARD
 70
     0
 40
0.0
 41
1.0
 50
0.0
 71
     0
 42
2.5
  3
txt
  4

  0
ENDTAB
  0
TABLE
  2
VIEW
  5
6
330
0
100
AcDbSymbolTable
 70
     0
  0
ENDTAB
  0
TABLE
  2
UCS
  5
7
330
0
100
AcDbSymbolTable
 70
     0
  0
ENDTAB
  0
TABLE
  2
APPID
  5
9
330
0
100
AcDbSymbolTable
 70
     2
  0
APPID
  5
12
330
9
100
AcDbSymbolTableRecord
100
AcDbRegAppTableRecord
  2
ACAD
 70
     0
  0
ENDTAB
  0
TABLE
  2
DIMSTYLE
  5
A
330
0
100
AcDbSymbolTable
 70
     1
  0
DIMSTYLE
105
27
330
A
100
AcDbSymbolTableRecord
100
AcDbDimStyleTableRecord
  2
ISO-25
 70
     0
  3

  4

  5

  6

  7

 40
1.0
 41
2.5
 42
0.625
 43
3.75
 44
1.25
 45
0.0
 46
0.0
 47
0.0
 48
0.0
140
2.5
141
2.5
142
0.0
143
0.03937007874016
144
1.0
145
0.0
146
1.0
147
0.625
 71
     0
 72
     0
 73
     0
 74
     0
 75
     0
 76
     0
 77
     1
 78
     8
170
     0
171
     3
172
     1
173
     0
174
     0
175
     0
176
     0
177
     0
178
     0
270
     2
271
     2
272
     2
273
     2
274
     3
340
11
275
     0
280
     0
281
     0
282
     0
283
     0
284
     8
285
     0
286
     0
287
     3
288
     0
  0
ENDTAB
  0
TABLE
  2
BLOCK_RECORD
  5
1
330
0
100
AcDbSymbolTable
 70
     1
  0
BLOCK_RECORD
  5
1F
330
1
100
AcDbSymbolTableRecord
100
AcDbBlockTableRecord
  2
*MODEL_SPACE
  0
BLOCK_RECORD
  5
1B
330
1
100
AcDbSymbolTableRecord
100
AcDbBlockTableRecord
  2
*PAPER_SPACE
  0
ENDTAB
  0
ENDSEC
  0
SECTION
  2
BLOCKS
  0
BLOCK
  5
20
330
1F
100
AcDbEntity
  8
0
100
AcDbBlockBegin
  2
*MODEL_SPACE
 70
     0
 10
0.0
 20
0.0
 30
0.0
  3
*MODEL_SPACE
  1

  0
ENDBLK
  5
21
330
1F
100
AcDbEntity
  8
0
100
AcDbBlockEnd
  0
BLOCK
  5
1C
330
1B
100
AcDbEntity
 67
     1
  8
0
100
AcDbBlockBegin
  2
*PAPER_SPACE
  1

  0
ENDBLK
  5
1D
330
1B
100
AcDbEntity
 67
     1
  8
0
100
AcDbBlockEnd
  0
ENDSEC
  0
SECTION
  2
ENTITIES
  0
LWPOLYLINE
  5
100
100
AcDbEntity
  8
0
 62
7
100
AcDbPolyline
 90
9
 70
0
 10
156.000000
 20
192.000000
 30
0.0
 10
145.333336
 20
152.000000
 30
0.0
 10
54.666666
 20
152.000000
 30
0.0
 10
44.000000
 20
192.000000
 30
0.0
 10
8.000000
 20
192.000000
 30
0.0
 10
8.000000
 20
8.000000
 30
0.0
 10
192.000000
 20
8.000000
 30
0.0
 10
192.000000
 20
192.000000
 30
0.0
 10
156.000000
 20
192.000000
 30
0.0
  0
LWPOLYLINE
  5
101
100
AcDbEntity
  8
0
 62
7
100
AcDbPolyline
 90
25
 70
0
 10
17.559111
 20
183.910583
 30
0.0
 10
17.600000
 20
183.600000
 30
0.0
 10
17.559111
 20
183.289417
 30
0.0
 10
17.439230
 20
183.000000
 30
0.0
 10
17.248528
 20
182.751472
 30
0.0
 10
17.000000
 20
182.560770
 30
0.0
 10
16.710583
 20
182.440889
 30
0.0
 10
16.400000
 20
182.400000
 30
0.0
 10
16.089417
 20
182.440889
 30
0.0
 10
15.800000
 20
182.560770
 30
0.0
 10
15.551472
 20
182.751472
 30
0.0
 10
15.360770
 20
183.000000
 30
0.0
 10
15.240889
 20
183.289417
 30
0.0
 10
15.200000
 20
183.600000
 30
0.0
 10
15.240889
 20
183.910583
 30
0.0
 10
15.360770
 20
184.200000
 30
0.0
 10
15.551472
 20
184.448528
 30
0.0
 10
15.800000
 20
184.639230
 30
0.0
 10
16.089417
 20
184.759111
 30
0.0
 10
16.400000
 20
184.800000
 30
0.0
 10
16.710583
 20
184.759112
 30
0.0
 10
17.000000
 20
184.639231
 30
0.0
 10
17.248528
 20
184.448529
 30
0.0
 10
17.439230
 20
184.200001
 30
0.0
 10
17.559111
 20
183.910584
 30
0.0
  0
LWPOLYLINE
  5
102
100
AcDbEntity
  8
0
 62
7
100
AcDbPolyline
 90
25
 70
0
 10
182.440888
 20
183.289417
 30
0.0
 10
182.400000
 20
183.600000
 30
0.0
 10
182.440888
 20
183.910583
 30
0.0
 10
182.560768
 20
184.200000
 30
0.0
 10
182.751472
 20
184.448528
 30
0.0
 10
183.000000
 20
184.639230
 30
0.0
 10
183.289416
 20
184.759111
 30
0.0
 10
183.600000
 20
184.800000
 30
0.0
 10
183.910584
 20
184.759112
 30
0.0
 10
184.200000
 20
184.639231
 30
0.0
 10
184.448528
 20
184.448529
 30
0.0
 10
184.639232
 20
184.200001
 30
0.0
 10
184.759112
 20
183.910584
 30
0.0
 10
184.800000
 20
183.600000
 30
0.0
 10
184.759112
 20
183.289417
 30
0.0
 10
184.639232
 20
183.000000
 30
0.0
 10
184.448528
 20
182.751472
 30
0.0
 10
184.200000
 20
182.560770
 30
0.0
 10
183.910584
 20
182.440889
 30
0.0
 10
183.600000
 20
182.400000
 30
0.0
 10
183.289416
 20
182.440889
 30
0.0
 10
183.000000
 20
182.560770
 30
0.0
 10
182.751472
 20
182.751472
 30
0.0
 10
182.560768
 20
183.000000
 30
0.0
 10
182.440888
 20
183.289417
 30
0.0
  0
LWPOLYLINE
  5
103
100
AcDbEntity
  8
0
 62
7
100
AcDbPolyline
 90
25
 70
0
 10
182.440888
 20
16.089416
 30
0.0
 10
182.400000
 20
16.400000
 30
0.0
 10
182.440880
 20
16.710584
 30
0.0
 10
182.560760
 20
17.000000
 30
0.0
 10
182.751464
 20
17.248528
 30
0.0
 10
182.999992
 20
17.439232
 30
0.0
 10
183.289408
 20
17.559112
 30
0.0
 10
183.600000
 20
17.600000
 30
0.0
 10
183.910584
 20
17.559120
 30
0.0
 10
184.200000
 20
17.439240
 30
0.0
 10
184.448528
 20
17.248536
 30
0.0
 10
184.639232
 20
17.000008
 30
0.0
 10
184.759112
 20
16.710592
 30
0.0
 10
184.800000
 20
16.400000
 30
0.0
 10
184.759120
 20
16.089416
 30
0.0
 10
184.639240
 20
15.800000
 30
0.0
 10
184.448536
 20
15.551472
 30
0.0
 10
184.200008
 20
15.360768
 30
0.0
 10
183.910592
 20
15.240888
 30
0.0
 10
183.600000
 20
15.200000
 30
0.0
 10
183.289416
 20
15.240880
 30
0.0
 10
183.000000
 20
15.360760
 30
0.0
 10
182.751472
 20
15.551464
 30
0.0
 10
182.560768
 20
15.799992
 30
0.0
 10
182.440888
 20
16.089408
 30
0.0
  0
LWPOLYLINE
  5
104
100
AcDbEntity
  8
0
 62
7
100
AcDbPolyline
 90
25
 70
0
 10
17.559111
 20
16.710584
 30
0.0
 10
17.600000
 20
16.400000
 30
0.0
 10
17.559111
 20
16.089416
 30
0.0
 10
17.439230
 20
15.800000
 30
0.0
 10
17.248528
 20
15.551472
 30
0.0
 10
17.000000
 20
15.360768
 30
0.0
 10
16.710583
 20
15.240888
 30
0.0
 10
16.400000
 20
15.200000
 30
0.0
 10
16.089417
 20
15.240888
 30
0.0
 10
15.800000
 20
15.360768
 30
0.0
 10
15.551472
 20
15.551472
 30
0.0
 10
15.360770
 20
15.800000
 30
0.0
 10
15.240889
 20
16.089416
 30
0.0
 10
15.200000
 20
16.400000
 30
0.0
 10
15.240889
 20
16.710584
 30
0.0
 10
15.360770
 20
17.000000
 30
0.0
 10
15.551472
 20
17.248528
 30
0.0
 10
15.800000
 20
17.439232
 30
0.0
 10
16.089417
 20
17.559112
 30
0.0
 10
16.400000
 20
17.600000
 30
0.0
 10
16.710583
 20
17.559120
 30
0.0
 10
17.000000
 20
17.439240
 30
0.0
 10
17.248528
 20
17.248536
 30
0.0
 10
17.439230
 20
17.000008
 30
0.0
 10
17.559111
 20
16.710592
 30
0.0
  0
LWPOLYLINE
  5
105
100
AcDbEntity
  8
0
 62
7
100
AcDbPolyline
 90
25
 70
0
 10
154.840888
 20
141.510583
 30
0.0
 10
154.960768
 20
141.800000
 30
0.0
 10
155.151472
 20
142.048528
 30
0.0
 10
155.400000
 20
142.239230
 30
0.0
 10
155.689416
 20
142.359111
 30
0.0
 10
156.000000
 20
142.400000
 30
0.0
 10
156.310584
 20
142.359112
 30
0.0
 10
156.600000
 20
142.239231
 30
0.0
 10
156.848528
 20
142.048529
 30
0.0
 10
157.039232
 20
141.800001
 30
0.0
 10
157.159112
 20
141.510584
 30
0.0
 10
157.200000
 20
141.200000
 30
0.0
 10
157.159112
 20
140.889417
 30
0.0
 10
157.039232
 20
140.600000
 30
0.0
 10
156.848528
 20
140.351472
 30
0.0
 10
156.600000
 20
140.160770
 30
0.0
 10
156.310584
 20
140.040889
 30
0.0
 10
156.000000
 20
140.000000
 30
0.0
 10
155.689416
 20
140.040889
 30
0.0
 10
155.400000
 20
140.160770
 30
0.0
 10
155.151472
 20
140.351472
 30
0.0
 10
154.960768
 20
140.600000
 30
0.0
 10
154.840888
 20
140.889417
 30
0.0
 10
154.800000
 20
141.200000
 30
0.0
 10
154.840880
 20
141.510583
 30
0.0
  0
LWPOLYLINE
  5
106
100
AcDbEntity
  8
0
 62
7
100
AcDbPolyline
 90
25
 70
0
 10
43.689417
 20
140.040889
 30
0.0
 10
43.400000
 20
140.160770
 30
0.0
 10
43.151472
 20
140.351472
 30
0.0
 10
42.960770
 20
140.600000
 30
0.0
 10
42.840889
 20
140.889417
 30
0.0
 10
42.800000
 20
141.200000
 30
0.0
 10
42.840889
 20
141.510583
 30
0.0
 10
42.960770
 20
141.800000
 30
0.0
 10
43.151472
 20
142.048528
 30
0.0
 10
43.400000
 20
142.239230
 30
0.0
 10
43.689417
 20
142.359111
 30
0.0
 10
44.000000
 20
142.400000
 30
0.0
 10
44.310583
 20
142.359111
 30
0.0
 10
44.600000
 20
142.239230
 30
0.0
 10
44.848528
 20
142.048528
 30
0.0
 10
45.039230
 20
141.800000
 30
0.0
 10
45.159111
 20
141.510583
 30
0.0
 10
45.200000
 20
141.200000
 30
0.0
 10
45.159111
 20
140.889417
 30
0.0
 10
45.039230
 20
140.600000
 30
0.0
 10
44.848528
 20
140.351472
 30
0.0
 10
44.600000
 20
140.160770
 30
0.0
 10
44.310583
 20
140.040889
 30
0.0
 10
44.000000
 20
140.000000
 30
0.0
 10
43.689417
 20
140.040889
 30
0.0
  0
LWPOLYLINE
  5
107
100
AcDbEntity
  8
0
 62
7
100
AcDbPolyline
 90
25
 70
0
 10
156.310584
 20
59.959112
 30
0.0
 10
156.600000
 20
59.839232
 30
0.0
 10
156.848528
 20
59.648528
 30
0.0
 10
157.039232
 20
59.400000
 30
0.0
 10
157.159112
 20
59.110584
 30
0.0
 10
157.199992
 20
58.800000
 30
0.0
 10
157.159112
 20
58.489416
 30
0.0
 10
157.039232
 20
58.200000
 30
0.0
 10
156.848528
 20
57.951472
 30
0.0
 10
156.600000
 20
57.760768
 30
0.0
 10
156.310584
 20
57.640888
 30
0.0
 10
156.000000
 20
57.600000
 30
0.0
 10
155.689416
 20
57.640880
 30
0.0
 10
155.400000
 20
57.760760
 30
0.0
 10
155.151472
 20
57.951464
 30
0.0
 10
154.960768
 20
58.199992
 30
0.0
 10
154.840888
 20
58.489408
 30
0.0
 10
154.800000
 20
58.800000
 30
0.0
 10
154.840880
 20
59.110584
 30
0.0
 10
154.960760
 20
59.400000
 30
0.0
 10
155.151464
 20
59.648528
 30
0.0
 10
155.399992
 20
59.839232
 30
0.0
 10
155.689408
 20
59.959112
 30
0.0
 10
156.000000
 20
60.000000
 30
0.0
 10
156.310584
 20
59.959120
 30
0.0
  0
LWPOLYLINE
  5
108
100
AcDbEntity
  8
0
 62
7
100
AcDbPolyline
 90
25
 70
0
 10
42.840889
 20
58.489416
 30
0.0
 10
42.800000
 20
58.800000
 30
0.0
 10
42.840889
 20
59.110584
 30
0.0
 10
42.960770
 20
59.400000
 30
0.0
 10
43.151472
 20
59.648528
 30
0.0
 10
43.400000
 20
59.839232
 30
0.0
 10
43.689417
 20
59.959112
 30
0.0
 10
44.000000
 20
60.000000
 30
0.0
 10
44.310583
 20
59.959120
 30
0.0
 10
44.600000
 20
59.839240
 30
0.0
 10
44.848528
 20
59.648536
 30
0.0
 10
45.039230
 20
59.400008
 30
0.0
 10
45.159111
 20
59.110592
 30
0.0
 10
45.200000
 20
58.800000
 30
0.0
 10
45.159111
 20
58.489416
 30
0.0
 10
45.039230
 20
58.200000
 30
0.0
 10
44.848528
 20
57.951472
 30
0.0
 10
44.600000
 20
57.760768
 30
0.0
 10
44.310583
 20
57.640888
 30
0.0
 10
44.000000
 20
57.600000
 30
0.0
 10
43.689417
 20
57.640888
 30
0.0
 10
43.400000
 20
57.760768
 30
0.0
 10
43.151472
 20
57.951472
 30
0.0
 10
42.960770
 20
58.200000
 30
0.0
 10
42.840889
 20
58.489416
 30
0.0
  0
LWPOLYLINE
  5
109
100
AcDbEntity
  8
0
 62
5
100
AcDbPolyline
 90
15
 70
1
 10
91.812098
 20
28.301772
 30
0.0
 10
89.601725
 20
20.094177
 30
0.0
 10
87.259059
 20
20.094177
 30
0.0
 10
85.787315
 20
25.440965
 30
0.0
 10
84.354155
 20
20.094177
 30
0.0
 10
82.011491
 20
20.094177
 30
0.0
 10
79.801118
 20
28.301772
 30
0.0
 10
82.011491
 20
28.301772
 30
0.0
 10
83.273774
 20
22.651817
 30
0.0
 10
84.784103
 20
28.301772
 30
0.0
 10
86.895259
 20
28.301772
 30
0.0
 10
88.333931
 20
22.651817
 30
0.0
 10
89.656846
 20
28.301772
 30
0.0
 10
91.812098
 20
28.301772
 30
0.0
 10
91.812098
 20
28.301772
 30
0.0
  0
LWPOLYLINE
  5
10a
100
AcDbEntity
  8
0
 62
5
100
AcDbPolyline
 90
6
 70
1
 10
96.972292
 20
20.094177
 30
0.0
 10
94.987918
 20
20.094177
 30
0.0
 10
94.987918
 20
26.284326
 30
0.0
 10
96.972292
 20
26.284326
 30
0.0
 10
96.972292
 20
20.094177
 30
0.0
 10
96.972292
 20
20.094177
 30
0.0
  0
LWPOLYLINE
  5
10b
100
AcDbEntity
  8
0
 62
5
100
AcDbPolyline
 90
6
 70
1
 10
97.027414
 20
27.166271
 30
0.0
 10
94.932796
 20
27.166271
 30
0.0
 10
94.932796
 20
28.671086
 30
0.0
 10
97.027414
 20
28.671086
 30
0.0
 10
97.027414
 20
27.166271
 30
0.0
 10
97.027414
 20
27.166271
 30
0.0
  0
SPLINE
  5
10c
100
AcDbEntity
  8
0
 62
5
100
AcDbSpline
 70
8
 71
3
 72
8
 73
4
 74
0
 40
0
 40
0
 40
0
 40
0
 40
1
 40
1
 40
1
 40
1
 10
111.823674
 20
22.056504
 30
0.0
 10
111.823674
 20
21.417094
 30
0.0
 10
111.537043
 20
20.900789
 30
0.0
 10
110.963779
 20
20.507589
 30
0.0
  0
SPLINE
  5
10d
100
AcDbEntity
  8
0
 62
5
100
AcDbSpline
 70
8
 71
3
 72
8
 73
4
 74
0
 40
0
 40
0
 40
0
 40
0
 40
1
 40
1
 40
1
 40
1
 10
110.963779
 20
20.507589
 30
0.0
 10
110.390514
 20
20.118064
 30
0.0
 10
109.605951
 20
19.923301
 30
0.0
 10
108.610089
 20
19.923301
 30
0.0
  0
SPLINE
  5
10e
100
AcDbEntity
  8
0
 62
5
100
AcDbSpline
 70
8
 71
3
 72
8
 73
4
 74
0
 40
0
 40
0
 40
0
 40
0
 40
1
 40
1
 40
1
 40
1
 10
108.610089
 20
19.923301
 30
0.0
 10
108.058874
 20
19.923301
 30
0.0
 10
107.559105
 20
19.974748
 30
0.0
 10
107.110784
 20
20.077641
 30
0.0
  0
SPLINE
  5
10f
100
AcDbEntity
  8
0
 62
5
100
AcDbSpline
 70
8
 71
3
 72
8
 73
4
 74
0
 40
0
 40
0
 40
0
 40
0
 40
1
 40
1
 40
1
 40
1
 10
107.110784
 20
20.077641
 30
0.0
 10
106.662462
 20
20.180534
 30
0.0
 10
106.302334
 20
20.294451
 30
0.0
 10
106.030402
 20
20.419394
 30
0.0
  0
LWPOLYLINE
  5
110
100
AcDbEntity
  8
0
 62
5
100
AcDbPolyline
 90
6
 70
1
 10
102.700240
 20
20.094177
 30
0.0
 10
100.715866
 20
20.094177
 30
0.0
 10
100.715866
 20
28.671086
 30
0.0
 10
102.700240
 20
28.671086
 30
0.0
 10
102.700240
 20
20.094177
 30
0.0
 10
102.700240
 20
20.094177
 30
0.0
  0
SPLINE
  5
111
100
AcDbEntity
  8
0
 62
5
100
AcDbSpline
 70
8
 71
3
 72
8
 73
4
 74
0
 40
0
 40
0
 40
0
 40
0
 40
1
 40
1
 40
1
 40
1
 10
106.212302
 20
22.050993
 30
0.0
 10
106.311521
 20
21.981172
 30
0.0
 10
106.425439
 20
21.904001
 30
0.0
 10
106.554057
 20
21.819480
 30
0.0
  0
SPLINE
  5
112
100
AcDbEntity
  8
0
 62
5
100
AcDbSpline
 70
8
 71
3
 72
8
 73
4
 74
0
 40
0
 40
0
 40
0
 40
0
 40
1
 40
1
 40
1
 40
1
 10
106.554057
 20
21.819480
 30
0.0
 10
106.686348
 20
21.738637
 30
0.0
 10
106.871924
 20
21.650443
 30
0.0
 10
107.110784
 20
21.554898
 30
0.0
  0
SPLINE
  5
113
100
AcDbEntity
  8
0
 62
5
100
AcDbSpline
 70
8
 71
3
 72
8
 73
4
 74
0
 40
0
 40
0
 40
0
 40
0
 40
1
 40
1
 40
1
 40
1
 10
107.110784
 20
21.554898
 30
0.0
 10
107.316570
 20
21.470379
 30
0.0
 10
107.549918
 20
21.396884
 30
0.0
 10
107.810827
 20
21.334413
 30
0.0
  0
SPLINE
  5
114
100
AcDbEntity
  8
0
 62
5
100
AcDbSpline
 70
8
 71
3
 72
8
 73
4
 74
0
 40
0
 40
0
 40
0
 40
0
 40
1
 40
1
 40
1
 40
1
 10
107.810827
 20
21.334413
 30
0.0
 10
108.071735
 20
21.275615
 30
0.0
 10
108.351018
 20
21.246217
 30
0.0
 10
108.648674
 20
21.246217
 30
0.0
  0
SPLINE
  5
115
100
AcDbEntity
  8
0
 62
5
100
AcDbSpline
 70
8
 71
3
 72
8
 73
4
 74
0
 40
0
 40
0
 40
0
 40
0
 40
1
 40
1
 40
1
 40
1
 10
108.648674
 20
21.246217
 30
0.0
 10
109.038200
 20
21.246217
 30
0.0
 10
109.326669
 20
21.288477
 30
0.0
 10
109.514083
 20
21.372998
 30
0.0
  0
SPLINE
  5
116
100
AcDbEntity
  8
0
 62
5
100
AcDbSpline
 70
8
 71
3
 72
8
 73
4
 74
0
 40
0
 40
0
 40
0
 40
0
 40
1
 40
1
 40
1
 40
1
 10
109.514083
 20
21.372998
 30
0.0
 10
109.701495
 20
21.461191
 30
0.0
 10
109.795201
 20
21.589808
 30
0.0
 10
109.795201
 20
21.758848
 30
0.0
  0
SPLINE
  5
117
100
AcDbEntity
  8
0
 62
5
100
AcDbSpline
 70
8
 71
3
 72
8
 73
4
 74
0
 40
0
 40
0
 40
0
 40
0
 40
1
 40
1
 40
1
 40
1
 10
109.795201
 20
21.758848
 30
0.0
 10
109.795201
 20
21.909514
 30
0.0
 10
109.740080
 20
22.017919
 30
0.0
 10
109.629837
 20
22.084065
 30
0.0
  0
SPLINE
  5
118
100
AcDbEntity
  8
0
 62
5
100
AcDbSpline
 70
8
 71
3
 72
8
 73
4
 74
0
 40
0
 40
0
 40
0
 40
0
 40
1
 40
1
 40
1
 40
1
 10
109.629837
 20
22.084065
 30
0.0
 10
109.519594
 20
22.153886
 30
0.0
 10
109.310132
 20
22.220032
 30
0.0
 10
109.001452
 20
22.282503
 30
0.0
  0
SPLINE
  5
119
100
AcDbEntity
  8
0
 62
5
100
AcDbSpline
 70
8
 71
3
 72
8
 73
4
 74
0
 40
0
 40
0
 40
0
 40
0
 40
1
 40
1
 40
1
 40
1
 10
109.001452
 20
22.282503
 30
0.0
 10
108.854462
 20
22.315575
 30
0.0
 10
108.654187
 20
22.350485
 30
0.0
 10
108.400628
 20
22.387232
 30
0.0
  0
SPLINE
  5
11a
100
AcDbEntity
  8
0
 62
5
100
AcDbSpline
 70
8
 71
3
 72
8
 73
4
 74
0
 40
0
 40
0
 40
0
 40
0
 40
1
 40
1
 40
1
 40
1
 10
108.400628
 20
22.387232
 30
0.0
 10
108.150743
 20
22.427656
 30
0.0
 10
107.922907
 20
22.475428
 30
0.0
 10
107.717120
 20
22.530549
 30
0.0
  0
SPLINE
  5
11b
100
AcDbEntity
  8
0
 62
5
100
AcDbSpline
 70
8
 71
3
 72
8
 73
4
 74
0
 40
0
 40
0
 40
0
 40
0
 40
1
 40
1
 40
1
 40
1
 10
107.717120
 20
22.530549
 30
0.0
 10
107.154880
 20
22.677540
 30
0.0
 10
106.737794
 20
22.905375
 30
0.0
 10
106.465862
 20
23.214055
 30
0.0
  0
SPLINE
  5
11c
100
AcDbEntity
  8
0
 62
5
100
AcDbSpline
 70
8
 71
3
 72
8
 73
4
 74
0
 40
0
 40
0
 40
0
 40
0
 40
1
 40
1
 40
1
 40
1
 10
106.465862
 20
23.214055
 30
0.0
 10
106.193929
 20
23.526411
 30
0.0
 10
106.057962
 20
23.914100
 30
0.0
 10
106.057962
 20
24.377120
 30
0.0
  0
SPLINE
  5
11d
100
AcDbEntity
  8
0
 62
5
100
AcDbSpline
 70
8
 71
3
 72
8
 73
4
 74
0
 40
0
 40
0
 40
0
 40
0
 40
1
 40
1
 40
1
 40
1
 10
106.057962
 20
24.377120
 30
0.0
 10
106.057962
 20
24.972433
 30
0.0
 10
106.339082
 20
25.466689
 30
0.0
 10
106.901321
 20
25.859889
 30
0.0
  0
SPLINE
  5
11e
100
AcDbEntity
  8
0
 62
5
100
AcDbSpline
 70
8
 71
3
 72
8
 73
4
 74
0
 40
0
 40
0
 40
0
 40
0
 40
1
 40
1
 40
1
 40
1
 10
106.901321
 20
25.859889
 30
0.0
 10
107.467236
 20
26.256764
 30
0.0
 10
108.238938
 20
26.455201
 30
0.0
 10
109.216426
 20
26.455201
 30
0.0
  0
SPLINE
  5
11f
100
AcDbEntity
  8
0
 62
5
100
AcDbSpline
 70
8
 71
3
 72
8
 73
4
 74
0
 40
0
 40
0
 40
0
 40
0
 40
1
 40
1
 40
1
 40
1
 10
109.216426
 20
26.455201
 30
0.0
 10
109.679447
 20
26.455201
 30
0.0
 10
110.122257
 20
26.407430
 30
0.0
 10
110.544855
 20
26.311887
 30
0.0
  0
SPLINE
  5
120
100
AcDbEntity
  8
0
 62
5
100
AcDbSpline
 70
8
 71
3
 72
8
 73
4
 74
0
 40
0
 40
0
 40
0
 40
0
 40
1
 40
1
 40
1
 40
1
 10
110.544855
 20
26.311887
 30
0.0
 10
110.971128
 20
26.220016
 30
0.0
 10
111.303695
 20
26.120798
 30
0.0
 10
111.542554
 20
26.014230
 30
0.0
  0
LWPOLYLINE
  5
121
100
AcDbEntity
  8
0
 62
5
100
AcDbPolyline
 90
3
 70
1
 10
106.030402
 20
20.419394
 30
0.0
 10
106.030402
 20
22.050993
 30
0.0
 10
106.212302
 20
22.050993
 30
0.0
  0
SPLINE
  5
122
100
AcDbEntity
  8
0
 62
5
100
AcDbSpline
 70
8
 71
3
 72
8
 73
4
 74
0
 40
0
 40
0
 40
0
 40
0
 40
1
 40
1
 40
1
 40
1
 10
111.371678
 20
24.448778
 30
0.0
 10
111.077696
 20
24.650891
 30
0.0
 10
110.741454
 20
24.814418
 30
0.0
 10
110.362953
 20
24.939359
 30
0.0
  0
SPLINE
  5
123
100
AcDbEntity
  8
0
 62
5
100
AcDbSpline
 70
8
 71
3
 72
8
 73
4
 74
0
 40
0
 40
0
 40
0
 40
0
 40
1
 40
1
 40
1
 40
1
 10
110.362953
 20
24.939359
 30
0.0
 10
109.988127
 20
25.067977
 30
0.0
 10
109.607789
 20
25.132286
 30
0.0
 10
109.221938
 20
25.132286
 30
0.0
  0
SPLINE
  5
124
100
AcDbEntity
  8
0
 62
5
100
AcDbSpline
 70
8
 71
3
 72
8
 73
4
 74
0
 40
0
 40
0
 40
0
 40
0
 40
1
 40
1
 40
1
 40
1
 10
109.221938
 20
25.132286
 30
0.0
 10
108.902233
 20
25.132286
 30
0.0
 10
108.632138
 20
25.088189
 30
0.0
 10
108.411651
 20
24.999994
 30
0.0
  0
SPLINE
  5
125
100
AcDbEntity
  8
0
 62
5
100
AcDbSpline
 70
8
 71
3
 72
8
 73
4
 74
0
 40
0
 40
0
 40
0
 40
0
 40
1
 40
1
 40
1
 40
1
 10
108.411651
 20
24.999994
 30
0.0
 10
108.194841
 20
24.911799
 30
0.0
 10
108.086436
 20
24.786857
 30
0.0
 10
108.086436
 20
24.625166
 30
0.0
  0
SPLINE
  5
126
100
AcDbEntity
  8
0
 62
5
100
AcDbSpline
 70
8
 71
3
 72
8
 73
4
 74
0
 40
0
 40
0
 40
0
 40
0
 40
1
 40
1
 40
1
 40
1
 10
108.086436
 20
24.625166
 30
0.0
 10
108.086436
 20
24.478176
 30
0.0
 10
108.136044
 20
24.366096
 30
0.0
 10
108.235262
 20
24.288925
 30
0.0
  0
SPLINE
  5
127
100
AcDbEntity
  8
0
 62
5
100
AcDbSpline
 70
8
 71
3
 72
8
 73
4
 74
0
 40
0
 40
0
 40
0
 40
0
 40
1
 40
1
 40
1
 40
1
 10
108.235262
 20
24.288925
 30
0.0
 10
108.334480
 20
24.211755
 30
0.0
 10
108.567829
 20
24.134585
 30
0.0
 10
108.935306
 20
24.057414
 30
0.0
  0
SPLINE
  5
128
100
AcDbEntity
  8
0
 62
5
100
AcDbSpline
 70
8
 71
3
 72
8
 73
4
 74
0
 40
0
 40
0
 40
0
 40
0
 40
1
 40
1
 40
1
 40
1
 10
108.935306
 20
24.057414
 30
0.0
 10
109.137418
 20
24.016993
 30
0.0
 10
109.354229
 20
23.976570
 30
0.0
 10
109.585740
 20
23.936147
 30
0.0
  0
SPLINE
  5
129
100
AcDbEntity
  8
0
 62
5
100
AcDbSpline
 70
8
 71
3
 72
8
 73
4
 74
0
 40
0
 40
0
 40
0
 40
0
 40
1
 40
1
 40
1
 40
1
 10
109.585740
 20
23.936147
 30
0.0
 10
109.820925
 20
23.899399
 30
0.0
 10
110.056111
 20
23.851628
 30
0.0
 10
110.291296
 20
23.792832
 30
0.0
  0
SPLINE
  5
12a
100
AcDbEntity
  8
0
 62
5
100
AcDbSpline
 70
8
 71
3
 72
8
 73
4
 74
0
 40
0
 40
0
 40
0
 40
0
 40
1
 40
1
 40
1
 40
1
 10
110.291296
 20
23.792832
 30
0.0
 10
110.813113
 20
23.656866
 30
0.0
 10
111.198964
 20
23.441892
 30
0.0
 10
111.448847
 20
23.147909
 30
0.0
  0
SPLINE
  5
12b
100
AcDbEntity
  8
0
 62
5
100
AcDbSpline
 70
8
 71
3
 72
8
 73
4
 74
0
 40
0
 40
0
 40
0
 40
0
 40
1
 40
1
 40
1
 40
1
 10
111.448847
 20
23.147909
 30
0.0
 10
111.698732
 20
22.857603
 30
0.0
 10
111.823674
 20
22.493801
 30
0.0
 10
111.823674
 20
22.056504
 30
0.0
  0
LWPOLYLINE
  5
12c
100
AcDbEntity
  8
0
 62
5
100
AcDbPolyline
 90
3
 70
1
 10
111.542554
 20
26.014230
 30
0.0
 10
111.542554
 20
24.448778
 30
0.0
 10
111.371678
 20
24.448778
 30
0.0
  0
SPLINE
  5
12d
100
AcDbEntity
  8
0
 62
5
100
AcDbSpline
 70
8
 71
3
 72
8
 73
4
 74
0
 40
0
 40
0
 40
0
 40
0
 40
1
 40
1
 40
1
 40
1
 10
121.343983
 20
23.186495
 30
0.0
 10
121.343983
 20
22.168585
 30
0.0
 10
121.046327
 20
21.365648
 30
0.0
 10
120.451016
 20
20.777685
 30
0.0
  0
SPLINE
  5
12e
100
AcDbEntity
  8
0
 62
5
100
AcDbSpline
 70
8
 71
3
 72
8
 73
4
 74
0
 40
0
 40
0
 40
0
 40
0
 40
1
 40
1
 40
1
 40
1
 10
120.451016
 20
20.777685
 30
0.0
 10
119.859377
 20
20.193396
 30
0.0
 10
119.027042
 20
19.901252
 30
0.0
 10
117.954011
 20
19.901252
 30
0.0
  0
SPLINE
  5
12f
100
AcDbEntity
  8
0
 62
5
100
AcDbSpline
 70
8
 71
3
 72
8
 73
4
 74
0
 40
0
 40
0
 40
0
 40
0
 40
1
 40
1
 40
1
 40
1
 10
117.954011
 20
19.901252
 30
0.0
 10
116.880978
 20
19.901252
 30
0.0
 10
116.046805
 20
20.193396
 30
0.0
 10
115.451492
 20
20.777685
 30
0.0
  0
SPLINE
  5
130
100
AcDbEntity
  8
0
 62
5
100
AcDbSpline
 70
8
 71
3
 72
8
 73
4
 74
0
 40
0
 40
0
 40
0
 40
0
 40
1
 40
1
 40
1
 40
1
 10
115.451492
 20
20.777685
 30
0.0
 10
114.859855
 20
21.365648
 30
0.0
 10
114.564036
 20
22.168585
 30
0.0
 10
114.564036
 20
23.186495
 30
0.0
  0
SPLINE
  5
131
100
AcDbEntity
  8
0
 62
5
100
AcDbSpline
 70
8
 71
3
 72
8
 73
4
 74
0
 40
0
 40
0
 40
0
 40
0
 40
1
 40
1
 40
1
 40
1
 10
114.564036
 20
23.186495
 30
0.0
 10
114.564036
 20
24.211756
 30
0.0
 10
114.861693
 20
25.016530
 30
0.0
 10
115.457005
 20
25.600818
 30
0.0
  0
SPLINE
  5
132
100
AcDbEntity
  8
0
 62
5
100
AcDbSpline
 70
8
 71
3
 72
8
 73
4
 74
0
 40
0
 40
0
 40
0
 40
0
 40
1
 40
1
 40
1
 40
1
 10
115.457005
 20
25.600818
 30
0.0
 10
116.055992
 20
26.185107
 30
0.0
 10
116.888327
 20
26.477251
 30
0.0
 10
117.954011
 20
26.477251
 30
0.0
  0
SPLINE
  5
133
100
AcDbEntity
  8
0
 62
5
100
AcDbSpline
 70
8
 71
3
 72
8
 73
4
 74
0
 40
0
 40
0
 40
0
 40
0
 40
1
 40
1
 40
1
 40
1
 10
117.954011
 20
26.477251
 30
0.0
 10
119.034392
 20
26.477251
 30
0.0
 10
119.868564
 20
26.183269
 30
0.0
 10
120.456527
 20
25.595307
 30
0.0
  0
SPLINE
  5
134
100
AcDbEntity
  8
0
 62
5
100
AcDbSpline
 70
8
 71
3
 72
8
 73
4
 74
0
 40
0
 40
0
 40
0
 40
0
 40
1
 40
1
 40
1
 40
1
 10
120.456527
 20
25.595307
 30
0.0
 10
121.048164
 20
25.007344
 30
0.0
 10
121.343983
 20
24.204406
 30
0.0
 10
121.343983
 20
23.186495
 30
0.0
  0
LWPOLYLINE
  5
135
100
AcDbEntity
  8
0
 62
5
100
AcDbPolyline
 90
2
 70
1
 10
111.823674
 20
22.056504
 30
0.0
 10
111.823674
 20
22.056504
 30
0.0
  0
SPLINE
  5
136
100
AcDbEntity
  8
0
 62
5
100
AcDbSpline
 70
8
 71
3
 72
8
 73
4
 74
0
 40
0
 40
0
 40
0
 40
0
 40
1
 40
1
 40
1
 40
1
 10
118.902099
 20
21.681677
 30
0.0
 10
119.030717
 20
21.839693
 30
0.0
 10
119.126262
 20
22.028943
 30
0.0
 10
119.188733
 20
22.249429
 30
0.0
  0
SPLINE
  5
137
100
AcDbEntity
  8
0
 62
5
100
AcDbSpline
 70
8
 71
3
 72
8
 73
4
 74
0
 40
0
 40
0
 40
0
 40
0
 40
1
 40
1
 40
1
 40
1
 10
119.188733
 20
22.249429
 30
0.0
 10
119.254878
 20
22.473590
 30
0.0
 10
119.287951
 20
22.782270
 30
0.0
 10
119.287951
 20
23.175470
 30
0.0
  0
SPLINE
  5
138
100
AcDbEntity
  8
0
 62
5
100
AcDbSpline
 70
8
 71
3
 72
8
 73
4
 74
0
 40
0
 40
0
 40
0
 40
0
 40
1
 40
1
 40
1
 40
1
 10
119.287951
 20
23.175470
 30
0.0
 10
119.287951
 20
23.539273
 30
0.0
 10
119.254878
 20
23.844279
 30
0.0
 10
119.188733
 20
24.090489
 30
0.0
  0
SPLINE
  5
139
100
AcDbEntity
  8
0
 62
5
100
AcDbSpline
 70
8
 71
3
 72
8
 73
4
 74
0
 40
0
 40
0
 40
0
 40
0
 40
1
 40
1
 40
1
 40
1
 10
119.188733
 20
24.090489
 30
0.0
 10
119.122586
 20
24.336698
 30
0.0
 10
119.030716
 20
24.533298
 30
0.0
 10
118.913124
 20
24.680288
 30
0.0
  0
SPLINE
  5
13a
100
AcDbEntity
  8
0
 62
5
100
AcDbSpline
 70
8
 71
3
 72
8
 73
4
 74
0
 40
0
 40
0
 40
0
 40
0
 40
1
 40
1
 40
1
 40
1
 10
118.913124
 20
24.680288
 30
0.0
 10
118.795531
 20
24.830954
 30
0.0
 10
118.654053
 20
24.937523
 30
0.0
 10
118.488688
 20
24.999994
 30
0.0
  0
SPLINE
  5
13b
100
AcDbEntity
  8
0
 62
5
100
AcDbSpline
 70
8
 71
3
 72
8
 73
4
 74
0
 40
0
 40
0
 40
0
 40
0
 40
1
 40
1
 40
1
 40
1
 10
118.488688
 20
24.999994
 30
0.0
 10
118.323324
 20
25.062465
 30
0.0
 10
118.145098
 20
25.093701
 30
0.0
 10
117.954011
 20
25.093701
 30
0.0
  0
SPLINE
  5
13c
100
AcDbEntity
  8
0
 62
5
100
AcDbSpline
 70
8
 71
3
 72
8
 73
4
 74
0
 40
0
 40
0
 40
0
 40
0
 40
1
 40
1
 40
1
 40
1
 10
117.954011
 20
25.093701
 30
0.0
 10
117.762921
 20
25.093701
 30
0.0
 10
117.592044
 20
25.067977
 30
0.0
 10
117.441380
 20
25.016530
 30
0.0
  0
SPLINE
  5
13d
100
AcDbEntity
  8
0
 62
5
100
AcDbSpline
 70
8
 71
3
 72
8
 73
4
 74
0
 40
0
 40
0
 40
0
 40
0
 40
1
 40
1
 40
1
 40
1
 10
117.441380
 20
25.016530
 30
0.0
 10
117.294389
 20
24.965082
 30
0.0
 10
117.152911
 20
24.862189
 30
0.0
 10
117.016945
 20
24.707849
 30
0.0
  0
SPLINE
  5
13e
100
AcDbEntity
  8
0
 62
5
100
AcDbSpline
 70
8
 71
3
 72
8
 73
4
 74
0
 40
0
 40
0
 40
0
 40
0
 40
1
 40
1
 40
1
 40
1
 10
117.016945
 20
24.707849
 30
0.0
 10
116.895676
 20
24.564534
 30
0.0
 10
116.798295
 20
24.367934
 30
0.0
 10
116.724800
 20
24.118049
 30
0.0
  0
SPLINE
  5
13f
100
AcDbEntity
  8
0
 62
5
100
AcDbSpline
 70
8
 71
3
 72
8
 73
4
 74
0
 40
0
 40
0
 40
0
 40
0
 40
1
 40
1
 40
1
 40
1
 10
116.724800
 20
24.118049
 30
0.0
 10
116.654979
 20
23.868164
 30
0.0
 10
116.620068
 20
23.553971
 30
0.0
 10
116.620068
 20
23.175470
 30
0.0
  0
SPLINE
  5
140
100
AcDbEntity
  8
0
 62
5
100
AcDbSpline
 70
8
 71
3
 72
8
 73
4
 74
0
 40
0
 40
0
 40
0
 40
0
 40
1
 40
1
 40
1
 40
1
 10
116.620068
 20
23.175470
 30
0.0
 10
116.620068
 20
22.837392
 30
0.0
 10
116.651304
 20
22.543410
 30
0.0
 10
116.713775
 20
22.293526
 30
0.0
  0
SPLINE
  5
141
100
AcDbEntity
  8
0
 62
5
100
AcDbSpline
 70
8
 71
3
 72
8
 73
4
 74
0
 40
0
 40
0
 40
0
 40
0
 40
1
 40
1
 40
1
 40
1
 10
116.713775
 20
22.293526
 30
0.0
 10
116.776246
 20
22.047316
 30
0.0
 10
116.868116
 20
21.848880
 30
0.0
 10
116.989384
 20
21.698215
 30
0.0
  0
SPLINE
  5
142
100
AcDbEntity
  8
0
 62
5
100
AcDbSpline
 70
8
 71
3
 72
8
 73
4
 74
0
 40
0
 40
0
 40
0
 40
0
 40
1
 40
1
 40
1
 40
1
 10
116.989384
 20
21.698215
 30
0.0
 10
117.106977
 20
21.554899
 30
0.0
 10
117.246617
 20
21.450167
 30
0.0
 10
117.408306
 20
21.384020
 30
0.0
  0
SPLINE
  5
143
100
AcDbEntity
  8
0
 62
5
100
AcDbSpline
 70
8
 71
3
 72
8
 73
4
 74
0
 40
0
 40
0
 40
0
 40
0
 40
1
 40
1
 40
1
 40
1
 10
117.408306
 20
21.384020
 30
0.0
 10
117.573671
 20
21.317875
 30
0.0
 10
117.761085
 20
21.284802
 30
0.0
 10
117.970547
 20
21.284802
 30
0.0
  0
SPLINE
  5
144
100
AcDbEntity
  8
0
 62
5
100
AcDbSpline
 70
8
 71
3
 72
8
 73
4
 74
0
 40
0
 40
0
 40
0
 40
0
 40
1
 40
1
 40
1
 40
1
 10
117.970547
 20
21.284802
 30
0.0
 10
118.150610
 20
21.284802
 30
0.0
 10
118.321487
 20
21.314201
 30
0.0
 10
118.483177
 20
21.372998
 30
0.0
  0
SPLINE
  5
145
100
AcDbEntity
  8
0
 62
5
100
AcDbSpline
 70
8
 71
3
 72
8
 73
4
 74
0
 40
0
 40
0
 40
0
 40
0
 40
1
 40
1
 40
1
 40
1
 10
118.483177
 20
21.372998
 30
0.0
 10
118.648541
 20
21.435468
 30
0.0
 10
118.788182
 20
21.538361
 30
0.0
 10
118.902099
 20
21.681677
 30
0.0
  0
LWPOLYLINE
  5
146
100
AcDbEntity
  8
0
 62
5
100
AcDbPolyline
 90
2
 70
1
 10
121.343983
 20
23.186495
 30
0.0
 10
121.343983
 20
23.186495
 30
0.0
  0
LWPOLYLINE
  5
147
100
AcDbEntity
  8
0
 62
5
100
AcDbPolyline
 90
2
 70
1
 10
118.902099
 20
21.681677
 30
0.0
 10
118.902099
 20
21.681677
 30
0.0
  0
SPLINE
  5
148
100
AcDbEntity
  8
0
 62
5
100
AcDbSpline
 70
8
 71
3
 72
8
 73
4
 74
0
 40
0
 40
0
 40
0
 40
0
 40
1
 40
1
 40
1
 40
1
 10
128.868892
 20
23.164448
 30
0.0
 10
128.868892
 20
23.414331
 30
0.0
 10
128.856030
 20
23.662377
 30
0.0
 10
128.830306
 20
23.908586
 30
0.0
  0
SPLINE
  5
149
100
AcDbEntity
  8
0
 62
5
100
AcDbSpline
 70
8
 71
3
 72
8
 73
4
 74
0
 40
0
 40
0
 40
0
 40
0
 40
1
 40
1
 40
1
 40
1
 10
128.830306
 20
23.908586
 30
0.0
 10
128.804583
 20
24.158471
 30
0.0
 10
128.760486
 20
24.342210
 30
0.0
 10
128.698016
 20
24.459802
 30
0.0
  0
SPLINE
  5
14a
100
AcDbEntity
  8
0
 62
5
100
AcDbSpline
 70
8
 71
3
 72
8
 73
4
 74
0
 40
0
 40
0
 40
0
 40
0
 40
1
 40
1
 40
1
 40
1
 10
128.698016
 20
24.459802
 30
0.0
 10
128.624520
 20
24.595769
 30
0.0
 10
128.516114
 20
24.694988
 30
0.0
 10
128.372799
 20
24.757459
 30
0.0
  0
SPLINE
  5
14b
100
AcDbEntity
  8
0
 62
5
100
AcDbSpline
 70
8
 71
3
 72
8
 73
4
 74
0
 40
0
 40
0
 40
0
 40
0
 40
1
 40
1
 40
1
 40
1
 10
128.372799
 20
24.757459
 30
0.0
 10
128.233157
 20
24.819930
 30
0.0
 10
128.036557
 20
24.851166
 30
0.0
 10
127.782998
 20
24.851166
 30
0.0
  0
SPLINE
  5
14c
100
AcDbEntity
  8
0
 62
5
100
AcDbSpline
 70
8
 71
3
 72
8
 73
4
 74
0
 40
0
 40
0
 40
0
 40
0
 40
1
 40
1
 40
1
 40
1
 10
127.782998
 20
24.851166
 30
0.0
 10
127.602934
 20
24.851166
 30
0.0
 10
127.419196
 20
24.821767
 30
0.0
 10
127.231784
 20
24.762970
 30
0.0
  0
SPLINE
  5
14d
100
AcDbEntity
  8
0
 62
5
100
AcDbSpline
 70
8
 71
3
 72
8
 73
4
 74
0
 40
0
 40
0
 40
0
 40
0
 40
1
 40
1
 40
1
 40
1
 10
127.231784
 20
24.762970
 30
0.0
 10
127.048044
 20
24.704174
 30
0.0
 10
126.847769
 20
24.610468
 30
0.0
 10
126.630958
 20
24.481852
 30
0.0
  0
LWPOLYLINE
  5
14e
100
AcDbEntity
  8
0
 62
5
100
AcDbPolyline
 90
3
 70
1
 10
130.864291
 20
20.094177
 30
0.0
 10
128.868892
 20
20.094177
 30
0.0
 10
128.868892
 20
23.164448
 30
0.0
  0
SPLINE
  5
14f
100
AcDbEntity
  8
0
 62
5
100
AcDbSpline
 70
8
 71
3
 72
8
 73
4
 74
0
 40
0
 40
0
 40
0
 40
0
 40
1
 40
1
 40
1
 40
1
 10
126.630958
 20
25.600818
 30
0.0
 10
126.983735
 20
25.876426
 30
0.0
 10
127.321814
 20
26.087726
 30
0.0
 10
127.645194
 20
26.234716
 30
0.0
  0
SPLINE
  5
150
100
AcDbEntity
  8
0
 62
5
100
AcDbSpline
 70
8
 71
3
 72
8
 73
4
 74
0
 40
0
 40
0
 40
0
 40
0
 40
1
 40
1
 40
1
 40
1
 10
127.645194
 20
26.234716
 30
0.0
 10
127.972248
 20
26.381706
 30
0.0
 10
128.334213
 20
26.455201
 30
0.0
 10
128.731088
 20
26.455201
 30
0.0
  0
SPLINE
  5
151
100
AcDbEntity
  8
0
 62
5
100
AcDbSpline
 70
8
 71
3
 72
8
 73
4
 74
0
 40
0
 40
0
 40
0
 40
0
 40
1
 40
1
 40
1
 40
1
 10
128.731088
 20
26.455201
 30
0.0
 10
129.399896
 20
26.455201
 30
0.0
 10
129.921713
 20
26.260439
 30
0.0
 10
130.296539
 20
25.870913
 30
0.0
  0
SPLINE
  5
152
100
AcDbEntity
  8
0
 62
5
100
AcDbSpline
 70
8
 71
3
 72
8
 73
4
 74
0
 40
0
 40
0
 40
0
 40
0
 40
1
 40
1
 40
1
 40
1
 10
130.296539
 20
25.870913
 30
0.0
 10
130.675040
 20
25.481388
 30
0.0
 10
130.864291
 20
24.898937
 30
0.0
 10
130.864291
 20
24.123561
 30
0.0
  0
LWPOLYLINE
  5
153
100
AcDbEntity
  8
0
 62
5
100
AcDbPolyline
 90
6
 70
1
 10
126.630958
 20
24.481852
 30
0.0
 10
126.630958
 20
20.094177
 30
0.0
 10
124.646583
 20
20.094177
 30
0.0
 10
124.646583
 20
26.284326
 30
0.0
 10
126.630958
 20
26.284326
 30
0.0
 10
126.630958
 20
25.600818
 30
0.0
  0
SPLINE
  5
154
100
AcDbEntity
  8
0
 62
5
100
AcDbSpline
 70
8
 71
3
 72
8
 73
4
 74
0
 40
0
 40
0
 40
0
 40
0
 40
1
 40
1
 40
1
 40
1
 10
68.986888
 20
27.349275
 30
0.0
 10
67.996246
 20
26.358632
 30
0.0
 10
67.383295
 20
24.990294
 30
0.0
 10
67.383295
 20
23.478421
 30
0.0
  0
SPLINE
  5
155
100
AcDbEntity
  8
0
 62
5
100
AcDbSpline
 70
8
 71
3
 72
8
 73
4
 74
0
 40
0
 40
0
 40
0
 40
0
 40
1
 40
1
 40
1
 40
1
 10
67.383295
 20
23.478421
 30
0.0
 10
67.383295
 20
20.454906
 30
0.0
 10
69.834438
 20
18.003976
 30
0.0
 10
72.857745
 20
18.003976
 30
0.0
  0
SPLINE
  5
156
100
AcDbEntity
  8
0
 62
5
100
AcDbSpline
 70
8
 71
3
 72
8
 73
4
 74
0
 40
0
 40
0
 40
0
 40
0
 40
1
 40
1
 40
1
 40
1
 10
72.857745
 20
18.003976
 30
0.0
 10
75.881049
 20
18.003976
 30
0.0
 10
78.332194
 20
20.454906
 30
0.0
 10
78.332194
 20
23.478421
 30
0.0
  0
SPLINE
  5
157
100
AcDbEntity
  8
0
 62
5
100
AcDbSpline
 70
8
 71
3
 72
8
 73
4
 74
0
 40
0
 40
0
 40
0
 40
0
 40
1
 40
1
 40
1
 40
1
 10
78.332194
 20
23.478421
 30
0.0
 10
78.332194
 20
24.990075
 30
0.0
 10
77.719463
 20
26.358632
 30
0.0
 10
76.728820
 20
27.349166
 30
0.0
  0
LWPOLYLINE
  5
158
100
AcDbEntity
  8
0
 62
5
100
AcDbPolyline
 90
3
 70
1
 10
130.864291
 20
24.123561
 30
0.0
 10
130.864291
 20
20.094177
 30
0.0
 10
130.864291
 20
20.094177
 30
0.0
  0
LWPOLYLINE
  5
159
100
AcDbEntity
  8
0
 62
5
100
AcDbPolyline
 90
4
 70
1
 10
72.857745
 20
31.220350
 30
0.0
 10
68.986888
 20
27.349275
 30
0.0
 10
72.857745
 20
31.220350
 30
0.0
 10
72.857745
 20
31.220350
 30
0.0
  0
LWPOLYLINE
  5
15a
100
AcDbEntity
  8
0
 62
5
100
AcDbPolyline
 90
5
 70
1
 10
76.728820
 20
27.349166
 30
0.0
 10
72.857745
 20
31.220350
 30
0.0
 10
72.857745
 20
31.220350
 30
0.0
 10
76.728820
 20
27.349166
 30
0.0
 10
76.728820
 20
27.349166
 30
0.0
  0
SPLINE
  5
15b
100
AcDbEntity
  8
0
 62
5
100
AcDbSpline
 70
8
 71
3
 72
8
 73
4
 74
0
 40
0
 40
0
 40
0
 40
0
 40
1
 40
1
 40
1
 40
1
 10
132.279346
 20
34.568966
 30
0.0
 10
133.165745
 20
34.568966
 30
0.0
 10
133.879345
 20
33.855366
 30
0.0
 10
133.879345
 20
32.968967
 30
0.0
  0
LWPOLYLINE
  5
15c
100
AcDbEntity
  8
0
 62
5
100
AcDbPolyline
 90
2
 70
1
 10
65.479345
 20
34.568966
 30
0.0
 10
132.279346
 20
34.568966
 30
0.0
  0
SPLINE
  5
15d
100
AcDbEntity
  8
0
 62
5
100
AcDbSpline
 70
8
 71
3
 72
8
 73
4
 74
0
 40
0
 40
0
 40
0
 40
0
 40
1
 40
1
 40
1
 40
1
 10
133.879345
 20
16.168965
 30
0.0
 10
133.879345
 20
15.282566
 30
0.0
 10
133.165745
 20
14.568966
 30
0.0
 10
132.279346
 20
14.568966
 30
0.0
  0
LWPOLYLINE
  5
15e
100
AcDbEntity
  8
0
 62
5
100
AcDbPolyline
 90
2
 70
1
 10
133.879345
 20
32.968967
 30
0.0
 10
133.879345
 20
16.168965
 30
0.0
  0
SPLINE
  5
15f
100
AcDbEntity
  8
0
 62
5
100
AcDbSpline
 70
8
 71
3
 72
8
 73
4
 74
0
 40
0
 40
0
 40
0
 40
0
 40
1
 40
1
 40
1
 40
1
 10
65.479345
 20
14.568966
 30
0.0
 10
64.592946
 20
14.568966
 30
0.0
 10
63.879346
 20
15.282566
 30
0.0
 10
63.879346
 20
16.168965
 30
0.0
  0
LWPOLYLINE
  5
160
100
AcDbEntity
  8
0
 62
5
100
AcDbPolyline
 90
2
 70
1
 10
132.279346
 20
14.568966
 30
0.0
 10
65.479345
 20
14.568966
 30
0.0
  0
SPLINE
  5
161
100
AcDbEntity
  8
0
 62
5
100
AcDbSpline
 70
8
 71
3
 72
8
 73
4
 74
0
 40
0
 40
0
 40
0
 40
0
 40
1
 40
1
 40
1
 40
1
 10
63.879346
 20
32.968967
 30
0.0
 10
63.879346
 20
33.855366
 30
0.0
 10
64.592946
 20
34.568966
 30
0.0
 10
65.479345
 20
34.568966
 30
0.0
  0
LWPOLYLINE
  5
162
100
AcDbEntity
  8
0
 62
5
100
AcDbPolyline
 90
2
 70
1
 10
63.879346
 20
16.168965
 30
0.0
 10
63.879346
 20
32.968967
 30
0.0
  0
LWPOLYLINE
  5
163
100
AcDbEntity
  8
0
 62
5
100
AcDbPolyline
 90
2
 70
1
 10
65.479345
 20
34.568966
 30
0.0
 10
65.479345
 20
34.568966
 30
0.0
  0
ENDSEC
  0
SECTION
  2
OBJECTS
  0
DICTIONARY
  5
C
330
0
100
AcDbDictionary
  3
ACAD_GROUP
350
D
  3
ACAD_MLINESTYLE
350
17
  0
DICTIONARY
  5
D
330
C
100
AcDbDictionary
  0
DICTIONARY
  5
1A
330
C
100
AcDbDictionary
  0
DICTIONARY
  5
17
330
C
100
AcDbDictionary
  3
STANDARD
350
18
  0
DICTIONARY
  5
19
330
C
100
AcDbDictionary
  0
ENDSEC
  0
EOF
