999
DXF created by Inkscape
  0
SECTION
  2
HEADER
  9
$ACADVER
  1
AC1014
  9
$HANDSEED
  5
FFFF
  9
$MEASUREMENT
 70
     1
  0
ENDSEC
  0
SECTION
  2
TABLES
  0
TABLE
  2
VPORT
  5
8
330
0
100
AcDbSymbolTable
 70
     4
  0
VPORT
  5
2E
330
8
100
AcDbSymbolTableRecord
100
AcDbViewportTableRecord
  2
*ACTIVE
 70
     0
 10
0.0
 20
0.0
 11
1.0
 21
1.0
 12
210.0
 22
148.5
 13
0.0
 23
0.0
 14
10.0
 24
10.0
 15
10.0
 25
10.0
 16
0.0
 26
0.0
 36
1.0
 17
0.0
 27
0.0
 37
0.0
 40
341.0
 41
1.24
 42
50.0
 43
0.0
 44
0.0
 50
0.0
 51
0.0
 71
     0
 72
   100
 73
     1
 74
     3
 75
     0
 76
     0
 77
     0
 78
     0
  0
ENDTAB
  0
TABLE
  2
LTYPE
  5
5
330
0
100
AcDbSymbolTable
 70
     1
  0
LTYPE
  5
14
330
5
100
AcDbSymbolTableRecord
100
AcDbLinetypeTableRecord
  2
BYBLOCK
 70
     0
  3

 72
    65
 73
     0
 40
0.0
  0
LTYPE
  5
15
330
5
100
AcDbSymbolTableRecord
100
AcDbLinetypeTableRecord
  2
BYLAYER
 70
     0
  3

 72
    65
 73
     0
 40
0.0
  0
LTYPE
  5
16
330
5
100
AcDbSymbolTableRecord
100
AcDbLinetypeTableRecord
  2
CONTINUOUS
 70
     0
  3
Solid line
 72
    65
 73
     0
 40
0.0
  0
ENDTAB
  0
TABLE
  2
LAYER
  5
2
100
AcDbSymbolTable
 70
96
  0
LAYER
  5
50
100
AcDbSymbolTableRecord
100
AcDbLayerTableRecord
  2
0
 70
0
  6
CONTINUOUS
  0
LAYER
  5
51
100
AcDbSymbolTableRecord
100
AcDbLayerTableRecord
  2
Guide
 70
0
  6
CONTINUOUS
  0
LAYER
  5
52
100
AcDbSymbolTableRecord
100
AcDbLayerTableRecord
  2
Layer
 70
0
  6
CONTINUOUS
  0
LAYER
  5
53
100
AcDbSymbolTableRecord
100
AcDbLayerTableRecord
  2
A
 70
0
  6
CONTINUOUS
  0
LAYER
  5
54
100
AcDbSymbolTableRecord
100
AcDbLayerTableRecord
  2
B
 70
0
  6
CONTINUOUS
  0
LAYER
  5
55
100
AcDbSymbolTableRecord
100
AcDbLayerTableRecord
  2
C
 70
0
  6
CONTINUOUS
  0
LAYER
  5
56
100
AcDbSymbolTableRecord
100
AcDbLayerTableRecord
  2
D
 70
0
  6
CONTINUOUS
  0
LAYER
  5
57
100
AcDbSymbolTableRecord
100
AcDbLayerTableRecord
  2
E
 70
0
  6
CONTINUOUS
  0
LAYER
  5
58
100
AcDbSymbolTableRecord
100
AcDbLayerTableRecord
  2
F
 70
0
  6
CONTINUOUS
  0
LAYER
  5
59
100
AcDbSymbolTableRecord
100
AcDbLayerTableRecord
  2
G
 70
0
  6
CONTINUOUS
  0
LAYER
  5
5a
100
AcDbSymbolTableRecord
100
AcDbLayerTableRecord
  2
H
 70
0
  6
CONTINUOUS
  0
LAYER
  5
5b
100
AcDbSymbolTableRecord
100
AcDbLayerTableRecord
  2
I
 70
0
  6
CONTINUOUS
  0
LAYER
  5
5c
100
AcDbSymbolTableRecord
100
AcDbLayerTableRecord
  2
J
 70
0
  6
CONTINUOUS
  0
LAYER
  5
5d
100
AcDbSymbolTableRecord
100
AcDbLayerTableRecord
  2
K
 70
0
  6
CONTINUOUS
  0
LAYER
  5
5e
100
AcDbSymbolTableRecord
100
AcDbLayerTableRecord
  2
L
 70
0
  6
CONTINUOUS
  0
LAYER
  5
5f
100
AcDbSymbolTableRecord
100
AcDbLayerTableRecord
  2
M
 70
0
  6
CONTINUOUS
  0
LAYER
  5
60
100
AcDbSymbolTableRecord
100
AcDbLayerTableRecord
  2
N
 70
0
  6
CONTINUOUS
  0
LAYER
  5
61
100
AcDbSymbolTableRecord
100
AcDbLayerTableRecord
  2
O
 70
0
  6
CONTINUOUS
  0
LAYER
  5
62
100
AcDbSymbolTableRecord
100
AcDbLayerTableRecord
  2
P
 70
0
  6
CONTINUOUS
  0
LAYER
  5
63
100
AcDbSymbolTableRecord
100
AcDbLayerTableRecord
  2
Q
 70
0
  6
CONTINUOUS
  0
LAYER
  5
64
100
AcDbSymbolTableRecord
100
AcDbLayerTableRecord
  2
R
 70
0
  6
CONTINUOUS
  0
LAYER
  5
65
100
AcDbSymbolTableRecord
100
AcDbLayerTableRecord
  2
S
 70
0
  6
CONTINUOUS
  0
LAYER
  5
66
100
AcDbSymbolTableRecord
100
AcDbLayerTableRecord
  2
T
 70
0
  6
CONTINUOUS
  0
LAYER
  5
67
100
AcDbSymbolTableRecord
100
AcDbLayerTableRecord
  2
U
 70
0
  6
CONTINUOUS
  0
LAYER
  5
68
100
AcDbSymbolTableRecord
100
AcDbLayerTableRecord
  2
V
 70
0
  6
CONTINUOUS
  0
LAYER
  5
69
100
AcDbSymbolTableRecord
100
AcDbLayerTableRecord
  2
W
 70
0
  6
CONTINUOUS
  0
LAYER
  5
6a
100
AcDbSymbolTableRecord
100
AcDbLayerTableRecord
  2
X
 70
0
  6
CONTINUOUS
  0
LAYER
  5
6b
100
AcDbSymbolTableRecord
100
AcDbLayerTableRecord
  2
Y
 70
0
  6
CONTINUOUS
  0
LAYER
  5
6c
100
AcDbSymbolTableRecord
100
AcDbLayerTableRecord
  2
Z
 70
0
  6
CONTINUOUS
  0
LAYER
  5
6d
100
AcDbSymbolTableRecord
100
AcDbLayerTableRecord
  2
a_
 70
0
  6
CONTINUOUS
  0
LAYER
  5
6e
100
AcDbSymbolTableRecord
100
AcDbLayerTableRecord
  2
b_
 70
0
  6
CONTINUOUS
  0
LAYER
  5
6f
100
AcDbSymbolTableRecord
100
AcDbLayerTableRecord
  2
c_
 70
0
  6
CONTINUOUS
  0
LAYER
  5
70
100
AcDbSymbolTableRecord
100
AcDbLayerTableRecord
  2
d_
 70
0
  6
CONTINUOUS
  0
LAYER
  5
71
100
AcDbSymbolTableRecord
100
AcDbLayerTableRecord
  2
e_
 70
0
  6
CONTINUOUS
  0
LAYER
  5
72
100
AcDbSymbolTableRecord
100
AcDbLayerTableRecord
  2
f_
 70
0
  6
CONTINUOUS
  0
LAYER
  5
73
100
AcDbSymbolTableRecord
100
AcDbLayerTableRecord
  2
g_
 70
0
  6
CONTINUOUS
  0
LAYER
  5
74
100
AcDbSymbolTableRecord
100
AcDbLayerTableRecord
  2
h_
 70
0
  6
CONTINUOUS
  0
LAYER
  5
75
100
AcDbSymbolTableRecord
100
AcDbLayerTableRecord
  2
i_
 70
0
  6
CONTINUOUS
  0
LAYER
  5
76
100
AcDbSymbolTableRecord
100
AcDbLayerTableRecord
  2
j_
 70
0
  6
CONTINUOUS
  0
LAYER
  5
77
100
AcDbSymbolTableRecord
100
AcDbLayerTableRecord
  2
k_
 70
0
  6
CONTINUOUS
  0
LAYER
  5
78
100
AcDbSymbolTableRecord
100
AcDbLayerTableRecord
  2
l_
 70
0
  6
CONTINUOUS
  0
LAYER
  5
79
100
AcDbSymbolTableRecord
100
AcDbLayerTableRecord
  2
m_
 70
0
  6
CONTINUOUS
  0
LAYER
  5
7a
100
AcDbSymbolTableRecord
100
AcDbLayerTableRecord
  2
n_
 70
0
  6
CONTINUOUS
  0
LAYER
  5
7b
100
AcDbSymbolTableRecord
100
AcDbLayerTableRecord
  2
o_
 70
0
  6
CONTINUOUS
  0
LAYER
  5
7c
100
AcDbSymbolTableRecord
100
AcDbLayerTableRecord
  2
p_
 70
0
  6
CONTINUOUS
  0
LAYER
  5
7d
100
AcDbSymbolTableRecord
100
AcDbLayerTableRecord
  2
q_
 70
0
  6
CONTINUOUS
  0
LAYER
  5
7e
100
AcDbSymbolTableRecord
100
AcDbLayerTableRecord
  2
r_
 70
0
  6
CONTINUOUS
  0
LAYER
  5
7f
100
AcDbSymbolTableRecord
100
AcDbLayerTableRecord
  2
s_
 70
0
  6
CONTINUOUS
  0
LAYER
  5
80
100
AcDbSymbolTableRecord
100
AcDbLayerTableRecord
  2
t_
 70
0
  6
CONTINUOUS
  0
LAYER
  5
81
100
AcDbSymbolTableRecord
100
AcDbLayerTableRecord
  2
u_
 70
0
  6
CONTINUOUS
  0
LAYER
  5
82
100
AcDbSymbolTableRecord
100
AcDbLayerTableRecord
  2
v_
 70
0
  6
CONTINUOUS
  0
LAYER
  5
83
100
AcDbSymbolTableRecord
100
AcDbLayerTableRecord
  2
w_
 70
0
  6
CONTINUOUS
  0
LAYER
  5
84
100
AcDbSymbolTableRecord
100
AcDbLayerTableRecord
  2
x_
 70
0
  6
CONTINUOUS
  0
LAYER
  5
85
100
AcDbSymbolTableRecord
100
AcDbLayerTableRecord
  2
y_
 70
0
  6
CONTINUOUS
  0
LAYER
  5
86
100
AcDbSymbolTableRecord
100
AcDbLayerTableRecord
  2
z_
 70
0
  6
CONTINUOUS
  0
LAYER
  5
87
100
AcDbSymbolTableRecord
100
AcDbLayerTableRecord
  2
1
 70
0
  6
CONTINUOUS
  0
LAYER
  5
88
100
AcDbSymbolTableRecord
100
AcDbLayerTableRecord
  2
2
 70
0
  6
CONTINUOUS
  0
LAYER
  5
89
100
AcDbSymbolTableRecord
100
AcDbLayerTableRecord
  2
3
 70
0
  6
CONTINUOUS
  0
LAYER
  5
8a
100
AcDbSymbolTableRecord
100
AcDbLayerTableRecord
  2
4
 70
0
  6
CONTINUOUS
  0
LAYER
  5
8b
100
AcDbSymbolTableRecord
100
AcDbLayerTableRecord
  2
5
 70
0
  6
CONTINUOUS
  0
LAYER
  5
8c
100
AcDbSymbolTableRecord
100
AcDbLayerTableRecord
  2
6
 70
0
  6
CONTINUOUS
  0
LAYER
  5
8d
100
AcDbSymbolTableRecord
100
AcDbLayerTableRecord
  2
7
 70
0
  6
CONTINUOUS
  0
LAYER
  5
8e
100
AcDbSymbolTableRecord
100
AcDbLayerTableRecord
  2
8
 70
0
  6
CONTINUOUS
  0
LAYER
  5
8f
100
AcDbSymbolTableRecord
100
AcDbLayerTableRecord
  2
9
 70
0
  6
CONTINUOUS
  0
LAYER
  5
90
100
AcDbSymbolTableRecord
100
AcDbLayerTableRecord
  2
`
 70
0
  6
CONTINUOUS
  0
LAYER
  5
91
100
AcDbSymbolTableRecord
100
AcDbLayerTableRecord
  2
~
 70
0
  6
CONTINUOUS
  0
LAYER
  5
92
100
AcDbSymbolTableRecord
100
AcDbLayerTableRecord
  2
!
 70
0
  6
CONTINUOUS
  0
LAYER
  5
93
100
AcDbSymbolTableRecord
100
AcDbLayerTableRecord
  2
@
 70
0
  6
CONTINUOUS
  0
LAYER
  5
94
100
AcDbSymbolTableRecord
100
AcDbLayerTableRecord
  2
#
 70
0
  6
CONTINUOUS
  0
LAYER
  5
95
100
AcDbSymbolTableRecord
100
AcDbLayerTableRecord
  2
$
 70
0
  6
CONTINUOUS
  0
LAYER
  5
96
100
AcDbSymbolTableRecord
100
AcDbLayerTableRecord
  2
%
 70
0
  6
CONTINUOUS
  0
LAYER
  5
97
100
AcDbSymbolTableRecord
100
AcDbLayerTableRecord
  2
^
 70
0
  6
CONTINUOUS
  0
LAYER
  5
98
100
AcDbSymbolTableRecord
100
AcDbLayerTableRecord
  2
&
 70
0
  6
CONTINUOUS
  0
LAYER
  5
99
100
AcDbSymbolTableRecord
100
AcDbLayerTableRecord
  2
*
 70
0
  6
CONTINUOUS
  0
LAYER
  5
9a
100
AcDbSymbolTableRecord
100
AcDbLayerTableRecord
  2
(
 70
0
  6
CONTINUOUS
  0
LAYER
  5
9b
100
AcDbSymbolTableRecord
100
AcDbLayerTableRecord
  2
)
 70
0
  6
CONTINUOUS
  0
LAYER
  5
9c
100
AcDbSymbolTableRecord
100
AcDbLayerTableRecord
  2
-
 70
0
  6
CONTINUOUS
  0
LAYER
  5
9d
100
AcDbSymbolTableRecord
100
AcDbLayerTableRecord
  2
_
 70
0
  6
CONTINUOUS
  0
LAYER
  5
9e
100
AcDbSymbolTableRecord
100
AcDbLayerTableRecord
  2
+
 70
0
  6
CONTINUOUS
  0
LAYER
  5
9f
100
AcDbSymbolTableRecord
100
AcDbLayerTableRecord
  2
=
 70
0
  6
CONTINUOUS
  0
LAYER
  5
a0
100
AcDbSymbolTableRecord
100
AcDbLayerTableRecord
  2
{
 70
0
  6
CONTINUOUS
  0
LAYER
  5
a1
100
AcDbSymbolTableRecord
100
AcDbLayerTableRecord
  2
}
 70
0
  6
CONTINUOUS
  0
LAYER
  5
a2
100
AcDbSymbolTableRecord
100
AcDbLayerTableRecord
  2
[
 70
0
  6
CONTINUOUS
  0
LAYER
  5
a3
100
AcDbSymbolTableRecord
100
AcDbLayerTableRecord
  2
]
 70
0
  6
CONTINUOUS
  0
LAYER
  5
a4
100
AcDbSymbolTableRecord
100
AcDbLayerTableRecord
  2
\
 70
0
  6
CONTINUOUS
  0
LAYER
  5
a5
100
AcDbSymbolTableRecord
100
AcDbLayerTableRecord
  2
|
 70
0
  6
CONTINUOUS
  0
LAYER
  5
a6
100
AcDbSymbolTableRecord
100
AcDbLayerTableRecord
  2
;
 70
0
  6
CONTINUOUS
  0
LAYER
  5
a7
100
AcDbSymbolTableRecord
100
AcDbLayerTableRecord
  2
:
 70
0
  6
CONTINUOUS
  0
LAYER
  5
a8
100
AcDbSymbolTableRecord
100
AcDbLayerTableRecord
  2
"
 70
0
  6
CONTINUOUS
  0
LAYER
  5
a9
100
AcDbSymbolTableRecord
100
AcDbLayerTableRecord
  2
'
 70
0
  6
CONTINUOUS
  0
LAYER
  5
aa
100
AcDbSymbolTableRecord
100
AcDbLayerTableRecord
  2
,
 70
0
  6
CONTINUOUS
  0
LAYER
  5
ab
100
AcDbSymbolTableRecord
100
AcDbLayerTableRecord
  2
.
 70
0
  6
CONTINUOUS
  0
LAYER
  5
ac
100
AcDbSymbolTableRecord
100
AcDbLayerTableRecord
  2
<
 70
0
  6
CONTINUOUS
  0
LAYER
  5
ad
100
AcDbSymbolTableRecord
100
AcDbLayerTableRecord
  2
>
 70
0
  6
CONTINUOUS
  0
LAYER
  5
ae
100
AcDbSymbolTableRecord
100
AcDbLayerTableRecord
  2
?
 70
0
  6
CONTINUOUS
  0
LAYER
  5
af
100
AcDbSymbolTableRecord
100
AcDbLayerTableRecord
  2
/
 70
0
  6
CONTINUOUS
  0
ENDTAB
  0
TABLE
  2
STYLE
  5
3
330
0
100
AcDbSymbolTable
 70
     1
  0
STYLE
  5
11
330
3
100
AcDbSymbolTableRecord
100
AcDbTextStyleTableRecord
  2
STANDARD
 70
     0
 40
0.0
 41
1.0
 50
0.0
 71
     0
 42
2.5
  3
txt
  4

  0
ENDTAB
  0
TABLE
  2
VIEW
  5
6
330
0
100
AcDbSymbolTable
 70
     0
  0
ENDTAB
  0
TABLE
  2
UCS
  5
7
330
0
100
AcDbSymbolTable
 70
     0
  0
ENDTAB
  0
TABLE
  2
APPID
  5
9
330
0
100
AcDbSymbolTable
 70
     2
  0
APPID
  5
12
330
9
100
AcDbSymbolTableRecord
100
AcDbRegAppTableRecord
  2
ACAD
 70
     0
  0
ENDTAB
  0
TABLE
  2
DIMSTYLE
  5
A
330
0
100
AcDbSymbolTable
 70
     1
  0
DIMSTYLE
105
27
330
A
100
AcDbSymbolTableRecord
100
AcDbDimStyleTableRecord
  2
ISO-25
 70
     0
  3

  4

  5

  6

  7

 40
1.0
 41
2.5
 42
0.625
 43
3.75
 44
1.25
 45
0.0
 46
0.0
 47
0.0
 48
0.0
140
2.5
141
2.5
142
0.0
143
0.03937007874016
144
1.0
145
0.0
146
1.0
147
0.625
 71
     0
 72
     0
 73
     0
 74
     0
 75
     0
 76
     0
 77
     1
 78
     8
170
     0
171
     3
172
     1
173
     0
174
     0
175
     0
176
     0
177
     0
178
     0
270
     2
271
     2
272
     2
273
     2
274
     3
340
11
275
     0
280
     0
281
     0
282
     0
283
     0
284
     8
285
     0
286
     0
287
     3
288
     0
  0
ENDTAB
  0
TABLE
  2
BLOCK_RECORD
  5
1
330
0
100
AcDbSymbolTable
 70
     1
  0
BLOCK_RECORD
  5
1F
330
1
100
AcDbSymbolTableRecord
100
AcDbBlockTableRecord
  2
*MODEL_SPACE
  0
BLOCK_RECORD
  5
1B
330
1
100
AcDbSymbolTableRecord
100
AcDbBlockTableRecord
  2
*PAPER_SPACE
  0
ENDTAB
  0
ENDSEC
  0
SECTION
  2
BLOCKS
  0
BLOCK
  5
20
330
1F
100
AcDbEntity
  8
0
100
AcDbBlockBegin
  2
*MODEL_SPACE
 70
     0
 10
0.0
 20
0.0
 30
0.0
  3
*MODEL_SPACE
  1

  0
ENDBLK
  5
21
330
1F
100
AcDbEntity
  8
0
100
AcDbBlockEnd
  0
BLOCK
  5
1C
330
1B
100
AcDbEntity
 67
     1
  8
0
100
AcDbBlockBegin
  2
*PAPER_SPACE
  1

  0
ENDBLK
  5
1D
330
1B
100
AcDbEntity
 67
     1
  8
0
100
AcDbBlockEnd
  0
ENDSEC
  0
SECTION
  2
ENTITIES
  0
LWPOLYLINE
  5
100
100
AcDbEntity
  8
Guide
 62
7
100
AcDbPolyline
 90
5
 70
0
 10
0.059072
 20
6.806129
 30
0.0
 10
5.139072
 20
6.806129
 30
0.0
 10
5.139072
 20
0.020788
 30
0.0
 10
0.059072
 20
0.020788
 30
0.0
 10
0.059072
 20
6.806129
 30
0.0
  0
LWPOLYLINE
  5
101
100
AcDbEntity
  8
Guide
 62
7
100
AcDbPolyline
 90
95
 70
0
 10
4.282216
 20
5.367658
 30
0.0
 10
4.510594
 20
5.282872
 30
0.0
 10
4.659234
 20
5.145309
 30
0.0
 10
4.545469
 20
5.098771
 30
0.0
 10
4.381041
 20
5.081053
 30
0.0
 10
4.047346
 20
4.988442
 30
0.0
 10
3.816728
 20
4.817179
 30
0.0
 10
3.515554
 20
4.628948
 30
0.0
 10
3.279938
 20
4.611141
 30
0.0
 10
3.054975
 20
4.563331
 30
0.0
 10
2.873929
 20
4.619311
 30
0.0
 10
2.840981
 20
4.208806
 30
0.0
 10
2.759740
 20
4.011641
 30
0.0
 10
2.617301
 20
3.950513
 30
0.0
 10
2.751025
 20
4.242968
 30
0.0
 10
2.685609
 20
4.413363
 30
0.0
 10
2.591421
 20
4.525368
 30
0.0
 10
2.426328
 20
4.648850
 30
0.0
 10
1.884608
 20
3.757538
 30
0.0
 10
1.774983
 20
3.509496
 30
0.0
 10
1.738160
 20
3.323793
 30
0.0
 10
1.716301
 20
2.928401
 30
0.0
 10
2.091312
 20
3.187861
 30
0.0
 10
2.392582
 20
3.287790
 30
0.0
 10
1.988170
 20
3.032700
 30
0.0
 10
1.731723
 20
2.815498
 30
0.0
 10
1.611244
 20
2.068065
 30
0.0
 10
1.716535
 20
1.695702
 30
0.0
 10
1.763181
 20
1.495933
 30
0.0
 10
1.953086
 20
1.077751
 30
0.0
 10
2.135450
 20
0.761099
 30
0.0
 10
2.267546
 20
0.677646
 30
0.0
 10
2.309545
 20
0.353631
 30
0.0
 10
2.362775
 20
0.106711
 30
0.0
 10
2.230320
 20
0.108208
 30
0.0
 10
2.099408
 20
0.290289
 30
0.0
 10
1.754408
 20
0.782453
 30
0.0
 10
1.518566
 20
1.400299
 30
0.0
 10
1.417265
 20
1.892897
 30
0.0
 10
1.292298
 20
2.166872
 30
0.0
 10
0.713384
 20
2.585637
 30
0.0
 10
0.618194
 20
2.717589
 30
0.0
 10
1.121208
 20
2.447221
 30
0.0
 10
1.414678
 20
2.205254
 30
0.0
 10
1.499727
 20
2.683726
 30
0.0
 10
1.541618
 20
3.818830
 30
0.0
 10
1.215061
 20
4.329729
 30
0.0
 10
1.363057
 20
4.272522
 30
0.0
 10
1.567818
 20
3.979468
 30
0.0
 10
1.641691
 20
3.815763
 30
0.0
 10
2.125323
 20
4.642191
 30
0.0
 10
1.999968
 20
4.563002
 30
0.0
 10
1.914823
 20
4.370880
 30
0.0
 10
1.817242
 20
4.449500
 30
0.0
 10
1.817804
 20
4.618623
 30
0.0
 10
1.961430
 20
4.808635
 30
0.0
 10
2.041659
 20
4.855816
 30
0.0
 10
1.823431
 20
4.959965
 30
0.0
 10
1.424388
 20
4.864316
 30
0.0
 10
1.334362
 20
4.870750
 30
0.0
 10
1.358474
 20
4.937445
 30
0.0
 10
1.500053
 20
5.053969
 30
0.0
 10
1.914216
 20
5.155125
 30
0.0
 10
1.800322
 20
5.274163
 30
0.0
 10
1.757755
 20
5.455975
 30
0.0
 10
1.783276
 20
5.594107
 30
0.0
 10
1.834154
 20
5.740948
 30
0.0
 10
1.853442
 20
6.017407
 30
0.0
 10
1.743030
 20
6.165041
 30
0.0
 10
1.780589
 20
6.279066
 30
0.0
 10
1.876845
 20
6.332263
 30
0.0
 10
2.045677
 20
6.340793
 30
0.0
 10
2.225407
 20
6.282673
 30
0.0
 10
2.368890
 20
6.149793
 30
0.0
 10
2.403141
 20
6.005750
 30
0.0
 10
2.453509
 20
6.124788
 30
0.0
 10
2.528475
 20
6.505800
 30
0.0
 10
2.631172
 20
6.518370
 30
0.0
 10
2.654820
 20
6.305867
 30
0.0
 10
2.746491
 20
6.467522
 30
0.0
 10
3.028196
 20
6.695109
 30
0.0
 10
3.144778
 20
6.733536
 30
0.0
 10
3.245312
 20
6.719021
 30
0.0
 10
3.297971
 20
6.656651
 30
0.0
 10
3.550837
 20
6.804794
 30
0.0
 10
3.854746
 20
6.659854
 30
0.0
 10
4.066867
 20
6.551156
 30
0.0
 10
4.163490
 20
6.492587
 30
0.0
 10
4.298255
 20
6.280847
 30
0.0
 10
4.462573
 20
6.198665
 30
0.0
 10
4.586812
 20
6.018140
 30
0.0
 10
4.600447
 20
5.753383
 30
0.0
 10
4.532720
 20
5.552462
 30
0.0
 10
4.391169
 20
5.409302
 30
0.0
 10
4.282216
 20
5.367658
 30
0.0
  0
LWPOLYLINE
  5
102
100
AcDbEntity
  8
Layer
 62
7
100
AcDbPolyline
 90
95
 70
0
 10
4.233736
 20
5.223143
 30
0.0
 10
4.462115
 20
5.138357
 30
0.0
 10
4.610755
 20
5.000794
 30
0.0
 10
4.496990
 20
4.954256
 30
0.0
 10
4.332562
 20
4.936539
 30
0.0
 10
3.998867
 20
4.843927
 30
0.0
 10
3.768248
 20
4.672665
 30
0.0
 10
3.467074
 20
4.484433
 30
0.0
 10
3.231459
 20
4.466626
 30
0.0
 10
3.006496
 20
4.418816
 30
0.0
 10
2.825450
 20
4.474797
 30
0.0
 10
2.792502
 20
4.064291
 30
0.0
 10
2.711261
 20
3.867126
 30
0.0
 10
2.568822
 20
3.805998
 30
0.0
 10
2.702546
 20
4.098453
 30
0.0
 10
2.637130
 20
4.268848
 30
0.0
 10
2.542942
 20
4.380853
 30
0.0
 10
2.377849
 20
4.504335
 30
0.0
 10
1.836128
 20
3.613023
 30
0.0
 10
1.726504
 20
3.364981
 30
0.0
 10
1.689681
 20
3.179279
 30
0.0
 10
1.667822
 20
2.783887
 30
0.0
 10
2.042833
 20
3.043346
 30
0.0
 10
2.344102
 20
3.143275
 30
0.0
 10
1.939690
 20
2.888185
 30
0.0
 10
1.683243
 20
2.670984
 30
0.0
 10
1.562765
 20
1.923550
 30
0.0
 10
1.668056
 20
1.551187
 30
0.0
 10
1.714701
 20
1.351419
 30
0.0
 10
1.904607
 20
0.933237
 30
0.0
 10
2.086971
 20
0.616585
 30
0.0
 10
2.219067
 20
0.533131
 30
0.0
 10
2.261065
 20
0.209117
 30
0.0
 10
2.314296
 20
-0.037803
 30
0.0
 10
2.181841
 20
-0.036307
 30
0.0
 10
2.050929
 20
0.145774
 30
0.0
 10
1.705929
 20
0.637938
 30
0.0
 10
1.470087
 20
1.255784
 30
0.0
 10
1.368785
 20
1.748382
 30
0.0
 10
1.243819
 20
2.022357
 30
0.0
 10
0.664905
 20
2.441123
 30
0.0
 10
0.569714
 20
2.573075
 30
0.0
 10
1.072729
 20
2.302706
 30
0.0
 10
1.366199
 20
2.060739
 30
0.0
 10
1.451248
 20
2.539211
 30
0.0
 10
1.493139
 20
3.674316
 30
0.0
 10
1.166582
 20
4.185214
 30
0.0
 10
1.314578
 20
4.128007
 30
0.0
 10
1.519338
 20
3.834954
 30
0.0
 10
1.593212
 20
3.671248
 30
0.0
 10
2.076844
 20
4.497676
 30
0.0
 10
1.951488
 20
4.418487
 30
0.0
 10
1.866343
 20
4.226365
 30
0.0
 10
1.768763
 20
4.304986
 30
0.0
 10
1.769325
 20
4.474108
 30
0.0
 10
1.912951
 20
4.664120
 30
0.0
 10
1.993180
 20
4.711302
 30
0.0
 10
1.774952
 20
4.815451
 30
0.0
 10
1.375909
 20
4.719801
 30
0.0
 10
1.285883
 20
4.726236
 30
0.0
 10
1.309995
 20
4.792930
 30
0.0
 10
1.451574
 20
4.909454
 30
0.0
 10
1.865737
 20
5.010610
 30
0.0
 10
1.751842
 20
5.129648
 30
0.0
 10
1.709276
 20
5.311460
 30
0.0
 10
1.734796
 20
5.449592
 30
0.0
 10
1.785675
 20
5.596433
 30
0.0
 10
1.804963
 20
5.872892
 30
0.0
 10
1.694550
 20
6.020526
 30
0.0
 10
1.732109
 20
6.134552
 30
0.0
 10
1.828366
 20
6.187748
 30
0.0
 10
1.997198
 20
6.196278
 30
0.0
 10
2.176927
 20
6.138158
 30
0.0
 10
2.320411
 20
6.005278
 30
0.0
 10
2.354662
 20
5.861235
 30
0.0
 10
2.405030
 20
5.980273
 30
0.0
 10
2.479996
 20
6.361285
 30
0.0
 10
2.582693
 20
6.373855
 30
0.0
 10
2.606341
 20
6.161352
 30
0.0
 10
2.698011
 20
6.323007
 30
0.0
 10
2.979717
 20
6.550594
 30
0.0
 10
3.096298
 20
6.589021
 30
0.0
 10
3.196833
 20
6.574506
 30
0.0
 10
3.249492
 20
6.512137
 30
0.0
 10
3.502358
 20
6.660280
 30
0.0
 10
3.806267
 20
6.515339
 30
0.0
 10
4.018387
 20
6.406641
 30
0.0
 10
4.115011
 20
6.348072
 30
0.0
 10
4.249776
 20
6.136332
 30
0.0
 10
4.414094
 20
6.054150
 30
0.0
 10
4.538333
 20
5.873625
 30
0.0
 10
4.551968
 20
5.608868
 30
0.0
 10
4.484241
 20
5.407948
 30
0.0
 10
4.342689
 20
5.264788
 30
0.0
 10
4.233736
 20
5.223143
 30
0.0
  0
LWPOLYLINE
  5
103
100
AcDbEntity
  8
A
 62
7
100
AcDbPolyline
 90
63
 70
0
 10
6.250148
 20
-1.059292
 30
0.0
 10
5.893239
 20
-1.817764
 30
0.0
 10
5.253844
 20
-2.061688
 30
0.0
 10
3.911976
 20
-0.878641
 30
0.0
 10
3.209276
 20
2.246349
 30
0.0
 10
2.421150
 20
1.632008
 30
0.0
 10
2.042119
 20
0.846273
 30
0.0
 10
2.242696
 20
0.503119
 30
0.0
 10
2.428751
 20
0.647814
 30
0.0
 10
2.339354
 20
0.918748
 30
0.0
 10
2.376565
 20
0.981796
 30
0.0
 10
2.569881
 20
0.819180
 30
0.0
 10
2.659051
 20
0.503062
 30
0.0
 10
2.056867
 20
0.006436
 30
0.0
 10
1.432333
 20
0.241245
 30
0.0
 10
0.882222
 20
0.476054
 30
0.0
 10
0.525313
 20
0.367737
 30
0.0
 10
0.369208
 20
0.159937
 30
0.0
 10
0.480615
 20
-0.029688
 30
0.0
 10
0.696394
 20
0.069541
 30
0.0
 10
0.740865
 20
0.024611
 30
0.0
 10
0.644207
 20
-0.110968
 30
0.0
 10
0.391444
 20
-0.282672
 30
0.0
 10
0.064259
 20
-0.219285
 30
0.0
 10
-0.106594
 20
0.159937
 30
0.0
 10
0.532801
 20
1.008805
 30
0.0
 10
1.395236
 20
1.848867
 30
0.0
 10
1.685210
 20
2.435918
 30
0.0
 10
1.298578
 20
2.390706
 30
0.0
 10
0.599735
 20
2.833061
 30
0.0
 10
0.391444
 20
3.736228
 30
0.0
 10
0.406419
 20
4.052346
 30
0.0
 10
0.904458
 20
5.244339
 30
0.0
 10
2.109053
 20
5.867486
 30
0.0
 10
2.904554
 20
5.831390
 30
0.0
 10
3.447291
 20
5.795294
 30
0.0
 10
3.960305
 20
6.102323
 30
0.0
 10
3.848672
 20
6.283115
 30
0.0
 10
3.573673
 20
6.174798
 30
0.0
 10
3.536462
 20
6.174798
 30
0.0
 10
3.536462
 20
6.228815
 30
0.0
 10
3.685079
 20
6.409607
 30
0.0
 10
4.041988
 20
6.617153
 30
0.0
 10
4.354198
 20
6.527039
 30
0.0
 10
4.465831
 20
6.093490
 30
0.0
 10
4.186975
 20
5.501895
 30
0.0
 10
3.923094
 20
5.054742
 30
0.0
 10
3.871134
 20
3.302707
 30
0.0
 10
4.450856
 20
3.393103
 30
0.0
 10
5.019686
 20
3.158266
 30
0.0
 10
5.231608
 20
2.535119
 30
0.0
 10
4.971357
 20
1.830664
 30
0.0
 10
4.376661
 20
1.442354
 30
0.0
 10
4.473318
 20
1.803655
 30
0.0
 10
4.339450
 20
2.228089
 30
0.0
 10
3.945329
 20
2.417714
 30
0.0
 10
4.503042
 20
0.123840
 30
0.0
 10
5.410176
 20
-0.833344
 30
0.0
 10
5.715277
 20
-0.525892
 30
0.0
 10
5.476883
 20
-0.092793
 30
0.0
 10
6.257636
 20
-0.887644
 30
0.0
 10
6.250147
 20
-1.059348
 30
0.0
 10
6.250148
 20
-1.059292
 30
0.0
  0
LWPOLYLINE
  5
104
100
AcDbEntity
  8
A
 62
7
100
AcDbPolyline
 90
13
 70
0
 10
2.517921
 20
4.783866
 30
0.0
 10
2.302369
 20
5.163370
 30
0.0
 10
1.863551
 20
5.289608
 30
0.0
 10
1.335789
 20
5.082062
 30
0.0
 10
1.001116
 20
4.305414
 30
0.0
 10
1.112636
 20
3.799531
 30
0.0
 10
1.462170
 20
3.591872
 30
0.0
 10
1.818966
 20
3.749916
 30
0.0
 10
1.960209
 20
4.160719
 30
0.0
 10
1.596040
 20
4.504127
 30
0.0
 10
2.071842
 20
4.693752
 30
0.0
 10
2.406288
 20
4.440740
 30
0.0
 10
2.517921
 20
4.783866
 30
0.0
  0
LWPOLYLINE
  5
105
100
AcDbEntity
  8
A
 62
7
100
AcDbPolyline
 90
4
 70
0
 10
3.172065
 20
4.323335
 30
0.0
 10
2.294882
 20
1.993337
 30
0.0
 10
3.164804
 20
2.968725
 30
0.0
 10
3.172065
 20
4.323335
 30
0.0
  0
LWPOLYLINE
  5
106
100
AcDbEntity
  8
B
 62
7
100
AcDbPolyline
 90
38
 70
0
 10
4.974616
 20
1.848275
 30
0.0
 10
4.484065
 20
0.583778
 30
0.0
 10
3.264721
 20
0.014931
 30
0.0
 10
2.729244
 20
0.141141
 30
0.0
 10
2.357587
 20
0.574690
 30
0.0
 10
1.513644
 20
0.335451
 30
0.0
 10
0.759099
 20
0.096239
 30
0.0
 10
0.283296
 20
0.674174
 30
0.0
 10
0.480243
 20
1.130160
 30
0.0
 10
0.855757
 20
1.369541
 30
0.0
 10
0.751611
 20
1.279145
 30
0.0
 10
0.632717
 20
0.981203
 30
0.0
 10
0.788822
 20
0.800412
 30
0.0
 10
1.272113
 20
1.288233
 30
0.0
 10
1.725679
 20
2.841556
 30
0.0
 10
0.707139
 20
2.218409
 30
0.0
 10
0.008070
 20
2.661046
 30
0.0
 10
-0.199994
 20
3.555098
 30
0.0
 10
-0.185246
 20
3.871215
 30
0.0
 10
0.298044
 20
5.054122
 30
0.0
 10
1.480177
 20
5.686384
 30
0.0
 10
1.762891
 20
5.659291
 30
0.0
 10
1.695956
 20
6.065521
 30
0.0
 10
1.889272
 20
6.435938
 30
0.0
 10
2.193995
 20
6.544255
 30
0.0
 10
2.491456
 20
6.336455
 30
0.0
 10
2.327864
 20
6.309361
 30
0.0
 10
2.142035
 20
6.038428
 30
0.0
 10
2.528667
 20
5.677127
 30
0.0
 10
3.149457
 20
5.857778
 30
0.0
 10
3.933840
 20
6.065437
 30
0.0
 10
4.681011
 20
5.875840
 30
0.0
 10
4.952380
 20
5.180472
 30
0.0
 10
4.591841
 20
4.227549
 30
0.0
 10
3.740523
 20
3.572850
 30
0.0
 10
4.417130
 20
3.031012
 30
0.0
 10
4.974616
 20
1.848105
 30
0.0
 10
4.974616
 20
1.848275
 30
0.0
  0
LWPOLYLINE
  5
107
100
AcDbEntity
  8
B
 62
7
100
AcDbPolyline
 90
10
 70
0
 10
3.956076
 20
4.801392
 30
0.0
 10
3.885397
 20
5.131027
 30
0.0
 10
3.606654
 20
5.243747
 30
0.0
 10
2.788918
 20
4.286562
 30
0.0
 10
3.324168
 20
4.521371
 30
0.0
 10
3.212535
 20
4.421887
 30
0.0
 10
3.078892
 20
4.187078
 30
0.0
 10
3.249746
 20
3.952241
 30
0.0
 10
3.721918
 20
4.209684
 30
0.0
 10
3.956076
 20
4.801392
 30
0.0
  0
LWPOLYLINE
  5
108
100
AcDbEntity
  8
B
 62
7
100
AcDbPolyline
 90
11
 70
0
 10
4.052733
 20
2.028784
 30
0.0
 10
3.755272
 20
2.615834
 30
0.0
 10
3.160575
 20
3.022065
 30
0.0
 10
2.692260
 20
3.519002
 30
0.0
 10
2.588114
 20
1.703579
 30
0.0
 10
3.153088
 20
2.019696
 30
0.0
 10
2.952284
 20
1.640446
 30
0.0
 10
3.041568
 20
1.392006
 30
0.0
 10
3.264721
 20
1.279145
 30
0.0
 10
3.784995
 20
1.450849
 30
0.0
 10
4.052733
 20
2.028784
 30
0.0
  0
LWPOLYLINE
  5
109
100
AcDbEntity
  8
B
 62
7
100
AcDbPolyline
 90
11
 70
0
 10
1.814850
 20
4.268387
 30
0.0
 10
1.272113
 20
5.117537
 30
0.0
 10
0.744124
 20
4.900621
 30
0.0
 10
0.409678
 20
4.123945
 30
0.0
 10
0.521197
 20
3.627178
 30
0.0
 10
0.870505
 20
3.419519
 30
0.0
 10
1.227527
 20
3.573019
 30
0.0
 10
1.368771
 20
3.988648
 30
0.0
 10
1.004374
 20
4.331774
 30
0.0
 10
1.487665
 20
4.521371
 30
0.0
 10
1.814850
 20
4.268387
 30
0.0
  0
LWPOLYLINE
  5
10a
100
AcDbEntity
  8
C
 62
7
100
AcDbPolyline
 90
43
 70
0
 10
4.790530
 20
5.253991
 30
0.0
 10
4.407641
 20
4.396149
 30
0.0
 10
3.541462
 20
4.052882
 30
0.0
 10
2.374078
 20
4.323815
 30
0.0
 10
1.823853
 20
2.725280
 30
0.0
 10
1.801617
 20
2.409163
 30
0.0
 10
2.039632
 20
1.596391
 30
0.0
 10
2.604605
 20
1.325486
 30
0.0
 10
3.400106
 20
1.966808
 30
0.0
 10
3.325797
 20
2.391242
 30
0.0
 10
3.072920
 20
2.535655
 30
0.0
 10
2.797921
 20
2.409163
 30
0.0
 10
2.634329
 20
2.029913
 30
0.0
 10
2.656565
 20
1.876412
 30
0.0
 10
2.448500
 20
2.544771
 30
0.0
 10
2.775685
 20
3.167918
 30
0.0
 10
3.578673
 20
3.511043
 30
0.0
 10
4.307239
 20
3.204014
 30
0.0
 10
4.589726
 20
2.346058
 30
0.0
 10
4.545027
 20
1.885500
 30
0.0
 10
3.712316
 20
0.539977
 30
0.0
 10
2.589630
 20
-0.002144
 30
0.0
 10
1.868552
 20
-0.688395
 30
0.0
 10
2.151038
 20
-1.257242
 30
0.0
 10
1.229157
 20
-0.661386
 30
0.0
 10
1.243905
 20
-0.498770
 30
0.0
 10
1.511643
 20
0.025147
 30
0.0
 10
1.861064
 20
0.223860
 30
0.0
 10
1.205154
 20
0.967205
 30
0.0
 10
0.939182
 20
2.093328
 30
0.0
 10
0.968906
 20
2.544771
 30
0.0
 10
1.006117
 20
2.770492
 30
0.0
 10
0.247828
 20
2.454375
 30
0.0
 10
-0.335864
 20
2.811132
 30
0.0
 10
-0.555160
 20
3.637535
 30
0.0
 10
-0.540412
 20
3.881460
 30
0.0
 10
0.017301
 20
4.983058
 30
0.0
 10
1.020865
 20
5.371396
 30
0.0
 10
2.173275
 20
5.037358
 30
0.0
 10
2.923653
 20
5.838304
 30
0.0
 10
4.002290
 20
6.157159
 30
0.0
 10
4.574751
 20
5.949613
 30
0.0
 10
4.790530
 20
5.253991
 30
0.0
  0
LWPOLYLINE
  5
10b
100
AcDbEntity
  8
C
 62
7
100
AcDbPolyline
 90
6
 70
0
 10
3.846185
 20
5.019154
 30
0.0
 10
3.548723
 20
5.317378
 30
0.0
 10
3.258976
 20
5.209062
 30
0.0
 10
2.716012
 20
4.802549
 30
0.0
 10
3.348146
 20
4.649020
 30
0.0
 10
3.846185
 20
5.019154
 30
0.0
  0
LWPOLYLINE
  5
10c
100
AcDbEntity
  8
C
 62
7
100
AcDbPolyline
 90
11
 70
0
 10
1.816592
 20
4.531615
 30
0.0
 10
1.199433
 20
4.639932
 30
0.0
 10
0.582274
 20
4.414211
 30
0.0
 10
0.351746
 20
3.935477
 30
0.0
 10
0.422425
 20
3.560658
 30
0.0
 10
0.701168
 20
3.420648
 30
0.0
 10
1.020865
 20
3.754940
 30
0.0
 10
0.894484
 20
4.188490
 30
0.0
 10
1.073051
 20
4.080173
 30
0.0
 10
1.296091
 20
3.673660
 30
0.0
 10
1.816592
 20
4.531615
 30
0.0
  0
LWPOLYLINE
  5
10d
100
AcDbEntity
  8
D
 62
7
100
AcDbPolyline
 90
43
 70
0
 10
5.013361
 20
1.957765
 30
0.0
 10
4.713948
 20
1.182811
 30
0.0
 10
4.299770
 20
0.557971
 30
0.0
 10
3.080427
 20
0.034025
 30
0.0
 10
2.411081
 20
0.115333
 30
0.0
 10
1.853595
 20
0.214563
 30
0.0
 10
1.318346
 20
-0.245996
 30
0.0
 10
1.630556
 20
-0.688323
 30
0.0
 10
1.310858
 20
-0.805755
 30
0.0
 10
0.983673
 20
-0.625359
 30
0.0
 10
0.872040
 20
-0.218987
 30
0.0
 10
0.931713
 20
0.088325
 30
0.0
 10
0.559829
 20
-0.074292
 30
0.0
 10
0.232758
 20
0.115333
 30
0.0
 10
0.084027
 20
0.638997
 30
0.0
 10
0.277343
 20
1.366058
 30
0.0
 10
0.790357
 20
1.695665
 30
0.0
 10
0.983673
 20
1.659569
 30
0.0
 10
0.820080
 20
1.542164
 30
0.0
 10
0.634252
 20
1.189923
 30
0.0
 10
0.690068
 20
0.937193
 30
0.0
 10
0.916738
 20
0.873806
 30
0.0
 10
1.660279
 20
2.815749
 30
0.0
 10
1.690003
 20
3.122778
 30
0.0
 10
0.619276
 20
2.318812
 30
0.0
 10
-0.087053
 20
2.743246
 30
0.0
 10
-0.302605
 20
3.673422
 30
0.0
 10
-0.257907
 20
4.179164
 30
0.0
 10
0.247619
 20
5.217939
 30
0.0
 10
1.333094
 20
5.750690
 30
0.0
 10
1.972489
 20
5.461836
 30
0.0
 10
1.890806
 20
5.904191
 30
0.0
 10
1.905555
 20
6.093816
 30
0.0
 10
2.158318
 20
6.590725
 30
0.0
 10
2.552438
 20
6.744254
 30
0.0
 10
2.931582
 20
6.157203
 30
0.0
 10
2.671332
 20
6.382925
 30
0.0
 10
2.463267
 20
6.121107
 30
0.0
 10
3.087687
 20
5.353265
 30
0.0
 10
4.359217
 20
4.423089
 30
0.0
 10
4.828712
 20
3.535641
 30
0.0
 10
5.050572
 20
2.535728
 30
0.0
 10
5.013361
 20
1.957765
 30
0.0
  0
LWPOLYLINE
  5
10e
100
AcDbEntity
  8
D
 62
7
100
AcDbPolyline
 90
14
 70
0
 10
3.987333
 20
2.400120
 30
0.0
 10
3.504043
 20
3.971646
 30
0.0
 10
2.716030
 20
4.612714
 30
0.0
 10
2.403820
 20
2.553649
 30
0.0
 10
2.894371
 20
2.951074
 30
0.0
 10
3.243792
 20
2.689228
 30
0.0
 10
3.303466
 20
2.273628
 30
0.0
 10
3.199321
 20
1.903465
 30
0.0
 10
2.924095
 20
2.463507
 30
0.0
 10
2.530202
 20
1.849194
 30
0.0
 10
2.671332
 20
1.307327
 30
0.0
 10
3.028240
 20
1.144739
 30
0.0
 10
3.578465
 20
1.352539
 30
0.0
 10
3.987333
 20
2.400120
 30
0.0
  0
LWPOLYLINE
  5
10f
100
AcDbEntity
  8
D
 62
7
100
AcDbPolyline
 90
10
 70
0
 10
1.749450
 20
4.323859
 30
0.0
 10
1.228948
 20
5.217939
 30
0.0
 10
0.615646
 20
4.883760
 30
0.0
 10
0.388976
 20
4.070847
 30
0.0
 10
0.782869
 20
3.456816
 30
0.0
 10
1.228948
 20
4.016830
 30
0.0
 10
1.043120
 20
4.432176
 30
0.0
 10
0.812593
 20
4.323859
 30
0.0
 10
1.303370
 20
4.703110
 30
0.0
 10
1.749450
 20
4.323859
 30
0.0
  0
LWPOLYLINE
  5
110
100
AcDbEntity
  8
E
 62
7
100
AcDbPolyline
 90
57
 70
0
 10
3.865560
 20
0.160021
 30
0.0
 10
3.032849
 20
-0.887559
 30
0.0
 10
2.579282
 20
-0.309596
 30
0.0
 10
2.764352
 20
-0.409052
 30
0.0
 10
2.891321
 20
-0.499701
 30
0.0
 10
3.084808
 20
-0.228288
 30
0.0
 10
2.958426
 20
0.150934
 30
0.0
 10
2.356242
 20
0.358734
 30
0.0
 10
1.545880
 20
0.178084
 30
0.0
 10
0.854412
 20
-0.002567
 30
0.0
 10
0.378609
 20
0.611746
 30
0.0
 10
0.400845
 20
0.810177
 30
0.0
 10
0.627628
 20
1.311516
 30
0.0
 10
1.010517
 20
1.541922
 30
0.0
 10
1.196345
 20
1.478535
 30
0.0
 10
1.055216
 20
1.424518
 30
0.0
 10
0.884135
 20
1.090198
 30
0.0
 10
1.047728
 20
0.855389
 30
0.0
 10
1.449109
 20
1.505826
 30
0.0
 10
1.672148
 20
2.950550
 30
0.0
 10
0.794965
 20
2.390790
 30
0.0
 10
0.140594
 20
2.824340
 30
0.0
 10
-0.067470
 20
3.718392
 30
0.0
 10
-0.045234
 20
4.052430
 30
0.0
 10
0.445544
 20
5.226531
 30
0.0
 10
1.545767
 20
5.858765
 30
0.0
 10
1.820992
 20
5.822669
 30
0.0
 10
3.508651
 20
5.623956
 30
0.0
 10
3.932495
 20
6.039303
 30
0.0
 10
3.694480
 20
6.265730
 30
0.0
 10
3.330310
 20
6.156707
 30
0.0
 10
4.043901
 20
6.635441
 30
0.0
 10
4.653573
 20
5.741361
 30
0.0
 10
4.367342
 20
4.860658
 30
0.0
 10
3.635033
 20
4.512989
 30
0.0
 10
2.787573
 20
4.693780
 30
0.0
 10
2.594257
 20
3.338888
 30
0.0
 10
3.411993
 20
3.935026
 30
0.0
 10
3.753927
 20
3.528795
 30
0.0
 10
3.746666
 20
3.402275
 30
0.0
 10
3.493903
 20
2.878358
 30
0.0
 10
2.861768
 20
2.480932
 30
0.0
 10
2.995827
 20
2.652382
 30
0.0
 10
3.211190
 20
2.959666
 30
0.0
 10
3.010613
 20
3.095245
 30
0.0
 10
2.750362
 20
2.770041
 30
0.0
 10
2.519835
 20
1.894164
 30
0.0
 10
2.512346
 20
1.722460
 30
0.0
 10
3.218676
 20
1.054101
 30
0.0
 10
4.014177
 20
1.731548
 30
0.0
 10
3.962217
 20
1.957269
 30
0.0
 10
3.776389
 20
2.011568
 30
0.0
 10
3.330310
 20
1.532835
 30
0.0
 10
4.319126
 20
2.869524
 30
0.0
 10
4.936285
 20
1.930260
 30
0.0
 10
4.646311
 20
0.819292
 30
0.0
 10
3.865560
 20
0.160021
 30
0.0
  0
LWPOLYLINE
  5
111
100
AcDbEntity
  8
E
 62
7
100
AcDbPolyline
 90
11
 70
0
 10
1.850716
 20
4.440768
 30
0.0
 10
1.345190
 20
5.289636
 30
0.0
 10
0.839437
 20
5.082118
 30
0.0
 10
0.519739
 20
4.305442
 30
0.0
 10
0.623885
 20
3.799559
 30
0.0
 10
0.951070
 20
3.591900
 30
0.0
 10
1.293003
 20
3.754516
 30
0.0
 10
1.426873
 20
4.169835
 30
0.0
 10
1.084939
 20
4.504155
 30
0.0
 10
1.545767
 20
4.693780
 30
0.0
 10
1.850716
 20
4.440768
 30
0.0
  0
LWPOLYLINE
  5
112
100
AcDbEntity
  8
F
 62
7
100
AcDbPolyline
 90
61
 70
0
 10
4.615668
 20
4.484764
 30
0.0
 10
3.723510
 20
4.674389
 30
0.0
 10
3.478234
 20
3.202346
 30
0.0
 10
3.753233
 20
3.608605
 30
0.0
 10
4.392628
 20
4.033321
 30
0.0
 10
4.883406
 20
3.789397
 30
0.0
 10
4.972577
 20
3.274567
 30
0.0
 10
4.705066
 20
2.624411
 30
0.0
 10
3.775696
 20
2.236074
 30
0.0
 10
3.954435
 20
2.443168
 30
0.0
 10
4.258986
 20
2.768825
 30
0.0
 10
3.976273
 20
3.094029
 30
0.0
 10
3.641827
 20
2.868308
 30
0.0
 10
3.344365
 20
2.010352
 30
0.0
 10
3.336877
 20
1.829561
 30
0.0
 10
3.727254
 20
0.962631
 30
0.0
 10
4.117629
 20
0.149718
 30
0.0
 10
4.110141
 20
-0.021704
 30
0.0
 10
3.515444
 20
-0.581746
 30
0.0
 10
3.247706
 20
-0.473288
 30
0.0
 10
3.166023
 20
-0.157312
 30
0.0
 10
3.359339
 20
0.185842
 30
0.0
 10
3.314641
 20
-0.021704
 30
0.0
 10
3.537680
 20
-0.229504
 30
0.0
 10
3.701273
 20
-0.066888
 30
0.0
 10
3.586009
 20
0.262719
 30
0.0
 10
3.188259
 20
0.393642
 30
0.0
 10
2.444831
 20
0.208420
 30
0.0
 10
1.701177
 20
0.032313
 30
0.0
 10
1.236606
 20
0.226482
 30
0.0
 10
1.106480
 20
0.718847
 30
0.0
 10
1.641730
 20
1.260714
 30
0.0
 10
1.619115
 20
1.161456
 30
0.0
 10
1.448414
 20
0.917560
 30
0.0
 10
1.474507
 20
0.714303
 30
0.0
 10
1.612007
 20
0.628451
 30
0.0
 10
2.117533
 20
1.062001
 30
0.0
 10
2.533888
 20
2.949362
 30
0.0
 10
1.612007
 20
2.389603
 30
0.0
 10
0.913164
 20
2.831929
 30
0.0
 10
0.697612
 20
3.735097
 30
0.0
 10
0.719848
 20
4.051242
 30
0.0
 10
1.173415
 20
5.225315
 30
0.0
 10
1.708171
 20
5.689401
 30
0.0
 10
2.318336
 20
5.839374
 30
0.0
 10
2.556351
 20
5.821594
 30
0.0
 10
2.563612
 20
6.092527
 30
0.0
 10
3.113837
 20
6.652287
 30
0.0
 10
2.980195
 20
6.246028
 30
0.0
 10
3.166023
 20
5.803419
 30
0.0
 10
4.065669
 20
5.523398
 30
0.0
 10
4.980063
 20
6.101333
 30
0.0
 10
4.887149
 20
6.340714
 30
0.0
 10
4.578873
 20
6.390921
 30
0.0
 10
4.385367
 20
6.408701
 30
0.0
 10
5.076722
 20
6.625335
 30
0.0
 10
5.560012
 20
6.453631
 30
0.0
 10
5.849986
 20
5.821651
 30
0.0
 10
5.455980
 20
4.886789
 30
0.0
 10
4.615667
 20
4.484961
 30
0.0
 10
4.615668
 20
4.484764
 30
0.0
  0
LWPOLYLINE
  5
113
100
AcDbEntity
  8
F
 62
7
100
AcDbPolyline
 90
11
 70
0
 10
2.719945
 20
4.439552
 30
0.0
 10
2.177208
 20
5.288420
 30
0.0
 10
1.649219
 20
5.080902
 30
0.0
 10
1.314546
 20
4.304226
 30
0.0
 10
1.426179
 20
3.798371
 30
0.0
 10
1.775600
 20
3.590684
 30
0.0
 10
2.132509
 20
3.748757
 30
0.0
 10
2.273866
 20
4.159531
 30
0.0
 10
1.909469
 20
4.502939
 30
0.0
 10
2.385272
 20
4.692564
 30
0.0
 10
2.719945
 20
4.439552
 30
0.0
  0
LWPOLYLINE
  5
114
100
AcDbEntity
  8
G
 62
7
100
AcDbPolyline
 90
54
 70
0
 10
5.263453
 20
3.565371
 30
0.0
 10
4.512424
 20
1.397707
 30
0.0
 10
4.854585
 20
1.632544
 30
0.0
 10
5.151820
 20
1.452006
 30
0.0
 10
5.241217
 20
1.072784
 30
0.0
 10
4.891569
 20
0.314030
 30
0.0
 10
4.973479
 20
0.630147
 30
0.0
 10
4.802398
 20
0.855868
 30
0.0
 10
4.363807
 20
0.323118
 30
0.0
 10
4.200214
 20
-0.607059
 30
0.0
 10
2.505068
 20
-2.946145
 30
0.0
 10
1.545975
 20
-2.584816
 30
0.0
 10
1.129619
 20
-1.546322
 30
0.0
 10
1.441829
 20
-0.489654
 30
0.0
 10
2.230069
 20
-0.110404
 30
0.0
 10
3.003106
 20
-1.013572
 30
0.0
 10
2.564515
 20
-0.715376
 30
0.0
 10
2.222581
 20
-1.203197
 30
0.0
 10
2.360081
 20
-1.564385
 30
0.0
 10
2.705872
 20
-1.708939
 30
0.0
 10
3.337779
 20
-1.239293
 30
0.0
 10
3.791346
 20
0.232722
 30
0.0
 10
2.958635
 20
-0.002087
 30
0.0
 10
1.731803
 20
0.594051
 30
0.0
 10
1.226277
 20
2.544799
 30
0.0
 10
1.241025
 20
2.770520
 30
0.0
 10
0.512459
 20
2.454403
 30
0.0
 10
-0.160403
 20
2.897012
 30
0.0
 10
-0.416910
 20
3.881488
 30
0.0
 10
0.029169
 20
4.983086
 30
0.0
 10
0.988262
 20
5.371424
 30
0.0
 10
2.177882
 20
5.037386
 30
0.0
 10
3.895492
 20
6.157187
 30
0.0
 10
4.497676
 20
5.949641
 30
0.0
 10
4.802398
 20
5.254020
 30
0.0
 10
4.493932
 20
4.400608
 30
0.0
 10
3.642501
 20
4.052910
 30
0.0
 10
2.453108
 20
4.323843
 30
0.0
 10
2.058988
 20
2.725308
 30
0.0
 10
2.319239
 20
1.677728
 30
0.0
 10
2.973383
 20
1.325514
 30
0.0
 10
3.731899
 20
1.677728
 30
0.0
 10
4.014385
 20
2.373095
 30
0.0
 10
3.709550
 20
2.486097
 30
0.0
 10
3.382478
 20
2.544799
 30
0.0
 10
3.129488
 20
2.454403
 30
0.0
 10
2.988358
 20
2.156461
 30
0.0
 10
3.055293
 20
1.813336
 30
0.0
 10
2.713132
 20
2.580895
 30
0.0
 10
2.969752
 20
3.240166
 30
0.0
 10
3.590542
 20
3.520159
 30
0.0
 10
4.099925
 20
3.398211
 30
0.0
 10
4.534887
 20
3.276263
 30
0.0
 10
5.263453
 20
3.565371
 30
0.0
  0
LWPOLYLINE
  5
115
100
AcDbEntity
  8
G
 62
7
100
AcDbPolyline
 90
6
 70
0
 10
3.858281
 20
5.019211
 30
0.0
 10
3.523608
 20
5.317407
 30
0.0
 10
3.248609
 20
5.209090
 30
0.0
 10
2.743083
 20
4.802577
 30
0.0
 10
3.397226
 20
4.649048
 30
0.0
 10
3.858281
 20
5.019211
 30
0.0
  0
LWPOLYLINE
  5
116
100
AcDbEntity
  8
G
 62
7
100
AcDbPolyline
 90
11
 70
0
 10
1.873160
 20
4.531644
 30
0.0
 10
1.241025
 20
4.639960
 30
0.0
 10
0.653816
 20
4.414239
 30
0.0
 10
0.467988
 20
3.935506
 30
0.0
 10
0.575764
 20
3.560686
 30
0.0
 10
0.869368
 20
3.420676
 30
0.0
 10
1.151855
 20
3.754996
 30
0.0
 10
0.988262
 20
4.188518
 30
0.0
 10
1.174091
 20
4.080201
 30
0.0
 10
1.434342
 20
3.673688
 30
0.0
 10
1.873160
 20
4.531644
 30
0.0
  0
LWPOLYLINE
  5
117
100
AcDbEntity
  8
H
 62
7
100
AcDbPolyline
 90
69
 70
0
 10
5.511597
 20
6.682120
 30
0.0
 10
4.924161
 20
5.390615
 30
0.0
 10
4.284766
 20
1.525215
 30
0.0
 10
4.782804
 20
-0.190724
 30
0.0
 10
5.080664
 20
0.134508
 30
0.0
 10
4.961372
 20
0.568030
 30
0.0
 10
5.422200
 20
-0.217733
 30
0.0
 10
5.407451
 20
-0.407330
 30
0.0
 10
5.043055
 20
-1.066601
 30
0.0
 10
4.545016
 20
-1.220102
 30
0.0
 10
3.704817
 20
-0.488638
 30
0.0
 10
3.043186
 20
-1.175172
 30
0.0
 10
2.671302
 20
-0.985575
 30
0.0
 10
2.597106
 20
-0.624246
 30
0.0
 10
2.790196
 20
-0.163716
 30
0.0
 10
2.983512
 20
-0.678263
 30
0.0
 10
3.132356
 20
-0.452542
 30
0.0
 10
3.199291
 20
0.062288
 30
0.0
 10
3.229014
 20
0.649338
 30
0.0
 10
2.559895
 20
3.024238
 30
0.0
 10
2.470498
 20
1.787032
 30
0.0
 10
2.596993
 20
1.200010
 30
0.0
 10
2.723488
 20
0.667259
 30
0.0
 10
2.585875
 20
0.197613
 30
0.0
 10
2.232710
 20
-0.001099
 30
0.0
 10
2.009670
 20
0.260718
 30
0.0
 10
2.217735
 20
0.161517
 30
0.0
 10
2.366579
 20
0.315018
 30
0.0
 10
2.292157
 20
0.477634
 30
0.0
 10
2.054142
 20
0.558942
 30
0.0
 10
1.515149
 20
0.369317
 30
0.0
 10
0.849774
 20
0.179692
 30
0.0
 10
0.336760
 20
0.757655
 30
0.0
 10
0.819103
 20
1.261986
 30
0.0
 10
0.708530
 20
0.893122
 30
0.0
 10
0.857261
 20
0.847769
 30
0.0
 10
1.533868
 20
2.121353
 30
0.0
 10
0.894472
 20
1.760024
 30
0.0
 10
0.440906
 20
1.940561
 30
0.0
 10
0.210378
 20
2.563708
 30
0.0
 10
0.217866
 20
2.744500
 30
0.0
 10
0.827538
 20
3.674676
 30
0.0
 10
1.756907
 20
3.918600
 30
0.0
 10
1.801379
 20
4.631861
 30
0.0
 10
1.266129
 20
4.397052
 30
0.0
 10
0.886985
 20
4.541747
 30
0.0
 10
0.678693
 20
5.065410
 30
0.0
 10
0.686181
 20
5.200990
 30
0.0
 10
0.976155
 20
5.787758
 30
0.0
 10
1.325576
 20
5.932454
 30
0.0
 10
1.556103
 20
5.760750
 30
0.0
 10
1.333064
 20
5.832970
 30
0.0
 10
1.065326
 20
5.480729
 30
0.0
 10
1.399998
 20
5.128515
 30
0.0
 10
3.199290
 20
6.393012
 30
0.0
 10
3.013462
 20
5.652433
 30
0.0
 10
2.649066
 20
3.710800
 30
0.0
 10
3.399867
 20
2.861904
 30
0.0
 10
3.541224
 20
3.918600
 30
0.0
 10
3.585923
 20
4.586677
 30
0.0
 10
3.399867
 20
5.119682
 30
0.0
 10
3.229014
 20
4.938890
 30
0.0
 10
3.222095
 20
4.623761
 30
0.0
 10
3.110120
 20
5.227999
 30
0.0
 10
3.344277
 20
5.706591
 30
0.0
 10
3.764263
 20
5.923366
 30
0.0
 10
4.232579
 20
5.634258
 30
0.0
 10
4.545016
 20
6.140000
 30
0.0
 10
5.511597
 20
6.682120
 30
0.0
  0
LWPOLYLINE
  5
118
100
AcDbEntity
  8
H
 62
7
100
AcDbPolyline
 90
9
 70
0
 10
1.712209
 20
3.331550
 30
0.0
 10
1.251382
 20
3.214146
 30
0.0
 10
0.991131
 20
2.852816
 30
0.0
 10
1.199195
 20
2.509691
 30
0.0
 10
1.329321
 20
2.586455
 30
0.0
 10
1.399999
 20
2.753333
 30
0.0
 10
1.325577
 20
3.033354
 30
0.0
 10
1.645275
 20
2.789712
 30
0.0
 10
1.712209
 20
3.331550
 30
0.0
  0
LWPOLYLINE
  5
119
100
AcDbEntity
  8
I
 62
7
100
AcDbPolyline
 90
46
 70
0
 10
4.715733
 20
6.209338
 30
0.0
 10
4.232443
 20
5.333461
 30
0.0
 10
3.645007
 20
2.930988
 30
0.0
 10
3.555837
 20
1.675861
 30
0.0
 10
3.883022
 20
0.718422
 30
0.0
 10
4.053875
 20
0.863089
 30
0.0
 10
3.964705
 20
1.134023
 30
0.0
 10
3.964705
 20
1.188040
 30
0.0
 10
4.001916
 20
1.197071
 30
0.0
 10
4.195232
 20
1.034483
 30
0.0
 10
4.284403
 20
0.718366
 30
0.0
 10
3.682218
 20
0.221711
 30
0.0
 10
3.117132
 20
0.456520
 30
0.0
 10
2.626467
 20
0.691357
 30
0.0
 10
2.262071
 20
0.583040
 30
0.0
 10
2.105966
 20
0.375212
 30
0.0
 10
2.217599
 20
0.185615
 30
0.0
 10
2.440639
 20
0.284816
 30
0.0
 10
2.485110
 20
0.284816
 30
0.0
 10
2.485110
 20
0.239886
 30
0.0
 10
2.388452
 20
0.104307
 30
0.0
 10
2.128202
 20
-0.067397
 30
0.0
 10
1.801243
 20
-0.004010
 30
0.0
 10
1.637651
 20
0.375212
 30
0.0
 10
1.949861
 20
0.907963
 30
0.0
 10
2.410688
 20
1.576321
 30
0.0
 10
2.752849
 20
3.111723
 30
0.0
 10
2.373704
 20
2.687289
 30
0.0
 10
1.726821
 20
2.515585
 30
0.0
 10
1.020491
 20
2.958222
 30
0.0
 10
0.812200
 20
3.852274
 30
0.0
 10
0.827175
 20
4.168419
 30
0.0
 10
1.325214
 20
5.369501
 30
0.0
 10
2.529809
 20
5.983560
 30
0.0
 10
3.243627
 20
5.947464
 30
0.0
 10
3.696967
 20
5.911339
 30
0.0
 10
4.209980
 20
6.218369
 30
0.0
 10
4.098574
 20
6.398906
 30
0.0
 10
3.823348
 20
6.299677
 30
0.0
 10
3.786364
 20
6.299677
 30
0.0
 10
3.786364
 20
6.353977
 30
0.0
 10
3.934981
 20
6.534514
 30
0.0
 10
4.284403
 20
6.742314
 30
0.0
 10
4.607844
 20
6.633856
 30
0.0
 10
4.715733
 20
6.209281
 30
0.0
 10
4.715733
 20
6.209338
 30
0.0
  0
LWPOLYLINE
  5
11a
100
AcDbEntity
  8
I
 62
7
100
AcDbPolyline
 90
11
 70
0
 10
2.827044
 20
4.565619
 30
0.0
 10
2.291794
 20
5.414769
 30
0.0
 10
1.756545
 20
5.206969
 30
0.0
 10
1.421872
 20
4.421206
 30
0.0
 10
1.537135
 20
3.920007
 30
0.0
 10
1.882926
 20
3.716751
 30
0.0
 10
2.239722
 20
3.870252
 30
0.0
 10
2.380965
 20
4.285880
 30
0.0
 10
2.024283
 20
4.629006
 30
0.0
 10
2.500086
 20
4.818631
 30
0.0
 10
2.827044
 20
4.565619
 30
0.0
  0
LWPOLYLINE
  5
11b
100
AcDbEntity
  8
J
 62
7
100
AcDbPolyline
 90
50
 70
0
 10
5.495482
 20
6.062135
 30
0.0
 10
5.071866
 20
5.502375
 30
0.0
 10
4.536503
 20
5.109352
 30
0.0
 10
4.335812
 20
4.409582
 30
0.0
 10
4.209431
 20
3.163289
 30
0.0
 10
4.288333
 20
2.366040
 30
0.0
 10
4.581088
 20
1.690992
 30
0.0
 10
3.830059
 20
1.393078
 30
0.0
 10
3.189124
 20
0.817938
 30
0.0
 10
3.004835
 20
0.282365
 30
0.0
 10
2.997348
 20
0.119748
 30
0.0
 10
3.086745
 20
-0.151157
 30
0.0
 10
3.294809
 20
-0.178532
 30
0.0
 10
3.629482
 20
0.020180
 30
0.0
 10
3.264851
 20
-0.617586
 30
0.0
 10
2.714861
 20
-0.846609
 30
0.0
 10
2.373321
 20
-0.681960
 30
0.0
 10
2.276270
 20
-0.259558
 30
0.0
 10
2.514057
 20
0.399684
 30
0.0
 10
2.305993
 20
0.200972
 30
0.0
 10
1.636874
 20
0.002259
 30
0.0
 10
0.878585
 20
0.345385
 30
0.0
 10
0.633082
 20
1.203369
 30
0.0
 10
0.746085
 20
1.885048
 30
0.0
 10
0.997479
 20
2.395362
 30
0.0
 10
1.897125
 20
3.000588
 30
0.0
 10
2.580992
 20
2.142632
 30
0.0
 10
2.239058
 20
2.449662
 30
0.0
 10
1.915617
 20
2.260037
 30
0.0
 10
1.733532
 20
1.844436
 30
0.0
 10
2.082953
 20
1.392994
 30
0.0
 10
2.663857
 20
1.710578
 30
0.0
 10
3.057022
 20
2.431459
 30
0.0
 10
3.240329
 20
2.997342
 30
0.0
 10
3.436166
 20
4.048197
 30
0.0
 10
3.008515
 20
3.605757
 30
0.0
 10
2.395163
 20
3.461146
 30
0.0
 10
1.763256
 20
3.759060
 30
0.0
 10
1.428583
 20
4.779660
 30
0.0
 10
1.451046
 20
5.095778
 30
0.0
 10
1.673000
 20
5.834805
 30
0.0
 10
2.120165
 20
6.378167
 30
0.0
 10
3.153680
 20
6.757417
 30
0.0
 10
4.016001
 20
6.459475
 30
0.0
 10
4.707469
 20
6.170367
 30
0.0
 10
5.086614
 20
6.450388
 30
0.0
 10
4.900786
 20
6.757417
 30
0.0
 10
5.502970
 20
6.188542
 30
0.0
 10
5.495481
 20
6.062050
 30
0.0
 10
5.495482
 20
6.062135
 30
0.0
  0
LWPOLYLINE
  5
11c
100
AcDbEntity
  8
J
 62
7
100
AcDbPolyline
 90
9
 70
0
 10
3.495613
 20
5.222354
 30
0.0
 10
2.923152
 20
6.170452
 30
0.0
 10
2.216822
 20
5.836413
 30
0.0
 10
1.926848
 20
5.014554
 30
0.0
 10
2.402651
 20
4.463600
 30
0.0
 10
2.900690
 20
4.933246
 30
0.0
 10
2.640666
 20
5.457163
 30
0.0
 10
2.952876
 20
5.502375
 30
0.0
 10
3.495613
 20
5.222354
 30
0.0
  0
LWPOLYLINE
  5
11d
100
AcDbEntity
  8
K
 62
7
100
AcDbPolyline
 90
12
 70
0
 10
2.103479
 20
4.167972
 30
0.0
 10
1.635164
 20
4.583318
 30
0.0
 10
1.032753
 20
4.140963
 30
0.0
 10
1.315258
 20
4.240898
 30
0.0
 10
1.545767
 20
3.960172
 30
0.0
 10
1.382287
 20
3.603528
 30
0.0
 10
1.047728
 20
3.463545
 30
0.0
 10
0.549463
 20
4.140963
 30
0.0
 10
0.564438
 20
4.330588
 30
0.0
 10
0.891623
 20
5.044018
 30
0.0
 10
1.471571
 20
5.342073
 30
0.0
 10
2.103479
 20
4.167972
 30
0.0
  0
LWPOLYLINE
  5
11e
100
AcDbEntity
  8
K
 62
7
100
AcDbPolyline
 90
70
 70
0
 10
6.371182
 20
-0.925518
 30
0.0
 10
6.378671
 20
-0.735893
 30
0.0
 10
5.538471
 20
0.112975
 30
0.0
 10
5.799290
 20
-0.301892
 30
0.0
 10
5.464049
 20
-0.690709
 30
0.0
 10
4.475233
 20
0.230379
 30
0.0
 10
4.177771
 20
1.928398
 30
0.0
 10
4.237218
 20
2.560378
 30
0.0
 10
4.779955
 20
3.472633
 30
0.0
 10
4.720508
 20
3.788750
 30
0.0
 10
4.185259
 20
3.283008
 30
0.0
 10
3.724204
 20
3.662258
 30
0.0
 10
4.668549
 20
4.339676
 30
0.0
 10
5.419351
 20
5.658190
 30
0.0
 10
5.434325
 20
5.847815
 30
0.0
 10
5.237265
 20
6.480049
 30
0.0
 10
4.720508
 20
6.714886
 30
0.0
 10
4.140673
 20
6.489024
 30
0.0
 10
3.880535
 20
5.938211
 30
0.0
 10
3.895285
 20
5.540786
 30
0.0
 10
4.259681
 20
6.064449
 30
0.0
 10
4.512444
 20
5.757419
 30
0.0
 10
4.497470
 20
5.594803
 30
0.0
 10
2.965916
 20
4.059683
 30
0.0
 10
3.226053
 20
5.025956
 30
0.0
 10
3.478930
 20
5.865736
 30
0.0
 10
3.493904
 20
6.064449
 30
0.0
 10
2.943679
 20
6.732779
 30
0.0
 10
2.512348
 20
6.461874
 30
0.0
 10
2.802152
 20
6.543408
 30
0.0
 10
2.958427
 20
6.190941
 30
0.0
 10
2.798692
 20
5.829753
 30
0.0
 10
2.490112
 20
5.694314
 30
0.0
 10
2.118228
 20
5.757419
 30
0.0
 10
1.679637
 20
5.838728
 30
0.0
 10
0.661097
 20
5.477398
 30
0.0
 10
-0.089932
 20
4.095780
 30
0.0
 10
-0.134404
 20
3.635249
 30
0.0
 10
0.177806
 20
2.668949
 30
0.0
 10
0.913860
 20
2.343744
 30
0.0
 10
1.605441
 20
2.596474
 30
0.0
 10
2.044033
 20
3.165603
 30
0.0
 10
2.044033
 20
3.102216
 30
0.0
 10
1.597954
 20
1.458752
 30
0.0
 10
1.151875
 20
1.034318
 30
0.0
 10
0.951071
 20
1.260039
 30
0.0
 10
1.233557
 20
1.684473
 30
0.0
 10
0.754011
 20
1.431602
 30
0.0
 10
0.504992
 20
0.916913
 30
0.0
 10
0.616398
 20
0.447295
 30
0.0
 10
1.062476
 20
0.239467
 30
0.0
 10
1.683380
 20
0.469732
 30
0.0
 10
2.319031
 20
0.700025
 30
0.0
 10
2.653704
 20
0.402083
 30
0.0
 10
2.281820
 20
0.158159
 30
0.0
 10
2.527322
 20
-0.004430
 30
0.0
 10
2.988150
 20
0.456101
 30
0.0
 10
2.854508
 20
1.214855
 30
0.0
 10
2.668452
 20
2.000618
 30
0.0
 10
2.832045
 20
3.228708
 30
0.0
 10
3.278124
 20
2.099819
 30
0.0
 10
3.449204
 20
0.600796
 30
0.0
 10
3.426969
 20
0.221292
 30
0.0
 10
2.750363
 20
-0.455872
 30
0.0
 10
3.166719
 20
-0.781105
 30
0.0
 10
3.605310
 20
-0.428864
 30
0.0
 10
4.237218
 20
-1.557752
 30
0.0
 10
5.300457
 20
-2.009195
 30
0.0
 10
5.992038
 20
-1.747378
 30
0.0
 10
6.371182
 20
-0.925518
 30
0.0
  0
LWPOLYLINE
  5
11f
100
AcDbEntity
  8
L
 62
7
100
AcDbPolyline
 90
61
 70
0
 10
5.196121
 20
2.209144
 30
0.0
 10
4.646123
 20
0.980744
 30
0.0
 10
3.954541
 20
0.348509
 30
0.0
 10
4.244515
 20
-0.355663
 30
0.0
 10
3.954541
 20
-0.929195
 30
0.0
 10
3.419291
 20
-1.123505
 30
0.0
 10
2.928514
 20
-0.590472
 30
0.0
 10
3.292910
 20
-0.798301
 30
0.0
 10
3.657079
 20
-0.392042
 30
0.0
 10
3.530698
 20
0.032675
 30
0.0
 10
2.906278
 20
0.258396
 30
0.0
 10
1.694422
 20
0.150079
 30
0.0
 10
0.883946
 20
0.068771
 30
0.0
 10
0.222315
 20
0.700751
 30
0.0
 10
0.237063
 20
0.890348
 30
0.0
 10
0.497314
 20
1.360135
 30
0.0
 10
0.928645
 20
1.567794
 30
0.0
 10
0.728030
 20
1.333691
 30
0.0
 10
0.564248
 20
0.971656
 30
0.0
 10
0.631070
 20
0.777628
 30
0.0
 10
0.846735
 20
0.718926
 30
0.0
 10
1.363493
 20
1.062052
 30
0.0
 10
1.724145
 20
1.766507
 30
0.0
 10
1.947185
 20
3.247637
 30
0.0
 10
1.047539
 20
2.741895
 30
0.0
 10
0.370932
 20
3.184504
 30
0.0
 10
0.162641
 20
4.078584
 30
0.0
 10
0.267090
 20
4.853510
 30
0.0
 10
0.619952
 20
5.577607
 30
0.0
 10
1.116439
 20
6.054930
 30
0.0
 10
1.791080
 20
6.209870
 30
0.0
 10
2.534394
 20
6.047253
 30
0.0
 10
3.099594
 20
5.848541
 30
0.0
 10
3.489970
 20
5.920874
 30
0.0
 10
3.664567
 20
6.146483
 30
0.0
 10
3.493714
 20
6.417670
 30
0.0
 10
3.114342
 20
6.119446
 30
0.0
 10
3.345890
 20
6.583504
 30
0.0
 10
3.694290
 20
6.806008
 30
0.0
 10
4.110646
 20
6.309071
 30
0.0
 10
4.095897
 20
6.137649
 30
0.0
 10
3.798435
 20
5.442282
 30
0.0
 10
3.359844
 20
4.900161
 30
0.0
 10
2.913764
 20
3.247637
 30
0.0
 10
2.794644
 20
1.883911
 30
0.0
 10
3.121829
 20
1.116351
 30
0.0
 10
3.790948
 20
1.558707
 30
0.0
 10
4.058686
 20
2.389653
 30
0.0
 10
3.991751
 20
2.777991
 30
0.0
 10
3.790948
 20
2.895396
 30
0.0
 10
3.586514
 20
2.796053
 30
0.0
 10
3.463762
 20
2.597482
 30
0.0
 10
3.486225
 20
2.163932
 30
0.0
 10
3.325445
 20
2.354263
 30
0.0
 10
3.255698
 20
2.750983
 30
0.0
 10
3.263187
 20
2.922404
 30
0.0
 10
3.649819
 20
3.690246
 30
0.0
 10
4.311450
 20
3.925083
 30
0.0
 10
4.913634
 20
3.645063
 30
0.0
 10
5.233332
 20
2.660587
 30
0.0
 10
5.196121
 20
2.209144
 30
0.0
  0
LWPOLYLINE
  5
120
100
AcDbEntity
  8
L
 62
7
100
AcDbPolyline
 90
12
 70
0
 10
2.110777
 20
4.791844
 30
0.0
 10
1.597763
 20
5.640741
 30
0.0
 10
1.084750
 20
5.424107
 30
0.0
 10
0.765052
 20
4.647431
 30
0.0
 10
0.872715
 20
4.146233
 30
0.0
 10
1.203644
 20
3.942976
 30
0.0
 10
1.549321
 20
4.101049
 30
0.0
 10
1.679446
 20
4.511852
 30
0.0
 10
1.337513
 20
4.855260
 30
0.0
 10
1.566088
 20
5.004104
 30
0.0
 10
1.798340
 20
5.044857
 30
0.0
 10
2.110777
 20
4.791844
 30
0.0
  0
LWPOLYLINE
  5
121
100
AcDbEntity
  8
M
 62
7
100
AcDbPolyline
 90
80
 70
0
 10
6.443478
 20
0.148353
 30
0.0
 10
5.989911
 20
-0.790911
 30
0.0
 10
5.224134
 20
-1.097940
 30
0.0
 10
4.101448
 20
0.094082
 30
0.0
 10
3.603410
 20
-0.348273
 30
0.0
 10
3.023462
 20
0.464499
 30
0.0
 10
3.328184
 20
0.229661
 30
0.0
 10
3.711186
 20
0.609053
 30
0.0
 10
3.952831
 20
1.539088
 30
0.0
 10
3.982554
 20
2.171322
 30
0.0
 10
3.908132
 20
3.742848
 30
0.0
 10
3.491777
 20
2.839681
 30
0.0
 10
3.001226
 20
1.593387
 30
0.0
 10
2.971275
 20
1.367666
 30
0.0
 10
3.224436
 20
1.087165
 30
0.0
 10
3.380370
 20
1.033205
 30
0.0
 10
2.874617
 20
0.762271
 30
0.0
 10
2.436026
 20
1.096592
 30
0.0
 10
2.146051
 20
2.297701
 30
0.0
 10
1.997434
 20
3.868917
 30
0.0
 10
1.595826
 20
1.954547
 30
0.0
 10
1.670249
 20
1.250092
 30
0.0
 10
1.714947
 20
0.753466
 30
0.0
 10
1.488164
 20
0.297197
 30
0.0
 10
1.008617
 20
0.112116
 30
0.0
 10
0.755854
 20
0.428233
 30
0.0
 10
1.023366
 20
0.274732
 30
0.0
 10
1.283616
 20
0.644867
 30
0.0
 10
0.859773
 20
1.033205
 30
0.0
 10
0.346873
 20
0.870729
 30
0.0
 10
-0.225702
 20
0.708254
 30
0.0
 10
-0.783187
 20
1.340234
 30
0.0
 10
-0.336539
 20
1.854584
 30
0.0
 10
-0.448552
 20
1.540104
 30
0.0
 10
-0.597359
 20
1.412709
 30
0.0
 10
-0.314872
 20
1.141775
 30
0.0
 10
0.220378
 20
1.629343
 30
0.0
 10
0.740879
 20
2.929935
 30
0.0
 10
0.027062
 20
2.695127
 30
0.0
 10
-0.671781
 20
3.137453
 30
0.0
 10
-0.887333
 20
4.022728
 30
0.0
 10
-0.865097
 20
4.347651
 30
0.0
 10
-0.366831
 20
5.557848
 30
0.0
 10
0.859773
 20
6.171907
 30
0.0
 10
1.514144
 20
6.086196
 30
0.0
 10
2.049393
 20
6.000485
 30
0.0
 10
2.450887
 20
6.108802
 30
0.0
 10
2.666553
 20
6.361532
 30
0.0
 10
2.510239
 20
6.606134
 30
0.0
 10
2.287408
 20
6.578476
 30
0.0
 10
2.636829
 20
6.777189
 30
0.0
 10
2.911828
 20
6.298455
 30
0.0
 10
2.897079
 20
6.045725
 30
0.0
 10
2.785446
 20
4.456024
 30
0.0
 10
2.889592
 20
3.345338
 30
0.0
 10
3.246500
 20
4.085889
 30
0.0
 10
3.677604
 20
5.476596
 30
0.0
 10
3.692579
 20
5.729608
 30
0.0
 10
3.477216
 20
6.073439
 30
0.0
 10
3.305549
 20
5.892196
 30
0.0
 10
3.298458
 20
5.684424
 30
0.0
 10
3.187052
 20
5.955329
 30
0.0
 10
3.833935
 20
6.569389
 30
0.0
 10
4.298506
 20
6.492624
 30
0.0
 10
4.592224
 20
6.415860
 30
0.0
 10
4.945389
 20
6.564845
 30
0.0
 10
5.046151
 20
6.894565
 30
0.0
 10
4.926670
 20
7.210739
 30
0.0
 10
5.224131
 20
6.759014
 30
0.0
 10
5.045791
 20
5.878565
 30
0.0
 10
4.830012
 20
4.645931
 30
0.0
 10
4.755816
 20
3.173634
 30
0.0
 10
5.085529
 20
1.457836
 30
0.0
 10
5.707422
 20
0.428289
 30
0.0
 10
6.116403
 20
0.532204
 30
0.0
 10
6.257647
 20
0.861839
 30
0.0
 10
6.168476
 20
1.250149
 30
0.0
 10
6.465711
 20
0.482307
 30
0.0
 10
6.443476
 20
0.148269
 30
0.0
 10
6.443478
 20
0.148353
 30
0.0
  0
LWPOLYLINE
  5
122
100
AcDbEntity
  8
M
 62
7
100
AcDbPolyline
 90
13
 70
0
 10
1.305852
 20
4.880825
 30
0.0
 10
1.313340
 20
5.043159
 30
0.0
 10
0.666457
 20
5.567076
 30
0.0
 10
0.079248
 20
5.368364
 30
0.0
 10
-0.277661
 20
4.600804
 30
0.0
 10
-0.166141
 20
4.104036
 30
0.0
 10
0.183167
 20
3.896349
 30
0.0
 10
0.547563
 20
4.049878
 30
0.0
 10
0.688920
 20
4.456109
 30
0.0
 10
0.324523
 20
4.799517
 30
0.0
 10
0.800326
 20
4.989142
 30
0.0
 10
1.224169
 20
4.537417
 30
0.0
 10
1.305852
 20
4.880825
 30
0.0
  0
LWPOLYLINE
  5
123
100
AcDbEntity
  8
N
 62
7
100
AcDbPolyline
 90
61
 70
0
 10
5.604231
 20
7.137486
 30
0.0
 10
4.593179
 20
2.025792
 30
0.0
 10
4.526244
 20
1.023396
 30
0.0
 10
4.994559
 20
-0.168880
 30
0.0
 10
5.358956
 20
-0.042360
 30
0.0
 10
5.164190
 20
-0.286031
 30
0.0
 10
4.764259
 20
-0.394602
 30
0.0
 10
3.797678
 20
0.273757
 30
0.0
 10
3.277177
 20
-0.024185
 30
0.0
 10
2.912781
 20
0.102984
 30
0.0
 10
3.061625
 20
0.201452
 30
0.0
 10
3.373835
 20
0.400164
 30
0.0
 10
3.507704
 20
0.824598
 30
0.0
 10
3.396071
 20
1.501790
 30
0.0
 10
3.091348
 20
2.423133
 30
0.0
 10
2.429490
 20
3.813840
 30
0.0
 10
2.251149
 20
2.793268
 30
0.0
 10
2.228913
 20
2.395842
 30
0.0
 10
2.310596
 20
1.655573
 30
0.0
 10
2.585822
 20
1.294244
 30
0.0
 10
2.771651
 20
1.501790
 30
0.0
 10
2.697229
 20
1.826995
 30
0.0
 10
2.928938
 20
1.576212
 30
0.0
 10
2.964967
 20
1.294244
 30
0.0
 10
2.771651
 20
0.860723
 30
0.0
 10
2.370043
 20
0.698106
 30
0.0
 10
1.875748
 20
0.865266
 30
0.0
 10
1.485372
 20
1.032427
 30
0.0
 10
1.120976
 20
0.779414
 30
0.0
 10
1.299544
 20
0.553693
 30
0.0
 10
1.433603
 20
0.473175
 30
0.0
 10
1.031806
 20
0.273757
 30
0.0
 10
0.645173
 20
0.734287
 30
0.0
 10
0.942635
 20
1.538254
 30
0.0
 10
1.470397
 20
3.073373
 30
0.0
 10
0.845977
 20
2.685035
 30
0.0
 10
0.221330
 20
2.874660
 30
0.0
 10
-0.165302
 20
3.877057
 30
0.0
 10
-0.142839
 20
4.202262
 30
0.0
 10
0.181775
 20
5.203135
 30
0.0
 10
0.771555
 20
5.809884
 30
0.0
 10
1.686176
 20
6.143923
 30
0.0
 10
2.035597
 20
6.116829
 30
0.0
 10
2.377531
 20
6.595563
 30
0.0
 10
2.860821
 20
6.739976
 30
0.0
 10
3.150795
 20
6.532176
 30
0.0
 10
2.913178
 20
6.568526
 30
0.0
 10
2.764163
 20
6.478158
 30
0.0
 10
2.622806
 20
6.107742
 30
0.0
 10
3.068886
 20
4.554419
 30
0.0
 10
3.752980
 20
3.335106
 30
0.0
 10
3.886849
 20
4.419093
 30
0.0
 10
3.916572
 20
4.933641
 30
0.0
 10
3.529940
 20
5.909029
 30
0.0
 10
3.306900
 20
5.602000
 30
0.0
 10
3.262978
 20
5.178017
 30
0.0
 10
3.083861
 20
5.981222
 30
0.0
 10
3.767955
 20
6.667755
 30
0.0
 10
4.325440
 20
6.080733
 30
0.0
 10
5.604231
 20
7.137401
 30
0.0
 10
5.604231
 20
7.137486
 30
0.0
  0
LWPOLYLINE
  5
124
100
AcDbEntity
  8
N
 62
7
100
AcDbPolyline
 90
13
 70
0
 10
1.648965
 20
4.410062
 30
0.0
 10
1.663713
 20
4.789312
 30
0.0
 10
1.344016
 20
5.466759
 30
0.0
 10
0.760437
 20
5.114517
 30
0.0
 10
0.511304
 20
4.346675
 30
0.0
 10
0.950123
 20
3.759653
 30
0.0
 10
1.236353
 20
3.904207
 30
0.0
 10
1.388714
 20
4.202262
 30
0.0
 10
1.217445
 20
4.410542
 30
0.0
 10
0.905424
 20
4.310579
 30
0.0
 10
1.088002
 20
4.557834
 30
0.0
 10
1.306805
 20
4.635784
 30
0.0
 10
1.648965
 20
4.410062
 30
0.0
  0
LWPOLYLINE
  5
125
100
AcDbEntity
  8
O
 62
7
100
AcDbPolyline
 90
22
 70
0
 10
5.043293
 20
3.000447
 30
0.0
 10
4.707627
 20
1.835998
 30
0.0
 10
4.158395
 20
1.094882
 30
0.0
 10
2.782946
 20
0.489939
 30
0.0
 10
1.719934
 20
0.977478
 30
0.0
 10
1.117523
 20
2.621197
 30
0.0
 10
0.299787
 20
2.251062
 30
0.0
 10
-0.376819
 20
2.612250
 30
0.0
 10
-0.644558
 20
3.569576
 30
0.0
 10
-0.614834
 20
3.966719
 30
0.0
 10
0.143682
 20
5.321471
 30
0.0
 10
1.563602
 20
5.890459
 30
0.0
 10
2.084104
 20
5.809151
 30
0.0
 10
3.005986
 20
6.477509
 30
0.0
 10
3.705055
 20
6.685310
 30
0.0
 10
4.582238
 20
6.450501
 30
0.0
 10
4.925778
 20
6.025276
 30
0.0
 10
5.021057
 20
5.511237
 30
0.0
 10
4.998594
 20
5.231216
 30
0.0
 10
4.753319
 20
4.626244
 30
0.0
 10
5.065529
 20
3.388785
 30
0.0
 10
5.043293
 20
3.000447
 30
0.0
  0
LWPOLYLINE
  5
126
100
AcDbEntity
  8
O
 62
7
100
AcDbPolyline
 90
6
 70
0
 10
4.009778
 20
5.466025
 30
0.0
 10
3.935469
 20
5.777598
 30
0.0
 10
3.623145
 20
5.890459
 30
0.0
 10
2.805409
 20
5.366542
 30
0.0
 10
3.496764
 20
4.996407
 30
0.0
 10
4.009778
 20
5.466025
 30
0.0
  0
LWPOLYLINE
  5
127
100
AcDbEntity
  8
O
 62
7
100
AcDbPolyline
 90
16
 70
0
 10
4.039501
 20
3.298643
 30
0.0
 10
3.705055
 20
3.876606
 30
0.0
 10
3.493020
 20
3.772692
 30
0.0
 10
3.370382
 20
3.542285
 30
0.0
 10
3.400106
 20
3.235256
 30
0.0
 10
3.196607
 20
3.404589
 30
0.0
 10
3.132367
 20
3.677893
 30
0.0
 10
3.214277
 20
4.084124
 30
0.0
 10
2.816527
 20
4.386751
 30
0.0
 10
2.418777
 20
4.806782
 30
0.0
 10
2.121315
 20
3.840481
 30
0.0
 10
2.084104
 20
3.316564
 30
0.0
 10
2.418777
 20
2.196763
 30
0.0
 10
2.991238
 20
1.916742
 30
0.0
 10
3.734779
 20
2.359379
 30
0.0
 10
4.039501
 20
3.298643
 30
0.0
  0
LWPOLYLINE
  5
128
100
AcDbEntity
  8
O
 62
7
100
AcDbPolyline
 90
14
 70
0
 10
1.704959
 20
5.294321
 30
0.0
 10
1.504156
 20
5.330417
 30
0.0
 10
0.574786
 20
5.032503
 30
0.0
 10
0.047024
 20
4.165432
 30
0.0
 10
0.032049
 20
3.984923
 30
0.0
 10
0.381470
 20
3.560489
 30
0.0
 10
0.716143
 20
3.709446
 30
0.0
 10
0.901971
 20
4.075318
 30
0.0
 10
0.738379
 20
4.481549
 30
0.0
 10
0.530314
 20
4.517674
 30
0.0
 10
0.788938
 20
4.649556
 30
0.0
 10
1.050589
 20
4.689378
 30
0.0
 10
1.348050
 20
4.526761
 30
0.0
 10
1.704959
 20
5.294321
 30
0.0
  0
LWPOLYLINE
  5
129
100
AcDbEntity
  8
P
 62
7
100
AcDbPolyline
 90
47
 70
0
 10
5.212043
 20
5.396372
 30
0.0
 10
5.264229
 20
4.872427
 30
0.0
 10
4.743728
 20
3.138595
 30
0.0
 10
3.383028
 20
2.361665
 30
0.0
 10
2.766095
 20
2.768178
 30
0.0
 10
2.691673
 20
1.675385
 30
0.0
 10
3.056069
 20
0.772218
 30
0.0
 10
3.226923
 20
0.916913
 30
0.0
 10
3.137752
 20
1.187846
 30
0.0
 10
3.174963
 20
1.250895
 30
0.0
 10
3.368279
 20
1.088278
 30
0.0
 10
3.457450
 20
0.772161
 30
0.0
 10
2.855266
 20
0.275535
 30
0.0
 10
2.290179
 20
0.510344
 30
0.0
 10
1.799514
 20
0.745153
 30
0.0
 10
1.435118
 20
0.636836
 30
0.0
 10
1.279013
 20
0.429036
 30
0.0
 10
1.390646
 20
0.239410
 30
0.0
 10
1.613686
 20
0.338640
 30
0.0
 10
1.658158
 20
0.293710
 30
0.0
 10
1.561500
 20
0.158102
 30
0.0
 10
1.301249
 20
-0.013602
 30
0.0
 10
0.974291
 20
0.049814
 30
0.0
 10
0.810698
 20
0.429036
 30
0.0
 10
1.130396
 20
0.961786
 30
0.0
 10
1.609942
 20
1.639233
 30
0.0
 10
1.903660
 20
3.002930
 30
0.0
 10
0.884893
 20
2.379784
 30
0.0
 10
0.186051
 20
2.822421
 30
0.0
 10
-0.022014
 20
3.716473
 30
0.0
 10
-0.007265
 20
4.032618
 30
0.0
 10
0.491000
 20
5.260708
 30
0.0
 10
1.673133
 20
5.929067
 30
0.0
 10
1.948132
 20
5.901974
 30
0.0
 10
1.881197
 20
6.317320
 30
0.0
 10
2.074514
 20
6.687454
 30
0.0
 10
2.371975
 20
6.796025
 30
0.0
 10
2.684185
 20
6.588225
 30
0.0
 10
2.520593
 20
6.561132
 30
0.0
 10
2.320016
 20
6.281111
 30
0.0
 10
2.409186
 20
6.019011
 30
0.0
 10
2.661949
 20
6.001231
 30
0.0
 10
3.226923
 20
6.150216
 30
0.0
 10
4.037398
 20
6.317376
 30
0.0
 10
4.788313
 20
6.096058
 30
0.0
 10
5.212043
 20
5.396288
 30
0.0
 10
5.212043
 20
5.396372
 30
0.0
  0
LWPOLYLINE
  5
12a
100
AcDbEntity
  8
P
 62
7
100
AcDbPolyline
 90
13
 70
0
 10
4.305137
 20
5.089061
 30
0.0
 10
3.903529
 20
5.594803
 30
0.0
 10
2.899737
 20
4.041480
 30
0.0
 10
2.907226
 20
4.050511
 30
0.0
 10
2.959015
 20
3.987801
 30
0.0
 10
3.133249
 20
4.269657
 30
0.0
 10
3.442476
 20
4.366572
 30
0.0
 10
3.241899
 20
3.987322
 30
0.0
 10
3.290115
 20
3.720819
 30
0.0
 10
3.464939
 20
3.607817
 30
0.0
 10
4.059635
 20
4.109129
 30
0.0
 10
4.305138
 20
5.088920
 30
0.0
 10
4.305137
 20
5.089061
 30
0.0
  0
LWPOLYLINE
  5
12b
100
AcDbEntity
  8
P
 62
7
100
AcDbPolyline
 90
12
 70
0
 10
1.992831
 20
4.429818
 30
0.0
 10
1.450093
 20
5.278968
 30
0.0
 10
0.922104
 20
5.062052
 30
0.0
 10
0.587658
 20
4.285405
 30
0.0
 10
0.699178
 20
3.788609
 30
0.0
 10
1.048486
 20
3.580950
 30
0.0
 10
1.405395
 20
3.734450
 30
0.0
 10
1.546751
 20
4.150079
 30
0.0
 10
1.182355
 20
4.493205
 30
0.0
 10
1.434994
 20
4.642077
 30
0.0
 10
1.665645
 20
4.682830
 30
0.0
 10
1.992831
 20
4.429818
 30
0.0
  0
LWPOLYLINE
  5
12c
100
AcDbEntity
  8
Q
 62
7
100
AcDbPolyline
 90
34
 70
0
 10
5.438928
 20
0.805322
 30
0.0
 10
4.762322
 20
-0.332400
 30
0.0
 10
3.922123
 20
-0.513192
 30
0.0
 10
3.178809
 20
-0.124854
 30
0.0
 10
2.658307
 20
0.507380
 30
0.0
 10
2.063384
 20
0.832613
 30
0.0
 10
1.565345
 20
0.380888
 30
0.0
 10
1.721450
 20
-0.034458
 30
0.0
 10
1.290346
 20
0.697006
 30
0.0
 10
1.524504
 20
1.216379
 30
0.0
 10
2.018912
 20
1.509777
 30
0.0
 10
1.490923
 20
1.925378
 30
0.0
 10
1.148989
 20
2.756071
 30
0.0
 10
0.264318
 20
2.322803
 30
0.0
 10
-0.416145
 20
2.683991
 30
0.0
 10
-0.687514
 20
3.650151
 30
0.0
 10
-0.657790
 20
4.038460
 30
0.0
 10
0.104356
 20
5.393212
 30
0.0
 10
1.528134
 20
5.962200
 30
0.0
 10
2.048635
 20
5.880920
 30
0.0
 10
2.963030
 20
6.540163
 30
0.0
 10
3.669360
 20
6.757079
 30
0.0
 10
4.643428
 20
6.522242
 30
0.0
 10
5.119231
 20
5.528678
 30
0.0
 10
4.978101
 20
4.878523
 30
0.0
 10
5.134206
 20
3.921056
 30
0.0
 10
4.390665
 20
2.033695
 30
0.0
 10
3.357149
 20
1.347443
 30
0.0
 10
4.301494
 20
0.733102
 30
0.0
 10
4.858980
 20
1.329240
 30
0.0
 10
4.873954
 20
1.482769
 30
0.0
 10
4.613704
 20
2.096828
 30
0.0
 10
5.453903
 20
1.049219
 30
0.0
 10
5.438928
 20
0.805322
 30
0.0
  0
LWPOLYLINE
  5
12d
100
AcDbEntity
  8
Q
 62
7
100
AcDbPolyline
 90
7
 70
0
 10
3.974309
 20
5.537766
 30
0.0
 10
3.899887
 20
5.849339
 30
0.0
 10
3.587677
 20
5.962200
 30
0.0
 10
2.762453
 20
5.438282
 30
0.0
 10
3.096899
 20
5.185552
 30
0.0
 10
3.461295
 20
5.068148
 30
0.0
 10
3.974309
 20
5.537766
 30
0.0
  0
LWPOLYLINE
  5
12e
100
AcDbEntity
  8
Q
 62
7
100
AcDbPolyline
 90
10
 70
0
 10
4.249308
 20
3.894047
 30
0.0
 10
4.241820
 20
4.183156
 30
0.0
 10
3.587676
 20
4.056664
 30
0.0
 10
2.814411
 20
4.399789
 30
0.0
 10
2.279162
 20
4.977752
 30
0.0
 10
1.959464
 20
3.686247
 30
0.0
 10
2.234576
 20
2.841923
 30
0.0
 10
2.918557
 20
2.530349
 30
0.0
 10
3.855414
 20
2.972987
 30
0.0
 10
4.249308
 20
3.894047
 30
0.0
  0
LWPOLYLINE
  5
12f
100
AcDbEntity
  8
Q
 62
7
100
AcDbPolyline
 90
13
 70
0
 10
1.669491
 20
5.366062
 30
0.0
 10
1.468687
 20
5.402186
 30
0.0
 10
0.539317
 20
5.104244
 30
0.0
 10
0.011555
 20
4.237173
 30
0.0
 10
-0.003420
 20
4.056664
 30
0.0
 10
0.346001
 20
3.632230
 30
0.0
 10
0.680561
 20
3.781186
 30
0.0
 10
0.866503
 20
4.147059
 30
0.0
 10
0.702910
 20
4.553318
 30
0.0
 10
0.494619
 20
4.589414
 30
0.0
 10
1.015120
 20
4.761118
 30
0.0
 10
1.312582
 20
4.598502
 30
0.0
 10
1.669491
 20
5.366062
 30
0.0
  0
LWPOLYLINE
  5
130
100
AcDbEntity
  8
R
 62
7
100
AcDbPolyline
 90
53
 70
0
 10
6.310182
 20
-0.736349
 30
0.0
 10
5.953273
 20
-1.494821
 30
0.0
 10
5.313878
 20
-1.738746
 30
0.0
 10
4.310313
 20
-1.070387
 30
0.0
 10
3.715390
 20
0.492023
 30
0.0
 10
3.306521
 20
0.166819
 30
0.0
 10
2.919889
 20
0.473848
 30
0.0
 10
3.537049
 20
1.096995
 30
0.0
 10
3.551798
 20
1.413112
 30
0.0
 10
3.399436
 20
2.338886
 30
0.0
 10
2.994312
 20
3.011647
 30
0.0
 10
2.912402
 20
2.271068
 30
0.0
 10
3.299035
 20
1.223487
 30
0.0
 10
2.421624
 20
1.015687
 30
0.0
 10
1.752506
 20
0.564244
 30
0.0
 10
1.254467
 20
0.311514
 30
0.0
 10
0.771177
 20
0.889449
 30
0.0
 10
0.968237
 20
1.345463
 30
0.0
 10
1.351125
 20
1.584816
 30
0.0
 10
1.246979
 20
1.422679
 30
0.0
 10
1.120598
 20
1.196478
 30
0.0
 10
1.276703
 20
1.015687
 30
0.0
 10
1.730270
 20
1.503508
 30
0.0
 10
2.161601
 20
3.056831
 30
0.0
 10
1.150321
 20
2.433684
 30
0.0
 10
0.451479
 20
2.876321
 30
0.0
 10
0.243188
 20
3.779207
 30
0.0
 10
0.258163
 20
4.086519
 30
0.0
 10
0.741453
 20
5.269425
 30
0.0
 10
1.916098
 20
5.901659
 30
0.0
 10
2.198585
 20
5.874566
 30
0.0
 10
2.131877
 20
6.280796
 30
0.0
 10
2.332454
 20
6.651213
 30
0.0
 10
2.629916
 20
6.759530
 30
0.0
 10
2.934638
 20
6.551730
 30
0.0
 10
2.771272
 20
6.524636
 30
0.0
 10
2.577956
 20
6.253703
 30
0.0
 10
2.964589
 20
5.892402
 30
0.0
 10
3.615102
 20
6.073053
 30
0.0
 10
4.421720
 20
6.280712
 30
0.0
 10
5.191241
 20
6.073053
 30
0.0
 10
5.455235
 20
5.332643
 30
0.0
 10
4.979433
 20
4.149454
 30
0.0
 10
3.871495
 20
3.354603
 30
0.0
 10
4.540614
 20
2.957460
 30
0.0
 10
4.369761
 20
1.837377
 30
0.0
 10
4.585313
 20
0.347441
 30
0.0
 10
5.469984
 20
-0.510515
 30
0.0
 10
5.797358
 20
-0.301585
 30
0.0
 10
5.529658
 20
0.230037
 30
0.0
 10
6.317670
 20
-0.564814
 30
0.0
 10
6.310182
 20
-0.736518
 30
0.0
 10
6.310182
 20
-0.736349
 30
0.0
  0
LWPOLYLINE
  5
131
100
AcDbEntity
  8
R
 62
7
100
AcDbPolyline
 90
14
 70
0
 10
4.436695
 20
5.124983
 30
0.0
 10
4.183705
 20
5.468137
 30
0.0
 10
4.094534
 20
5.459106
 30
0.0
 10
3.373456
 20
4.953364
 30
0.0
 10
3.105718
 20
3.960083
 30
0.0
 10
3.633707
 20
4.149708
 30
0.0
 10
3.440390
 20
4.447650
 30
0.0
 10
3.640967
 20
4.845075
 30
0.0
 10
4.027600
 20
4.971567
 30
0.0
 10
3.819535
 20
4.682459
 30
0.0
 10
3.953404
 20
4.447650
 30
0.0
 10
4.235891
 20
4.610238
 30
0.0
 10
4.436695
 20
5.125068
 30
0.0
 10
4.436695
 20
5.124983
 30
0.0
  0
LWPOLYLINE
  5
132
100
AcDbEntity
  8
R
 62
7
100
AcDbPolyline
 90
11
 70
0
 10
2.250770
 20
4.483662
 30
0.0
 10
1.708033
 20
5.332812
 30
0.0
 10
1.180044
 20
5.115896
 30
0.0
 10
0.845598
 20
4.339249
 30
0.0
 10
0.957118
 20
3.842453
 30
0.0
 10
1.306426
 20
3.634794
 30
0.0
 10
1.670822
 20
3.783751
 30
0.0
 10
1.812179
 20
4.194807
 30
0.0
 10
1.447782
 20
4.547049
 30
0.0
 10
1.923585
 20
4.736674
 30
0.0
 10
2.250770
 20
4.483662
 30
0.0
  0
LWPOLYLINE
  5
133
100
AcDbEntity
  8
S
 62
7
100
AcDbPolyline
 90
73
 70
0
 10
5.027784
 20
6.389190
 30
0.0
 10
4.882797
 20
5.933062
 30
0.0
 10
4.499795
 20
5.783964
 30
0.0
 10
4.328715
 20
5.269417
 30
0.0
 10
3.600149
 20
4.889884
 30
0.0
 10
3.072387
 20
5.061588
 30
0.0
 10
3.659596
 20
4.366249
 30
0.0
 10
4.388162
 20
3.499178
 30
0.0
 10
4.745070
 20
2.271060
 30
0.0
 10
4.730321
 20
1.991067
 30
0.0
 10
4.195071
 20
0.735658
 30
0.0
 10
3.377108
 20
0.103424
 30
0.0
 10
2.901306
 20
-0.519723
 30
0.0
 10
3.079457
 20
-0.519723
 30
0.0
 10
3.421807
 20
-0.392074
 30
0.0
 10
2.574120
 20
-1.096529
 30
0.0
 10
2.165252
 20
-0.699103
 30
0.0
 10
2.700502
 20
-0.048948
 30
0.0
 10
2.328845
 20
-0.066728
 30
0.0
 10
1.533344
 20
0.231186
 30
0.0
 10
0.938421
 20
1.450470
 30
0.0
 10
0.953396
 20
1.694113
 30
0.0
 10
1.325053
 20
2.606368
 30
0.0
 10
1.681962
 20
3.410052
 30
0.0
 10
1.510882
 20
3.744373
 30
0.0
 10
1.220907
 20
3.509535
 30
0.0
 10
1.146712
 20
3.085101
 30
0.0
 10
1.064802
 20
3.545660
 30
0.0
 10
1.265606
 20
4.015278
 30
0.0
 10
1.793368
 20
4.240999
 30
0.0
 10
2.198719
 20
4.051374
 30
0.0
 10
2.306382
 20
3.617852
 30
0.0
 10
2.165252
 20
3.274727
 30
0.0
 10
2.767436
 20
3.428227
 30
0.0
 10
3.265702
 20
3.211622
 30
0.0
 10
3.510977
 20
2.543263
 30
0.0
 10
3.503489
 20
2.380647
 30
0.0
 10
2.759948
 20
1.576708
 30
0.0
 10
2.462713
 20
1.689710
 30
0.0
 10
2.306381
 20
2.010230
 30
0.0
 10
2.611331
 20
1.938037
 30
0.0
 10
2.916053
 20
2.326347
 30
0.0
 10
2.603843
 20
2.705597
 30
0.0
 10
2.202463
 20
2.543263
 30
0.0
 10
1.927237
 20
1.892825
 30
0.0
 10
2.165251
 20
1.305775
 30
0.0
 10
2.745200
 20
1.179565
 30
0.0
 10
3.447786
 20
1.599455
 30
0.0
 10
3.726529
 20
2.515972
 30
0.0
 10
3.325148
 20
3.464352
 30
0.0
 10
2.581607
 20
4.259202
 30
0.0
 10
2.180000
 20
5.324704
 30
0.0
 10
2.224698
 20
5.722129
 30
0.0
 10
2.135528
 20
5.731161
 30
0.0
 10
1.715428
 20
5.573088
 30
0.0
 10
1.510881
 20
5.180206
 30
0.0
 10
1.815812
 20
4.890449
 30
0.0
 10
2.135528
 20
4.972406
 30
0.0
 10
1.384499
 20
4.403559
 30
0.0
 10
0.864111
 20
4.624878
 30
0.0
 10
0.678169
 20
5.225418
 30
0.0
 10
0.693145
 20
5.424131
 30
0.0
 10
1.102013
 20
6.223243
 30
0.0
 10
1.897513
 20
6.543932
 30
0.0
 10
2.529421
 20
6.300008
 30
0.0
 10
3.525725
 20
6.751733
 30
0.0
 10
4.187583
 20
6.516924
 30
0.0
 10
4.551753
 20
6.282087
 30
0.0
 10
4.737808
 20
6.453537
 30
0.0
 10
4.626175
 20
6.742645
 30
0.0
 10
4.819491
 20
6.625241
 30
0.0
 10
5.027782
 20
6.390403
 30
0.0
 10
5.027784
 20
6.389190
 30
0.0
  0
LWPOLYLINE
  5
134
100
AcDbEntity
  8
S
 62
7
100
AcDbPolyline
 90
5
 70
0
 10
3.927334
 20
5.756956
 30
0.0
 10
3.600149
 20
6.054898
 30
0.0
 10
3.102110
 20
5.766043
 30
0.0
 10
3.637360
 20
5.459014
 30
0.0
 10
3.927334
 20
5.756956
 30
0.0
  0
LWPOLYLINE
  5
135
100
AcDbEntity
  8
T
 62
7
100
AcDbPolyline
 90
67
 70
0
 10
5.248478
 20
5.739047
 30
0.0
 10
4.930581
 20
5.144687
 30
0.0
 10
4.348832
 20
4.781580
 30
0.0
 10
4.490188
 20
4.330137
 30
0.0
 10
4.289385
 20
3.987011
 30
0.0
 10
3.984662
 20
3.887528
 30
0.0
 10
3.627753
 20
4.158433
 30
0.0
 10
3.783859
 20
4.131340
 30
0.0
 10
4.051597
 20
4.420194
 30
0.0
 10
3.902753
 20
4.772407
 30
0.0
 10
3.560819
 20
4.817619
 30
0.0
 10
3.144463
 20
1.945782
 30
0.0
 10
3.300568
 20
1.169107
 30
0.0
 10
3.612778
 20
0.934298
 30
0.0
 10
3.821070
 20
1.106002
 30
0.0
 10
3.798037
 20
1.367820
 30
0.0
 10
4.088012
 20
0.925210
 30
0.0
 10
3.992149
 20
0.807806
 30
0.0
 10
3.501371
 20
0.365451
 30
0.0
 10
2.884212
 20
0.586628
 30
0.0
 10
2.326726
 20
0.807806
 30
0.0
 10
1.887907
 20
0.401547
 30
0.0
 10
2.133581
 20
0.102871
 30
0.0
 10
2.475343
 20
0.347248
 30
0.0
 10
2.230054
 20
-0.130075
 30
0.0
 10
1.880420
 20
-0.311995
 30
0.0
 10
1.278236
 20
0.320239
 30
0.0
 10
1.285723
 20
0.473768
 30
0.0
 10
1.583185
 20
1.232240
 30
0.0
 10
2.066475
 20
2.008887
 30
0.0
 10
2.441876
 20
3.309480
 30
0.0
 10
2.534790
 20
4.555774
 30
0.0
 10
2.482831
 20
5.079437
 30
0.0
 10
1.494015
 20
5.404670
 30
0.0
 10
0.914066
 20
5.142824
 30
0.0
 10
0.549670
 20
4.510590
 30
0.0
 10
0.527434
 20
4.248744
 30
0.0
 10
1.017985
 20
3.661722
 30
0.0
 10
1.389755
 20
3.864837
 30
0.0
 10
1.583185
 20
4.275781
 30
0.0
 10
1.352658
 20
4.582782
 30
0.0
 10
1.047708
 20
4.393185
 30
0.0
 10
1.214219
 20
4.740178
 30
0.0
 10
1.709567
 20
5.025420
 30
0.0
 10
2.289515
 20
4.230569
 30
0.0
 10
2.274540
 20
4.004848
 30
0.0
 10
1.910370
 20
3.228172
 30
0.0
 10
1.010724
 20
2.785563
 30
0.0
 10
0.274671
 20
3.182988
 30
0.0
 10
0.051631
 20
4.040944
 30
0.0
 10
0.225575
 20
5.033802
 30
0.0
 10
0.624092
 20
5.648566
 30
0.0
 10
1.315632
 20
6.199238
 30
0.0
 10
1.947355
 20
6.380030
 30
0.0
 10
2.185369
 20
6.389061
 30
0.0
 10
3.159324
 20
6.149708
 30
0.0
 10
3.850792
 20
5.919443
 30
0.0
 10
4.363806
 20
6.280744
 30
0.0
 10
4.296872
 20
6.470369
 30
0.0
 10
4.155515
 20
6.479400
 30
0.0
 10
3.880516
 20
6.325617
 30
0.0
 10
4.117019
 20
6.631800
 30
0.0
 10
4.579358
 20
6.804351
 30
0.0
 10
5.084884
 20
6.596692
 30
0.0
 10
5.278200
 20
6.018588
 30
0.0
 10
5.248477
 20
5.738849
 30
0.0
 10
5.248478
 20
5.739047
 30
0.0
  0
LWPOLYLINE
  5
136
100
AcDbEntity
  8
U
 62
7
100
AcDbPolyline
 90
43
 70
0
 10
5.554897
 20
6.732814
 30
0.0
 10
4.922989
 20
4.962604
 30
0.0
 10
4.595804
 20
2.433893
 30
0.0
 10
5.071606
 20
1.295916
 30
0.0
 10
5.472987
 20
1.530725
 30
0.0
 10
5.212663
 20
0.993656
 30
0.0
 10
4.469422
 20
0.501320
 30
0.0
 10
3.896961
 20
0.853561
 30
0.0
 10
3.725881
 20
1.512804
 30
0.0
 10
3.755605
 20
1.756729
 30
0.0
 10
3.413671
 20
1.196687
 30
0.0
 10
2.395131
 20
0.564453
 30
0.0
 10
1.465762
 20
0.907578
 30
0.0
 10
1.220259
 20
1.702429
 30
0.0
 10
1.324405
 20
2.632605
 30
0.0
 10
1.510233
 20
3.445377
 30
0.0
 10
0.365312
 20
2.822230
 30
0.0
 10
-0.497123
 20
4.086699
 30
0.0
 10
-0.467400
 20
4.565178
 30
0.0
 10
0.171996
 20
5.793551
 30
0.0
 10
1.071642
 20
6.199781
 30
0.0
 10
2.097669
 20
5.856656
 30
0.0
 10
2.402392
 20
6.281090
 30
0.0
 10
2.917922
 20
6.623905
 30
0.0
 10
3.473118
 20
6.732814
 30
0.0
 10
3.123697
 20
6.100580
 30
0.0
 10
2.514025
 20
3.788503
 30
0.0
 10
2.402392
 20
2.686905
 30
0.0
 10
2.670130
 20
2.108942
 30
0.0
 10
3.190631
 20
2.515201
 30
0.0
 10
3.398696
 20
3.075243
 30
0.0
 10
3.361485
 20
3.440974
 30
0.0
 10
3.175656
 20
3.590072
 30
0.0
 10
2.811487
 20
3.418368
 30
0.0
 10
2.997315
 20
3.905907
 30
0.0
 10
3.368972
 20
4.176841
 30
0.0
 10
3.718393
 20
3.924111
 30
0.0
 10
3.770580
 20
4.529054
 30
0.0
 10
3.376460
 20
5.802638
 30
0.0
 10
3.844775
 20
5.956167
 30
0.0
 10
4.313317
 20
5.730446
 30
0.0
 10
4.822065
 20
6.425728
 30
0.0
 10
5.554897
 20
6.732814
 30
0.0
  0
LWPOLYLINE
  5
137
100
AcDbEntity
  8
U
 62
7
100
AcDbPolyline
 90
12
 70
0
 10
1.606891
 20
4.718961
 30
0.0
 10
1.480510
 20
5.355485
 30
0.0
 10
1.116114
 20
5.621847
 30
0.0
 10
0.484206
 20
5.341826
 30
0.0
 10
0.216467
 20
4.718961
 30
0.0
 10
0.287146
 20
4.280868
 30
0.0
 10
0.566116
 20
4.122823
 30
0.0
 10
1.108853
 20
4.601557
 30
0.0
 10
1.008451
 20
4.939998
 30
0.0
 10
0.677522
 20
5.053000
 30
0.0
 10
1.026943
 20
5.179492
 30
0.0
 10
1.606891
 20
4.718961
 30
0.0
  0
LWPOLYLINE
  5
138
100
AcDbEntity
  8
V
 62
7
100
AcDbPolyline
 90
71
 70
0
 10
5.037832
 20
5.011619
 30
0.0
 10
4.509843
 20
3.313883
 30
0.0
 10
3.729318
 20
2.121607
 30
0.0
 10
3.335198
 20
1.200518
 30
0.0
 10
3.632660
 20
0.803093
 30
0.0
 10
3.907772
 20
0.974656
 30
0.0
 10
4.026780
 20
1.336126
 30
0.0
 10
4.019291
 20
1.417434
 30
0.0
 10
4.019291
 20
1.426183
 30
0.0
 10
4.078737
 20
0.839133
 30
0.0
 10
3.889165
 20
0.446392
 30
0.0
 10
3.498789
 20
0.315498
 30
0.0
 10
2.970800
 20
0.622499
 30
0.0
 10
2.338892
 20
0.866424
 30
0.0
 10
1.989471
 20
0.550306
 30
0.0
 10
2.078755
 20
0.319900
 30
0.0
 10
2.301681
 20
0.234189
 30
0.0
 10
2.088658
 20
0.094433
 30
0.0
 10
1.811130
 20
0.044564
 30
0.0
 10
1.506294
 20
0.170943
 30
0.0
 10
1.394775
 20
0.478086
 30
0.0
 10
1.781407
 20
1.101120
 30
0.0
 10
2.197763
 20
1.706204
 30
0.0
 10
1.825879
 20
4.144491
 30
0.0
 10
1.533548
 20
5.135091
 30
0.0
 10
0.889021
 20
5.625622
 30
0.0
 10
0.353772
 20
5.418075
 30
0.0
 10
0.019326
 20
4.641428
 30
0.0
 10
0.134476
 20
4.144632
 30
0.0
 10
0.480153
 20
3.936973
 30
0.0
 10
0.840692
 20
4.090474
 30
0.0
 10
0.985680
 20
4.496733
 30
0.0
 10
0.621510
 20
4.840141
 30
0.0
 10
1.030378
 20
5.002475
 30
0.0
 10
1.442990
 20
4.749604
 30
0.0
 10
1.610327
 20
4.144491
 30
0.0
 10
1.216320
 20
3.110570
 30
0.0
 10
0.324048
 20
2.735864
 30
0.0
 10
-0.374794
 20
3.169413
 30
0.0
 10
-0.590346
 20
4.063465
 30
0.0
 10
-0.568110
 20
4.388416
 30
0.0
 10
-0.107056
 20
5.580692
 30
0.0
 10
0.428566
 20
6.060695
 30
0.0
 10
1.089825
 20
6.221760
 30
0.0
 10
1.792525
 20
6.117845
 30
0.0
 10
2.353867
 20
6.013959
 30
0.0
 10
2.747760
 20
6.303068
 30
0.0
 10
2.680939
 20
6.546823
 30
0.0
 10
2.487737
 20
6.714971
 30
0.0
 10
2.733012
 20
6.655281
 30
0.0
 10
3.164116
 20
6.113443
 30
0.0
 10
3.045222
 20
5.454200
 30
0.0
 10
2.874369
 20
4.749745
 30
0.0
 10
2.859394
 20
4.469724
 30
0.0
 10
3.156856
 20
2.898198
 30
0.0
 10
3.350172
 20
3.241606
 30
0.0
 10
3.736804
 20
4.180870
 30
0.0
 10
3.483814
 20
4.072299
 30
0.0
 10
3.242282
 20
4.271011
 30
0.0
 10
3.179092
 20
4.695445
 30
0.0
 10
3.344513
 20
5.138054
 30
0.0
 10
3.684618
 20
5.499384
 30
0.0
 10
3.483814
 20
5.020650
 30
0.0
 10
3.729316
 20
4.731542
 30
0.0
 10
4.034039
 20
5.237284
 30
0.0
 10
3.907657
 20
6.293980
 30
0.0
 10
3.089921
 20
7.359736
 30
0.0
 10
4.071250
 20
7.061822
 30
0.0
 10
5.052806
 20
5.309758
 30
0.0
 10
5.037831
 20
5.011562
 30
0.0
 10
5.037832
 20
5.011619
 30
0.0
  0
LWPOLYLINE
  5
139
100
AcDbEntity
  8
W
 62
7
100
AcDbPolyline
 90
85
 70
0
 10
5.834853
 20
4.927771
 30
0.0
 10
5.306864
 20
3.230035
 30
0.0
 10
4.533600
 20
2.037759
 30
0.0
 10
4.132219
 20
1.116670
 30
0.0
 10
4.422193
 20
0.719245
 30
0.0
 10
4.704680
 20
0.890808
 30
0.0
 10
4.816313
 20
1.252278
 30
0.0
 10
4.868273
 20
0.755341
 30
0.0
 10
4.674956
 20
0.380663
 30
0.0
 10
4.295812
 20
0.231678
 30
0.0
 10
3.946277
 20
0.339994
 30
0.0
 10
3.611718
 20
0.448311
 30
0.0
 10
3.302307
 20
0.370418
 30
0.0
 10
2.860916
 20
0.141282
 30
0.0
 10
3.064167
 20
0.532216
 30
0.0
 10
3.388678
 20
1.152766
 30
0.0
 10
3.403653
 20
1.405778
 30
0.0
 10
3.031769
 20
3.112602
 30
0.0
 10
2.570941
 20
2.236471
 30
0.0
 10
2.080163
 20
1.098749
 30
0.0
 10
2.113517
 20
0.886405
 30
0.0
 10
2.243756
 20
0.782632
 30
0.0
 10
2.437072
 20
1.008353
 30
0.0
 10
2.355162
 20
1.333558
 30
0.0
 10
2.707794
 20
1.130076
 30
0.0
 10
2.823704
 20
0.746536
 30
0.0
 10
2.567197
 20
0.209100
 30
0.0
 10
2.094912
 20
0.005956
 30
0.0
 10
1.582011
 20
0.416900
 30
0.0
 10
1.068884
 20
0.827816
 30
0.0
 10
0.355293
 20
0.493523
 30
0.0
 10
0.652528
 20
0.900036
 30
0.0
 10
1.024412
 20
1.274714
 30
0.0
 10
1.232477
 20
1.712808
 30
0.0
 10
1.031900
 20
3.880190
 30
0.0
 10
0.934481
 20
4.719575
 30
0.0
 10
0.042856
 20
5.541830
 30
0.0
 10
-0.492393
 20
5.334284
 30
0.0
 10
-0.826839
 20
4.557636
 30
0.0
 10
-0.711689
 20
4.060840
 30
0.0
 10
-0.366012
 20
3.853181
 30
0.0
 10
-0.005473
 20
4.006682
 30
0.0
 10
0.139514
 20
4.412941
 30
0.0
 10
-0.224655
 20
4.756349
 30
0.0
 10
0.184213
 20
4.918683
 30
0.0
 10
0.596825
 20
4.665812
 30
0.0
 10
0.764162
 20
4.060699
 30
0.0
 10
0.370155
 20
3.026750
 30
0.0
 10
-0.522117
 20
2.652072
 30
0.0
 10
-1.220959
 20
3.085593
 30
0.0
 10
-1.436511
 20
3.979673
 30
0.0
 10
-1.414275
 20
4.304624
 30
0.0
 10
-1.300073
 20
4.823602
 30
0.0
 10
-0.945960
 20
5.514821
 30
0.0
 10
-0.372067
 20
6.030695
 30
0.0
 10
0.258635
 20
6.201073
 30
0.0
 10
0.961221
 20
6.070150
 30
0.0
 10
1.507702
 20
5.930139
 30
0.0
 10
1.901595
 20
6.219276
 30
0.0
 10
1.834774
 20
6.463031
 30
0.0
 10
1.641572
 20
6.526306
 30
0.0
 10
1.990459
 20
6.655394
 30
0.0
 10
2.240294
 20
6.501583
 30
0.0
 10
2.317951
 20
6.029651
 30
0.0
 10
2.206545
 20
5.370380
 30
0.0
 10
2.028204
 20
4.665953
 30
0.0
 10
2.005741
 20
4.241491
 30
0.0
 10
2.080163
 20
3.203026
 30
0.0
 10
2.838453
 20
4.611654
 30
0.0
 10
3.410913
 20
5.388301
 30
0.0
 10
3.693627
 20
4.241491
 30
0.0
 10
4.146967
 20
3.203026
 30
0.0
 10
4.533599
 20
4.097078
 30
0.0
 10
4.273348
 20
3.988507
 30
0.0
 10
4.035560
 20
4.187220
 30
0.0
 10
3.976113
 20
4.611654
 30
0.0
 10
4.195026
 20
5.270896
 30
0.0
 10
4.273349
 20
4.936858
 30
0.0
 10
4.518851
 20
4.647750
 30
0.0
 10
4.831061
 20
5.153492
 30
0.0
 10
4.704680
 20
6.210160
 30
0.0
 10
3.886943
 20
7.275944
 30
0.0
 10
4.868272
 20
6.978002
 30
0.0
 10
5.849601
 20
5.225967
 30
0.0
 10
5.834853
 20
4.927771
 30
0.0
  0
LWPOLYLINE
  5
13a
100
AcDbEntity
  8
X
 62
7
100
AcDbPolyline
 90
80
 70
0
 10
6.002505
 20
-0.602092
 30
0.0
 10
5.630621
 20
-1.469135
 30
0.0
 10
4.954242
 20
-1.749156
 30
0.0
 10
3.764622
 20
-0.538958
 30
0.0
 10
2.939171
 20
1.998812
 30
0.0
 10
2.411409
 20
1.366578
 30
0.0
 10
2.173394
 20
0.978240
 30
0.0
 10
2.351962
 20
0.553806
 30
0.0
 10
2.575002
 20
0.421839
 30
0.0
 10
2.158646
 20
0.282816
 30
0.0
 10
1.667868
 20
0.842830
 30
0.0
 10
0.976513
 20
0.499422
 30
0.0
 10
0.563788
 20
0.689188
 30
0.0
 10
0.411313
 20
1.195071
 30
0.0
 10
0.753360
 20
2.156800
 30
0.0
 10
1.487387
 20
2.621225
 30
0.0
 10
1.340683
 20
2.387065
 30
0.0
 10
1.102895
 20
2.025736
 30
0.0
 10
1.147367
 20
1.786383
 30
0.0
 10
1.348170
 20
1.727822
 30
0.0
 10
2.626961
 20
3.064511
 30
0.0
 10
2.047013
 20
4.798372
 30
0.0
 10
1.333422
 20
5.340210
 30
0.0
 10
0.500710
 20
4.491342
 30
0.0
 10
0.612117
 20
3.990144
 30
0.0
 10
0.961538
 20
3.786887
 30
0.0
 10
1.314703
 20
3.940388
 30
0.0
 10
1.452316
 20
4.346929
 30
0.0
 10
1.095407
 20
4.680967
 30
0.0
 10
1.563722
 20
4.870564
 30
0.0
 10
1.980078
 20
4.572650
 30
0.0
 10
2.084224
 20
3.967397
 30
0.0
 10
1.586185
 20
2.883720
 30
0.0
 10
0.797945
 20
2.594894
 30
0.0
 10
0.114078
 20
3.028133
 30
0.0
 10
-0.094213
 20
3.922213
 30
0.0
 10
-0.079238
 20
4.238330
 30
0.0
 10
0.344379
 20
5.484623
 30
0.0
 10
0.804023
 20
5.956640
 30
0.0
 10
1.467064
 20
6.143866
 30
0.0
 10
2.366710
 20
5.683336
 30
0.0
 10
2.351962
 20
6.062586
 30
0.0
 10
2.545164
 20
6.410538
 30
0.0
 10
2.924423
 20
6.559495
 30
0.0
 10
3.273844
 20
6.433003
 30
0.0
 10
3.481908
 20
6.017656
 30
0.0
 10
3.325803
 20
5.502827
 30
0.0
 10
3.088015
 20
6.008569
 30
0.0
 10
2.857488
 20
5.665415
 30
0.0
 10
2.968894
 20
4.906689
 30
0.0
 10
3.296080
 20
3.849992
 30
0.0
 10
3.928214
 20
4.662764
 30
0.0
 10
4.240424
 20
5.548010
 30
0.0
 10
4.255173
 20
5.818944
 30
0.0
 10
3.991597
 20
6.629204
 30
0.0
 10
3.244121
 20
6.884446
 30
0.0
 10
2.971416
 20
6.983195
 30
0.0
 10
4.084320
 20
7.155266
 30
0.0
 10
5.078241
 20
6.732356
 30
0.0
 10
5.348136
 20
5.864043
 30
0.0
 10
5.333387
 20
5.593138
 30
0.0
 10
4.968990
 20
4.446046
 30
0.0
 10
4.753438
 20
4.039533
 30
0.0
 10
4.619569
 20
3.633274
 30
0.0
 10
4.745951
 20
3.434561
 30
0.0
 10
5.147558
 20
3.831986
 30
0.0
 10
5.154819
 20
3.407552
 30
0.0
 10
4.939267
 20
2.784406
 30
0.0
 10
4.500675
 20
2.468289
 30
0.0
 10
4.210701
 20
2.626361
 30
0.0
 10
4.136279
 20
2.991952
 30
0.0
 10
4.284896
 20
3.488861
 30
0.0
 10
3.652988
 20
2.784406
 30
0.0
 10
4.322107
 20
0.644032
 30
0.0
 10
5.125095
 20
-0.385627
 30
0.0
 10
5.482004
 20
0.020886
 30
0.0
 10
5.184542
 20
0.354924
 30
0.0
 10
5.691220
 20
0.249712
 30
0.0
 10
6.002505
 20
-0.602261
 30
0.0
 10
6.002505
 20
-0.602092
 30
0.0
  0
LWPOLYLINE
  5
13b
100
AcDbEntity
  8
Y
 62
7
100
AcDbPolyline
 90
77
 70
0
 10
5.326052
 20
5.403406
 30
0.0
 10
4.897975
 20
4.244940
 30
0.0
 10
3.839197
 20
3.100698
 30
0.0
 10
3.586434
 20
1.845317
 30
0.0
 10
3.578946
 20
1.709710
 30
0.0
 10
3.679348
 20
1.244636
 30
0.0
 10
3.935855
 20
1.050467
 30
0.0
 10
4.240577
 20
1.312567
 30
0.0
 10
4.114195
 20
1.547093
 30
0.0
 10
4.416304
 20
1.398334
 30
0.0
 10
4.486079
 20
1.005255
 30
0.0
 10
3.935855
 20
0.463416
 30
0.0
 10
3.824221
 20
0.472447
 30
0.0
 10
3.393117
 20
0.644151
 30
0.0
 10
2.954299
 20
0.761556
 30
0.0
 10
2.627227
 20
0.612458
 30
0.0
 10
2.456260
 20
0.291938
 30
0.0
 10
2.738747
 20
-0.141612
 30
0.0
 10
2.973018
 20
-0.033295
 30
0.0
 10
3.065932
 20
0.228551
 30
0.0
 10
3.170078
 20
-0.033295
 30
0.0
 10
2.991510
 20
-0.376421
 30
0.0
 10
2.537943
 20
-0.611229
 30
0.0
 10
1.913523
 20
-0.430720
 30
0.0
 10
1.653272
 20
0.255842
 30
0.0
 10
2.054653
 20
0.987277
 30
0.0
 10
2.508219
 20
1.438748
 30
0.0
 10
2.657064
 20
2.025770
 30
0.0
 10
2.225733
 20
1.727857
 30
0.0
 10
1.913523
 20
2.242686
 30
0.0
 10
2.100319
 20
2.727375
 30
0.0
 10
2.478496
 20
3.127651
 30
0.0
 10
2.285180
 20
2.477495
 30
0.0
 10
2.419049
 20
2.305791
 30
0.0
 10
2.716511
 20
2.477495
 30
0.0
 10
2.805681
 20
3.019334
 30
0.0
 10
2.222745
 20
4.332344
 30
0.0
 10
1.266640
 20
5.105407
 30
0.0
 10
0.746138
 20
4.897607
 30
0.0
 10
0.418953
 20
4.130047
 30
0.0
 10
0.530586
 20
3.633393
 30
0.0
 10
0.872520
 20
3.434680
 30
0.0
 10
1.225798
 20
3.588209
 30
0.0
 10
1.363298
 20
3.994722
 30
0.0
 10
1.006389
 20
4.328760
 30
0.0
 10
1.474704
 20
4.518385
 30
0.0
 10
1.883799
 20
4.233962
 30
0.0
 10
2.002693
 20
3.615218
 30
0.0
 10
1.504655
 20
2.531513
 30
0.0
 10
0.716415
 20
2.242686
 30
0.0
 10
0.025060
 20
2.675926
 30
0.0
 10
-0.190719
 20
3.570288
 30
0.0
 10
-0.168256
 20
3.886123
 30
0.0
 10
0.337270
 20
5.313236
 30
0.0
 10
0.889412
 20
5.937624
 30
0.0
 10
1.526891
 20
6.143901
 30
0.0
 10
2.381838
 20
5.683370
 30
0.0
 10
2.359602
 20
6.062592
 30
0.0
 10
2.556548
 20
6.410572
 30
0.0
 10
2.939550
 20
6.559529
 30
0.0
 10
3.244273
 20
6.423921
 30
0.0
 10
3.422841
 20
6.008575
 30
0.0
 10
3.244273
 20
5.421553
 30
0.0
 10
2.998997
 20
5.936383
 30
0.0
 10
2.768470
 20
5.584141
 30
0.0
 10
3.028721
 20
4.735273
 30
0.0
 10
3.460052
 20
4.003527
 30
0.0
 10
3.809473
 20
4.419156
 30
0.0
 10
4.248065
 20
5.548045
 30
0.0
 10
4.262814
 20
5.828066
 30
0.0
 10
3.259249
 20
6.884480
 30
0.0
 10
2.969275
 20
6.857387
 30
0.0
 10
4.091961
 20
7.155300
 30
0.0
 10
4.872486
 20
6.812175
 30
0.0
 10
5.341028
 20
5.683286
 30
0.0
 10
5.326053
 20
5.403265
 30
0.0
 10
5.326052
 20
5.403406
 30
0.0
  0
LWPOLYLINE
  5
13c
100
AcDbEntity
  8
Z
 62
7
100
AcDbPolyline
 90
58
 70
0
 10
5.322925
 20
6.536663
 30
0.0
 10
4.698505
 20
5.742095
 30
0.0
 10
4.051622
 20
4.793715
 30
0.0
 10
4.267174
 20
4.522810
 30
0.0
 10
4.601847
 20
4.875023
 30
0.0
 10
4.426972
 20
4.381360
 30
0.0
 10
4.062613
 20
3.792927
 30
0.0
 10
3.664990
 20
3.610809
 30
0.0
 10
3.434462
 20
3.854451
 30
0.0
 10
3.531120
 20
4.251877
 30
0.0
 10
2.081476
 20
2.445824
 30
0.0
 10
2.676173
 20
2.554141
 30
0.0
 10
3.337918
 20
2.021249
 30
0.0
 10
4.021898
 20
1.524453
 30
0.0
 10
4.519937
 20
2.039283
 30
0.0
 10
4.296897
 20
2.617246
 30
0.0
 10
4.743902
 20
2.254082
 30
0.0
 10
4.929032
 20
1.488357
 30
0.0
 10
4.914058
 20
1.208336
 30
0.0
 10
4.482954
 20
0.368555
 30
0.0
 10
3.739413
 20
0.070642
 30
0.0
 10
2.891726
 20
0.458951
 30
0.0
 10
2.170648
 20
1.163406
 30
0.0
 10
1.241278
 20
1.542656
 30
0.0
 10
0.705802
 20
1.100019
 30
0.0
 10
0.914093
 20
0.811193
 30
0.0
 10
1.144620
 20
0.937431
 30
0.0
 10
0.941373
 20
0.617052
 30
0.0
 10
0.639094
 20
0.512968
 30
0.0
 10
0.193015
 20
1.036914
 30
0.0
 10
0.207763
 20
1.226539
 30
0.0
 10
0.828553
 20
2.215418
 30
0.0
 10
1.456830
 20
3.267401
 30
0.0
 10
1.271002
 20
3.538588
 30
0.0
 10
0.869394
 20
3.195208
 30
0.0
 10
1.123259
 20
3.815561
 30
0.0
 10
1.650146
 20
4.071339
 30
0.0
 10
1.888161
 20
3.700922
 30
0.0
 10
1.858438
 20
3.412096
 30
0.0
 10
3.620519
 20
5.570391
 30
0.0
 10
3.107505
 20
5.389853
 30
0.0
 10
2.679918
 20
5.475705
 30
0.0
 10
2.311778
 20
5.561557
 30
0.0
 10
2.014429
 20
5.421547
 30
0.0
 10
1.850950
 20
5.091939
 30
0.0
 10
1.910284
 20
4.780225
 30
0.0
 10
2.125949
 20
4.640214
 30
0.0
 10
1.851879
 20
4.438256
 30
0.0
 10
1.590700
 20
4.360306
 30
0.0
 10
1.085060
 20
4.586169
 30
0.0
 10
0.884370
 20
5.236465
 30
0.0
 10
0.899118
 20
5.453099
 30
0.0
 10
1.375147
 20
6.329230
 30
0.0
 10
2.304517
 20
6.654180
 30
0.0
 10
3.085042
 20
6.433003
 30
0.0
 10
3.813835
 20
6.211825
 30
0.0
 10
5.322926
 20
6.536776
 30
0.0
 10
5.322925
 20
6.536663
 30
0.0
  0
LWPOLYLINE
  5
13d
100
AcDbEntity
  8
a_
 62
7
100
AcDbPolyline
 90
22
 70
0
 10
5.417888
 20
1.405106
 30
0.0
 10
4.619348
 20
0.538035
 30
0.0
 10
3.916005
 20
0.152830
 30
0.0
 10
3.229577
 20
0.014400
 30
0.0
 10
2.764112
 20
0.138126
 30
0.0
 10
2.586757
 20
0.619343
 30
0.0
 10
1.871141
 20
0.222200
 30
0.0
 10
0.968787
 20
0.041408
 30
0.0
 10
0.149357
 20
0.465842
 30
0.0
 10
0.024971
 20
1.188472
 30
0.0
 10
0.626646
 20
2.425678
 30
0.0
 10
1.351227
 20
3.012136
 30
0.0
 10
2.472499
 20
3.374058
 30
0.0
 10
2.866547
 20
3.401151
 30
0.0
 10
3.665246
 20
3.283718
 30
0.0
 10
4.111358
 20
3.012813
 30
0.0
 10
3.924621
 20
2.507071
 30
0.0
 10
3.758772
 20
1.405191
 30
0.0
 10
4.121487
 20
0.980757
 30
0.0
 10
4.723161
 20
1.233769
 30
0.0
 10
5.221022
 20
1.630912
 30
0.0
 10
5.417888
 20
1.405106
 30
0.0
  0
LWPOLYLINE
  5
13e
100
AcDbEntity
  8
a_
 62
7
100
AcDbPolyline
 90
8
 70
0
 10
2.773495
 20
2.245169
 30
0.0
 10
2.752605
 20
2.497899
 30
0.0
 10
2.503833
 20
2.606187
 30
0.0
 10
1.704976
 20
2.118648
 30
0.0
 10
1.352390
 20
1.405106
 30
0.0
 10
1.663514
 20
1.025856
 30
0.0
 10
2.400020
 20
1.486414
 30
0.0
 10
2.773495
 20
2.245169
 30
0.0
  0
LWPOLYLINE
  5
13f
100
AcDbEntity
  8
b_
 62
7
100
AcDbPolyline
 90
24
 70
0
 10
4.696626
 20
2.214632
 30
0.0
 10
4.656337
 20
1.967095
 30
0.0
 10
4.136730
 20
0.932243
 30
0.0
 10
3.408776
 20
0.322840
 30
0.0
 10
2.301005
 20
-0.006767
 30
0.0
 10
2.041788
 20
-0.024829
 30
0.0
 10
1.433782
 20
0.076855
 30
0.0
 10
0.973586
 20
0.408692
 30
0.0
 10
0.724497
 20
1.094944
 30
0.0
 10
0.859328
 20
2.576074
 30
0.0
 10
1.025176
 20
4.030168
 30
0.0
 10
0.848883
 20
4.725535
 30
0.0
 10
0.579222
 20
4.869948
 30
0.0
 10
0.226636
 20
4.806843
 30
0.0
 10
0.568796
 20
5.333216
 30
0.0
 10
1.626851
 20
5.746107
 30
0.0
 10
2.344390
 20
5.393132
 30
0.0
 10
2.466853
 20
4.833852
 30
0.0
 10
2.010454
 20
2.612170
 30
0.0
 10
2.852769
 20
3.195778
 30
0.0
 10
3.711348
 20
3.380012
 30
0.0
 10
4.572240
 20
2.955296
 30
0.0
 10
4.696626
 20
2.214745
 30
0.0
 10
4.696626
 20
2.214632
 30
0.0
  0
LWPOLYLINE
  5
140
100
AcDbEntity
  8
b_
 62
7
100
AcDbPolyline
 90
8
 70
0
 10
3.286283
 20
2.106315
 30
0.0
 10
2.964715
 20
2.440636
 30
0.0
 10
2.218081
 20
1.961902
 30
0.0
 10
1.824033
 20
1.167052
 30
0.0
 10
1.896512
 20
0.914180
 30
0.0
 10
2.176619
 20
0.823926
 30
0.0
 10
2.964715
 20
1.347843
 30
0.0
 10
3.286283
 20
2.106315
 30
0.0
  0
LWPOLYLINE
  5
141
100
AcDbEntity
  8
c_
 62
7
100
AcDbPolyline
 90
28
 70
0
 10
5.292544
 20
1.426132
 30
0.0
 10
4.058493
 20
0.522964
 30
0.0
 10
3.062988
 20
0.144560
 30
0.0
 10
1.683445
 20
-0.009787
 30
0.0
 10
0.781091
 20
0.234110
 30
0.0
 10
0.370291
 20
0.673671
 30
0.0
 10
0.241768
 20
1.362998
 30
0.0
 10
0.420745
 20
2.008666
 30
0.0
 10
0.998846
 20
2.708521
 30
0.0
 10
1.749728
 20
3.188581
 30
0.0
 10
2.886478
 20
3.412976
 30
0.0
 10
3.653843
 20
3.223351
 30
0.0
 10
3.965125
 20
2.690600
 30
0.0
 10
3.685019
 20
1.950049
 30
0.0
 10
2.865589
 20
1.615728
 30
0.0
 10
2.440524
 20
2.085374
 30
0.0
 10
2.471541
 20
2.338387
 30
0.0
 10
2.730758
 20
2.175770
 30
0.0
 10
2.917495
 20
2.270569
 30
0.0
 10
3.010864
 20
2.482800
 30
0.0
 10
2.793109
 20
2.717609
 30
0.0
 10
1.921773
 20
2.293175
 30
0.0
 10
1.559059
 20
1.534420
 30
0.0
 10
1.780959
 20
0.962497
 30
0.0
 10
2.440523
 20
0.785064
 30
0.0
 10
4.141418
 20
1.137277
 30
0.0
 10
5.095362
 20
1.651853
 30
0.0
 10
5.292544
 20
1.426132
 30
0.0
  0
LWPOLYLINE
  5
142
100
AcDbEntity
  8
d_
 62
7
100
AcDbPolyline
 90
28
 70
0
 10
5.466065
 20
1.363224
 30
0.0
 10
4.667525
 20
0.496153
 30
0.0
 10
3.277754
 20
-0.027510
 30
0.0
 10
2.742423
 20
0.185257
 30
0.0
 10
2.634934
 20
0.622645
 30
0.0
 10
1.919318
 20
0.198211
 30
0.0
 10
1.016964
 20
-0.000502
 30
0.0
 10
0.197534
 20
0.423932
 30
0.0
 10
0.073148
 20
1.146590
 30
0.0
 10
0.303246
 20
1.861121
 30
0.0
 10
0.674823
 20
2.383796
 30
0.0
 10
1.474348
 20
3.010781
 30
0.0
 10
2.520676
 20
3.332148
 30
0.0
 10
3.049555
 20
3.359241
 30
0.0
 10
3.111906
 20
4.018512
 30
0.0
 10
2.904596
 20
4.704764
 30
0.0
 10
2.603600
 20
4.849459
 30
0.0
 10
2.261459
 20
4.795159
 30
0.0
 10
2.674805
 20
5.391551
 30
0.0
 10
3.661674
 20
5.734423
 30
0.0
 10
4.343758
 20
5.435606
 30
0.0
 10
4.501676
 20
4.822168
 30
0.0
 10
4.169663
 20
3.187537
 30
0.0
 10
3.806950
 20
1.363309
 30
0.0
 10
4.169663
 20
0.938847
 30
0.0
 10
4.771338
 20
1.191859
 30
0.0
 10
5.269200
 20
1.589030
 30
0.0
 10
5.466065
 20
1.363224
 30
0.0
  0
LWPOLYLINE
  5
143
100
AcDbEntity
  8
d_
 62
7
100
AcDbPolyline
 90
8
 70
0
 10
2.821672
 20
2.203259
 30
0.0
 10
2.800782
 20
2.455989
 30
0.0
 10
2.552010
 20
2.564306
 30
0.0
 10
1.753153
 20
2.076767
 30
0.0
 10
1.400567
 20
1.363224
 30
0.0
 10
1.711691
 20
0.983974
 30
0.0
 10
2.448197
 20
1.444504
 30
0.0
 10
2.821672
 20
2.203259
 30
0.0
  0
LWPOLYLINE
  5
144
100
AcDbEntity
  8
e_
 62
7
100
AcDbPolyline
 90
21
 70
0
 10
5.153769
 20
1.435219
 30
0.0
 10
3.971309
 20
0.568148
 30
0.0
 10
2.895279
 20
0.162736
 30
0.0
 10
1.741537
 20
0.017222
 30
0.0
 10
1.012280
 20
0.142641
 30
0.0
 10
0.538504
 20
0.505043
 30
0.0
 10
0.289731
 20
1.299611
 30
0.0
 10
0.388791
 20
1.810857
 30
0.0
 10
1.036365
 20
2.690600
 30
0.0
 10
1.720811
 20
3.148590
 30
0.0
 10
2.944569
 20
3.412976
 30
0.0
 10
3.782660
 20
3.187396
 30
0.0
 10
4.023216
 20
2.690600
 30
0.0
 10
3.442431
 20
1.742249
 30
0.0
 10
2.549597
 20
1.252057
 30
0.0
 10
1.772554
 20
1.064802
 30
0.0
 10
2.332767
 20
0.839081
 30
0.0
 10
3.117196
 20
0.923466
 30
0.0
 10
3.961181
 20
1.173373
 30
0.0
 10
4.956587
 20
1.660940
 30
0.0
 10
5.153769
 20
1.435219
 30
0.0
  0
LWPOLYLINE
  5
145
100
AcDbEntity
  8
e_
 62
7
100
AcDbPolyline
 90
7
 70
0
 10
2.799610
 20
2.383570
 30
0.0
 10
2.571411
 20
2.627213
 30
0.0
 10
1.938719
 20
2.252535
 30
0.0
 10
1.606706
 20
1.534420
 30
0.0
 10
1.606706
 20
1.417016
 30
0.0
 10
2.488170
 20
1.913953
 30
0.0
 10
2.799610
 20
2.383570
 30
0.0
  0
LWPOLYLINE
  5
146
100
AcDbEntity
  8
f_
 62
7
100
AcDbPolyline
 90
37
 70
0
 10
4.836256
 20
5.050853
 30
0.0
 10
4.774187
 20
4.608752
 30
0.0
 10
4.566594
 20
4.183781
 30
0.0
 10
3.809516
 20
3.714135
 30
0.0
 10
3.425913
 20
3.921964
 30
0.0
 10
3.342672
 20
4.301186
 30
0.0
 10
3.218286
 20
4.508986
 30
0.0
 10
2.751758
 20
3.307905
 30
0.0
 10
3.664240
 20
3.307905
 30
0.0
 10
3.757609
 20
3.217509
 30
0.0
 10
3.664240
 20
2.829171
 30
0.0
 10
3.570872
 20
2.766066
 30
0.0
 10
2.647945
 20
2.766066
 30
0.0
 10
2.450763
 20
1.248840
 30
0.0
 10
2.813793
 20
0.914519
 30
0.0
 10
3.332544
 20
1.185452
 30
0.0
 10
3.840533
 20
1.609886
 30
0.0
 10
4.037715
 20
1.384165
 30
0.0
 10
3.239175
 20
0.517094
 30
0.0
 10
2.603995
 20
0.147834
 30
0.0
 10
1.849405
 20
-0.006570
 30
0.0
 10
1.355346
 20
0.149725
 30
0.0
 10
1.195823
 20
0.643586
 30
0.0
 10
1.506947
 20
2.766066
 30
0.0
 10
1.175250
 20
2.766066
 30
0.0
 10
1.081882
 20
2.856180
 30
0.0
 10
1.175250
 20
3.244518
 30
0.0
 10
1.268619
 20
3.307905
 30
0.0
 10
1.600316
 20
3.307905
 30
0.0
 10
1.745591
 20
4.057543
 30
0.0
 10
2.013352
 20
4.806448
 30
0.0
 10
2.554847
 20
5.460272
 30
0.0
 10
3.456930
 20
5.728271
 30
0.0
 10
3.975364
 20
5.475287
 30
0.0
 10
4.099750
 20
4.996553
 30
0.0
 10
4.379856
 20
4.743823
 30
0.0
 10
4.836256
 20
5.050853
 30
0.0
  0
LWPOLYLINE
  5
147
100
AcDbEntity
  8
g_
 62
7
100
AcDbPolyline
 90
25
 70
0
 10
5.972669
 20
1.317984
 30
0.0
 10
5.080705
 20
0.698958
 30
0.0
 10
4.023002
 20
0.180262
 30
0.0
 10
3.369009
 20
-1.267087
 30
0.0
 10
2.489303
 20
-2.167150
 30
0.0
 10
1.523568
 20
-2.429730
 30
0.0
 10
0.659147
 20
-2.156426
 30
0.0
 10
0.506956
 20
-1.553853
 30
0.0
 10
0.698121
 20
-1.096004
 30
0.0
 10
1.274479
 20
-0.596386
 30
0.0
 10
2.892449
 20
0.152971
 30
0.0
 10
3.089631
 20
0.758224
 30
0.0
 10
2.293200
 20
0.206847
 30
0.0
 10
1.367848
 20
-0.000530
 30
0.0
 10
0.517401
 20
0.423904
 30
0.0
 10
0.393014
 20
1.173571
 30
0.0
 10
0.689777
 20
2.103324
 30
0.0
 10
1.264192
 20
2.767675
 30
0.0
 10
2.134834
 20
3.257133
 30
0.0
 10
3.131093
 20
3.413428
 30
0.0
 10
4.085195
 20
3.300426
 30
0.0
 10
4.634805
 20
3.043011
 30
0.0
 10
4.157833
 20
0.649908
 30
0.0
 10
5.806821
 20
1.552793
 30
0.0
 10
5.972669
 20
1.317984
 30
0.0
  0
LWPOLYLINE
  5
148
100
AcDbEntity
  8
g_
 62
7
100
AcDbPolyline
 90
8
 70
0
 10
3.141221
 20
2.239327
 30
0.0
 10
3.073964
 20
2.496742
 30
0.0
 10
2.799080
 20
2.582452
 30
0.0
 10
2.010984
 20
2.058535
 30
0.0
 10
1.678971
 20
1.300063
 30
0.0
 10
2.021429
 20
0.965742
 30
0.0
 10
2.757618
 20
1.444476
 30
0.0
 10
3.141221
 20
2.239327
 30
0.0
  0
LWPOLYLINE
  5
149
100
AcDbEntity
  8
g_
 62
7
100
AcDbPolyline
 90
6
 70
0
 10
2.581325
 20
-0.424964
 30
0.0
 10
1.846512
 20
-0.806133
 30
0.0
 10
1.647954
 20
-1.048111
 30
0.0
 10
1.803358
 20
-1.174631
 30
0.0
 10
2.113022
 20
-1.020030
 30
0.0
 10
2.581325
 20
-0.424964
 30
0.0
  0
LWPOLYLINE
  5
14a
100
AcDbEntity
  8
h_
 62
7
100
AcDbPolyline
 90
38
 70
0
 10
5.452208
 20
1.321201
 30
0.0
 10
4.653667
 20
0.454158
 30
0.0
 10
3.963789
 20
0.063337
 30
0.0
 10
3.263897
 20
-0.069505
 30
0.0
 10
2.771258
 20
0.111145
 30
0.0
 10
2.610315
 20
0.580650
 30
0.0
 10
2.724415
 20
1.289649
 30
0.0
 10
2.838515
 20
1.917368
 30
0.0
 10
2.631205
 20
2.251378
 30
0.0
 10
1.884571
 20
1.772926
 30
0.0
 10
1.565659
 20
1.280702
 30
0.0
 10
1.417727
 20
0.661958
 30
0.0
 10
1.490206
 20
-0.042496
 30
0.0
 10
0.954566
 20
0.002687
 30
0.0
 10
0.473911
 20
0.246612
 30
0.0
 10
0.245712
 20
0.932892
 30
0.0
 10
0.401432
 20
2.432197
 30
0.0
 10
0.588169
 20
3.904212
 30
0.0
 10
0.411876
 20
4.599579
 30
0.0
 10
0.131770
 20
4.743992
 30
0.0
 10
-0.220816
 20
4.680859
 30
0.0
 10
0.226572
 20
5.301607
 30
0.0
 10
1.189527
 20
5.620151
 30
0.0
 10
1.852677
 20
5.345916
 30
0.0
 10
2.029530
 20
4.707868
 30
0.0
 10
1.573447
 20
2.486215
 30
0.0
 10
2.091881
 20
2.847544
 30
0.0
 10
2.664385
 20
3.110208
 30
0.0
 10
3.325932
 20
3.254057
 30
0.0
 10
4.051992
 20
3.046256
 30
0.0
 10
4.207712
 20
2.477381
 30
0.0
 10
4.067659
 20
1.741233
 30
0.0
 10
3.938051
 20
1.185904
 30
0.0
 10
3.979513
 20
0.923917
 30
0.0
 10
4.228285
 20
0.851584
 30
0.0
 10
4.747036
 20
1.122489
 30
0.0
 10
5.255025
 20
1.546951
 30
0.0
 10
5.452208
 20
1.321201
 30
0.0
  0
LWPOLYLINE
  5
14b
100
AcDbEntity
  8
i_
 62
7
100
AcDbPolyline
 90
9
 70
0
 10
3.593044
 20
4.578441
 30
0.0
 10
3.333827
 20
4.144919
 30
0.0
 10
2.670117
 20
3.910110
 30
0.0
 10
2.262618
 20
4.001071
 30
0.0
 10
2.099460
 20
4.361553
 30
0.0
 10
2.415964
 20
4.813137
 30
0.0
 10
3.095183
 20
5.029884
 30
0.0
 10
3.458213
 20
4.880927
 30
0.0
 10
3.593044
 20
4.578441
 30
0.0
  0
LWPOLYLINE
  5
14c
100
AcDbEntity
  8
i_
 62
7
100
AcDbPolyline
 90
21
 70
0
 10
4.495398
 20
1.363224
 30
0.0
 10
4.114717
 20
0.869025
 30
0.0
 10
3.696857
 20
0.496153
 30
0.0
 10
2.849534
 20
0.052302
 30
0.0
 10
2.307087
 20
-0.027510
 30
0.0
 10
1.814448
 20
0.153168
 30
0.0
 10
1.653506
 20
0.622645
 30
0.0
 10
1.866196
 20
1.544016
 30
0.0
 10
2.068443
 20
2.212092
 30
0.0
 10
1.881705
 20
2.446901
 30
0.0
 10
1.529119
 20
2.257276
 30
0.0
 10
1.290792
 20
2.501201
 30
0.0
 10
1.954501
 20
3.025118
 30
0.0
 10
2.618211
 20
3.386165
 30
0.0
 10
3.121136
 20
3.210199
 30
0.0
 10
3.240458
 20
2.681710
 30
0.0
 10
2.949907
 20
1.281916
 30
0.0
 10
3.271476
 20
0.893578
 30
0.0
 10
3.790226
 20
1.164483
 30
0.0
 10
4.298216
 20
1.588946
 30
0.0
 10
4.495398
 20
1.363224
 30
0.0
  0
LWPOLYLINE
  5
14d
100
AcDbEntity
  8
j_
 62
7
100
AcDbPolyline
 90
9
 70
0
 10
3.689398
 20
4.578413
 30
0.0
 10
3.430181
 20
4.144891
 30
0.0
 10
2.766472
 20
3.910054
 30
0.0
 10
2.375774
 20
3.990826
 30
0.0
 10
2.195814
 20
4.361525
 30
0.0
 10
2.512319
 20
4.813109
 30
0.0
 10
3.191537
 20
5.029855
 30
0.0
 10
3.554568
 20
4.880898
 30
0.0
 10
3.689398
 20
4.578413
 30
0.0
  0
LWPOLYLINE
  5
14e
100
AcDbEntity
  8
j_
 62
7
100
AcDbPolyline
 90
22
 70
0
 10
4.633214
 20
1.317984
 30
0.0
 10
3.771503
 20
0.679230
 30
0.0
 10
2.921875
 20
0.198183
 30
0.0
 10
2.543847
 20
-0.968637
 30
0.0
 10
1.852645
 20
-2.008146
 30
0.0
 10
0.837378
 20
-2.457020
 30
0.0
 10
-0.002625
 20
-2.258308
 30
0.0
 10
-0.345082
 20
-1.553853
 30
0.0
 10
-0.154561
 20
-1.070914
 30
0.0
 10
0.339517
 20
-0.596386
 30
0.0
 10
1.770749
 20
0.152971
 30
0.0
 10
2.164797
 20
2.212036
 30
0.0
 10
1.978059
 20
2.446873
 30
0.0
 10
1.625474
 20
2.257248
 30
0.0
 10
1.387146
 20
2.501172
 30
0.0
 10
2.050855
 20
3.025090
 30
0.0
 10
2.714565
 20
3.386137
 30
0.0
 10
3.217490
 20
3.210171
 30
0.0
 10
3.336813
 20
2.681682
 30
0.0
 10
3.036133
 20
0.703925
 30
0.0
 10
4.456921
 20
1.552793
 30
0.0
 10
4.633214
 20
1.317984
 30
0.0
  0
LWPOLYLINE
  5
14f
100
AcDbEntity
  8
j_
 62
7
100
AcDbPolyline
 90
5
 70
0
 10
1.542550
 20
-0.506272
 30
0.0
 10
0.764582
 20
-1.165515
 30
0.0
 10
0.920302
 20
-1.300841
 30
0.0
 10
1.241197
 20
-1.096342
 30
0.0
 10
1.542550
 20
-0.506272
 30
0.0
  0
LWPOLYLINE
  5
150
100
AcDbEntity
  8
k_
 62
7
100
AcDbPolyline
 90
34
 70
0
 10
5.638415
 20
1.342199
 30
0.0
 10
4.850319
 20
0.475127
 30
0.0
 10
4.313793
 20
0.043920
 30
0.0
 10
3.512455
 20
-0.057624
 30
0.0
 10
2.418142
 20
0.384873
 30
0.0
 10
1.983868
 20
0.740924
 30
0.0
 10
1.562472
 20
1.306102
 30
0.0
 10
1.562472
 20
-0.021499
 30
0.0
 10
1.056002
 20
0.017306
 30
0.0
 10
0.546177
 20
0.267609
 30
0.0
 10
0.317977
 20
0.953861
 30
0.0
 10
0.473697
 20
2.453166
 30
0.0
 10
0.660435
 20
3.925181
 30
0.0
 10
0.484142
 20
4.620548
 30
0.0
 10
0.204036
 20
4.764962
 30
0.0
 10
-0.148550
 20
4.701857
 30
0.0
 10
0.286329
 20
5.311711
 30
0.0
 10
1.261793
 20
5.641120
 30
0.0
 10
1.964469
 20
5.312134
 30
0.0
 10
2.101795
 20
4.728865
 30
0.0
 10
1.883947
 20
3.414613
 30
0.0
 10
1.624823
 20
2.380974
 30
0.0
 10
2.267960
 20
3.058138
 30
0.0
 10
3.439659
 20
3.482572
 30
0.0
 10
4.134703
 20
3.238647
 30
0.0
 10
4.414809
 20
2.660713
 30
0.0
 10
3.771672
 20
2.741993
 30
0.0
 10
3.035167
 20
2.434991
 30
0.0
 10
2.527177
 20
1.992636
 30
0.0
 10
3.169997
 20
1.161661
 30
0.0
 10
4.082796
 20
0.800360
 30
0.0
 10
4.692792
 20
0.975338
 30
0.0
 10
5.441549
 20
1.567920
 30
0.0
 10
5.638415
 20
1.342199
 30
0.0
  0
LWPOLYLINE
  5
151
100
AcDbEntity
  8
l_
 62
7
100
AcDbPolyline
 90
22
 70
0
 10
4.518956
 20
1.384165
 30
0.0
 10
3.720416
 20
0.517094
 30
0.0
 10
2.995880
 20
0.113375
 30
0.0
 10
2.330645
 20
-0.006570
 30
0.0
 10
1.838165
 20
0.174109
 30
0.0
 10
1.677380
 20
0.643586
 30
0.0
 10
1.936597
 20
2.603450
 30
0.0
 10
2.175242
 20
4.039368
 30
0.0
 10
1.978059
 20
4.725620
 30
0.0
 10
1.677380
 20
4.870315
 30
0.0
 10
1.335239
 20
4.816016
 30
0.0
 10
1.883381
 20
5.525889
 30
0.0
 10
2.725010
 20
5.755308
 30
0.0
 10
3.432228
 20
5.458833
 30
0.0
 10
3.585585
 20
4.843024
 30
0.0
 10
3.269397
 20
2.933085
 30
0.0
 10
2.973782
 20
1.302857
 30
0.0
 10
3.067095
 20
0.991989
 30
0.0
 10
3.295350
 20
0.914519
 30
0.0
 10
3.813784
 20
1.185452
 30
0.0
 10
4.322090
 20
1.609886
 30
0.0
 10
4.518956
 20
1.384165
 30
0.0
  0
LWPOLYLINE
  5
152
100
AcDbEntity
  8
m_
 62
7
100
AcDbPolyline
 90
52
 70
0
 10
5.696805
 20
1.363160
 30
0.0
 10
5.072990
 20
0.496089
 30
0.0
 10
4.547959
 20
0.111956
 30
0.0
 10
3.987739
 20
-0.027546
 30
0.0
 10
3.579232
 20
0.159567
 30
0.0
 10
3.477615
 20
0.622609
 30
0.0
 10
3.578948
 20
1.318089
 30
0.0
 10
3.680034
 20
1.950211
 30
0.0
 10
3.493927
 20
2.293336
 30
0.0
 10
2.991711
 20
1.733577
 30
0.0
 10
2.748986
 20
1.135068
 30
0.0
 10
2.659784
 20
0.595600
 30
0.0
 10
2.724538
 20
-0.000538
 30
0.0
 10
2.279754
 20
0.033470
 30
0.0
 10
1.930682
 20
0.207263
 30
0.0
 10
1.744575
 20
0.866505
 30
0.0
 10
1.825518
 20
1.444609
 30
0.0
 10
1.906461
 20
1.959298
 30
0.0
 10
1.687730
 20
2.293336
 30
0.0
 10
1.250516
 20
1.778648
 30
0.0
 10
1.078960
 20
1.295342
 30
0.0
 10
0.991252
 20
0.703917
 30
0.0
 10
1.048097
 20
-0.000538
 30
0.0
 10
0.584018
 20
0.051617
 30
0.0
 10
0.254240
 20
0.261562
 30
0.0
 10
0.076290
 20
0.974822
 30
0.0
 10
0.153031
 20
1.629663
 30
0.0
 10
0.230019
 20
2.284531
 30
0.0
 10
0.157109
 20
2.446865
 30
0.0
 10
-0.118220
 20
2.257240
 30
0.0
 10
-0.312482
 20
2.501137
 30
0.0
 10
0.197642
 20
3.025082
 30
0.0
 10
0.659325
 20
3.386129
 30
0.0
 10
0.999408
 20
3.192101
 30
0.0
 10
1.128916
 20
2.699849
 30
0.0
 10
1.112851
 20
2.528145
 30
0.0
 10
1.396336
 20
2.889474
 30
0.0
 10
2.230479
 20
3.295987
 30
0.0
 10
2.797449
 20
3.088187
 30
0.0
 10
2.926957
 20
2.519340
 30
0.0
 10
3.048309
 20
2.636744
 30
0.0
 10
3.412861
 20
3.025082
 30
0.0
 10
4.036428
 20
3.295987
 30
0.0
 10
4.595242
 20
3.088187
 30
0.0
 10
4.724751
 20
2.519340
 30
0.0
 10
4.615509
 20
1.783191
 30
0.0
 10
4.514176
 20
1.227835
 30
0.0
 10
4.546677
 20
0.965876
 30
0.0
 10
4.741063
 20
0.893514
 30
0.0
 10
5.145900
 20
1.164447
 30
0.0
 10
5.542829
 20
1.588881
 30
0.0
 10
5.696805
 20
1.363160
 30
0.0
  0
LWPOLYLINE
  5
153
100
AcDbEntity
  8
n_
 62
7
100
AcDbPolyline
 90
36
 70
0
 10
5.910415
 20
1.422461
 30
0.0
 10
5.111874
 20
0.555390
 30
0.0
 10
4.362556
 20
0.142979
 30
0.0
 10
3.722104
 20
0.031755
 30
0.0
 10
3.225098
 20
0.190956
 30
0.0
 10
3.068839
 20
0.681910
 30
0.0
 10
3.182780
 20
1.390909
 30
0.0
 10
3.296722
 20
2.018599
 30
0.0
 10
3.089412
 20
2.352638
 30
0.0
 10
2.342778
 20
1.874186
 30
0.0
 10
1.875934
 20
0.763218
 30
0.0
 10
1.948730
 20
-0.004370
 30
0.0
 10
0.909955
 20
0.249800
 30
0.0
 10
0.662457
 20
0.844527
 30
0.0
 10
0.672901
 20
1.034124
 30
0.0
 10
1.025487
 20
2.325629
 30
0.0
 10
0.932118
 20
2.506166
 30
0.0
 10
0.579533
 20
2.316541
 30
0.0
 10
0.341205
 20
2.560438
 30
0.0
 10
0.994470
 20
3.093189
 30
0.0
 10
1.575255
 20
3.445430
 30
0.0
 10
1.952155
 20
3.272992
 30
0.0
 10
2.052227
 20
2.858380
 30
0.0
 10
2.021210
 20
2.587446
 30
0.0
 10
2.550089
 20
2.948776
 30
0.0
 10
3.176859
 20
3.229982
 30
0.0
 10
3.784139
 20
3.355288
 30
0.0
 10
4.499755
 20
3.147488
 30
0.0
 10
4.665920
 20
2.578641
 30
0.0
 10
4.525867
 20
1.842493
 30
0.0
 10
4.396258
 20
1.287136
 30
0.0
 10
4.437720
 20
1.025177
 30
0.0
 10
4.686492
 20
0.952815
 30
0.0
 10
5.205243
 20
1.223749
 30
0.0
 10
5.713233
 20
1.648183
 30
0.0
 10
5.910415
 20
1.422461
 30
0.0
  0
LWPOLYLINE
  5
154
100
AcDbEntity
  8
o_
 62
7
100
AcDbPolyline
 90
14
 70
0
 10
4.881448
 20
2.040134
 30
0.0
 10
4.653850
 20
1.206224
 30
0.0
 10
4.176276
 20
0.604357
 30
0.0
 10
3.501879
 20
0.177439
 30
0.0
 10
2.527288
 20
-0.000728
 30
0.0
 10
1.867772
 20
0.093111
 30
0.0
 10
1.282477
 20
0.459803
 30
0.0
 10
0.940336
 20
1.317758
 30
0.0
 10
1.116028
 20
2.147153
 30
0.0
 10
1.583473
 20
2.744589
 30
0.0
 10
2.261130
 20
3.216098
 30
0.0
 10
3.460660
 20
3.467247
 30
0.0
 10
4.559879
 20
3.042785
 30
0.0
 10
4.881448
 20
2.040134
 30
0.0
  0
LWPOLYLINE
  5
155
100
AcDbEntity
  8
o_
 62
7
100
AcDbPolyline
 90
12
 70
0
 10
3.709432
 20
2.076513
 30
0.0
 10
3.631730
 20
2.523412
 30
0.0
 10
3.377735
 20
2.726668
 30
0.0
 10
2.910526
 20
2.611013
 30
0.0
 10
2.506399
 20
2.230042
 30
0.0
 10
2.265460
 20
1.756727
 30
0.0
 10
2.195275
 20
1.362970
 30
0.0
 10
2.288644
 20
0.965545
 30
0.0
 10
2.610213
 20
0.766832
 30
0.0
 10
3.092958
 20
0.893606
 30
0.0
 10
3.408753
 20
1.245566
 30
0.0
 10
3.709432
 20
2.076513
 30
0.0
  0
LWPOLYLINE
  5
156
100
AcDbEntity
  8
p_
 62
7
100
AcDbPolyline
 90
28
 70
0
 10
4.959145
 20
2.182261
 30
0.0
 10
4.409377
 20
0.935940
 30
0.0
 10
3.663334
 20
0.316236
 30
0.0
 10
2.636003
 20
0.014597
 30
0.0
 10
1.940960
 20
0.059781
 30
0.0
 10
1.868480
 20
-0.770884
 30
0.0
 10
2.055218
 20
-1.448330
 30
0.0
 10
2.303990
 20
-1.583938
 30
0.0
 10
2.625559
 20
-1.511435
 30
0.0
 10
2.161688
 20
-2.174149
 30
0.0
 10
1.287695
 20
-2.450727
 30
0.0
 10
0.608804
 20
-2.150245
 30
0.0
 10
0.468265
 20
-1.547813
 30
0.0
 10
0.821009
 20
0.398504
 30
0.0
 10
1.163309
 20
2.245366
 30
0.0
 10
1.018033
 20
2.425876
 30
0.0
 10
0.675576
 20
2.236279
 30
0.0
 10
0.426803
 20
2.480175
 30
0.0
 10
1.080068
 20
3.004121
 30
0.0
 10
1.660854
 20
3.365168
 30
0.0
 10
2.106966
 20
3.171140
 30
0.0
 10
2.272973
 20
2.669800
 30
0.0
 10
2.252084
 20
2.507184
 30
0.0
 10
3.121654
 20
3.124940
 30
0.0
 10
3.994440
 20
3.329043
 30
0.0
 10
4.709923
 20
3.091440
 30
0.0
 10
4.969273
 20
2.353683
 30
0.0
 10
4.959145
 20
2.182261
 30
0.0
  0
LWPOLYLINE
  5
157
100
AcDbEntity
  8
p_
 62
7
100
AcDbPolyline
 90
8
 70
0
 10
3.600392
 20
2.064829
 30
0.0
 10
3.278824
 20
2.407983
 30
0.0
 10
2.542635
 20
1.938337
 30
0.0
 10
2.169160
 20
1.170777
 30
0.0
 10
2.231353
 20
0.922308
 30
0.0
 10
2.490728
 20
0.836456
 30
0.0
 10
3.278824
 20
1.342199
 30
0.0
 10
3.600392
 20
2.064829
 30
0.0
  0
LWPOLYLINE
  5
158
100
AcDbEntity
  8
q_
 62
7
100
AcDbPolyline
 90
26
 70
0
 10
5.035354
 20
-1.418245
 30
0.0
 10
4.376210
 20
-2.199380
 30
0.0
 10
3.635139
 20
-2.366625
 30
0.0
 10
2.992417
 20
-2.116745
 30
0.0
 10
2.795137
 20
-1.454370
 30
0.0
 10
2.895203
 20
-0.692341
 30
0.0
 10
3.251536
 20
0.767312
 30
0.0
 10
2.304198
 20
0.142980
 30
0.0
 10
1.540197
 20
-0.000530
 30
0.0
 10
0.997350
 20
0.122716
 30
0.0
 10
0.689750
 20
0.423904
 30
0.0
 10
0.565364
 20
1.173571
 30
0.0
 10
0.696869
 20
1.721477
 30
0.0
 10
1.125260
 20
2.446873
 30
0.0
 10
1.747796
 20
2.995315
 30
0.0
 10
2.971430
 20
3.395224
 30
0.0
 10
3.230647
 20
3.413286
 30
0.0
 10
3.900007
 20
3.282025
 30
0.0
 10
4.288720
 20
2.979737
 30
0.0
 10
4.537493
 20
2.284398
 30
0.0
 10
4.402662
 20
0.812101
 30
0.0
 10
4.236814
 20
-0.650826
 30
0.0
 10
4.413107
 20
-1.337106
 30
0.0
 10
4.692896
 20
-1.481773
 30
0.0
 10
5.035354
 20
-1.418386
 30
0.0
 10
5.035354
 20
-1.418245
 30
0.0
  0
LWPOLYLINE
  5
159
100
AcDbEntity
  8
q_
 62
7
100
AcDbPolyline
 90
8
 70
0
 10
3.324015
 20
2.239327
 30
0.0
 10
3.251536
 20
2.492198
 30
0.0
 10
2.971430
 20
2.582452
 30
0.0
 10
2.183334
 20
2.058535
 30
0.0
 10
1.861765
 20
1.300063
 30
0.0
 10
2.193462
 20
0.965742
 30
0.0
 10
2.940412
 20
1.444476
 30
0.0
 10
3.324015
 20
2.239327
 30
0.0
  0
LWPOLYLINE
  5
15a
100
AcDbEntity
  8
r_
 62
7
100
AcDbPolyline
 90
29
 70
0
 10
4.837428
 20
2.717834
 30
0.0
 10
4.547193
 20
1.787658
 30
0.0
 10
4.215393
 20
1.408577
 30
0.0
 10
3.769226
 20
1.254907
 30
0.0
 10
3.344161
 20
1.498804
 30
0.0
 10
3.219774
 20
1.959362
 30
0.0
 10
3.022592
 20
2.203259
 30
0.0
 10
2.607655
 20
1.751534
 30
0.0
 10
2.306976
 20
0.676944
 30
0.0
 10
2.369327
 20
-0.000502
 30
0.0
 10
1.804200
 20
0.044851
 30
0.0
 10
1.352715
 20
0.261598
 30
0.0
 10
1.114388
 20
0.974886
 30
0.0
 10
1.228487
 20
1.634270
 30
0.0
 10
1.342587
 20
2.284567
 30
0.0
 10
1.197312
 20
2.446901
 30
0.0
 10
0.844726
 20
2.257276
 30
0.0
 10
0.606082
 20
2.501201
 30
0.0
 10
1.259663
 20
3.025118
 30
0.0
 10
1.840448
 20
3.386165
 30
0.0
 10
2.296531
 20
3.169531
 30
0.0
 10
2.441807
 20
2.681710
 30
0.0
 10
2.431362
 20
2.528209
 30
0.0
 10
2.918778
 20
3.088251
 30
0.0
 10
3.675857
 20
3.404368
 30
0.0
 10
4.080349
 20
3.142522
 30
0.0
 10
4.132256
 20
2.672905
 30
0.0
 10
4.381345
 20
2.410805
 30
0.0
 10
4.837428
 20
2.717834
 30
0.0
  0
LWPOLYLINE
  5
15b
100
AcDbEntity
  8
s_
 62
7
100
AcDbPolyline
 90
38
 70
0
 10
4.608056
 20
3.024638
 30
0.0
 10
4.452495
 20
2.582142
 30
0.0
 10
3.964919
 20
2.383570
 30
0.0
 10
3.384134
 20
2.699688
 30
0.0
 10
3.456930
 20
2.699688
 30
0.0
 10
3.518965
 20
2.690656
 30
0.0
 10
3.705702
 20
2.853273
 30
0.0
 10
3.638445
 20
2.943386
 30
0.0
 10
3.477503
 20
2.979511
 30
0.0
 10
3.145806
 20
2.672481
 30
0.0
 10
3.674685
 20
1.977114
 30
0.0
 10
4.369412
 20
1.209554
 30
0.0
 10
4.410874
 20
0.956542
 30
0.0
 10
4.281880
 20
0.558044
 30
0.0
 10
3.871867
 20
0.234166
 30
0.0
 10
2.751758
 20
-0.018846
 30
0.0
 10
1.641778
 20
0.143770
 30
0.0
 10
1.226459
 20
0.437761
 30
0.0
 10
1.102454
 20
0.875234
 30
0.0
 10
1.382561
 20
1.394607
 30
0.0
 10
2.067160
 20
1.588776
 30
0.0
 10
2.378296
 20
1.438070
 30
0.0
 10
2.554576
 20
1.119158
 30
0.0
 10
2.544132
 20
1.001726
 30
0.0
 10
2.201990
 20
1.092150
 30
0.0
 10
1.984235
 20
0.875234
 30
0.0
 10
2.284914
 20
0.712900
 30
0.0
 10
2.767109
 20
0.821216
 30
0.0
 10
2.917607
 20
1.146167
 30
0.0
 10
2.585594
 20
1.561768
 30
0.0
 10
2.025697
 20
2.076597
 30
0.0
 10
1.797498
 20
2.798973
 30
0.0
 10
2.181101
 20
3.322637
 30
0.0
 10
2.711713
 20
3.539242
 30
0.0
 10
3.322099
 20
3.638754
 30
0.0
 10
4.343028
 20
3.444924
 30
0.0
 10
4.608056
 20
3.024695
 30
0.0
 10
4.608056
 20
3.024638
 30
0.0
  0
LWPOLYLINE
  5
15c
100
AcDbEntity
  8
t_
 62
7
100
AcDbPolyline
 90
28
 70
0
 10
4.608056
 20
1.363168
 30
0.0
 10
3.664240
 20
0.496125
 30
0.0
 10
2.871660
 20
0.100082
 30
0.0
 10
2.150084
 20
-0.027539
 30
0.0
 10
1.521266
 20
0.121136
 30
0.0
 10
1.279064
 20
0.622617
 30
0.0
 10
1.600316
 20
2.745069
 30
0.0
 10
1.175250
 20
2.745069
 30
0.0
 10
1.081882
 20
2.835182
 30
0.0
 10
1.175250
 20
3.223520
 30
0.0
 10
1.268619
 20
3.286907
 30
0.0
 10
1.693685
 20
3.286907
 30
0.0
 10
1.859849
 20
4.153979
 30
0.0
 10
2.367839
 20
4.587246
 30
0.0
 10
3.073010
 20
4.785959
 30
0.0
 10
3.197713
 20
4.713738
 30
0.0
 10
2.855255
 20
3.286907
 30
0.0
 10
3.550299
 20
3.286907
 30
0.0
 10
3.643668
 20
3.196512
 30
0.0
 10
3.550299
 20
2.808174
 30
0.0
 10
3.467375
 20
2.745069
 30
0.0
 10
2.730869
 20
2.745069
 30
0.0
 10
2.502670
 20
1.227842
 30
0.0
 10
2.606593
 20
0.988094
 30
0.0
 10
3.000531
 20
0.893550
 30
0.0
 10
3.850978
 20
1.164455
 30
0.0
 10
4.410874
 20
1.588889
 30
0.0
 10
4.608056
 20
1.363168
 30
0.0
  0
LWPOLYLINE
  5
15d
100
AcDbEntity
  8
u_
 62
7
100
AcDbPolyline
 90
40
 70
0
 10
5.629458
 20
1.342199
 30
0.0
 10
4.820473
 20
0.475127
 30
0.0
 10
4.222237
 20
0.119189
 30
0.0
 10
3.883925
 20
-0.009759
 30
0.0
 10
3.430703
 20
-0.048508
 30
0.0
 10
2.969240
 20
0.132143
 30
0.0
 10
2.777438
 20
0.592532
 30
0.0
 10
2.808455
 20
0.800360
 30
0.0
 10
2.290021
 20
0.439031
 30
0.0
 10
1.586631
 20
0.123055
 30
0.0
 10
1.045526
 20
0.023685
 30
0.0
 10
0.319466
 20
0.231485
 30
0.0
 10
0.163745
 20
0.800360
 30
0.0
 10
0.345261
 20
1.595070
 30
0.0
 10
0.516331
 20
2.191067
 30
0.0
 10
0.329910
 20
2.425876
 30
0.0
 10
-0.022992
 20
2.236279
 30
0.0
 10
-0.261320
 20
2.480175
 30
0.0
 10
0.402390
 20
3.004121
 30
0.0
 10
1.076544
 20
3.365168
 30
0.0
 10
1.589756
 20
3.207236
 30
0.0
 10
1.761143
 20
2.724100
 30
0.0
 10
1.641821
 20
2.015101
 30
0.0
 10
1.532943
 20
1.360374
 30
0.0
 10
1.740253
 20
1.035169
 30
0.0
 10
2.450647
 20
1.436997
 30
0.0
 10
2.860362
 20
2.191067
 30
0.0
 10
2.777438
 20
2.430560
 30
0.0
 10
2.528349
 20
2.534475
 30
0.0
 10
2.186208
 20
2.471088
 30
0.0
 10
2.618225
 20
3.156097
 30
0.0
 10
2.972175
 20
3.361216
 30
0.0
 10
3.461721
 20
3.410351
 30
0.0
 10
4.141264
 20
3.091751
 30
0.0
 10
4.229243
 20
2.660713
 30
0.0
 10
4.104857
 20
1.956258
 30
0.0
 10
3.970026
 20
1.342199
 30
0.0
 10
4.333057
 20
0.917765
 30
0.0
 10
5.432276
 20
1.567920
 30
0.0
 10
5.629458
 20
1.342199
 30
0.0
  0
LWPOLYLINE
  5
15e
100
AcDbEntity
  8
v_
 62
7
100
AcDbPolyline
 90
26
 70
0
 10
4.939000
 20
2.669631
 30
0.0
 10
4.512919
 20
1.704431
 30
0.0
 10
3.995184
 20
1.062008
 30
0.0
 10
2.949470
 20
0.157035
 30
0.0
 10
2.398103
 20
-0.003776
 30
0.0
 10
2.056153
 20
0.130562
 30
0.0
 10
1.713505
 20
0.646662
 30
0.0
 10
1.340029
 20
1.838656
 30
0.0
 10
0.894075
 20
2.488839
 30
0.0
 10
0.531044
 20
2.299214
 30
0.0
 10
0.313289
 20
2.543111
 30
0.0
 10
0.987444
 20
3.067056
 30
0.0
 10
1.672042
 20
3.428103
 30
0.0
 10
2.136270
 20
3.260548
 30
0.0
 10
2.335752
 20
2.787035
 30
0.0
 10
2.522490
 20
1.865664
 30
0.0
 10
2.864631
 20
1.251634
 30
0.0
 10
3.300299
 20
1.649059
 30
0.0
 10
3.611581
 20
2.254002
 30
0.0
 10
3.300141
 20
2.597410
 30
0.0
 10
2.958000
 20
2.534023
 30
0.0
 10
3.338538
 20
3.155025
 30
0.0
 10
3.711060
 20
3.412722
 30
0.0
 10
4.264846
 20
3.473287
 30
0.0
 10
4.848829
 20
3.179409
 30
0.0
 10
4.939000
 20
2.669631
 30
0.0
  0
LWPOLYLINE
  5
15f
100
AcDbEntity
  8
w_
 62
7
100
AcDbPolyline
 90
46
 70
0
 10
5.788348
 20
2.579908
 30
0.0
 10
5.518686
 20
1.713118
 30
0.0
 10
5.105493
 20
1.011909
 30
0.0
 10
4.647666
 20
0.529930
 30
0.0
 10
3.676930
 20
0.026558
 30
0.0
 10
2.998363
 20
-0.057092
 30
0.0
 10
2.386560
 20
0.195892
 30
0.0
 10
2.189694
 20
0.656450
 30
0.0
 10
1.691833
 20
0.232016
 30
0.0
 10
1.225401
 20
0.019249
 30
0.0
 10
0.727128
 20
-0.057092
 30
0.0
 10
0.030427
 20
0.155647
 30
0.0
 10
-0.154337
 20
0.719555
 30
0.0
 10
0.021956
 20
1.514406
 30
0.0
 10
0.198249
 20
2.110262
 30
0.0
 10
0.011511
 20
2.345099
 30
0.0
 10
-0.341075
 20
2.155474
 30
0.0
 10
-0.579402
 20
2.399398
 30
0.0
 10
0.084307
 20
2.923316
 30
0.0
 10
0.748017
 20
3.284362
 30
0.0
 10
1.271673
 20
3.126431
 30
0.0
 10
1.442744
 20
2.643295
 30
0.0
 10
1.328802
 20
1.929752
 30
0.0
 10
1.214544
 20
1.279597
 30
0.0
 10
1.422171
 20
0.954364
 30
0.0
 10
1.987289
 20
1.342702
 30
0.0
 10
2.283063
 20
2.110262
 30
0.0
 10
2.205044
 20
2.349784
 30
0.0
 10
1.961494
 20
2.453670
 30
0.0
 10
1.619037
 20
2.390282
 30
0.0
 10
2.125163
 20
3.130636
 30
0.0
 10
2.894866
 20
3.329574
 30
0.0
 10
3.434189
 20
3.103825
 30
0.0
 10
3.517113
 20
2.579908
 30
0.0
 10
3.377060
 20
1.880138
 30
0.0
 10
3.247452
 20
1.261394
 30
0.0
 10
3.548131
 20
0.954364
 30
0.0
 10
4.113407
 20
1.342702
 30
0.0
 10
4.409022
 20
2.110262
 30
0.0
 10
4.331321
 20
2.349784
 30
0.0
 10
4.087454
 20
2.453670
 30
0.0
 10
3.745313
 20
2.390282
 30
0.0
 10
4.220237
 20
3.108594
 30
0.0
 10
5.020825
 20
3.329574
 30
0.0
 10
5.640035
 20
3.103599
 30
0.0
 10
5.788348
 20
2.579908
 30
0.0
  0
LWPOLYLINE
  5
160
100
AcDbEntity
  8
x_
 62
7
100
AcDbPolyline
 90
29
 70
0
 10
5.161443
 20
1.426075
 30
0.0
 10
4.375784
 20
0.490367
 30
0.0
 10
3.618391
 20
0.078408
 30
0.0
 10
2.962687
 20
-0.000728
 30
0.0
 10
2.299426
 20
0.261344
 30
0.0
 10
1.915374
 20
0.947624
 30
0.0
 10
0.681008
 20
0.026281
 30
0.0
 10
0.535732
 20
0.044343
 30
0.0
 10
0.338866
 20
0.396585
 30
0.0
 10
0.359439
 20
0.477893
 30
0.0
 10
1.770099
 20
1.543367
 30
0.0
 10
1.624823
 20
2.220813
 30
0.0
 10
1.355162
 20
2.509667
 30
0.0
 10
0.950669
 20
2.310955
 30
0.0
 10
0.732914
 20
2.563967
 30
0.0
 10
1.510882
 20
3.187114
 30
0.0
 10
2.184719
 20
3.448931
 30
0.0
 10
2.624835
 20
3.124009
 30
0.0
 10
2.858874
 20
2.374342
 30
0.0
 10
4.207182
 20
3.394914
 30
0.0
 10
4.342013
 20
3.367538
 30
0.0
 10
4.570212
 20
3.033500
 30
0.0
 10
4.539196
 20
2.934017
 30
0.0
 10
2.973133
 20
1.760198
 30
0.0
 10
3.245228
 20
1.121303
 30
0.0
 10
3.533029
 20
0.974435
 30
0.0
 10
4.393920
 20
1.236281
 30
0.0
 10
4.964261
 20
1.651599
 30
0.0
 10
5.161443
 20
1.426075
 30
0.0
  0
LWPOLYLINE
  5
161
100
AcDbEntity
  8
y_
 62
7
100
AcDbPolyline
 90
42
 70
0
 10
5.863415
 20
1.296987
 30
0.0
 10
4.899851
 20
0.640735
 30
0.0
 10
3.882415
 20
0.150205
 30
0.0
 10
2.855675
 20
-1.656130
 30
0.0
 10
2.173406
 20
-2.237677
 30
0.0
 10
1.413997
 20
-2.450727
 30
0.0
 10
0.504854
 20
-2.120499
 30
0.0
 10
0.397702
 20
-1.574822
 30
0.0
 10
0.767296
 20
-0.919079
 30
0.0
 10
1.154780
 20
-0.626471
 30
0.0
 10
2.772750
 20
0.132002
 30
0.0
 10
2.969616
 20
0.746343
 30
0.0
 10
2.492644
 20
0.412022
 30
0.0
 10
1.923432
 20
0.149471
 30
0.0
 10
1.289611
 20
0.023685
 30
0.0
 10
0.563550
 20
0.231485
 30
0.0
 10
0.408147
 20
0.800360
 30
0.0
 10
0.599790
 20
1.622220
 30
0.0
 10
0.781305
 20
2.191067
 30
0.0
 10
0.594884
 20
2.425876
 30
0.0
 10
0.241982
 20
2.236279
 30
0.0
 10
0.003654
 20
2.480175
 30
0.0
 10
0.667364
 20
3.004121
 30
0.0
 10
1.341518
 20
3.365168
 30
0.0
 10
1.849666
 20
3.207236
 30
0.0
 10
2.026117
 20
2.724100
 30
0.0
 10
1.911859
 20
2.055741
 30
0.0
 10
1.777028
 20
1.360374
 30
0.0
 10
1.984338
 20
1.035169
 30
0.0
 10
2.694890
 20
1.436997
 30
0.0
 10
3.104447
 20
2.191067
 30
0.0
 10
3.021523
 20
2.430560
 30
0.0
 10
2.783195
 20
2.534475
 30
0.0
 10
2.440737
 20
2.471088
 30
0.0
 10
2.766646
 20
3.063472
 30
0.0
 10
3.124240
 20
3.312731
 30
0.0
 10
3.706122
 20
3.410351
 30
0.0
 10
4.308842
 20
3.197584
 30
0.0
 10
4.473645
 20
2.642792
 30
0.0
 10
4.058707
 20
0.637744
 30
0.0
 10
5.697250
 20
1.531824
 30
0.0
 10
5.863415
 20
1.296987
 30
0.0
  0
LWPOLYLINE
  5
162
100
AcDbEntity
  8
y_
 62
7
100
AcDbPolyline
 90
6
 70
0
 10
2.472071
 20
-0.445933
 30
0.0
 10
1.751270
 20
-0.817112
 30
0.0
 10
1.538384
 20
-1.069108
 30
0.0
 10
1.694104
 20
-1.195600
 30
0.0
 10
1.963449
 20
-1.075204
 30
0.0
 10
2.472071
 20
-0.445933
 30
0.0
  0
LWPOLYLINE
  5
163
100
AcDbEntity
  8
z_
 62
7
100
AcDbPolyline
 90
30
 70
0
 10
5.355109
 20
1.321201
 30
0.0
 10
5.055805
 20
0.915648
 30
0.0
 10
4.556569
 20
0.454158
 30
0.0
 10
3.876349
 20
0.067034
 30
0.0
 10
3.166798
 20
-0.069505
 30
0.0
 10
2.248936
 20
0.038812
 30
0.0
 10
1.413997
 20
0.147129
 30
0.0
 10
0.983710
 20
0.070364
 30
0.0
 10
0.563550
 20
-0.006400
 30
0.0
 10
0.241982
 20
0.165304
 30
0.0
 10
0.511644
 20
0.490537
 30
0.0
 10
2.627475
 20
2.251378
 30
0.0
 10
1.870397
 20
2.373495
 30
0.0
 10
1.050967
 20
2.504390
 30
0.0
 10
0.460053
 20
2.423082
 30
0.0
 10
1.030236
 20
3.046256
 30
0.0
 10
1.777028
 20
3.290153
 30
0.0
 10
2.549615
 20
3.172748
 30
0.0
 10
3.249722
 20
3.055344
 30
0.0
 10
4.162521
 20
3.271978
 30
0.0
 10
4.364767
 20
3.258431
 30
0.0
 10
4.494217
 20
3.100500
 30
0.0
 10
4.390720
 20
2.829312
 30
0.0
 10
2.316351
 20
1.086364
 30
0.0
 10
2.941813
 20
0.902468
 30
0.0
 10
3.508939
 20
0.842722
 30
0.0
 10
4.058707
 20
0.896739
 30
0.0
 10
4.660382
 20
1.176760
 30
0.0
 10
5.157927
 20
1.546923
 30
0.0
 10
5.355109
 20
1.321201
 30
0.0
  0
LWPOLYLINE
  5
164
100
AcDbEntity
  8
1
 62
7
100
AcDbPolyline
 90
27
 70
0
 10
3.853337
 20
0.553524
 30
0.0
 10
3.616411
 20
0.177406
 30
0.0
 10
2.968361
 20
0.002598
 30
0.0
 10
2.254813
 20
0.210257
 30
0.0
 10
1.658949
 20
0.417944
 30
0.0
 10
1.270618
 20
0.192195
 30
0.0
 10
1.478151
 20
-0.096632
 30
0.0
 10
1.019099
 20
0.031836
 30
0.0
 10
0.918392
 20
0.327802
 30
0.0
 10
1.288533
 20
0.851466
 30
0.0
 10
1.803368
 20
1.194592
 30
0.0
 10
2.200794
 20
2.504272
 30
0.0
 10
2.372222
 20
4.120728
 30
0.0
 10
1.848567
 20
3.895007
 30
0.0
 10
1.473741
 20
4.093719
 30
0.0
 10
1.306723
 20
4.662566
 30
0.0
 10
1.324637
 20
4.897375
 30
0.0
 10
1.857387
 20
4.689857
 30
0.0
 10
2.522975
 20
4.935447
 30
0.0
 10
3.266293
 20
5.836639
 30
0.0
 10
3.790224
 20
5.267792
 30
0.0
 10
3.564501
 20
4.500232
 30
0.0
 10
3.194084
 20
2.702985
 30
0.0
 10
2.995371
 20
1.068354
 30
0.0
 10
3.374607
 20
0.490419
 30
0.0
 10
3.735929
 20
0.851466
 30
0.0
 10
3.853337
 20
0.553524
 30
0.0
  0
LWPOLYLINE
  5
165
100
AcDbEntity
  8
2
 62
7
100
AcDbPolyline
 90
51
 70
0
 10
4.795759
 20
1.098156
 30
0.0
 10
4.263010
 20
0.258376
 30
0.0
 10
3.459338
 20
0.041770
 30
0.0
 10
2.520067
 20
0.312534
 30
0.0
 10
1.517406
 20
0.574521
 30
0.0
 10
0.776386
 20
0.398189
 30
0.0
 10
0.587231
 20
-0.021617
 30
0.0
 10
0.451907
 20
0.294500
 30
0.0
 10
0.849333
 20
1.062060
 30
0.0
 10
1.508587
 20
1.676401
 30
0.0
 10
1.228569
 20
1.612986
 30
0.0
 10
1.038951
 20
1.893007
 30
0.0
 10
1.309736
 20
2.335644
 30
0.0
 10
1.905737
 20
2.669682
 30
0.0
 10
1.734309
 20
2.552278
 30
0.0
 10
1.535596
 20
2.245248
 30
0.0
 10
1.589753
 20
2.123413
 30
0.0
 10
1.770414
 20
2.064711
 30
0.0
 10
2.700590
 20
2.755393
 30
0.0
 10
3.314644
 20
3.961188
 30
0.0
 10
3.332833
 20
4.195997
 30
0.0
 10
2.908397
 20
4.756038
 30
0.0
 10
2.483961
 20
4.620431
 30
0.0
 10
2.230953
 20
4.186909
 30
0.0
 10
2.583180
 20
3.762475
 30
0.0
 10
3.034625
 20
3.988196
 30
0.0
 10
2.836188
 20
3.500629
 30
0.0
 10
2.434919
 20
3.143082
 30
0.0
 10
1.815613
 20
3.004003
 30
0.0
 10
1.251514
 20
3.179545
 30
0.0
 10
1.029855
 20
3.843755
 30
0.0
 10
1.075055
 20
4.232093
 30
0.0
 10
1.643909
 20
5.080961
 30
0.0
 10
2.320150
 20
5.496364
 30
0.0
 10
3.152034
 20
5.641003
 30
0.0
 10
4.217809
 20
5.315798
 30
0.0
 10
4.546429
 20
4.894384
 30
0.0
 10
4.660435
 20
4.304314
 30
0.0
 10
4.642245
 20
4.015459
 30
0.0
 10
4.462097
 20
3.494703
 30
0.0
 10
4.064296
 20
2.958791
 30
0.0
 10
3.007617
 20
2.073544
 30
0.0
 10
2.014327
 20
1.405468
 30
0.0
 10
2.736694
 20
1.522872
 30
0.0
 10
3.206329
 20
1.342222
 30
0.0
 10
3.612851
 20
1.197668
 30
0.0
 10
3.946887
 20
1.486776
 30
0.0
 10
3.648956
 20
1.965228
 30
0.0
 10
4.213707
 20
1.924136
 30
0.0
 10
4.603370
 20
1.730193
 30
0.0
 10
4.795759
 20
1.098156
 30
0.0
  0
LWPOLYLINE
  5
166
100
AcDbEntity
  8
3
 62
7
100
AcDbPolyline
 90
45
 70
0
 10
4.783878
 20
4.670864
 30
0.0
 10
4.359442
 20
4.436055
 30
0.0
 10
3.438362
 20
3.614196
 30
0.0
 10
4.261769
 20
3.126628
 30
0.0
 10
4.621270
 20
2.169190
 30
0.0
 10
4.603354
 20
1.925547
 30
0.0
 10
4.394097
 20
1.242626
 30
0.0
 10
3.681998
 20
0.462338
 30
0.0
 10
2.128673
 20
0.001808
 30
0.0
 10
0.923166
 20
0.426242
 30
0.0
 10
0.530149
 20
1.437726
 30
0.0
 10
1.026794
 20
2.358786
 30
0.0
 10
1.912046
 20
2.711028
 30
0.0
 10
2.526100
 20
2.444638
 30
0.0
 10
2.674168
 20
2.171306
 30
0.0
 10
2.733908
 20
1.789939
 30
0.0
 10
2.336481
 20
1.925547
 30
0.0
 10
1.984255
 20
1.776449
 30
0.0
 10
1.785542
 20
1.419805
 30
0.0
 10
1.907498
 20
1.062878
 30
0.0
 10
2.345576
 20
0.922868
 30
0.0
 10
2.914430
 20
1.243557
 30
0.0
 10
3.257562
 20
2.015661
 30
0.0
 10
3.275751
 20
2.205286
 30
0.0
 10
2.648055
 20
3.018199
 30
0.0
 10
1.975159
 20
3.126628
 30
0.0
 10
1.649942
 20
3.487675
 30
0.0
 10
1.964112
 20
3.924273
 30
0.0
 10
2.038273
 20
3.677583
 30
0.0
 10
2.173872
 20
3.541975
 30
0.0
 10
2.642221
 20
3.757847
 30
0.0
 10
3.140152
 20
4.418134
 30
0.0
 10
2.291281
 20
4.273438
 30
0.0
 10
1.695141
 20
4.481239
 30
0.0
 10
1.352010
 20
5.149597
 30
0.0
 10
1.361105
 20
5.294010
 30
0.0
 10
1.706705
 20
5.916818
 30
0.0
 10
2.090154
 20
6.182051
 30
0.0
 10
2.119577
 20
6.025474
 30
0.0
 10
1.966064
 20
5.682348
 30
0.0
 10
2.255176
 20
5.284923
 30
0.0
 10
3.086133
 20
5.185694
 30
0.0
 10
4.522049
 20
5.601040
 30
0.0
 10
4.476849
 20
5.248827
 30
0.0
 10
4.783878
 20
4.670864
 30
0.0
  0
LWPOLYLINE
  5
167
100
AcDbEntity
  8
4
 62
7
100
AcDbPolyline
 90
3
 70
0
 10
4.240268
 20
3.139103
 30
0.0
 10
4.213259
 20
3.147852
 30
0.0
 10
4.240268
 20
3.139103
 30
0.0
  0
LWPOLYLINE
  5
168
100
AcDbEntity
  8
4
 62
7
100
AcDbPolyline
 90
7
 70
0
 10
2.804352
 20
3.707950
 30
0.0
 10
2.768248
 20
2.642194
 30
0.0
 10
2.497325
 20
2.660256
 30
0.0
 10
1.539865
 20
2.488552
 30
0.0
 10
2.333023
 20
3.204719
 30
0.0
 10
2.804352
 20
3.707837
 30
0.0
 10
2.804352
 20
3.707950
 30
0.0
  0
LWPOLYLINE
  5
169
100
AcDbEntity
  8
4
 62
7
100
AcDbPolyline
 90
37
 70
0
 10
4.872512
 20
2.389464
 30
0.0
 10
4.797863
 20
2.736541
 30
0.0
 10
4.240268
 20
3.139103
 30
0.0
 10
4.375592
 20
2.868198
 30
0.0
 10
4.209428
 20
2.546690
 30
0.0
 10
3.905956
 20
2.452569
 30
0.0
 10
3.590110
 20
2.488665
 30
0.0
 10
3.784826
 20
3.538786
 30
0.0
 10
4.131954
 20
5.116860
 30
0.0
 10
3.255798
 20
5.902623
 30
0.0
 10
2.631597
 20
4.742830
 30
0.0
 10
1.846892
 20
3.815335
 30
0.0
 10
0.957792
 20
2.983401
 30
0.0
 10
0.086034
 20
2.281147
 30
0.0
 10
0.700088
 20
1.287584
 30
0.0
 10
1.437313
 20
1.625658
 30
0.0
 10
2.054700
 20
1.748114
 30
0.0
 10
2.623554
 20
1.685009
 30
0.0
 10
2.244318
 20
0.727824
 30
0.0
 10
1.892091
 20
0.519996
 30
0.0
 10
1.675464
 20
0.718708
 30
0.0
 10
1.828977
 20
1.025738
 30
0.0
 10
1.546360
 20
0.926537
 30
0.0
 10
1.404541
 20
0.556120
 30
0.0
 10
1.991585
 20
-0.012727
 30
0.0
 10
2.763700
 20
0.167782
 30
0.0
 10
3.337102
 20
0.348292
 30
0.0
 10
3.707519
 20
0.140774
 30
0.0
 10
3.571920
 20
-0.184431
 30
0.0
 10
3.833747
 20
-0.067026
 30
0.0
 10
4.131954
 20
0.267012
 30
0.0
 10
3.996356
 20
0.673525
 30
0.0
 10
3.698423
 20
0.944458
 30
0.0
 10
3.508805
 20
1.531480
 30
0.0
 10
3.653224
 20
1.531480
 30
0.0
 10
4.509442
 20
1.754125
 30
0.0
 10
4.872512
 20
2.389464
 30
0.0
  0
LWPOLYLINE
  5
16a
100
AcDbEntity
  8
5
 62
7
100
AcDbPolyline
 90
48
 70
0
 10
4.660622
 20
5.116239
 30
0.0
 10
4.540372
 20
4.752708
 30
0.0
 10
4.181892
 20
4.402696
 30
0.0
 10
3.441334
 20
4.204266
 30
0.0
 10
2.465958
 20
4.402696
 30
0.0
 10
2.240236
 20
3.743453
 30
0.0
 10
2.881575
 20
3.879033
 30
0.0
 10
4.118777
 20
3.463715
 30
0.0
 10
4.546920
 20
2.730614
 30
0.0
 10
4.552308
 20
1.837889
 30
0.0
 10
4.140030
 20
0.916631
 30
0.0
 10
3.594847
 20
0.438095
 30
0.0
 10
2.931202
 20
0.119805
 30
0.0
 10
2.068808
 20
-0.013348
 30
0.0
 10
0.858614
 20
0.338866
 30
0.0
 10
0.334684
 20
1.305138
 30
0.0
 10
0.343779
 20
1.485676
 30
0.0
 10
0.912634
 20
2.470151
 30
0.0
 10
1.734496
 20
2.759260
 30
0.0
 10
2.321540
 20
2.524423
 30
0.0
 10
1.933209
 20
2.343631
 30
0.0
 10
1.490583
 20
1.765696
 30
0.0
 10
1.761781
 20
1.178646
 30
0.0
 10
2.330635
 20
1.061242
 30
0.0
 10
2.989888
 20
1.296050
 30
0.0
 10
3.432514
 20
1.892188
 30
0.0
 10
2.836375
 20
1.612168
 30
0.0
 10
2.429854
 20
2.081814
 30
0.0
 10
2.568623
 20
2.379417
 30
0.0
 10
2.944689
 20
2.687039
 30
0.0
 10
2.827280
 20
2.379727
 30
0.0
 10
3.025993
 20
2.163122
 30
0.0
 10
3.333020
 20
2.488326
 30
0.0
 10
3.125349
 20
2.881067
 30
0.0
 10
2.574548
 20
3.093298
 30
0.0
 10
1.761781
 20
2.903673
 30
0.0
 10
1.553973
 20
3.165490
 30
0.0
 10
0.966928
 20
3.572032
 30
0.0
 10
1.440496
 20
4.444832
 30
0.0
 10
1.617087
 20
5.314951
 30
0.0
 10
1.599172
 20
5.558876
 30
0.0
 10
3.098202
 20
5.206634
 30
0.0
 10
3.847855
 20
5.351076
 30
0.0
 10
3.992273
 20
5.667193
 30
0.0
 10
3.784741
 20
6.082539
 30
0.0
 10
4.397457
 20
5.876799
 30
0.0
 10
4.669717
 20
5.269768
 30
0.0
 10
4.660622
 20
5.116239
 30
0.0
  0
LWPOLYLINE
  5
16b
100
AcDbEntity
  8
6
 62
7
100
AcDbPolyline
 90
29
 70
0
 10
2.190299
 20
-0.006687
 30
0.0
 10
1.413788
 20
0.138206
 30
0.0
 10
0.790487
 20
0.616459
 30
0.0
 10
0.494497
 20
1.129229
 30
0.0
 10
0.329671
 20
2.097590
 30
0.0
 10
0.365776
 20
2.585129
 30
0.0
 10
0.768516
 20
3.822588
 30
0.0
 10
1.232838
 20
4.535877
 30
0.0
 10
2.105876
 20
5.322204
 30
0.0
 10
3.255798
 20
5.637757
 30
0.0
 10
4.285468
 20
5.312552
 30
0.0
 10
4.520286
 20
4.635388
 30
0.0
 10
4.217668
 20
4.007557
 30
0.0
 10
3.608024
 20
3.750142
 30
0.0
 10
3.120004
 20
3.938441
 30
0.0
 10
2.912666
 20
4.454597
 30
0.0
 10
3.219693
 20
4.255884
 30
0.0
 10
3.463606
 20
4.572001
 30
0.0
 10
3.391259
 20
4.775258
 30
0.0
 10
3.093189
 20
4.852022
 30
0.0
 10
2.298612
 20
4.328359
 30
0.0
 10
1.720663
 20
2.973466
 30
0.0
 10
3.093189
 20
3.560517
 30
0.0
 10
4.185974
 20
3.126995
 30
0.0
 10
4.556390
 20
2.115511
 30
0.0
 10
4.353915
 20
1.231280
 30
0.0
 10
3.824928
 20
0.580363
 30
0.0
 10
3.204312
 20
0.193662
 30
0.0
 10
2.190299
 20
-0.006687
 30
0.0
  0
LWPOLYLINE
  5
16c
100
AcDbEntity
  8
6
 62
7
100
AcDbPolyline
 90
12
 70
0
 10
3.283083
 20
1.989273
 30
0.0
 10
3.147484
 20
2.490471
 30
0.0
 10
2.768248
 20
2.675524
 30
0.0
 10
2.262508
 20
2.278099
 30
0.0
 10
2.352632
 20
1.971070
 30
0.0
 10
2.732143
 20
1.889790
 30
0.0
 10
2.414545
 20
1.634378
 30
0.0
 10
1.991586
 20
1.528743
 30
0.0
 10
1.738578
 20
1.600935
 30
0.0
 10
2.379917
 20
1.031806
 30
0.0
 10
3.048265
 20
1.357039
 30
0.0
 10
3.283083
 20
1.989273
 30
0.0
  0
LWPOLYLINE
  5
16d
100
AcDbEntity
  8
7
 62
7
100
AcDbPolyline
 90
32
 70
0
 10
4.782299
 20
5.315629
 30
0.0
 10
4.554845
 20
4.801504
 30
0.0
 10
4.077846
 20
4.204633
 30
0.0
 10
2.921947
 20
2.940418
 30
0.0
 10
2.307894
 20
1.748142
 30
0.0
 10
2.741425
 20
1.323708
 30
0.0
 10
3.093651
 20
1.517877
 30
0.0
 10
3.238070
 20
2.001154
 30
0.0
 10
3.391583
 20
1.341912
 30
0.0
 10
3.382487
 20
1.188383
 30
0.0
 10
2.976241
 20
0.429656
 30
0.0
 10
2.445193
 20
0.077161
 30
0.0
 10
1.910467
 20
-0.030902
 30
0.0
 10
1.034586
 20
0.303418
 30
0.0
 10
0.790673
 20
1.016679
 30
0.0
 10
1.037412
 20
1.904832
 30
0.0
 10
1.603440
 20
2.705609
 30
0.0
 10
2.967146
 20
4.087228
 30
0.0
 10
2.244779
 20
4.051132
 30
0.0
 10
1.851762
 20
4.209318
 30
0.0
 10
1.468116
 20
4.340240
 30
0.0
 10
0.944186
 20
4.024123
 30
0.0
 10
1.070690
 20
3.626698
 30
0.0
 10
0.659397
 20
3.991160
 30
0.0
 10
0.528846
 20
4.493741
 30
0.0
 10
0.555855
 20
4.728578
 30
0.0
 10
1.070690
 20
5.450926
 30
0.0
 10
1.820067
 20
5.667842
 30
0.0
 10
2.696224
 20
5.441980
 30
0.0
 10
3.707704
 20
5.225205
 30
0.0
 10
4.746194
 20
5.667842
 30
0.0
 10
4.782299
 20
5.315629
 30
0.0
  0
LWPOLYLINE
  5
16e
100
AcDbEntity
  8
8
 62
7
100
AcDbPolyline
 90
30
 70
0
 10
5.077445
 20
5.266974
 30
0.0
 10
4.436382
 20
4.291585
 30
0.0
 10
3.226189
 20
3.397534
 30
0.0
 10
4.056870
 20
2.792280
 30
0.0
 10
4.427287
 20
1.889112
 30
0.0
 10
4.418191
 20
1.690682
 30
0.0
 10
4.059626
 20
0.825896
 30
0.0
 10
3.370606
 20
0.299693
 30
0.0
 10
1.961700
 20
-0.007336
 30
0.0
 10
0.832811
 20
0.263597
 30
0.0
 10
0.405840
 20
0.725877
 30
0.0
 10
0.182652
 20
1.338468
 30
0.0
 10
0.200842
 20
1.564190
 30
0.0
 10
0.629764
 20
2.453782
 30
0.0
 10
1.681682
 20
3.316225
 30
0.0
 10
1.031524
 20
4.372894
 30
0.0
 10
1.049714
 20
4.580440
 30
0.0
 10
1.385645
 20
5.312073
 30
0.0
 10
1.790272
 20
5.619187
 30
0.0
 10
2.837856
 20
5.898954
 30
0.0
 10
3.614518
 20
5.628020
 30
0.0
 10
3.912450
 20
4.941741
 30
0.0
 10
3.785946
 20
4.553431
 30
0.0
 10
4.409095
 20
5.303070
 30
0.0
 10
4.219477
 20
5.591924
 30
0.0
 10
3.885441
 20
5.465686
 30
0.0
 10
4.170996
 20
5.816319
 30
0.0
 10
4.580799
 20
5.862829
 30
0.0
 10
4.969268
 20
5.677776
 30
0.0
 10
5.077445
 20
5.266974
 30
0.0
  0
LWPOLYLINE
  5
16f
100
AcDbEntity
  8
8
 62
7
100
AcDbPolyline
 90
11
 70
0
 10
3.126694
 20
4.770065
 30
0.0
 10
2.729544
 20
5.059173
 30
0.0
 10
2.359127
 20
4.914619
 30
0.0
 10
2.133404
 20
4.517307
 30
0.0
 10
2.539650
 20
3.812852
 30
0.0
 10
3.072675
 20
4.110794
 30
0.0
 10
3.054486
 20
4.110794
 30
0.0
 10
2.712253
 20
4.221086
 30
0.0
 10
2.566936
 20
4.589527
 30
0.0
 10
2.819668
 20
4.454202
 30
0.0
 10
3.126694
 20
4.770065
 30
0.0
  0
LWPOLYLINE
  5
170
100
AcDbEntity
  8
8
 62
7
100
AcDbPolyline
 90
14
 70
0
 10
3.144884
 20
1.699515
 30
0.0
 10
3.153980
 20
1.835095
 30
0.0
 10
2.404327
 20
2.837492
 30
0.0
 10
1.501161
 20
1.808086
 30
0.0
 10
2.061195
 20
1.248073
 30
0.0
 10
2.323023
 20
1.437670
 30
0.0
 10
2.214709
 20
1.591198
 30
0.0
 10
1.925596
 20
1.473794
 30
0.0
 10
2.201279
 20
1.811332
 30
0.0
 10
2.476536
 20
1.916403
 30
0.0
 10
2.855772
 20
1.564190
 30
0.0
 10
2.738363
 20
1.238957
 30
0.0
 10
2.919162
 20
1.338468
 30
0.0
 10
3.144884
 20
1.699515
 30
0.0
  0
LWPOLYLINE
  5
171
100
AcDbEntity
  8
9
 62
7
100
AcDbPolyline
 90
30
 70
0
 10
4.716399
 20
3.093496
 30
0.0
 10
4.427681
 20
1.984757
 30
0.0
 10
3.831147
 20
1.115739
 30
0.0
 10
3.043759
 20
0.293089
 30
0.0
 10
1.762988
 20
-0.013150
 30
0.0
 10
0.724498
 20
0.312054
 30
0.0
 10
0.489680
 20
1.007422
 30
0.0
 10
0.801255
 20
1.639656
 30
0.0
 10
1.410761
 20
1.901502
 30
0.0
 10
2.073076
 20
1.671039
 30
0.0
 10
1.735978
 20
1.504076
 30
0.0
 10
1.492065
 20
1.197047
 30
0.0
 10
1.555455
 20
0.989501
 30
0.0
 10
1.871577
 20
0.899105
 30
0.0
 10
2.684344
 20
1.368751
 30
0.0
 10
3.091094
 20
1.947306
 30
0.0
 10
3.289303
 20
2.705158
 30
0.0
 10
1.925596
 20
2.091099
 30
0.0
 10
1.277095
 20
2.217393
 30
0.0
 10
0.823992
 20
2.533736
 30
0.0
 10
0.453576
 20
3.572229
 30
0.0
 10
0.705169
 20
4.512114
 30
0.0
 10
1.185038
 20
5.143727
 30
0.0
 10
1.815833
 20
5.499807
 30
0.0
 10
2.855772
 20
5.748699
 30
0.0
 10
3.608462
 20
5.564718
 30
0.0
 10
4.282868
 20
5.107631
 30
0.0
 10
4.644342
 20
4.378566
 30
0.0
 10
4.752504
 20
3.581317
 30
0.0
 10
4.716399
 20
3.093496
 30
0.0
  0
LWPOLYLINE
  5
172
100
AcDbEntity
  8
9
 62
7
100
AcDbPolyline
 90
11
 70
0
 10
3.262293
 20
4.087059
 30
0.0
 10
2.657059
 20
4.610722
 30
0.0
 10
1.799092
 20
3.707837
 30
0.0
 10
1.921049
 20
3.247137
 30
0.0
 10
2.296013
 20
3.066487
 30
0.0
 10
2.774468
 20
3.436904
 30
0.0
 10
2.684344
 20
3.730274
 30
0.0
 10
2.292951
 20
3.618260
 30
0.0
 10
2.664601
 20
4.111612
 30
0.0
 10
3.027475
 20
4.150164
 30
0.0
 10
3.262293
 20
4.087059
 30
0.0
  0
LWPOLYLINE
  5
173
100
AcDbEntity
  8
0
 62
7
100
AcDbPolyline
 90
15
 70
0
 10
4.658670
 20
2.729993
 30
0.0
 10
4.263065
 20
1.561311
 30
0.0
 10
3.547696
 20
0.670928
 30
0.0
 10
2.193084
 20
-0.042614
 30
0.0
 10
1.091205
 20
0.517399
 30
0.0
 10
0.594142
 20
1.252560
 30
0.0
 10
0.386752
 20
2.359859
 30
0.0
 10
0.423132
 20
2.883494
 30
0.0
 10
0.812259
 20
4.042750
 30
0.0
 10
1.624230
 20
4.987771
 30
0.0
 10
3.051051
 20
5.656102
 30
0.0
 10
3.611086
 20
5.421293
 30
0.0
 10
4.342548
 20
4.653733
 30
0.0
 10
4.694775
 20
3.262744
 30
0.0
 10
4.658670
 20
2.729993
 30
0.0
  0
LWPOLYLINE
  5
174
100
AcDbEntity
  8
0
 62
7
100
AcDbPolyline
 90
19
 70
0
 10
3.511591
 20
3.271832
 30
0.0
 10
3.285869
 20
4.247220
 30
0.0
 10
2.906633
 20
4.635530
 30
0.0
 10
2.554268
 20
4.450476
 30
0.0
 10
2.346598
 20
4.066682
 30
0.0
 10
2.405302
 20
3.700810
 30
0.0
 10
2.680910
 20
3.542765
 30
0.0
 10
2.742445
 20
3.957914
 30
0.0
 10
3.112027
 20
3.479632
 30
0.0
 10
3.031976
 20
2.902798
 30
0.0
 10
2.554405
 20
2.748168
 30
0.0
 10
2.093865
 20
2.964802
 30
0.0
 10
1.886057
 20
3.723557
 30
0.0
 10
1.678249
 20
2.991811
 30
0.0
 10
1.633049
 20
2.413876
 30
0.0
 10
1.804752
 20
1.375383
 30
0.0
 10
2.283483
 20
0.923658
 30
0.0
 10
3.177554
 20
1.862922
 30
0.0
 10
3.511591
 20
3.271832
 30
0.0
  0
LWPOLYLINE
  5
175
100
AcDbEntity
  8
`
 62
7
100
AcDbPolyline
 90
10
 70
0
 10
2.036800
 20
4.990763
 30
0.0
 10
2.283126
 20
5.556929
 30
0.0
 10
2.808449
 20
5.841296
 30
0.0
 10
2.885206
 20
5.981306
 30
0.0
 10
2.925858
 20
6.166529
 30
0.0
 10
2.799492
 20
6.518742
 30
0.0
 10
2.483508
 20
6.672271
 30
0.0
 10
2.076422
 20
6.423718
 30
0.0
 10
2.014059
 20
5.912218
 30
0.0
 10
2.036800
 20
4.990763
 30
0.0
  0
LWPOLYLINE
  5
176
100
AcDbEntity
  8
~
 62
7
100
AcDbPolyline
 90
15
 70
0
 10
3.446995
 20
5.522018
 30
0.0
 10
3.340633
 20
5.207481
 30
0.0
 10
2.654370
 20
4.837064
 30
0.0
 10
2.374352
 20
4.891364
 30
0.0
 10
1.841603
 20
5.107970
 30
0.0
 10
1.453272
 20
5.189278
 30
0.0
 10
1.177157
 20
4.480279
 30
0.0
 10
1.027354
 20
4.812963
 30
0.0
 10
1.028561
 20
5.469158
 30
0.0
 10
1.724195
 20
5.839574
 30
0.0
 10
1.995117
 20
5.785275
 30
0.0
 10
2.536962
 20
5.550466
 30
0.0
 10
2.898008
 20
5.469158
 30
0.0
 10
3.461938
 20
5.998465
 30
0.0
 10
3.446995
 20
5.522018
 30
0.0
  0
LWPOLYLINE
  5
177
100
AcDbEntity
  8
!
 62
7
100
AcDbPolyline
 90
19
 70
0
 10
3.813985
 20
5.200143
 30
0.0
 10
3.353445
 20
3.710066
 30
0.0
 10
2.938104
 20
2.536107
 30
0.0
 10
3.100713
 20
2.310103
 30
0.0
 10
3.407739
 20
2.635336
 30
0.0
 10
3.443844
 20
2.192699
 30
0.0
 10
3.195384
 20
1.709562
 30
0.0
 10
2.658087
 20
1.497360
 30
0.0
 10
2.044033
 20
2.147769
 30
0.0
 10
2.061948
 20
2.337394
 30
0.0
 10
2.459374
 20
4.712576
 30
0.0
 10
2.477564
 20
4.956219
 30
0.0
 10
2.364565
 20
5.457558
 30
0.0
 10
2.089233
 20
5.642752
 30
0.0
 10
1.845320
 20
5.588481
 30
0.0
 10
2.192921
 20
6.306313
 30
0.0
 10
3.019408
 20
6.419428
 30
0.0
 10
3.832175
 20
5.453156
 30
0.0
 10
3.813985
 20
5.200143
 30
0.0
  0
LWPOLYLINE
  5
178
100
AcDbEntity
  8
!
 62
7
100
AcDbPolyline
 90
8
 70
0
 10
3.172922
 20
0.747693
 30
0.0
 10
2.901999
 20
0.287162
 30
0.0
 10
2.242746
 20
0.043520
 30
0.0
 10
1.764016
 20
0.521971
 30
0.0
 10
2.107147
 20
0.996161
 30
0.0
 10
2.757305
 20
1.226426
 30
0.0
 10
3.082523
 20
1.072926
 30
0.0
 10
3.172922
 20
0.747693
 30
0.0
  0
LWPOLYLINE
  5
179
100
AcDbEntity
  8
@
 62
7
100
AcDbPolyline
 90
95
 70
0
 10
4.242574
 20
5.221395
 30
0.0
 10
4.470952
 20
5.136615
 30
0.0
 10
4.619592
 20
4.999060
 30
0.0
 10
4.505827
 20
4.952522
 30
0.0
 10
4.341399
 20
4.934742
 30
0.0
 10
4.007704
 20
4.842144
 30
0.0
 10
3.777086
 20
4.670864
 30
0.0
 10
3.475912
 20
4.482650
 30
0.0
 10
3.240296
 20
4.464870
 30
0.0
 10
3.015333
 20
4.417061
 30
0.0
 10
2.834287
 20
4.473026
 30
0.0
 10
2.801339
 20
4.062534
 30
0.0
 10
2.720098
 20
3.865373
 30
0.0
 10
2.577659
 20
3.804244
 30
0.0
 10
2.711383
 20
4.096683
 30
0.0
 10
2.645967
 20
4.267088
 30
0.0
 10
2.551779
 20
4.379074
 30
0.0
 10
2.386686
 20
4.502575
 30
0.0
 10
1.844966
 20
3.611260
 30
0.0
 10
1.735341
 20
3.363215
 30
0.0
 10
1.698518
 20
3.177513
 30
0.0
 10
1.676660
 20
2.782120
 30
0.0
 10
2.051671
 20
3.041595
 30
0.0
 10
2.352940
 20
3.141502
 30
0.0
 10
1.948528
 20
2.886429
 30
0.0
 10
1.692081
 20
2.669231
 30
0.0
 10
1.571603
 20
1.921794
 30
0.0
 10
1.676893
 20
1.549430
 30
0.0
 10
1.723539
 20
1.349644
 30
0.0
 10
1.913445
 20
0.931476
 30
0.0
 10
2.095809
 20
0.614822
 30
0.0
 10
2.227904
 20
0.531369
 30
0.0
 10
2.269903
 20
0.207350
 30
0.0
 10
2.323134
 20
-0.039566
 30
0.0
 10
2.190678
 20
-0.036744
 30
0.0
 10
2.059766
 20
0.145346
 30
0.0
 10
1.714767
 20
0.637513
 30
0.0
 10
1.478925
 20
1.255354
 30
0.0
 10
1.377623
 20
1.747945
 30
0.0
 10
1.252656
 20
2.021926
 30
0.0
 10
0.673743
 20
2.440687
 30
0.0
 10
0.578552
 20
2.572626
 30
0.0
 10
1.081567
 20
2.302257
 30
0.0
 10
1.375037
 20
2.060308
 30
0.0
 10
1.460085
 20
2.538760
 30
0.0
 10
1.501976
 20
3.673886
 30
0.0
 10
1.175420
 20
4.184764
 30
0.0
 10
1.323416
 20
4.127558
 30
0.0
 10
1.528176
 20
3.834526
 30
0.0
 10
1.602050
 20
3.670809
 30
0.0
 10
2.085682
 20
4.497241
 30
0.0
 10
1.960326
 20
4.418049
 30
0.0
 10
1.875181
 20
4.225940
 30
0.0
 10
1.777600
 20
4.304539
 30
0.0
 10
1.778165
 20
4.473675
 30
0.0
 10
1.921791
 20
4.663695
 30
0.0
 10
2.002020
 20
4.710855
 30
0.0
 10
1.783791
 20
4.815023
 30
0.0
 10
1.384749
 20
4.719350
 30
0.0
 10
1.294723
 20
4.725841
 30
0.0
 10
1.318836
 20
4.792558
 30
0.0
 10
1.460415
 20
4.909059
 30
0.0
 10
1.874578
 20
5.010236
 30
0.0
 10
1.760684
 20
5.129277
 30
0.0
 10
1.718117
 20
5.311085
 30
0.0
 10
1.743638
 20
5.449204
 30
0.0
 10
1.794516
 20
5.596045
 30
0.0
 10
1.813803
 20
5.872510
 30
0.0
 10
1.703391
 20
6.020140
 30
0.0
 10
1.740949
 20
6.134158
 30
0.0
 10
1.837206
 20
6.187357
 30
0.0
 10
2.006039
 20
6.195823
 30
0.0
 10
2.185768
 20
6.137686
 30
0.0
 10
2.329251
 20
6.004815
 30
0.0
 10
2.363502
 20
5.860769
 30
0.0
 10
2.413870
 20
5.979810
 30
0.0
 10
2.488836
 20
6.360810
 30
0.0
 10
2.591533
 20
6.373510
 30
0.0
 10
2.615181
 20
6.160997
 30
0.0
 10
2.706851
 20
6.322654
 30
0.0
 10
2.988556
 20
6.550238
 30
0.0
 10
3.105138
 20
6.588677
 30
0.0
 10
3.205673
 20
6.574001
 30
0.0
 10
3.258331
 20
6.511630
 30
0.0
 10
3.511197
 20
6.659797
 30
0.0
 10
3.815106
 20
6.514847
 30
0.0
 10
4.027227
 20
6.406135
 30
0.0
 10
4.123851
 20
6.347574
 30
0.0
 10
4.258615
 20
6.135851
 30
0.0
 10
4.422933
 20
6.053668
 30
0.0
 10
4.547172
 20
5.873130
 30
0.0
 10
4.560807
 20
5.608378
 30
0.0
 10
4.493079
 20
5.407464
 30
0.0
 10
4.351528
 20
5.264292
 30
0.0
 10
4.242574
 20
5.221395
 30
0.0
  0
LWPOLYLINE
  5
17a
100
AcDbEntity
  8
#
 62
7
100
AcDbPolyline
 90
29
 70
0
 10
5.376025
 20
4.665699
 30
0.0
 10
5.141207
 20
4.060474
 30
0.0
 10
3.940109
 20
4.060474
 30
0.0
 10
3.515673
 20
2.859364
 30
0.0
 10
4.716772
 20
2.859364
 30
0.0
 10
4.481954
 20
2.254138
 30
0.0
 10
3.316960
 20
2.254138
 30
0.0
 10
2.775116
 20
0.736912
 30
0.0
 10
2.178976
 20
0.736912
 30
0.0
 10
2.712002
 20
2.254138
 30
0.0
 10
1.547008
 20
2.254138
 30
0.0
 10
1.013983
 20
0.736912
 30
0.0
 10
0.418119
 20
0.736912
 30
0.0
 10
0.950869
 20
2.254138
 30
0.0
 10
-0.268420
 20
2.254138
 30
0.0
 10
-0.033602
 20
2.859364
 30
0.0
 10
1.149582
 20
2.859364
 30
0.0
 10
1.574018
 20
4.060474
 30
0.0
 10
0.390834
 20
4.060474
 30
0.0
 10
0.625652
 20
4.665699
 30
0.0
 10
1.790645
 20
4.665699
 30
0.0
 10
2.332765
 20
6.209934
 30
0.0
 10
2.928629
 20
6.209934
 30
0.0
 10
2.386784
 20
4.665699
 30
0.0
 10
3.560873
 20
4.665699
 30
0.0
 10
4.102718
 20
6.209934
 30
0.0
 10
4.698857
 20
6.209934
 30
0.0
 10
4.157012
 20
4.665699
 30
0.0
 10
5.376025
 20
4.665699
 30
0.0
  0
LWPOLYLINE
  5
17b
100
AcDbEntity
  8
#
 62
7
100
AcDbPolyline
 90
5
 70
0
 10
3.344246
 20
4.060474
 30
0.0
 10
2.170157
 20
4.060474
 30
0.0
 10
1.754541
 20
2.859364
 30
0.0
 10
2.919534
 20
2.859364
 30
0.0
 10
3.344246
 20
4.060474
 30
0.0
  0
LWPOLYLINE
  5
17c
100
AcDbEntity
  8
$
 62
7
100
AcDbPolyline
 90
49
 70
0
 10
4.251598
 20
5.075204
 30
0.0
 10
4.084580
 20
4.515190
 30
0.0
 10
3.574154
 20
4.280353
 30
0.0
 10
3.201203
 20
4.394201
 30
0.0
 10
2.978291
 20
4.713903
 30
0.0
 10
3.113614
 20
4.686809
 30
0.0
 10
3.303232
 20
4.885522
 30
0.0
 10
3.231023
 20
4.993839
 30
0.0
 10
3.068414
 20
5.048110
 30
0.0
 10
2.734378
 20
4.668606
 30
0.0
 10
3.258308
 20
3.575813
 30
0.0
 10
3.935476
 20
2.383820
 30
0.0
 10
3.980676
 20
2.058615
 30
0.0
 10
3.520135
 20
1.237010
 30
0.0
 10
2.517750
 20
0.911805
 30
0.0
 10
2.391246
 20
-0.063583
 30
0.0
 10
2.084219
 20
-0.063583
 30
0.0
 10
2.219543
 20
0.902717
 30
0.0
 10
1.993820
 20
0.911748
 30
0.0
 10
1.858497
 20
-0.063640
 30
0.0
 10
1.560289
 20
-0.063640
 30
0.0
 10
1.695888
 20
0.947845
 30
0.0
 10
0.931480
 20
1.228994
 30
0.0
 10
0.530895
 20
2.067646
 30
0.0
 10
0.824279
 20
2.708855
 30
0.0
 10
1.551194
 20
2.934717
 30
0.0
 10
1.951684
 20
2.727482
 30
0.0
 10
2.048115
 20
2.329464
 30
0.0
 10
2.039020
 20
2.185050
 30
0.0
 10
1.677698
 20
2.311571
 30
0.0
 10
1.461070
 20
2.049725
 30
0.0
 10
1.777192
 20
1.823721
 30
0.0
 10
2.273700
 20
1.941267
 30
0.0
 10
2.427351
 20
2.347667
 30
0.0
 10
2.102134
 20
2.988989
 30
0.0
 10
1.551194
 20
3.855778
 30
0.0
 10
1.316376
 20
4.894553
 30
0.0
 10
1.587574
 20
5.409101
 30
0.0
 10
2.328132
 20
5.815642
 30
0.0
 10
2.454360
 20
6.763993
 30
0.0
 10
2.761387
 20
6.763993
 30
0.0
 10
2.643978
 20
5.869941
 30
0.0
 10
2.860882
 20
5.887721
 30
0.0
 10
2.969196
 20
6.763880
 30
0.0
 10
3.276222
 20
6.763880
 30
0.0
 10
3.158814
 20
5.878634
 30
0.0
 10
3.845836
 20
5.644841
 30
0.0
 10
4.251598
 20
5.074950
 30
0.0
 10
4.251598
 20
5.075204
 30
0.0
  0
LWPOLYLINE
  5
17d
100
AcDbEntity
  8
%
 62
7
100
AcDbPolyline
 90
10
 70
0
 10
4.822867
 20
2.527986
 30
0.0
 10
4.423180
 20
1.245568
 30
0.0
 10
3.457302
 20
0.685554
 30
0.0
 10
2.737824
 20
1.100872
 30
0.0
 10
2.537981
 20
1.877548
 30
0.0
 10
2.911036
 20
3.169053
 30
0.0
 10
3.308184
 20
3.708803
 30
0.0
 10
3.996860
 20
3.819209
 30
0.0
 10
4.636238
 20
3.430871
 30
0.0
 10
4.822867
 20
2.527986
 30
0.0
  0
LWPOLYLINE
  5
17e
100
AcDbEntity
  8
%
 62
7
100
AcDbPolyline
 90
17
 70
0
 10
3.916963
 20
6.465296
 30
0.0
 10
1.551977
 20
0.812046
 30
0.0
 10
1.178921
 20
0.812046
 30
0.0
 10
3.070829
 20
5.264215
 30
0.0
 10
2.444666
 20
4.812772
 30
0.0
 10
2.031561
 20
3.629584
 30
0.0
 10
1.092316
 20
3.132929
 30
0.0
 10
0.366129
 20
3.548275
 30
0.0
 10
0.166285
 20
4.316117
 30
0.0
 10
0.539340
 20
5.607623
 30
0.0
 10
0.972049
 20
6.022884
 30
0.0
 10
1.625164
 20
6.257778
 30
0.0
 10
2.218336
 20
5.990344
 30
0.0
 10
2.444666
 20
5.381619
 30
0.0
 10
3.070829
 20
5.769957
 30
0.0
 10
3.537199
 20
6.465296
 30
0.0
 10
3.916963
 20
6.465296
 30
0.0
  0
LWPOLYLINE
  5
17f
100
AcDbEntity
  8
%
 62
7
100
AcDbPolyline
 90
8
 70
0
 10
4.143439
 20
2.554994
 30
0.0
 10
4.096680
 20
2.961366
 30
0.0
 10
3.950101
 20
3.142045
 30
0.0
 10
3.443885
 20
2.699407
 30
0.0
 10
3.270673
 20
1.913644
 30
0.0
 10
3.510567
 20
1.380893
 30
0.0
 10
3.970228
 20
1.805327
 30
0.0
 10
4.143439
 20
2.554994
 30
0.0
  0
LWPOLYLINE
  5
180
100
AcDbEntity
  8
%
 62
7
100
AcDbPolyline
 90
8
 70
0
 10
1.758529
 20
4.776648
 30
0.0
 10
1.505421
 20
5.273302
 30
0.0
 10
1.578609
 20
5.580332
 30
0.0
 10
1.072392
 20
5.137977
 30
0.0
 10
0.899181
 20
4.361329
 30
0.0
 10
1.138871
 20
3.819209
 30
0.0
 10
1.558685
 20
4.144413
 30
0.0
 10
1.758529
 20
4.776648
 30
0.0
  0
LWPOLYLINE
  5
181
100
AcDbEntity
  8
^
 62
7
100
AcDbPolyline
 90
9
 70
0
 10
3.741128
 20
5.150867
 30
0.0
 10
3.515405
 20
4.943349
 30
0.0
 10
2.522115
 20
5.638688
 30
0.0
 10
1.357122
 20
4.943349
 30
0.0
 10
1.176323
 20
5.150867
 30
0.0
 10
2.040675
 20
5.894100
 30
0.0
 10
2.657439
 20
6.424452
 30
0.0
 10
3.213006
 20
5.771530
 30
0.0
 10
3.741128
 20
5.150867
 30
0.0
  0
LWPOLYLINE
  5
182
100
AcDbEntity
  8
&
 62
7
100
AcDbPolyline
 90
48
 70
0
 10
5.217312
 20
4.430467
 30
0.0
 10
4.061414
 20
3.581599
 30
0.0
 10
4.548964
 20
2.335306
 30
0.0
 10
3.903215
 20
1.021335
 30
0.0
 10
2.489899
 20
0.484041
 30
0.0
 10
1.216592
 20
0.863291
 30
0.0
 10
0.710852
 20
2.001267
 30
0.0
 10
1.072173
 20
3.193261
 30
0.0
 10
0.358625
 20
3.075857
 30
0.0
 10
-0.246471
 20
3.400948
 30
0.0
 10
-0.472332
 20
4.105516
 30
0.0
 10
-0.463237
 20
4.303975
 30
0.0
 10
0.105617
 20
5.216230
 30
0.0
 10
1.126193
 20
5.541435
 30
0.0
 10
1.776627
 20
5.478048
 30
0.0
 10
2.390680
 20
6.128485
 30
0.0
 10
3.194352
 20
6.354206
 30
0.0
 10
4.052319
 20
6.092389
 30
0.0
 10
4.377536
 20
5.451039
 30
0.0
 10
4.074919
 20
4.827892
 30
0.0
 10
3.275657
 20
4.556959
 30
0.0
 10
2.516909
 20
4.674392
 30
0.0
 10
3.284751
 20
4.060332
 30
0.0
 10
2.607308
 20
3.798233
 30
0.0
 10
1.812731
 20
2.651423
 30
0.0
 10
1.794541
 20
2.425701
 30
0.0
 10
2.661603
 20
1.639938
 30
0.0
 10
3.366056
 20
1.928764
 30
0.0
 10
3.772302
 20
2.696606
 30
0.0
 10
3.393065
 20
3.319781
 30
0.0
 10
2.977725
 20
2.967540
 30
0.0
 10
3.009282
 20
2.786889
 30
0.0
 10
3.176438
 20
2.759796
 30
0.0
 10
3.474370
 20
2.886288
 30
0.0
 10
3.293606
 20
2.411872
 30
0.0
 10
2.842126
 20
2.254054
 30
0.0
 10
2.417828
 20
2.421214
 30
0.0
 10
2.318471
 20
2.850192
 30
0.0
 10
2.777633
 20
3.575842
 30
0.0
 10
3.690997
 20
3.942984
 30
0.0
 10
4.305189
 20
4.204802
 30
0.0
 10
4.603259
 20
4.547928
 30
0.0
 10
4.449745
 20
4.791852
 30
0.0
 10
4.365007
 20
4.923820
 30
0.0
 10
4.738582
 20
4.963641
 30
0.0
 10
5.226408
 20
4.548012
 30
0.0
 10
5.217312
 20
4.430608
 30
0.0
 10
5.217312
 20
4.430467
 30
0.0
  0
LWPOLYLINE
  5
183
100
AcDbEntity
  8
&
 62
7
100
AcDbPolyline
 90
7
 70
0
 10
3.627883
 20
5.424030
 30
0.0
 10
3.492422
 20
5.658726
 30
0.0
 10
3.149152
 20
5.731060
 30
0.0
 10
2.571203
 20
5.198027
 30
0.0
 10
3.221362
 20
5.053614
 30
0.0
 10
3.510474
 20
5.166474
 30
0.0
 10
3.627883
 20
5.424030
 30
0.0
  0
LWPOLYLINE
  5
184
100
AcDbEntity
  8
&
 62
7
100
AcDbPolyline
 90
14
 70
0
 10
2.065463
 20
4.042129
 30
0.0
 10
1.866750
 20
4.240842
 30
0.0
 10
1.659218
 20
4.900113
 30
0.0
 10
1.297896
 20
4.927206
 30
0.0
 10
0.674747
 20
4.737581
 30
0.0
 10
0.439929
 20
4.340438
 30
0.0
 10
0.801251
 20
3.915722
 30
0.0
 10
1.117097
 20
4.195743
 30
0.0
 10
0.990869
 20
4.557044
 30
0.0
 10
1.207497
 20
4.385340
 30
0.0
 10
1.460504
 20
4.015205
 30
0.0
 10
1.415305
 20
3.599859
 30
0.0
 10
2.065463
 20
4.042214
 30
0.0
 10
2.065463
 20
4.042129
 30
0.0
  0
LWPOLYLINE
  5
185
100
AcDbEntity
  8
*
 62
7
100
AcDbPolyline
 90
58
 70
0
 10
3.875610
 20
4.333467
 30
0.0
 10
3.442079
 20
4.026438
 30
0.0
 10
3.080757
 20
4.008375
 30
0.0
 10
2.683331
 20
3.900058
 30
0.0
 10
2.692426
 20
3.882278
 30
0.0
 10
3.062705
 20
3.760189
 30
0.0
 10
3.396879
 20
3.737611
 30
0.0
 10
3.749105
 20
3.439698
 30
0.0
 10
3.667801
 20
3.146158
 30
0.0
 10
3.405974
 20
2.952130
 30
0.0
 10
2.981538
 20
3.159677
 30
0.0
 10
2.850487
 20
3.412548
 30
0.0
 10
2.565922
 20
3.710603
 30
0.0
 10
2.529818
 20
3.728665
 30
0.0
 10
2.511903
 20
3.683453
 30
0.0
 10
2.547870
 20
3.258878
 30
0.0
 10
2.656321
 20
2.978998
 30
0.0
 10
2.588660
 20
2.563539
 30
0.0
 10
2.231886
 20
2.382860
 30
0.0
 10
1.960963
 20
2.491177
 30
0.0
 10
1.970058
 20
2.988114
 30
0.0
 10
2.154991
 20
3.258878
 30
0.0
 10
2.304095
 20
3.683453
 30
0.0
 10
2.295000
 20
3.692484
 30
0.0
 10
1.933816
 20
3.394401
 30
0.0
 10
1.735241
 20
3.123355
 30
0.0
 10
1.247415
 20
2.924642
 30
0.0
 10
1.030787
 20
3.123355
 30
0.0
 10
1.030787
 20
3.412463
 30
0.0
 10
1.464318
 20
3.710377
 30
0.0
 10
1.825364
 20
3.737470
 30
0.0
 10
2.204876
 20
3.854903
 30
0.0
 10
2.222791
 20
3.909174
 30
0.0
 10
1.861469
 20
4.026607
 30
0.0
 10
1.509242
 20
4.053700
 30
0.0
 10
1.157291
 20
4.351896
 30
0.0
 10
1.265605
 20
4.654382
 30
0.0
 10
1.509242
 20
4.839435
 30
0.0
 10
1.942773
 20
4.640722
 30
0.0
 10
2.069277
 20
4.387851
 30
0.0
 10
2.349295
 20
4.089796
 30
0.0
 10
2.367209
 20
4.107859
 30
0.0
 10
2.326695
 20
4.532180
 30
0.0
 10
2.213696
 20
4.803226
 30
0.0
 10
2.195781
 20
4.920630
 30
0.0
 10
2.322147
 20
5.263784
 30
0.0
 10
2.647226
 20
5.408198
 30
0.0
 10
2.909330
 20
5.299881
 30
0.0
 10
2.900234
 20
4.803226
 30
0.0
 10
2.715025
 20
4.523205
 30
0.0
 10
2.575016
 20
4.098771
 30
0.0
 10
2.602026
 20
4.071678
 30
0.0
 10
2.967895
 20
4.365217
 30
0.0
 10
3.171156
 20
4.631437
 30
0.0
 10
3.586496
 20
4.830150
 30
0.0
 10
3.857419
 20
4.635981
 30
0.0
 10
3.875608
 20
4.333524
 30
0.0
 10
3.875610
 20
4.333467
 30
0.0
  0
LWPOLYLINE
  5
186
100
AcDbEntity
  8
(
 62
7
100
AcDbPolyline
 90
13
 70
0
 10
3.669764
 20
6.861501
 30
0.0
 10
3.579640
 20
6.400688
 30
0.0
 10
2.604265
 20
5.425582
 30
0.0
 10
1.845517
 20
3.619247
 30
0.0
 10
1.818508
 20
3.131426
 30
0.0
 10
2.143725
 20
1.361470
 30
0.0
 10
2.775693
 20
0.322976
 30
0.0
 10
2.658284
 20
-0.065361
 30
0.0
 10
1.601604
 20
0.910027
 30
0.0
 10
0.861047
 20
3.122593
 30
0.0
 10
0.888332
 20
3.592239
 30
0.0
 10
2.152544
 20
5.958333
 30
0.0
 10
3.669764
 20
6.861501
 30
0.0
  0
LWPOLYLINE
  5
187
100
AcDbEntity
  8
)
 62
7
100
AcDbPolyline
 90
13
 70
0
 10
4.215128
 20
3.175481
 30
0.0
 10
2.950916
 20
0.809386
 30
0.0
 10
1.433696
 20
-0.093781
 30
0.0
 10
1.532915
 20
0.366777
 30
0.0
 10
2.508290
 20
1.333050
 30
0.0
 10
3.267038
 20
3.148472
 30
0.0
 10
3.294047
 20
3.645127
 30
0.0
 10
2.968830
 20
5.406250
 30
0.0
 10
2.327766
 20
6.444743
 30
0.0
 10
2.445175
 20
6.833081
 30
0.0
 10
3.510674
 20
5.857693
 30
0.0
 10
4.242413
 20
3.645127
 30
0.0
 10
4.215128
 20
3.175481
 30
0.0
  0
LWPOLYLINE
  5
188
100
AcDbEntity
  8
-
 62
7
100
AcDbPolyline
 90
5
 70
0
 10
2.754520
 20
3.023109
 30
0.0
 10
0.604124
 20
3.249903
 30
0.0
 10
1.790556
 20
3.699568
 30
0.0
 10
4.338563
 20
3.448954
 30
0.0
 10
2.754520
 20
3.023109
 30
0.0
  0
LWPOLYLINE
  5
189
100
AcDbEntity
  8
_
 62
7
100
AcDbPolyline
 90
24
 70
0
 10
4.512721
 20
-0.116823
 30
0.0
 10
5.190159
 20
-0.204399
 30
0.0
 10
5.356935
 20
-0.320421
 30
0.0
 10
4.230794
 20
-0.438781
 30
0.0
 10
3.723793
 20
-0.415854
 30
0.0
 10
3.569115
 20
-0.349075
 30
0.0
 10
3.935186
 20
-0.276559
 30
0.0
 10
3.850543
 20
-0.320421
 30
0.0
 10
4.272900
 20
-0.364333
 30
0.0
 10
4.582686
 20
-0.329962
 30
0.0
 10
4.364418
 20
-0.260310
 30
0.0
 10
3.611222
 20
-0.232637
 30
0.0
 10
2.275820
 20
-0.271783
 30
0.0
 10
0.795222
 20
-0.308997
 30
0.0
 10
-0.084509
 20
-0.267969
 30
0.0
 10
-0.330920
 20
-0.163906
 30
0.0
 10
-0.041177
 20
-0.011512
 30
0.0
 10
0.316580
 20
-0.121916
 30
0.0
 10
0.365991
 20
-0.164867
 30
0.0
 10
0.626365
 20
-0.183008
 30
0.0
 10
1.663092
 20
-0.091390
 30
0.0
 10
2.873470
 20
-0.108015
 30
0.0
 10
4.512721
 20
-0.116833
 30
0.0
 10
4.512721
 20
-0.116823
 30
0.0
  0
LWPOLYLINE
  5
18a
100
AcDbEntity
  8
+
 62
7
100
AcDbPolyline
 90
13
 70
0
 10
4.113861
 20
3.605136
 30
0.0
 10
3.996452
 20
3.063270
 30
0.0
 10
2.723145
 20
3.063270
 30
0.0
 10
2.533251
 20
1.699572
 30
0.0
 10
1.991407
 20
1.699572
 30
0.0
 10
2.181300
 20
3.063270
 30
0.0
 10
0.862518
 20
3.063270
 30
0.0
 10
0.971107
 20
3.605136
 30
0.0
 10
2.253510
 20
3.605136
 30
0.0
 10
2.434033
 20
4.842342
 30
0.0
 10
2.975877
 20
4.842342
 30
0.0
 10
2.795354
 20
3.605136
 30
0.0
 10
4.113861
 20
3.605136
 30
0.0
  0
LWPOLYLINE
  5
18b
100
AcDbEntity
  8
=
 62
7
100
AcDbPolyline
 90
5
 70
0
 10
4.168342
 20
4.224868
 30
0.0
 10
4.050933
 20
3.683030
 30
0.0
 10
0.916999
 20
3.683030
 30
0.0
 10
1.025588
 20
4.224868
 30
0.0
 10
4.168342
 20
4.224868
 30
0.0
  0
LWPOLYLINE
  5
18c
100
AcDbEntity
  8
=
 62
7
100
AcDbPolyline
 90
5
 70
0
 10
3.969629
 20
3.186375
 30
0.0
 10
3.861315
 20
2.644254
 30
0.0
 10
0.718286
 20
2.644254
 30
0.0
 10
0.826875
 20
3.186375
 30
0.0
 10
3.969629
 20
3.186375
 30
0.0
  0
LWPOLYLINE
  5
18d
100
AcDbEntity
  8
{
 62
7
100
AcDbPolyline
 90
21
 70
0
 10
3.818715
 20
6.906910
 30
0.0
 10
3.331165
 20
6.699110
 30
0.0
 10
2.780226
 20
6.012859
 30
0.0
 10
2.572417
 20
4.576658
 30
0.0
 10
2.030573
 20
3.736878
 30
0.0
 10
1.226901
 20
3.393752
 30
0.0
 10
1.953816
 20
3.032564
 30
0.0
 10
2.247200
 20
2.201476
 30
0.0
 10
2.039668
 20
0.756724
 30
0.0
 10
2.825425
 20
-0.137328
 30
0.0
 10
2.075772
 20
-0.137328
 30
0.0
 10
1.317025
 20
0.259815
 30
0.0
 10
1.145597
 20
0.855953
 30
0.0
 10
1.371319
 20
2.472663
 30
0.0
 10
0.486343
 20
3.402839
 30
0.0
 10
1.028188
 20
3.646482
 30
0.0
 10
1.624052
 20
4.287832
 30
0.0
 10
1.850050
 20
5.922435
 30
0.0
 10
2.193181
 20
6.509485
 30
0.0
 10
3.059967
 20
6.906910
 30
0.0
 10
3.818715
 20
6.906910
 30
0.0
  0
LWPOLYLINE
  5
18e
100
AcDbEntity
  8
}
 62
7
100
AcDbPolyline
 90
21
 70
0
 10
4.345528
 20
3.387698
 30
0.0
 10
3.803683
 20
3.143773
 30
0.0
 10
3.207544
 20
2.502451
 30
0.0
 10
2.981821
 20
0.867820
 30
0.0
 10
2.638690
 20
0.271964
 30
0.0
 10
1.771628
 20
-0.125461
 30
0.0
 10
1.012880
 20
-0.125461
 30
0.0
 10
1.500706
 20
0.082057
 30
0.0
 10
2.051646
 20
0.777707
 30
0.0
 10
2.259178
 20
2.213597
 30
0.0
 10
2.801023
 20
3.053377
 30
0.0
 10
3.604970
 20
3.396503
 30
0.0
 10
2.891422
 20
3.748745
 30
0.0
 10
2.584395
 20
4.588807
 30
0.0
 10
2.792203
 20
6.024698
 30
0.0
 10
2.006446
 20
6.918778
 30
0.0
 10
2.764918
 20
6.918778
 30
0.0
 10
3.514571
 20
6.530440
 30
0.0
 10
3.686275
 20
5.934302
 30
0.0
 10
3.460276
 20
4.317874
 30
0.0
 10
4.345528
 20
3.387698
 30
0.0
  0
LWPOLYLINE
  5
18f
100
AcDbEntity
  8
[
 62
7
100
AcDbPolyline
 90
9
 70
0
 10
3.410525
 20
6.811491
 30
0.0
 10
3.284021
 20
6.323952
 30
0.0
 10
2.769462
 20
6.323952
 30
0.0
 10
1.929410
 20
0.263879
 30
0.0
 10
2.516454
 20
0.263879
 30
0.0
 10
2.389950
 20
-0.223660
 30
0.0
 10
1.062348
 20
-0.223660
 30
0.0
 10
2.037724
 20
6.811491
 30
0.0
 10
3.410525
 20
6.811491
 30
0.0
  0
LWPOLYLINE
  5
190
100
AcDbEntity
  8
]
 62
7
100
AcDbPolyline
 90
9
 70
0
 10
3.591979
 20
6.895396
 30
0.0
 10
2.625699
 20
-0.139755
 30
0.0
 10
1.244078
 20
-0.139755
 30
0.0
 10
1.370306
 20
0.347784
 30
0.0
 10
1.894236
 20
0.347784
 30
0.0
 10
2.725193
 20
6.407857
 30
0.0
 10
2.146969
 20
6.407857
 30
0.0
 10
2.264377
 20
6.895396
 30
0.0
 10
3.591979
 20
6.895396
 30
0.0
  0
LWPOLYLINE
  5
191
100
AcDbEntity
  8
\
 62
7
100
AcDbPolyline
 90
5
 70
0
 10
3.538050
 20
0.130981
 30
0.0
 10
3.032310
 20
0.130981
 30
0.0
 10
0.955331
 20
6.633127
 30
0.0
 10
1.470166
 20
6.633127
 30
0.0
 10
3.538050
 20
0.130981
 30
0.0
  0
LWPOLYLINE
  5
192
100
AcDbEntity
  8
|
 62
7
100
AcDbPolyline
 90
5
 70
0
 10
3.684882
 20
0.089008
 30
0.0
 10
3.179142
 20
0.089008
 30
0.0
 10
1.102162
 20
6.591154
 30
0.0
 10
1.616997
 20
6.591154
 30
0.0
 10
3.684882
 20
0.089008
 30
0.0
  0
LWPOLYLINE
  5
193
100
AcDbEntity
  8
;
 62
7
100
AcDbPolyline
 90
8
 70
0
 10
3.279470
 20
3.057399
 30
0.0
 10
3.008548
 20
2.596841
 30
0.0
 10
2.349294
 20
2.352944
 30
0.0
 10
1.870564
 20
2.831678
 30
0.0
 10
2.213695
 20
3.305840
 30
0.0
 10
2.864129
 20
3.536133
 30
0.0
 10
3.189071
 20
3.382604
 30
0.0
 10
3.279470
 20
3.057399
 30
0.0
  0
LWPOLYLINE
  5
194
100
AcDbEntity
  8
;
 62
7
100
AcDbPolyline
 90
12
 70
0
 10
2.900234
 20
0.600909
 30
0.0
 10
2.430599
 20
-0.509805
 30
0.0
 10
1.355729
 20
-1.241268
 30
0.0
 10
1.292615
 20
-1.132952
 30
0.0
 10
1.635746
 20
-0.816834
 30
0.0
 10
2.051363
 20
-0.094458
 30
0.0
 10
1.590547
 20
0.032034
 30
0.0
 10
1.491328
 20
0.375188
 30
0.0
 10
1.834459
 20
0.849349
 30
0.0
 10
2.484618
 20
1.079642
 30
0.0
 10
2.805287
 20
0.926114
 30
0.0
 10
2.900234
 20
0.600909
 30
0.0
  0
LWPOLYLINE
  5
195
100
AcDbEntity
  8
:
 62
7
100
AcDbPolyline
 90
8
 70
0
 10
3.426302
 20
3.183212
 30
0.0
 10
3.155380
 20
2.722681
 30
0.0
 10
2.496126
 20
2.478757
 30
0.0
 10
2.017396
 20
2.957490
 30
0.0
 10
2.360527
 20
3.431680
 30
0.0
 10
3.010961
 20
3.661945
 30
0.0
 10
3.335903
 20
3.508445
 30
0.0
 10
3.426302
 20
3.183212
 30
0.0
  0
LWPOLYLINE
  5
196
100
AcDbEntity
  8
:
 62
7
100
AcDbPolyline
 90
8
 70
0
 10
3.047066
 20
0.726721
 30
0.0
 10
2.776144
 20
0.266191
 30
0.0
 10
2.116890
 20
0.022549
 30
0.0
 10
1.638160
 20
0.501000
 30
0.0
 10
1.981291
 20
0.975190
 30
0.0
 10
2.631450
 20
1.205455
 30
0.0
 10
2.956667
 20
1.051954
 30
0.0
 10
3.047066
 20
0.726721
 30
0.0
  0
LWPOLYLINE
  5
197
100
AcDbEntity
  8
"
 62
7
100
AcDbPolyline
 90
10
 70
0
 10
3.375069
 20
6.222973
 30
0.0
 10
3.320774
 20
6.033348
 30
0.0
 10
2.697625
 20
4.353533
 30
0.0
 10
2.562302
 20
4.353533
 30
0.0
 10
2.426703
 20
6.042464
 30
0.0
 10
2.417608
 20
6.222973
 30
0.0
 10
2.607364
 20
6.561696
 30
0.0
 10
2.968547
 20
6.701707
 30
0.0
 10
3.289217
 20
6.561696
 30
0.0
 10
3.375069
 20
6.222973
 30
0.0
  0
LWPOLYLINE
  5
198
100
AcDbEntity
  8
"
 62
7
100
AcDbPolyline
 90
10
 70
0
 10
2.219170
 20
6.222973
 30
0.0
 10
2.164876
 20
6.033348
 30
0.0
 10
1.541727
 20
4.353533
 30
0.0
 10
1.406128
 20
4.353533
 30
0.0
 10
1.270804
 20
6.042464
 30
0.0
 10
1.261709
 20
6.222973
 30
0.0
 10
1.460422
 20
6.561696
 30
0.0
 10
1.812649
 20
6.701707
 30
0.0
 10
2.133318
 20
6.561696
 30
0.0
 10
2.219170
 20
6.222973
 30
0.0
  0
LWPOLYLINE
  5
199
100
AcDbEntity
  8
'
 62
7
100
AcDbPolyline
 90
10
 70
0
 10
3.500925
 20
6.243927
 30
0.0
 10
3.446630
 20
6.054330
 30
0.0
 10
2.823481
 20
4.374487
 30
0.0
 10
2.688158
 20
4.374487
 30
0.0
 10
2.552559
 20
6.063418
 30
0.0
 10
2.543464
 20
6.243927
 30
0.0
 10
2.733219
 20
6.582650
 30
0.0
 10
3.094403
 20
6.722661
 30
0.0
 10
3.415073
 20
6.582650
 30
0.0
 10
3.500925
 20
6.243927
 30
0.0
  0
LWPOLYLINE
  5
19a
100
AcDbEntity
  8
'
 62
7
100
AcDbPolyline
 90
10
 70
0
 10
2.345026
 20
6.243927
 30
0.0
 10
2.290732
 20
6.054330
 30
0.0
 10
1.667583
 20
4.374487
 30
0.0
 10
1.531984
 20
4.374487
 30
0.0
 10
1.396660
 20
6.063418
 30
0.0
 10
1.387565
 20
6.243927
 30
0.0
 10
1.586278
 20
6.582650
 30
0.0
 10
1.938505
 20
6.722661
 30
0.0
 10
2.259174
 20
6.582650
 30
0.0
 10
2.345026
 20
6.243927
 30
0.0
  0
LWPOLYLINE
  5
19b
100
AcDbEntity
  8
,
 62
7
100
AcDbPolyline
 90
12
 70
0
 10
3.214874
 20
0.747700
 30
0.0
 10
2.745238
 20
-0.362985
 30
0.0
 10
1.670369
 20
-1.094449
 30
0.0
 10
1.607254
 20
-0.986132
 30
0.0
 10
1.950386
 20
-0.670015
 30
0.0
 10
2.366002
 20
0.052361
 30
0.0
 10
1.905186
 20
0.178853
 30
0.0
 10
1.805968
 20
0.521979
 30
0.0
 10
2.149099
 20
0.996169
 30
0.0
 10
2.799258
 20
1.226434
 30
0.0
 10
3.119927
 20
1.072933
 30
0.0
 10
3.214874
 20
0.747700
 30
0.0
  0
LWPOLYLINE
  5
19c
100
AcDbEntity
  8
.
 62
7
100
AcDbPolyline
 90
8
 70
0
 10
3.361705
 20
0.726729
 30
0.0
 10
3.090783
 20
0.266199
 30
0.0
 10
2.431530
 20
0.022556
 30
0.0
 10
1.952799
 20
0.501008
 30
0.0
 10
2.295931
 20
0.975197
 30
0.0
 10
2.946089
 20
1.205462
 30
0.0
 10
3.271306
 20
1.051962
 30
0.0
 10
3.361705
 20
0.726729
 30
0.0
  0
LWPOLYLINE
  5
19d
100
AcDbEntity
  8
<
 62
7
100
AcDbPolyline
 90
8
 70
0
 10
4.572450
 20
4.598735
 30
0.0
 10
1.483715
 20
3.370363
 30
0.0
 10
4.220223
 20
2.097061
 30
0.0
 10
3.949301
 20
1.627415
 30
0.0
 10
0.680043
 20
3.162563
 30
0.0
 10
0.743157
 20
3.587251
 30
0.0
 10
4.436851
 20
5.068381
 30
0.0
 10
4.572450
 20
4.598735
 30
0.0
  0
LWPOLYLINE
  5
19e
100
AcDbEntity
  8
>
 62
7
100
AcDbPolyline
 90
8
 70
0
 10
4.629531
 20
3.571827
 30
0.0
 10
4.566141
 20
3.147393
 30
0.0
 10
0.872447
 20
1.666263
 30
0.0
 10
0.737124
 20
2.135909
 30
0.0
 10
3.825583
 20
3.364281
 30
0.0
 10
1.089350
 20
4.637583
 30
0.0
 10
1.360273
 20
5.107229
 30
0.0
 10
4.629531
 20
3.571827
 30
0.0
  0
LWPOLYLINE
  5
19f
100
AcDbEntity
  8
?
 62
7
100
AcDbPolyline
 90
32
 70
0
 10
4.616070
 20
5.186981
 30
0.0
 10
3.992921
 20
4.103304
 30
0.0
 10
2.999356
 20
3.245349
 30
0.0
 10
2.394397
 20
2.532060
 30
0.0
 10
2.620120
 20
2.288164
 30
0.0
 10
2.877537
 20
2.450611
 30
0.0
 10
2.999356
 20
2.802994
 30
0.0
 10
3.171060
 20
2.206856
 30
0.0
 10
2.918190
 20
1.637867
 30
0.0
 10
2.295178
 20
1.375880
 30
0.0
 10
1.545526
 20
1.999027
 30
0.0
 10
1.987876
 20
3.046636
 30
0.0
 10
2.845843
 20
4.004075
 30
0.0
 10
3.387963
 20
4.997384
 30
0.0
 10
3.396782
 20
5.186981
 30
0.0
 10
3.220669
 20
5.710927
 30
0.0
 10
2.791824
 20
5.882631
 30
0.0
 10
2.335693
 20
5.728961
 30
0.0
 10
2.087370
 20
5.367801
 30
0.0
 10
2.177769
 20
5.069577
 30
0.0
 10
2.430502
 20
4.988268
 30
0.0
 10
2.827928
 20
5.304414
 30
0.0
 10
2.936242
 20
4.789838
 30
0.0
 10
2.674415
 20
4.256805
 30
0.0
 10
1.861648
 20
3.967979
 30
0.0
 10
1.148099
 20
4.256946
 30
0.0
 10
0.886272
 20
4.997384
 30
0.0
 10
1.608640
 20
6.288861
 30
0.0
 10
3.053651
 20
6.776682
 30
0.0
 10
4.245654
 20
6.397178
 30
0.0
 10
4.633985
 20
5.449081
 30
0.0
 10
4.616070
 20
5.186981
 30
0.0
  0
LWPOLYLINE
  5
1a0
100
AcDbEntity
  8
?
 62
7
100
AcDbPolyline
 90
9
 70
0
 10
2.881947
 20
0.725725
 30
0.0
 10
2.574920
 20
0.229099
 30
0.0
 10
1.906847
 20
-0.023914
 30
0.0
 10
1.491231
 20
0.138675
 30
0.0
 10
1.401107
 20
0.472713
 30
0.0
 10
1.762291
 20
0.978596
 30
0.0
 10
2.448692
 20
1.222380
 30
0.0
 10
2.787276
 20
1.059904
 30
0.0
 10
2.881947
 20
0.725725
 30
0.0
  0
LWPOLYLINE
  5
1a1
100
AcDbEntity
  8
/
 62
7
100
AcDbPolyline
 90
5
 70
0
 10
4.364277
 20
6.633084
 30
0.0
 10
1.375036
 20
0.130938
 30
0.0
 10
0.869296
 20
0.130938
 30
0.0
 10
3.849717
 20
6.633084
 30
0.0
 10
4.364277
 20
6.633084
 30
0.0
  0
ENDSEC
  0
SECTION
  2
OBJECTS
  0
DICTIONARY
  5
C
330
0
100
AcDbDictionary
  3
ACAD_GROUP
350
D
  3
ACAD_MLINESTYLE
350
17
  0
DICTIONARY
  5
D
330
C
100
AcDbDictionary
  0
DICTIONARY
  5
1A
330
C
100
AcDbDictionary
  0
DICTIONARY
  5
17
330
C
100
AcDbDictionary
  3
STANDARD
350
18
  0
DICTIONARY
  5
19
330
C
100
AcDbDictionary
  0
ENDSEC
  0
EOF
