999
DXF created by Inkscape
  0
SECTION
  2
HEADER
  9
$ACADVER
  1
AC1014
  9
$HANDSEED
  5
FFFF
  9
$MEASUREMENT
 70
     1
  0
ENDSEC
  0
SECTION
  2
TABLES
  0
TABLE
  2
VPORT
  5
8
330
0
100
AcDbSymbolTable
 70
     4
  0
VPORT
  5
2E
330
8
100
AcDbSymbolTableRecord
100
AcDbViewportTableRecord
  2
*ACTIVE
 70
     0
 10
0.0
 20
0.0
 11
1.0
 21
1.0
 12
210.0
 22
148.5
 13
0.0
 23
0.0
 14
10.0
 24
10.0
 15
10.0
 25
10.0
 16
0.0
 26
0.0
 36
1.0
 17
0.0
 27
0.0
 37
0.0
 40
341.0
 41
1.24
 42
50.0
 43
0.0
 44
0.0
 50
0.0
 51
0.0
 71
     0
 72
   100
 73
     1
 74
     3
 75
     0
 76
     0
 77
     0
 78
     0
  0
ENDTAB
  0
TABLE
  2
LTYPE
  5
5
330
0
100
AcDbSymbolTable
 70
     1
  0
LTYPE
  5
14
330
5
100
AcDbSymbolTableRecord
100
AcDbLinetypeTableRecord
  2
BYBLOCK
 70
     0
  3

 72
    65
 73
     0
 40
0.0
  0
LTYPE
  5
15
330
5
100
AcDbSymbolTableRecord
100
AcDbLinetypeTableRecord
  2
BYLAYER
 70
     0
  3

 72
    65
 73
     0
 40
0.0
  0
LTYPE
  5
16
330
5
100
AcDbSymbolTableRecord
100
AcDbLinetypeTableRecord
  2
CONTINUOUS
 70
     0
  3
Solid line
 72
    65
 73
     0
 40
0.0
  0
ENDTAB
  0
TABLE
  2
LAYER
  5
2
100
AcDbSymbolTable
 70
76
  0
LAYER
  5
50
100
AcDbSymbolTableRecord
100
AcDbLayerTableRecord
  2
0
 70
0
  6
CONTINUOUS
  0
LAYER
  5
51
100
AcDbSymbolTableRecord
100
AcDbLayerTableRecord
  2
outline
 70
0
  6
CONTINUOUS
  0
LAYER
  5
52
100
AcDbSymbolTableRecord
100
AcDbLayerTableRecord
  2
a_
 70
0
  6
CONTINUOUS
  0
LAYER
  5
53
100
AcDbSymbolTableRecord
100
AcDbLayerTableRecord
  2
A
 70
0
  6
CONTINUOUS
  0
LAYER
  5
54
100
AcDbSymbolTableRecord
100
AcDbLayerTableRecord
  2
b_
 70
0
  6
CONTINUOUS
  0
LAYER
  5
55
100
AcDbSymbolTableRecord
100
AcDbLayerTableRecord
  2
B
 70
0
  6
CONTINUOUS
  0
LAYER
  5
56
100
AcDbSymbolTableRecord
100
AcDbLayerTableRecord
  2
c_
 70
0
  6
CONTINUOUS
  0
LAYER
  5
57
100
AcDbSymbolTableRecord
100
AcDbLayerTableRecord
  2
C
 70
0
  6
CONTINUOUS
  0
LAYER
  5
58
100
AcDbSymbolTableRecord
100
AcDbLayerTableRecord
  2
d_
 70
0
  6
CONTINUOUS
  0
LAYER
  5
59
100
AcDbSymbolTableRecord
100
AcDbLayerTableRecord
  2
D
 70
0
  6
CONTINUOUS
  0
LAYER
  5
5a
100
AcDbSymbolTableRecord
100
AcDbLayerTableRecord
  2
e_
 70
0
  6
CONTINUOUS
  0
LAYER
  5
5b
100
AcDbSymbolTableRecord
100
AcDbLayerTableRecord
  2
E
 70
0
  6
CONTINUOUS
  0
LAYER
  5
5c
100
AcDbSymbolTableRecord
100
AcDbLayerTableRecord
  2
f_
 70
0
  6
CONTINUOUS
  0
LAYER
  5
5d
100
AcDbSymbolTableRecord
100
AcDbLayerTableRecord
  2
F
 70
0
  6
CONTINUOUS
  0
LAYER
  5
5e
100
AcDbSymbolTableRecord
100
AcDbLayerTableRecord
  2
g_
 70
0
  6
CONTINUOUS
  0
LAYER
  5
5f
100
AcDbSymbolTableRecord
100
AcDbLayerTableRecord
  2
G
 70
0
  6
CONTINUOUS
  0
LAYER
  5
60
100
AcDbSymbolTableRecord
100
AcDbLayerTableRecord
  2
h_
 70
0
  6
CONTINUOUS
  0
LAYER
  5
61
100
AcDbSymbolTableRecord
100
AcDbLayerTableRecord
  2
H
 70
0
  6
CONTINUOUS
  0
LAYER
  5
62
100
AcDbSymbolTableRecord
100
AcDbLayerTableRecord
  2
i_
 70
0
  6
CONTINUOUS
  0
LAYER
  5
63
100
AcDbSymbolTableRecord
100
AcDbLayerTableRecord
  2
I
 70
0
  6
CONTINUOUS
  0
LAYER
  5
64
100
AcDbSymbolTableRecord
100
AcDbLayerTableRecord
  2
j_
 70
0
  6
CONTINUOUS
  0
LAYER
  5
65
100
AcDbSymbolTableRecord
100
AcDbLayerTableRecord
  2
J
 70
0
  6
CONTINUOUS
  0
LAYER
  5
66
100
AcDbSymbolTableRecord
100
AcDbLayerTableRecord
  2
k_
 70
0
  6
CONTINUOUS
  0
LAYER
  5
67
100
AcDbSymbolTableRecord
100
AcDbLayerTableRecord
  2
K
 70
0
  6
CONTINUOUS
  0
LAYER
  5
68
100
AcDbSymbolTableRecord
100
AcDbLayerTableRecord
  2
l_
 70
0
  6
CONTINUOUS
  0
LAYER
  5
69
100
AcDbSymbolTableRecord
100
AcDbLayerTableRecord
  2
L
 70
0
  6
CONTINUOUS
  0
LAYER
  5
6a
100
AcDbSymbolTableRecord
100
AcDbLayerTableRecord
  2
m_
 70
0
  6
CONTINUOUS
  0
LAYER
  5
6b
100
AcDbSymbolTableRecord
100
AcDbLayerTableRecord
  2
M
 70
0
  6
CONTINUOUS
  0
LAYER
  5
6c
100
AcDbSymbolTableRecord
100
AcDbLayerTableRecord
  2
n_
 70
0
  6
CONTINUOUS
  0
LAYER
  5
6d
100
AcDbSymbolTableRecord
100
AcDbLayerTableRecord
  2
N
 70
0
  6
CONTINUOUS
  0
LAYER
  5
6e
100
AcDbSymbolTableRecord
100
AcDbLayerTableRecord
  2
o_
 70
0
  6
CONTINUOUS
  0
LAYER
  5
6f
100
AcDbSymbolTableRecord
100
AcDbLayerTableRecord
  2
O
 70
0
  6
CONTINUOUS
  0
LAYER
  5
70
100
AcDbSymbolTableRecord
100
AcDbLayerTableRecord
  2
p_
 70
0
  6
CONTINUOUS
  0
LAYER
  5
71
100
AcDbSymbolTableRecord
100
AcDbLayerTableRecord
  2
P
 70
0
  6
CONTINUOUS
  0
LAYER
  5
72
100
AcDbSymbolTableRecord
100
AcDbLayerTableRecord
  2
q_
 70
0
  6
CONTINUOUS
  0
LAYER
  5
73
100
AcDbSymbolTableRecord
100
AcDbLayerTableRecord
  2
Q
 70
0
  6
CONTINUOUS
  0
LAYER
  5
74
100
AcDbSymbolTableRecord
100
AcDbLayerTableRecord
  2
r_
 70
0
  6
CONTINUOUS
  0
LAYER
  5
75
100
AcDbSymbolTableRecord
100
AcDbLayerTableRecord
  2
R
 70
0
  6
CONTINUOUS
  0
LAYER
  5
76
100
AcDbSymbolTableRecord
100
AcDbLayerTableRecord
  2
s_
 70
0
  6
CONTINUOUS
  0
LAYER
  5
77
100
AcDbSymbolTableRecord
100
AcDbLayerTableRecord
  2
S
 70
0
  6
CONTINUOUS
  0
LAYER
  5
78
100
AcDbSymbolTableRecord
100
AcDbLayerTableRecord
  2
t_
 70
0
  6
CONTINUOUS
  0
LAYER
  5
79
100
AcDbSymbolTableRecord
100
AcDbLayerTableRecord
  2
T
 70
0
  6
CONTINUOUS
  0
LAYER
  5
7a
100
AcDbSymbolTableRecord
100
AcDbLayerTableRecord
  2
u_
 70
0
  6
CONTINUOUS
  0
LAYER
  5
7b
100
AcDbSymbolTableRecord
100
AcDbLayerTableRecord
  2
U
 70
0
  6
CONTINUOUS
  0
LAYER
  5
7c
100
AcDbSymbolTableRecord
100
AcDbLayerTableRecord
  2
v_
 70
0
  6
CONTINUOUS
  0
LAYER
  5
7d
100
AcDbSymbolTableRecord
100
AcDbLayerTableRecord
  2
V
 70
0
  6
CONTINUOUS
  0
LAYER
  5
7e
100
AcDbSymbolTableRecord
100
AcDbLayerTableRecord
  2
w_
 70
0
  6
CONTINUOUS
  0
LAYER
  5
7f
100
AcDbSymbolTableRecord
100
AcDbLayerTableRecord
  2
W
 70
0
  6
CONTINUOUS
  0
LAYER
  5
80
100
AcDbSymbolTableRecord
100
AcDbLayerTableRecord
  2
x_
 70
0
  6
CONTINUOUS
  0
LAYER
  5
81
100
AcDbSymbolTableRecord
100
AcDbLayerTableRecord
  2
X
 70
0
  6
CONTINUOUS
  0
LAYER
  5
82
100
AcDbSymbolTableRecord
100
AcDbLayerTableRecord
  2
y_
 70
0
  6
CONTINUOUS
  0
LAYER
  5
83
100
AcDbSymbolTableRecord
100
AcDbLayerTableRecord
  2
Y
 70
0
  6
CONTINUOUS
  0
LAYER
  5
84
100
AcDbSymbolTableRecord
100
AcDbLayerTableRecord
  2
z_
 70
0
  6
CONTINUOUS
  0
LAYER
  5
85
100
AcDbSymbolTableRecord
100
AcDbLayerTableRecord
  2
Z
 70
0
  6
CONTINUOUS
  0
LAYER
  5
86
100
AcDbSymbolTableRecord
100
AcDbLayerTableRecord
  2
1
 70
0
  6
CONTINUOUS
  0
LAYER
  5
87
100
AcDbSymbolTableRecord
100
AcDbLayerTableRecord
  2
2
 70
0
  6
CONTINUOUS
  0
LAYER
  5
88
100
AcDbSymbolTableRecord
100
AcDbLayerTableRecord
  2
3
 70
0
  6
CONTINUOUS
  0
LAYER
  5
89
100
AcDbSymbolTableRecord
100
AcDbLayerTableRecord
  2
4
 70
0
  6
CONTINUOUS
  0
LAYER
  5
8a
100
AcDbSymbolTableRecord
100
AcDbLayerTableRecord
  2
5
 70
0
  6
CONTINUOUS
  0
LAYER
  5
8b
100
AcDbSymbolTableRecord
100
AcDbLayerTableRecord
  2
6
 70
0
  6
CONTINUOUS
  0
LAYER
  5
8c
100
AcDbSymbolTableRecord
100
AcDbLayerTableRecord
  2
7
 70
0
  6
CONTINUOUS
  0
LAYER
  5
8d
100
AcDbSymbolTableRecord
100
AcDbLayerTableRecord
  2
8
 70
0
  6
CONTINUOUS
  0
LAYER
  5
8e
100
AcDbSymbolTableRecord
100
AcDbLayerTableRecord
  2
9
 70
0
  6
CONTINUOUS
  0
LAYER
  5
8f
100
AcDbSymbolTableRecord
100
AcDbLayerTableRecord
  2
,
 70
0
  6
CONTINUOUS
  0
LAYER
  5
90
100
AcDbSymbolTableRecord
100
AcDbLayerTableRecord
  2
.
 70
0
  6
CONTINUOUS
  0
LAYER
  5
91
100
AcDbSymbolTableRecord
100
AcDbLayerTableRecord
  2
?
 70
0
  6
CONTINUOUS
  0
LAYER
  5
92
100
AcDbSymbolTableRecord
100
AcDbLayerTableRecord
  2
!
 70
0
  6
CONTINUOUS
  0
LAYER
  5
93
100
AcDbSymbolTableRecord
100
AcDbLayerTableRecord
  2
(
 70
0
  6
CONTINUOUS
  0
LAYER
  5
94
100
AcDbSymbolTableRecord
100
AcDbLayerTableRecord
  2
)
 70
0
  6
CONTINUOUS
  0
LAYER
  5
95
100
AcDbSymbolTableRecord
100
AcDbLayerTableRecord
  2
"
 70
0
  6
CONTINUOUS
  0
LAYER
  5
96
100
AcDbSymbolTableRecord
100
AcDbLayerTableRecord
  2
'
 70
0
  6
CONTINUOUS
  0
LAYER
  5
97
100
AcDbSymbolTableRecord
100
AcDbLayerTableRecord
  2
;
 70
0
  6
CONTINUOUS
  0
LAYER
  5
98
100
AcDbSymbolTableRecord
100
AcDbLayerTableRecord
  2
:
 70
0
  6
CONTINUOUS
  0
LAYER
  5
99
100
AcDbSymbolTableRecord
100
AcDbLayerTableRecord
  2
^
 70
0
  6
CONTINUOUS
  0
LAYER
  5
9a
100
AcDbSymbolTableRecord
100
AcDbLayerTableRecord
  2
*
 70
0
  6
CONTINUOUS
  0
LAYER
  5
9b
100
AcDbSymbolTableRecord
100
AcDbLayerTableRecord
  2
=
 70
0
  6
CONTINUOUS
  0
ENDTAB
  0
TABLE
  2
STYLE
  5
3
330
0
100
AcDbSymbolTable
 70
     1
  0
STYLE
  5
11
330
3
100
AcDbSymbolTableRecord
100
AcDbTextStyleTableRecord
  2
STANDARD
 70
     0
 40
0.0
 41
1.0
 50
0.0
 71
     0
 42
2.5
  3
txt
  4

  0
ENDTAB
  0
TABLE
  2
VIEW
  5
6
330
0
100
AcDbSymbolTable
 70
     0
  0
ENDTAB
  0
TABLE
  2
UCS
  5
7
330
0
100
AcDbSymbolTable
 70
     0
  0
ENDTAB
  0
TABLE
  2
APPID
  5
9
330
0
100
AcDbSymbolTable
 70
     2
  0
APPID
  5
12
330
9
100
AcDbSymbolTableRecord
100
AcDbRegAppTableRecord
  2
ACAD
 70
     0
  0
ENDTAB
  0
TABLE
  2
DIMSTYLE
  5
A
330
0
100
AcDbSymbolTable
 70
     1
  0
DIMSTYLE
105
27
330
A
100
AcDbSymbolTableRecord
100
AcDbDimStyleTableRecord
  2
ISO-25
 70
     0
  3

  4

  5

  6

  7

 40
1.0
 41
2.5
 42
0.625
 43
3.75
 44
1.25
 45
0.0
 46
0.0
 47
0.0
 48
0.0
140
2.5
141
2.5
142
0.0
143
0.03937007874016
144
1.0
145
0.0
146
1.0
147
0.625
 71
     0
 72
     0
 73
     0
 74
     0
 75
     0
 76
     0
 77
     1
 78
     8
170
     0
171
     3
172
     1
173
     0
174
     0
175
     0
176
     0
177
     0
178
     0
270
     2
271
     2
272
     2
273
     2
274
     3
340
11
275
     0
280
     0
281
     0
282
     0
283
     0
284
     8
285
     0
286
     0
287
     3
288
     0
  0
ENDTAB
  0
TABLE
  2
BLOCK_RECORD
  5
1
330
0
100
AcDbSymbolTable
 70
     1
  0
BLOCK_RECORD
  5
1F
330
1
100
AcDbSymbolTableRecord
100
AcDbBlockTableRecord
  2
*MODEL_SPACE
  0
BLOCK_RECORD
  5
1B
330
1
100
AcDbSymbolTableRecord
100
AcDbBlockTableRecord
  2
*PAPER_SPACE
  0
ENDTAB
  0
ENDSEC
  0
SECTION
  2
BLOCKS
  0
BLOCK
  5
20
330
1F
100
AcDbEntity
  8
0
100
AcDbBlockBegin
  2
*MODEL_SPACE
 70
     0
 10
0.0
 20
0.0
 30
0.0
  3
*MODEL_SPACE
  1

  0
ENDBLK
  5
21
330
1F
100
AcDbEntity
  8
0
100
AcDbBlockEnd
  0
BLOCK
  5
1C
330
1B
100
AcDbEntity
 67
     1
  8
0
100
AcDbBlockBegin
  2
*PAPER_SPACE
  1

  0
ENDBLK
  5
1D
330
1B
100
AcDbEntity
 67
     1
  8
0
100
AcDbBlockEnd
  0
ENDSEC
  0
SECTION
  2
ENTITIES
  0
LWPOLYLINE
  5
100
100
AcDbEntity
  8
outline
 62
7
100
AcDbPolyline
 90
9
 70
0
 10
3.010810
 20
6.260257
 30
0.0
 10
3.243301
 20
6.818678
 30
0.0
 10
3.788465
 20
7.055559
 30
0.0
 10
4.304218
 20
6.831383
 30
0.0
 10
4.515556
 20
6.268733
 30
0.0
 10
4.295757
 20
5.693581
 30
0.0
 10
3.754618
 20
5.465175
 30
0.0
 10
3.230609
 20
5.702057
 30
0.0
 10
3.010810
 20
6.260257
 30
0.0
  0
LWPOLYLINE
  5
101
100
AcDbEntity
  8
outline
 62
7
100
AcDbPolyline
 90
9
 70
0
 10
3.086759
 20
6.260257
 30
0.0
 10
3.285507
 20
5.757090
 30
0.0
 10
3.754618
 20
5.541389
 30
0.0
 10
4.240755
 20
5.748615
 30
0.0
 10
4.439400
 20
6.268733
 30
0.0
 10
4.249217
 20
6.776349
 30
0.0
 10
3.788465
 20
6.979345
 30
0.0
 10
3.293865
 20
6.763644
 30
0.0
 10
3.086759
 20
6.260257
 30
0.0
  0
LWPOLYLINE
  5
102
100
AcDbEntity
  8
outline
 62
7
100
AcDbPolyline
 90
9
 70
0
 10
0.846667
 20
3.959481
 30
0.0
 10
1.083389
 20
4.517901
 30
0.0
 10
1.632783
 20
4.754766
 30
0.0
 10
2.148537
 20
4.526360
 30
0.0
 10
2.359874
 20
3.959481
 30
0.0
 10
2.135845
 20
3.388558
 30
0.0
 10
1.607398
 20
3.155923
 30
0.0
 10
1.074927
 20
3.392805
 30
0.0
 10
0.846667
 20
3.959481
 30
0.0
  0
LWPOLYLINE
  5
103
100
AcDbEntity
  8
outline
 62
7
100
AcDbPolyline
 90
9
 70
0
 10
3.010810
 20
3.959481
 30
0.0
 10
3.243301
 20
4.517901
 30
0.0
 10
3.788465
 20
4.754766
 30
0.0
 10
4.304218
 20
4.526360
 30
0.0
 10
4.515556
 20
3.959481
 30
0.0
 10
4.295757
 20
3.388558
 30
0.0
 10
3.754618
 20
3.155923
 30
0.0
 10
3.230609
 20
3.392805
 30
0.0
 10
3.010810
 20
3.959481
 30
0.0
  0
LWPOLYLINE
  5
104
100
AcDbEntity
  8
outline
 62
7
100
AcDbPolyline
 90
9
 70
0
 10
0.922822
 20
3.959481
 30
0.0
 10
1.129929
 20
3.447838
 30
0.0
 10
1.607398
 20
3.232137
 30
0.0
 10
2.080843
 20
3.443609
 30
0.0
 10
2.283719
 20
3.959481
 30
0.0
 10
2.093536
 20
4.467097
 30
0.0
 10
1.632783
 20
4.670093
 30
0.0
 10
1.134160
 20
4.458621
 30
0.0
 10
0.922822
 20
3.959481
 30
0.0
  0
LWPOLYLINE
  5
105
100
AcDbEntity
  8
outline
 62
7
100
AcDbPolyline
 90
9
 70
0
 10
3.086759
 20
3.959481
 30
0.0
 10
3.285507
 20
3.447838
 30
0.0
 10
3.754618
 20
3.232137
 30
0.0
 10
4.240755
 20
3.443609
 30
0.0
 10
4.439400
 20
3.959481
 30
0.0
 10
4.249217
 20
4.467097
 30
0.0
 10
3.788465
 20
4.670093
 30
0.0
 10
3.293865
 20
4.458621
 30
0.0
 10
3.086759
 20
3.959481
 30
0.0
  0
LWPOLYLINE
  5
106
100
AcDbEntity
  8
outline
 62
7
100
AcDbPolyline
 90
9
 70
0
 10
3.010810
 20
1.641753
 30
0.0
 10
3.243301
 20
2.204301
 30
0.0
 10
3.788465
 20
2.445311
 30
0.0
 10
4.304218
 20
2.221236
 30
0.0
 10
4.515556
 20
1.658687
 30
0.0
 10
4.295757
 20
1.079306
 30
0.0
 10
3.754618
 20
0.846671
 30
0.0
 10
3.230609
 20
1.083553
 30
0.0
 10
3.010810
 20
1.641753
 30
0.0
  0
LWPOLYLINE
  5
107
100
AcDbEntity
  8
outline
 62
7
100
AcDbPolyline
 90
9
 70
0
 10
0.846667
 20
1.641753
 30
0.0
 10
1.083389
 20
2.204301
 30
0.0
 10
1.632783
 20
2.445311
 30
0.0
 10
2.148537
 20
2.221236
 30
0.0
 10
2.359874
 20
1.658687
 30
0.0
 10
2.135845
 20
1.079306
 30
0.0
 10
1.607398
 20
0.846671
 30
0.0
 10
1.074927
 20
1.083553
 30
0.0
 10
0.846667
 20
1.641753
 30
0.0
  0
LWPOLYLINE
  5
108
100
AcDbEntity
  8
outline
 62
7
100
AcDbPolyline
 90
9
 70
0
 10
0.922822
 20
1.641753
 30
0.0
 10
1.129929
 20
1.138586
 30
0.0
 10
1.607398
 20
0.922885
 30
0.0
 10
2.080843
 20
1.134356
 30
0.0
 10
2.283719
 20
1.658687
 30
0.0
 10
2.093536
 20
2.166304
 30
0.0
 10
1.632783
 20
2.369316
 30
0.0
 10
1.134160
 20
2.149369
 30
0.0
 10
0.922822
 20
1.641753
 30
0.0
  0
LWPOLYLINE
  5
109
100
AcDbEntity
  8
outline
 62
7
100
AcDbPolyline
 90
9
 70
0
 10
3.086759
 20
1.641753
 30
0.0
 10
3.285507
 20
1.138586
 30
0.0
 10
3.754618
 20
0.922885
 30
0.0
 10
4.240755
 20
1.134356
 30
0.0
 10
4.439400
 20
1.658687
 30
0.0
 10
4.249217
 20
2.166304
 30
0.0
 10
3.788465
 20
2.369316
 30
0.0
 10
3.293865
 20
2.149369
 30
0.0
 10
3.086759
 20
1.641753
 30
0.0
  0
LWPOLYLINE
  5
10a
100
AcDbEntity
  8
outline
 62
7
100
AcDbPolyline
 90
9
 70
0
 10
0.859359
 20
6.243309
 30
0.0
 10
1.091851
 20
6.801716
 30
0.0
 10
1.637014
 20
7.038606
 30
0.0
 10
2.152768
 20
6.814423
 30
0.0
 10
2.364105
 20
6.251774
 30
0.0
 10
2.144306
 20
5.676624
 30
0.0
 10
1.603167
 20
5.448220
 30
0.0
 10
1.079158
 20
5.685109
 30
0.0
 10
0.859359
 20
6.243309
 30
0.0
  0
SPLINE
  5
10b
100
AcDbEntity
  8
outline
 62
7
100
AcDbSpline
 70
8
 71
3
 72
8
 73
4
 74
0
 40
0
 40
0
 40
0
 40
0
 40
1
 40
1
 40
1
 40
1
 10
1.142415
 20
6.746684
 30
0.0
 10
1.090249
 20
6.623893
 30
0.0
 10
1.138731
 20
6.769699
 30
0.0
 10
0.935309
 20
6.243309
 30
0.0
  0
LWPOLYLINE
  5
10c
100
AcDbEntity
  8
outline
 62
7
100
AcDbPolyline
 90
8
 70
0
 10
0.935309
 20
6.243309
 30
0.0
 10
1.134057
 20
5.740141
 30
0.0
 10
1.603167
 20
5.524444
 30
0.0
 10
2.089305
 20
5.731655
 30
0.0
 10
2.287950
 20
6.251774
 30
0.0
 10
2.097767
 20
6.759392
 30
0.0
 10
1.637014
 20
6.962381
 30
0.0
 10
1.142415
 20
6.746684
 30
0.0
  0
LWPOLYLINE
  5
10d
100
AcDbEntity
  8
outline
 62
7
100
AcDbPolyline
 90
2
 70
0
 10
0.935309
 20
6.243309
 30
0.0
 10
0.935309
 20
6.243309
 30
0.0
  0
LWPOLYLINE
  5
10e
100
AcDbEntity
  8
a_
 62
7
100
AcDbPolyline
 90
9
 70
0
 10
0.832026
 20
6.276457
 30
0.0
 10
1.068748
 20
6.834870
 30
0.0
 10
1.618142
 20
7.071759
 30
0.0
 10
2.133896
 20
6.847575
 30
0.0
 10
2.345233
 20
6.284927
 30
0.0
 10
2.121203
 20
5.709800
 30
0.0
 10
1.592757
 20
5.481382
 30
0.0
 10
1.060286
 20
5.718241
 30
0.0
 10
0.832026
 20
6.276457
 30
0.0
  0
LWPOLYLINE
  5
10f
100
AcDbEntity
  8
A
 62
7
100
AcDbPolyline
 90
9
 70
0
 10
0.832307
 20
6.276457
 30
0.0
 10
1.069030
 20
6.834870
 30
0.0
 10
1.618424
 20
7.071759
 30
0.0
 10
2.134178
 20
6.847575
 30
0.0
 10
2.345515
 20
6.284927
 30
0.0
 10
2.121485
 20
5.709800
 30
0.0
 10
1.593039
 20
5.481382
 30
0.0
 10
1.060568
 20
5.718241
 30
0.0
 10
0.832307
 20
6.276457
 30
0.0
  0
LWPOLYLINE
  5
110
100
AcDbEntity
  8
b_
 62
7
100
AcDbPolyline
 90
9
 70
0
 10
0.862841
 20
6.276457
 30
0.0
 10
1.099563
 20
6.834870
 30
0.0
 10
1.648958
 20
7.071759
 30
0.0
 10
2.164711
 20
6.847575
 30
0.0
 10
2.376049
 20
6.284927
 30
0.0
 10
2.152019
 20
5.709800
 30
0.0
 10
1.623572
 20
5.481382
 30
0.0
 10
1.091102
 20
5.718241
 30
0.0
 10
0.862841
 20
6.276457
 30
0.0
  0
LWPOLYLINE
  5
111
100
AcDbEntity
  8
b_
 62
7
100
AcDbPolyline
 90
9
 70
0
 10
0.862841
 20
3.975670
 30
0.0
 10
1.099563
 20
4.534083
 30
0.0
 10
1.648958
 20
4.770971
 30
0.0
 10
2.164711
 20
4.542553
 30
0.0
 10
2.376049
 20
3.975670
 30
0.0
 10
2.152019
 20
3.404750
 30
0.0
 10
1.623572
 20
3.172125
 30
0.0
 10
1.091102
 20
3.408985
 30
0.0
 10
0.862841
 20
3.975670
 30
0.0
  0
LWPOLYLINE
  5
112
100
AcDbEntity
  8
B
 62
7
100
AcDbPolyline
 90
9
 70
0
 10
0.862841
 20
6.276457
 30
0.0
 10
1.099563
 20
6.834870
 30
0.0
 10
1.648958
 20
7.071759
 30
0.0
 10
2.164711
 20
6.847575
 30
0.0
 10
2.376049
 20
6.284927
 30
0.0
 10
2.152019
 20
5.709800
 30
0.0
 10
1.623572
 20
5.481382
 30
0.0
 10
1.091102
 20
5.718241
 30
0.0
 10
0.862841
 20
6.276457
 30
0.0
  0
LWPOLYLINE
  5
113
100
AcDbEntity
  8
B
 62
7
100
AcDbPolyline
 90
9
 70
0
 10
0.862841
 20
3.975670
 30
0.0
 10
1.099563
 20
4.534083
 30
0.0
 10
1.648958
 20
4.770971
 30
0.0
 10
2.164711
 20
4.542553
 30
0.0
 10
2.376049
 20
3.975670
 30
0.0
 10
2.152019
 20
3.404750
 30
0.0
 10
1.623572
 20
3.172125
 30
0.0
 10
1.091102
 20
3.408985
 30
0.0
 10
0.862841
 20
3.975670
 30
0.0
  0
LWPOLYLINE
  5
114
100
AcDbEntity
  8
c_
 62
7
100
AcDbPolyline
 90
9
 70
0
 10
0.832026
 20
6.245635
 30
0.0
 10
1.068749
 20
6.804040
 30
0.0
 10
1.618143
 20
7.040921
 30
0.0
 10
2.133897
 20
6.816745
 30
0.0
 10
2.345234
 20
6.254094
 30
0.0
 10
2.121204
 20
5.678957
 30
0.0
 10
1.592758
 20
5.450550
 30
0.0
 10
1.060287
 20
5.687416
 30
0.0
 10
0.832026
 20
6.245635
 30
0.0
  0
LWPOLYLINE
  5
115
100
AcDbEntity
  8
c_
 62
7
100
AcDbPolyline
 90
9
 70
0
 10
2.996169
 20
6.245635
 30
0.0
 10
3.228661
 20
6.804040
 30
0.0
 10
3.773824
 20
7.040921
 30
0.0
 10
4.289578
 20
6.816745
 30
0.0
 10
4.500915
 20
6.254094
 30
0.0
 10
4.281116
 20
5.678957
 30
0.0
 10
3.739977
 20
5.450550
 30
0.0
 10
3.215968
 20
5.687416
 30
0.0
 10
2.996169
 20
6.245635
 30
0.0
  0
LWPOLYLINE
  5
116
100
AcDbEntity
  8
C
 62
7
100
AcDbPolyline
 90
9
 70
0
 10
0.832026
 20
6.245635
 30
0.0
 10
1.068749
 20
6.804040
 30
0.0
 10
1.618143
 20
7.040921
 30
0.0
 10
2.133897
 20
6.816745
 30
0.0
 10
2.345234
 20
6.254094
 30
0.0
 10
2.121204
 20
5.678957
 30
0.0
 10
1.592758
 20
5.450550
 30
0.0
 10
1.060287
 20
5.687416
 30
0.0
 10
0.832026
 20
6.245635
 30
0.0
  0
LWPOLYLINE
  5
117
100
AcDbEntity
  8
C
 62
7
100
AcDbPolyline
 90
9
 70
0
 10
2.996169
 20
6.245635
 30
0.0
 10
3.228661
 20
6.804040
 30
0.0
 10
3.773824
 20
7.040921
 30
0.0
 10
4.289578
 20
6.816745
 30
0.0
 10
4.500915
 20
6.254094
 30
0.0
 10
4.281116
 20
5.678957
 30
0.0
 10
3.739977
 20
5.450550
 30
0.0
 10
3.215968
 20
5.687416
 30
0.0
 10
2.996169
 20
6.245635
 30
0.0
  0
LWPOLYLINE
  5
118
100
AcDbEntity
  8
d_
 62
7
100
AcDbPolyline
 90
9
 70
0
 10
0.862842
 20
6.276514
 30
0.0
 10
1.099564
 20
6.834927
 30
0.0
 10
1.648959
 20
7.071787
 30
0.0
 10
2.164712
 20
6.847631
 30
0.0
 10
2.376049
 20
6.284955
 30
0.0
 10
2.152020
 20
5.709829
 30
0.0
 10
1.623573
 20
5.481410
 30
0.0
 10
1.091103
 20
5.718298
 30
0.0
 10
0.862842
 20
6.276514
 30
0.0
  0
LWPOLYLINE
  5
119
100
AcDbEntity
  8
d_
 62
7
100
AcDbPolyline
 90
9
 70
0
 10
3.026985
 20
3.975698
 30
0.0
 10
3.259476
 20
4.534140
 30
0.0
 10
3.804640
 20
4.771000
 30
0.0
 10
4.320393
 20
4.542609
 30
0.0
 10
4.531731
 20
3.975698
 30
0.0
 10
4.311932
 20
3.404807
 30
0.0
 10
3.770793
 20
3.172153
 30
0.0
 10
3.246784
 20
3.409041
 30
0.0
 10
3.026985
 20
3.975698
 30
0.0
  0
LWPOLYLINE
  5
11a
100
AcDbEntity
  8
d_
 62
7
100
AcDbPolyline
 90
9
 70
0
 10
3.026985
 20
6.276514
 30
0.0
 10
3.259476
 20
6.834927
 30
0.0
 10
3.804640
 20
7.071787
 30
0.0
 10
4.320393
 20
6.847631
 30
0.0
 10
4.531731
 20
6.284955
 30
0.0
 10
4.311932
 20
5.709829
 30
0.0
 10
3.770793
 20
5.481410
 30
0.0
 10
3.246784
 20
5.718298
 30
0.0
 10
3.026985
 20
6.276514
 30
0.0
  0
LWPOLYLINE
  5
11b
100
AcDbEntity
  8
D
 62
7
100
AcDbPolyline
 90
9
 70
0
 10
0.862842
 20
6.276514
 30
0.0
 10
1.099564
 20
6.834927
 30
0.0
 10
1.648959
 20
7.071787
 30
0.0
 10
2.164712
 20
6.847631
 30
0.0
 10
2.376049
 20
6.284955
 30
0.0
 10
2.152020
 20
5.709829
 30
0.0
 10
1.623573
 20
5.481410
 30
0.0
 10
1.091103
 20
5.718298
 30
0.0
 10
0.862842
 20
6.276514
 30
0.0
  0
LWPOLYLINE
  5
11c
100
AcDbEntity
  8
D
 62
7
100
AcDbPolyline
 90
9
 70
0
 10
3.026985
 20
3.975698
 30
0.0
 10
3.259476
 20
4.534140
 30
0.0
 10
3.804640
 20
4.771000
 30
0.0
 10
4.320393
 20
4.542609
 30
0.0
 10
4.531731
 20
3.975698
 30
0.0
 10
4.311932
 20
3.404807
 30
0.0
 10
3.770793
 20
3.172153
 30
0.0
 10
3.246784
 20
3.409041
 30
0.0
 10
3.026985
 20
3.975698
 30
0.0
  0
LWPOLYLINE
  5
11d
100
AcDbEntity
  8
D
 62
7
100
AcDbPolyline
 90
9
 70
0
 10
3.026985
 20
6.276514
 30
0.0
 10
3.259476
 20
6.834927
 30
0.0
 10
3.804640
 20
7.071787
 30
0.0
 10
4.320393
 20
6.847631
 30
0.0
 10
4.531731
 20
6.284955
 30
0.0
 10
4.311932
 20
5.709829
 30
0.0
 10
3.770793
 20
5.481410
 30
0.0
 10
3.246784
 20
5.718298
 30
0.0
 10
3.026985
 20
6.276514
 30
0.0
  0
LWPOLYLINE
  5
11e
100
AcDbEntity
  8
e_
 62
7
100
AcDbPolyline
 90
9
 70
0
 10
0.832026
 20
6.245657
 30
0.0
 10
1.068749
 20
6.804070
 30
0.0
 10
1.618143
 20
7.040958
 30
0.0
 10
2.133896
 20
6.816774
 30
0.0
 10
2.345234
 20
6.254126
 30
0.0
 10
2.121204
 20
5.678972
 30
0.0
 10
1.592758
 20
5.450581
 30
0.0
 10
1.060287
 20
5.687441
 30
0.0
 10
0.832026
 20
6.245657
 30
0.0
  0
LWPOLYLINE
  5
11f
100
AcDbEntity
  8
e_
 62
7
100
AcDbPolyline
 90
9
 70
0
 10
2.996169
 20
3.944870
 30
0.0
 10
3.228660
 20
4.503283
 30
0.0
 10
3.773824
 20
4.740171
 30
0.0
 10
4.289578
 20
4.511752
 30
0.0
 10
4.500915
 20
3.944870
 30
0.0
 10
4.281116
 20
3.373950
 30
0.0
 10
3.739977
 20
3.141325
 30
0.0
 10
3.215968
 20
3.378185
 30
0.0
 10
2.996169
 20
3.944870
 30
0.0
  0
LWPOLYLINE
  5
120
100
AcDbEntity
  8
E
 62
7
100
AcDbPolyline
 90
9
 70
0
 10
0.832026
 20
6.245657
 30
0.0
 10
1.068749
 20
6.804070
 30
0.0
 10
1.618143
 20
7.040958
 30
0.0
 10
2.133896
 20
6.816774
 30
0.0
 10
2.345234
 20
6.254126
 30
0.0
 10
2.121204
 20
5.678972
 30
0.0
 10
1.592758
 20
5.450581
 30
0.0
 10
1.060287
 20
5.687441
 30
0.0
 10
0.832026
 20
6.245657
 30
0.0
  0
LWPOLYLINE
  5
121
100
AcDbEntity
  8
E
 62
7
100
AcDbPolyline
 90
9
 70
0
 10
2.996169
 20
3.944870
 30
0.0
 10
3.228660
 20
4.503283
 30
0.0
 10
3.773824
 20
4.740171
 30
0.0
 10
4.289578
 20
4.511752
 30
0.0
 10
4.500915
 20
3.944870
 30
0.0
 10
4.281116
 20
3.373950
 30
0.0
 10
3.739977
 20
3.141325
 30
0.0
 10
3.215968
 20
3.378185
 30
0.0
 10
2.996169
 20
3.944870
 30
0.0
  0
LWPOLYLINE
  5
122
100
AcDbEntity
  8
f_
 62
7
100
AcDbPolyline
 90
9
 70
0
 10
0.832026
 20
6.276429
 30
0.0
 10
1.068749
 20
6.834842
 30
0.0
 10
1.618143
 20
7.071730
 30
0.0
 10
2.133897
 20
6.847546
 30
0.0
 10
2.345234
 20
6.284898
 30
0.0
 10
2.121204
 20
5.709744
 30
0.0
 10
1.592758
 20
5.481353
 30
0.0
 10
1.060287
 20
5.718213
 30
0.0
 10
0.832026
 20
6.276429
 30
0.0
  0
LWPOLYLINE
  5
123
100
AcDbEntity
  8
f_
 62
7
100
AcDbPolyline
 90
9
 70
0
 10
0.832026
 20
3.975642
 30
0.0
 10
1.068749
 20
4.534055
 30
0.0
 10
1.618143
 20
4.770943
 30
0.0
 10
2.133897
 20
4.542524
 30
0.0
 10
2.345234
 20
3.975642
 30
0.0
 10
2.121204
 20
3.404722
 30
0.0
 10
1.592758
 20
3.172097
 30
0.0
 10
1.060287
 20
3.408957
 30
0.0
 10
0.832026
 20
3.975642
 30
0.0
  0
LWPOLYLINE
  5
124
100
AcDbEntity
  8
f_
 62
7
100
AcDbPolyline
 90
9
 70
0
 10
2.996169
 20
6.276429
 30
0.0
 10
3.228661
 20
6.834842
 30
0.0
 10
3.773824
 20
7.071730
 30
0.0
 10
4.289578
 20
6.847546
 30
0.0
 10
4.500915
 20
6.284898
 30
0.0
 10
4.281116
 20
5.709744
 30
0.0
 10
3.739977
 20
5.481353
 30
0.0
 10
3.215968
 20
5.718213
 30
0.0
 10
2.996169
 20
6.276429
 30
0.0
  0
LWPOLYLINE
  5
125
100
AcDbEntity
  8
F
 62
7
100
AcDbPolyline
 90
9
 70
0
 10
0.832026
 20
6.276429
 30
0.0
 10
1.068749
 20
6.834842
 30
0.0
 10
1.618143
 20
7.071730
 30
0.0
 10
2.133897
 20
6.847546
 30
0.0
 10
2.345234
 20
6.284898
 30
0.0
 10
2.121204
 20
5.709744
 30
0.0
 10
1.592758
 20
5.481353
 30
0.0
 10
1.060287
 20
5.718213
 30
0.0
 10
0.832026
 20
6.276429
 30
0.0
  0
LWPOLYLINE
  5
126
100
AcDbEntity
  8
F
 62
7
100
AcDbPolyline
 90
9
 70
0
 10
0.832026
 20
3.975642
 30
0.0
 10
1.068749
 20
4.534055
 30
0.0
 10
1.618143
 20
4.770943
 30
0.0
 10
2.133897
 20
4.542524
 30
0.0
 10
2.345234
 20
3.975642
 30
0.0
 10
2.121204
 20
3.404722
 30
0.0
 10
1.592758
 20
3.172097
 30
0.0
 10
1.060287
 20
3.408957
 30
0.0
 10
0.832026
 20
3.975642
 30
0.0
  0
LWPOLYLINE
  5
127
100
AcDbEntity
  8
F
 62
7
100
AcDbPolyline
 90
9
 70
0
 10
2.996169
 20
6.276429
 30
0.0
 10
3.228661
 20
6.834842
 30
0.0
 10
3.773824
 20
7.071730
 30
0.0
 10
4.289578
 20
6.847546
 30
0.0
 10
4.500915
 20
6.284898
 30
0.0
 10
4.281116
 20
5.709744
 30
0.0
 10
3.739977
 20
5.481353
 30
0.0
 10
3.215968
 20
5.718213
 30
0.0
 10
2.996169
 20
6.276429
 30
0.0
  0
LWPOLYLINE
  5
128
100
AcDbEntity
  8
g_
 62
7
100
AcDbPolyline
 90
9
 70
0
 10
0.862842
 20
6.245600
 30
0.0
 10
1.099564
 20
6.804014
 30
0.0
 10
1.648958
 20
7.040874
 30
0.0
 10
2.164712
 20
6.816718
 30
0.0
 10
2.376049
 20
6.254042
 30
0.0
 10
2.152020
 20
5.678915
 30
0.0
 10
1.623573
 20
5.450497
 30
0.0
 10
1.091102
 20
5.687385
 30
0.0
 10
0.862842
 20
6.245600
 30
0.0
  0
LWPOLYLINE
  5
129
100
AcDbEntity
  8
g_
 62
7
100
AcDbPolyline
 90
9
 70
0
 10
0.862842
 20
3.944785
 30
0.0
 10
1.099564
 20
4.503227
 30
0.0
 10
1.648958
 20
4.740086
 30
0.0
 10
2.164712
 20
4.511696
 30
0.0
 10
2.376049
 20
3.944785
 30
0.0
 10
2.152020
 20
3.373893
 30
0.0
 10
1.623573
 20
3.141240
 30
0.0
 10
1.091102
 20
3.378128
 30
0.0
 10
0.862842
 20
3.944785
 30
0.0
  0
LWPOLYLINE
  5
12a
100
AcDbEntity
  8
g_
 62
7
100
AcDbPolyline
 90
9
 70
0
 10
3.026985
 20
3.944785
 30
0.0
 10
3.259476
 20
4.503227
 30
0.0
 10
3.804640
 20
4.740086
 30
0.0
 10
4.320393
 20
4.511696
 30
0.0
 10
4.531731
 20
3.944785
 30
0.0
 10
4.311932
 20
3.373893
 30
0.0
 10
3.770793
 20
3.141240
 30
0.0
 10
3.246783
 20
3.378128
 30
0.0
 10
3.026985
 20
3.944785
 30
0.0
  0
LWPOLYLINE
  5
12b
100
AcDbEntity
  8
g_
 62
7
100
AcDbPolyline
 90
9
 70
0
 10
3.026985
 20
6.245600
 30
0.0
 10
3.259476
 20
6.804014
 30
0.0
 10
3.804640
 20
7.040874
 30
0.0
 10
4.320393
 20
6.816718
 30
0.0
 10
4.531731
 20
6.254042
 30
0.0
 10
4.311932
 20
5.678915
 30
0.0
 10
3.770793
 20
5.450497
 30
0.0
 10
3.246783
 20
5.687385
 30
0.0
 10
3.026985
 20
6.245600
 30
0.0
  0
LWPOLYLINE
  5
12c
100
AcDbEntity
  8
G
 62
7
100
AcDbPolyline
 90
9
 70
0
 10
0.862842
 20
6.245600
 30
0.0
 10
1.099564
 20
6.804014
 30
0.0
 10
1.648958
 20
7.040874
 30
0.0
 10
2.164712
 20
6.816718
 30
0.0
 10
2.376049
 20
6.254042
 30
0.0
 10
2.152020
 20
5.678915
 30
0.0
 10
1.623573
 20
5.450497
 30
0.0
 10
1.091102
 20
5.687385
 30
0.0
 10
0.862842
 20
6.245600
 30
0.0
  0
LWPOLYLINE
  5
12d
100
AcDbEntity
  8
G
 62
7
100
AcDbPolyline
 90
9
 70
0
 10
0.862842
 20
3.944785
 30
0.0
 10
1.099564
 20
4.503227
 30
0.0
 10
1.648958
 20
4.740086
 30
0.0
 10
2.164712
 20
4.511696
 30
0.0
 10
2.376049
 20
3.944785
 30
0.0
 10
2.152020
 20
3.373893
 30
0.0
 10
1.623573
 20
3.141240
 30
0.0
 10
1.091102
 20
3.378128
 30
0.0
 10
0.862842
 20
3.944785
 30
0.0
  0
LWPOLYLINE
  5
12e
100
AcDbEntity
  8
G
 62
7
100
AcDbPolyline
 90
9
 70
0
 10
3.026985
 20
3.944785
 30
0.0
 10
3.259476
 20
4.503227
 30
0.0
 10
3.804640
 20
4.740086
 30
0.0
 10
4.320393
 20
4.511696
 30
0.0
 10
4.531731
 20
3.944785
 30
0.0
 10
4.311932
 20
3.373893
 30
0.0
 10
3.770793
 20
3.141240
 30
0.0
 10
3.246783
 20
3.378128
 30
0.0
 10
3.026985
 20
3.944785
 30
0.0
  0
LWPOLYLINE
  5
12f
100
AcDbEntity
  8
G
 62
7
100
AcDbPolyline
 90
9
 70
0
 10
3.026985
 20
6.245600
 30
0.0
 10
3.259476
 20
6.804014
 30
0.0
 10
3.804640
 20
7.040874
 30
0.0
 10
4.320393
 20
6.816718
 30
0.0
 10
4.531731
 20
6.254042
 30
0.0
 10
4.311932
 20
5.678915
 30
0.0
 10
3.770793
 20
5.450497
 30
0.0
 10
3.246783
 20
5.687385
 30
0.0
 10
3.026985
 20
6.245600
 30
0.0
  0
LWPOLYLINE
  5
130
100
AcDbEntity
  8
h_
 62
7
100
AcDbPolyline
 90
9
 70
0
 10
0.828022
 20
6.285209
 30
0.0
 10
1.064745
 20
6.843650
 30
0.0
 10
1.614139
 20
7.080510
 30
0.0
 10
2.129893
 20
6.856326
 30
0.0
 10
2.341230
 20
6.293678
 30
0.0
 10
2.117200
 20
5.718552
 30
0.0
 10
1.588754
 20
5.490133
 30
0.0
 10
1.056283
 20
5.726993
 30
0.0
 10
0.828022
 20
6.285209
 30
0.0
  0
LWPOLYLINE
  5
131
100
AcDbEntity
  8
h_
 62
7
100
AcDbPolyline
 90
9
 70
0
 10
0.828022
 20
3.984422
 30
0.0
 10
1.064745
 20
4.542835
 30
0.0
 10
1.614139
 20
4.779723
 30
0.0
 10
2.129893
 20
4.551304
 30
0.0
 10
2.341230
 20
3.984422
 30
0.0
 10
2.117200
 20
3.413530
 30
0.0
 10
1.588754
 20
3.180877
 30
0.0
 10
1.056283
 20
3.417736
 30
0.0
 10
0.828022
 20
3.984422
 30
0.0
  0
LWPOLYLINE
  5
132
100
AcDbEntity
  8
h_
 62
7
100
AcDbPolyline
 90
9
 70
0
 10
2.992165
 20
3.984422
 30
0.0
 10
3.224657
 20
4.542835
 30
0.0
 10
3.769820
 20
4.779723
 30
0.0
 10
4.285574
 20
4.551304
 30
0.0
 10
4.496911
 20
3.984422
 30
0.0
 10
4.277112
 20
3.413530
 30
0.0
 10
3.735973
 20
3.180877
 30
0.0
 10
3.211964
 20
3.417736
 30
0.0
 10
2.992165
 20
3.984422
 30
0.0
  0
LWPOLYLINE
  5
133
100
AcDbEntity
  8
H
 62
7
100
AcDbPolyline
 90
9
 70
0
 10
0.828022
 20
6.285209
 30
0.0
 10
1.064745
 20
6.843650
 30
0.0
 10
1.614139
 20
7.080510
 30
0.0
 10
2.129893
 20
6.856326
 30
0.0
 10
2.341230
 20
6.293678
 30
0.0
 10
2.117200
 20
5.718552
 30
0.0
 10
1.588754
 20
5.490133
 30
0.0
 10
1.056283
 20
5.726993
 30
0.0
 10
0.828022
 20
6.285209
 30
0.0
  0
LWPOLYLINE
  5
134
100
AcDbEntity
  8
H
 62
7
100
AcDbPolyline
 90
9
 70
0
 10
0.828022
 20
3.984422
 30
0.0
 10
1.064745
 20
4.542835
 30
0.0
 10
1.614139
 20
4.779723
 30
0.0
 10
2.129893
 20
4.551304
 30
0.0
 10
2.341230
 20
3.984422
 30
0.0
 10
2.117200
 20
3.413530
 30
0.0
 10
1.588754
 20
3.180877
 30
0.0
 10
1.056283
 20
3.417736
 30
0.0
 10
0.828022
 20
3.984422
 30
0.0
  0
LWPOLYLINE
  5
135
100
AcDbEntity
  8
H
 62
7
100
AcDbPolyline
 90
9
 70
0
 10
2.992165
 20
3.984422
 30
0.0
 10
3.224657
 20
4.542835
 30
0.0
 10
3.769820
 20
4.779723
 30
0.0
 10
4.285574
 20
4.551304
 30
0.0
 10
4.496911
 20
3.984422
 30
0.0
 10
4.277112
 20
3.413530
 30
0.0
 10
3.735973
 20
3.180877
 30
0.0
 10
3.211964
 20
3.417736
 30
0.0
 10
2.992165
 20
3.984422
 30
0.0
  0
LWPOLYLINE
  5
136
100
AcDbEntity
  8
i_
 62
7
100
AcDbPolyline
 90
9
 70
0
 10
0.828021
 20
3.940833
 30
0.0
 10
1.064744
 20
4.499246
 30
0.0
 10
1.614138
 20
4.736134
 30
0.0
 10
2.129892
 20
4.507715
 30
0.0
 10
2.341229
 20
3.940833
 30
0.0
 10
2.117199
 20
3.369913
 30
0.0
 10
1.588753
 20
3.137288
 30
0.0
 10
1.056282
 20
3.374147
 30
0.0
 10
0.828021
 20
3.940833
 30
0.0
  0
LWPOLYLINE
  5
137
100
AcDbEntity
  8
i_
 62
7
100
AcDbPolyline
 90
9
 70
0
 10
2.992164
 20
6.241620
 30
0.0
 10
3.224656
 20
6.800033
 30
0.0
 10
3.769819
 20
7.036921
 30
0.0
 10
4.285573
 20
6.812737
 30
0.0
 10
4.496910
 20
6.250089
 30
0.0
 10
4.277111
 20
5.674935
 30
0.0
 10
3.735972
 20
5.446544
 30
0.0
 10
3.211963
 20
5.683404
 30
0.0
 10
2.992164
 20
6.241620
 30
0.0
  0
LWPOLYLINE
  5
138
100
AcDbEntity
  8
I
 62
7
100
AcDbPolyline
 90
9
 70
0
 10
0.828021
 20
3.940833
 30
0.0
 10
1.064744
 20
4.499246
 30
0.0
 10
1.614138
 20
4.736134
 30
0.0
 10
2.129892
 20
4.507715
 30
0.0
 10
2.341229
 20
3.940833
 30
0.0
 10
2.117199
 20
3.369913
 30
0.0
 10
1.588753
 20
3.137288
 30
0.0
 10
1.056282
 20
3.374147
 30
0.0
 10
0.828021
 20
3.940833
 30
0.0
  0
LWPOLYLINE
  5
139
100
AcDbEntity
  8
I
 62
7
100
AcDbPolyline
 90
9
 70
0
 10
2.992164
 20
6.241620
 30
0.0
 10
3.224656
 20
6.800033
 30
0.0
 10
3.769819
 20
7.036921
 30
0.0
 10
4.285573
 20
6.812737
 30
0.0
 10
4.496910
 20
6.250089
 30
0.0
 10
4.277111
 20
5.674935
 30
0.0
 10
3.735972
 20
5.446544
 30
0.0
 10
3.211963
 20
5.683404
 30
0.0
 10
2.992164
 20
6.241620
 30
0.0
  0
LWPOLYLINE
  5
13a
100
AcDbEntity
  8
j_
 62
7
100
AcDbPolyline
 90
9
 70
0
 10
0.871601
 20
3.984393
 30
0.0
 10
1.108324
 20
4.542807
 30
0.0
 10
1.657718
 20
4.779695
 30
0.0
 10
2.173472
 20
4.551276
 30
0.0
 10
2.384809
 20
3.984393
 30
0.0
 10
2.160779
 20
3.413474
 30
0.0
 10
1.632333
 20
3.180848
 30
0.0
 10
1.099862
 20
3.417708
 30
0.0
 10
0.871601
 20
3.984393
 30
0.0
  0
LWPOLYLINE
  5
13b
100
AcDbEntity
  8
j_
 62
7
100
AcDbPolyline
 90
9
 70
0
 10
3.035744
 20
3.984393
 30
0.0
 10
3.268236
 20
4.542807
 30
0.0
 10
3.813400
 20
4.779695
 30
0.0
 10
4.329153
 20
4.551276
 30
0.0
 10
4.540490
 20
3.984393
 30
0.0
 10
4.320691
 20
3.413474
 30
0.0
 10
3.779552
 20
3.180848
 30
0.0
 10
3.255543
 20
3.417708
 30
0.0
 10
3.035744
 20
3.984393
 30
0.0
  0
LWPOLYLINE
  5
13c
100
AcDbEntity
  8
j_
 62
7
100
AcDbPolyline
 90
9
 70
0
 10
3.035744
 20
6.285181
 30
0.0
 10
3.268236
 20
6.843594
 30
0.0
 10
3.813400
 20
7.080482
 30
0.0
 10
4.329153
 20
6.856298
 30
0.0
 10
4.540490
 20
6.293650
 30
0.0
 10
4.320691
 20
5.718495
 30
0.0
 10
3.779552
 20
5.490105
 30
0.0
 10
3.255543
 20
5.726965
 30
0.0
 10
3.035744
 20
6.285181
 30
0.0
  0
LWPOLYLINE
  5
13d
100
AcDbEntity
  8
J
 62
7
100
AcDbPolyline
 90
9
 70
0
 10
0.871601
 20
3.984393
 30
0.0
 10
1.108324
 20
4.542807
 30
0.0
 10
1.657718
 20
4.779695
 30
0.0
 10
2.173472
 20
4.551276
 30
0.0
 10
2.384809
 20
3.984393
 30
0.0
 10
2.160779
 20
3.413474
 30
0.0
 10
1.632333
 20
3.180848
 30
0.0
 10
1.099862
 20
3.417708
 30
0.0
 10
0.871601
 20
3.984393
 30
0.0
  0
LWPOLYLINE
  5
13e
100
AcDbEntity
  8
J
 62
7
100
AcDbPolyline
 90
9
 70
0
 10
3.035744
 20
3.984393
 30
0.0
 10
3.268236
 20
4.542807
 30
0.0
 10
3.813400
 20
4.779695
 30
0.0
 10
4.329153
 20
4.551276
 30
0.0
 10
4.540490
 20
3.984393
 30
0.0
 10
4.320691
 20
3.413474
 30
0.0
 10
3.779552
 20
3.180848
 30
0.0
 10
3.255543
 20
3.417708
 30
0.0
 10
3.035744
 20
3.984393
 30
0.0
  0
LWPOLYLINE
  5
13f
100
AcDbEntity
  8
J
 62
7
100
AcDbPolyline
 90
9
 70
0
 10
3.035744
 20
6.285181
 30
0.0
 10
3.268236
 20
6.843594
 30
0.0
 10
3.813400
 20
7.080482
 30
0.0
 10
4.329153
 20
6.856298
 30
0.0
 10
4.540490
 20
6.293650
 30
0.0
 10
4.320691
 20
5.718495
 30
0.0
 10
3.779552
 20
5.490105
 30
0.0
 10
3.255543
 20
5.726965
 30
0.0
 10
3.035744
 20
6.285181
 30
0.0
  0
LWPOLYLINE
  5
140
100
AcDbEntity
  8
k_
 62
7
100
AcDbPolyline
 90
9
 70
0
 10
0.828021
 20
6.246623
 30
0.0
 10
1.065113
 20
6.805564
 30
0.0
 10
1.615363
 20
7.042631
 30
0.0
 10
2.131921
 20
6.818264
 30
0.0
 10
2.343588
 20
6.255090
 30
0.0
 10
2.119209
 20
5.679413
 30
0.0
 10
1.589939
 20
5.450813
 30
0.0
 10
1.056638
 20
5.687880
 30
0.0
 10
0.828021
 20
6.246623
 30
0.0
  0
LWPOLYLINE
  5
141
100
AcDbEntity
  8
k_
 62
7
100
AcDbPolyline
 90
9
 70
0
 10
0.828021
 20
1.623852
 30
0.0
 10
1.065113
 20
2.186913
 30
0.0
 10
1.615363
 20
2.428157
 30
0.0
 10
2.131921
 20
2.203875
 30
0.0
 10
2.343588
 20
1.640813
 30
0.0
 10
2.119209
 20
1.060903
 30
0.0
 10
1.589939
 20
0.828041
 30
0.0
 10
1.056638
 20
1.065136
 30
0.0
 10
0.828021
 20
1.623852
 30
0.0
  0
LWPOLYLINE
  5
142
100
AcDbEntity
  8
K
 62
7
100
AcDbPolyline
 90
9
 70
0
 10
0.828021
 20
6.246623
 30
0.0
 10
1.065113
 20
6.805564
 30
0.0
 10
1.615363
 20
7.042631
 30
0.0
 10
2.131921
 20
6.818264
 30
0.0
 10
2.343588
 20
6.255090
 30
0.0
 10
2.119209
 20
5.679413
 30
0.0
 10
1.589939
 20
5.450813
 30
0.0
 10
1.056638
 20
5.687880
 30
0.0
 10
0.828021
 20
6.246623
 30
0.0
  0
LWPOLYLINE
  5
143
100
AcDbEntity
  8
K
 62
7
100
AcDbPolyline
 90
9
 70
0
 10
0.828021
 20
1.623852
 30
0.0
 10
1.065113
 20
2.186913
 30
0.0
 10
1.615363
 20
2.428157
 30
0.0
 10
2.131921
 20
2.203875
 30
0.0
 10
2.343588
 20
1.640813
 30
0.0
 10
2.119209
 20
1.060903
 30
0.0
 10
1.589939
 20
0.828041
 30
0.0
 10
1.056638
 20
1.065136
 30
0.0
 10
0.828021
 20
1.623852
 30
0.0
  0
LWPOLYLINE
  5
144
100
AcDbEntity
  8
l_
 62
7
100
AcDbPolyline
 90
9
 70
0
 10
0.828021
 20
6.246623
 30
0.0
 10
1.065113
 20
6.805564
 30
0.0
 10
1.615363
 20
7.042631
 30
0.0
 10
2.131921
 20
6.818264
 30
0.0
 10
2.343587
 20
6.255090
 30
0.0
 10
2.119208
 20
5.679413
 30
0.0
 10
1.589938
 20
5.450813
 30
0.0
 10
1.056638
 20
5.687880
 30
0.0
 10
0.828021
 20
6.246623
 30
0.0
  0
LWPOLYLINE
  5
145
100
AcDbEntity
  8
l_
 62
7
100
AcDbPolyline
 90
9
 70
0
 10
0.828021
 20
1.623852
 30
0.0
 10
1.065113
 20
2.186913
 30
0.0
 10
1.615363
 20
2.428157
 30
0.0
 10
2.131921
 20
2.203875
 30
0.0
 10
2.343587
 20
1.640813
 30
0.0
 10
2.119208
 20
1.060903
 30
0.0
 10
1.589938
 20
0.828041
 30
0.0
 10
1.056638
 20
1.065136
 30
0.0
 10
0.828021
 20
1.623852
 30
0.0
  0
LWPOLYLINE
  5
146
100
AcDbEntity
  8
l_
 62
7
100
AcDbPolyline
 90
9
 70
0
 10
0.828021
 20
3.943718
 30
0.0
 10
1.065113
 20
4.502631
 30
0.0
 10
1.615363
 20
4.739726
 30
0.0
 10
2.131921
 20
4.511126
 30
0.0
 10
2.343587
 20
3.943718
 30
0.0
 10
2.119208
 20
3.372275
 30
0.0
 10
1.589938
 20
3.139413
 30
0.0
 10
1.056638
 20
3.376508
 30
0.0
 10
0.828021
 20
3.943718
 30
0.0
  0
LWPOLYLINE
  5
147
100
AcDbEntity
  8
L
 62
7
100
AcDbPolyline
 90
9
 70
0
 10
0.828021
 20
6.246623
 30
0.0
 10
1.065113
 20
6.805564
 30
0.0
 10
1.615363
 20
7.042631
 30
0.0
 10
2.131921
 20
6.818264
 30
0.0
 10
2.343587
 20
6.255090
 30
0.0
 10
2.119208
 20
5.679413
 30
0.0
 10
1.589938
 20
5.450813
 30
0.0
 10
1.056638
 20
5.687880
 30
0.0
 10
0.828021
 20
6.246623
 30
0.0
  0
LWPOLYLINE
  5
148
100
AcDbEntity
  8
L
 62
7
100
AcDbPolyline
 90
9
 70
0
 10
0.828021
 20
1.623852
 30
0.0
 10
1.065113
 20
2.186913
 30
0.0
 10
1.615363
 20
2.428157
 30
0.0
 10
2.131921
 20
2.203875
 30
0.0
 10
2.343587
 20
1.640813
 30
0.0
 10
2.119208
 20
1.060903
 30
0.0
 10
1.589938
 20
0.828041
 30
0.0
 10
1.056638
 20
1.065136
 30
0.0
 10
0.828021
 20
1.623852
 30
0.0
  0
LWPOLYLINE
  5
149
100
AcDbEntity
  8
L
 62
7
100
AcDbPolyline
 90
9
 70
0
 10
0.828021
 20
3.943718
 30
0.0
 10
1.065113
 20
4.502631
 30
0.0
 10
1.615363
 20
4.739726
 30
0.0
 10
2.131921
 20
4.511126
 30
0.0
 10
2.343587
 20
3.943718
 30
0.0
 10
2.119208
 20
3.372275
 30
0.0
 10
1.589938
 20
3.139413
 30
0.0
 10
1.056638
 20
3.376508
 30
0.0
 10
0.828021
 20
3.943718
 30
0.0
  0
LWPOLYLINE
  5
14a
100
AcDbEntity
  8
m_
 62
7
100
AcDbPolyline
 90
9
 70
0
 10
0.828022
 20
6.246595
 30
0.0
 10
1.065113
 20
6.805508
 30
0.0
 10
1.615364
 20
7.042603
 30
0.0
 10
2.131921
 20
6.818236
 30
0.0
 10
2.343588
 20
6.255062
 30
0.0
 10
2.119209
 20
5.679385
 30
0.0
 10
1.589939
 20
5.450757
 30
0.0
 10
1.056638
 20
5.687852
 30
0.0
 10
0.828022
 20
6.246595
 30
0.0
  0
LWPOLYLINE
  5
14b
100
AcDbEntity
  8
m_
 62
7
100
AcDbPolyline
 90
9
 70
0
 10
0.828022
 20
1.623823
 30
0.0
 10
1.065113
 20
2.186885
 30
0.0
 10
1.615364
 20
2.428100
 30
0.0
 10
2.131921
 20
2.203846
 30
0.0
 10
2.343588
 20
1.640757
 30
0.0
 10
2.119209
 20
1.060846
 30
0.0
 10
1.589939
 20
0.828013
 30
0.0
 10
1.056638
 20
1.065080
 30
0.0
 10
0.828022
 20
1.623823
 30
0.0
  0
LWPOLYLINE
  5
14c
100
AcDbEntity
  8
m_
 62
7
100
AcDbPolyline
 90
9
 70
0
 10
2.995538
 20
6.246595
 30
0.0
 10
3.228392
 20
6.805508
 30
0.0
 10
3.774405
 20
7.042603
 30
0.0
 10
4.290963
 20
6.818236
 30
0.0
 10
4.502629
 20
6.255062
 30
0.0
 10
4.282488
 20
5.679385
 30
0.0
 10
3.740505
 20
5.450757
 30
0.0
 10
3.215680
 20
5.687852
 30
0.0
 10
2.995538
 20
6.246595
 30
0.0
  0
LWPOLYLINE
  5
14d
100
AcDbEntity
  8
M
 62
7
100
AcDbPolyline
 90
9
 70
0
 10
0.828022
 20
6.246595
 30
0.0
 10
1.065113
 20
6.805508
 30
0.0
 10
1.615364
 20
7.042603
 30
0.0
 10
2.131921
 20
6.818236
 30
0.0
 10
2.343588
 20
6.255062
 30
0.0
 10
2.119209
 20
5.679385
 30
0.0
 10
1.589939
 20
5.450757
 30
0.0
 10
1.056638
 20
5.687852
 30
0.0
 10
0.828022
 20
6.246595
 30
0.0
  0
LWPOLYLINE
  5
14e
100
AcDbEntity
  8
M
 62
7
100
AcDbPolyline
 90
9
 70
0
 10
0.828022
 20
1.623823
 30
0.0
 10
1.065113
 20
2.186885
 30
0.0
 10
1.615364
 20
2.428100
 30
0.0
 10
2.131921
 20
2.203846
 30
0.0
 10
2.343588
 20
1.640757
 30
0.0
 10
2.119209
 20
1.060846
 30
0.0
 10
1.589939
 20
0.828013
 30
0.0
 10
1.056638
 20
1.065080
 30
0.0
 10
0.828022
 20
1.623823
 30
0.0
  0
LWPOLYLINE
  5
14f
100
AcDbEntity
  8
M
 62
7
100
AcDbPolyline
 90
9
 70
0
 10
2.995538
 20
6.246595
 30
0.0
 10
3.228392
 20
6.805508
 30
0.0
 10
3.774405
 20
7.042603
 30
0.0
 10
4.290963
 20
6.818236
 30
0.0
 10
4.502629
 20
6.255062
 30
0.0
 10
4.282488
 20
5.679385
 30
0.0
 10
3.740505
 20
5.450757
 30
0.0
 10
3.215680
 20
5.687852
 30
0.0
 10
2.995538
 20
6.246595
 30
0.0
  0
LWPOLYLINE
  5
150
100
AcDbEntity
  8
n_
 62
7
100
AcDbPolyline
 90
9
 70
0
 10
0.828021
 20
6.246623
 30
0.0
 10
1.065113
 20
6.805564
 30
0.0
 10
1.615364
 20
7.042631
 30
0.0
 10
2.131921
 20
6.818264
 30
0.0
 10
2.343588
 20
6.255090
 30
0.0
 10
2.119209
 20
5.679413
 30
0.0
 10
1.589939
 20
5.450813
 30
0.0
 10
1.056638
 20
5.687880
 30
0.0
 10
0.828021
 20
6.246623
 30
0.0
  0
LWPOLYLINE
  5
151
100
AcDbEntity
  8
n_
 62
7
100
AcDbPolyline
 90
9
 70
0
 10
0.828021
 20
1.623852
 30
0.0
 10
1.065113
 20
2.186913
 30
0.0
 10
1.615364
 20
2.428157
 30
0.0
 10
2.131921
 20
2.203875
 30
0.0
 10
2.343588
 20
1.640813
 30
0.0
 10
2.119209
 20
1.060903
 30
0.0
 10
1.589939
 20
0.828041
 30
0.0
 10
1.056638
 20
1.065136
 30
0.0
 10
0.828021
 20
1.623852
 30
0.0
  0
LWPOLYLINE
  5
152
100
AcDbEntity
  8
n_
 62
7
100
AcDbPolyline
 90
9
 70
0
 10
2.995538
 20
3.943718
 30
0.0
 10
3.228392
 20
4.502631
 30
0.0
 10
3.774405
 20
4.739726
 30
0.0
 10
4.290963
 20
4.511126
 30
0.0
 10
4.502629
 20
3.943718
 30
0.0
 10
4.282488
 20
3.372275
 30
0.0
 10
3.740505
 20
3.139413
 30
0.0
 10
3.215679
 20
3.376508
 30
0.0
 10
2.995538
 20
3.943718
 30
0.0
  0
LWPOLYLINE
  5
153
100
AcDbEntity
  8
n_
 62
7
100
AcDbPolyline
 90
9
 70
0
 10
2.995538
 20
6.246623
 30
0.0
 10
3.228392
 20
6.805564
 30
0.0
 10
3.774405
 20
7.042631
 30
0.0
 10
4.290963
 20
6.818264
 30
0.0
 10
4.502629
 20
6.255090
 30
0.0
 10
4.282488
 20
5.679413
 30
0.0
 10
3.740505
 20
5.450813
 30
0.0
 10
3.215679
 20
5.687880
 30
0.0
 10
2.995538
 20
6.246623
 30
0.0
  0
LWPOLYLINE
  5
154
100
AcDbEntity
  8
N
 62
7
100
AcDbPolyline
 90
9
 70
0
 10
0.828021
 20
6.246623
 30
0.0
 10
1.065113
 20
6.805564
 30
0.0
 10
1.615364
 20
7.042631
 30
0.0
 10
2.131921
 20
6.818264
 30
0.0
 10
2.343588
 20
6.255090
 30
0.0
 10
2.119209
 20
5.679413
 30
0.0
 10
1.589939
 20
5.450813
 30
0.0
 10
1.056638
 20
5.687880
 30
0.0
 10
0.828021
 20
6.246623
 30
0.0
  0
LWPOLYLINE
  5
155
100
AcDbEntity
  8
N
 62
7
100
AcDbPolyline
 90
9
 70
0
 10
0.828021
 20
1.623852
 30
0.0
 10
1.065113
 20
2.186913
 30
0.0
 10
1.615364
 20
2.428157
 30
0.0
 10
2.131921
 20
2.203875
 30
0.0
 10
2.343588
 20
1.640813
 30
0.0
 10
2.119209
 20
1.060903
 30
0.0
 10
1.589939
 20
0.828041
 30
0.0
 10
1.056638
 20
1.065136
 30
0.0
 10
0.828021
 20
1.623852
 30
0.0
  0
LWPOLYLINE
  5
156
100
AcDbEntity
  8
N
 62
7
100
AcDbPolyline
 90
9
 70
0
 10
2.995538
 20
3.943718
 30
0.0
 10
3.228392
 20
4.502631
 30
0.0
 10
3.774405
 20
4.739726
 30
0.0
 10
4.290963
 20
4.511126
 30
0.0
 10
4.502629
 20
3.943718
 30
0.0
 10
4.282488
 20
3.372275
 30
0.0
 10
3.740505
 20
3.139413
 30
0.0
 10
3.215679
 20
3.376508
 30
0.0
 10
2.995538
 20
3.943718
 30
0.0
  0
LWPOLYLINE
  5
157
100
AcDbEntity
  8
N
 62
7
100
AcDbPolyline
 90
9
 70
0
 10
2.995538
 20
6.246623
 30
0.0
 10
3.228392
 20
6.805564
 30
0.0
 10
3.774405
 20
7.042631
 30
0.0
 10
4.290963
 20
6.818264
 30
0.0
 10
4.502629
 20
6.255090
 30
0.0
 10
4.282488
 20
5.679413
 30
0.0
 10
3.740505
 20
5.450813
 30
0.0
 10
3.215679
 20
5.687880
 30
0.0
 10
2.995538
 20
6.246623
 30
0.0
  0
LWPOLYLINE
  5
158
100
AcDbEntity
  8
o_
 62
7
100
AcDbPolyline
 90
9
 70
0
 10
0.828021
 20
6.246595
 30
0.0
 10
1.065113
 20
6.805508
 30
0.0
 10
1.615364
 20
7.042603
 30
0.0
 10
2.131921
 20
6.818236
 30
0.0
 10
2.343588
 20
6.255062
 30
0.0
 10
2.119209
 20
5.679385
 30
0.0
 10
1.589939
 20
5.450757
 30
0.0
 10
1.056638
 20
5.687852
 30
0.0
 10
0.828021
 20
6.246595
 30
0.0
  0
LWPOLYLINE
  5
159
100
AcDbEntity
  8
o_
 62
7
100
AcDbPolyline
 90
9
 70
0
 10
0.828021
 20
1.623823
 30
0.0
 10
1.065113
 20
2.186885
 30
0.0
 10
1.615364
 20
2.428100
 30
0.0
 10
2.131921
 20
2.203846
 30
0.0
 10
2.343588
 20
1.640757
 30
0.0
 10
2.119209
 20
1.060846
 30
0.0
 10
1.589939
 20
0.828013
 30
0.0
 10
1.056638
 20
1.065080
 30
0.0
 10
0.828021
 20
1.623823
 30
0.0
  0
LWPOLYLINE
  5
15a
100
AcDbEntity
  8
o_
 62
7
100
AcDbPolyline
 90
9
 70
0
 10
2.995538
 20
3.943690
 30
0.0
 10
3.228392
 20
4.502603
 30
0.0
 10
3.774405
 20
4.739698
 30
0.0
 10
4.290963
 20
4.511070
 30
0.0
 10
4.502629
 20
3.943690
 30
0.0
 10
4.282488
 20
3.372246
 30
0.0
 10
3.740505
 20
3.139385
 30
0.0
 10
3.215679
 20
3.376480
 30
0.0
 10
2.995538
 20
3.943690
 30
0.0
  0
LWPOLYLINE
  5
15b
100
AcDbEntity
  8
O
 62
7
100
AcDbPolyline
 90
9
 70
0
 10
0.828021
 20
6.246595
 30
0.0
 10
1.065113
 20
6.805508
 30
0.0
 10
1.615364
 20
7.042603
 30
0.0
 10
2.131921
 20
6.818236
 30
0.0
 10
2.343588
 20
6.255062
 30
0.0
 10
2.119209
 20
5.679385
 30
0.0
 10
1.589939
 20
5.450757
 30
0.0
 10
1.056638
 20
5.687852
 30
0.0
 10
0.828021
 20
6.246595
 30
0.0
  0
LWPOLYLINE
  5
15c
100
AcDbEntity
  8
O
 62
7
100
AcDbPolyline
 90
9
 70
0
 10
0.828021
 20
1.623823
 30
0.0
 10
1.065113
 20
2.186885
 30
0.0
 10
1.615364
 20
2.428100
 30
0.0
 10
2.131921
 20
2.203846
 30
0.0
 10
2.343588
 20
1.640757
 30
0.0
 10
2.119209
 20
1.060846
 30
0.0
 10
1.589939
 20
0.828013
 30
0.0
 10
1.056638
 20
1.065080
 30
0.0
 10
0.828021
 20
1.623823
 30
0.0
  0
LWPOLYLINE
  5
15d
100
AcDbEntity
  8
O
 62
7
100
AcDbPolyline
 90
9
 70
0
 10
2.995538
 20
3.943690
 30
0.0
 10
3.228392
 20
4.502603
 30
0.0
 10
3.774405
 20
4.739698
 30
0.0
 10
4.290963
 20
4.511070
 30
0.0
 10
4.502629
 20
3.943690
 30
0.0
 10
4.282488
 20
3.372246
 30
0.0
 10
3.740505
 20
3.139385
 30
0.0
 10
3.215679
 20
3.376480
 30
0.0
 10
2.995538
 20
3.943690
 30
0.0
  0
LWPOLYLINE
  5
15e
100
AcDbEntity
  8
p_
 62
7
100
AcDbPolyline
 90
9
 70
0
 10
0.828021
 20
6.246623
 30
0.0
 10
1.065113
 20
6.805564
 30
0.0
 10
1.615363
 20
7.042631
 30
0.0
 10
2.131921
 20
6.818264
 30
0.0
 10
2.343588
 20
6.255090
 30
0.0
 10
2.119209
 20
5.679413
 30
0.0
 10
1.589939
 20
5.450813
 30
0.0
 10
1.056638
 20
5.687880
 30
0.0
 10
0.828021
 20
6.246623
 30
0.0
  0
LWPOLYLINE
  5
15f
100
AcDbEntity
  8
p_
 62
7
100
AcDbPolyline
 90
9
 70
0
 10
0.828021
 20
1.623852
 30
0.0
 10
1.065113
 20
2.186913
 30
0.0
 10
1.615363
 20
2.428157
 30
0.0
 10
2.131921
 20
2.203875
 30
0.0
 10
2.343588
 20
1.640813
 30
0.0
 10
2.119209
 20
1.060903
 30
0.0
 10
1.589939
 20
0.828041
 30
0.0
 10
1.056638
 20
1.065136
 30
0.0
 10
0.828021
 20
1.623852
 30
0.0
  0
LWPOLYLINE
  5
160
100
AcDbEntity
  8
p_
 62
7
100
AcDbPolyline
 90
9
 70
0
 10
0.828021
 20
3.943718
 30
0.0
 10
1.065113
 20
4.502631
 30
0.0
 10
1.615363
 20
4.739726
 30
0.0
 10
2.131921
 20
4.511126
 30
0.0
 10
2.343588
 20
3.943718
 30
0.0
 10
2.119209
 20
3.372275
 30
0.0
 10
1.589939
 20
3.139413
 30
0.0
 10
1.056638
 20
3.376508
 30
0.0
 10
0.828021
 20
3.943718
 30
0.0
  0
LWPOLYLINE
  5
161
100
AcDbEntity
  8
p_
 62
7
100
AcDbPolyline
 90
9
 70
0
 10
2.995538
 20
6.246623
 30
0.0
 10
3.228392
 20
6.805564
 30
0.0
 10
3.774405
 20
7.042631
 30
0.0
 10
4.290962
 20
6.818264
 30
0.0
 10
4.502629
 20
6.255090
 30
0.0
 10
4.282487
 20
5.679413
 30
0.0
 10
3.740505
 20
5.450813
 30
0.0
 10
3.215679
 20
5.687880
 30
0.0
 10
2.995538
 20
6.246623
 30
0.0
  0
LWPOLYLINE
  5
162
100
AcDbEntity
  8
P
 62
7
100
AcDbPolyline
 90
9
 70
0
 10
0.828021
 20
6.246623
 30
0.0
 10
1.065113
 20
6.805564
 30
0.0
 10
1.615363
 20
7.042631
 30
0.0
 10
2.131921
 20
6.818264
 30
0.0
 10
2.343588
 20
6.255090
 30
0.0
 10
2.119209
 20
5.679413
 30
0.0
 10
1.589939
 20
5.450813
 30
0.0
 10
1.056638
 20
5.687880
 30
0.0
 10
0.828021
 20
6.246623
 30
0.0
  0
LWPOLYLINE
  5
163
100
AcDbEntity
  8
P
 62
7
100
AcDbPolyline
 90
9
 70
0
 10
0.828021
 20
1.623852
 30
0.0
 10
1.065113
 20
2.186913
 30
0.0
 10
1.615363
 20
2.428157
 30
0.0
 10
2.131921
 20
2.203875
 30
0.0
 10
2.343588
 20
1.640813
 30
0.0
 10
2.119209
 20
1.060903
 30
0.0
 10
1.589939
 20
0.828041
 30
0.0
 10
1.056638
 20
1.065136
 30
0.0
 10
0.828021
 20
1.623852
 30
0.0
  0
LWPOLYLINE
  5
164
100
AcDbEntity
  8
P
 62
7
100
AcDbPolyline
 90
9
 70
0
 10
0.828021
 20
3.943718
 30
0.0
 10
1.065113
 20
4.502631
 30
0.0
 10
1.615363
 20
4.739726
 30
0.0
 10
2.131921
 20
4.511126
 30
0.0
 10
2.343588
 20
3.943718
 30
0.0
 10
2.119209
 20
3.372275
 30
0.0
 10
1.589939
 20
3.139413
 30
0.0
 10
1.056638
 20
3.376508
 30
0.0
 10
0.828021
 20
3.943718
 30
0.0
  0
LWPOLYLINE
  5
165
100
AcDbEntity
  8
P
 62
7
100
AcDbPolyline
 90
9
 70
0
 10
2.995538
 20
6.246623
 30
0.0
 10
3.228392
 20
6.805564
 30
0.0
 10
3.774405
 20
7.042631
 30
0.0
 10
4.290962
 20
6.818264
 30
0.0
 10
4.502629
 20
6.255090
 30
0.0
 10
4.282487
 20
5.679413
 30
0.0
 10
3.740505
 20
5.450813
 30
0.0
 10
3.215679
 20
5.687880
 30
0.0
 10
2.995538
 20
6.246623
 30
0.0
  0
LWPOLYLINE
  5
166
100
AcDbEntity
  8
q_
 62
7
100
AcDbPolyline
 90
9
 70
0
 10
0.828022
 20
6.290170
 30
0.0
 10
1.065113
 20
6.849083
 30
0.0
 10
1.615364
 20
7.086178
 30
0.0
 10
2.131922
 20
6.861811
 30
0.0
 10
2.343588
 20
6.298637
 30
0.0
 10
2.119209
 20
5.722960
 30
0.0
 10
1.589939
 20
5.494360
 30
0.0
 10
1.056638
 20
5.731427
 30
0.0
 10
0.828022
 20
6.290170
 30
0.0
  0
LWPOLYLINE
  5
167
100
AcDbEntity
  8
q_
 62
7
100
AcDbPolyline
 90
9
 70
0
 10
0.828022
 20
1.667398
 30
0.0
 10
1.065113
 20
2.230460
 30
0.0
 10
1.615364
 20
2.471704
 30
0.0
 10
2.131922
 20
2.247422
 30
0.0
 10
2.343588
 20
1.684360
 30
0.0
 10
2.119209
 20
1.104422
 30
0.0
 10
1.589939
 20
0.871588
 30
0.0
 10
1.056638
 20
1.108683
 30
0.0
 10
0.828022
 20
1.667398
 30
0.0
  0
LWPOLYLINE
  5
168
100
AcDbEntity
  8
q_
 62
7
100
AcDbPolyline
 90
9
 70
0
 10
0.828022
 20
3.987265
 30
0.0
 10
1.065113
 20
4.546178
 30
0.0
 10
1.615364
 20
4.783273
 30
0.0
 10
2.131922
 20
4.554673
 30
0.0
 10
2.343588
 20
3.987265
 30
0.0
 10
2.119209
 20
3.415822
 30
0.0
 10
1.589939
 20
3.182960
 30
0.0
 10
1.056638
 20
3.420055
 30
0.0
 10
0.828022
 20
3.987265
 30
0.0
  0
LWPOLYLINE
  5
169
100
AcDbEntity
  8
q_
 62
7
100
AcDbPolyline
 90
9
 70
0
 10
2.995538
 20
3.987265
 30
0.0
 10
3.228392
 20
4.546178
 30
0.0
 10
3.774405
 20
4.783273
 30
0.0
 10
4.290963
 20
4.554673
 30
0.0
 10
4.502629
 20
3.987265
 30
0.0
 10
4.282488
 20
3.415822
 30
0.0
 10
3.740506
 20
3.182960
 30
0.0
 10
3.215680
 20
3.420055
 30
0.0
 10
2.995538
 20
3.987265
 30
0.0
  0
LWPOLYLINE
  5
16a
100
AcDbEntity
  8
q_
 62
7
100
AcDbPolyline
 90
9
 70
0
 10
2.995538
 20
6.290170
 30
0.0
 10
3.228392
 20
6.849083
 30
0.0
 10
3.774405
 20
7.086178
 30
0.0
 10
4.290963
 20
6.861811
 30
0.0
 10
4.502629
 20
6.298637
 30
0.0
 10
4.282488
 20
5.722960
 30
0.0
 10
3.740506
 20
5.494360
 30
0.0
 10
3.215680
 20
5.731427
 30
0.0
 10
2.995538
 20
6.290170
 30
0.0
  0
LWPOLYLINE
  5
16b
100
AcDbEntity
  8
Q
 62
7
100
AcDbPolyline
 90
9
 70
0
 10
0.828022
 20
6.290170
 30
0.0
 10
1.065113
 20
6.849083
 30
0.0
 10
1.615364
 20
7.086178
 30
0.0
 10
2.131922
 20
6.861811
 30
0.0
 10
2.343588
 20
6.298637
 30
0.0
 10
2.119209
 20
5.722960
 30
0.0
 10
1.589939
 20
5.494360
 30
0.0
 10
1.056638
 20
5.731427
 30
0.0
 10
0.828022
 20
6.290170
 30
0.0
  0
LWPOLYLINE
  5
16c
100
AcDbEntity
  8
Q
 62
7
100
AcDbPolyline
 90
9
 70
0
 10
0.828022
 20
1.667398
 30
0.0
 10
1.065113
 20
2.230460
 30
0.0
 10
1.615364
 20
2.471704
 30
0.0
 10
2.131922
 20
2.247422
 30
0.0
 10
2.343588
 20
1.684360
 30
0.0
 10
2.119209
 20
1.104422
 30
0.0
 10
1.589939
 20
0.871588
 30
0.0
 10
1.056638
 20
1.108683
 30
0.0
 10
0.828022
 20
1.667398
 30
0.0
  0
LWPOLYLINE
  5
16d
100
AcDbEntity
  8
Q
 62
7
100
AcDbPolyline
 90
9
 70
0
 10
0.828022
 20
3.987265
 30
0.0
 10
1.065113
 20
4.546178
 30
0.0
 10
1.615364
 20
4.783273
 30
0.0
 10
2.131922
 20
4.554673
 30
0.0
 10
2.343588
 20
3.987265
 30
0.0
 10
2.119209
 20
3.415822
 30
0.0
 10
1.589939
 20
3.182960
 30
0.0
 10
1.056638
 20
3.420055
 30
0.0
 10
0.828022
 20
3.987265
 30
0.0
  0
LWPOLYLINE
  5
16e
100
AcDbEntity
  8
Q
 62
7
100
AcDbPolyline
 90
9
 70
0
 10
2.995538
 20
3.987265
 30
0.0
 10
3.228392
 20
4.546178
 30
0.0
 10
3.774405
 20
4.783273
 30
0.0
 10
4.290963
 20
4.554673
 30
0.0
 10
4.502629
 20
3.987265
 30
0.0
 10
4.282488
 20
3.415822
 30
0.0
 10
3.740506
 20
3.182960
 30
0.0
 10
3.215680
 20
3.420055
 30
0.0
 10
2.995538
 20
3.987265
 30
0.0
  0
LWPOLYLINE
  5
16f
100
AcDbEntity
  8
Q
 62
7
100
AcDbPolyline
 90
9
 70
0
 10
2.995538
 20
6.290170
 30
0.0
 10
3.228392
 20
6.849083
 30
0.0
 10
3.774405
 20
7.086178
 30
0.0
 10
4.290963
 20
6.861811
 30
0.0
 10
4.502629
 20
6.298637
 30
0.0
 10
4.282488
 20
5.722960
 30
0.0
 10
3.740506
 20
5.494360
 30
0.0
 10
3.215680
 20
5.731427
 30
0.0
 10
2.995538
 20
6.290170
 30
0.0
  0
LWPOLYLINE
  5
170
100
AcDbEntity
  8
r_
 62
7
100
AcDbPolyline
 90
9
 70
0
 10
0.828022
 20
6.246623
 30
0.0
 10
1.065113
 20
6.805564
 30
0.0
 10
1.615364
 20
7.042631
 30
0.0
 10
2.131921
 20
6.818264
 30
0.0
 10
2.343588
 20
6.255090
 30
0.0
 10
2.119209
 20
5.679413
 30
0.0
 10
1.589939
 20
5.450813
 30
0.0
 10
1.056638
 20
5.687880
 30
0.0
 10
0.828022
 20
6.246623
 30
0.0
  0
LWPOLYLINE
  5
171
100
AcDbEntity
  8
r_
 62
7
100
AcDbPolyline
 90
9
 70
0
 10
0.828022
 20
1.623852
 30
0.0
 10
1.065113
 20
2.186913
 30
0.0
 10
1.615364
 20
2.428157
 30
0.0
 10
2.131921
 20
2.203875
 30
0.0
 10
2.343588
 20
1.640813
 30
0.0
 10
2.119209
 20
1.060903
 30
0.0
 10
1.589939
 20
0.828041
 30
0.0
 10
1.056638
 20
1.065136
 30
0.0
 10
0.828022
 20
1.623852
 30
0.0
  0
LWPOLYLINE
  5
172
100
AcDbEntity
  8
r_
 62
7
100
AcDbPolyline
 90
9
 70
0
 10
0.828022
 20
3.943718
 30
0.0
 10
1.065113
 20
4.502631
 30
0.0
 10
1.615364
 20
4.739726
 30
0.0
 10
2.131921
 20
4.511126
 30
0.0
 10
2.343588
 20
3.943718
 30
0.0
 10
2.119209
 20
3.372275
 30
0.0
 10
1.589939
 20
3.139413
 30
0.0
 10
1.056638
 20
3.376508
 30
0.0
 10
0.828022
 20
3.943718
 30
0.0
  0
LWPOLYLINE
  5
173
100
AcDbEntity
  8
r_
 62
7
100
AcDbPolyline
 90
9
 70
0
 10
2.995538
 20
3.943718
 30
0.0
 10
3.228392
 20
4.502631
 30
0.0
 10
3.774405
 20
4.739726
 30
0.0
 10
4.290963
 20
4.511126
 30
0.0
 10
4.502629
 20
3.943718
 30
0.0
 10
4.282488
 20
3.372275
 30
0.0
 10
3.740505
 20
3.139413
 30
0.0
 10
3.215680
 20
3.376508
 30
0.0
 10
2.995538
 20
3.943718
 30
0.0
  0
LWPOLYLINE
  5
174
100
AcDbEntity
  8
R
 62
7
100
AcDbPolyline
 90
9
 70
0
 10
0.828022
 20
6.246623
 30
0.0
 10
1.065113
 20
6.805564
 30
0.0
 10
1.615364
 20
7.042631
 30
0.0
 10
2.131921
 20
6.818264
 30
0.0
 10
2.343588
 20
6.255090
 30
0.0
 10
2.119209
 20
5.679413
 30
0.0
 10
1.589939
 20
5.450813
 30
0.0
 10
1.056638
 20
5.687880
 30
0.0
 10
0.828022
 20
6.246623
 30
0.0
  0
LWPOLYLINE
  5
175
100
AcDbEntity
  8
R
 62
7
100
AcDbPolyline
 90
9
 70
0
 10
0.828022
 20
1.623852
 30
0.0
 10
1.065113
 20
2.186913
 30
0.0
 10
1.615364
 20
2.428157
 30
0.0
 10
2.131921
 20
2.203875
 30
0.0
 10
2.343588
 20
1.640813
 30
0.0
 10
2.119209
 20
1.060903
 30
0.0
 10
1.589939
 20
0.828041
 30
0.0
 10
1.056638
 20
1.065136
 30
0.0
 10
0.828022
 20
1.623852
 30
0.0
  0
LWPOLYLINE
  5
176
100
AcDbEntity
  8
R
 62
7
100
AcDbPolyline
 90
9
 70
0
 10
0.828022
 20
3.943718
 30
0.0
 10
1.065113
 20
4.502631
 30
0.0
 10
1.615364
 20
4.739726
 30
0.0
 10
2.131921
 20
4.511126
 30
0.0
 10
2.343588
 20
3.943718
 30
0.0
 10
2.119209
 20
3.372275
 30
0.0
 10
1.589939
 20
3.139413
 30
0.0
 10
1.056638
 20
3.376508
 30
0.0
 10
0.828022
 20
3.943718
 30
0.0
  0
LWPOLYLINE
  5
177
100
AcDbEntity
  8
R
 62
7
100
AcDbPolyline
 90
9
 70
0
 10
2.995538
 20
3.943718
 30
0.0
 10
3.228392
 20
4.502631
 30
0.0
 10
3.774405
 20
4.739726
 30
0.0
 10
4.290963
 20
4.511126
 30
0.0
 10
4.502629
 20
3.943718
 30
0.0
 10
4.282488
 20
3.372275
 30
0.0
 10
3.740505
 20
3.139413
 30
0.0
 10
3.215680
 20
3.376508
 30
0.0
 10
2.995538
 20
3.943718
 30
0.0
  0
LWPOLYLINE
  5
178
100
AcDbEntity
  8
s_
 62
7
100
AcDbPolyline
 90
9
 70
0
 10
0.828022
 20
1.623865
 30
0.0
 10
1.065113
 20
2.186926
 30
0.0
 10
1.615364
 20
2.428142
 30
0.0
 10
2.131921
 20
2.203860
 30
0.0
 10
2.343588
 20
1.640798
 30
0.0
 10
2.119209
 20
1.060888
 30
0.0
 10
1.589939
 20
0.828026
 30
0.0
 10
1.056638
 20
1.065121
 30
0.0
 10
0.828022
 20
1.623865
 30
0.0
  0
LWPOLYLINE
  5
179
100
AcDbEntity
  8
s_
 62
7
100
AcDbPolyline
 90
9
 70
0
 10
0.828022
 20
3.943703
 30
0.0
 10
1.065113
 20
4.502644
 30
0.0
 10
1.615364
 20
4.739739
 30
0.0
 10
2.131921
 20
4.511111
 30
0.0
 10
2.343588
 20
3.943703
 30
0.0
 10
2.119209
 20
3.372288
 30
0.0
 10
1.589939
 20
3.139426
 30
0.0
 10
1.056638
 20
3.376521
 30
0.0
 10
0.828022
 20
3.943703
 30
0.0
  0
LWPOLYLINE
  5
17a
100
AcDbEntity
  8
s_
 62
7
100
AcDbPolyline
 90
9
 70
0
 10
2.995538
 20
6.246608
 30
0.0
 10
3.228392
 20
6.805549
 30
0.0
 10
3.774405
 20
7.042644
 30
0.0
 10
4.290963
 20
6.818278
 30
0.0
 10
4.502629
 20
6.255103
 30
0.0
 10
4.282488
 20
5.679426
 30
0.0
 10
3.740505
 20
5.450798
 30
0.0
 10
3.215680
 20
5.687893
 30
0.0
 10
2.995538
 20
6.246608
 30
0.0
  0
LWPOLYLINE
  5
17b
100
AcDbEntity
  8
S
 62
7
100
AcDbPolyline
 90
9
 70
0
 10
0.828022
 20
1.623865
 30
0.0
 10
1.065113
 20
2.186926
 30
0.0
 10
1.615364
 20
2.428142
 30
0.0
 10
2.131921
 20
2.203860
 30
0.0
 10
2.343588
 20
1.640798
 30
0.0
 10
2.119209
 20
1.060888
 30
0.0
 10
1.589939
 20
0.828026
 30
0.0
 10
1.056638
 20
1.065121
 30
0.0
 10
0.828022
 20
1.623865
 30
0.0
  0
LWPOLYLINE
  5
17c
100
AcDbEntity
  8
S
 62
7
100
AcDbPolyline
 90
9
 70
0
 10
0.828022
 20
3.943703
 30
0.0
 10
1.065113
 20
4.502644
 30
0.0
 10
1.615364
 20
4.739739
 30
0.0
 10
2.131921
 20
4.511111
 30
0.0
 10
2.343588
 20
3.943703
 30
0.0
 10
2.119209
 20
3.372288
 30
0.0
 10
1.589939
 20
3.139426
 30
0.0
 10
1.056638
 20
3.376521
 30
0.0
 10
0.828022
 20
3.943703
 30
0.0
  0
LWPOLYLINE
  5
17d
100
AcDbEntity
  8
S
 62
7
100
AcDbPolyline
 90
9
 70
0
 10
2.995538
 20
6.246608
 30
0.0
 10
3.228392
 20
6.805549
 30
0.0
 10
3.774405
 20
7.042644
 30
0.0
 10
4.290963
 20
6.818278
 30
0.0
 10
4.502629
 20
6.255103
 30
0.0
 10
4.282488
 20
5.679426
 30
0.0
 10
3.740505
 20
5.450798
 30
0.0
 10
3.215680
 20
5.687893
 30
0.0
 10
2.995538
 20
6.246608
 30
0.0
  0
LWPOLYLINE
  5
17e
100
AcDbEntity
  8
t_
 62
7
100
AcDbPolyline
 90
9
 70
0
 10
0.828021
 20
1.623859
 30
0.0
 10
1.065113
 20
2.186921
 30
0.0
 10
1.615364
 20
2.428136
 30
0.0
 10
2.131921
 20
2.203854
 30
0.0
 10
2.343588
 20
1.640793
 30
0.0
 10
2.119209
 20
1.060883
 30
0.0
 10
1.589939
 20
0.828021
 30
0.0
 10
1.056638
 20
1.065116
 30
0.0
 10
0.828021
 20
1.623859
 30
0.0
  0
LWPOLYLINE
  5
17f
100
AcDbEntity
  8
t_
 62
7
100
AcDbPolyline
 90
9
 70
0
 10
0.828021
 20
3.943698
 30
0.0
 10
1.065113
 20
4.502639
 30
0.0
 10
1.615364
 20
4.739734
 30
0.0
 10
2.131921
 20
4.511106
 30
0.0
 10
2.343588
 20
3.943698
 30
0.0
 10
2.119209
 20
3.372254
 30
0.0
 10
1.589939
 20
3.139421
 30
0.0
 10
1.056638
 20
3.376516
 30
0.0
 10
0.828021
 20
3.943698
 30
0.0
  0
LWPOLYLINE
  5
180
100
AcDbEntity
  8
t_
 62
7
100
AcDbPolyline
 90
9
 70
0
 10
2.995538
 20
3.943698
 30
0.0
 10
3.228392
 20
4.502639
 30
0.0
 10
3.774405
 20
4.739734
 30
0.0
 10
4.290963
 20
4.511106
 30
0.0
 10
4.502629
 20
3.943698
 30
0.0
 10
4.282487
 20
3.372254
 30
0.0
 10
3.740505
 20
3.139421
 30
0.0
 10
3.215679
 20
3.376516
 30
0.0
 10
2.995538
 20
3.943698
 30
0.0
  0
LWPOLYLINE
  5
181
100
AcDbEntity
  8
t_
 62
7
100
AcDbPolyline
 90
9
 70
0
 10
2.995538
 20
6.246603
 30
0.0
 10
3.228392
 20
6.805544
 30
0.0
 10
3.774405
 20
7.042639
 30
0.0
 10
4.290963
 20
6.818272
 30
0.0
 10
4.502629
 20
6.255098
 30
0.0
 10
4.282487
 20
5.679421
 30
0.0
 10
3.740505
 20
5.450793
 30
0.0
 10
3.215679
 20
5.687888
 30
0.0
 10
2.995538
 20
6.246603
 30
0.0
  0
LWPOLYLINE
  5
182
100
AcDbEntity
  8
T
 62
7
100
AcDbPolyline
 90
9
 70
0
 10
0.828021
 20
1.623859
 30
0.0
 10
1.065113
 20
2.186921
 30
0.0
 10
1.615364
 20
2.428136
 30
0.0
 10
2.131921
 20
2.203854
 30
0.0
 10
2.343588
 20
1.640793
 30
0.0
 10
2.119209
 20
1.060883
 30
0.0
 10
1.589939
 20
0.828021
 30
0.0
 10
1.056638
 20
1.065116
 30
0.0
 10
0.828021
 20
1.623859
 30
0.0
  0
LWPOLYLINE
  5
183
100
AcDbEntity
  8
T
 62
7
100
AcDbPolyline
 90
9
 70
0
 10
0.828021
 20
3.943698
 30
0.0
 10
1.065113
 20
4.502639
 30
0.0
 10
1.615364
 20
4.739734
 30
0.0
 10
2.131921
 20
4.511106
 30
0.0
 10
2.343588
 20
3.943698
 30
0.0
 10
2.119209
 20
3.372254
 30
0.0
 10
1.589939
 20
3.139421
 30
0.0
 10
1.056638
 20
3.376516
 30
0.0
 10
0.828021
 20
3.943698
 30
0.0
  0
LWPOLYLINE
  5
184
100
AcDbEntity
  8
T
 62
7
100
AcDbPolyline
 90
9
 70
0
 10
2.995538
 20
3.943698
 30
0.0
 10
3.228392
 20
4.502639
 30
0.0
 10
3.774405
 20
4.739734
 30
0.0
 10
4.290963
 20
4.511106
 30
0.0
 10
4.502629
 20
3.943698
 30
0.0
 10
4.282487
 20
3.372254
 30
0.0
 10
3.740505
 20
3.139421
 30
0.0
 10
3.215679
 20
3.376516
 30
0.0
 10
2.995538
 20
3.943698
 30
0.0
  0
LWPOLYLINE
  5
185
100
AcDbEntity
  8
T
 62
7
100
AcDbPolyline
 90
9
 70
0
 10
2.995538
 20
6.246603
 30
0.0
 10
3.228392
 20
6.805544
 30
0.0
 10
3.774405
 20
7.042639
 30
0.0
 10
4.290963
 20
6.818272
 30
0.0
 10
4.502629
 20
6.255098
 30
0.0
 10
4.282487
 20
5.679421
 30
0.0
 10
3.740505
 20
5.450793
 30
0.0
 10
3.215679
 20
5.687888
 30
0.0
 10
2.995538
 20
6.246603
 30
0.0
  0
LWPOLYLINE
  5
186
100
AcDbEntity
  8
u_
 62
7
100
AcDbPolyline
 90
9
 70
0
 10
2.995538
 20
1.623854
 30
0.0
 10
3.228392
 20
2.186916
 30
0.0
 10
3.774405
 20
2.428131
 30
0.0
 10
4.290963
 20
2.203849
 30
0.0
 10
4.502629
 20
1.640788
 30
0.0
 10
4.282488
 20
1.060877
 30
0.0
 10
3.740505
 20
0.828016
 30
0.0
 10
3.215680
 20
1.065111
 30
0.0
 10
2.995538
 20
1.623854
 30
0.0
  0
LWPOLYLINE
  5
187
100
AcDbEntity
  8
u_
 62
7
100
AcDbPolyline
 90
9
 70
0
 10
0.828022
 20
6.246598
 30
0.0
 10
1.065113
 20
6.805539
 30
0.0
 10
1.615364
 20
7.042634
 30
0.0
 10
2.131921
 20
6.818239
 30
0.0
 10
2.343588
 20
6.255093
 30
0.0
 10
2.119209
 20
5.679416
 30
0.0
 10
1.589939
 20
5.450788
 30
0.0
 10
1.056638
 20
5.687882
 30
0.0
 10
0.828022
 20
6.246598
 30
0.0
  0
LWPOLYLINE
  5
188
100
AcDbEntity
  8
u_
 62
7
100
AcDbPolyline
 90
9
 70
0
 10
0.828022
 20
1.623854
 30
0.0
 10
1.065113
 20
2.186916
 30
0.0
 10
1.615364
 20
2.428131
 30
0.0
 10
2.131921
 20
2.203849
 30
0.0
 10
2.343588
 20
1.640788
 30
0.0
 10
2.119209
 20
1.060877
 30
0.0
 10
1.589939
 20
0.828016
 30
0.0
 10
1.056638
 20
1.065111
 30
0.0
 10
0.828022
 20
1.623854
 30
0.0
  0
LWPOLYLINE
  5
189
100
AcDbEntity
  8
U
 62
7
100
AcDbPolyline
 90
9
 70
0
 10
2.995538
 20
1.623854
 30
0.0
 10
3.228392
 20
2.186916
 30
0.0
 10
3.774405
 20
2.428131
 30
0.0
 10
4.290963
 20
2.203849
 30
0.0
 10
4.502629
 20
1.640788
 30
0.0
 10
4.282488
 20
1.060877
 30
0.0
 10
3.740505
 20
0.828016
 30
0.0
 10
3.215680
 20
1.065111
 30
0.0
 10
2.995538
 20
1.623854
 30
0.0
  0
LWPOLYLINE
  5
18a
100
AcDbEntity
  8
U
 62
7
100
AcDbPolyline
 90
9
 70
0
 10
0.828022
 20
6.246598
 30
0.0
 10
1.065113
 20
6.805539
 30
0.0
 10
1.615364
 20
7.042634
 30
0.0
 10
2.131921
 20
6.818239
 30
0.0
 10
2.343588
 20
6.255093
 30
0.0
 10
2.119209
 20
5.679416
 30
0.0
 10
1.589939
 20
5.450788
 30
0.0
 10
1.056638
 20
5.687882
 30
0.0
 10
0.828022
 20
6.246598
 30
0.0
  0
LWPOLYLINE
  5
18b
100
AcDbEntity
  8
U
 62
7
100
AcDbPolyline
 90
9
 70
0
 10
0.828022
 20
1.623854
 30
0.0
 10
1.065113
 20
2.186916
 30
0.0
 10
1.615364
 20
2.428131
 30
0.0
 10
2.131921
 20
2.203849
 30
0.0
 10
2.343588
 20
1.640788
 30
0.0
 10
2.119209
 20
1.060877
 30
0.0
 10
1.589939
 20
0.828016
 30
0.0
 10
1.056638
 20
1.065111
 30
0.0
 10
0.828022
 20
1.623854
 30
0.0
  0
LWPOLYLINE
  5
18c
100
AcDbEntity
  8
v_
 62
7
100
AcDbPolyline
 90
9
 70
0
 10
2.995538
 20
1.623835
 30
0.0
 10
3.228392
 20
2.186897
 30
0.0
 10
3.774405
 20
2.428112
 30
0.0
 10
4.290963
 20
2.203830
 30
0.0
 10
4.502629
 20
1.640769
 30
0.0
 10
4.282487
 20
1.060858
 30
0.0
 10
3.740505
 20
0.827997
 30
0.0
 10
3.215679
 20
1.065092
 30
0.0
 10
2.995538
 20
1.623835
 30
0.0
  0
LWPOLYLINE
  5
18d
100
AcDbEntity
  8
v_
 62
7
100
AcDbPolyline
 90
9
 70
0
 10
0.828021
 20
6.246607
 30
0.0
 10
1.065113
 20
6.805520
 30
0.0
 10
1.615364
 20
7.042615
 30
0.0
 10
2.131921
 20
6.818248
 30
0.0
 10
2.343588
 20
6.255074
 30
0.0
 10
2.119209
 20
5.679397
 30
0.0
 10
1.589939
 20
5.450769
 30
0.0
 10
1.056638
 20
5.687864
 30
0.0
 10
0.828021
 20
6.246607
 30
0.0
  0
LWPOLYLINE
  5
18e
100
AcDbEntity
  8
v_
 62
7
100
AcDbPolyline
 90
9
 70
0
 10
0.828021
 20
1.623835
 30
0.0
 10
1.065113
 20
2.186897
 30
0.0
 10
1.615364
 20
2.428112
 30
0.0
 10
2.131921
 20
2.203830
 30
0.0
 10
2.343588
 20
1.640769
 30
0.0
 10
2.119209
 20
1.060858
 30
0.0
 10
1.589939
 20
0.827997
 30
0.0
 10
1.056638
 20
1.065092
 30
0.0
 10
0.828021
 20
1.623835
 30
0.0
  0
LWPOLYLINE
  5
18f
100
AcDbEntity
  8
v_
 62
7
100
AcDbPolyline
 90
9
 70
0
 10
0.828021
 20
3.943674
 30
0.0
 10
1.065113
 20
4.502615
 30
0.0
 10
1.615364
 20
4.739710
 30
0.0
 10
2.131921
 20
4.511082
 30
0.0
 10
2.343588
 20
3.943674
 30
0.0
 10
2.119209
 20
3.372258
 30
0.0
 10
1.589939
 20
3.139397
 30
0.0
 10
1.056638
 20
3.376492
 30
0.0
 10
0.828021
 20
3.943674
 30
0.0
  0
LWPOLYLINE
  5
190
100
AcDbEntity
  8
V
 62
7
100
AcDbPolyline
 90
9
 70
0
 10
2.995538
 20
1.623835
 30
0.0
 10
3.228392
 20
2.186897
 30
0.0
 10
3.774405
 20
2.428112
 30
0.0
 10
4.290963
 20
2.203830
 30
0.0
 10
4.502629
 20
1.640769
 30
0.0
 10
4.282487
 20
1.060858
 30
0.0
 10
3.740505
 20
0.827997
 30
0.0
 10
3.215679
 20
1.065092
 30
0.0
 10
2.995538
 20
1.623835
 30
0.0
  0
LWPOLYLINE
  5
191
100
AcDbEntity
  8
V
 62
7
100
AcDbPolyline
 90
9
 70
0
 10
0.828021
 20
6.246607
 30
0.0
 10
1.065113
 20
6.805520
 30
0.0
 10
1.615364
 20
7.042615
 30
0.0
 10
2.131921
 20
6.818248
 30
0.0
 10
2.343588
 20
6.255074
 30
0.0
 10
2.119209
 20
5.679397
 30
0.0
 10
1.589939
 20
5.450769
 30
0.0
 10
1.056638
 20
5.687864
 30
0.0
 10
0.828021
 20
6.246607
 30
0.0
  0
LWPOLYLINE
  5
192
100
AcDbEntity
  8
V
 62
7
100
AcDbPolyline
 90
9
 70
0
 10
0.828021
 20
1.623835
 30
0.0
 10
1.065113
 20
2.186897
 30
0.0
 10
1.615364
 20
2.428112
 30
0.0
 10
2.131921
 20
2.203830
 30
0.0
 10
2.343588
 20
1.640769
 30
0.0
 10
2.119209
 20
1.060858
 30
0.0
 10
1.589939
 20
0.827997
 30
0.0
 10
1.056638
 20
1.065092
 30
0.0
 10
0.828021
 20
1.623835
 30
0.0
  0
LWPOLYLINE
  5
193
100
AcDbEntity
  8
V
 62
7
100
AcDbPolyline
 90
9
 70
0
 10
0.828021
 20
3.943674
 30
0.0
 10
1.065113
 20
4.502615
 30
0.0
 10
1.615364
 20
4.739710
 30
0.0
 10
2.131921
 20
4.511082
 30
0.0
 10
2.343588
 20
3.943674
 30
0.0
 10
2.119209
 20
3.372258
 30
0.0
 10
1.589939
 20
3.139397
 30
0.0
 10
1.056638
 20
3.376492
 30
0.0
 10
0.828021
 20
3.943674
 30
0.0
  0
LWPOLYLINE
  5
194
100
AcDbEntity
  8
w_
 62
7
100
AcDbPolyline
 90
9
 70
0
 10
3.039118
 20
1.623849
 30
0.0
 10
3.271972
 20
2.186911
 30
0.0
 10
3.817985
 20
2.428126
 30
0.0
 10
4.334543
 20
2.203844
 30
0.0
 10
4.546209
 20
1.640783
 30
0.0
 10
4.326068
 20
1.060872
 30
0.0
 10
3.784085
 20
0.828011
 30
0.0
 10
3.259259
 20
1.065106
 30
0.0
 10
3.039118
 20
1.623849
 30
0.0
  0
LWPOLYLINE
  5
195
100
AcDbEntity
  8
w_
 62
7
100
AcDbPolyline
 90
9
 70
0
 10
0.871602
 20
3.943688
 30
0.0
 10
1.108693
 20
4.502629
 30
0.0
 10
1.658944
 20
4.739724
 30
0.0
 10
2.175501
 20
4.511096
 30
0.0
 10
2.387168
 20
3.943688
 30
0.0
 10
2.162789
 20
3.372272
 30
0.0
 10
1.633519
 20
3.139411
 30
0.0
 10
1.100218
 20
3.376506
 30
0.0
 10
0.871602
 20
3.943688
 30
0.0
  0
LWPOLYLINE
  5
196
100
AcDbEntity
  8
w_
 62
7
100
AcDbPolyline
 90
9
 70
0
 10
3.039118
 20
3.943688
 30
0.0
 10
3.271972
 20
4.502629
 30
0.0
 10
3.817985
 20
4.739724
 30
0.0
 10
4.334543
 20
4.511096
 30
0.0
 10
4.546209
 20
3.943688
 30
0.0
 10
4.326068
 20
3.372272
 30
0.0
 10
3.784085
 20
3.139411
 30
0.0
 10
3.259259
 20
3.376506
 30
0.0
 10
3.039118
 20
3.943688
 30
0.0
  0
LWPOLYLINE
  5
197
100
AcDbEntity
  8
w_
 62
7
100
AcDbPolyline
 90
9
 70
0
 10
3.039118
 20
6.246621
 30
0.0
 10
3.271972
 20
6.805534
 30
0.0
 10
3.817985
 20
7.042629
 30
0.0
 10
4.334543
 20
6.818262
 30
0.0
 10
4.546209
 20
6.255088
 30
0.0
 10
4.326068
 20
5.679411
 30
0.0
 10
3.784085
 20
5.450783
 30
0.0
 10
3.259259
 20
5.687878
 30
0.0
 10
3.039118
 20
6.246621
 30
0.0
  0
LWPOLYLINE
  5
198
100
AcDbEntity
  8
W
 62
7
100
AcDbPolyline
 90
9
 70
0
 10
3.039118
 20
1.623849
 30
0.0
 10
3.271972
 20
2.186911
 30
0.0
 10
3.817985
 20
2.428126
 30
0.0
 10
4.334543
 20
2.203844
 30
0.0
 10
4.546209
 20
1.640783
 30
0.0
 10
4.326068
 20
1.060872
 30
0.0
 10
3.784085
 20
0.828011
 30
0.0
 10
3.259259
 20
1.065106
 30
0.0
 10
3.039118
 20
1.623849
 30
0.0
  0
LWPOLYLINE
  5
199
100
AcDbEntity
  8
W
 62
7
100
AcDbPolyline
 90
9
 70
0
 10
0.871602
 20
3.943688
 30
0.0
 10
1.108693
 20
4.502629
 30
0.0
 10
1.658944
 20
4.739724
 30
0.0
 10
2.175501
 20
4.511096
 30
0.0
 10
2.387168
 20
3.943688
 30
0.0
 10
2.162789
 20
3.372272
 30
0.0
 10
1.633519
 20
3.139411
 30
0.0
 10
1.100218
 20
3.376506
 30
0.0
 10
0.871602
 20
3.943688
 30
0.0
  0
LWPOLYLINE
  5
19a
100
AcDbEntity
  8
W
 62
7
100
AcDbPolyline
 90
9
 70
0
 10
3.039118
 20
3.943688
 30
0.0
 10
3.271972
 20
4.502629
 30
0.0
 10
3.817985
 20
4.739724
 30
0.0
 10
4.334543
 20
4.511096
 30
0.0
 10
4.546209
 20
3.943688
 30
0.0
 10
4.326068
 20
3.372272
 30
0.0
 10
3.784085
 20
3.139411
 30
0.0
 10
3.259259
 20
3.376506
 30
0.0
 10
3.039118
 20
3.943688
 30
0.0
  0
LWPOLYLINE
  5
19b
100
AcDbEntity
  8
W
 62
7
100
AcDbPolyline
 90
9
 70
0
 10
3.039118
 20
6.246621
 30
0.0
 10
3.271972
 20
6.805534
 30
0.0
 10
3.817985
 20
7.042629
 30
0.0
 10
4.334543
 20
6.818262
 30
0.0
 10
4.546209
 20
6.255088
 30
0.0
 10
4.326068
 20
5.679411
 30
0.0
 10
3.784085
 20
5.450783
 30
0.0
 10
3.259259
 20
5.687878
 30
0.0
 10
3.039118
 20
6.246621
 30
0.0
  0
LWPOLYLINE
  5
19c
100
AcDbEntity
  8
x_
 62
7
100
AcDbPolyline
 90
9
 70
0
 10
2.995538
 20
1.667425
 30
0.0
 10
3.228392
 20
2.230486
 30
0.0
 10
3.774405
 20
2.471730
 30
0.0
 10
4.290963
 20
2.247448
 30
0.0
 10
4.502629
 20
1.684386
 30
0.0
 10
4.282488
 20
1.104476
 30
0.0
 10
3.740505
 20
0.871614
 30
0.0
 10
3.215679
 20
1.108709
 30
0.0
 10
2.995538
 20
1.667425
 30
0.0
  0
LWPOLYLINE
  5
19d
100
AcDbEntity
  8
x_
 62
7
100
AcDbPolyline
 90
9
 70
0
 10
0.828021
 20
6.290196
 30
0.0
 10
1.065113
 20
6.849138
 30
0.0
 10
1.615364
 20
7.086232
 30
0.0
 10
2.131921
 20
6.861838
 30
0.0
 10
2.343588
 20
6.298663
 30
0.0
 10
2.119209
 20
5.722986
 30
0.0
 10
1.589939
 20
5.494386
 30
0.0
 10
1.056638
 20
5.731481
 30
0.0
 10
0.828021
 20
6.290196
 30
0.0
  0
LWPOLYLINE
  5
19e
100
AcDbEntity
  8
x_
 62
7
100
AcDbPolyline
 90
9
 70
0
 10
0.828021
 20
1.667425
 30
0.0
 10
1.065113
 20
2.230486
 30
0.0
 10
1.615364
 20
2.471730
 30
0.0
 10
2.131921
 20
2.247448
 30
0.0
 10
2.343588
 20
1.684386
 30
0.0
 10
2.119209
 20
1.104476
 30
0.0
 10
1.589939
 20
0.871614
 30
0.0
 10
1.056638
 20
1.108709
 30
0.0
 10
0.828021
 20
1.667425
 30
0.0
  0
LWPOLYLINE
  5
19f
100
AcDbEntity
  8
x_
 62
7
100
AcDbPolyline
 90
9
 70
0
 10
2.995538
 20
6.290196
 30
0.0
 10
3.228392
 20
6.849138
 30
0.0
 10
3.774405
 20
7.086232
 30
0.0
 10
4.290963
 20
6.861838
 30
0.0
 10
4.502629
 20
6.298663
 30
0.0
 10
4.282488
 20
5.722986
 30
0.0
 10
3.740505
 20
5.494386
 30
0.0
 10
3.215679
 20
5.731481
 30
0.0
 10
2.995538
 20
6.290196
 30
0.0
  0
LWPOLYLINE
  5
1a0
100
AcDbEntity
  8
X
 62
7
100
AcDbPolyline
 90
9
 70
0
 10
2.995538
 20
1.667425
 30
0.0
 10
3.228392
 20
2.230486
 30
0.0
 10
3.774405
 20
2.471730
 30
0.0
 10
4.290963
 20
2.247448
 30
0.0
 10
4.502629
 20
1.684386
 30
0.0
 10
4.282488
 20
1.104476
 30
0.0
 10
3.740505
 20
0.871614
 30
0.0
 10
3.215679
 20
1.108709
 30
0.0
 10
2.995538
 20
1.667425
 30
0.0
  0
LWPOLYLINE
  5
1a1
100
AcDbEntity
  8
X
 62
7
100
AcDbPolyline
 90
9
 70
0
 10
0.828021
 20
6.290196
 30
0.0
 10
1.065113
 20
6.849138
 30
0.0
 10
1.615364
 20
7.086232
 30
0.0
 10
2.131921
 20
6.861838
 30
0.0
 10
2.343588
 20
6.298663
 30
0.0
 10
2.119209
 20
5.722986
 30
0.0
 10
1.589939
 20
5.494386
 30
0.0
 10
1.056638
 20
5.731481
 30
0.0
 10
0.828021
 20
6.290196
 30
0.0
  0
LWPOLYLINE
  5
1a2
100
AcDbEntity
  8
X
 62
7
100
AcDbPolyline
 90
9
 70
0
 10
0.828021
 20
1.667425
 30
0.0
 10
1.065113
 20
2.230486
 30
0.0
 10
1.615364
 20
2.471730
 30
0.0
 10
2.131921
 20
2.247448
 30
0.0
 10
2.343588
 20
1.684386
 30
0.0
 10
2.119209
 20
1.104476
 30
0.0
 10
1.589939
 20
0.871614
 30
0.0
 10
1.056638
 20
1.108709
 30
0.0
 10
0.828021
 20
1.667425
 30
0.0
  0
LWPOLYLINE
  5
1a3
100
AcDbEntity
  8
X
 62
7
100
AcDbPolyline
 90
9
 70
0
 10
2.995538
 20
6.290196
 30
0.0
 10
3.228392
 20
6.849138
 30
0.0
 10
3.774405
 20
7.086232
 30
0.0
 10
4.290963
 20
6.861838
 30
0.0
 10
4.502629
 20
6.298663
 30
0.0
 10
4.282488
 20
5.722986
 30
0.0
 10
3.740505
 20
5.494386
 30
0.0
 10
3.215679
 20
5.731481
 30
0.0
 10
2.995538
 20
6.290196
 30
0.0
  0
LWPOLYLINE
  5
1a4
100
AcDbEntity
  8
y_
 62
7
100
AcDbPolyline
 90
9
 70
0
 10
2.995538
 20
1.623834
 30
0.0
 10
3.228392
 20
2.186896
 30
0.0
 10
3.774405
 20
2.428139
 30
0.0
 10
4.290963
 20
2.203857
 30
0.0
 10
4.502629
 20
1.640796
 30
0.0
 10
4.282488
 20
1.060886
 30
0.0
 10
3.740505
 20
0.828024
 30
0.0
 10
3.215680
 20
1.065119
 30
0.0
 10
2.995538
 20
1.623834
 30
0.0
  0
LWPOLYLINE
  5
1a5
100
AcDbEntity
  8
y_
 62
7
100
AcDbPolyline
 90
9
 70
0
 10
0.828022
 20
6.246606
 30
0.0
 10
1.065113
 20
6.805547
 30
0.0
 10
1.615364
 20
7.042642
 30
0.0
 10
2.131921
 20
6.818247
 30
0.0
 10
2.343588
 20
6.255073
 30
0.0
 10
2.119209
 20
5.679396
 30
0.0
 10
1.589939
 20
5.450796
 30
0.0
 10
1.056638
 20
5.687891
 30
0.0
 10
0.828022
 20
6.246606
 30
0.0
  0
LWPOLYLINE
  5
1a6
100
AcDbEntity
  8
y_
 62
7
100
AcDbPolyline
 90
9
 70
0
 10
0.828022
 20
1.623834
 30
0.0
 10
1.065113
 20
2.186896
 30
0.0
 10
1.615364
 20
2.428139
 30
0.0
 10
2.131921
 20
2.203857
 30
0.0
 10
2.343588
 20
1.640796
 30
0.0
 10
2.119209
 20
1.060886
 30
0.0
 10
1.589939
 20
0.828024
 30
0.0
 10
1.056638
 20
1.065119
 30
0.0
 10
0.828022
 20
1.623834
 30
0.0
  0
LWPOLYLINE
  5
1a7
100
AcDbEntity
  8
y_
 62
7
100
AcDbPolyline
 90
9
 70
0
 10
2.995538
 20
3.943701
 30
0.0
 10
3.228392
 20
4.502642
 30
0.0
 10
3.774405
 20
4.739737
 30
0.0
 10
4.290963
 20
4.511109
 30
0.0
 10
4.502629
 20
3.943701
 30
0.0
 10
4.282488
 20
3.372257
 30
0.0
 10
3.740505
 20
3.139396
 30
0.0
 10
3.215680
 20
3.376491
 30
0.0
 10
2.995538
 20
3.943701
 30
0.0
  0
LWPOLYLINE
  5
1a8
100
AcDbEntity
  8
y_
 62
7
100
AcDbPolyline
 90
9
 70
0
 10
2.995538
 20
6.246606
 30
0.0
 10
3.228392
 20
6.805547
 30
0.0
 10
3.774405
 20
7.042642
 30
0.0
 10
4.290963
 20
6.818247
 30
0.0
 10
4.502629
 20
6.255073
 30
0.0
 10
4.282488
 20
5.679396
 30
0.0
 10
3.740505
 20
5.450796
 30
0.0
 10
3.215680
 20
5.687891
 30
0.0
 10
2.995538
 20
6.246606
 30
0.0
  0
LWPOLYLINE
  5
1a9
100
AcDbEntity
  8
Y
 62
7
100
AcDbPolyline
 90
9
 70
0
 10
2.995538
 20
1.623834
 30
0.0
 10
3.228392
 20
2.186896
 30
0.0
 10
3.774405
 20
2.428139
 30
0.0
 10
4.290963
 20
2.203857
 30
0.0
 10
4.502629
 20
1.640796
 30
0.0
 10
4.282488
 20
1.060886
 30
0.0
 10
3.740505
 20
0.828024
 30
0.0
 10
3.215680
 20
1.065119
 30
0.0
 10
2.995538
 20
1.623834
 30
0.0
  0
LWPOLYLINE
  5
1aa
100
AcDbEntity
  8
Y
 62
7
100
AcDbPolyline
 90
9
 70
0
 10
0.828022
 20
6.246606
 30
0.0
 10
1.065113
 20
6.805547
 30
0.0
 10
1.615364
 20
7.042642
 30
0.0
 10
2.131921
 20
6.818247
 30
0.0
 10
2.343588
 20
6.255073
 30
0.0
 10
2.119209
 20
5.679396
 30
0.0
 10
1.589939
 20
5.450796
 30
0.0
 10
1.056638
 20
5.687891
 30
0.0
 10
0.828022
 20
6.246606
 30
0.0
  0
LWPOLYLINE
  5
1ab
100
AcDbEntity
  8
Y
 62
7
100
AcDbPolyline
 90
9
 70
0
 10
0.828022
 20
1.623834
 30
0.0
 10
1.065113
 20
2.186896
 30
0.0
 10
1.615364
 20
2.428139
 30
0.0
 10
2.131921
 20
2.203857
 30
0.0
 10
2.343588
 20
1.640796
 30
0.0
 10
2.119209
 20
1.060886
 30
0.0
 10
1.589939
 20
0.828024
 30
0.0
 10
1.056638
 20
1.065119
 30
0.0
 10
0.828022
 20
1.623834
 30
0.0
  0
LWPOLYLINE
  5
1ac
100
AcDbEntity
  8
Y
 62
7
100
AcDbPolyline
 90
9
 70
0
 10
2.995538
 20
3.943701
 30
0.0
 10
3.228392
 20
4.502642
 30
0.0
 10
3.774405
 20
4.739737
 30
0.0
 10
4.290963
 20
4.511109
 30
0.0
 10
4.502629
 20
3.943701
 30
0.0
 10
4.282488
 20
3.372257
 30
0.0
 10
3.740505
 20
3.139396
 30
0.0
 10
3.215680
 20
3.376491
 30
0.0
 10
2.995538
 20
3.943701
 30
0.0
  0
LWPOLYLINE
  5
1ad
100
AcDbEntity
  8
Y
 62
7
100
AcDbPolyline
 90
9
 70
0
 10
2.995538
 20
6.246606
 30
0.0
 10
3.228392
 20
6.805547
 30
0.0
 10
3.774405
 20
7.042642
 30
0.0
 10
4.290963
 20
6.818247
 30
0.0
 10
4.502629
 20
6.255073
 30
0.0
 10
4.282488
 20
5.679396
 30
0.0
 10
3.740505
 20
5.450796
 30
0.0
 10
3.215680
 20
5.687891
 30
0.0
 10
2.995538
 20
6.246606
 30
0.0
  0
LWPOLYLINE
  5
1ae
100
AcDbEntity
  8
z_
 62
7
100
AcDbPolyline
 90
9
 70
0
 10
2.995538
 20
1.623877
 30
0.0
 10
3.228392
 20
2.186939
 30
0.0
 10
3.774405
 20
2.428154
 30
0.0
 10
4.290963
 20
2.203872
 30
0.0
 10
4.502629
 20
1.640811
 30
0.0
 10
4.282488
 20
1.060900
 30
0.0
 10
3.740505
 20
0.828039
 30
0.0
 10
3.215680
 20
1.065134
 30
0.0
 10
2.995538
 20
1.623877
 30
0.0
  0
LWPOLYLINE
  5
1af
100
AcDbEntity
  8
z_
 62
7
100
AcDbPolyline
 90
9
 70
0
 10
0.828022
 20
6.246649
 30
0.0
 10
1.065113
 20
6.805562
 30
0.0
 10
1.615364
 20
7.042657
 30
0.0
 10
2.131921
 20
6.818290
 30
0.0
 10
2.343588
 20
6.255116
 30
0.0
 10
2.119209
 20
5.679439
 30
0.0
 10
1.589939
 20
5.450811
 30
0.0
 10
1.056638
 20
5.687905
 30
0.0
 10
0.828022
 20
6.246649
 30
0.0
  0
LWPOLYLINE
  5
1b0
100
AcDbEntity
  8
z_
 62
7
100
AcDbPolyline
 90
9
 70
0
 10
0.828022
 20
1.623877
 30
0.0
 10
1.065113
 20
2.186939
 30
0.0
 10
1.615364
 20
2.428154
 30
0.0
 10
2.131921
 20
2.203872
 30
0.0
 10
2.343588
 20
1.640811
 30
0.0
 10
2.119209
 20
1.060900
 30
0.0
 10
1.589939
 20
0.828039
 30
0.0
 10
1.056638
 20
1.065134
 30
0.0
 10
0.828022
 20
1.623877
 30
0.0
  0
LWPOLYLINE
  5
1b1
100
AcDbEntity
  8
z_
 62
7
100
AcDbPolyline
 90
9
 70
0
 10
2.995538
 20
3.943716
 30
0.0
 10
3.228392
 20
4.502657
 30
0.0
 10
3.774405
 20
4.739752
 30
0.0
 10
4.290963
 20
4.511123
 30
0.0
 10
4.502629
 20
3.943716
 30
0.0
 10
4.282488
 20
3.372300
 30
0.0
 10
3.740505
 20
3.139439
 30
0.0
 10
3.215680
 20
3.376534
 30
0.0
 10
2.995538
 20
3.943716
 30
0.0
  0
LWPOLYLINE
  5
1b2
100
AcDbEntity
  8
Z
 62
7
100
AcDbPolyline
 90
9
 70
0
 10
2.995538
 20
1.623877
 30
0.0
 10
3.228392
 20
2.186939
 30
0.0
 10
3.774405
 20
2.428154
 30
0.0
 10
4.290963
 20
2.203872
 30
0.0
 10
4.502629
 20
1.640811
 30
0.0
 10
4.282488
 20
1.060900
 30
0.0
 10
3.740505
 20
0.828039
 30
0.0
 10
3.215680
 20
1.065134
 30
0.0
 10
2.995538
 20
1.623877
 30
0.0
  0
LWPOLYLINE
  5
1b3
100
AcDbEntity
  8
Z
 62
7
100
AcDbPolyline
 90
9
 70
0
 10
0.828022
 20
6.246649
 30
0.0
 10
1.065113
 20
6.805562
 30
0.0
 10
1.615364
 20
7.042657
 30
0.0
 10
2.131921
 20
6.818290
 30
0.0
 10
2.343588
 20
6.255116
 30
0.0
 10
2.119209
 20
5.679439
 30
0.0
 10
1.589939
 20
5.450811
 30
0.0
 10
1.056638
 20
5.687905
 30
0.0
 10
0.828022
 20
6.246649
 30
0.0
  0
LWPOLYLINE
  5
1b4
100
AcDbEntity
  8
Z
 62
7
100
AcDbPolyline
 90
9
 70
0
 10
0.828022
 20
1.623877
 30
0.0
 10
1.065113
 20
2.186939
 30
0.0
 10
1.615364
 20
2.428154
 30
0.0
 10
2.131921
 20
2.203872
 30
0.0
 10
2.343588
 20
1.640811
 30
0.0
 10
2.119209
 20
1.060900
 30
0.0
 10
1.589939
 20
0.828039
 30
0.0
 10
1.056638
 20
1.065134
 30
0.0
 10
0.828022
 20
1.623877
 30
0.0
  0
LWPOLYLINE
  5
1b5
100
AcDbEntity
  8
Z
 62
7
100
AcDbPolyline
 90
9
 70
0
 10
2.995538
 20
3.943716
 30
0.0
 10
3.228392
 20
4.502657
 30
0.0
 10
3.774405
 20
4.739752
 30
0.0
 10
4.290963
 20
4.511123
 30
0.0
 10
4.502629
 20
3.943716
 30
0.0
 10
4.282488
 20
3.372300
 30
0.0
 10
3.740505
 20
3.139439
 30
0.0
 10
3.215680
 20
3.376534
 30
0.0
 10
2.995538
 20
3.943716
 30
0.0
  0
LWPOLYLINE
  5
1b6
100
AcDbEntity
  8
1
 62
7
100
AcDbPolyline
 90
9
 70
0
 10
0.832026
 20
6.276457
 30
0.0
 10
1.068748
 20
6.834870
 30
0.0
 10
1.618142
 20
7.071759
 30
0.0
 10
2.133896
 20
6.847575
 30
0.0
 10
2.345233
 20
6.284927
 30
0.0
 10
2.121203
 20
5.709800
 30
0.0
 10
1.592757
 20
5.481382
 30
0.0
 10
1.060286
 20
5.718241
 30
0.0
 10
0.832026
 20
6.276457
 30
0.0
  0
LWPOLYLINE
  5
1b7
100
AcDbEntity
  8
2
 62
7
100
AcDbPolyline
 90
9
 70
0
 10
0.862841
 20
6.276457
 30
0.0
 10
1.099563
 20
6.834870
 30
0.0
 10
1.648958
 20
7.071759
 30
0.0
 10
2.164711
 20
6.847575
 30
0.0
 10
2.376049
 20
6.284927
 30
0.0
 10
2.152019
 20
5.709800
 30
0.0
 10
1.623572
 20
5.481382
 30
0.0
 10
1.091102
 20
5.718241
 30
0.0
 10
0.862841
 20
6.276457
 30
0.0
  0
LWPOLYLINE
  5
1b8
100
AcDbEntity
  8
2
 62
7
100
AcDbPolyline
 90
9
 70
0
 10
0.862841
 20
3.975670
 30
0.0
 10
1.099563
 20
4.534083
 30
0.0
 10
1.648958
 20
4.770971
 30
0.0
 10
2.164711
 20
4.542553
 30
0.0
 10
2.376049
 20
3.975670
 30
0.0
 10
2.152019
 20
3.404750
 30
0.0
 10
1.623572
 20
3.172125
 30
0.0
 10
1.091102
 20
3.408985
 30
0.0
 10
0.862841
 20
3.975670
 30
0.0
  0
LWPOLYLINE
  5
1b9
100
AcDbEntity
  8
3
 62
7
100
AcDbPolyline
 90
9
 70
0
 10
0.832026
 20
6.245635
 30
0.0
 10
1.068749
 20
6.804040
 30
0.0
 10
1.618143
 20
7.040921
 30
0.0
 10
2.133897
 20
6.816745
 30
0.0
 10
2.345234
 20
6.254094
 30
0.0
 10
2.121204
 20
5.678957
 30
0.0
 10
1.592758
 20
5.450550
 30
0.0
 10
1.060287
 20
5.687416
 30
0.0
 10
0.832026
 20
6.245635
 30
0.0
  0
LWPOLYLINE
  5
1ba
100
AcDbEntity
  8
3
 62
7
100
AcDbPolyline
 90
9
 70
0
 10
2.996169
 20
6.245635
 30
0.0
 10
3.228661
 20
6.804040
 30
0.0
 10
3.773824
 20
7.040921
 30
0.0
 10
4.289578
 20
6.816745
 30
0.0
 10
4.500915
 20
6.254094
 30
0.0
 10
4.281116
 20
5.678957
 30
0.0
 10
3.739977
 20
5.450550
 30
0.0
 10
3.215968
 20
5.687416
 30
0.0
 10
2.996169
 20
6.245635
 30
0.0
  0
LWPOLYLINE
  5
1bb
100
AcDbEntity
  8
4
 62
7
100
AcDbPolyline
 90
9
 70
0
 10
0.862842
 20
6.276514
 30
0.0
 10
1.099564
 20
6.834927
 30
0.0
 10
1.648959
 20
7.071787
 30
0.0
 10
2.164712
 20
6.847631
 30
0.0
 10
2.376049
 20
6.284955
 30
0.0
 10
2.152020
 20
5.709829
 30
0.0
 10
1.623573
 20
5.481410
 30
0.0
 10
1.091103
 20
5.718298
 30
0.0
 10
0.862842
 20
6.276514
 30
0.0
  0
LWPOLYLINE
  5
1bc
100
AcDbEntity
  8
4
 62
7
100
AcDbPolyline
 90
9
 70
0
 10
3.026985
 20
3.975698
 30
0.0
 10
3.259476
 20
4.534140
 30
0.0
 10
3.804640
 20
4.771000
 30
0.0
 10
4.320393
 20
4.542609
 30
0.0
 10
4.531731
 20
3.975698
 30
0.0
 10
4.311932
 20
3.404807
 30
0.0
 10
3.770793
 20
3.172153
 30
0.0
 10
3.246784
 20
3.409041
 30
0.0
 10
3.026985
 20
3.975698
 30
0.0
  0
LWPOLYLINE
  5
1bd
100
AcDbEntity
  8
4
 62
7
100
AcDbPolyline
 90
9
 70
0
 10
3.026985
 20
6.276514
 30
0.0
 10
3.259476
 20
6.834927
 30
0.0
 10
3.804640
 20
7.071787
 30
0.0
 10
4.320393
 20
6.847631
 30
0.0
 10
4.531731
 20
6.284955
 30
0.0
 10
4.311932
 20
5.709829
 30
0.0
 10
3.770793
 20
5.481410
 30
0.0
 10
3.246784
 20
5.718298
 30
0.0
 10
3.026985
 20
6.276514
 30
0.0
  0
LWPOLYLINE
  5
1be
100
AcDbEntity
  8
5
 62
7
100
AcDbPolyline
 90
9
 70
0
 10
0.832026
 20
6.245657
 30
0.0
 10
1.068749
 20
6.804070
 30
0.0
 10
1.618143
 20
7.040958
 30
0.0
 10
2.133896
 20
6.816774
 30
0.0
 10
2.345234
 20
6.254126
 30
0.0
 10
2.121204
 20
5.678972
 30
0.0
 10
1.592758
 20
5.450581
 30
0.0
 10
1.060287
 20
5.687441
 30
0.0
 10
0.832026
 20
6.245657
 30
0.0
  0
LWPOLYLINE
  5
1bf
100
AcDbEntity
  8
5
 62
7
100
AcDbPolyline
 90
9
 70
0
 10
2.996169
 20
3.944870
 30
0.0
 10
3.228660
 20
4.503283
 30
0.0
 10
3.773824
 20
4.740171
 30
0.0
 10
4.289578
 20
4.511752
 30
0.0
 10
4.500915
 20
3.944870
 30
0.0
 10
4.281116
 20
3.373950
 30
0.0
 10
3.739977
 20
3.141325
 30
0.0
 10
3.215968
 20
3.378185
 30
0.0
 10
2.996169
 20
3.944870
 30
0.0
  0
LWPOLYLINE
  5
1c0
100
AcDbEntity
  8
6
 62
7
100
AcDbPolyline
 90
9
 70
0
 10
0.832026
 20
6.276429
 30
0.0
 10
1.068749
 20
6.834842
 30
0.0
 10
1.618143
 20
7.071730
 30
0.0
 10
2.133897
 20
6.847546
 30
0.0
 10
2.345234
 20
6.284898
 30
0.0
 10
2.121204
 20
5.709744
 30
0.0
 10
1.592758
 20
5.481353
 30
0.0
 10
1.060287
 20
5.718213
 30
0.0
 10
0.832026
 20
6.276429
 30
0.0
  0
LWPOLYLINE
  5
1c1
100
AcDbEntity
  8
6
 62
7
100
AcDbPolyline
 90
9
 70
0
 10
0.832026
 20
3.975642
 30
0.0
 10
1.068749
 20
4.534055
 30
0.0
 10
1.618143
 20
4.770943
 30
0.0
 10
2.133897
 20
4.542524
 30
0.0
 10
2.345234
 20
3.975642
 30
0.0
 10
2.121204
 20
3.404722
 30
0.0
 10
1.592758
 20
3.172097
 30
0.0
 10
1.060287
 20
3.408957
 30
0.0
 10
0.832026
 20
3.975642
 30
0.0
  0
LWPOLYLINE
  5
1c2
100
AcDbEntity
  8
6
 62
7
100
AcDbPolyline
 90
9
 70
0
 10
2.996169
 20
6.276429
 30
0.0
 10
3.228661
 20
6.834842
 30
0.0
 10
3.773824
 20
7.071730
 30
0.0
 10
4.289578
 20
6.847546
 30
0.0
 10
4.500915
 20
6.284898
 30
0.0
 10
4.281116
 20
5.709744
 30
0.0
 10
3.739977
 20
5.481353
 30
0.0
 10
3.215968
 20
5.718213
 30
0.0
 10
2.996169
 20
6.276429
 30
0.0
  0
LWPOLYLINE
  5
1c3
100
AcDbEntity
  8
7
 62
7
100
AcDbPolyline
 90
9
 70
0
 10
0.862842
 20
6.245600
 30
0.0
 10
1.099564
 20
6.804014
 30
0.0
 10
1.648958
 20
7.040874
 30
0.0
 10
2.164712
 20
6.816718
 30
0.0
 10
2.376049
 20
6.254042
 30
0.0
 10
2.152020
 20
5.678915
 30
0.0
 10
1.623573
 20
5.450497
 30
0.0
 10
1.091102
 20
5.687385
 30
0.0
 10
0.862842
 20
6.245600
 30
0.0
  0
LWPOLYLINE
  5
1c4
100
AcDbEntity
  8
7
 62
7
100
AcDbPolyline
 90
9
 70
0
 10
0.862842
 20
3.944785
 30
0.0
 10
1.099564
 20
4.503227
 30
0.0
 10
1.648958
 20
4.740086
 30
0.0
 10
2.164712
 20
4.511696
 30
0.0
 10
2.376049
 20
3.944785
 30
0.0
 10
2.152020
 20
3.373893
 30
0.0
 10
1.623573
 20
3.141240
 30
0.0
 10
1.091102
 20
3.378128
 30
0.0
 10
0.862842
 20
3.944785
 30
0.0
  0
LWPOLYLINE
  5
1c5
100
AcDbEntity
  8
7
 62
7
100
AcDbPolyline
 90
9
 70
0
 10
3.026985
 20
3.944785
 30
0.0
 10
3.259476
 20
4.503227
 30
0.0
 10
3.804640
 20
4.740086
 30
0.0
 10
4.320393
 20
4.511696
 30
0.0
 10
4.531731
 20
3.944785
 30
0.0
 10
4.311932
 20
3.373893
 30
0.0
 10
3.770793
 20
3.141240
 30
0.0
 10
3.246783
 20
3.378128
 30
0.0
 10
3.026985
 20
3.944785
 30
0.0
  0
LWPOLYLINE
  5
1c6
100
AcDbEntity
  8
7
 62
7
100
AcDbPolyline
 90
9
 70
0
 10
3.026985
 20
6.245600
 30
0.0
 10
3.259476
 20
6.804014
 30
0.0
 10
3.804640
 20
7.040874
 30
0.0
 10
4.320393
 20
6.816718
 30
0.0
 10
4.531731
 20
6.254042
 30
0.0
 10
4.311932
 20
5.678915
 30
0.0
 10
3.770793
 20
5.450497
 30
0.0
 10
3.246783
 20
5.687385
 30
0.0
 10
3.026985
 20
6.245600
 30
0.0
  0
LWPOLYLINE
  5
1c7
100
AcDbEntity
  8
8
 62
7
100
AcDbPolyline
 90
9
 70
0
 10
0.828022
 20
6.285209
 30
0.0
 10
1.064745
 20
6.843650
 30
0.0
 10
1.614139
 20
7.080510
 30
0.0
 10
2.129893
 20
6.856326
 30
0.0
 10
2.341230
 20
6.293678
 30
0.0
 10
2.117200
 20
5.718552
 30
0.0
 10
1.588754
 20
5.490133
 30
0.0
 10
1.056283
 20
5.726993
 30
0.0
 10
0.828022
 20
6.285209
 30
0.0
  0
LWPOLYLINE
  5
1c8
100
AcDbEntity
  8
8
 62
7
100
AcDbPolyline
 90
9
 70
0
 10
0.828022
 20
3.984422
 30
0.0
 10
1.064745
 20
4.542835
 30
0.0
 10
1.614139
 20
4.779723
 30
0.0
 10
2.129893
 20
4.551304
 30
0.0
 10
2.341230
 20
3.984422
 30
0.0
 10
2.117200
 20
3.413530
 30
0.0
 10
1.588754
 20
3.180877
 30
0.0
 10
1.056283
 20
3.417736
 30
0.0
 10
0.828022
 20
3.984422
 30
0.0
  0
LWPOLYLINE
  5
1c9
100
AcDbEntity
  8
8
 62
7
100
AcDbPolyline
 90
9
 70
0
 10
2.992165
 20
3.984422
 30
0.0
 10
3.224657
 20
4.542835
 30
0.0
 10
3.769820
 20
4.779723
 30
0.0
 10
4.285574
 20
4.551304
 30
0.0
 10
4.496911
 20
3.984422
 30
0.0
 10
4.277112
 20
3.413530
 30
0.0
 10
3.735973
 20
3.180877
 30
0.0
 10
3.211964
 20
3.417736
 30
0.0
 10
2.992165
 20
3.984422
 30
0.0
  0
LWPOLYLINE
  5
1ca
100
AcDbEntity
  8
9
 62
7
100
AcDbPolyline
 90
9
 70
0
 10
0.828021
 20
3.940833
 30
0.0
 10
1.064744
 20
4.499246
 30
0.0
 10
1.614138
 20
4.736134
 30
0.0
 10
2.129892
 20
4.507715
 30
0.0
 10
2.341229
 20
3.940833
 30
0.0
 10
2.117199
 20
3.369913
 30
0.0
 10
1.588753
 20
3.137288
 30
0.0
 10
1.056282
 20
3.374147
 30
0.0
 10
0.828021
 20
3.940833
 30
0.0
  0
LWPOLYLINE
  5
1cb
100
AcDbEntity
  8
9
 62
7
100
AcDbPolyline
 90
9
 70
0
 10
2.992164
 20
6.241620
 30
0.0
 10
3.224656
 20
6.800033
 30
0.0
 10
3.769819
 20
7.036921
 30
0.0
 10
4.285573
 20
6.812737
 30
0.0
 10
4.496910
 20
6.250089
 30
0.0
 10
4.277111
 20
5.674935
 30
0.0
 10
3.735972
 20
5.446544
 30
0.0
 10
3.211963
 20
5.683404
 30
0.0
 10
2.992164
 20
6.241620
 30
0.0
  0
LWPOLYLINE
  5
1cc
100
AcDbEntity
  8
0
 62
7
100
AcDbPolyline
 90
9
 70
0
 10
0.871601
 20
3.984393
 30
0.0
 10
1.108324
 20
4.542807
 30
0.0
 10
1.657718
 20
4.779695
 30
0.0
 10
2.173472
 20
4.551276
 30
0.0
 10
2.384809
 20
3.984393
 30
0.0
 10
2.160779
 20
3.413474
 30
0.0
 10
1.632333
 20
3.180848
 30
0.0
 10
1.099862
 20
3.417708
 30
0.0
 10
0.871601
 20
3.984393
 30
0.0
  0
LWPOLYLINE
  5
1cd
100
AcDbEntity
  8
0
 62
7
100
AcDbPolyline
 90
9
 70
0
 10
3.035744
 20
3.984393
 30
0.0
 10
3.268236
 20
4.542807
 30
0.0
 10
3.813400
 20
4.779695
 30
0.0
 10
4.329153
 20
4.551276
 30
0.0
 10
4.540490
 20
3.984393
 30
0.0
 10
4.320691
 20
3.413474
 30
0.0
 10
3.779552
 20
3.180848
 30
0.0
 10
3.255543
 20
3.417708
 30
0.0
 10
3.035744
 20
3.984393
 30
0.0
  0
LWPOLYLINE
  5
1ce
100
AcDbEntity
  8
0
 62
7
100
AcDbPolyline
 90
9
 70
0
 10
3.035744
 20
6.285181
 30
0.0
 10
3.268236
 20
6.843594
 30
0.0
 10
3.813400
 20
7.080482
 30
0.0
 10
4.329153
 20
6.856298
 30
0.0
 10
4.540490
 20
6.293650
 30
0.0
 10
4.320691
 20
5.718495
 30
0.0
 10
3.779552
 20
5.490105
 30
0.0
 10
3.255543
 20
5.726965
 30
0.0
 10
3.035744
 20
6.285181
 30
0.0
  0
LWPOLYLINE
  5
1cf
100
AcDbEntity
  8
,
 62
7
100
AcDbPolyline
 90
9
 70
0
 10
0.828021
 20
3.943694
 30
0.0
 10
1.065113
 20
4.502607
 30
0.0
 10
1.615364
 20
4.739701
 30
0.0
 10
2.131921
 20
4.511101
 30
0.0
 10
2.343588
 20
3.943694
 30
0.0
 10
2.119209
 20
3.372250
 30
0.0
 10
1.589939
 20
3.139389
 30
0.0
 10
1.056638
 20
3.376483
 30
0.0
 10
0.828021
 20
3.943694
 30
0.0
  0
LWPOLYLINE
  5
1d0
100
AcDbEntity
  8
.
 62
7
100
AcDbPolyline
 90
9
 70
0
 10
2.995538
 20
1.623852
 30
0.0
 10
3.228392
 20
2.186913
 30
0.0
 10
3.774405
 20
2.428157
 30
0.0
 10
4.290963
 20
2.203875
 30
0.0
 10
4.502629
 20
1.640813
 30
0.0
 10
4.282488
 20
1.060903
 30
0.0
 10
3.740505
 20
0.828041
 30
0.0
 10
3.215680
 20
1.065136
 30
0.0
 10
2.995538
 20
1.623852
 30
0.0
  0
LWPOLYLINE
  5
1d1
100
AcDbEntity
  8
.
 62
7
100
AcDbPolyline
 90
9
 70
0
 10
0.828022
 20
3.943718
 30
0.0
 10
1.065113
 20
4.502631
 30
0.0
 10
1.615364
 20
4.739726
 30
0.0
 10
2.131921
 20
4.511126
 30
0.0
 10
2.343588
 20
3.943718
 30
0.0
 10
2.119209
 20
3.372275
 30
0.0
 10
1.589939
 20
3.139413
 30
0.0
 10
1.056638
 20
3.376508
 30
0.0
 10
0.828022
 20
3.943718
 30
0.0
  0
LWPOLYLINE
  5
1d2
100
AcDbEntity
  8
.
 62
7
100
AcDbPolyline
 90
9
 70
0
 10
2.995538
 20
3.943718
 30
0.0
 10
3.228392
 20
4.502631
 30
0.0
 10
3.774405
 20
4.739726
 30
0.0
 10
4.290963
 20
4.511126
 30
0.0
 10
4.502629
 20
3.943718
 30
0.0
 10
4.282488
 20
3.372275
 30
0.0
 10
3.740505
 20
3.139413
 30
0.0
 10
3.215680
 20
3.376508
 30
0.0
 10
2.995538
 20
3.943718
 30
0.0
  0
LWPOLYLINE
  5
1d3
100
AcDbEntity
  8
?
 62
7
100
AcDbPolyline
 90
9
 70
0
 10
2.995537
 20
1.667424
 30
0.0
 10
3.228391
 20
2.230486
 30
0.0
 10
3.774405
 20
2.471701
 30
0.0
 10
4.290962
 20
2.247419
 30
0.0
 10
4.502629
 20
1.684357
 30
0.0
 10
4.282487
 20
1.104447
 30
0.0
 10
3.740505
 20
0.871586
 30
0.0
 10
3.215679
 20
1.108681
 30
0.0
 10
2.995537
 20
1.667424
 30
0.0
  0
LWPOLYLINE
  5
1d4
100
AcDbEntity
  8
?
 62
7
100
AcDbPolyline
 90
9
 70
0
 10
0.828021
 20
3.987263
 30
0.0
 10
1.065113
 20
4.546204
 30
0.0
 10
1.615363
 20
4.783299
 30
0.0
 10
2.131921
 20
4.554670
 30
0.0
 10
2.343587
 20
3.987263
 30
0.0
 10
2.119208
 20
3.415847
 30
0.0
 10
1.589938
 20
3.182986
 30
0.0
 10
1.056638
 20
3.420081
 30
0.0
 10
0.828021
 20
3.987263
 30
0.0
  0
LWPOLYLINE
  5
1d5
100
AcDbEntity
  8
!
 62
7
100
AcDbPolyline
 90
9
 70
0
 10
0.828021
 20
1.623824
 30
0.0
 10
1.065113
 20
2.186885
 30
0.0
 10
1.615363
 20
2.428129
 30
0.0
 10
2.131921
 20
2.203847
 30
0.0
 10
2.343587
 20
1.640785
 30
0.0
 10
2.119208
 20
1.060875
 30
0.0
 10
1.589938
 20
0.828014
 30
0.0
 10
1.056638
 20
1.065109
 30
0.0
 10
0.828021
 20
1.623824
 30
0.0
  0
LWPOLYLINE
  5
1d6
100
AcDbEntity
  8
!
 62
7
100
AcDbPolyline
 90
9
 70
0
 10
0.828021
 20
3.943691
 30
0.0
 10
1.065113
 20
4.502632
 30
0.0
 10
1.615363
 20
4.739727
 30
0.0
 10
2.131921
 20
4.511098
 30
0.0
 10
2.343587
 20
3.943691
 30
0.0
 10
2.119208
 20
3.372247
 30
0.0
 10
1.589938
 20
3.139385
 30
0.0
 10
1.056638
 20
3.376480
 30
0.0
 10
0.828021
 20
3.943691
 30
0.0
  0
LWPOLYLINE
  5
1d7
100
AcDbEntity
  8
!
 62
7
100
AcDbPolyline
 90
9
 70
0
 10
2.995537
 20
3.943691
 30
0.0
 10
3.228391
 20
4.502632
 30
0.0
 10
3.774405
 20
4.739727
 30
0.0
 10
4.290962
 20
4.511098
 30
0.0
 10
4.502629
 20
3.943691
 30
0.0
 10
4.282487
 20
3.372247
 30
0.0
 10
3.740505
 20
3.139385
 30
0.0
 10
3.215679
 20
3.376480
 30
0.0
 10
2.995537
 20
3.943691
 30
0.0
  0
LWPOLYLINE
  5
1d8
100
AcDbEntity
  8
(
 62
7
100
AcDbPolyline
 90
9
 70
0
 10
2.995537
 20
1.623874
 30
0.0
 10
3.228391
 20
2.186935
 30
0.0
 10
3.774404
 20
2.428151
 30
0.0
 10
4.290962
 20
2.203897
 30
0.0
 10
4.502629
 20
1.640807
 30
0.0
 10
4.282487
 20
1.060897
 30
0.0
 10
3.740505
 20
0.828064
 30
0.0
 10
3.215679
 20
1.065130
 30
0.0
 10
2.995537
 20
1.623874
 30
0.0
  0
LWPOLYLINE
  5
1d9
100
AcDbEntity
  8
(
 62
7
100
AcDbPolyline
 90
9
 70
0
 10
0.828021
 20
1.623874
 30
0.0
 10
1.065112
 20
2.186935
 30
0.0
 10
1.615363
 20
2.428151
 30
0.0
 10
2.131921
 20
2.203897
 30
0.0
 10
2.343587
 20
1.640807
 30
0.0
 10
2.119208
 20
1.060897
 30
0.0
 10
1.589938
 20
0.828064
 30
0.0
 10
1.056637
 20
1.065130
 30
0.0
 10
0.828021
 20
1.623874
 30
0.0
  0
LWPOLYLINE
  5
1da
100
AcDbEntity
  8
(
 62
7
100
AcDbPolyline
 90
9
 70
0
 10
0.828021
 20
3.943712
 30
0.0
 10
1.065112
 20
4.502653
 30
0.0
 10
1.615363
 20
4.739748
 30
0.0
 10
2.131921
 20
4.511120
 30
0.0
 10
2.343587
 20
3.943712
 30
0.0
 10
2.119208
 20
3.372297
 30
0.0
 10
1.589938
 20
3.139435
 30
0.0
 10
1.056637
 20
3.376530
 30
0.0
 10
0.828021
 20
3.943712
 30
0.0
  0
LWPOLYLINE
  5
1db
100
AcDbEntity
  8
(
 62
7
100
AcDbPolyline
 90
9
 70
0
 10
2.995537
 20
3.943712
 30
0.0
 10
3.228391
 20
4.502653
 30
0.0
 10
3.774404
 20
4.739748
 30
0.0
 10
4.290962
 20
4.511120
 30
0.0
 10
4.502629
 20
3.943712
 30
0.0
 10
4.282487
 20
3.372297
 30
0.0
 10
3.740505
 20
3.139435
 30
0.0
 10
3.215679
 20
3.376530
 30
0.0
 10
2.995537
 20
3.943712
 30
0.0
  0
LWPOLYLINE
  5
1dc
100
AcDbEntity
  8
)
 62
7
100
AcDbPolyline
 90
9
 70
0
 10
2.995537
 20
1.623874
 30
0.0
 10
3.228391
 20
2.186935
 30
0.0
 10
3.774404
 20
2.428151
 30
0.0
 10
4.290962
 20
2.203897
 30
0.0
 10
4.502629
 20
1.640807
 30
0.0
 10
4.282487
 20
1.060897
 30
0.0
 10
3.740505
 20
0.828064
 30
0.0
 10
3.215679
 20
1.065130
 30
0.0
 10
2.995537
 20
1.623874
 30
0.0
  0
LWPOLYLINE
  5
1dd
100
AcDbEntity
  8
)
 62
7
100
AcDbPolyline
 90
9
 70
0
 10
0.828021
 20
1.623874
 30
0.0
 10
1.065112
 20
2.186935
 30
0.0
 10
1.615363
 20
2.428151
 30
0.0
 10
2.131921
 20
2.203897
 30
0.0
 10
2.343587
 20
1.640807
 30
0.0
 10
2.119208
 20
1.060897
 30
0.0
 10
1.589938
 20
0.828064
 30
0.0
 10
1.056637
 20
1.065130
 30
0.0
 10
0.828021
 20
1.623874
 30
0.0
  0
LWPOLYLINE
  5
1de
100
AcDbEntity
  8
)
 62
7
100
AcDbPolyline
 90
9
 70
0
 10
0.828021
 20
3.943712
 30
0.0
 10
1.065112
 20
4.502653
 30
0.0
 10
1.615363
 20
4.739748
 30
0.0
 10
2.131921
 20
4.511120
 30
0.0
 10
2.343587
 20
3.943712
 30
0.0
 10
2.119208
 20
3.372297
 30
0.0
 10
1.589938
 20
3.139435
 30
0.0
 10
1.056637
 20
3.376530
 30
0.0
 10
0.828021
 20
3.943712
 30
0.0
  0
LWPOLYLINE
  5
1df
100
AcDbEntity
  8
)
 62
7
100
AcDbPolyline
 90
9
 70
0
 10
2.995537
 20
3.943712
 30
0.0
 10
3.228391
 20
4.502653
 30
0.0
 10
3.774404
 20
4.739748
 30
0.0
 10
4.290962
 20
4.511120
 30
0.0
 10
4.502629
 20
3.943712
 30
0.0
 10
4.282487
 20
3.372297
 30
0.0
 10
3.740505
 20
3.139435
 30
0.0
 10
3.215679
 20
3.376530
 30
0.0
 10
2.995537
 20
3.943712
 30
0.0
  0
LWPOLYLINE
  5
1e0
100
AcDbEntity
  8
"
 62
7
100
AcDbPolyline
 90
9
 70
0
 10
3.039118
 20
1.667416
 30
0.0
 10
3.271972
 20
2.230477
 30
0.0
 10
3.817985
 20
2.471693
 30
0.0
 10
4.334542
 20
2.247439
 30
0.0
 10
4.546209
 20
1.684377
 30
0.0
 10
4.326068
 20
1.104439
 30
0.0
 10
3.784085
 20
0.871606
 30
0.0
 10
3.259259
 20
1.108700
 30
0.0
 10
3.039118
 20
1.667416
 30
0.0
  0
LWPOLYLINE
  5
1e1
100
AcDbEntity
  8
"
 62
7
100
AcDbPolyline
 90
9
 70
0
 10
0.871601
 20
1.667416
 30
0.0
 10
1.108693
 20
2.230477
 30
0.0
 10
1.658943
 20
2.471693
 30
0.0
 10
2.175501
 20
2.247439
 30
0.0
 10
2.387168
 20
1.684377
 30
0.0
 10
2.162789
 20
1.104439
 30
0.0
 10
1.633519
 20
0.871606
 30
0.0
 10
1.100218
 20
1.108700
 30
0.0
 10
0.871601
 20
1.667416
 30
0.0
  0
LWPOLYLINE
  5
1e2
100
AcDbEntity
  8
"
 62
7
100
AcDbPolyline
 90
9
 70
0
 10
3.039118
 20
3.987282
 30
0.0
 10
3.271972
 20
4.546195
 30
0.0
 10
3.817985
 20
4.783290
 30
0.0
 10
4.334542
 20
4.554690
 30
0.0
 10
4.546209
 20
3.987282
 30
0.0
 10
4.326068
 20
3.415839
 30
0.0
 10
3.784085
 20
3.182977
 30
0.0
 10
3.259259
 20
3.420072
 30
0.0
 10
3.039118
 20
3.987282
 30
0.0
  0
LWPOLYLINE
  5
1e3
100
AcDbEntity
  8
'
 62
7
100
AcDbPolyline
 90
17
 70
0
 10
0.828022
 20
1.623827
 30
0.0
 10
1.065113
 20
2.186889
 30
0.0
 10
1.615364
 20
2.428132
 30
0.0
 10
2.131921
 20
2.203850
 30
0.0
 10
2.343588
 20
1.640789
 30
0.0
 10
2.119209
 20
1.060879
 30
0.0
 10
1.589939
 20
0.828017
 30
0.0
 10
1.056638
 20
1.065112
 30
0.0
 10
0.828022
 20
1.623827
 30
0.0
 10
1.065113
 20
2.186940
 30
0.0
 10
1.615364
 20
2.428156
 30
0.0
 10
2.131921
 20
2.203874
 30
0.0
 10
2.343588
 20
1.640812
 30
0.0
 10
2.119209
 20
1.060902
 30
0.0
 10
1.589939
 20
0.828040
 30
0.0
 10
1.056638
 20
1.065135
 30
0.0
 10
0.828021
 20
1.623879
 30
0.0
  0
LWPOLYLINE
  5
1e4
100
AcDbEntity
  8
;
 62
7
100
AcDbPolyline
 90
17
 70
0
 10
0.828021
 20
3.943717
 30
0.0
 10
1.065113
 20
4.502658
 30
0.0
 10
1.615364
 20
4.739753
 30
0.0
 10
2.131921
 20
4.511125
 30
0.0
 10
2.343588
 20
3.943717
 30
0.0
 10
2.119209
 20
3.372274
 30
0.0
 10
1.589939
 20
3.139440
 30
0.0
 10
1.056638
 20
3.376535
 30
0.0
 10
0.828021
 20
3.943717
 30
0.0
 10
1.065113
 20
4.502622
 30
0.0
 10
1.615363
 20
4.739717
 30
0.0
 10
2.131921
 20
4.511117
 30
0.0
 10
2.343588
 20
3.943709
 30
0.0
 10
2.119209
 20
3.372266
 30
0.0
 10
1.589938
 20
3.139404
 30
0.0
 10
1.056638
 20
3.376499
 30
0.0
 10
0.828021
 20
3.943709
 30
0.0
  0
LWPOLYLINE
  5
1e5
100
AcDbEntity
  8
:
 62
7
100
AcDbPolyline
 90
9
 70
0
 10
2.995537
 20
3.943709
 30
0.0
 10
3.228391
 20
4.502622
 30
0.0
 10
3.774405
 20
4.739717
 30
0.0
 10
4.290962
 20
4.511117
 30
0.0
 10
4.502629
 20
3.943709
 30
0.0
 10
4.282487
 20
3.372266
 30
0.0
 10
3.740505
 20
3.139404
 30
0.0
 10
3.215679
 20
3.376499
 30
0.0
 10
2.995537
 20
3.943709
 30
0.0
  0
LWPOLYLINE
  5
1e6
100
AcDbEntity
  8
^
 62
7
100
AcDbPolyline
 90
9
 70
0
 10
2.951958
 20
1.667398
 30
0.0
 10
3.184811
 20
2.230460
 30
0.0
 10
3.730825
 20
2.471704
 30
0.0
 10
4.247382
 20
2.247422
 30
0.0
 10
4.459049
 20
1.684360
 30
0.0
 10
4.238907
 20
1.104450
 30
0.0
 10
3.696925
 20
0.871588
 30
0.0
 10
3.172099
 20
1.108683
 30
0.0
 10
2.951958
 20
1.667398
 30
0.0
  0
LWPOLYLINE
  5
1e7
100
AcDbEntity
  8
*
 62
7
100
AcDbPolyline
 90
9
 70
0
 10
0.828022
 20
1.623836
 30
0.0
 10
1.065113
 20
2.186897
 30
0.0
 10
1.615364
 20
2.428141
 30
0.0
 10
2.131921
 20
2.203859
 30
0.0
 10
2.343588
 20
1.640797
 30
0.0
 10
2.119209
 20
1.060887
 30
0.0
 10
1.589939
 20
0.828026
 30
0.0
 10
1.056638
 20
1.065121
 30
0.0
 10
0.828022
 20
1.623836
 30
0.0
  0
LWPOLYLINE
  5
1e8
100
AcDbEntity
  8
*
 62
7
100
AcDbPolyline
 90
9
 70
0
 10
2.995538
 20
3.943703
 30
0.0
 10
3.228392
 20
4.502644
 30
0.0
 10
3.774405
 20
4.739710
 30
0.0
 10
4.290963
 20
4.511110
 30
0.0
 10
4.502629
 20
3.943703
 30
0.0
 10
4.282488
 20
3.372259
 30
0.0
 10
3.740505
 20
3.139397
 30
0.0
 10
3.215680
 20
3.376492
 30
0.0
 10
2.995538
 20
3.943703
 30
0.0
  0
LWPOLYLINE
  5
1e9
100
AcDbEntity
  8
=
 62
7
100
AcDbPolyline
 90
9
 70
0
 10
0.871601
 20
6.246614
 30
0.0
 10
1.108693
 20
6.805527
 30
0.0
 10
1.658943
 20
7.042622
 30
0.0
 10
2.175501
 20
6.818255
 30
0.0
 10
2.387168
 20
6.255081
 30
0.0
 10
2.162789
 20
5.679404
 30
0.0
 10
1.633519
 20
5.450776
 30
0.0
 10
1.100218
 20
5.687871
 30
0.0
 10
0.871601
 20
6.246614
 30
0.0
  0
LWPOLYLINE
  5
1ea
100
AcDbEntity
  8
=
 62
7
100
AcDbPolyline
 90
9
 70
0
 10
0.871601
 20
1.623842
 30
0.0
 10
1.108693
 20
2.186904
 30
0.0
 10
1.658943
 20
2.428119
 30
0.0
 10
2.175501
 20
2.203866
 30
0.0
 10
2.387168
 20
1.640776
 30
0.0
 10
2.162789
 20
1.060866
 30
0.0
 10
1.633519
 20
0.828032
 30
0.0
 10
1.100218
 20
1.065099
 30
0.0
 10
0.871601
 20
1.623842
 30
0.0
  0
ENDSEC
  0
SECTION
  2
OBJECTS
  0
DICTIONARY
  5
C
330
0
100
AcDbDictionary
  3
ACAD_GROUP
350
D
  3
ACAD_MLINESTYLE
350
17
  0
DICTIONARY
  5
D
330
C
100
AcDbDictionary
  0
DICTIONARY
  5
1A
330
C
100
AcDbDictionary
  0
DICTIONARY
  5
17
330
C
100
AcDbDictionary
  3
STANDARD
350
18
  0
DICTIONARY
  5
19
330
C
100
AcDbDictionary
  0
ENDSEC
  0
EOF
