999
DXF created by Inkscape
  0
SECTION
  2
HEADER
  9
$ACADVER
  1
AC1014
  9
$HANDSEED
  5
FFFF
  9
$MEASUREMENT
 70
     1
  0
ENDSEC
  0
SECTION
  2
TABLES
  0
TABLE
  2
VPORT
  5
8
330
0
100
AcDbSymbolTable
 70
     4
  0
VPORT
  5
2E
330
8
100
AcDbSymbolTableRecord
100
AcDbViewportTableRecord
  2
*ACTIVE
 70
     0
 10
0.0
 20
0.0
 11
1.0
 21
1.0
 12
210.0
 22
148.5
 13
0.0
 23
0.0
 14
10.0
 24
10.0
 15
10.0
 25
10.0
 16
0.0
 26
0.0
 36
1.0
 17
0.0
 27
0.0
 37
0.0
 40
341.0
 41
1.24
 42
50.0
 43
0.0
 44
0.0
 50
0.0
 51
0.0
 71
     0
 72
   100
 73
     1
 74
     3
 75
     0
 76
     0
 77
     0
 78
     0
  0
ENDTAB
  0
TABLE
  2
LTYPE
  5
5
330
0
100
AcDbSymbolTable
 70
     1
  0
LTYPE
  5
14
330
5
100
AcDbSymbolTableRecord
100
AcDbLinetypeTableRecord
  2
BYBLOCK
 70
     0
  3

 72
    65
 73
     0
 40
0.0
  0
LTYPE
  5
15
330
5
100
AcDbSymbolTableRecord
100
AcDbLinetypeTableRecord
  2
BYLAYER
 70
     0
  3

 72
    65
 73
     0
 40
0.0
  0
LTYPE
  5
16
330
5
100
AcDbSymbolTableRecord
100
AcDbLinetypeTableRecord
  2
CONTINUOUS
 70
     0
  3
Solid line
 72
    65
 73
     0
 40
0.0
  0
ENDTAB
  0
TABLE
  2
LAYER
  5
2
100
AcDbSymbolTable
 70
94
  0
LAYER
  5
50
100
AcDbSymbolTableRecord
100
AcDbLayerTableRecord
  2
0
 70
0
  6
CONTINUOUS
  0
LAYER
  5
51
100
AcDbSymbolTableRecord
100
AcDbLayerTableRecord
  2
A
 70
0
  6
CONTINUOUS
  0
LAYER
  5
52
100
AcDbSymbolTableRecord
100
AcDbLayerTableRecord
  2
B
 70
0
  6
CONTINUOUS
  0
LAYER
  5
53
100
AcDbSymbolTableRecord
100
AcDbLayerTableRecord
  2
C
 70
0
  6
CONTINUOUS
  0
LAYER
  5
54
100
AcDbSymbolTableRecord
100
AcDbLayerTableRecord
  2
D
 70
0
  6
CONTINUOUS
  0
LAYER
  5
55
100
AcDbSymbolTableRecord
100
AcDbLayerTableRecord
  2
E
 70
0
  6
CONTINUOUS
  0
LAYER
  5
56
100
AcDbSymbolTableRecord
100
AcDbLayerTableRecord
  2
F
 70
0
  6
CONTINUOUS
  0
LAYER
  5
57
100
AcDbSymbolTableRecord
100
AcDbLayerTableRecord
  2
G
 70
0
  6
CONTINUOUS
  0
LAYER
  5
58
100
AcDbSymbolTableRecord
100
AcDbLayerTableRecord
  2
H
 70
0
  6
CONTINUOUS
  0
LAYER
  5
59
100
AcDbSymbolTableRecord
100
AcDbLayerTableRecord
  2
I
 70
0
  6
CONTINUOUS
  0
LAYER
  5
5a
100
AcDbSymbolTableRecord
100
AcDbLayerTableRecord
  2
J
 70
0
  6
CONTINUOUS
  0
LAYER
  5
5b
100
AcDbSymbolTableRecord
100
AcDbLayerTableRecord
  2
K
 70
0
  6
CONTINUOUS
  0
LAYER
  5
5c
100
AcDbSymbolTableRecord
100
AcDbLayerTableRecord
  2
L
 70
0
  6
CONTINUOUS
  0
LAYER
  5
5d
100
AcDbSymbolTableRecord
100
AcDbLayerTableRecord
  2
M
 70
0
  6
CONTINUOUS
  0
LAYER
  5
5e
100
AcDbSymbolTableRecord
100
AcDbLayerTableRecord
  2
N
 70
0
  6
CONTINUOUS
  0
LAYER
  5
5f
100
AcDbSymbolTableRecord
100
AcDbLayerTableRecord
  2
O
 70
0
  6
CONTINUOUS
  0
LAYER
  5
60
100
AcDbSymbolTableRecord
100
AcDbLayerTableRecord
  2
P
 70
0
  6
CONTINUOUS
  0
LAYER
  5
61
100
AcDbSymbolTableRecord
100
AcDbLayerTableRecord
  2
Q
 70
0
  6
CONTINUOUS
  0
LAYER
  5
62
100
AcDbSymbolTableRecord
100
AcDbLayerTableRecord
  2
R
 70
0
  6
CONTINUOUS
  0
LAYER
  5
63
100
AcDbSymbolTableRecord
100
AcDbLayerTableRecord
  2
S
 70
0
  6
CONTINUOUS
  0
LAYER
  5
64
100
AcDbSymbolTableRecord
100
AcDbLayerTableRecord
  2
T
 70
0
  6
CONTINUOUS
  0
LAYER
  5
65
100
AcDbSymbolTableRecord
100
AcDbLayerTableRecord
  2
U
 70
0
  6
CONTINUOUS
  0
LAYER
  5
66
100
AcDbSymbolTableRecord
100
AcDbLayerTableRecord
  2
V
 70
0
  6
CONTINUOUS
  0
LAYER
  5
67
100
AcDbSymbolTableRecord
100
AcDbLayerTableRecord
  2
W
 70
0
  6
CONTINUOUS
  0
LAYER
  5
68
100
AcDbSymbolTableRecord
100
AcDbLayerTableRecord
  2
X
 70
0
  6
CONTINUOUS
  0
LAYER
  5
69
100
AcDbSymbolTableRecord
100
AcDbLayerTableRecord
  2
Y
 70
0
  6
CONTINUOUS
  0
LAYER
  5
6a
100
AcDbSymbolTableRecord
100
AcDbLayerTableRecord
  2
Z
 70
0
  6
CONTINUOUS
  0
LAYER
  5
6b
100
AcDbSymbolTableRecord
100
AcDbLayerTableRecord
  2
a_
 70
0
  6
CONTINUOUS
  0
LAYER
  5
6c
100
AcDbSymbolTableRecord
100
AcDbLayerTableRecord
  2
b_
 70
0
  6
CONTINUOUS
  0
LAYER
  5
6d
100
AcDbSymbolTableRecord
100
AcDbLayerTableRecord
  2
c_
 70
0
  6
CONTINUOUS
  0
LAYER
  5
6e
100
AcDbSymbolTableRecord
100
AcDbLayerTableRecord
  2
d_
 70
0
  6
CONTINUOUS
  0
LAYER
  5
6f
100
AcDbSymbolTableRecord
100
AcDbLayerTableRecord
  2
e_
 70
0
  6
CONTINUOUS
  0
LAYER
  5
70
100
AcDbSymbolTableRecord
100
AcDbLayerTableRecord
  2
f_
 70
0
  6
CONTINUOUS
  0
LAYER
  5
71
100
AcDbSymbolTableRecord
100
AcDbLayerTableRecord
  2
g_
 70
0
  6
CONTINUOUS
  0
LAYER
  5
72
100
AcDbSymbolTableRecord
100
AcDbLayerTableRecord
  2
h_
 70
0
  6
CONTINUOUS
  0
LAYER
  5
73
100
AcDbSymbolTableRecord
100
AcDbLayerTableRecord
  2
i_
 70
0
  6
CONTINUOUS
  0
LAYER
  5
74
100
AcDbSymbolTableRecord
100
AcDbLayerTableRecord
  2
j_
 70
0
  6
CONTINUOUS
  0
LAYER
  5
75
100
AcDbSymbolTableRecord
100
AcDbLayerTableRecord
  2
k_
 70
0
  6
CONTINUOUS
  0
LAYER
  5
76
100
AcDbSymbolTableRecord
100
AcDbLayerTableRecord
  2
l_
 70
0
  6
CONTINUOUS
  0
LAYER
  5
77
100
AcDbSymbolTableRecord
100
AcDbLayerTableRecord
  2
m_
 70
0
  6
CONTINUOUS
  0
LAYER
  5
78
100
AcDbSymbolTableRecord
100
AcDbLayerTableRecord
  2
n_
 70
0
  6
CONTINUOUS
  0
LAYER
  5
79
100
AcDbSymbolTableRecord
100
AcDbLayerTableRecord
  2
o_
 70
0
  6
CONTINUOUS
  0
LAYER
  5
7a
100
AcDbSymbolTableRecord
100
AcDbLayerTableRecord
  2
p_
 70
0
  6
CONTINUOUS
  0
LAYER
  5
7b
100
AcDbSymbolTableRecord
100
AcDbLayerTableRecord
  2
q_
 70
0
  6
CONTINUOUS
  0
LAYER
  5
7c
100
AcDbSymbolTableRecord
100
AcDbLayerTableRecord
  2
r_
 70
0
  6
CONTINUOUS
  0
LAYER
  5
7d
100
AcDbSymbolTableRecord
100
AcDbLayerTableRecord
  2
s_
 70
0
  6
CONTINUOUS
  0
LAYER
  5
7e
100
AcDbSymbolTableRecord
100
AcDbLayerTableRecord
  2
t_
 70
0
  6
CONTINUOUS
  0
LAYER
  5
7f
100
AcDbSymbolTableRecord
100
AcDbLayerTableRecord
  2
u_
 70
0
  6
CONTINUOUS
  0
LAYER
  5
80
100
AcDbSymbolTableRecord
100
AcDbLayerTableRecord
  2
v_
 70
0
  6
CONTINUOUS
  0
LAYER
  5
81
100
AcDbSymbolTableRecord
100
AcDbLayerTableRecord
  2
w_
 70
0
  6
CONTINUOUS
  0
LAYER
  5
82
100
AcDbSymbolTableRecord
100
AcDbLayerTableRecord
  2
x_
 70
0
  6
CONTINUOUS
  0
LAYER
  5
83
100
AcDbSymbolTableRecord
100
AcDbLayerTableRecord
  2
y_
 70
0
  6
CONTINUOUS
  0
LAYER
  5
84
100
AcDbSymbolTableRecord
100
AcDbLayerTableRecord
  2
z_
 70
0
  6
CONTINUOUS
  0
LAYER
  5
85
100
AcDbSymbolTableRecord
100
AcDbLayerTableRecord
  2
1
 70
0
  6
CONTINUOUS
  0
LAYER
  5
86
100
AcDbSymbolTableRecord
100
AcDbLayerTableRecord
  2
2
 70
0
  6
CONTINUOUS
  0
LAYER
  5
87
100
AcDbSymbolTableRecord
100
AcDbLayerTableRecord
  2
3
 70
0
  6
CONTINUOUS
  0
LAYER
  5
88
100
AcDbSymbolTableRecord
100
AcDbLayerTableRecord
  2
4
 70
0
  6
CONTINUOUS
  0
LAYER
  5
89
100
AcDbSymbolTableRecord
100
AcDbLayerTableRecord
  2
5
 70
0
  6
CONTINUOUS
  0
LAYER
  5
8a
100
AcDbSymbolTableRecord
100
AcDbLayerTableRecord
  2
6
 70
0
  6
CONTINUOUS
  0
LAYER
  5
8b
100
AcDbSymbolTableRecord
100
AcDbLayerTableRecord
  2
7
 70
0
  6
CONTINUOUS
  0
LAYER
  5
8c
100
AcDbSymbolTableRecord
100
AcDbLayerTableRecord
  2
8
 70
0
  6
CONTINUOUS
  0
LAYER
  5
8d
100
AcDbSymbolTableRecord
100
AcDbLayerTableRecord
  2
9
 70
0
  6
CONTINUOUS
  0
LAYER
  5
8e
100
AcDbSymbolTableRecord
100
AcDbLayerTableRecord
  2
`
 70
0
  6
CONTINUOUS
  0
LAYER
  5
8f
100
AcDbSymbolTableRecord
100
AcDbLayerTableRecord
  2
~
 70
0
  6
CONTINUOUS
  0
LAYER
  5
90
100
AcDbSymbolTableRecord
100
AcDbLayerTableRecord
  2
!
 70
0
  6
CONTINUOUS
  0
LAYER
  5
91
100
AcDbSymbolTableRecord
100
AcDbLayerTableRecord
  2
@
 70
0
  6
CONTINUOUS
  0
LAYER
  5
92
100
AcDbSymbolTableRecord
100
AcDbLayerTableRecord
  2
#
 70
0
  6
CONTINUOUS
  0
LAYER
  5
93
100
AcDbSymbolTableRecord
100
AcDbLayerTableRecord
  2
$
 70
0
  6
CONTINUOUS
  0
LAYER
  5
94
100
AcDbSymbolTableRecord
100
AcDbLayerTableRecord
  2
%
 70
0
  6
CONTINUOUS
  0
LAYER
  5
95
100
AcDbSymbolTableRecord
100
AcDbLayerTableRecord
  2
^
 70
0
  6
CONTINUOUS
  0
LAYER
  5
96
100
AcDbSymbolTableRecord
100
AcDbLayerTableRecord
  2
&
 70
0
  6
CONTINUOUS
  0
LAYER
  5
97
100
AcDbSymbolTableRecord
100
AcDbLayerTableRecord
  2
*
 70
0
  6
CONTINUOUS
  0
LAYER
  5
98
100
AcDbSymbolTableRecord
100
AcDbLayerTableRecord
  2
(
 70
0
  6
CONTINUOUS
  0
LAYER
  5
99
100
AcDbSymbolTableRecord
100
AcDbLayerTableRecord
  2
)
 70
0
  6
CONTINUOUS
  0
LAYER
  5
9a
100
AcDbSymbolTableRecord
100
AcDbLayerTableRecord
  2
_
 70
0
  6
CONTINUOUS
  0
LAYER
  5
9b
100
AcDbSymbolTableRecord
100
AcDbLayerTableRecord
  2
-
 70
0
  6
CONTINUOUS
  0
LAYER
  5
9c
100
AcDbSymbolTableRecord
100
AcDbLayerTableRecord
  2
+
 70
0
  6
CONTINUOUS
  0
LAYER
  5
9d
100
AcDbSymbolTableRecord
100
AcDbLayerTableRecord
  2
=
 70
0
  6
CONTINUOUS
  0
LAYER
  5
9e
100
AcDbSymbolTableRecord
100
AcDbLayerTableRecord
  2
{
 70
0
  6
CONTINUOUS
  0
LAYER
  5
9f
100
AcDbSymbolTableRecord
100
AcDbLayerTableRecord
  2
}
 70
0
  6
CONTINUOUS
  0
LAYER
  5
a0
100
AcDbSymbolTableRecord
100
AcDbLayerTableRecord
  2
[
 70
0
  6
CONTINUOUS
  0
LAYER
  5
a1
100
AcDbSymbolTableRecord
100
AcDbLayerTableRecord
  2
]
 70
0
  6
CONTINUOUS
  0
LAYER
  5
a2
100
AcDbSymbolTableRecord
100
AcDbLayerTableRecord
  2
|
 70
0
  6
CONTINUOUS
  0
LAYER
  5
a3
100
AcDbSymbolTableRecord
100
AcDbLayerTableRecord
  2
\
 70
0
  6
CONTINUOUS
  0
LAYER
  5
a4
100
AcDbSymbolTableRecord
100
AcDbLayerTableRecord
  2
;
 70
0
  6
CONTINUOUS
  0
LAYER
  5
a5
100
AcDbSymbolTableRecord
100
AcDbLayerTableRecord
  2
:
 70
0
  6
CONTINUOUS
  0
LAYER
  5
a6
100
AcDbSymbolTableRecord
100
AcDbLayerTableRecord
  2
'
 70
0
  6
CONTINUOUS
  0
LAYER
  5
a7
100
AcDbSymbolTableRecord
100
AcDbLayerTableRecord
  2
"
 70
0
  6
CONTINUOUS
  0
LAYER
  5
a8
100
AcDbSymbolTableRecord
100
AcDbLayerTableRecord
  2
<
 70
0
  6
CONTINUOUS
  0
LAYER
  5
a9
100
AcDbSymbolTableRecord
100
AcDbLayerTableRecord
  2
>
 70
0
  6
CONTINUOUS
  0
LAYER
  5
aa
100
AcDbSymbolTableRecord
100
AcDbLayerTableRecord
  2
,
 70
0
  6
CONTINUOUS
  0
LAYER
  5
ab
100
AcDbSymbolTableRecord
100
AcDbLayerTableRecord
  2
.
 70
0
  6
CONTINUOUS
  0
LAYER
  5
ac
100
AcDbSymbolTableRecord
100
AcDbLayerTableRecord
  2
?
 70
0
  6
CONTINUOUS
  0
LAYER
  5
ad
100
AcDbSymbolTableRecord
100
AcDbLayerTableRecord
  2
/
 70
0
  6
CONTINUOUS
  0
ENDTAB
  0
TABLE
  2
STYLE
  5
3
330
0
100
AcDbSymbolTable
 70
     1
  0
STYLE
  5
11
330
3
100
AcDbSymbolTableRecord
100
AcDbTextStyleTableRecord
  2
STANDARD
 70
     0
 40
0.0
 41
1.0
 50
0.0
 71
     0
 42
2.5
  3
txt
  4

  0
ENDTAB
  0
TABLE
  2
VIEW
  5
6
330
0
100
AcDbSymbolTable
 70
     0
  0
ENDTAB
  0
TABLE
  2
UCS
  5
7
330
0
100
AcDbSymbolTable
 70
     0
  0
ENDTAB
  0
TABLE
  2
APPID
  5
9
330
0
100
AcDbSymbolTable
 70
     2
  0
APPID
  5
12
330
9
100
AcDbSymbolTableRecord
100
AcDbRegAppTableRecord
  2
ACAD
 70
     0
  0
ENDTAB
  0
TABLE
  2
DIMSTYLE
  5
A
330
0
100
AcDbSymbolTable
 70
     1
  0
DIMSTYLE
105
27
330
A
100
AcDbSymbolTableRecord
100
AcDbDimStyleTableRecord
  2
ISO-25
 70
     0
  3

  4

  5

  6

  7

 40
1.0
 41
2.5
 42
0.625
 43
3.75
 44
1.25
 45
0.0
 46
0.0
 47
0.0
 48
0.0
140
2.5
141
2.5
142
0.0
143
0.03937007874016
144
1.0
145
0.0
146
1.0
147
0.625
 71
     0
 72
     0
 73
     0
 74
     0
 75
     0
 76
     0
 77
     1
 78
     8
170
     0
171
     3
172
     1
173
     0
174
     0
175
     0
176
     0
177
     0
178
     0
270
     2
271
     2
272
     2
273
     2
274
     3
340
11
275
     0
280
     0
281
     0
282
     0
283
     0
284
     8
285
     0
286
     0
287
     3
288
     0
  0
ENDTAB
  0
TABLE
  2
BLOCK_RECORD
  5
1
330
0
100
AcDbSymbolTable
 70
     1
  0
BLOCK_RECORD
  5
1F
330
1
100
AcDbSymbolTableRecord
100
AcDbBlockTableRecord
  2
*MODEL_SPACE
  0
BLOCK_RECORD
  5
1B
330
1
100
AcDbSymbolTableRecord
100
AcDbBlockTableRecord
  2
*PAPER_SPACE
  0
ENDTAB
  0
ENDSEC
  0
SECTION
  2
BLOCKS
  0
BLOCK
  5
20
330
1F
100
AcDbEntity
  8
0
100
AcDbBlockBegin
  2
*MODEL_SPACE
 70
     0
 10
0.0
 20
0.0
 30
0.0
  3
*MODEL_SPACE
  1

  0
ENDBLK
  5
21
330
1F
100
AcDbEntity
  8
0
100
AcDbBlockEnd
  0
BLOCK
  5
1C
330
1B
100
AcDbEntity
 67
     1
  8
0
100
AcDbBlockBegin
  2
*PAPER_SPACE
  1

  0
ENDBLK
  5
1D
330
1B
100
AcDbEntity
 67
     1
  8
0
100
AcDbBlockEnd
  0
ENDSEC
  0
SECTION
  2
ENTITIES
  0
LWPOLYLINE
  5
100
100
AcDbEntity
  8
A
 62
7
100
AcDbPolyline
 90
49
 70
0
 10
3.236121
 20
6.405322
 30
0.0
 10
3.560236
 20
6.551456
 30
0.0
 10
3.892067
 20
6.642360
 30
0.0
 10
4.255611
 20
6.602821
 30
0.0
 10
4.563809
 20
6.460524
 30
0.0
 10
4.725746
 20
6.223486
 30
0.0
 10
4.650746
 20
5.899608
 30
0.0
 10
4.860070
 20
5.733689
 30
0.0
 10
4.990536
 20
5.480705
 30
0.0
 10
4.705971
 20
3.722433
 30
0.0
 10
4.397773
 20
1.964160
 30
0.0
 10
4.299019
 20
1.379480
 30
0.0
 10
4.200266
 20
0.794800
 30
0.0
 10
4.152758
 20
0.628656
 30
0.0
 10
4.121287
 20
0.466717
 30
0.0
 10
4.089575
 20
0.304778
 30
0.0
 10
3.820926
 20
0.115096
 30
0.0
 10
3.485115
 20
0.051794
 30
0.0
 10
3.137368
 20
0.103158
 30
0.0
 10
2.849065
 20
0.257252
 30
0.0
 10
2.765986
 20
0.391702
 30
0.0
 10
2.765986
 20
0.553642
 30
0.0
 10
2.801557
 20
0.723539
 30
0.0
 10
2.833148
 20
0.873653
 30
0.0
 10
2.856903
 20
1.170043
 30
0.0
 10
2.880658
 20
1.481955
 30
0.0
 10
2.663255
 20
1.383318
 30
0.0
 10
2.469606
 20
1.264785
 30
0.0
 10
2.323465
 20
1.162056
 30
0.0
 10
2.256303
 20
1.110579
 30
0.0
 10
2.090387
 20
1.027606
 30
0.0
 10
1.948105
 20
1.003899
 30
0.0
 10
1.833555
 20
0.992046
 30
0.0
 10
1.742639
 20
0.952506
 30
0.0
 10
1.568765
 20
0.660096
 30
0.0
 10
1.367279
 20
0.383490
 30
0.0
 10
1.149997
 20
0.162228
 30
0.0
 10
0.920777
 20
0.035877
 30
0.0
 10
0.462459
 20
0.000288
 30
0.0
 10
0.098915
 20
0.272915
 30
0.0
 10
0.000282
 20
0.612711
 30
0.0
 10
0.079261
 20
1.098641
 30
0.0
 10
0.225402
 20
1.564928
 30
0.0
 10
0.335972
 20
1.853218
 30
0.0
 10
0.897144
 20
3.086022
 30
0.0
 10
1.552970
 20
4.287216
 30
0.0
 10
2.327444
 20
5.409331
 30
0.0
 10
3.236123
 20
6.405068
 30
0.0
 10
3.236121
 20
6.405322
 30
0.0
  0
LWPOLYLINE
  5
101
100
AcDbEntity
  8
A
 62
7
100
AcDbPolyline
 90
10
 70
0
 10
2.754049
 20
3.276070
 30
0.0
 10
2.576317
 20
2.825587
 30
0.0
 10
2.343118
 20
2.248725
 30
0.0
 10
2.967473
 20
2.272431
 30
0.0
 10
3.109755
 20
3.275985
 30
0.0
 10
3.236120
 20
4.240028
 30
0.0
 10
2.959513
 20
3.821380
 30
0.0
 10
2.860880
 20
3.548753
 30
0.0
 10
2.754048
 20
3.276126
 30
0.0
 10
2.754049
 20
3.276070
 30
0.0
  0
LWPOLYLINE
  5
102
100
AcDbEntity
  8
B
 62
7
100
AcDbPolyline
 90
39
 70
0
 10
1.770660
 20
0.110977
 30
0.0
 10
1.624323
 20
0.122702
 30
0.0
 10
1.566657
 20
0.146436
 30
0.0
 10
1.524376
 20
0.174175
 30
0.0
 10
1.424195
 20
0.197909
 30
0.0
 10
0.985535
 20
0.000282
 30
0.0
 10
0.519862
 20
0.039830
 30
0.0
 10
0.150378
 20
0.308462
 30
0.0
 10
0.000282
 20
0.806321
 30
0.0
 10
0.077327
 20
1.130200
 30
0.0
 10
0.054307
 20
1.304093
 30
0.0
 10
0.285206
 20
2.461750
 30
0.0
 10
0.600783
 20
3.658984
 30
0.0
 10
1.020181
 20
4.793020
 30
0.0
 10
1.562781
 20
5.768863
 30
0.0
 10
2.120766
 20
6.310130
 30
0.0
 10
2.805827
 20
6.606500
 30
0.0
 10
3.521659
 20
6.653913
 30
0.0
 10
4.172191
 20
6.448450
 30
0.0
 10
4.183583
 20
6.444446
 30
0.0
 10
4.202961
 20
6.440443
 30
0.0
 10
4.541439
 20
6.163832
 30
0.0
 10
4.799350
 20
5.867577
 30
0.0
 10
4.991844
 20
5.519962
 30
0.0
 10
5.072647
 20
5.128796
 30
0.0
 10
5.003236
 20
4.709920
 30
0.0
 10
4.783965
 20
4.283294
 30
0.0
 10
4.479898
 20
3.888153
 30
0.0
 10
4.114289
 20
3.532589
 30
0.0
 10
3.717910
 20
3.240051
 30
0.0
 10
3.921913
 20
3.125638
 30
0.0
 10
4.172190
 20
3.002989
 30
0.0
 10
4.425990
 20
2.619686
 30
0.0
 10
4.399095
 20
2.007272
 30
0.0
 10
4.106655
 20
1.308039
 30
0.0
 10
3.560180
 20
0.664026
 30
0.0
 10
2.775055
 20
0.217526
 30
0.0
 10
1.770659
 20
0.110806
 30
0.0
 10
1.770660
 20
0.110977
 30
0.0
  0
LWPOLYLINE
  5
103
100
AcDbEntity
  8
B
 62
7
100
AcDbPolyline
 90
17
 70
0
 10
1.778412
 20
0.932830
 30
0.0
 10
1.936141
 20
0.944554
 30
0.0
 10
2.093871
 20
0.944554
 30
0.0
 10
2.324769
 20
1.015673
 30
0.0
 10
2.694254
 20
1.232975
 30
0.0
 10
2.859735
 20
1.450362
 30
0.0
 10
2.955923
 20
1.738668
 30
0.0
 10
2.878996
 20
2.019254
 30
0.0
 10
2.651973
 20
2.086426
 30
0.0
 10
2.336396
 20
2.043017
 30
0.0
 10
2.001558
 20
1.991658
 30
0.0
 10
2.001558
 20
1.975645
 30
0.0
 10
1.924514
 20
1.699149
 30
0.0
 10
1.855221
 20
1.466090
 30
0.0
 10
1.797555
 20
1.225054
 30
0.0
 10
1.747641
 20
0.932630
 30
0.0
 10
1.778412
 20
0.932830
 30
0.0
  0
LWPOLYLINE
  5
104
100
AcDbEntity
  8
B
 62
7
100
AcDbPolyline
 90
16
 70
0
 10
2.886630
 20
4.891906
 30
0.0
 10
2.709639
 20
4.670543
 30
0.0
 10
2.594190
 20
4.453241
 30
0.0
 10
2.513387
 20
4.208344
 30
0.0
 10
2.447852
 20
3.904138
 30
0.0
 10
2.767422
 20
4.026644
 30
0.0
 10
3.067614
 20
4.141200
 30
0.0
 10
3.333159
 20
4.287326
 30
0.0
 10
3.548554
 20
4.504628
 30
0.0
 10
3.640984
 20
4.658704
 30
0.0
 10
3.656370
 20
4.852357
 30
0.0
 10
3.525536
 20
4.978838
 30
0.0
 10
3.356179
 20
5.081469
 30
0.0
 10
3.209959
 20
5.038060
 30
0.0
 10
3.040719
 20
5.010322
 30
0.0
 10
2.886630
 20
4.891906
 30
0.0
  0
LWPOLYLINE
  5
105
100
AcDbEntity
  8
B
 62
7
100
AcDbPolyline
 90
3
 70
0
 10
3.094509
 20
5.073491
 30
0.0
 10
3.117529
 20
5.073491
 30
0.0
 10
3.094509
 20
5.073491
 30
0.0
  0
LWPOLYLINE
  5
106
100
AcDbEntity
  8
C
 62
7
100
AcDbPolyline
 90
56
 70
0
 10
3.317337
 20
0.482256
 30
0.0
 10
2.892116
 20
0.253155
 30
0.0
 10
2.408846
 20
0.083255
 30
0.0
 10
1.898557
 20
0.000288
 30
0.0
 10
1.399831
 20
0.032014
 30
0.0
 10
0.893317
 20
0.178148
 30
0.0
 10
0.471872
 20
0.442827
 30
0.0
 10
0.162631
 20
0.885336
 30
0.0
 10
0.000282
 20
1.557089
 30
0.0
 10
0.004176
 20
2.611894
 30
0.0
 10
0.247699
 20
3.619452
 30
0.0
 10
0.669026
 20
4.524271
 30
0.0
 10
1.202558
 20
5.286808
 30
0.0
 10
1.782459
 20
5.863668
 30
0.0
 10
2.350797
 20
6.203439
 30
0.0
 10
3.050689
 20
6.448460
 30
0.0
 10
3.804619
 20
6.480072
 30
0.0
 10
4.492713
 20
6.239131
 30
0.0
 10
4.887022
 20
5.761044
 30
0.0
 10
4.991439
 20
5.097279
 30
0.0
 10
4.802072
 20
4.299050
 30
0.0
 10
4.624267
 20
4.022560
 30
0.0
 10
4.365170
 20
3.824929
 30
0.0
 10
4.067374
 20
3.706384
 30
0.0
 10
3.773707
 20
3.666955
 30
0.0
 10
3.340580
 20
3.876398
 30
0.0
 10
3.332912
 20
4.393800
 30
0.0
 10
3.286543
 20
4.579734
 30
0.0
 10
3.174457
 20
4.631118
 30
0.0
 10
3.023671
 20
4.599392
 30
0.0
 10
2.861204
 20
4.544043
 30
0.0
 10
2.706643
 20
4.453144
 30
0.0
 10
2.551963
 20
4.334599
 30
0.0
 10
2.362478
 20
4.137111
 30
0.0
 10
2.118837
 20
3.816969
 30
0.0
 10
1.817383
 20
3.295458
 30
0.0
 10
1.639460
 20
2.805559
 30
0.0
 10
1.565955
 20
2.390753
 30
0.0
 10
1.569967
 20
2.086417
 30
0.0
 10
1.658810
 20
1.837545
 30
0.0
 10
1.809596
 20
1.667645
 30
0.0
 10
1.987401
 20
1.576746
 30
0.0
 10
2.149749
 20
1.549072
 30
0.0
 10
2.447546
 20
1.628159
 30
0.0
 10
2.667943
 20
1.762509
 30
0.0
 10
2.919253
 20
1.853294
 30
0.0
 10
3.317337
 20
1.802053
 30
0.0
 10
3.502929
 20
1.636005
 30
0.0
 10
3.502929
 20
1.406904
 30
0.0
 10
3.499035
 20
1.193495
 30
0.0
 10
3.665395
 20
1.074950
 30
0.0
 10
3.711764
 20
0.916891
 30
0.0
 10
3.634483
 20
0.762769
 30
0.0
 10
3.483697
 20
0.616521
 30
0.0
 10
3.317337
 20
0.482199
 30
0.0
 10
3.317337
 20
0.482256
 30
0.0
  0
LWPOLYLINE
  5
107
100
AcDbEntity
  8
D
 62
7
100
AcDbPolyline
 90
31
 70
0
 10
4.788930
 20
3.046567
 30
0.0
 10
4.532219
 20
2.374934
 30
0.0
 10
4.129246
 20
1.718994
 30
0.0
 10
3.611604
 20
1.134201
 30
0.0
 10
3.007024
 20
0.679851
 30
0.0
 10
2.347219
 20
0.411204
 30
0.0
 10
1.659681
 20
0.391448
 30
0.0
 10
1.236934
 20
0.000288
 30
0.0
 10
0.683841
 20
0.000288
 30
0.0
 10
0.205748
 20
0.312370
 30
0.0
 10
0.000282
 20
0.865554
 30
0.0
 10
0.055628
 20
1.758420
 30
0.0
 10
0.201769
 20
2.560524
 30
0.0
 10
0.415072
 20
3.303389
 30
0.0
 10
0.679862
 20
4.018427
 30
0.0
 10
0.916919
 20
4.630962
 30
0.0
 10
1.122384
 20
5.298728
 30
0.0
 10
1.173751
 20
5.551458
 30
0.0
 10
1.221138
 20
5.816239
 30
0.0
 10
1.292279
 20
6.069223
 30
0.0
 10
1.422624
 20
6.286506
 30
0.0
 10
1.552970
 20
6.404898
 30
0.0
 10
1.707189
 20
6.484005
 30
0.0
 10
2.457910
 20
6.630281
 30
0.0
 10
3.165102
 20
6.432641
 30
0.0
 10
3.801273
 20
6.029543
 30
0.0
 10
4.338691
 20
5.559417
 30
0.0
 10
4.733706
 20
5.026102
 30
0.0
 10
4.911559
 20
4.429484
 30
0.0
 10
4.919517
 20
3.769677
 30
0.0
 10
4.788930
 20
3.046567
 30
0.0
  0
LWPOLYLINE
  5
108
100
AcDbEntity
  8
D
 62
7
100
AcDbPolyline
 90
18
 70
0
 10
1.809922
 20
1.394890
 30
0.0
 10
1.971979
 20
1.481814
 30
0.0
 10
2.141754
 20
1.584684
 30
0.0
 10
2.540747
 20
1.884912
 30
0.0
 10
2.932024
 20
2.216749
 30
0.0
 10
3.212489
 20
2.560637
 30
0.0
 10
3.406138
 20
2.967460
 30
0.0
 10
3.501033
 20
3.892048
 30
0.0
 10
2.987249
 20
4.579598
 30
0.0
 10
2.809516
 20
4.702111
 30
0.0
 10
2.631784
 20
4.816665
 30
0.0
 10
2.469727
 20
4.287188
 30
0.0
 10
2.331544
 20
3.749780
 30
0.0
 10
2.118120
 20
3.054526
 30
0.0
 10
1.944246
 20
2.303786
 30
0.0
 10
1.896738
 20
1.999466
 30
0.0
 10
1.841514
 20
1.695372
 30
0.0
 10
1.809922
 20
1.394890
 30
0.0
  0
LWPOLYLINE
  5
109
100
AcDbEntity
  8
E
 62
7
100
AcDbPolyline
 90
57
 70
0
 10
4.172774
 20
6.641880
 30
0.0
 10
4.611318
 20
6.416780
 30
0.0
 10
4.635073
 20
5.930709
 30
0.0
 10
4.311079
 20
5.425023
 30
0.0
 10
3.706619
 20
5.132725
 30
0.0
 10
3.370567
 20
5.037842
 30
0.0
 10
3.133510
 20
4.950890
 30
0.0
 10
2.967595
 20
4.844181
 30
0.0
 10
2.853166
 20
4.697934
 30
0.0
 10
2.647580
 20
4.366210
 30
0.0
 10
2.513376
 20
4.026301
 30
0.0
 10
2.481785
 20
3.852424
 30
0.0
 10
2.849066
 20
3.809018
 30
0.0
 10
3.252039
 20
3.864362
 30
0.0
 10
3.552399
 20
3.868313
 30
0.0
 10
3.611603
 20
3.670927
 30
0.0
 10
3.354892
 20
3.165100
 30
0.0
 10
2.853166
 20
2.785878
 30
0.0
 10
2.572580
 20
2.726555
 30
0.0
 10
2.457910
 20
2.698897
 30
0.0
 10
2.363135
 20
2.687044
 30
0.0
 10
2.141995
 20
2.675191
 30
0.0
 10
1.987775
 20
2.390739
 30
0.0
 10
1.806063
 20
2.015383
 30
0.0
 10
1.691514
 20
1.691392
 30
0.0
 10
1.731064
 20
1.553075
 30
0.0
 10
2.118241
 20
1.517402
 30
0.0
 10
2.418481
 20
1.505549
 30
0.0
 10
2.714742
 20
1.521353
 30
0.0
 10
3.097940
 20
1.568738
 30
0.0
 10
3.263976
 20
1.450318
 30
0.0
 10
3.279772
 20
1.304070
 30
0.0
 10
3.287610
 20
1.157795
 30
0.0
 10
3.437729
 20
1.039402
 30
0.0
 10
3.481258
 20
0.901085
 30
0.0
 10
3.350913
 20
0.652109
 30
0.0
 10
3.086244
 20
0.383462
 30
0.0
 10
2.734517
 20
0.177976
 30
0.0
 10
2.220853
 20
0.063422
 30
0.0
 10
1.750718
 20
0.004240
 30
0.0
 10
1.256829
 20
0.000288
 30
0.0
 10
0.672145
 20
0.051653
 30
0.0
 10
0.466559
 20
0.102904
 30
0.0
 10
0.241318
 20
0.201767
 30
0.0
 10
0.063586
 20
0.367798
 30
0.0
 10
0.000282
 20
0.628487
 30
0.0
 10
0.083361
 20
1.790142
 30
0.0
 10
0.328376
 20
2.880648
 30
0.0
 10
0.727370
 20
3.963196
 30
0.0
 10
1.264667
 20
5.108934
 30
0.0
 10
1.339787
 20
5.393499
 30
0.0
 10
1.359562
 20
5.701714
 30
0.0
 10
1.406949
 20
5.970474
 30
0.0
 10
1.572865
 20
6.136279
 30
0.0
 10
2.936124
 20
6.570958
 30
0.0
 10
4.172775
 20
6.641965
 30
0.0
 10
4.172774
 20
6.641880
 30
0.0
  0
LWPOLYLINE
  5
10a
100
AcDbEntity
  8
F
 62
7
100
AcDbPolyline
 90
60
 70
0
 10
1.604222
 20
0.525758
 30
0.0
 10
1.402616
 20
0.205746
 30
0.0
 10
1.082601
 20
0.031869
 30
0.0
 10
0.723036
 20
0.000288
 30
0.0
 10
0.403021
 20
0.103017
 30
0.0
 10
0.201535
 20
0.332097
 30
0.0
 10
0.197556
 20
0.691676
 30
0.0
 10
0.324042
 20
1.173740
 30
0.0
 10
0.521550
 20
1.861290
 30
0.0
 10
0.758607
 20
2.659386
 30
0.0
 10
0.999643
 20
3.473287
 30
0.0
 10
1.208967
 20
4.208222
 30
0.0
 10
1.351249
 20
4.769138
 30
0.0
 10
1.564552
 20
5.413170
 30
0.0
 10
1.730589
 20
5.796484
 30
0.0
 10
1.888667
 20
6.013880
 30
0.0
 10
2.078337
 20
6.152197
 30
0.0
 10
2.528697
 20
6.349696
 30
0.0
 10
2.939507
 20
6.424682
 30
0.0
 10
3.358396
 20
6.456291
 30
0.0
 10
3.832510
 20
6.531532
 30
0.0
 10
4.018201
 20
6.547336
 30
0.0
 10
4.180258
 20
6.571043
 30
0.0
 10
4.342315
 20
6.574994
 30
0.0
 10
4.528006
 20
6.539406
 30
0.0
 10
4.808471
 20
6.334061
 30
0.0
 10
4.899387
 20
6.010070
 30
0.0
 10
4.824267
 20
5.622776
 30
0.0
 10
4.614822
 20
5.227637
 30
0.0
 10
4.290828
 20
4.883862
 30
0.0
 10
3.880018
 20
4.642957
 30
0.0
 10
3.437496
 20
4.548187
 30
0.0
 10
3.251805
 20
4.579767
 30
0.0
 10
3.192480
 20
4.627152
 30
0.0
 10
3.137256
 20
4.571809
 30
0.0
 10
3.034523
 20
4.342701
 30
0.0
 10
2.931790
 20
4.105662
 30
0.0
 10
2.923832
 20
4.089858
 30
0.0
 10
2.686775
 20
3.635508
 30
0.0
 10
2.568126
 20
3.497332
 30
0.0
 10
3.263622
 20
3.568480
 30
0.0
 10
3.552045
 20
3.501199
 30
0.0
 10
3.725919
 20
3.299692
 30
0.0
 10
3.753532
 20
3.066633
 30
0.0
 10
3.611369
 20
2.896622
 30
0.0
 10
3.457150
 20
2.774222
 30
0.0
 10
3.397946
 20
2.659668
 30
0.0
 10
3.338742
 20
2.548981
 30
0.0
 10
3.188622
 20
2.442273
 30
0.0
 10
2.844853
 20
2.343523
 30
0.0
 10
2.212661
 20
2.256570
 30
0.0
 10
2.105949
 20
1.976126
 30
0.0
 10
1.967646
 20
1.636331
 30
0.0
 10
1.833321
 20
1.292556
 30
0.0
 10
1.730589
 20
1.008104
 30
0.0
 10
1.718772
 20
0.940822
 30
0.0
 10
1.691160
 20
0.818310
 30
0.0
 10
1.655589
 20
0.668196
 30
0.0
 10
1.604223
 20
0.526040
 30
0.0
 10
1.604222
 20
0.525758
 30
0.0
  0
LWPOLYLINE
  5
10b
100
AcDbEntity
  8
G
 62
7
100
AcDbPolyline
 90
57
 70
0
 10
4.683363
 20
6.203345
 30
0.0
 10
5.080282
 20
5.476256
 30
0.0
 10
4.980061
 20
4.433247
 30
0.0
 10
4.698084
 20
4.030177
 30
0.0
 10
4.286217
 20
3.876056
 30
0.0
 10
3.904019
 20
3.931400
 30
0.0
 10
3.718526
 20
4.148682
 30
0.0
 10
3.651712
 20
4.314601
 30
0.0
 10
3.651712
 20
4.306699
 30
0.0
 10
3.391931
 20
4.464912
 30
0.0
 10
3.039403
 20
4.381939
 30
0.0
 10
2.649732
 20
4.121138
 30
0.0
 10
2.274895
 20
3.741803
 30
0.0
 10
1.959511
 20
3.303258
 30
0.0
 10
1.759183
 20
2.876396
 30
0.0
 10
1.666436
 20
2.572189
 30
0.0
 10
1.621818
 20
2.303542
 30
0.0
 10
1.662699
 20
2.042853
 30
0.0
 10
1.825997
 20
1.778185
 30
0.0
 10
2.449404
 20
1.584524
 30
0.0
 10
3.005996
 20
1.734638
 30
0.0
 10
3.406766
 20
2.030915
 30
0.0
 10
3.562703
 20
2.267982
 30
0.0
 10
3.748196
 20
2.434041
 30
0.0
 10
3.351164
 20
2.216900
 30
0.0
 10
3.043141
 20
2.295865
 30
0.0
 10
2.805669
 20
2.477588
 30
0.0
 10
2.612588
 20
2.568379
 30
0.0
 10
2.516218
 20
2.718606
 30
0.0
 10
2.538527
 20
2.935889
 30
0.0
 10
2.675779
 20
3.149192
 30
0.0
 10
2.931710
 20
3.287510
 30
0.0
 10
3.640502
 20
3.489101
 30
0.0
 10
4.304677
 20
3.445695
 30
0.0
 10
4.694462
 20
3.125570
 30
0.0
 10
4.787208
 20
2.584296
 30
0.0
 10
4.664792
 20
1.975854
 30
0.0
 10
4.416109
 20
1.462181
 30
0.0
 10
4.078416
 20
1.043420
 30
0.0
 10
3.510725
 20
0.553510
 30
0.0
 10
2.720284
 20
0.150412
 30
0.0
 10
1.714566
 20
0.000298
 30
0.0
 10
0.890944
 20
0.154391
 30
0.0
 10
0.356547
 20
0.565222
 30
0.0
 10
0.074457
 20
1.209225
 30
0.0
 10
0.000282
 20
2.062665
 30
0.0
 10
0.118962
 20
2.936030
 30
0.0
 10
0.378743
 20
3.809141
 30
0.0
 10
0.772152
 20
4.627021
 30
0.0
 10
1.291714
 20
5.342172
 30
0.0
 10
1.673798
 20
5.749108
 30
0.0
 10
2.041161
 20
6.049364
 30
0.0
 10
2.471600
 20
6.278585
 30
0.0
 10
3.043142
 20
6.472218
 30
0.0
 10
4.011602
 20
6.511644
 30
0.0
 10
4.683364
 20
6.203571
 30
0.0
 10
4.683363
 20
6.203345
 30
0.0
  0
LWPOLYLINE
  5
10c
100
AcDbEntity
  8
H
 62
7
100
AcDbPolyline
 90
69
 70
0
 10
1.883377
 20
2.359238
 30
0.0
 10
1.552267
 20
1.395336
 30
0.0
 10
1.428075
 20
0.936894
 30
0.0
 10
1.296936
 20
0.494370
 30
0.0
 10
1.121067
 20
0.241640
 30
0.0
 10
0.834793
 20
0.087547
 30
0.0
 10
0.507261
 20
0.044000
 30
0.0
 10
0.210673
 20
0.119014
 30
0.0
 10
0.017543
 20
0.312647
 30
0.0
 10
0.000282
 20
0.636638
 30
0.0
 10
0.352021
 20
2.248663
 30
0.0
 10
0.700286
 20
3.556566
 30
0.0
 10
1.058971
 20
4.714241
 30
0.0
 10
1.441757
 20
5.883742
 30
0.0
 10
1.607417
 20
6.294658
 30
0.0
 10
1.948841
 20
6.595027
 30
0.0
 10
2.359203
 20
6.764924
 30
0.0
 10
2.738516
 20
6.776778
 30
0.0
 10
2.983428
 20
6.602901
 30
0.0
 10
2.993743
 20
6.215607
 30
0.0
 10
2.786826
 20
5.615010
 30
0.0
 10
2.617903
 20
5.121121
 30
0.0
 10
2.452348
 20
4.650967
 30
0.0
 10
2.262692
 20
4.129364
 30
0.0
 10
2.486764
 20
4.145168
 30
0.0
 10
2.721257
 20
4.200371
 30
0.0
 10
2.962696
 20
4.251736
 30
0.0
 10
3.207607
 20
4.247784
 30
0.0
 10
3.214553
 20
4.295170
 30
0.0
 10
3.228235
 20
4.342555
 30
0.0
 10
3.242129
 20
4.382094
 30
0.0
 10
3.366321
 20
4.974732
 30
0.0
 10
3.469780
 20
5.413278
 30
0.0
 10
3.566292
 20
5.776836
 30
0.0
 10
3.676592
 20
6.152192
 30
0.0
 10
4.007702
 20
6.673682
 30
0.0
 10
4.566357
 20
6.847672
 30
0.0
 10
4.811269
 20
6.808133
 30
0.0
 10
4.994085
 20
6.693466
 30
0.0
 10
5.080283
 20
6.503784
 30
0.0
 10
5.035553
 20
6.239257
 30
0.0
 10
4.835371
 20
5.583288
 30
0.0
 10
4.673289
 20
5.034056
 30
0.0
 10
4.504261
 20
4.429479
 30
0.0
 10
4.283661
 20
3.607733
 30
0.0
 10
4.142209
 20
3.022827
 30
0.0
 10
3.980127
 20
2.288005
 30
0.0
 10
3.821518
 20
1.549232
 30
0.0
 10
3.697431
 20
0.944656
 30
0.0
 10
3.587026
 20
0.628623
 30
0.0
 10
3.445573
 20
0.506110
 30
0.0
 10
3.304119
 20
0.438942
 30
0.0
 10
3.193715
 20
0.280756
 30
0.0
 10
3.173087
 20
0.280756
 30
0.0
 10
2.931754
 20
0.059607
 30
0.0
 10
2.555808
 20
0.000284
 30
0.0
 10
2.238486
 20
0.158356
 30
0.0
 10
2.173022
 20
0.581238
 30
0.0
 10
2.293636
 20
1.154093
 30
0.0
 10
2.466137
 20
1.762536
 30
0.0
 10
2.652426
 20
2.359153
 30
0.0
 10
2.807456
 20
2.904294
 30
0.0
 10
2.700629
 20
2.856909
 30
0.0
 10
2.593803
 20
2.809524
 30
0.0
 10
2.417828
 20
2.722712
 30
0.0
 10
2.266061
 20
2.659522
 30
0.0
 10
2.114294
 20
2.588374
 30
0.0
 10
1.945265
 20
2.485645
 30
0.0
 10
1.883377
 20
2.359238
 30
0.0
  0
LWPOLYLINE
  5
10d
100
AcDbEntity
  8
H
 62
7
100
AcDbPolyline
 90
5
 70
0
 10
2.807454
 20
2.951989
 30
0.0
 10
2.731675
 20
2.916429
 30
0.0
 10
2.662632
 20
2.888772
 30
0.0
 10
2.807454
 20
2.951961
 30
0.0
 10
2.807454
 20
2.951989
 30
0.0
  0
LWPOLYLINE
  5
10e
100
AcDbEntity
  8
I
 62
7
100
AcDbPolyline
 90
26
 70
0
 10
4.382403
 20
5.713506
 30
0.0
 10
3.872718
 20
4.156711
 30
0.0
 10
3.445991
 20
2.876664
 30
0.0
 10
3.086427
 20
1.798096
 30
0.0
 10
2.778228
 20
0.853724
 30
0.0
 10
2.584700
 20
0.375639
 30
0.0
 10
2.264565
 20
0.122768
 30
0.0
 10
1.924775
 20
0.020039
 30
0.0
 10
1.679760
 20
0.000284
 30
0.0
 10
1.142463
 20
0.075298
 30
0.0
 10
0.917222
 20
0.292581
 30
0.0
 10
0.917222
 20
0.636356
 30
0.0
 10
1.055646
 20
1.090818
 30
0.0
 10
1.415211
 20
2.141758
 30
0.0
 10
1.822163
 20
3.362623
 30
0.0
 10
2.248769
 20
4.548041
 30
0.0
 10
2.659820
 20
5.492384
 30
0.0
 10
2.896757
 20
5.788661
 30
0.0
 10
3.125976
 20
5.899349
 30
0.0
 10
3.331442
 20
5.982294
 30
0.0
 10
3.497357
 20
6.211515
 30
0.0
 10
3.777943
 20
6.480162
 30
0.0
 10
4.157162
 20
6.492016
 30
0.0
 10
4.425811
 20
6.239032
 30
0.0
 10
4.382403
 20
5.713562
 30
0.0
 10
4.382403
 20
5.713506
 30
0.0
  0
LWPOLYLINE
  5
10f
100
AcDbEntity
  8
J
 62
7
100
AcDbPolyline
 90
49
 70
0
 10
2.786982
 20
4.010577
 30
0.0
 10
2.939295
 20
4.551992
 30
0.0
 10
3.065448
 20
5.061657
 30
0.0
 10
3.191602
 20
5.579309
 30
0.0
 10
3.336214
 20
6.128429
 30
0.0
 10
3.336214
 20
6.160009
 30
0.0
 10
3.581160
 20
6.590709
 30
0.0
 10
3.981930
 20
6.890965
 30
0.0
 10
4.434678
 20
7.029254
 30
0.0
 10
4.835448
 20
6.966064
 30
0.0
 10
5.080281
 20
6.669703
 30
0.0
 10
5.065447
 20
6.104778
 30
0.0
 10
4.724130
 20
4.958928
 30
0.0
 10
4.360391
 20
3.753867
 30
0.0
 10
3.929952
 20
2.572570
 30
0.0
 10
3.380833
 20
1.509664
 30
0.0
 10
2.668417
 20
0.652245
 30
0.0
 10
1.748086
 20
0.091074
 30
0.0
 10
1.573690
 20
0.035844
 30
0.0
 10
1.399295
 20
0.012137
 30
0.0
 10
1.031932
 20
0.000284
 30
0.0
 10
0.638524
 20
0.071291
 30
0.0
 10
0.297094
 20
0.245168
 30
0.0
 10
0.085668
 20
0.549375
 30
0.0
 10
0.004019
 20
0.968165
 30
0.0
 10
0.000282
 20
1.303981
 30
0.0
 10
0.078194
 20
1.592384
 30
0.0
 10
0.226543
 20
1.876948
 30
0.0
 10
0.234017
 20
1.876948
 30
0.0
 10
0.445556
 20
2.106169
 30
0.0
 10
0.749842
 20
2.228682
 30
0.0
 10
1.046767
 20
2.201024
 30
0.0
 10
1.228524
 20
1.987721
 30
0.0
 10
1.235998
 20
1.766346
 30
0.0
 10
1.228524
 20
1.553155
 30
0.0
 10
1.224787
 20
1.438488
 30
0.0
 10
1.221050
 20
1.363389
 30
0.0
 10
1.224787
 20
1.288374
 30
0.0
 10
1.235998
 20
1.173820
 30
0.0
 10
1.313909
 20
1.122343
 30
0.0
 10
1.402919
 20
1.150000
 30
0.0
 10
1.499403
 20
1.225128
 30
0.0
 10
1.599736
 20
1.316173
 30
0.0
 10
1.644128
 20
1.355486
 30
0.0
 10
1.970723
 20
1.936413
 30
0.0
 10
2.278746
 20
2.604179
 30
0.0
 10
2.553362
 20
3.307505
 30
0.0
 10
2.786984
 20
4.010605
 30
0.0
 10
2.786982
 20
4.010577
 30
0.0
  0
LWPOLYLINE
  5
110
100
AcDbEntity
  8
K
 62
7
100
AcDbPolyline
 90
70
 70
0
 10
1.523143
 20
6.227037
 30
0.0
 10
1.944967
 20
6.487952
 30
0.0
 10
2.019084
 20
6.630135
 30
0.0
 10
2.097133
 20
6.721039
 30
0.0
 10
2.202589
 20
6.784228
 30
0.0
 10
2.351062
 20
6.851397
 30
0.0
 10
2.553990
 20
6.898782
 30
0.0
 10
2.882036
 20
6.926440
 30
0.0
 10
3.245233
 20
6.906685
 30
0.0
 10
3.557550
 20
6.803956
 30
0.0
 10
3.733190
 20
6.582694
 30
0.0
 10
3.686361
 20
6.219248
 30
0.0
 10
3.678495
 20
6.203443
 30
0.0
 10
3.608192
 20
6.069134
 30
0.0
 10
3.553617
 20
5.997986
 30
0.0
 10
3.537886
 20
5.974279
 30
0.0
 10
3.420752
 20
5.749037
 30
0.0
 10
3.311483
 20
5.515837
 30
0.0
 10
2.979624
 20
4.891590
 30
0.0
 10
2.647766
 20
4.251453
 30
0.0
 10
2.632035
 20
4.211886
 30
0.0
 10
3.026452
 20
4.468849
 30
0.0
 10
3.424802
 20
4.769218
 30
0.0
 10
3.823032
 20
5.069446
 30
0.0
 10
4.217330
 20
5.326297
 30
0.0
 10
4.393090
 20
5.405262
 30
0.0
 10
4.537631
 20
5.417116
 30
0.0
 10
4.685984
 20
5.373569
 30
0.0
 10
4.881048
 20
5.294716
 30
0.0
 10
5.025707
 20
5.132664
 30
0.0
 10
5.080282
 20
4.836274
 30
0.0
 10
5.045130
 20
4.508304
 30
0.0
 10
4.927997
 20
4.251482
 30
0.0
 10
4.400955
 20
3.662822
 30
0.0
 10
3.869981
 20
3.259837
 30
0.0
 10
3.327210
 20
2.999036
 30
0.0
 10
2.764778
 20
2.829138
 30
0.0
 10
3.186602
 20
2.651394
 30
0.0
 10
3.553613
 20
2.276039
 30
0.0
 10
3.834710
 20
1.805772
 30
0.0
 10
4.014283
 20
1.351338
 30
0.0
 10
4.209585
 20
0.786414
 30
0.0
 10
4.275957
 20
0.462422
 30
0.0
 10
4.143213
 20
0.288545
 30
0.0
 10
3.733305
 20
0.173991
 30
0.0
 10
3.510597
 20
0.249006
 30
0.0
 10
3.186483
 20
0.490024
 30
0.0
 10
2.803863
 20
0.817994
 30
0.0
 10
2.401700
 20
1.153952
 30
0.0
 10
2.030757
 20
1.422599
 30
0.0
 10
1.741915
 20
1.541104
 30
0.0
 10
1.679475
 20
1.556908
 30
0.0
 10
1.538867
 20
1.201450
 30
0.0
 10
1.316278
 20
0.652076
 30
0.0
 10
1.046739
 20
0.134565
 30
0.0
 10
0.792930
 20
0.023990
 30
0.0
 10
0.484546
 20
0.000284
 30
0.0
 10
0.195704
 20
0.087095
 30
0.0
 10
0.000282
 20
0.300399
 30
0.0
 10
0.004334
 20
0.687692
 30
0.0
 10
0.117535
 20
1.224987
 30
0.0
 10
0.254211
 20
1.742639
 30
0.0
 10
0.343938
 20
2.070496
 30
0.0
 10
0.656373
 20
3.240082
 30
0.0
 10
0.976435
 20
4.409695
 30
0.0
 10
1.101433
 20
4.903471
 30
0.0
 10
1.210822
 20
5.353954
 30
0.0
 10
1.335820
 20
5.784654
 30
0.0
 10
1.523138
 20
6.227065
 30
0.0
 10
1.523143
 20
6.227037
 30
0.0
  0
LWPOLYLINE
  5
111
100
AcDbEntity
  8
L
 62
7
100
AcDbPolyline
 90
44
 70
0
 10
0.852282
 20
0.529676
 30
0.0
 10
0.761366
 20
0.774588
 30
0.0
 10
0.674429
 20
0.904919
 30
0.0
 10
0.635000
 20
1.051194
 30
0.0
 10
0.694325
 20
1.335618
 30
0.0
 10
0.923423
 20
2.050769
 30
0.0
 10
1.243438
 20
2.959468
 30
0.0
 10
1.618799
 20
3.915637
 30
0.0
 10
2.013934
 20
4.781043
 30
0.0
 10
2.258949
 20
5.318338
 30
0.0
 10
2.424865
 20
5.685848
 30
0.0
 10
2.503964
 20
5.855633
 30
0.0
 10
2.713288
 20
6.140197
 30
0.0
 10
3.108423
 20
6.365439
 30
0.0
 10
3.586396
 20
6.487952
 30
0.0
 10
4.044714
 20
6.468196
 30
0.0
 10
4.368708
 20
6.270556
 30
0.0
 10
4.455645
 20
5.855661
 30
0.0
 10
4.127793
 20
4.875842
 30
0.0
 10
3.633904
 20
3.848496
 30
0.0
 10
3.033424
 20
2.710605
 30
0.0
 10
2.393273
 20
1.406794
 30
0.0
 10
2.424865
 20
1.351564
 30
0.0
 10
2.713288
 20
1.414640
 30
0.0
 10
3.100465
 20
1.513503
 30
0.0
 10
3.499580
 20
1.557050
 30
0.0
 10
3.831532
 20
1.454292
 30
0.0
 10
3.902552
 20
1.229051
 30
0.0
 10
4.060631
 20
1.063020
 30
0.0
 10
4.167342
 20
0.857562
 30
0.0
 10
4.092222
 20
0.521746
 30
0.0
 10
3.843349
 20
0.221518
 30
0.0
 10
3.523334
 20
0.071404
 30
0.0
 10
3.207177
 20
0.020039
 30
0.0
 10
2.970120
 20
0.016088
 30
0.0
 10
2.744880
 20
0.004235
 30
0.0
 10
2.484189
 20
0.000284
 30
0.0
 10
2.140421
 20
0.004235
 30
0.0
 10
1.674144
 20
0.016088
 30
0.0
 10
1.421291
 20
0.008186
 30
0.0
 10
1.184234
 20
0.055571
 30
0.0
 10
0.986727
 20
0.213644
 30
0.0
 10
0.852282
 20
0.529789
 30
0.0
 10
0.852282
 20
0.529676
 30
0.0
  0
LWPOLYLINE
  5
112
100
AcDbEntity
  8
M
 62
7
100
AcDbPolyline
 90
71
 70
0
 10
2.771214
 20
6.160320
 30
0.0
 10
2.814098
 20
6.021890
 30
0.0
 10
2.843794
 20
5.875755
 30
0.0
 10
2.830606
 20
5.741417
 30
0.0
 10
2.751482
 20
5.622771
 30
0.0
 10
2.738193
 20
5.599064
 30
0.0
 10
2.764566
 20
4.903669
 30
0.0
 10
2.678799
 20
4.279450
 30
0.0
 10
2.962576
 20
4.840508
 30
0.0
 10
3.285814
 20
5.409496
 30
0.0
 10
3.648613
 20
5.931014
 30
0.0
 10
4.057719
 20
6.349776
 30
0.0
 10
4.364448
 20
6.480247
 30
0.0
 10
4.710839
 20
6.492100
 30
0.0
 10
4.984550
 20
6.334028
 30
0.0
 10
5.080283
 20
5.954806
 30
0.0
 10
4.684364
 20
3.082291
 30
0.0
 10
4.136843
 20
0.541812
 30
0.0
 10
4.136843
 20
0.526007
 30
0.0
 10
4.130199
 20
0.526007
 30
0.0
 10
3.985140
 20
0.280982
 30
0.0
 10
3.737703
 20
0.126888
 30
0.0
 10
3.447383
 20
0.067678
 30
0.0
 10
3.176894
 20
0.103266
 30
0.0
 10
2.975764
 20
0.241555
 30
0.0
 10
2.909727
 20
0.486468
 30
0.0
 10
2.916370
 20
0.668304
 30
0.0
 10
2.916370
 20
0.683826
 30
0.0
 10
2.946067
 20
0.940789
 30
0.0
 10
2.952710
 20
1.043518
 30
0.0
 10
2.962577
 20
1.134422
 30
0.0
 10
3.002138
 20
1.355684
 30
0.0
 10
3.031835
 20
1.501819
 30
0.0
 10
3.074718
 20
1.711284
 30
0.0
 10
3.114280
 20
1.920608
 30
0.0
 10
3.140654
 20
2.074814
 30
0.0
 10
2.913048
 20
1.726947
 30
0.0
 10
2.751379
 20
1.549204
 30
0.0
 10
2.612863
 20
1.462279
 30
0.0
 10
2.461159
 20
1.402956
 30
0.0
 10
2.339052
 20
1.383201
 30
0.0
 10
2.170839
 20
1.375298
 30
0.0
 10
2.012492
 20
1.402956
 30
0.0
 10
1.920181
 20
1.489909
 30
0.0
 10
1.850923
 20
1.699233
 30
0.0
 10
1.814583
 20
1.770353
 30
0.0
 10
1.791530
 20
1.817766
 30
0.0
 10
1.761934
 20
1.964014
 30
0.0
 10
1.646471
 20
1.418761
 30
0.0
 10
1.537550
 20
0.999858
 30
0.0
 10
1.422086
 20
0.671888
 30
0.0
 10
1.293436
 20
0.407361
 30
0.0
 10
1.131867
 20
0.185958
 30
0.0
 10
0.867921
 20
0.043802
 30
0.0
 10
0.564414
 20
0.000284
 30
0.0
 10
0.280737
 20
0.055514
 30
0.0
 10
0.072963
 20
0.213587
 30
0.0
 10
0.000282
 20
0.494172
 30
0.0
 10
0.096015
 20
1.169897
 30
0.0
 10
0.287381
 20
2.086527
 30
0.0
 10
0.508443
 20
3.034737
 30
0.0
 10
0.699708
 20
3.805260
 30
0.0
 10
0.831581
 20
4.267540
 30
0.0
 10
1.009759
 20
4.781213
 30
0.0
 10
1.214312
 20
5.271122
 30
0.0
 10
1.431952
 20
5.670100
 30
0.0
 10
1.728815
 20
6.089002
 30
0.0
 10
2.108225
 20
6.274704
 30
0.0
 10
2.480990
 20
6.278656
 30
0.0
 10
2.771210
 20
6.160263
 30
0.0
 10
2.771214
 20
6.160320
 30
0.0
  0
LWPOLYLINE
  5
113
100
AcDbEntity
  8
N
 62
7
100
AcDbPolyline
 90
56
 70
0
 10
0.872197
 20
4.298867
 30
0.0
 10
1.012742
 20
4.725728
 30
0.0
 10
1.206072
 20
5.168252
 30
0.0
 10
1.445105
 20
5.559384
 30
0.0
 10
1.722869
 20
5.839856
 30
0.0
 10
2.032282
 20
5.942585
 30
0.0
 10
2.369697
 20
5.800317
 30
0.0
 10
2.587703
 20
5.176070
 30
0.0
 10
2.721274
 20
4.694006
 30
0.0
 10
2.802168
 20
4.219901
 30
0.0
 10
2.869007
 20
3.627262
 30
0.0
 10
3.013092
 20
4.010577
 30
0.0
 10
3.174772
 20
4.413534
 30
0.0
 10
3.329479
 20
4.816519
 30
0.0
 10
3.445562
 20
5.207792
 30
0.0
 10
3.705624
 20
5.713506
 30
0.0
 10
4.088850
 20
6.037497
 30
0.0
 10
4.507266
 20
6.191590
 30
0.0
 10
4.869357
 20
6.191590
 30
0.0
 10
5.080281
 20
6.053273
 30
0.0
 10
5.055714
 20
5.792358
 30
0.0
 10
5.038117
 20
5.630419
 30
0.0
 10
5.066227
 20
5.393353
 30
0.0
 10
5.059146
 20
5.089145
 30
0.0
 10
4.950143
 20
4.733686
 30
0.0
 10
4.683000
 20
4.057962
 30
0.0
 10
4.398263
 20
3.176892
 30
0.0
 10
4.106445
 20
2.228541
 30
0.0
 10
3.821707
 20
1.347471
 30
0.0
 10
3.554457
 20
0.675839
 30
0.0
 10
3.311883
 20
0.347756
 30
0.0
 10
3.072850
 20
0.201621
 30
0.0
 10
2.886494
 20
0.130473
 30
0.0
 10
2.700245
 20
0.114668
 30
0.0
 10
2.461104
 20
0.134706
 30
0.0
 10
2.278396
 20
0.292666
 30
0.0
 10
2.141284
 20
0.664183
 30
0.0
 10
2.042796
 20
1.154093
 30
0.0
 10
1.972416
 20
1.667624
 30
0.0
 10
1.912658
 20
2.106169
 30
0.0
 10
1.849359
 20
2.370950
 30
0.0
 10
1.585757
 20
1.462166
 30
0.0
 10
1.409915
 20
0.976236
 30
0.0
 10
1.276344
 20
0.719414
 30
0.0
 10
1.132258
 20
0.490193
 30
0.0
 10
0.963604
 20
0.233484
 30
0.0
 10
0.699895
 20
0.067424
 30
0.0
 10
0.411617
 20
0.000284
 30
0.0
 10
0.158529
 20
0.031864
 30
0.0
 10
0.000282
 20
0.162223
 30
0.0
 10
0.007256
 20
0.395395
 30
0.0
 10
0.130313
 20
1.244884
 30
0.0
 10
0.351859
 20
2.307789
 30
0.0
 10
0.615568
 20
3.390337
 30
0.0
 10
0.872197
 20
4.299008
 30
0.0
 10
0.872197
 20
4.298867
 30
0.0
  0
LWPOLYLINE
  5
114
100
AcDbEntity
  8
O
 62
7
100
AcDbPolyline
 90
31
 70
0
 10
1.777171
 20
6.175729
 30
0.0
 10
2.517168
 20
6.551226
 30
0.0
 10
3.287985
 20
6.515525
 30
0.0
 10
3.634987
 20
6.729082
 30
0.0
 10
4.028100
 20
6.736984
 30
0.0
 10
4.413567
 20
6.571066
 30
0.0
 10
4.737396
 20
6.254921
 30
0.0
 10
4.802798
 20
6.089002
 30
0.0
 10
4.899253
 20
5.843977
 30
0.0
 10
5.080282
 20
4.848382
 30
0.0
 10
4.953126
 20
3.726266
 30
0.0
 10
4.617887
 20
2.619955
 30
0.0
 10
4.174664
 20
1.671745
 30
0.0
 10
3.696624
 20
0.968390
 30
0.0
 10
3.072255
 20
0.391444
 30
0.0
 10
2.571160
 20
0.107105
 30
0.0
 10
2.185693
 20
0.016088
 30
0.0
 10
1.746234
 20
0.000284
 30
0.0
 10
1.314540
 20
0.075411
 30
0.0
 10
0.944600
 20
0.249147
 30
0.0
 10
0.362576
 20
0.739198
 30
0.0
 10
0.065801
 20
1.398977
 30
0.0
 10
0.000282
 20
2.165492
 30
0.0
 10
0.108147
 20
2.983401
 30
0.0
 10
0.327759
 20
3.785476
 30
0.0
 10
0.605361
 20
4.516432
 30
0.0
 10
0.821208
 20
4.939285
 30
0.0
 10
1.110338
 20
5.401452
 30
0.0
 10
1.437931
 20
5.832180
 30
0.0
 10
1.777171
 20
6.175814
 30
0.0
 10
1.777171
 20
6.175729
 30
0.0
  0
LWPOLYLINE
  5
115
100
AcDbEntity
  8
O
 62
7
100
AcDbPolyline
 90
21
 70
0
 10
2.162520
 20
1.221177
 30
0.0
 10
2.628915
 20
1.999518
 30
0.0
 10
2.979682
 20
2.959666
 30
0.0
 10
3.176238
 20
3.983032
 30
0.0
 10
3.195531
 20
4.950913
 30
0.0
 10
3.037556
 20
4.737722
 30
0.0
 10
2.894873
 20
4.532264
 30
0.0
 10
2.455533
 20
3.876295
 30
0.0
 10
2.039247
 20
3.161144
 30
0.0
 10
1.707772
 20
2.410433
 30
0.0
 10
1.530389
 20
1.640051
 30
0.0
 10
1.526507
 20
1.616344
 30
0.0
 10
1.522625
 20
1.592638
 30
0.0
 10
1.538152
 20
1.505826
 30
0.0
 10
1.572852
 20
1.387180
 30
0.0
 10
1.642135
 20
1.225128
 30
0.0
 10
1.742354
 20
1.071006
 30
0.0
 10
1.869628
 20
0.968278
 30
0.0
 10
2.023838
 20
1.086811
 30
0.0
 10
2.162521
 20
1.221262
 30
0.0
 10
2.162520
 20
1.221177
 30
0.0
  0
LWPOLYLINE
  5
116
100
AcDbEntity
  8
P
 62
7
100
AcDbPolyline
 90
34
 70
0
 10
4.526624
 20
2.928057
 30
0.0
 10
4.036021
 20
2.347215
 30
0.0
 10
3.415338
 20
1.999602
 30
0.0
 10
2.772428
 20
1.940392
 30
0.0
 10
2.222626
 20
2.232802
 30
0.0
 10
2.047865
 20
1.541273
 30
0.0
 10
1.940013
 20
0.841814
 30
0.0
 10
1.836132
 20
0.612706
 30
0.0
 10
1.609429
 20
0.257134
 30
0.0
 10
1.245162
 20
0.051648
 30
0.0
 10
0.821470
 20
0.000284
 30
0.0
 10
0.420232
 20
0.099174
 30
0.0
 10
0.119247
 20
0.352017
 30
0.0
 10
0.000282
 20
0.755002
 30
0.0
 10
0.453574
 20
2.319614
 30
0.0
 10
0.988747
 20
3.852645
 30
0.0
 10
1.156024
 20
4.263589
 30
0.0
 10
1.271246
 20
4.532236
 30
0.0
 10
1.364127
 20
4.725869
 30
0.0
 10
1.464380
 20
4.911571
 30
0.0
 10
1.601944
 20
5.152589
 30
0.0
 10
1.806419
 20
5.520014
 30
0.0
 10
2.070206
 20
5.946734
 30
0.0
 10
2.330364
 20
6.219361
 30
0.0
 10
2.634978
 20
6.436644
 30
0.0
 10
3.032586
 20
6.697586
 30
0.0
 10
3.593843
 20
6.906769
 30
0.0
 10
4.140129
 20
6.855405
 30
0.0
 10
4.612020
 20
6.559156
 30
0.0
 10
4.950090
 20
6.041617
 30
0.0
 10
5.080282
 20
5.318507
 30
0.0
 10
5.024485
 20
4.469047
 30
0.0
 10
4.823867
 20
3.627516
 30
0.0
 10
4.526624
 20
2.928057
 30
0.0
  0
LWPOLYLINE
  5
117
100
AcDbEntity
  8
P
 62
7
100
AcDbPolyline
 90
9
 70
0
 10
2.482558
 20
3.046703
 30
0.0
 10
3.021473
 20
3.354777
 30
0.0
 10
3.329943
 20
3.892184
 30
0.0
 10
3.448907
 20
4.551992
 30
0.0
 10
3.411596
 20
5.235449
 30
0.0
 10
3.103240
 20
4.595398
 30
0.0
 10
2.846824
 20
3.979024
 30
0.0
 10
2.657319
 20
3.516829
 30
0.0
 10
2.482558
 20
3.046703
 30
0.0
  0
LWPOLYLINE
  5
118
100
AcDbEntity
  8
Q
 62
7
100
AcDbPolyline
 90
39
 70
0
 10
3.653094
 20
0.925098
 30
0.0
 10
3.624848
 20
0.478707
 30
0.0
 10
3.363301
 20
0.206193
 30
0.0
 10
3.377534
 20
0.142778
 30
0.0
 10
3.426911
 20
-0.046763
 30
0.0
 10
3.483511
 20
-0.240311
 30
0.0
 10
3.522431
 20
-0.437923
 30
0.0
 10
3.518764
 20
-0.631584
 30
0.0
 10
3.366968
 20
-0.868622
 30
0.0
 10
3.123210
 20
-0.959554
 30
0.0
 10
2.854764
 20
-0.916007
 30
0.0
 10
2.642701
 20
-0.742271
 30
0.0
 10
2.565078
 20
-0.611800
 30
0.0
 10
2.423632
 20
-0.244290
 30
0.0
 10
2.268170
 20
0.103464
 30
0.0
 10
1.900862
 20
0.008581
 30
0.0
 10
1.565250
 20
0.004630
 30
0.0
 10
1.226080
 20
0.079757
 30
0.0
 10
0.855214
 20
0.221913
 30
0.0
 10
0.056775
 20
1.122879
 30
0.0
 10
0.000282
 20
2.711113
 30
0.0
 10
0.152186
 20
3.722654
 30
0.0
 10
0.473675
 20
4.730215
 30
0.0
 10
0.968307
 20
5.583655
 30
0.0
 10
1.639423
 20
6.132888
 30
0.0
 10
2.243482
 20
6.409268
 30
0.0
 10
2.826410
 20
6.472683
 30
0.0
 10
2.953625
 20
6.519956
 30
0.0
 10
3.282122
 20
6.812366
 30
0.0
 10
3.759072
 20
6.883486
 30
0.0
 10
4.257154
 20
6.764981
 30
0.0
 10
4.649258
 20
6.488375
 30
0.0
 10
5.023790
 20
5.690250
 30
0.0
 10
5.080282
 20
4.615548
 30
0.0
 10
4.871778
 20
3.438089
 30
0.0
 10
4.444420
 20
2.331778
 30
0.0
 10
4.048757
 20
1.644369
 30
0.0
 10
3.575257
 20
1.027855
 30
0.0
 10
3.653094
 20
0.925098
 30
0.0
  0
LWPOLYLINE
  5
119
100
AcDbEntity
  8
Q
 62
7
100
AcDbPolyline
 90
31
 70
0
 10
3.031247
 20
2.513585
 30
0.0
 10
3.246759
 20
3.106111
 30
0.0
 10
3.395213
 20
3.730471
 30
0.0
 10
3.441140
 20
4.362649
 30
0.0
 10
3.342171
 20
4.986896
 30
0.0
 10
2.879451
 20
4.777572
 30
0.0
 10
2.416731
 20
4.765719
 30
0.0
 10
2.271834
 20
4.599687
 30
0.0
 10
2.134054
 20
4.413985
 30
0.0
 10
2.028077
 20
4.259892
 30
0.0
 10
1.978592
 20
4.188885
 30
0.0
 10
1.748957
 20
3.781807
 30
0.0
 10
1.498191
 20
3.216770
 30
0.0
 10
1.293245
 20
2.580613
 30
0.0
 10
1.201391
 20
1.960345
 30
0.0
 10
1.289687
 20
1.434876
 30
0.0
 10
1.625407
 20
1.091214
 30
0.0
 10
1.575814
 20
1.328167
 30
0.0
 10
1.554684
 20
1.557388
 30
0.0
 10
1.547568
 20
1.581095
 30
0.0
 10
1.540453
 20
1.596899
 30
0.0
 10
1.540453
 20
1.604519
 30
0.0
 10
1.533553
 20
1.628508
 30
0.0
 10
1.540453
 20
1.628508
 30
0.0
 10
1.649988
 20
1.968304
 30
0.0
 10
1.900753
 20
2.149886
 30
0.0
 10
2.367139
 20
2.256735
 30
0.0
 10
2.826409
 20
2.078991
 30
0.0
 10
2.946509
 20
2.323904
 30
0.0
 10
3.031248
 20
2.513557
 30
0.0
 10
3.031247
 20
2.513585
 30
0.0
  0
LWPOLYLINE
  5
11a
100
AcDbEntity
  8
R
 62
7
100
AcDbPolyline
 90
51
 70
0
 10
1.517349
 20
0.395479
 30
0.0
 10
1.348877
 20
0.134678
 30
0.0
 10
1.042330
 20
0.008186
 30
0.0
 10
0.674638
 20
0.000284
 30
0.0
 10
0.326003
 20
0.095054
 30
0.0
 10
0.073119
 20
0.284622
 30
0.0
 10
0.000282
 20
0.561341
 30
0.0
 10
0.038747
 20
1.007732
 30
0.0
 10
0.203478
 20
1.699233
 30
0.0
 10
0.467819
 20
2.552701
 30
0.0
 10
0.804880
 20
3.481156
 30
0.0
 10
1.187888
 20
4.397786
 30
0.0
 10
1.594044
 20
5.211799
 30
0.0
 10
2.000201
 20
5.836046
 30
0.0
 10
2.375493
 20
6.187780
 30
0.0
 10
2.666724
 20
6.306172
 30
0.0
 10
3.049849
 20
6.424706
 30
0.0
 10
3.436832
 20
6.519589
 30
0.0
 10
3.739403
 20
6.574820
 30
0.0
 10
4.444274
 20
6.491987
 30
0.0
 10
4.884920
 20
6.108673
 30
0.0
 10
5.080282
 20
5.512055
 30
0.0
 10
5.057250
 20
4.793038
 30
0.0
 10
4.835115
 20
4.034368
 30
0.0
 10
4.429075
 20
3.319217
 30
0.0
 10
3.865904
 20
2.738375
 30
0.0
 10
3.172374
 20
2.378683
 30
0.0
 10
3.249069
 20
2.244374
 30
0.0
 10
3.490378
 20
1.896732
 30
0.0
 10
3.773893
 20
1.509580
 30
0.0
 10
4.030634
 20
1.114440
 30
0.0
 10
4.199223
 20
0.743064
 30
0.0
 10
4.214540
 20
0.423024
 30
0.0
 10
4.007603
 20
0.182006
 30
0.0
 10
3.766294
 20
0.079278
 30
0.0
 10
3.613021
 20
0.106935
 30
0.0
 10
3.486637
 20
0.201818
 30
0.0
 10
3.318048
 20
0.300455
 30
0.0
 10
3.007644
 20
0.268987
 30
0.0
 10
2.789367
 20
0.363899
 30
0.0
 10
2.632352
 20
0.537776
 30
0.0
 10
2.513451
 20
0.750938
 30
0.0
 10
2.383327
 20
1.031524
 30
0.0
 10
2.272142
 20
1.300171
 30
0.0
 10
2.141901
 20
1.557021
 30
0.0
 10
1.961854
 20
1.809864
 30
0.0
 10
1.823896
 20
1.426550
 30
0.0
 10
1.720545
 20
1.098692
 30
0.0
 10
1.613219
 20
0.774701
 30
0.0
 10
1.479236
 20
0.395479
 30
0.0
 10
1.517349
 20
0.395479
 30
0.0
  0
LWPOLYLINE
  5
11b
100
AcDbEntity
  8
R
 62
7
100
AcDbPolyline
 90
21
 70
0
 10
3.065281
 20
4.994573
 30
0.0
 10
2.915749
 20
4.646818
 30
0.0
 10
2.842912
 20
4.465124
 30
0.0
 10
2.770192
 20
4.279422
 30
0.0
 10
2.628493
 20
3.927716
 30
0.0
 10
2.613059
 20
3.805204
 30
0.0
 10
2.590145
 20
3.682691
 30
0.0
 10
2.697472
 20
3.793378
 30
0.0
 10
2.827713
 20
3.856568
 30
0.0
 10
3.080597
 20
3.998836
 30
0.0
 10
3.287416
 20
4.156796
 30
0.0
 10
3.452147
 20
4.389883
 30
0.0
 10
3.593963
 20
4.749576
 30
0.0
 10
3.620737
 20
4.907648
 30
0.0
 10
3.658967
 20
5.061629
 30
0.0
 10
3.647509
 20
5.199918
 30
0.0
 10
3.517268
 20
5.310492
 30
0.0
 10
3.367852
 20
5.271066
 30
0.0
 10
3.237611
 20
5.164358
 30
0.0
 10
3.134143
 20
5.049804
 30
0.0
 10
3.065281
 20
4.994573
 30
0.0
  0
LWPOLYLINE
  5
11c
100
AcDbEntity
  8
S
 62
7
100
AcDbPolyline
 90
52
 70
0
 10
1.492916
 20
0.000284
 30
0.0
 10
0.780882
 20
0.099146
 30
0.0
 10
0.255369
 20
0.411340
 30
0.0
 10
0.000282
 20
0.873620
 30
0.0
 10
0.091625
 20
1.414894
 30
0.0
 10
0.301157
 20
1.608555
 30
0.0
 10
0.575302
 20
1.655940
 30
0.0
 10
0.887565
 20
1.616401
 30
0.0
 10
1.215052
 20
1.549232
 30
0.0
 10
1.527315
 20
1.509693
 30
0.0
 10
1.797626
 20
1.557191
 30
0.0
 10
2.247020
 20
1.762648
 30
0.0
 10
2.422152
 20
1.968106
 30
0.0
 10
2.391704
 20
2.165634
 30
0.0
 10
2.227961
 20
2.355287
 30
0.0
 10
2.003322
 20
2.544968
 30
0.0
 10
1.797626
 20
2.734509
 30
0.0
 10
1.199828
 20
3.410234
 30
0.0
 10
1.028531
 20
4.323025
 30
0.0
 10
1.165546
 20
4.990650
 30
0.0
 10
1.428302
 20
5.512168
 30
0.0
 10
1.774848
 20
5.899462
 30
0.0
 10
2.163231
 20
6.171976
 30
0.0
 10
2.589731
 20
6.381413
 30
0.0
 10
3.061903
 20
6.539485
 30
0.0
 10
3.606475
 20
6.606654
 30
0.0
 10
4.242506
 20
6.551310
 30
0.0
 10
4.607995
 20
6.401168
 30
0.0
 10
4.912588
 20
6.171976
 30
0.0
 10
5.080282
 20
5.875699
 30
0.0
 10
5.046000
 20
5.606938
 30
0.0
 10
4.874586
 20
5.405460
 30
0.0
 10
4.630888
 20
5.318507
 30
0.0
 10
4.623336
 20
5.144743
 30
0.0
 10
4.535712
 20
4.982691
 30
0.0
 10
4.322462
 20
4.852361
 30
0.0
 10
3.945468
 20
4.765549
 30
0.0
 10
3.442849
 20
4.777403
 30
0.0
 10
3.100021
 20
4.694458
 30
0.0
 10
2.920938
 20
4.477062
 30
0.0
 10
2.909550
 20
4.078056
 30
0.0
 10
3.035292
 20
3.864640
 30
0.0
 10
3.294214
 20
3.627573
 30
0.0
 10
3.606477
 20
3.343121
 30
0.0
 10
3.892128
 20
2.979591
 30
0.0
 10
4.067260
 20
2.513303
 30
0.0
 10
4.059589
 20
1.920665
 30
0.0
 10
3.827397
 20
1.284620
 30
0.0
 10
3.343836
 20
0.664240
 30
0.0
 10
2.574509
 20
0.189993
 30
0.0
 10
1.492918
 20
0.000340
 30
0.0
 10
1.492916
 20
0.000284
 30
0.0
  0
LWPOLYLINE
  5
11d
100
AcDbEntity
  8
T
 62
7
100
AcDbPolyline
 90
40
 70
0
 10
1.704099
 20
0.513956
 30
0.0
 10
1.482838
 20
0.182119
 30
0.0
 10
1.257598
 20
0.031864
 30
0.0
 10
1.028378
 20
0.000284
 30
0.0
 10
0.795421
 20
0.016088
 30
0.0
 10
0.352778
 20
0.324162
 30
0.0
 10
0.384490
 20
0.972285
 30
0.0
 10
0.653138
 20
2.082434
 30
0.0
 10
0.823033
 20
2.793606
 30
0.0
 10
0.937583
 20
3.259894
 30
0.0
 10
1.040316
 20
3.627291
 30
0.0
 10
1.178619
 20
4.038234
 30
0.0
 10
1.395901
 20
4.646790
 30
0.0
 10
0.858604
 20
4.709952
 30
0.0
 10
0.581997
 20
5.073397
 30
0.0
 10
0.574039
 20
5.353983
 30
0.0
 10
0.653139
 20
5.583062
 30
0.0
 10
0.823033
 20
5.788548
 30
0.0
 10
1.079745
 20
6.005944
 30
0.0
 10
1.561817
 20
6.262654
 30
0.0
 10
2.300600
 20
6.523455
 30
0.0
 10
3.142237
 20
6.724962
 30
0.0
 10
3.932387
 20
6.796223
 30
0.0
 10
4.307868
 20
6.752676
 30
0.0
 10
4.620046
 20
6.551085
 30
0.0
 10
4.742553
 20
6.274479
 30
0.0
 10
4.548784
 20
6.005944
 30
0.0
 10
4.414459
 20
5.796507
 30
0.0
 10
4.327522
 20
5.488292
 30
0.0
 10
4.189340
 20
5.192044
 30
0.0
 10
3.900796
 20
5.033830
 30
0.0
 10
3.703288
 20
4.970781
 30
0.0
 10
3.513618
 20
4.943124
 30
0.0
 10
3.367478
 20
4.919417
 30
0.0
 10
3.300315
 20
4.876011
 30
0.0
 10
2.960526
 20
3.860519
 30
0.0
 10
2.545736
 20
2.643633
 30
0.0
 10
2.107193
 20
1.454377
 30
0.0
 10
1.704099
 20
0.513984
 30
0.0
 10
1.704099
 20
0.513956
 30
0.0
  0
LWPOLYLINE
  5
11e
100
AcDbEntity
  8
T
 62
7
100
AcDbPolyline
 90
4
 70
0
 10
1.475000
 20
4.733715
 30
0.0
 10
1.459084
 20
4.729764
 30
0.0
 10
1.475000
 20
4.725812
 30
0.0
 10
1.475000
 20
4.733715
 30
0.0
  0
LWPOLYLINE
  5
11f
100
AcDbEntity
  8
U
 62
7
100
AcDbPolyline
 90
87
 70
0
 10
2.283522
 20
5.914956
 30
0.0
 10
2.269151
 20
5.590965
 30
0.0
 10
2.126537
 20
5.097076
 30
0.0
 10
1.912507
 20
4.488633
 30
0.0
 10
1.691292
 20
3.821008
 30
0.0
 10
1.527122
 20
3.145283
 30
0.0
 10
1.477262
 20
2.509098
 30
0.0
 10
1.616392
 20
2.390706
 30
0.0
 10
1.887468
 20
2.706738
 30
0.0
 10
2.240628
 20
3.319160
 30
0.0
 10
2.625903
 20
4.093635
 30
0.0
 10
2.993325
 20
4.891731
 30
0.0
 10
3.289440
 20
5.575188
 30
0.0
 10
3.424978
 20
5.918935
 30
0.0
 10
3.599707
 20
6.219304
 30
0.0
 10
3.842260
 20
6.393181
 30
0.0
 10
4.174083
 20
6.365524
 30
0.0
 10
4.441566
 20
6.571010
 30
0.0
 10
4.734088
 20
6.594716
 30
0.0
 10
4.973157
 20
6.448582
 30
0.0
 10
5.080281
 20
6.144233
 30
0.0
 10
5.037388
 20
5.800599
 30
0.0
 10
4.873327
 20
5.176352
 30
0.0
 10
4.623589
 20
4.311087
 30
0.0
 10
4.327474
 20
3.244202
 30
0.0
 10
4.024283
 20
2.015378
 30
0.0
 10
3.753208
 20
0.668050
 30
0.0
 10
3.556923
 20
0.249288
 30
0.0
 10
3.135939
 20
0.031864
 30
0.0
 10
2.697211
 20
0.047669
 30
0.0
 10
2.447473
 20
0.336213
 30
0.0
 10
2.436805
 20
0.450767
 30
0.0
 10
2.426137
 20
0.620777
 30
0.0
 10
2.379760
 20
0.423165
 30
0.0
 10
2.247706
 20
0.273023
 30
0.0
 10
2.072976
 20
0.158497
 30
0.0
 10
1.890953
 20
0.059607
 30
0.0
 10
1.377324
 20
0.000284
 30
0.0
 10
0.842250
 20
0.134621
 30
0.0
 10
0.382074
 20
0.450767
 30
0.0
 10
0.100330
 20
0.928992
 30
0.0
 10
0.000282
 20
2.031183
 30
0.0
 10
0.189382
 20
3.252048
 30
0.0
 10
0.542542
 20
4.453242
 30
0.0
 10
0.920742
 20
5.504210
 30
0.0
 10
0.984864
 20
5.658416
 30
0.0
 10
1.074025
 20
5.855943
 30
0.0
 10
1.170371
 20
6.041617
 30
0.0
 10
1.248863
 20
6.168109
 30
0.0
 10
1.284571
 20
6.215381
 30
0.0
 10
1.370139
 20
6.302447
 30
0.0
 10
1.398771
 20
6.322202
 30
0.0
 10
1.427185
 20
6.342240
 30
0.0
 10
1.462893
 20
6.357762
 30
0.0
 10
1.555647
 20
6.397330
 30
0.0
 10
1.655585
 20
6.421037
 30
0.0
 10
1.684108
 20
6.421037
 30
0.0
 10
1.698478
 20
6.421037
 30
0.0
 10
1.798199
 20
6.421037
 30
0.0
 10
1.998077
 20
6.365806
 30
0.0
 10
2.026600
 20
6.350001
 30
0.0
 10
2.055122
 20
6.326295
 30
0.0
 10
2.069494
 20
6.318392
 30
0.0
 10
2.126539
 20
6.263162
 30
0.0
 10
2.147877
 20
6.239455
 30
0.0
 10
2.169216
 20
6.207846
 30
0.0
 10
2.172809
 20
6.199944
 30
0.0
 10
2.176401
 20
6.192042
 30
0.0
 10
2.183587
 20
6.184139
 30
0.0
 10
2.183587
 20
6.176237
 30
0.0
 10
2.183587
 20
6.168617
 30
0.0
 10
2.190772
 20
6.160715
 30
0.0
 10
2.190772
 20
6.152813
 30
0.0
 10
2.204926
 20
6.144910
 30
0.0
 10
2.204926
 20
6.137290
 30
0.0
 10
2.208518
 20
6.129388
 30
0.0
 10
2.212111
 20
6.121486
 30
0.0
 10
2.219296
 20
6.113584
 30
0.0
 10
2.219296
 20
6.105964
 30
0.0
 10
2.226262
 20
6.090159
 30
0.0
 10
2.226262
 20
6.082257
 30
0.0
 10
2.226262
 20
6.074355
 30
0.0
 10
2.229854
 20
6.066735
 30
0.0
 10
2.233447
 20
6.058833
 30
0.0
 10
2.233447
 20
6.043028
 30
0.0
 10
2.240632
 20
6.043028
 30
0.0
 10
2.283522
 20
5.914956
 30
0.0
  0
LWPOLYLINE
  5
120
100
AcDbEntity
  8
U
 62
7
100
AcDbPolyline
 90
5
 70
0
 10
2.418950
 20
0.826066
 30
0.0
 10
2.415358
 20
0.849772
 30
0.0
 10
2.411765
 20
0.786583
 30
0.0
 10
2.418950
 20
0.818164
 30
0.0
 10
2.418950
 20
0.826066
 30
0.0
  0
LWPOLYLINE
  5
121
100
AcDbEntity
  8
V
 62
7
100
AcDbPolyline
 90
38
 70
0
 10
1.310135
 20
6.053442
 30
0.0
 10
1.440480
 20
5.646365
 30
0.0
 10
1.535255
 20
5.037922
 30
0.0
 10
1.594579
 20
4.303128
 30
0.0
 10
1.618333
 20
3.516716
 30
0.0
 10
1.815840
 20
3.398296
 30
0.0
 10
2.104264
 20
4.054124
 30
0.0
 10
2.444174
 20
4.749491
 30
0.0
 10
2.799760
 20
5.429082
 30
0.0
 10
3.127733
 20
6.037525
 30
0.0
 10
3.380465
 20
6.282522
 30
0.0
 10
3.740030
 20
6.393097
 30
0.0
 10
4.139144
 20
6.377292
 30
0.0
 10
4.510525
 20
6.250941
 30
0.0
 10
4.834640
 20
5.926837
 30
0.0
 10
4.866111
 20
5.555574
 30
0.0
 10
4.589624
 20
5.089286
 30
0.0
 10
3.969249
 20
4.042298
 30
0.0
 10
3.372628
 20
2.935987
 30
0.0
 10
2.787823
 20
1.837522
 30
0.0
 10
2.203138
 20
0.814297
 30
0.0
 10
1.981877
 20
0.470409
 30
0.0
 10
1.697433
 20
0.158356
 30
0.0
 10
1.397072
 20
0.020039
 30
0.0
 10
1.065120
 20
0.000284
 30
0.0
 10
0.646351
 20
0.071404
 30
0.0
 10
0.405315
 20
0.225497
 30
0.0
 10
0.294745
 20
0.423137
 30
0.0
 10
0.267132
 20
0.616657
 30
0.0
 10
0.259174
 20
1.869244
 30
0.0
 10
0.239400
 20
3.181013
 30
0.0
 10
0.219625
 20
4.484936
 30
0.0
 10
0.211667
 20
5.721464
 30
0.0
 10
0.365766
 20
6.049576
 30
0.0
 10
0.717493
 20
6.243208
 30
0.0
 10
1.088874
 20
6.259013
 30
0.0
 10
1.310135
 20
6.053555
 30
0.0
 10
1.310135
 20
6.053442
 30
0.0
  0
LWPOLYLINE
  5
122
100
AcDbEntity
  8
W
 62
7
100
AcDbPolyline
 90
71
 70
0
 10
5.080282
 20
5.875699
 30
0.0
 10
5.053257
 20
5.780787
 30
0.0
 10
5.020389
 20
5.693863
 30
0.0
 10
5.044310
 20
5.693863
 30
0.0
 10
4.858789
 20
5.318507
 30
0.0
 10
4.697189
 20
4.887808
 30
0.0
 10
4.547640
 20
4.449263
 30
0.0
 10
4.404117
 20
4.050144
 30
0.0
 10
4.042023
 20
3.086101
 30
0.0
 10
3.686046
 20
2.129932
 30
0.0
 10
3.291175
 20
1.205344
 30
0.0
 10
2.806557
 20
0.344030
 30
0.0
 10
2.537224
 20
0.083229
 30
0.0
 10
2.211101
 20
0.000284
 30
0.0
 10
1.897031
 20
0.106992
 30
0.0
 10
1.663669
 20
0.423137
 30
0.0
 10
1.538041
 20
0.920892
 30
0.0
 10
1.358546
 20
0.699743
 30
0.0
 10
1.146092
 20
0.427116
 30
0.0
 10
0.918665
 20
0.186099
 30
0.0
 10
0.694433
 20
0.067424
 30
0.0
 10
0.490926
 20
0.071375
 30
0.0
 10
0.299380
 20
0.130698
 30
0.0
 10
0.140884
 20
0.269016
 30
0.0
 10
0.036163
 20
0.525838
 30
0.0
 10
0.000282
 20
1.758528
 30
0.0
 10
0.051136
 20
2.904378
 30
0.0
 10
0.140884
 20
3.975101
 30
0.0
 10
0.233735
 20
4.990622
 30
0.0
 10
0.389218
 20
5.618707
 30
0.0
 10
0.613633
 20
6.002021
 30
0.0
 10
0.861876
 20
6.171919
 30
0.0
 10
1.086291
 20
6.160066
 30
0.0
 10
1.238852
 20
6.001965
 30
0.0
 10
1.274733
 20
5.733318
 30
0.0
 10
1.277746
 20
5.263079
 30
0.0
 10
1.265785
 20
4.927263
 30
0.0
 10
1.253825
 20
4.634852
 30
0.0
 10
1.256838
 20
4.295057
 30
0.0
 10
1.247891
 20
4.109383
 30
0.0
 10
1.235931
 20
3.880162
 30
0.0
 10
1.241865
 20
3.706285
 30
0.0
 10
1.286785
 20
3.678627
 30
0.0
 10
1.370506
 20
3.903868
 30
0.0
 10
1.448293
 20
4.089542
 30
0.0
 10
1.553014
 20
4.298980
 30
0.0
 10
1.723562
 20
4.603215
 30
0.0
 10
1.891096
 20
4.749350
 30
0.0
 10
2.019738
 20
4.757252
 30
0.0
 10
2.154313
 20
4.694062
 30
0.0
 10
2.345859
 20
4.618822
 30
0.0
 10
2.447567
 20
4.429282
 30
0.0
 10
2.483448
 20
4.385876
 30
0.0
 10
2.513303
 20
4.342470
 30
0.0
 10
2.540235
 20
4.215978
 30
0.0
 10
2.585064
 20
4.014358
 30
0.0
 10
2.626970
 20
3.808901
 30
0.0
 10
2.650982
 20
3.678570
 30
0.0
 10
2.902238
 20
4.630760
 30
0.0
 10
3.105745
 20
5.322176
 30
0.0
 10
3.261319
 20
5.780477
 30
0.0
 10
3.380830
 20
6.041420
 30
0.0
 10
3.461631
 20
6.104609
 30
0.0
 10
3.518510
 20
6.100658
 30
0.0
 10
3.593376
 20
6.104609
 30
0.0
 10
3.733977
 20
6.199379
 30
0.0
 10
4.095980
 20
6.468027
 30
0.0
 10
4.499798
 20
6.539175
 30
0.0
 10
4.855775
 20
6.365411
 30
0.0
 10
5.080281
 20
5.899123
 30
0.0
 10
5.080282
 20
5.875699
 30
0.0
  0
LWPOLYLINE
  5
123
100
AcDbEntity
  8
W
 62
7
100
AcDbPolyline
 90
6
 70
0
 10
2.794506
 20
0.367680
 30
0.0
 10
2.797520
 20
0.363729
 30
0.0
 10
2.800534
 20
0.387436
 30
0.0
 10
2.800534
 20
0.399289
 30
0.0
 10
2.794509
 20
0.367709
 30
0.0
 10
2.794506
 20
0.367680
 30
0.0
  0
LWPOLYLINE
  5
124
100
AcDbEntity
  8
X
 62
7
100
AcDbPolyline
 90
68
 70
0
 10
2.114664
 20
1.746731
 30
0.0
 10
1.871498
 20
1.308186
 30
0.0
 10
1.651937
 20
0.869641
 30
0.0
 10
1.415574
 20
0.474502
 30
0.0
 10
1.128392
 20
0.166202
 30
0.0
 10
0.692775
 20
0.000284
 30
0.0
 10
0.229945
 20
0.039823
 30
0.0
 10
0.061100
 20
0.221659
 30
0.0
 10
0.000282
 20
0.458725
 30
0.0
 10
0.017084
 20
0.715548
 30
0.0
 10
0.077902
 20
0.956594
 30
0.0
 10
0.159026
 20
1.150113
 30
0.0
 10
0.229945
 20
1.256709
 30
0.0
 10
0.267157
 20
1.296248
 30
0.0
 10
0.273857
 20
1.304150
 30
0.0
 10
0.294061
 20
1.347697
 30
0.0
 10
0.375185
 20
1.497811
 30
0.0
 10
0.564337
 20
1.829648
 30
0.0
 10
0.912336
 20
2.410574
 30
0.0
 10
1.054071
 20
2.604122
 30
0.0
 10
1.266932
 20
2.900484
 30
0.0
 10
1.479793
 20
3.196761
 30
0.0
 10
1.621528
 20
3.382435
 30
0.0
 10
1.415471
 20
3.959297
 30
0.0
 10
1.280436
 20
4.453186
 30
0.0
 10
1.202816
 20
5.002418
 30
0.0
 10
1.162203
 20
5.737353
 30
0.0
 10
1.165501
 20
5.982350
 30
0.0
 10
1.297238
 20
6.243039
 30
0.0
 10
1.506697
 20
6.464301
 30
0.0
 10
1.746564
 20
6.598639
 30
0.0
 10
1.966125
 20
6.598639
 30
0.0
 10
2.114664
 20
6.408958
 30
0.0
 10
2.314021
 20
5.575273
 30
0.0
 10
2.465961
 20
4.710008
 30
0.0
 10
2.793653
 20
5.211743
 30
0.0
 10
3.148353
 20
5.760975
 30
0.0
 10
3.121242
 20
5.994176
 30
0.0
 10
3.202367
 20
6.274648
 30
0.0
 10
3.567064
 20
6.634312
 30
0.0
 10
4.006186
 20
6.883063
 30
0.0
 10
4.394696
 20
6.942414
 30
0.0
 10
4.779803
 20
6.867286
 30
0.0
 10
5.046575
 20
6.622374
 30
0.0
 10
5.080282
 20
6.179850
 30
0.0
 10
4.803409
 20
5.666205
 30
0.0
 10
4.425104
 20
5.148666
 30
0.0
 10
4.019793
 20
4.646818
 30
0.0
 10
3.654889
 20
4.180672
 30
0.0
 10
3.391519
 20
3.757818
 30
0.0
 10
3.134746
 20
3.327232
 30
0.0
 10
3.306993
 20
2.671263
 30
0.0
 10
3.536656
 20
1.959978
 30
0.0
 10
3.742713
 20
1.236981
 30
0.0
 10
3.844144
 20
0.537748
 30
0.0
 10
3.763123
 20
0.387521
 30
0.0
 10
3.651590
 20
0.347981
 30
0.0
 10
3.546861
 20
0.344030
 30
0.0
 10
3.492847
 20
0.300737
 30
0.0
 10
3.486147
 20
0.142524
 30
0.0
 10
3.344205
 20
0.035815
 30
0.0
 10
3.124644
 20
0.004235
 30
0.0
 10
2.884880
 20
0.063445
 30
0.0
 10
2.634807
 20
0.363786
 30
0.0
 10
2.422050
 20
0.778709
 30
0.0
 10
2.249802
 20
1.256793
 30
0.0
 10
2.114664
 20
1.746703
 30
0.0
 10
2.114664
 20
1.746731
 30
0.0
  0
LWPOLYLINE
  5
125
100
AcDbEntity
  8
Y
 62
7
100
AcDbPolyline
 90
47
 70
0
 10
2.305872
 20
6.152220
 30
0.0
 10
2.463829
 20
5.638434
 30
0.0
 10
2.645661
 20
5.022146
 30
0.0
 10
2.669295
 20
5.053755
 30
0.0
 10
2.957718
 20
5.496279
 30
0.0
 10
3.277733
 20
5.978343
 30
0.0
 10
3.621502
 20
6.428713
 30
0.0
 10
3.988904
 20
6.784285
 30
0.0
 10
4.269490
 20
6.851567
 30
0.0
 10
4.577688
 20
6.835762
 30
0.0
 10
4.822703
 20
6.689486
 30
0.0
 10
4.897824
 20
6.365382
 30
0.0
 10
4.767358
 20
5.851823
 30
0.0
 10
4.478934
 20
5.318394
 30
0.0
 10
4.139145
 20
4.804835
 30
0.0
 10
3.854580
 20
4.358218
 30
0.0
 10
3.376607
 20
3.508870
 30
0.0
 10
2.930106
 20
2.718592
 30
0.0
 10
2.523154
 20
1.912537
 30
0.0
 10
2.163589
 20
1.015550
 30
0.0
 10
2.226893
 20
0.980103
 30
0.0
 10
2.329625
 20
0.837806
 30
0.0
 10
2.384850
 20
0.640307
 30
0.0
 10
2.305871
 20
0.438716
 30
0.0
 10
1.863349
 20
0.126663
 30
0.0
 10
1.365481
 20
0.000284
 30
0.0
 10
0.879550
 20
0.031864
 30
0.0
 10
0.480436
 20
0.182006
 30
0.0
 10
0.243258
 20
0.419045
 30
0.0
 10
0.235541
 20
0.715322
 30
0.0
 10
0.211667
 20
0.715322
 30
0.0
 10
0.606802
 20
1.564895
 30
0.0
 10
1.065120
 20
2.390621
 30
0.0
 10
1.420826
 20
3.022940
 30
0.0
 10
1.294340
 20
3.062366
 30
0.0
 10
1.203424
 20
3.212480
 30
0.0
 10
1.152057
 20
3.433743
 30
0.0
 10
1.136261
 20
3.686614
 30
0.0
 10
1.049445
 20
4.567683
 30
0.0
 10
1.025570
 20
5.551482
 30
0.0
 10
1.096832
 20
5.895228
 30
0.0
 10
1.302298
 20
6.199464
 30
0.0
 10
1.582884
 20
6.420726
 30
0.0
 10
1.883124
 20
6.519589
 30
0.0
 10
2.143814
 20
6.444602
 30
0.0
 10
2.305871
 20
6.152192
 30
0.0
 10
2.305872
 20
6.152220
 30
0.0
  0
LWPOLYLINE
  5
126
100
AcDbEntity
  8
Z
 62
7
100
AcDbPolyline
 90
51
 70
0
 10
3.713165
 20
1.564952
 30
0.0
 10
4.171483
 20
1.406879
 30
0.0
 10
4.246483
 20
1.027544
 30
0.0
 10
4.025222
 20
0.604804
 30
0.0
 10
3.586558
 20
0.316260
 30
0.0
 10
3.009832
 20
0.134678
 30
0.0
 10
2.334111
 20
0.027941
 30
0.0
 10
1.630777
 20
0.000284
 30
0.0
 10
0.978931
 20
0.047669
 30
0.0
 10
0.654937
 20
0.122909
 30
0.0
 10
0.374351
 20
0.280869
 30
0.0
 10
0.184681
 20
0.565292
 30
0.0
 10
0.141393
 20
1.019755
 30
0.0
 10
0.176843
 20
1.244884
 30
0.0
 10
0.263780
 20
1.446362
 30
0.0
 10
0.409921
 20
1.679562
 30
0.0
 10
0.623224
 20
1.991615
 30
0.0
 10
1.180417
 20
2.726550
 30
0.0
 10
1.721693
 20
3.350910
 30
0.0
 10
2.270927
 20
3.967312
 30
0.0
 10
2.859711
 20
4.686301
 30
0.0
 10
2.962444
 20
4.828598
 30
0.0
 10
3.080852
 20
5.073623
 30
0.0
 10
2.369681
 20
4.998496
 30
0.0
 10
1.634877
 20
5.097245
 30
0.0
 10
1.405537
 20
5.223737
 30
0.0
 10
1.255417
 20
5.448979
 30
0.0
 10
1.239621
 20
5.733402
 30
0.0
 10
1.413495
 20
6.029792
 30
0.0
 10
1.911363
 20
6.401055
 30
0.0
 10
2.559351
 20
6.654039
 30
0.0
 10
3.278480
 20
6.784370
 30
0.0
 10
3.981814
 20
6.796223
 30
0.0
 10
4.179321
 20
6.721095
 30
0.0
 10
4.337279
 20
6.582806
 30
0.0
 10
4.345237
 20
6.432805
 30
0.0
 10
4.475703
 20
6.401084
 30
0.0
 10
4.605928
 20
6.369616
 30
0.0
 10
4.716739
 20
6.306313
 30
0.0
 10
4.815493
 20
6.195739
 30
0.0
 10
4.886514
 20
6.010036
 30
0.0
 10
4.914126
 20
5.721634
 30
0.0
 10
4.736514
 20
4.872032
 30
0.0
 10
4.321604
 20
4.030389
 30
0.0
 10
3.796003
 20
3.252048
 30
0.0
 10
3.294277
 20
2.600086
 30
0.0
 10
3.005853
 20
2.224844
 30
0.0
 10
2.835959
 20
1.964042
 30
0.0
 10
2.784592
 20
1.782319
 30
0.0
 10
2.851754
 20
1.651876
 30
0.0
 10
3.713165
 20
1.564952
 30
0.0
  0
LWPOLYLINE
  5
127
100
AcDbEntity
  8
a_
 62
7
100
AcDbPolyline
 90
39
 70
0
 10
3.351706
 20
4.176806
 30
0.0
 10
3.553193
 20
4.137266
 30
0.0
 10
3.790250
 20
4.066118
 30
0.0
 10
3.987878
 20
3.939626
 30
0.0
 10
4.070835
 20
3.741986
 30
0.0
 10
4.086631
 20
3.738035
 30
0.0
 10
4.102427
 20
3.734084
 30
0.0
 10
4.118102
 20
3.726181
 30
0.0
 10
4.319709
 20
3.730132
 30
0.0
 10
4.458012
 20
3.603640
 30
0.0
 10
4.544949
 20
3.406141
 30
0.0
 10
4.592216
 20
3.196563
 30
0.0
 10
4.564603
 20
2.603925
 30
0.0
 10
4.477666
 20
1.865152
 30
0.0
 10
4.378913
 20
1.122371
 30
0.0
 10
4.315850
 20
0.525753
 30
0.0
 10
4.224814
 20
0.280756
 30
0.0
 10
3.979919
 20
0.142439
 30
0.0
 10
3.663883
 20
0.102900
 30
0.0
 10
3.355685
 20
0.154264
 30
0.0
 10
3.138282
 20
0.284735
 30
0.0
 10
3.091015
 20
0.494172
 30
0.0
 10
2.964408
 20
0.324162
 30
0.0
 10
2.743268
 20
0.193944
 30
0.0
 10
2.190054
 20
0.031864
 30
0.0
 10
1.510475
 20
0.000284
 30
0.0
 10
0.890099
 20
0.166202
 30
0.0
 10
0.514739
 20
0.596901
 30
0.0
 10
0.451556
 20
0.983969
 30
0.0
 10
0.463372
 20
1.489796
 30
0.0
 10
0.566105
 20
2.043008
 30
0.0
 10
0.775429
 20
2.572457
 30
0.0
 10
1.131135
 20
3.062366
 30
0.0
 10
1.632862
 20
3.520695
 30
0.0
 10
2.205850
 20
3.900030
 30
0.0
 10
2.790534
 20
4.137097
 30
0.0
 10
3.071120
 20
4.192441
 30
0.0
 10
3.351706
 20
4.176636
 30
0.0
 10
3.351706
 20
4.176806
 30
0.0
  0
LWPOLYLINE
  5
128
100
AcDbEntity
  8
a_
 62
7
100
AcDbPolyline
 90
16
 70
0
 10
2.600986
 20
1.632121
 30
0.0
 10
2.660310
 20
1.770551
 30
0.0
 10
2.683943
 20
1.861342
 30
0.0
 10
2.715535
 20
1.999630
 30
0.0
 10
2.798493
 20
2.288062
 30
0.0
 10
2.241421
 20
1.995792
 30
0.0
 10
1.818673
 20
1.644059
 30
0.0
 10
1.648778
 20
1.312109
 30
0.0
 10
1.865940
 20
1.071176
 30
0.0
 10
2.193913
 20
1.051420
 30
0.0
 10
2.391541
 20
1.185730
 30
0.0
 10
2.522007
 20
1.426776
 30
0.0
 10
2.656210
 20
1.719186
 30
0.0
 10
2.608823
 20
1.644059
 30
0.0
 10
2.600986
 20
1.632205
 30
0.0
 10
2.600986
 20
1.632121
 30
0.0
  0
LWPOLYLINE
  5
129
100
AcDbEntity
  8
b_
 62
7
100
AcDbPolyline
 90
44
 70
0
 10
1.485405
 20
0.000284
 30
0.0
 10
0.999594
 20
0.039823
 30
0.0
 10
0.659805
 20
0.245281
 30
0.0
 10
0.493889
 20
0.593035
 30
0.0
 10
0.537177
 20
1.051223
 30
0.0
 10
0.790029
 20
2.280046
 30
0.0
 10
1.121981
 20
3.540451
 30
0.0
 10
1.505300
 20
4.702106
 30
0.0
 10
1.912252
 20
5.638519
 30
0.0
 10
2.319204
 20
6.227291
 30
0.0
 10
2.694564
 20
6.345824
 30
0.0
 10
2.860601
 20
6.642101
 30
0.0
 10
3.121291
 20
6.768565
 30
0.0
 10
3.397777
 20
6.721180
 30
0.0
 10
3.603243
 20
6.488121
 30
0.0
 10
3.670525
 20
6.144346
 30
0.0
 10
3.599384
 20
5.828314
 30
0.0
 10
3.457102
 20
5.523965
 30
0.0
 10
3.303003
 20
5.223737
 30
0.0
 10
2.931621
 20
4.318792
 30
0.0
 10
2.583873
 20
3.422059
 30
0.0
 10
2.655015
 20
3.469303
 30
0.0
 10
3.208107
 20
3.718307
 30
0.0
 10
3.765300
 20
3.773651
 30
0.0
 10
4.239414
 20
3.639342
 30
0.0
 10
4.535796
 20
3.327034
 30
0.0
 10
4.626712
 20
2.706766
 30
0.0
 10
4.488408
 20
1.964014
 30
0.0
 10
4.168393
 20
1.217282
 30
0.0
 10
3.721892
 20
0.585076
 30
0.0
 10
3.200270
 20
0.182119
 30
0.0
 10
2.655015
 20
0.126634
 30
0.0
 10
2.461366
 20
0.146390
 30
0.0
 10
2.291471
 20
0.229363
 30
0.0
 10
2.145330
 20
0.332092
 30
0.0
 10
2.022943
 20
0.419017
 30
0.0
 10
2.022943
 20
0.355827
 30
0.0
 10
1.987372
 20
0.324134
 30
0.0
 10
1.924189
 20
0.268790
 30
0.0
 10
1.856906
 20
0.209580
 30
0.0
 10
1.825194
 20
0.174020
 30
0.0
 10
1.517237
 20
0.039682
 30
0.0
 10
1.524954
 20
0.031780
 30
0.0
 10
1.485405
 20
0.000284
 30
0.0
  0
LWPOLYLINE
  5
12a
100
AcDbEntity
  8
b_
 62
7
100
AcDbPolyline
 90
13
 70
0
 10
2.362733
 20
1.517623
 30
0.0
 10
2.251921
 20
1.130330
 30
0.0
 10
2.236125
 20
0.924872
 30
0.0
 10
2.429774
 20
1.153980
 30
0.0
 10
2.718198
 20
1.517623
 30
0.0
 10
3.030375
 20
2.011399
 30
0.0
 10
2.979129
 20
2.402672
 30
0.0
 10
2.856501
 20
2.446078
 30
0.0
 10
2.726156
 20
2.331411
 30
0.0
 10
2.603648
 20
2.121974
 30
0.0
 10
2.492957
 20
1.877090
 30
0.0
 10
2.406020
 20
1.655827
 30
0.0
 10
2.362733
 20
1.517623
 30
0.0
  0
LWPOLYLINE
  5
12b
100
AcDbEntity
  8
c_
 62
7
100
AcDbPolyline
 90
34
 70
0
 10
3.917883
 20
4.299262
 30
0.0
 10
4.332793
 20
4.081979
 30
0.0
 10
4.415751
 20
3.702757
 30
0.0
 10
4.269489
 20
3.339226
 30
0.0
 10
3.996982
 20
3.169216
 30
0.0
 10
3.822988
 20
2.940108
 30
0.0
 10
3.562177
 20
2.853155
 30
0.0
 10
3.265916
 20
2.801791
 30
0.0
 10
2.985330
 20
2.671460
 30
0.0
 10
2.752252
 20
2.446219
 30
0.0
 10
2.606111
 20
2.240761
 30
0.0
 10
2.511216
 20
2.035275
 30
0.0
 10
2.440075
 20
1.810034
 30
0.0
 10
2.475646
 20
1.644115
 30
0.0
 10
2.610090
 20
1.486184
 30
0.0
 10
2.823394
 20
1.371488
 30
0.0
 10
3.096021
 20
1.335928
 30
0.0
 10
3.479219
 20
1.316173
 30
0.0
 10
3.712417
 20
1.189822
 30
0.0
 10
3.783559
 20
0.996161
 30
0.0
 10
3.680826
 20
0.775040
 30
0.0
 10
3.337057
 20
0.403523
 30
0.0
 10
2.874760
 20
0.150680
 30
0.0
 10
2.349280
 20
0.020321
 30
0.0
 10
1.823679
 20
0.000284
 30
0.0
 10
1.262628
 20
0.213728
 30
0.0
 10
0.855676
 20
0.727260
 30
0.0
 10
0.705556
 20
1.493775
 30
0.0
 10
0.907042
 20
2.457931
 30
0.0
 10
1.361502
 20
3.260007
 30
0.0
 10
2.021306
 20
3.884367
 30
0.0
 10
2.878618
 20
4.255743
 30
0.0
 10
3.917883
 20
4.299149
 30
0.0
 10
3.917883
 20
4.299262
 30
0.0
  0
LWPOLYLINE
  5
12c
100
AcDbEntity
  8
d_
 62
7
100
AcDbPolyline
 90
47
 70
0
 10
1.747430
 20
3.682804
 30
0.0
 10
2.062526
 20
3.805316
 30
0.0
 10
2.400607
 20
3.797414
 30
0.0
 10
2.677239
 20
3.678881
 30
0.0
 10
2.815731
 20
3.469331
 30
0.0
 10
2.869439
 20
3.627404
 30
0.0
 10
2.915525
 20
3.813078
 30
0.0
 10
2.973220
 20
4.069928
 30
0.0
 10
3.069262
 20
4.449376
 30
0.0
 10
3.215259
 20
4.982691
 30
0.0
 10
3.422822
 20
5.626835
 30
0.0
 10
3.668730
 20
6.215494
 30
0.0
 10
3.937741
 20
6.582891
 30
0.0
 10
4.333516
 20
6.713250
 30
0.0
 10
4.698568
 20
6.646081
 30
0.0
 10
4.952099
 20
6.452420
 30
0.0
 10
5.021286
 20
6.203556
 30
0.0
 10
5.040520
 20
6.061260
 30
0.0
 10
5.121199
 20
5.938888
 30
0.0
 10
5.201996
 20
5.816376
 30
0.0
 10
5.221111
 20
5.674220
 30
0.0
 10
4.809974
 20
4.382094
 30
0.0
 10
4.283446
 20
3.050541
 30
0.0
 10
3.795498
 20
1.742752
 30
0.0
 10
3.507373
 20
0.521915
 30
0.0
 10
3.384360
 20
0.249260
 30
0.0
 10
3.076887
 20
0.059607
 30
0.0
 10
2.673489
 20
0.000284
 30
0.0
 10
2.262234
 20
0.118930
 30
0.0
 10
2.262234
 20
0.166202
 30
0.0
 10
2.150948
 20
0.197896
 30
0.0
 10
2.100992
 20
0.229504
 30
0.0
 10
2.077890
 20
0.304632
 30
0.0
 10
2.062411
 20
0.474389
 30
0.0
 10
1.908792
 20
0.272910
 30
0.0
 10
1.724331
 20
0.158356
 30
0.0
 10
1.466930
 20
0.118930
 30
0.0
 10
1.101761
 20
0.142636
 30
0.0
 10
0.706103
 20
0.225610
 30
0.0
 10
0.398629
 20
0.395508
 30
0.0
 10
0.202676
 20
0.695736
 30
0.0
 10
0.141111
 20
1.169982
 30
0.0
 10
0.260254
 20
1.790222
 30
0.0
 10
0.575350
 20
2.513331
 30
0.0
 10
1.074907
 20
3.192922
 30
0.0
 10
1.747433
 20
3.682832
 30
0.0
 10
1.747430
 20
3.682804
 30
0.0
  0
LWPOLYLINE
  5
12d
100
AcDbEntity
  8
d_
 62
7
100
AcDbPolyline
 90
11
 70
0
 10
1.739690
 20
1.090847
 30
0.0
 10
1.954875
 20
1.075324
 30
0.0
 10
2.081641
 20
1.209634
 30
0.0
 10
2.181552
 20
1.478281
 30
0.0
 10
2.308435
 20
1.865349
 30
0.0
 10
2.339159
 20
2.023535
 30
0.0
 10
2.004948
 20
2.055144
 30
0.0
 10
1.762792
 20
1.810118
 30
0.0
 10
1.655141
 20
1.438742
 30
0.0
 10
1.739690
 20
1.090988
 30
0.0
 10
1.739690
 20
1.090847
 30
0.0
  0
LWPOLYLINE
  5
12e
100
AcDbEntity
  8
e_
 62
7
100
AcDbPolyline
 90
40
 70
0
 10
3.368039
 20
1.541189
 30
0.0
 10
3.178369
 20
1.477999
 30
0.0
 10
2.850517
 20
1.398892
 30
0.0
 10
2.467198
 20
1.323793
 30
0.0
 10
2.127288
 20
1.280500
 30
0.0
 10
2.222183
 20
1.169812
 30
0.0
 10
2.364586
 20
1.090706
 30
0.0
 10
2.676522
 20
1.134224
 30
0.0
 10
3.032108
 20
1.260716
 30
0.0
 10
3.395651
 20
1.327885
 30
0.0
 10
3.731462
 20
1.193434
 30
0.0
 10
3.834316
 20
1.027516
 30
0.0
 10
3.905336
 20
1.003809
 30
0.0
 10
3.976478
 20
0.980103
 30
0.0
 10
4.087168
 20
0.806338
 30
0.0
 10
4.051598
 20
0.498152
 30
0.0
 10
3.699871
 20
0.253126
 30
0.0
 10
3.146778
 20
0.087208
 30
0.0
 10
2.510727
 20
0.000284
 30
0.0
 10
1.902289
 20
0.004235
 30
0.0
 10
1.432033
 20
0.110943
 30
0.0
 10
0.977573
 20
0.395395
 30
0.0
 10
0.736537
 20
0.830073
 30
0.0
 10
0.677333
 20
1.359522
 30
0.0
 10
0.764270
 20
1.932405
 30
0.0
 10
0.961778
 20
2.489455
 30
0.0
 10
1.242243
 20
2.979506
 30
0.0
 10
1.589991
 20
3.437694
 30
0.0
 10
1.965351
 20
3.805232
 30
0.0
 10
2.419690
 20
4.077858
 30
0.0
 10
3.012333
 20
4.251594
 30
0.0
 10
3.526117
 20
4.291275
 30
0.0
 10
4.027844
 20
4.156937
 30
0.0
 10
4.375592
 20
3.753839
 30
0.0
 10
4.426958
 20
2.979506
 30
0.0
 10
4.288655
 20
2.438091
 30
0.0
 10
4.095006
 20
2.066715
 30
0.0
 10
3.798745
 20
1.790109
 30
0.0
 10
3.368039
 20
1.541245
 30
0.0
 10
3.368039
 20
1.541189
 30
0.0
  0
LWPOLYLINE
  5
12f
100
AcDbEntity
  8
e_
 62
7
100
AcDbPolyline
 90
10
 70
0
 10
3.012333
 20
2.837153
 30
0.0
 10
2.731868
 20
2.813446
 30
0.0
 10
2.514586
 20
2.639569
 30
0.0
 10
2.352649
 20
2.366943
 30
0.0
 10
2.245937
 20
2.046931
 30
0.0
 10
2.546298
 20
2.126010
 30
0.0
 10
2.810967
 20
2.351138
 30
0.0
 10
2.980862
 20
2.619786
 30
0.0
 10
3.012333
 20
2.837181
 30
0.0
 10
3.012333
 20
2.837153
 30
0.0
  0
LWPOLYLINE
  5
130
100
AcDbEntity
  8
f_
 62
7
100
AcDbPolyline
 90
59
 70
0
 10
1.196172
 20
0.596817
 30
0.0
 10
1.207868
 20
1.031608
 30
0.0
 10
1.267192
 20
1.667652
 30
0.0
 10
1.330496
 20
2.307704
 30
0.0
 10
1.362087
 20
2.746249
 30
0.0
 10
1.282988
 20
2.785789
 30
0.0
 10
1.219805
 20
2.825328
 30
0.0
 10
1.132868
 20
2.880672
 30
0.0
 10
1.089339
 20
2.943974
 30
0.0
 10
1.041952
 20
3.007164
 30
0.0
 10
0.959115
 20
3.070353
 30
0.0
 10
0.725916
 20
3.153298
 30
0.0
 10
0.635000
 20
3.386499
 30
0.0
 10
0.729775
 20
3.662992
 30
0.0
 10
1.053889
 20
3.884254
 30
0.0
 10
1.859835
 20
4.137238
 30
0.0
 10
1.998138
 20
4.674420
 30
0.0
 10
2.215420
 20
5.164442
 30
0.0
 10
2.456456
 20
5.591162
 30
0.0
 10
2.673739
 20
5.938916
 30
0.0
 10
3.100465
 20
6.432692
 30
0.0
 10
3.610150
 20
6.732920
 30
0.0
 10
4.147568
 20
6.863392
 30
0.0
 10
4.649294
 20
6.855490
 30
0.0
 10
5.048288
 20
6.736956
 30
0.0
 10
5.289324
 20
6.531386
 30
0.0
 10
5.459339
 20
5.934881
 30
0.0
 10
5.242057
 20
5.535649
 30
0.0
 10
5.076021
 20
5.448838
 30
0.0
 10
4.882372
 20
5.413249
 30
0.0
 10
4.700660
 20
5.468593
 30
0.0
 10
4.570195
 20
5.646337
 30
0.0
 10
4.428033
 20
5.709526
 30
0.0
 10
4.175180
 20
5.563363
 30
0.0
 10
3.886757
 20
5.274960
 30
0.0
 10
3.626066
 20
4.923340
 30
0.0
 10
3.460151
 20
4.583544
 30
0.0
 10
3.464009
 20
4.334681
 30
0.0
 10
3.914369
 20
4.437297
 30
0.0
 10
4.380645
 20
4.476977
 30
0.0
 10
4.479399
 20
4.346506
 30
0.0
 10
4.495195
 20
4.152845
 30
0.0
 10
4.435991
 20
3.947387
 30
0.0
 10
4.309504
 20
3.781469
 30
0.0
 10
4.115856
 20
3.536584
 30
0.0
 10
3.906411
 20
3.394288
 30
0.0
 10
3.617988
 20
3.295538
 30
0.0
 10
3.203319
 20
3.180984
 30
0.0
 10
3.060916
 20
2.734481
 30
0.0
 10
2.898979
 20
2.153667
 30
0.0
 10
2.737042
 20
1.533286
 30
0.0
 10
2.578964
 20
0.968249
 30
0.0
 10
2.432702
 20
0.545509
 30
0.0
 10
2.318274
 20
0.359694
 30
0.0
 10
1.919159
 20
0.004235
 30
0.0
 10
1.520045
 20
0.000284
 30
0.0
 10
1.239459
 20
0.237350
 30
0.0
 10
1.196172
 20
0.596788
 30
0.0
 10
1.196172
 20
0.596817
 30
0.0
  0
LWPOLYLINE
  5
131
100
AcDbEntity
  8
g_
 62
7
100
AcDbPolyline
 90
52
 70
0
 10
3.438498
 20
3.760274
 30
0.0
 10
3.738859
 20
3.578551
 30
0.0
 10
3.968078
 20
3.317749
 30
0.0
 10
4.090586
 20
3.475822
 30
0.0
 10
4.323543
 20
3.562746
 30
0.0
 10
4.600150
 20
3.302058
 30
0.0
 10
4.750391
 20
2.946486
 30
0.0
 10
4.746411
 20
2.555326
 30
0.0
 10
4.560600
 20
2.179970
 30
0.0
 10
4.560721
 20
2.116668
 30
0.0
 10
4.580375
 20
1.994155
 30
0.0
 10
4.600150
 20
1.871756
 30
0.0
 10
4.608109
 20
1.808566
 30
0.0
 10
4.588333
 20
1.026274
 30
0.0
 10
4.461967
 20
0.401914
 30
0.0
 10
4.264339
 20
-0.127535
 30
0.0
 10
4.031261
 20
-0.625403
 30
0.0
 10
3.501802
 20
-1.478758
 30
0.0
 10
2.810406
 20
-2.055705
 30
0.0
 10
1.968769
 20
-2.328332
 30
0.0
 10
0.988829
 20
-2.253233
 30
0.0
 10
0.819054
 20
-2.178105
 30
0.0
 10
0.641201
 20
-2.075376
 30
0.0
 10
0.483123
 20
-1.925262
 30
0.0
 10
0.364715
 20
-1.700021
 30
0.0
 10
0.352778
 20
-1.427507
 30
0.0
 10
0.475285
 20
-1.186461
 30
0.0
 10
0.732117
 20
-1.075773
 30
0.0
 10
1.131111
 20
-1.194307
 30
0.0
 10
1.403739
 20
-1.214062
 30
0.0
 10
1.628859
 20
-1.162698
 30
0.0
 10
1.830466
 20
-1.071766
 30
0.0
 10
2.039790
 20
-0.965170
 30
0.0
 10
2.395496
 20
-0.680719
 30
0.0
 10
2.672102
 20
-0.325147
 30
0.0
 10
2.869610
 20
0.002936
 30
0.0
 10
3.035525
 20
0.354444
 30
0.0
 10
2.766877
 20
0.129316
 30
0.0
 10
2.450720
 20
0.022607
 30
0.0
 10
2.103093
 20
-0.005050
 30
0.0
 10
1.731591
 20
0.006803
 30
0.0
 10
1.289189
 20
0.156804
 30
0.0
 10
0.996787
 20
0.528321
 30
0.0
 10
0.850525
 20
1.053791
 30
0.0
 10
0.850525
 20
1.658254
 30
0.0
 10
0.988829
 20
2.270677
 30
0.0
 10
1.265435
 20
2.827868
 30
0.0
 10
1.747508
 20
3.361296
 30
0.0
 10
2.304580
 20
3.693133
 30
0.0
 10
2.885405
 20
3.823492
 30
0.0
 10
3.438498
 20
3.760189
 30
0.0
 10
3.438498
 20
3.760274
 30
0.0
  0
LWPOLYLINE
  5
132
100
AcDbEntity
  8
g_
 62
7
100
AcDbPolyline
 90
12
 70
0
 10
3.003934
 20
1.524001
 30
0.0
 10
3.011892
 20
1.563569
 30
0.0
 10
2.932793
 20
1.591227
 30
0.0
 10
2.853935
 20
1.618884
 30
0.0
 10
2.514024
 20
1.599129
 30
0.0
 10
2.209805
 20
1.417434
 30
0.0
 10
2.004340
 20
1.176388
 30
0.0
 10
1.968649
 20
0.978748
 30
0.0
 10
2.166397
 20
0.895803
 30
0.0
 10
2.454821
 20
1.010357
 30
0.0
 10
2.759040
 20
1.243416
 30
0.0
 10
3.003934
 20
1.524001
 30
0.0
  0
LWPOLYLINE
  5
133
100
AcDbEntity
  8
h_
 62
7
100
AcDbPolyline
 90
68
 70
0
 10
2.798444
 20
3.524646
 30
0.0
 10
2.766732
 20
3.418079
 30
0.0
 10
2.735261
 20
3.319189
 30
0.0
 10
2.545471
 20
2.631667
 30
0.0
 10
2.715365
 20
2.817454
 30
0.0
 10
2.869585
 20
3.011002
 30
0.0
 10
3.252904
 20
3.323168
 30
0.0
 10
3.695426
 20
3.493066
 30
0.0
 10
4.165561
 20
3.461485
 30
0.0
 10
4.631717
 20
3.161229
 30
0.0
 10
4.849120
 20
2.722571
 30
0.0
 10
4.829345
 20
2.212878
 30
0.0
 10
4.714795
 20
1.687408
 30
0.0
 10
4.663308
 20
1.201365
 30
0.0
 10
4.667288
 20
1.007704
 30
0.0
 10
4.683084
 20
0.845765
 30
0.0
 10
4.710696
 20
0.679846
 30
0.0
 10
4.766042
 20
0.474502
 30
0.0
 10
4.647513
 20
0.114838
 30
0.0
 10
4.351252
 20
0.004122
 30
0.0
 10
3.975892
 20
0.075270
 30
0.0
 10
3.635981
 20
0.269044
 30
0.0
 10
3.462228
 20
0.438942
 30
0.0
 10
3.335741
 20
0.640420
 30
0.0
 10
3.268579
 20
0.984082
 30
0.0
 10
3.225171
 20
1.268506
 30
0.0
 10
3.213354
 20
1.521377
 30
0.0
 10
3.240967
 20
1.778199
 30
0.0
 10
2.932769
 20
1.604463
 30
0.0
 10
2.667978
 20
1.394998
 30
0.0
 10
2.438880
 20
1.110574
 30
0.0
 10
2.229556
 20
0.711568
 30
0.0
 10
2.170231
 20
0.427004
 30
0.0
 10
2.118865
 20
0.340079
 30
0.0
 10
2.024090
 20
0.316372
 30
0.0
 10
1.842258
 20
0.229561
 30
0.0
 10
1.755321
 20
0.182035
 30
0.0
 10
1.628834
 20
0.114894
 30
0.0
 10
1.510306
 20
0.055684
 30
0.0
 10
1.431327
 20
0.031977
 30
0.0
 10
0.980967
 20
0.000284
 30
0.0
 10
0.574015
 20
0.158243
 30
0.0
 10
0.301387
 20
0.462451
 30
0.0
 10
0.254000
 20
0.861569
 30
0.0
 10
0.510711
 20
1.849347
 30
0.0
 10
0.830847
 20
2.868706
 30
0.0
 10
1.186432
 20
3.840707
 30
0.0
 10
1.549976
 20
4.686301
 30
0.0
 10
1.723729
 20
5.029963
 30
0.0
 10
1.881808
 20
5.302590
 30
0.0
 10
2.039886
 20
5.567371
 30
0.0
 10
2.229556
 20
5.895228
 30
0.0
 10
2.269105
 20
5.958644
 30
0.0
 10
2.272964
 20
6.317969
 30
0.0
 10
2.525817
 20
6.562994
 30
0.0
 10
2.916973
 20
6.685507
 30
0.0
 10
3.339720
 20
6.689458
 30
0.0
 10
3.683489
 20
6.570925
 30
0.0
 10
3.841447
 20
6.322061
 30
0.0
 10
3.711222
 20
5.982266
 30
0.0
 10
3.545307
 20
5.583147
 30
0.0
 10
3.387228
 20
5.207792
 30
0.0
 10
3.272558
 20
4.939003
 30
0.0
 10
3.173805
 20
4.666518
 30
0.0
 10
3.031522
 20
4.231811
 30
0.0
 10
2.889240
 20
3.797273
 30
0.0
 10
2.798444
 20
3.524618
 30
0.0
 10
2.798444
 20
3.524646
 30
0.0
  0
LWPOLYLINE
  5
134
100
AcDbEntity
  8
i_
 62
7
100
AcDbPolyline
 90
30
 70
0
 10
2.141471
 20
4.145140
 30
0.0
 10
2.331262
 20
4.374135
 30
0.0
 10
2.635481
 20
4.504578
 30
0.0
 10
2.983108
 20
4.540167
 30
0.0
 10
3.307102
 20
4.476864
 30
0.0
 10
3.536321
 20
4.318763
 30
0.0
 10
3.603363
 20
4.066033
 30
0.0
 10
3.386202
 20
3.390337
 30
0.0
 10
3.133349
 20
2.568449
 30
0.0
 10
2.908108
 20
1.742752
 30
0.0
 10
2.773784
 20
1.055202
 30
0.0
 10
2.663093
 20
0.612790
 30
0.0
 10
2.528769
 20
0.379590
 30
0.0
 10
2.378649
 20
0.288686
 30
0.0
 10
2.228529
 20
0.268931
 30
0.0
 10
2.098063
 20
0.249175
 30
0.0
 10
1.999430
 20
0.162223
 30
0.0
 10
1.849189
 20
0.039851
 30
0.0
 10
1.608153
 20
0.000284
 30
0.0
 10
1.343484
 20
0.063586
 30
0.0
 10
1.114264
 20
0.237463
 30
0.0
 10
0.987778
 20
0.529761
 30
0.0
 10
1.027327
 20
0.952501
 30
0.0
 10
1.110285
 20
1.359579
 30
0.0
 10
1.252568
 20
1.904832
 30
0.0
 10
1.442238
 20
2.521234
 30
0.0
 10
1.663499
 20
3.141473
 30
0.0
 10
1.900556
 20
3.702531
 30
0.0
 10
2.141471
 20
4.145168
 30
0.0
 10
2.141471
 20
4.145140
 30
0.0
  0
LWPOLYLINE
  5
135
100
AcDbEntity
  8
i_
 62
7
100
AcDbPolyline
 90
13
 70
0
 10
3.595646
 20
5.322458
 30
0.0
 10
2.987087
 20
5.389627
 30
0.0
 10
2.726276
 20
5.682038
 30
0.0
 10
2.832988
 20
6.053414
 30
0.0
 10
3.319039
 20
6.349804
 30
0.0
 10
3.358589
 20
6.357706
 30
0.0
 10
3.587688
 20
6.373228
 30
0.0
 10
3.761562
 20
6.341648
 30
0.0
 10
3.990661
 20
6.258674
 30
0.0
 10
4.101352
 20
6.112540
 30
0.0
 10
4.121127
 20
5.717400
 30
0.0
 10
3.635196
 20
5.330220
 30
0.0
 10
3.595646
 20
5.322458
 30
0.0
  0
LWPOLYLINE
  5
136
100
AcDbEntity
  8
j_
 62
7
100
AcDbPolyline
 90
45
 70
0
 10
2.553961
 20
2.242596
 30
0.0
 10
2.681989
 20
2.748168
 30
0.0
 10
2.852771
 20
3.230232
 30
0.0
 10
3.120551
 20
3.656980
 30
0.0
 10
3.539571
 20
3.996748
 30
0.0
 10
3.753108
 20
4.119260
 30
0.0
 10
3.989740
 20
4.166646
 30
0.0
 10
4.187762
 20
4.135065
 30
0.0
 10
4.276943
 20
4.020398
 30
0.0
 10
4.343029
 20
3.830858
 30
0.0
 10
4.451633
 20
3.747771
 30
0.0
 10
4.560237
 20
3.645042
 30
0.0
 10
4.626324
 20
3.388333
 30
0.0
 10
4.393482
 20
2.542711
 30
0.0
 10
4.090764
 20
1.590493
 30
0.0
 10
3.718170
 20
0.630458
 30
0.0
 10
3.283516
 20
-0.250612
 30
0.0
 10
2.786803
 20
-0.957917
 30
0.0
 10
2.228030
 20
-1.400329
 30
0.0
 10
1.599263
 20
-1.570340
 30
0.0
 10
0.978312
 20
-1.530913
 30
0.0
 10
0.450569
 20
-1.313517
 30
0.0
 10
0.097398
 20
-0.965763
 30
0.0
 10
0.000282
 20
-0.531197
 30
0.0
 10
0.248757
 20
-0.041175
 30
0.0
 10
0.434936
 20
0.093163
 30
0.0
 10
0.632840
 20
0.112918
 30
0.0
 10
0.819137
 20
0.065533
 30
0.0
 10
0.978312
 20
-0.001748
 30
0.0
 10
1.094733
 20
-0.100385
 30
0.0
 10
1.156793
 20
-0.191289
 30
0.0
 10
1.199547
 20
-0.294018
 30
0.0
 10
1.265397
 20
-0.420397
 30
0.0
 10
1.335273
 20
-0.467895
 30
0.0
 10
1.405149
 20
-0.523126
 30
0.0
 10
1.436297
 20
-0.507321
 30
0.0
 10
1.467209
 20
-0.483615
 30
0.0
 10
1.637991
 20
-0.278129
 30
0.0
 10
1.855318
 20
0.176080
 30
0.0
 10
1.987372
 20
0.496204
 30
0.0
 10
2.204699
 20
1.072954
 30
0.0
 10
2.332726
 20
1.472044
 30
0.0
 10
2.429724
 20
1.819798
 30
0.0
 10
2.553961
 20
2.242680
 30
0.0
 10
2.553961
 20
2.242596
 30
0.0
  0
LWPOLYLINE
  5
137
100
AcDbEntity
  8
j_
 62
7
100
AcDbPolyline
 90
13
 70
0
 10
3.617264
 20
5.845952
 30
0.0
 10
3.943313
 20
6.237112
 30
0.0
 10
4.315908
 20
6.355646
 30
0.0
 10
4.669079
 20
6.268693
 30
0.0
 10
4.944556
 20
6.027675
 30
0.0
 10
5.080282
 20
5.695838
 30
0.0
 10
5.014314
 20
5.332280
 30
0.0
 10
4.765958
 20
5.071478
 30
0.0
 10
4.436118
 20
4.992484
 30
0.0
 10
4.090764
 20
5.059653
 30
0.0
 10
3.795744
 20
5.245355
 30
0.0
 10
3.613356
 20
5.517982
 30
0.0
 10
3.617264
 20
5.845952
 30
0.0
  0
LWPOLYLINE
  5
138
100
AcDbEntity
  8
k_
 62
7
100
AcDbPolyline
 90
63
 70
0
 10
2.200796
 20
6.839572
 30
0.0
 10
2.619685
 20
7.076611
 30
0.0
 10
3.093799
 20
7.001511
 30
0.0
 10
3.484955
 20
6.701255
 30
0.0
 10
3.662688
 20
6.254751
 30
0.0
 10
3.591547
 20
6.025672
 30
0.0
 10
3.745766
 20
5.859753
 30
0.0
 10
3.820887
 20
5.662000
 30
0.0
 10
3.729971
 20
5.346080
 30
0.0
 10
3.425751
 20
4.784910
 30
0.0
 10
3.042553
 20
4.125102
 30
0.0
 10
2.714460
 20
3.512821
 30
0.0
 10
2.904129
 20
3.552248
 30
0.0
 10
3.093799
 20
3.591674
 30
0.0
 10
3.334835
 20
3.650997
 30
0.0
 10
3.639055
 20
3.714187
 30
0.0
 10
3.943274
 20
3.745880
 30
0.0
 10
4.192268
 20
3.710320
 30
0.0
 10
4.476712
 20
3.548268
 30
0.0
 10
4.603199
 20
3.259837
 30
0.0
 10
4.417388
 20
3.018791
 30
0.0
 10
4.109189
 20
2.765948
 30
0.0
 10
3.773379
 20
2.536728
 30
0.0
 10
3.504730
 20
2.358871
 30
0.0
 10
2.817192
 20
1.869074
 30
0.0
 10
2.773784
 20
1.789996
 30
0.0
 10
2.738334
 20
1.703156
 30
0.0
 10
2.738334
 20
1.695254
 30
0.0
 10
2.769926
 20
1.663673
 30
0.0
 10
2.999025
 20
1.560831
 30
0.0
 10
3.259715
 20
1.454236
 30
0.0
 10
3.536322
 20
1.304122
 30
0.0
 10
3.820887
 20
1.070922
 30
0.0
 10
3.923499
 20
0.814212
 30
0.0
 10
3.872132
 20
0.502018
 30
0.0
 10
3.607463
 20
0.296560
 30
0.0
 10
3.078124
 20
0.351791
 30
0.0
 10
2.528890
 20
0.719301
 30
0.0
 10
1.900556
 20
1.339569
 30
0.0
 10
1.746457
 20
0.798295
 30
0.0
 10
1.584399
 20
0.257021
 30
0.0
 10
1.363259
 20
0.055514
 30
0.0
 10
1.031427
 20
0.000284
 30
0.0
 10
0.719250
 20
0.075298
 30
0.0
 10
0.557313
 20
0.264980
 30
0.0
 10
0.493889
 20
0.521802
 30
0.0
 10
0.537418
 20
0.715322
 30
0.0
 10
0.655946
 20
1.039313
 30
0.0
 10
0.810045
 20
1.687295
 30
0.0
 10
0.825962
 20
1.766402
 30
0.0
 10
0.648108
 20
1.960063
 30
0.0
 10
0.561171
 20
2.216885
 30
0.0
 10
0.576967
 20
2.493378
 30
0.0
 10
0.707312
 20
2.754180
 30
0.0
 10
0.889144
 20
2.821349
 30
0.0
 10
1.070736
 20
2.896476
 30
0.0
 10
1.157793
 20
3.287495
 30
0.0
 10
1.276322
 20
3.690480
 30
0.0
 10
1.398829
 20
4.093578
 30
0.0
 10
1.505541
 20
4.484738
 30
0.0
 10
1.841352
 20
5.666036
 30
0.0
 10
2.200796
 20
6.839629
 30
0.0
 10
2.200796
 20
6.839572
 30
0.0
  0
LWPOLYLINE
  5
139
100
AcDbEntity
  8
l_
 62
7
100
AcDbPolyline
 90
30
 70
0
 10
2.205826
 20
0.351763
 30
0.0
 10
1.897628
 20
0.134593
 30
0.0
 10
1.569654
 20
0.000284
 30
0.0
 10
1.304985
 20
0.004235
 30
0.0
 10
1.186456
 20
0.209580
 30
0.0
 10
1.087703
 20
0.300483
 30
0.0
 10
0.949399
 20
0.340023
 30
0.0
 10
0.846667
 20
0.442780
 30
0.0
 10
0.854625
 20
0.731183
 30
0.0
 10
1.131111
 20
1.786129
 30
0.0
 10
1.514429
 20
3.149263
 30
0.0
 10
2.083439
 20
4.717882
 30
0.0
 10
2.909039
 20
6.397161
 30
0.0
 10
3.035646
 20
6.582863
 30
0.0
 10
3.217358
 20
6.796166
 30
0.0
 10
3.493844
 20
6.942301
 30
0.0
 10
3.896816
 20
6.910833
 30
0.0
 10
3.944324
 20
6.725131
 30
0.0
 10
4.070690
 20
6.559100
 30
0.0
 10
4.193198
 20
6.385223
 30
0.0
 10
4.236606
 20
6.183744
 30
0.0
 10
3.794204
 20
5.073567
 30
0.0
 10
3.403048
 20
3.979081
 30
0.0
 10
3.051321
 20
2.880615
 30
0.0
 10
2.727448
 20
1.750569
 30
0.0
 10
2.600961
 20
1.252814
 30
0.0
 10
2.502207
 20
0.873479
 30
0.0
 10
2.387658
 20
0.581069
 30
0.0
 10
2.205826
 20
0.351848
 30
0.0
 10
2.205826
 20
0.351763
 30
0.0
  0
LWPOLYLINE
  5
13a
100
AcDbEntity
  8
m_
 62
7
100
AcDbPolyline
 90
69
 70
0
 10
1.065262
 20
3.962938
 30
0.0
 10
1.220985
 20
4.207963
 30
0.0
 10
1.539166
 20
4.302733
 30
0.0
 10
1.880032
 20
4.203984
 30
0.0
 10
2.104006
 20
3.868167
 30
0.0
 10
2.425358
 20
4.144660
 30
0.0
 10
2.779101
 20
4.318538
 30
0.0
 10
3.110160
 20
4.322489
 30
0.0
 10
3.376335
 20
4.097247
 30
0.0
 10
3.714031
 20
4.409413
 30
0.0
 10
4.109974
 20
4.602933
 30
0.0
 10
4.479963
 20
4.555548
 30
0.0
 10
4.798046
 20
4.373853
 30
0.0
 10
5.005874
 20
4.073597
 30
0.0
 10
5.080565
 20
3.674619
 30
0.0
 10
5.067588
 20
3.054238
 30
0.0
 10
4.992897
 20
2.327149
 30
0.0
 10
4.876006
 20
1.600173
 30
0.0
 10
4.742968
 20
0.975954
 30
0.0
 10
4.622908
 20
0.572969
 30
0.0
 10
4.499479
 20
0.426721
 30
0.0
 10
4.379319
 20
0.430672
 30
0.0
 10
4.281943
 20
0.450428
 30
0.0
 10
4.233403
 20
0.359637
 30
0.0
 10
4.061336
 20
0.205544
 30
0.0
 10
3.834092
 20
0.154179
 30
0.0
 10
3.597041
 20
0.205544
 30
0.0
 10
3.392581
 20
0.347812
 30
0.0
 10
3.265982
 20
0.573054
 30
0.0
 10
3.265982
 20
0.881268
 30
0.0
 10
3.395850
 20
1.414584
 30
0.0
 10
3.561379
 20
2.022998
 30
0.0
 10
3.739886
 20
2.635421
 30
0.0
 10
3.908684
 20
3.180674
 30
0.0
 10
3.739886
 20
2.884312
 30
0.0
 10
3.558110
 20
2.501111
 30
0.0
 10
3.386142
 20
2.121776
 30
0.0
 10
3.246566
 20
1.837212
 30
0.0
 10
3.064791
 20
1.414443
 30
0.0
 10
2.843986
 20
1.149916
 30
0.0
 10
2.652503
 20
1.055004
 30
0.0
 10
2.457751
 20
1.047102
 30
0.0
 10
2.282414
 20
1.118250
 30
0.0
 10
2.155914
 20
1.268364
 30
0.0
 10
2.116885
 20
1.394856
 30
0.0
 10
2.087761
 20
1.572713
 30
0.0
 10
2.087761
 20
1.872941
 30
0.0
 10
2.123423
 20
2.343123
 30
0.0
 10
1.987017
 20
2.058812
 30
0.0
 10
1.863687
 20
1.809921
 30
0.0
 10
1.753334
 20
1.533315
 30
0.0
 10
1.597612
 20
1.126266
 30
0.0
 10
1.493698
 20
0.818164
 30
0.0
 10
1.380076
 20
0.513956
 30
0.0
 10
1.198300
 20
0.241330
 30
0.0
 10
0.883388
 20
0.035731
 30
0.0
 10
0.662781
 20
0.000284
 30
0.0
 10
0.354407
 20
0.012137
 30
0.0
 10
0.091403
 20
0.102928
 30
0.0
 10
0.000564
 20
0.304434
 30
0.0
 10
0.136871
 20
0.944571
 30
0.0
 10
0.328354
 20
1.703241
 30
0.0
 10
0.526376
 20
2.493519
 30
0.0
 10
0.682098
 20
3.228454
 30
0.0
 10
0.763327
 20
3.520724
 30
0.0
 10
0.834750
 20
3.785504
 30
0.0
 10
0.922418
 20
3.955402
 30
0.0
 10
1.065263
 20
3.963304
 30
0.0
 10
1.065262
 20
3.962938
 30
0.0
  0
LWPOLYLINE
  5
13b
100
AcDbEntity
  8
n_
 62
7
100
AcDbPolyline
 90
57
 70
0
 10
0.961916
 20
3.607874
 30
0.0
 10
1.130509
 20
3.860717
 30
0.0
 10
1.233980
 20
3.975271
 30
0.0
 10
1.306818
 20
3.991075
 30
0.0
 10
1.383281
 20
3.955600
 30
0.0
 10
1.846853
 20
4.062195
 30
0.0
 10
2.072852
 20
3.959466
 30
0.0
 10
2.153407
 20
3.777772
 30
0.0
 10
2.164982
 20
3.655118
 30
0.0
 10
2.164982
 20
3.615832
 30
0.0
 10
2.570914
 20
3.931865
 30
0.0
 10
3.157131
 20
4.184708
 30
0.0
 10
3.800753
 20
4.330842
 30
0.0
 10
4.379371
 20
4.318989
 30
0.0
 10
4.877316
 20
4.022599
 30
0.0
 10
5.080282
 20
3.473367
 30
0.0
 10
5.038192
 20
2.754236
 30
0.0
 10
4.815935
 20
1.948181
 30
0.0
 10
4.651317
 20
1.564980
 30
0.0
 10
4.543989
 20
1.300312
 30
0.0
 10
4.425202
 20
1.063245
 30
0.0
 10
4.233693
 20
0.770835
 30
0.0
 10
3.854418
 20
0.407304
 30
0.0
 10
3.348639
 20
0.261170
 30
0.0
 10
2.938732
 20
0.340248
 30
0.0
 10
2.846836
 20
0.652443
 30
0.0
 10
3.138073
 20
1.545196
 30
0.0
 10
3.375530
 20
2.232746
 30
0.0
 10
3.440652
 20
2.572654
 30
0.0
 10
3.406162
 20
2.738545
 30
0.0
 10
3.302691
 20
2.770154
 30
0.0
 10
3.168589
 20
2.710830
 30
0.0
 10
3.042203
 20
2.604122
 30
0.0
 10
2.961647
 20
2.493435
 30
0.0
 10
2.827662
 20
2.335588
 30
0.0
 10
2.647611
 20
2.047157
 30
0.0
 10
2.440670
 20
1.675668
 30
0.0
 10
2.229987
 20
1.280528
 30
0.0
 10
2.038479
 20
0.921090
 30
0.0
 10
1.889060
 20
0.652443
 30
0.0
 10
1.770273
 20
0.498208
 30
0.0
 10
1.685977
 20
0.450823
 30
0.0
 10
1.628571
 20
0.423165
 30
0.0
 10
1.590223
 20
0.320295
 30
0.0
 10
1.475177
 20
0.162336
 30
0.0
 10
1.226263
 20
0.051648
 30
0.0
 10
0.900652
 20
0.000284
 30
0.0
 10
0.555750
 20
0.012137
 30
0.0
 10
0.241597
 20
0.099090
 30
0.0
 10
0.011857
 20
0.272938
 30
0.0
 10
0.000282
 20
0.660006
 30
0.0
 10
0.138243
 20
1.288346
 30
0.0
 10
0.364242
 20
2.027260
 30
0.0
 10
0.617131
 20
2.746249
 30
0.0
 10
0.835530
 20
3.315153
 30
0.0
 10
0.961916
 20
3.607676
 30
0.0
 10
0.961916
 20
3.607874
 30
0.0
  0
LWPOLYLINE
  5
13c
100
AcDbEntity
  8
o_
 62
7
100
AcDbPolyline
 90
30
 70
0
 10
1.596807
 20
3.825157
 30
0.0
 10
1.750785
 20
3.892326
 30
0.0
 10
1.889089
 20
3.900228
 30
0.0
 10
2.003638
 20
3.884423
 30
0.0
 10
2.102512
 20
3.872570
 30
0.0
 10
2.276386
 20
4.101565
 30
0.0
 10
2.489689
 20
4.212253
 30
0.0
 10
2.706972
 20
4.247813
 30
0.0
 10
2.892542
 20
4.267568
 30
0.0
 10
3.489284
 20
4.267568
 30
0.0
 10
3.987152
 20
4.101537
 30
0.0
 10
4.350575
 20
3.797301
 30
0.0
 10
4.544224
 20
3.374561
 30
0.0
 10
4.619223
 20
2.655543
 30
0.0
 10
4.488878
 20
1.853468
 30
0.0
 10
4.149089
 20
1.067168
 30
0.0
 10
3.603954
 20
0.403269
 30
0.0
 10
3.003353
 20
0.083370
 30
0.0
 10
2.402752
 20
0.000284
 30
0.0
 10
1.972047
 20
0.004235
 30
0.0
 10
1.569074
 20
0.047782
 30
0.0
 10
1.197572
 20
0.178112
 30
0.0
 10
0.861761
 20
0.450738
 30
0.0
 10
0.624704
 20
0.928710
 30
0.0
 10
0.581296
 20
1.553070
 30
0.0
 10
0.691866
 20
2.236641
 30
0.0
 10
0.920965
 20
2.896448
 30
0.0
 10
1.233142
 20
3.453639
 30
0.0
 10
1.596807
 20
3.825016
 30
0.0
 10
1.596807
 20
3.825157
 30
0.0
  0
LWPOLYLINE
  5
13d
100
AcDbEntity
  8
o_
 62
7
100
AcDbPolyline
 90
13
 70
0
 10
2.987557
 20
2.236895
 30
0.0
 10
2.616176
 20
2.181438
 30
0.0
 10
2.461956
 20
1.995849
 30
0.0
 10
2.189329
 20
1.746872
 30
0.0
 10
2.173654
 20
1.746872
 30
0.0
 10
1.952392
 20
1.355712
 30
0.0
 10
1.952272
 20
0.948635
 30
0.0
 10
2.161716
 20
0.933113
 30
0.0
 10
2.371161
 20
0.948635
 30
0.0
 10
2.699013
 20
1.146388
 30
0.0
 10
2.900500
 20
1.458441
 30
0.0
 10
2.991416
 20
1.837663
 30
0.0
 10
2.987557
 20
2.236895
 30
0.0
  0
LWPOLYLINE
  5
13e
100
AcDbEntity
  8
p_
 62
7
100
AcDbPolyline
 90
43
 70
0
 10
2.401789
 20
4.139185
 30
0.0
 10
2.709830
 20
4.494785
 30
0.0
 10
3.068557
 20
4.723865
 30
0.0
 10
3.485703
 20
4.850357
 30
0.0
 10
3.969003
 20
4.905842
 30
0.0
 10
4.612332
 20
4.755587
 30
0.0
 10
4.963325
 20
4.328867
 30
0.0
 10
5.080282
 20
3.759850
 30
0.0
 10
5.029597
 20
3.183016
 30
0.0
 10
4.842440
 20
2.365136
 30
0.0
 10
4.515005
 20
1.484067
 30
0.0
 10
3.945801
 20
0.670166
 30
0.0
 10
3.033339
 20
0.069682
 30
0.0
 10
2.698170
 20
-0.017384
 30
0.0
 10
2.355030
 20
-0.017384
 30
0.0
 10
2.066501
 20
0.077387
 30
0.0
 10
1.894931
 20
0.282844
 30
0.0
 10
1.602595
 20
-0.629693
 30
0.0
 10
1.240061
 20
-1.510875
 30
0.0
 10
0.857895
 20
-1.664969
 30
0.0
 10
0.452409
 20
-1.661018
 30
0.0
 10
0.097727
 20
-1.372474
 30
0.0
 10
0.000282
 20
-0.949733
 30
0.0
 10
0.066554
 20
-0.479466
 30
0.0
 10
0.195173
 20
-0.048880
 30
0.0
 10
0.401723
 20
0.539780
 30
0.0
 10
0.616126
 20
1.112747
 30
0.0
 10
0.678591
 20
1.274686
 30
0.0
 10
0.760450
 20
1.499928
 30
0.0
 10
0.842309
 20
1.729149
 30
0.0
 10
0.896921
 20
1.895067
 30
0.0
 10
1.029465
 20
2.317808
 30
0.0
 10
1.162010
 20
2.748535
 30
0.0
 10
1.162010
 20
2.756438
 30
0.0
 10
1.177715
 20
2.827558
 30
0.0
 10
1.255648
 20
3.080429
 30
0.0
 10
1.376532
 20
3.408399
 30
0.0
 10
1.509076
 20
3.732390
 30
0.0
 10
1.637695
 20
3.973295
 30
0.0
 10
1.910637
 20
4.139214
 30
0.0
 10
2.230219
 20
4.178781
 30
0.0
 10
2.253539
 20
4.178781
 30
0.0
 10
2.401789
 20
4.139185
 30
0.0
  0
LWPOLYLINE
  5
13f
100
AcDbEntity
  8
p_
 62
7
100
AcDbPolyline
 90
20
 70
0
 10
2.994313
 20
2.819571
 30
0.0
 10
2.846301
 20
2.641742
 30
0.0
 10
2.682583
 20
2.511384
 30
0.0
 10
2.612385
 20
2.345466
 30
0.0
 10
2.464135
 20
1.926591
 30
0.0
 10
2.308270
 20
1.507689
 30
0.0
 10
2.425109
 20
1.357688
 30
0.0
 10
2.768369
 20
1.717267
 30
0.0
 10
3.037384
 20
2.084664
 30
0.0
 10
3.216688
 20
2.376933
 30
0.0
 10
3.282960
 20
2.503425
 30
0.0
 10
3.419431
 20
2.989468
 30
0.0
 10
3.423238
 20
3.230514
 30
0.0
 10
3.349113
 20
3.301663
 30
0.0
 10
3.247741
 20
3.274005
 30
0.0
 10
3.169809
 20
3.218661
 30
0.0
 10
3.173735
 20
3.214710
 30
0.0
 10
3.049043
 20
3.036966
 30
0.0
 10
2.994312
 20
2.819684
 30
0.0
 10
2.994313
 20
2.819571
 30
0.0
  0
LWPOLYLINE
  5
140
100
AcDbEntity
  8
q_
 62
7
100
AcDbPolyline
 90
51
 70
0
 10
1.152429
 20
3.590150
 30
0.0
 10
1.820313
 20
3.969372
 30
0.0
 10
2.543301
 20
4.202572
 30
0.0
 10
3.159697
 20
4.214426
 30
0.0
 10
3.515283
 20
3.937707
 30
0.0
 10
3.531200
 20
3.953511
 30
0.0
 10
3.523241
 20
3.890322
 30
0.0
 10
3.527221
 20
3.874517
 30
0.0
 10
3.531200
 20
3.858713
 30
0.0
 10
3.606200
 20
3.910077
 30
0.0
 10
3.732686
 20
3.949617
 30
0.0
 10
3.859052
 20
3.989043
 30
0.0
 10
3.942131
 20
4.040295
 30
0.0
 10
4.100089
 20
4.261670
 30
0.0
 10
4.408287
 20
4.226110
 30
0.0
 10
4.712506
 20
4.020652
 30
0.0
 10
4.858767
 20
3.732334
 30
0.0
 10
4.850809
 20
3.684836
 30
0.0
 10
4.447836
 20
2.523181
 30
0.0
 10
4.131679
 20
1.685517
 30
0.0
 10
3.874848
 20
1.049473
 30
0.0
 10
3.665403
 20
0.480456
 30
0.0
 10
3.479713
 20
-0.139896
 30
0.0
 10
3.175493
 20
-0.503342
 30
0.0
 10
3.831439
 20
-0.278100
 30
0.0
 10
4.159413
 20
-0.384809
 30
0.0
 10
4.206800
 20
-0.716758
 30
0.0
 10
4.032926
 20
-1.155304
 30
0.0
 10
3.701094
 20
-1.585890
 30
0.0
 10
3.270268
 20
-1.894077
 30
0.0
 10
2.922641
 20
-1.961246
 30
0.0
 10
2.626259
 20
-1.937539
 30
0.0
 10
2.369427
 20
-1.858545
 30
0.0
 10
2.140207
 20
-1.751724
 30
0.0
 10
1.666093
 20
-1.056469
 30
0.0
 10
1.662235
 20
-0.657351
 30
0.0
 10
1.713601
 20
-0.353115
 30
0.0
 10
1.816334
 20
-0.064712
 30
0.0
 10
1.958616
 20
0.294754
 30
0.0
 10
1.682010
 20
0.057800
 30
0.0
 10
1.207775
 20
-0.036970
 30
0.0
 10
0.706049
 20
-0.005389
 30
0.0
 10
0.346484
 20
0.152712
 30
0.0
 10
0.275463
 20
0.227698
 30
0.0
 10
0.180568
 20
0.346232
 30
0.0
 10
0.093631
 20
0.484520
 30
0.0
 10
0.046244
 20
0.618858
 30
0.0
 10
0.002836
 20
1.484123
 30
0.0
 10
0.212160
 20
2.317808
 30
0.0
 10
0.611153
 20
3.044784
 30
0.0
 10
1.152429
 20
3.590150
 30
0.0
  0
LWPOLYLINE
  5
141
100
AcDbEntity
  8
q_
 62
7
100
AcDbPolyline
 90
21
 70
0
 10
2.385222
 20
2.001634
 30
0.0
 10
2.432730
 20
2.195295
 30
0.0
 10
2.456363
 20
2.404619
 30
0.0
 10
2.440689
 20
2.404619
 30
0.0
 10
2.057250
 20
2.337450
 30
0.0
 10
1.788601
 20
2.230855
 30
0.0
 10
1.587115
 20
2.037335
 30
0.0
 10
1.405403
 20
1.717324
 30
0.0
 10
1.377670
 20
1.646062
 30
0.0
 10
1.346079
 20
1.519683
 30
0.0
 10
1.342220
 20
1.377528
 30
0.0
 10
1.405403
 20
1.266840
 30
0.0
 10
1.520073
 20
1.235260
 30
0.0
 10
1.658376
 20
1.247113
 30
0.0
 10
1.788722
 20
1.274771
 30
0.0
 10
1.871559
 20
1.306464
 30
0.0
 10
2.081003
 20
1.460445
 30
0.0
 10
2.191694
 20
1.598762
 30
0.0
 10
2.274652
 20
1.764680
 30
0.0
 10
2.385223
 20
2.001719
 30
0.0
 10
2.385222
 20
2.001634
 30
0.0
  0
LWPOLYLINE
  5
142
100
AcDbEntity
  8
r_
 62
7
100
AcDbPolyline
 90
31
 70
0
 10
1.684789
 20
3.769700
 30
0.0
 10
1.996967
 20
4.200399
 30
0.0
 10
2.384144
 20
4.382122
 30
0.0
 10
2.692342
 20
4.338716
 30
0.0
 10
2.775300
 20
4.093578
 30
0.0
 10
3.004519
 20
4.259610
 30
0.0
 10
3.324534
 20
4.421662
 30
0.0
 10
3.660345
 20
4.544174
 30
0.0
 10
3.944790
 20
4.587580
 30
0.0
 10
4.110705
 20
4.520411
 30
0.0
 10
4.094909
 20
4.306995
 30
0.0
 10
4.292417
 20
4.133230
 30
0.0
 10
4.308213
 20
3.801281
 30
0.0
 10
4.094910
 20
3.445709
 30
0.0
 10
3.612837
 20
3.200796
 30
0.0
 10
3.182131
 20
2.920211
 30
0.0
 10
2.854279
 20
2.359182
 30
0.0
 10
2.609384
 20
1.612309
 30
0.0
 10
2.427552
 20
0.774758
 30
0.0
 10
2.249820
 20
0.415207
 30
0.0
 10
1.914009
 20
0.146446
 30
0.0
 10
1.510916
 20
0.000284
 30
0.0
 10
1.127597
 20
0.008186
 30
0.0
 10
0.854969
 20
0.197867
 30
0.0
 10
0.776111
 20
0.600852
 30
0.0
 10
0.866786
 20
1.102559
 30
0.0
 10
1.060435
 20
1.742724
 30
0.0
 10
1.273858
 20
2.359125
 30
0.0
 10
1.416141
 20
2.797529
 30
0.0
 10
1.684789
 20
3.769644
 30
0.0
 10
1.684789
 20
3.769700
 30
0.0
  0
LWPOLYLINE
  5
143
100
AcDbEntity
  8
s_
 62
7
100
AcDbPolyline
 90
49
 70
0
 10
3.627117
 20
0.521915
 30
0.0
 10
2.896171
 20
0.138572
 30
0.0
 10
2.046697
 20
0.000284
 30
0.0
 10
1.248589
 20
0.103012
 30
0.0
 10
0.663784
 20
0.450767
 30
0.0
 10
0.497868
 20
0.731239
 30
0.0
 10
0.493889
 20
0.988061
 30
0.0
 10
0.628213
 20
1.161938
 30
0.0
 10
0.869249
 20
1.193519
 30
0.0
 10
1.007553
 20
1.244884
 30
0.0
 10
1.082673
 20
1.379221
 30
0.0
 10
1.153814
 20
1.521377
 30
0.0
 10
1.280180
 20
1.588546
 30
0.0
 10
1.793844
 20
1.588546
 30
0.0
 10
2.252283
 20
1.624106
 30
0.0
 10
2.584114
 20
1.699233
 30
0.0
 10
2.726397
 20
1.833543
 30
0.0
 10
2.493198
 20
1.983798
 30
0.0
 10
2.216712
 20
2.110149
 30
0.0
 10
1.951922
 20
2.252332
 30
0.0
 10
1.746336
 20
2.457903
 30
0.0
 10
1.608153
 20
2.600199
 30
0.0
 10
1.513258
 20
2.837238
 30
0.0
 10
1.477688
 20
3.113731
 30
0.0
 10
1.525195
 20
3.374532
 30
0.0
 10
1.568604
 20
3.603753
 30
0.0
 10
1.706907
 20
3.836841
 30
0.0
 10
1.904535
 20
4.054124
 30
0.0
 10
2.125676
 20
4.235959
 30
0.0
 10
2.678889
 20
4.504494
 30
0.0
 10
3.338694
 20
4.666433
 30
0.0
 10
3.931457
 20
4.701993
 30
0.0
 10
4.283063
 20
4.599377
 30
0.0
 10
4.492508
 20
4.299149
 30
0.0
 10
4.531937
 20
3.975158
 30
0.0
 10
4.362042
 20
3.686614
 30
0.0
 10
3.951232
 20
3.485248
 30
0.0
 10
3.504610
 20
3.406141
 30
0.0
 10
3.346652
 20
3.350798
 30
0.0
 10
3.315060
 20
3.311230
 30
0.0
 10
3.263694
 20
3.271804
 30
0.0
 10
3.741666
 20
2.896448
 30
0.0
 10
4.113168
 20
2.445965
 30
0.0
 10
4.295001
 20
1.892753
 30
0.0
 10
4.203964
 20
1.217169
 30
0.0
 10
4.160556
 20
1.023621
 30
0.0
 10
4.006457
 20
0.833968
 30
0.0
 10
3.808949
 20
0.664070
 30
0.0
 10
3.627117
 20
0.521915
 30
0.0
  0
LWPOLYLINE
  5
144
100
AcDbEntity
  8
t_
 62
7
100
AcDbPolyline
 90
74
 70
0
 10
4.152011
 20
6.400914
 30
0.0
 10
4.069174
 20
6.152022
 30
0.0
 10
3.998033
 20
5.982125
 30
0.0
 10
3.911096
 20
5.804409
 30
0.0
 10
3.780630
 20
5.539741
 30
0.0
 10
3.519940
 20
4.994488
 30
0.0
 10
3.452657
 20
4.875955
 30
0.0
 10
3.401291
 20
4.820611
 30
0.0
 10
3.519819
 20
4.844318
 30
0.0
 10
3.614714
 20
4.860122
 30
0.0
 10
3.721426
 20
4.875926
 30
0.0
 10
3.867446
 20
4.891731
 30
0.0
 10
4.013708
 20
4.875926
 30
0.0
 10
4.124278
 20
4.875926
 30
0.0
 10
4.230990
 20
4.864073
 30
0.0
 10
4.373393
 20
4.820667
 30
0.0
 10
4.531351
 20
4.646790
 30
0.0
 10
4.539309
 20
4.389968
 30
0.0
 10
4.412823
 20
4.148922
 30
0.0
 10
4.167928
 20
4.030389
 30
0.0
 10
3.654144
 20
3.896079
 30
0.0
 10
3.187867
 20
3.824931
 30
0.0
 10
3.140601
 20
3.769700
 30
0.0
 10
3.140601
 20
3.761798
 30
0.0
 10
2.970585
 20
3.283572
 30
0.0
 10
2.773078
 20
2.659353
 30
0.0
 10
2.555796
 20
1.963986
 30
0.0
 10
2.330555
 20
1.272570
 30
0.0
 10
2.105315
 20
0.660176
 30
0.0
 10
1.891891
 20
0.205713
 30
0.0
 10
1.769504
 20
0.063417
 30
0.0
 10
1.591651
 20
0.008186
 30
0.0
 10
1.568018
 20
0.000284
 30
0.0
 10
1.299369
 20
0.047810
 30
0.0
 10
1.042538
 20
0.146559
 30
0.0
 10
0.864684
 20
0.292694
 30
0.0
 10
0.833214
 20
0.490334
 30
0.0
 10
0.924009
 20
1.150142
 30
0.0
 10
1.062312
 20
1.916657
 30
0.0
 10
1.236186
 20
2.722599
 30
0.0
 10
1.433694
 20
3.500912
 30
0.0
 10
1.275615
 20
3.489058
 30
0.0
 10
1.188678
 20
3.457449
 30
0.0
 10
1.097762
 20
3.421889
 30
0.0
 10
0.927988
 20
3.398183
 30
0.0
 10
0.920030
 20
3.398183
 30
0.0
 10
0.690931
 20
3.516829
 30
0.0
 10
0.564444
 20
3.769700
 30
0.0
 10
0.611832
 20
4.062082
 30
0.0
 10
0.896397
 20
4.299149
 30
0.0
 10
1.184820
 20
4.386102
 30
0.0
 10
1.323123
 20
4.441445
 30
0.0
 10
1.461427
 20
4.496648
 30
0.0
 10
1.749850
 20
4.583714
 30
0.0
 10
1.824850
 20
4.603469
 30
0.0
 10
1.856441
 20
4.623225
 30
0.0
 10
1.892012
 20
4.635078
 30
0.0
 10
1.970991
 20
4.639029
 30
0.0
 10
2.065886
 20
5.105176
 30
0.0
 10
2.180435
 20
5.583288
 30
0.0
 10
2.350330
 20
6.073311
 30
0.0
 10
2.618979
 20
6.567087
 30
0.0
 10
2.622958
 20
6.578940
 30
0.0
 10
2.626937
 20
6.598978
 30
0.0
 10
2.698079
 20
6.669872
 30
0.0
 10
2.792853
 20
6.847841
 30
0.0
 10
2.887749
 20
6.911031
 30
0.0
 10
3.030031
 20
6.954437
 30
0.0
 10
3.259009
 20
7.073083
 30
0.0
 10
3.488349
 20
7.171720
 30
0.0
 10
3.832118
 20
7.061145
 30
0.0
 10
4.108604
 20
6.788518
 30
0.0
 10
4.152012
 20
6.401225
 30
0.0
 10
4.152011
 20
6.400914
 30
0.0
  0
LWPOLYLINE
  5
145
100
AcDbEntity
  8
u_
 62
7
100
AcDbPolyline
 90
37
 70
0
 10
0.974195
 20
3.805091
 30
0.0
 10
1.461033
 20
4.054095
 30
0.0
 10
1.936340
 20
3.994772
 30
0.0
 10
2.240212
 20
3.690537
 30
0.0
 10
2.212987
 20
3.212565
 30
0.0
 10
1.792250
 20
2.359012
 30
0.0
 10
1.503951
 20
1.434537
 30
0.0
 10
2.014210
 20
1.841360
 30
0.0
 10
2.396072
 20
2.299661
 30
0.0
 10
2.703868
 20
2.805488
 30
0.0
 10
3.007622
 20
3.346903
 30
0.0
 10
3.124606
 20
3.568052
 30
0.0
 10
3.358335
 20
3.947387
 30
0.0
 10
3.521804
 20
4.141020
 30
0.0
 10
3.775031
 20
4.184426
 30
0.0
 10
4.051679
 20
4.180474
 30
0.0
 10
4.293255
 20
4.247643
 30
0.0
 10
4.585477
 20
4.314925
 30
0.0
 10
4.873775
 20
4.208217
 30
0.0
 10
5.068511
 20
3.998780
 30
0.0
 10
5.080283
 20
3.757847
 30
0.0
 10
4.760717
 20
2.943833
 30
0.0
 10
4.456963
 20
2.015378
 30
0.0
 10
4.180315
 20
1.110546
 30
0.0
 10
3.934934
 20
0.383598
 30
0.0
 10
3.443935
 20
0.051648
 30
0.0
 10
2.886954
 20
0.000284
 30
0.0
 10
2.470139
 20
0.181978
 30
0.0
 10
2.399878
 20
0.549516
 30
0.0
 10
1.963566
 20
0.225384
 30
0.0
 10
1.383283
 20
0.020039
 30
0.0
 10
0.748313
 20
0.047697
 30
0.0
 10
0.230089
 20
0.336100
 30
0.0
 10
0.000282
 20
0.905003
 30
0.0
 10
0.226285
 20
2.264270
 30
0.0
 10
0.974197
 20
3.805147
 30
0.0
 10
0.974195
 20
3.805091
 30
0.0
  0
LWPOLYLINE
  5
146
100
AcDbEntity
  8
v_
 62
7
100
AcDbPolyline
 90
43
 70
0
 10
1.917523
 20
4.014584
 30
0.0
 10
1.988664
 20
3.062366
 30
0.0
 10
2.083439
 20
2.110177
 30
0.0
 10
2.348108
 20
2.726437
 30
0.0
 10
2.612778
 20
3.362623
 30
0.0
 10
2.932913
 20
3.959240
 30
0.0
 10
3.363498
 20
4.457109
 30
0.0
 10
3.561126
 20
4.603356
 30
0.0
 10
3.833754
 20
4.702106
 30
0.0
 10
4.122177
 20
4.733715
 30
0.0
 10
4.363213
 20
4.686330
 30
0.0
 10
4.501517
 20
4.544033
 30
0.0
 10
4.477883
 20
4.291190
 30
0.0
 10
4.683228
 20
4.069928
 30
0.0
 10
4.714820
 20
3.852645
 30
0.0
 10
4.639820
 20
3.651026
 30
0.0
 10
4.517192
 20
3.477290
 30
0.0
 10
4.130015
 20
2.829307
 30
0.0
 10
3.778408
 20
2.228682
 30
0.0
 10
3.430781
 20
1.647869
 30
0.0
 10
3.055300
 20
1.059210
 30
0.0
 10
2.703694
 20
0.636328
 30
0.0
 10
2.213784
 20
0.233371
 30
0.0
 10
1.684324
 20
0.000284
 30
0.0
 10
1.206352
 20
0.087095
 30
0.0
 10
0.747913
 20
0.245196
 30
0.0
 10
0.424040
 20
0.577146
 30
0.0
 10
0.352778
 20
1.126378
 30
0.0
 10
0.404144
 20
1.845509
 30
0.0
 10
0.503018
 20
2.568478
 30
0.0
 10
0.574039
 20
3.129535
 30
0.0
 10
0.613589
 20
3.406141
 30
0.0
 10
0.653138
 20
3.682747
 30
0.0
 10
0.684609
 20
3.931611
 30
0.0
 10
0.759730
 20
4.172657
 30
0.0
 10
0.929625
 20
4.358359
 30
0.0
 10
1.245660
 20
4.449150
 30
0.0
 10
1.340676
 20
4.449150
 30
0.0
 10
1.609204
 20
4.374135
 30
0.0
 10
1.830465
 20
4.204125
 30
0.0
 10
1.870015
 20
4.140935
 30
0.0
 10
1.893770
 20
4.077774
 30
0.0
 10
1.917523
 20
4.014584
 30
0.0
  0
LWPOLYLINE
  5
147
100
AcDbEntity
  8
w_
 62
7
100
AcDbPolyline
 90
71
 70
0
 10
3.236776
 20
3.220496
 30
0.0
 10
3.202498
 20
2.912422
 30
0.0
 10
3.175202
 20
2.706964
 30
0.0
 10
3.147905
 20
2.544912
 30
0.0
 10
3.120713
 20
2.351364
 30
0.0
 10
3.151345
 20
2.327657
 30
0.0
 10
3.253761
 20
2.473792
 30
0.0
 10
3.400562
 20
2.730614
 30
0.0
 10
3.557574
 20
3.042808
 30
0.0
 10
3.687392
 20
3.354974
 30
0.0
 10
3.755635
 20
3.615776
 30
0.0
 10
3.752198
 20
3.674986
 30
0.0
 10
3.748760
 20
3.734196
 30
0.0
 10
3.748760
 20
4.018761
 30
0.0
 10
3.851177
 20
4.247869
 30
0.0
 10
4.049238
 20
4.386158
 30
0.0
 10
4.335964
 20
4.405914
 30
0.0
 10
4.557988
 20
4.382207
 30
0.0
 10
4.738963
 20
4.315066
 30
0.0
 10
4.899412
 20
4.168790
 30
0.0
 10
5.066738
 20
3.900030
 30
0.0
 10
5.080282
 20
3.568193
 30
0.0
 10
4.981304
 20
3.038744
 30
0.0
 10
4.800329
 20
2.398580
 30
0.0
 10
4.571636
 20
1.730927
 30
0.0
 10
4.332733
 20
1.114666
 30
0.0
 10
4.110708
 20
0.644399
 30
0.0
 10
3.789809
 20
0.296673
 30
0.0
 10
3.352844
 20
0.106992
 30
0.0
 10
2.888583
 20
0.079334
 30
0.0
 10
2.485583
 20
0.217510
 30
0.0
 10
2.376394
 20
0.312534
 30
0.0
 10
2.280750
 20
0.415263
 30
0.0
 10
2.082793
 20
0.826066
 30
0.0
 10
1.973603
 20
1.497811
 30
0.0
 10
1.843889
 20
1.102672
 30
0.0
 10
1.673125
 20
0.778681
 30
0.0
 10
1.457977
 20
0.486270
 30
0.0
 10
1.195111
 20
0.193860
 30
0.0
 10
0.962980
 20
0.075355
 30
0.0
 10
0.700113
 20
0.008186
 30
0.0
 10
0.433913
 20
0.000284
 30
0.0
 10
0.191363
 20
0.067452
 30
0.0
 10
0.177819
 20
0.075355
 30
0.0
 10
0.041228
 20
0.237294
 30
0.0
 10
0.000282
 20
0.454690
 30
0.0
 10
0.048105
 20
0.984026
 30
0.0
 10
0.164066
 20
1.537238
 30
0.0
 10
0.263149
 20
1.955999
 30
0.0
 10
0.372338
 20
2.461713
 30
0.0
 10
0.467878
 20
2.971406
 30
0.0
 10
0.532891
 20
3.402106
 30
0.0
 10
0.553312
 20
3.544402
 30
0.0
 10
0.573733
 20
3.686670
 30
0.0
 10
0.764918
 20
3.892128
 30
0.0
 10
1.034661
 20
3.963276
 30
0.0
 10
1.290755
 20
3.884169
 30
0.0
 10
1.447870
 20
3.639172
 30
0.0
 10
1.454539
 20
3.639172
 30
0.0
 10
1.454539
 20
3.631270
 30
0.0
 10
1.608216
 20
3.176920
 30
0.0
 10
1.659372
 20
2.730530
 30
0.0
 10
1.983814
 20
3.153157
 30
0.0
 10
2.308047
 20
3.370581
 30
0.0
 10
2.444742
 20
3.429904
 30
0.0
 10
2.594981
 20
3.465352
 30
0.0
 10
2.799710
 20
3.500912
 30
0.0
 10
3.035279
 20
3.524618
 30
0.0
 10
3.212816
 20
3.457449
 30
0.0
 10
3.236779
 20
3.220270
 30
0.0
 10
3.236776
 20
3.220496
 30
0.0
  0
LWPOLYLINE
  5
148
100
AcDbEntity
  8
x_
 62
7
100
AcDbPolyline
 90
63
 70
0
 10
3.615766
 20
4.235762
 30
0.0
 10
3.844985
 20
4.449178
 30
0.0
 10
4.010901
 20
4.536131
 30
0.0
 10
4.188634
 20
4.524278
 30
0.0
 10
4.453544
 20
4.449150
 30
0.0
 10
4.469219
 20
4.441248
 30
0.0
 10
4.560135
 20
4.314897
 30
0.0
 10
4.635135
 20
4.152817
 30
0.0
 10
4.666726
 20
3.990906
 30
0.0
 10
4.619460
 20
3.848722
 30
0.0
 10
4.425690
 20
3.500996
 30
0.0
 10
4.121471
 20
3.086073
 30
0.0
 10
3.785660
 20
2.686954
 30
0.0
 10
3.489399
 20
2.378881
 30
0.0
 10
3.564520
 20
2.007504
 30
0.0
 10
3.611907
 20
1.576805
 30
0.0
 10
3.651457
 20
1.150057
 30
0.0
 10
3.702823
 20
0.782660
 30
0.0
 10
3.726456
 20
0.664127
 30
0.0
 10
3.773964
 20
0.553552
 30
0.0
 10
3.690886
 20
0.340023
 30
0.0
 10
3.406321
 20
0.221489
 30
0.0
 10
3.058693
 20
0.178084
 30
0.0
 10
2.786187
 20
0.197839
 30
0.0
 10
2.671517
 20
0.312393
 30
0.0
 10
2.584580
 20
0.470466
 30
0.0
 10
2.489805
 20
0.723309
 30
0.0
 10
2.359339
 20
1.122427
 30
0.0
 10
2.193423
 20
0.932746
 30
0.0
 10
2.035466
 20
0.743092
 30
0.0
 10
1.924775
 20
0.592837
 30
0.0
 10
1.833859
 20
0.466486
 30
0.0
 10
1.735105
 20
0.336128
 30
0.0
 10
1.600781
 20
0.205798
 30
0.0
 10
1.403153
 20
0.071460
 30
0.0
 10
1.181892
 20
0.012137
 30
0.0
 10
0.940856
 20
0.000284
 30
0.0
 10
0.739369
 20
0.047697
 30
0.0
 10
0.636757
 20
0.174161
 30
0.0
 10
0.423333
 20
0.367709
 30
0.0
 10
0.462883
 20
0.782604
 30
0.0
 10
0.691982
 20
1.177630
 30
0.0
 10
1.000180
 20
1.671519
 30
0.0
 10
1.351787
 20
2.161428
 30
0.0
 10
1.719309
 20
2.552701
 30
0.0
 10
1.636351
 20
2.758046
 30
0.0
 10
1.584985
 20
2.999092
 30
0.0
 10
1.533619
 20
3.236131
 30
0.0
 10
1.450661
 20
3.445709
 30
0.0
 10
1.166216
 20
3.651054
 30
0.0
 10
1.213604
 20
4.069815
 30
0.0
 10
1.308378
 20
4.180503
 30
0.0
 10
1.944550
 20
4.512452
 30
0.0
 10
2.549129
 20
4.354380
 30
0.0
 10
2.695270
 20
4.259610
 30
0.0
 10
2.857207
 20
4.097558
 30
0.0
 10
2.999369
 20
3.911855
 30
0.0
 10
3.078468
 20
3.753896
 30
0.0
 10
3.212793
 20
3.896051
 30
0.0
 10
3.382687
 20
4.046193
 30
0.0
 10
3.532928
 20
4.168678
 30
0.0
 10
3.615765
 20
4.235734
 30
0.0
 10
3.615766
 20
4.235762
 30
0.0
  0
LWPOLYLINE
  5
149
100
AcDbEntity
  8
y_
 62
7
100
AcDbPolyline
 90
62
 70
0
 10
0.337568
 20
3.144493
 30
0.0
 10
0.341547
 20
3.511890
 30
0.0
 10
0.531217
 20
3.705523
 30
0.0
 10
0.839415
 20
3.741111
 30
0.0
 10
1.195001
 20
3.638382
 30
0.0
 10
1.530812
 20
3.417120
 30
0.0
 10
1.775827
 20
3.097221
 30
0.0
 10
1.748214
 20
2.666493
 30
0.0
 10
1.594115
 20
2.137044
 30
0.0
 10
1.428079
 20
1.607596
 30
0.0
 10
1.364896
 20
1.176896
 30
0.0
 10
1.724460
 20
1.556090
 30
0.0
 10
2.008905
 20
2.097364
 30
0.0
 10
2.253799
 20
2.670360
 30
0.0
 10
2.494956
 20
3.152452
 30
0.0
 10
2.644956
 20
3.385511
 30
0.0
 10
2.767463
 20
3.563367
 30
0.0
 10
2.889971
 20
3.701684
 30
0.0
 10
3.040211
 20
3.824056
 30
0.0
 10
3.194310
 20
3.835909
 30
0.0
 10
3.439205
 20
3.788524
 30
0.0
 10
3.684100
 20
3.741139
 30
0.0
 10
3.838199
 20
3.752992
 30
0.0
 10
3.948890
 20
3.832099
 30
0.0
 10
4.201743
 20
3.879484
 30
0.0
 10
4.470391
 20
3.820274
 30
0.0
 10
4.683815
 20
3.670160
 30
0.0
 10
4.778710
 20
3.437101
 30
0.0
 10
4.770751
 20
3.405492
 30
0.0
 10
4.794385
 20
3.397590
 30
0.0
 10
4.739160
 20
3.350092
 30
0.0
 10
4.656081
 20
3.211775
 30
0.0
 10
4.541652
 20
3.105067
 30
0.0
 10
4.095030
 20
2.500744
 30
0.0
 10
3.680241
 20
1.750005
 30
0.0
 10
3.308859
 20
0.967713
 30
0.0
 10
2.992703
 20
0.268338
 30
0.0
 10
3.316697
 20
-0.079416
 30
0.0
 10
3.316818
 20
-0.545562
 30
0.0
 10
2.893949
 20
-0.944794
 30
0.0
 10
2.676546
 20
-1.264806
 30
0.0
 10
2.585751
 20
-1.525494
 30
0.0
 10
2.542343
 20
-1.746757
 30
0.0
 10
2.471202
 20
-1.948235
 30
0.0
 10
2.297448
 20
-2.157700
 30
0.0
 10
1.783664
 20
-2.268388
 30
0.0
 10
1.293754
 20
-1.999741
 30
0.0
 10
1.084309
 20
-1.644028
 30
0.0
 10
1.104084
 20
-1.304232
 30
0.0
 10
1.250225
 20
-0.972395
 30
0.0
 10
1.428078
 20
-0.648291
 30
0.0
 10
1.625586
 20
-0.241468
 30
0.0
 10
1.839009
 20
0.173342
 30
0.0
 10
1.222613
 20
-0.020206
 30
0.0
 10
0.590541
 20
0.189260
 30
0.0
 10
0.357222
 20
0.532893
 30
0.0
 10
0.282222
 20
1.018936
 30
0.0
 10
0.305976
 20
1.587953
 30
0.0
 10
0.361321
 20
2.172633
 30
0.0
 10
0.388934
 20
2.709927
 30
0.0
 10
0.337567
 20
3.144634
 30
0.0
 10
0.337568
 20
3.144493
 30
0.0
  0
LWPOLYLINE
  5
14a
100
AcDbEntity
  8
z_
 62
7
100
AcDbPolyline
 90
42
 70
0
 10
2.600496
 20
1.323736
 30
0.0
 10
3.114160
 20
1.355458
 30
0.0
 10
3.596232
 20
1.197386
 30
0.0
 10
3.876697
 20
0.849744
 30
0.0
 10
3.777823
 20
0.320295
 30
0.0
 10
3.426216
 20
0.264952
 30
0.0
 10
2.809820
 20
0.162223
 30
0.0
 10
2.067057
 20
0.059466
 30
0.0
 10
1.336111
 20
0.000284
 30
0.0
 10
0.755286
 20
0.027941
 30
0.0
 10
0.466983
 20
0.186014
 30
0.0
 10
0.423333
 20
0.762876
 30
0.0
 10
0.699940
 20
1.331752
 30
0.0
 10
1.150421
 20
1.865208
 30
0.0
 10
1.628514
 20
2.331467
 30
0.0
 10
1.988078
 20
2.691047
 30
0.0
 10
2.086832
 20
2.912309
 30
0.0
 10
1.944550
 20
2.947756
 30
0.0
 10
1.893183
 20
2.971463
 30
0.0
 10
1.830000
 20
2.995169
 30
0.0
 10
1.667943
 20
3.022827
 30
0.0
 10
1.300541
 20
3.176808
 30
0.0
 10
1.205646
 20
3.461231
 30
0.0
 10
1.363724
 20
3.793209
 30
0.0
 10
1.755001
 20
4.097416
 30
0.0
 10
2.248769
 20
4.302874
 30
0.0
 10
2.805961
 20
4.449009
 30
0.0
 10
3.378950
 20
4.539941
 30
0.0
 10
3.928063
 20
4.587439
 30
0.0
 10
4.050451
 20
4.528116
 30
0.0
 10
4.117613
 20
4.401624
 30
0.0
 10
4.200570
 20
4.283119
 30
0.0
 10
4.378544
 20
4.247643
 30
0.0
 10
4.635255
 20
4.117200
 30
0.0
 10
4.670826
 20
3.733858
 30
0.0
 10
4.520706
 20
3.263732
 30
0.0
 10
4.212628
 20
2.880531
 30
0.0
 10
3.623724
 20
2.295625
 30
0.0
 10
3.236547
 20
1.916403
 30
0.0
 10
2.932328
 20
1.627972
 30
0.0
 10
2.600496
 20
1.323624
 30
0.0
 10
2.600496
 20
1.323736
 30
0.0
  0
LWPOLYLINE
  5
14b
100
AcDbEntity
  8
1
 62
7
100
AcDbPolyline
 90
42
 70
0
 10
4.228889
 20
6.586814
 30
0.0
 10
4.157627
 20
6.334084
 30
0.0
 10
4.015465
 20
6.049519
 30
0.0
 10
4.141832
 20
5.808473
 30
0.0
 10
4.173423
 20
5.527888
 30
0.0
 10
3.758634
 20
4.690365
 30
0.0
 10
3.367478
 20
3.836897
 30
0.0
 10
3.173829
 20
3.382576
 30
0.0
 10
2.960526
 20
2.860944
 30
0.0
 10
2.751081
 20
2.335475
 30
0.0
 10
2.577207
 20
1.861342
 30
0.0
 10
2.344129
 20
1.094826
 30
0.0
 10
2.055585
 20
0.351961
 30
0.0
 10
2.055585
 20
0.328254
 30
0.0
 10
2.047868
 20
0.328254
 30
0.0
 10
1.775240
 20
0.063473
 30
0.0
 10
1.360330
 20
0.000284
 30
0.0
 10
0.988829
 20
0.138601
 30
0.0
 10
0.846667
 20
0.470550
 30
0.0
 10
0.913829
 20
0.893291
 30
0.0
 10
0.996907
 20
1.316032
 30
0.0
 10
1.348393
 20
3.011143
 30
0.0
 10
1.779220
 20
4.682350
 30
0.0
 10
1.565796
 20
4.737694
 30
0.0
 10
1.360330
 20
4.848269
 30
0.0
 10
1.091682
 20
5.152617
 30
0.0
 10
1.131111
 20
5.448866
 30
0.0
 10
1.376006
 20
5.709667
 30
0.0
 10
1.731712
 20
5.899236
 30
0.0
 10
1.755345
 20
5.903187
 30
0.0
 10
1.779220
 20
5.907138
 30
0.0
 10
1.937177
 20
6.001852
 30
0.0
 10
2.253213
 20
6.302193
 30
0.0
 10
2.537657
 20
6.634171
 30
0.0
 10
2.545616
 20
6.649975
 30
0.0
 10
2.561532
 20
6.673682
 30
0.0
 10
2.585165
 20
6.728913
 30
0.0
 10
2.984279
 20
7.060863
 30
0.0
 10
3.501801
 20
7.159612
 30
0.0
 10
3.971936
 20
7.005519
 30
0.0
 10
4.228889
 20
6.586616
 30
0.0
 10
4.228889
 20
6.586814
 30
0.0
  0
LWPOLYLINE
  5
14c
100
AcDbEntity
  8
2
 62
7
100
AcDbPolyline
 90
53
 70
0
 10
2.730618
 20
5.041822
 30
0.0
 10
2.497423
 20
4.733748
 30
0.0
 10
2.070703
 20
4.540115
 30
0.0
 10
1.576821
 20
4.480792
 30
0.0
 10
1.134305
 20
4.571696
 30
0.0
 10
0.861682
 20
4.820700
 30
0.0
 10
0.881456
 20
5.247308
 30
0.0
 10
1.122489
 20
5.662202
 30
0.0
 10
1.414887
 20
6.081105
 30
0.0
 10
1.734897
 20
6.452481
 30
0.0
 10
2.066724
 20
6.725108
 30
0.0
 10
2.631866
 20
7.013539
 30
0.0
 10
3.347005
 20
7.136023
 30
0.0
 10
4.077940
 20
7.033294
 30
0.0
 10
4.698186
 20
6.661918
 30
0.0
 10
5.030133
 20
6.191680
 30
0.0
 10
5.093315
 20
5.662202
 30
0.0
 10
4.947056
 20
5.101145
 30
0.0
 10
4.658637
 20
4.540115
 30
0.0
 10
4.303057
 20
4.010638
 30
0.0
 10
3.939518
 20
3.540399
 30
0.0
 10
2.908348
 20
2.469761
 30
0.0
 10
2.398671
 20
1.892814
 30
0.0
 10
3.007100
 20
1.896765
 30
0.0
 10
3.544510
 20
1.829596
 30
0.0
 10
3.844745
 20
1.691420
 30
0.0
 10
3.975089
 20
1.454241
 30
0.0
 10
3.955314
 20
1.078998
 30
0.0
 10
3.801217
 20
0.683859
 30
0.0
 10
3.544509
 20
0.371552
 30
0.0
 10
3.137563
 20
0.185878
 30
0.0
 10
2.442198
 20
0.055519
 30
0.0
 10
1.628307
 20
0.000288
 30
0.0
 10
0.869639
 20
0.035877
 30
0.0
 10
0.336208
 20
0.182011
 30
0.0
 10
0.201886
 20
0.450659
 30
0.0
 10
0.194049
 20
0.656116
 30
0.0
 10
0.079380
 20
0.822176
 30
0.0
 10
0.000282
 20
1.031500
 30
0.0
 10
0.091197
 20
1.359330
 30
0.0
 10
0.273026
 20
1.647874
 30
0.0
 10
0.435081
 20
1.865298
 30
0.0
 10
0.616790
 20
2.074622
 30
0.0
 10
0.857823
 20
2.347107
 30
0.0
 10
1.383295
 20
2.931928
 30
0.0
 10
1.908768
 20
3.481161
 30
0.0
 10
2.418445
 20
4.042219
 30
0.0
 10
2.904489
 20
4.654754
 30
0.0
 10
3.196766
 20
5.168398
 30
0.0
 10
3.283823
 20
5.697762
 30
0.0
 10
2.837207
 20
5.247392
 30
0.0
 10
2.730618
 20
5.041793
 30
0.0
 10
2.730618
 20
5.041822
 30
0.0
  0
LWPOLYLINE
  5
14d
100
AcDbEntity
  8
3
 62
7
100
AcDbPolyline
 90
58
 70
0
 10
1.583814
 20
2.853099
 30
0.0
 10
1.362552
 20
3.003100
 30
0.0
 10
1.319024
 20
3.244118
 30
0.0
 10
1.433694
 20
3.540507
 30
0.0
 10
1.686546
 20
3.840876
 30
0.0
 10
2.053949
 20
4.196335
 30
0.0
 10
2.520225
 20
4.623055
 30
0.0
 10
2.946952
 20
5.069559
 30
0.0
 10
3.195946
 20
5.500258
 30
0.0
 10
2.595225
 20
5.322543
 30
0.0
 10
2.176456
 20
5.204010
 30
0.0
 10
1.880195
 20
5.192156
 30
0.0
 10
1.646997
 20
5.334425
 30
0.0
 10
1.552222
 20
5.516148
 30
0.0
 10
1.512672
 20
5.776949
 30
0.0
 10
1.579835
 20
6.021862
 30
0.0
 10
1.804954
 20
6.171976
 30
0.0
 10
1.927583
 20
6.243124
 30
0.0
 10
2.014519
 20
6.365495
 30
0.0
 10
2.117252
 20
6.491987
 30
0.0
 10
2.294985
 20
6.574932
 30
0.0
 10
2.741486
 20
6.740992
 30
0.0
 10
3.255150
 20
6.906910
 30
0.0
 10
3.780631
 20
6.985876
 30
0.0
 10
4.270540
 20
6.891106
 30
0.0
 10
4.665675
 20
6.622459
 30
0.0
 10
4.918528
 20
6.195739
 30
0.0
 10
4.958078
 20
5.607051
 30
0.0
 10
4.728979
 20
4.852361
 30
0.0
 10
4.527372
 20
4.579621
 30
0.0
 10
4.290315
 20
4.342555
 30
0.0
 10
3.997913
 20
4.109467
 30
0.0
 10
3.638469
 20
3.840961
 30
0.0
 10
4.270540
 20
3.528767
 30
0.0
 10
4.519535
 20
2.884764
 30
0.0
 10
4.428618
 20
2.058925
 30
0.0
 10
4.057117
 20
1.193547
 30
0.0
 10
3.571186
 20
0.664183
 30
0.0
 10
2.919219
 20
0.316457
 30
0.0
 10
2.180435
 20
0.106992
 30
0.0
 10
1.441531
 20
0.000284
 30
0.0
 10
0.516937
 20
0.118817
 30
0.0
 10
0.082372
 20
0.561454
 30
0.0
 10
0.070556
 20
0.952501
 30
0.0
 10
0.260225
 20
1.304235
 30
0.0
 10
0.564444
 20
1.521631
 30
0.0
 10
0.904234
 20
1.501593
 30
0.0
 10
1.251862
 20
1.466146
 30
0.0
 10
1.536306
 20
1.470097
 30
0.0
 10
1.844504
 20
1.545083
 30
0.0
 10
2.271351
 20
1.730898
 30
0.0
 10
2.603183
 20
1.971832
 30
0.0
 10
2.875811
 20
2.303781
 30
0.0
 10
2.950810
 20
2.600030
 30
0.0
 10
2.697958
 20
2.734368
 30
0.0
 10
2.255556
 20
2.742270
 30
0.0
 10
1.583814
 20
2.852958
 30
0.0
 10
1.583814
 20
2.853099
 30
0.0
  0
LWPOLYLINE
  5
14e
100
AcDbEntity
  8
4
 62
7
100
AcDbPolyline
 90
73
 70
0
 10
3.234669
 20
0.711596
 30
0.0
 10
2.954204
 20
0.209749
 30
0.0
 10
2.531457
 20
0.000284
 30
0.0
 10
2.077117
 20
0.087123
 30
0.0
 10
1.701636
 20
0.474530
 30
0.0
 10
1.709594
 20
0.545565
 30
0.0
 10
1.729369
 20
0.668050
 30
0.0
 10
1.749144
 20
0.786583
 30
0.0
 10
1.757102
 20
0.853639
 30
0.0
 10
1.626636
 20
0.916941
 30
0.0
 10
1.484474
 20
0.948522
 30
0.0
 10
1.369925
 20
0.999886
 30
0.0
 10
1.322538
 20
1.122512
 30
0.0
 10
1.472537
 20
1.750626
 30
0.0
 10
1.709594
 20
2.315776
 30
0.0
 10
1.804369
 20
2.576464
 30
0.0
 10
1.290946
 20
2.537038
 30
0.0
 10
0.931382
 20
2.540989
 30
0.0
 10
0.662612
 20
2.623962
 30
0.0
 10
0.429535
 20
2.821574
 30
0.0
 10
0.196336
 20
3.161257
 30
0.0
 10
0.141111
 20
3.477402
 30
0.0
 10
0.275435
 20
3.848920
 30
0.0
 10
0.619084
 20
4.354606
 30
0.0
 10
1.243438
 20
5.136926
 30
0.0
 10
1.828243
 20
5.792754
 30
0.0
 10
2.472252
 20
6.405176
 30
0.0
 10
3.266502
 20
7.057024
 30
0.0
 10
3.598333
 20
7.223056
 30
0.0
 10
3.969715
 20
7.278400
 30
0.0
 10
4.242342
 20
7.250742
 30
0.0
 10
4.483379
 20
7.179622
 30
0.0
 10
4.677027
 20
7.033459
 30
0.0
 10
4.799535
 20
6.788462
 30
0.0
 10
4.799535
 20
6.725272
 30
0.0
 10
4.949534
 20
6.519814
 30
0.0
 10
4.937718
 20
6.239342
 30
0.0
 10
4.799414
 20
5.946932
 30
0.0
 10
4.625540
 20
5.666346
 30
0.0
 10
4.507012
 20
5.421349
 30
0.0
 10
4.341096
 20
4.789256
 30
0.0
 10
4.273934
 20
4.516629
 30
0.0
 10
4.218588
 20
4.271745
 30
0.0
 10
4.159264
 20
4.026720
 30
0.0
 10
4.096081
 20
3.753980
 30
0.0
 10
4.206772
 20
3.757931
 30
0.0
 10
4.238363
 20
3.761882
 30
0.0
 10
4.269955
 20
3.761882
 30
0.0
 10
4.380646
 20
3.761882
 30
0.0
 10
4.499054
 20
3.813247
 30
0.0
 10
4.625540
 20
3.852786
 30
0.0
 10
4.744189
 20
3.856737
 30
0.0
 10
4.838843
 20
3.801394
 30
0.0
 10
4.925901
 20
3.568193
 30
0.0
 10
4.902146
 20
3.342952
 30
0.0
 10
4.803272
 20
3.173054
 30
0.0
 10
4.664969
 20
3.105913
 30
0.0
 10
4.507011
 20
3.034878
 30
0.0
 10
4.238363
 20
3.007220
 30
0.0
 10
4.076426
 20
3.003269
 30
0.0
 10
4.246321
 20
3.003269
 30
0.0
 10
4.277912
 20
2.999318
 30
0.0
 10
4.262116
 20
2.983514
 30
0.0
 10
4.171200
 20
2.955856
 30
0.0
 10
3.969714
 20
2.924360
 30
0.0
 10
3.882656
 20
2.916458
 30
0.0
 10
3.705044
 20
2.260517
 30
0.0
 10
3.519233
 20
1.612534
 30
0.0
 10
3.428438
 20
1.268760
 30
0.0
 10
3.305809
 20
0.940902
 30
0.0
 10
3.226951
 20
0.775012
 30
0.0
 10
3.234667
 20
0.711822
 30
0.0
 10
3.234669
 20
0.711596
 30
0.0
  0
LWPOLYLINE
  5
14f
100
AcDbEntity
  8
4
 62
7
100
AcDbPolyline
 90
12
 70
0
 10
2.539415
 20
4.757478
 30
0.0
 10
1.796652
 20
4.046306
 30
0.0
 10
1.401517
 20
3.627404
 30
0.0
 10
1.294805
 20
3.433771
 30
0.0
 10
1.413334
 20
3.406113
 30
0.0
 10
1.693919
 20
3.477261
 30
0.0
 10
2.080976
 20
3.587836
 30
0.0
 10
2.172012
 20
3.828882
 30
0.0
 10
2.314174
 20
4.168649
 30
0.0
 10
2.456336
 20
4.512424
 30
0.0
 10
2.539415
 20
4.757450
 30
0.0
 10
2.539415
 20
4.757478
 30
0.0
  0
LWPOLYLINE
  5
150
100
AcDbEntity
  8
4
 62
7
100
AcDbPolyline
 90
6
 70
0
 10
3.171486
 20
0.600909
 30
0.0
 10
3.187404
 20
0.672029
 30
0.0
 10
3.203078
 20
0.727260
 30
0.0
 10
3.171607
 20
0.628510
 30
0.0
 10
3.171487
 20
0.600852
 30
0.0
 10
3.171486
 20
0.600909
 30
0.0
  0
LWPOLYLINE
  5
151
100
AcDbEntity
  8
5
 62
7
100
AcDbPolyline
 90
64
 70
0
 10
2.381433
 20
6.527717
 30
0.0
 10
2.839630
 20
6.563164
 30
0.0
 10
3.400681
 20
6.618508
 30
0.0
 10
3.977649
 20
6.669872
 30
0.0
 10
4.491312
 20
6.689628
 30
0.0
 10
4.862694
 20
6.646081
 30
0.0
 10
5.004976
 20
6.511771
 30
0.0
 10
5.056342
 20
6.108786
 30
0.0
 10
4.949631
 20
5.792641
 30
0.0
 10
4.728369
 20
5.567399
 30
0.0
 10
4.428129
 20
5.444886
 30
0.0
 10
3.910487
 20
5.346137
 30
0.0
 10
3.392844
 20
5.342186
 30
0.0
 10
3.250561
 20
5.354039
 30
0.0
 10
3.108279
 20
5.357990
 30
0.0
 10
3.076687
 20
5.302759
 30
0.0
 10
2.780426
 20
4.848297
 30
0.0
 10
2.397108
 20
4.275442
 30
0.0
 10
2.247108
 20
3.935647
 30
0.0
 10
2.527573
 20
4.109524
 30
0.0
 10
2.993730
 20
4.208273
 30
0.0
 10
3.511372
 20
4.212224
 30
0.0
 10
3.946057
 20
4.117313
 30
0.0
 10
4.546658
 20
3.655146
 30
0.0
 10
4.755982
 20
3.074304
 30
0.0
 10
4.704616
 20
2.453952
 30
0.0
 10
4.530862
 20
1.873110
 30
0.0
 10
4.242318
 20
1.316032
 30
0.0
 10
3.843204
 20
0.845906
 30
0.0
 10
3.377048
 20
0.474530
 30
0.0
 10
2.895096
 20
0.213700
 30
0.0
 10
1.816282
 20
0.000284
 30
0.0
 10
0.666567
 20
0.166202
 30
0.0
 10
0.291207
 20
0.375780
 30
0.0
 10
0.081762
 20
0.695792
 30
0.0
 10
0.042333
 20
1.047384
 30
0.0
 10
0.188595
 20
1.351620
 30
0.0
 10
0.532364
 20
1.533456
 30
0.0
 10
1.077498
 20
1.517651
 30
0.0
 10
1.535937
 20
1.446390
 30
0.0
 10
1.919135
 20
1.489909
 30
0.0
 10
2.254946
 20
1.699346
 30
0.0
 10
2.570982
 20
2.126094
 30
0.0
 10
2.634165
 20
2.264270
 30
0.0
 10
2.689510
 20
2.453952
 30
0.0
 10
2.689510
 20
2.639626
 30
0.0
 10
2.586898
 20
2.766118
 30
0.0
 10
2.294375
 20
2.766118
 30
0.0
 10
1.836057
 20
2.694970
 30
0.0
 10
1.322393
 20
2.623821
 30
0.0
 10
0.872033
 20
2.623821
 30
0.0
 10
0.599405
 20
2.773964
 30
0.0
 10
0.611342
 20
3.145453
 30
0.0
 10
0.619180
 20
3.137550
 30
0.0
 10
0.634976
 20
3.129648
 30
0.0
 10
0.421552
 20
3.572173
 30
0.0
 10
0.733850
 20
4.287437
 30
0.0
 10
1.101132
 20
4.970894
 30
0.0
 10
1.255351
 20
5.259438
 30
0.0
 10
1.520021
 20
5.848126
 30
0.0
 10
1.539795
 20
6.168024
 30
0.0
 10
1.753099
 20
6.377462
 30
0.0
 10
2.065276
 20
6.492128
 30
0.0
 10
2.381433
 20
6.527717
 30
0.0
  0
LWPOLYLINE
  5
152
100
AcDbEntity
  8
6
 62
7
100
AcDbPolyline
 90
35
 70
0
 10
3.716397
 20
6.804040
 30
0.0
 10
4.016637
 20
6.839600
 30
0.0
 10
4.305060
 20
6.780277
 30
0.0
 10
4.506547
 20
6.657878
 30
0.0
 10
4.538259
 20
6.487867
 30
0.0
 10
4.538138
 20
6.345712
 30
0.0
 10
4.640871
 20
6.239003
 30
0.0
 10
4.763379
 20
6.144233
 30
0.0
 10
4.834520
 20
6.041504
 30
0.0
 10
4.775316
 20
5.899208
 30
0.0
 10
4.506426
 20
5.705575
 30
0.0
 10
4.174715
 20
5.559553
 30
0.0
 10
3.850721
 20
5.389656
 30
0.0
 10
3.341036
 20
5.045881
 30
0.0
 10
2.890556
 20
4.587552
 30
0.0
 10
2.499400
 20
4.058103
 30
0.0
 10
2.175406
 20
3.508870
 30
0.0
 10
2.677253
 20
3.813078
 30
0.0
 10
3.226366
 20
3.903868
 30
0.0
 10
3.704460
 20
3.761713
 30
0.0
 10
4.107432
 20
3.406000
 30
0.0
 10
4.364264
 20
2.900314
 30
0.0
 10
4.403935
 20
2.299717
 30
0.0
 10
4.083799
 20
1.233058
 30
0.0
 10
3.546381
 20
0.521887
 30
0.0
 10
2.819415
 20
0.122796
 30
0.0
 10
1.930390
 20
0.000284
 30
0.0
 10
0.986141
 20
0.233343
 30
0.0
 10
0.429069
 20
0.782604
 30
0.0
 10
0.211667
 20
1.600484
 30
0.0
 10
0.302583
 20
2.631780
 30
0.0
 10
0.753063
 20
4.002759
 30
0.0
 10
1.440481
 20
5.168393
 30
0.0
 10
2.412342
 20
6.108786
 30
0.0
 10
3.716397
 20
6.804040
 30
0.0
  0
LWPOLYLINE
  5
153
100
AcDbEntity
  8
6
 62
7
100
AcDbPolyline
 90
12
 70
0
 10
2.760211
 20
2.679052
 30
0.0
 10
2.436217
 20
2.453924
 30
0.0
 10
2.175406
 20
2.145737
 30
0.0
 10
1.997552
 20
1.786158
 30
0.0
 10
1.914715
 20
1.414668
 30
0.0
 10
1.977898
 20
1.343520
 30
0.0
 10
2.238589
 20
1.308073
 30
0.0
 10
2.467687
 20
1.513531
 30
0.0
 10
2.653378
 20
1.857306
 30
0.0
 10
2.775886
 20
2.236641
 30
0.0
 10
2.815436
 20
2.544856
 30
0.0
 10
2.760211
 20
2.679052
 30
0.0
  0
LWPOLYLINE
  5
154
100
AcDbEntity
  8
7
 62
7
100
AcDbPolyline
 90
46
 70
0
 10
2.639808
 20
5.306880
 30
0.0
 10
1.821002
 20
5.330586
 30
0.0
 10
0.994581
 20
5.346391
 30
0.0
 10
0.768285
 20
5.393522
 30
0.0
 10
0.542227
 20
5.618735
 30
0.0
 10
0.573399
 20
6.013875
 30
0.0
 10
0.842408
 20
6.397189
 30
0.0
 10
1.329861
 20
6.594716
 30
0.0
 10
2.062765
 20
6.661885
 30
0.0
 10
2.659201
 20
6.748810
 30
0.0
 10
3.158195
 20
6.835734
 30
0.0
 10
3.598770
 20
6.910862
 30
0.0
 10
3.930123
 20
6.962113
 30
0.0
 10
4.238157
 20
6.973966
 30
0.0
 10
4.487654
 20
6.875217
 30
0.0
 10
4.643634
 20
6.602703
 30
0.0
 10
4.596757
 20
6.412909
 30
0.0
 10
4.877545
 20
6.258928
 30
0.0
 10
5.056844
 20
6.025841
 30
0.0
 10
5.080283
 20
5.729479
 30
0.0
 10
4.900864
 20
5.385592
 30
0.0
 10
4.121201
 20
4.378143
 30
0.0
 10
3.380564
 20
3.216488
 30
0.0
 10
2.635881
 20
1.983826
 30
0.0
 10
1.852174
 20
0.778765
 30
0.0
 10
1.692267
 20
0.565349
 30
0.0
 10
1.524746
 20
0.359863
 30
0.0
 10
1.501427
 20
0.344058
 30
0.0
 10
1.477869
 20
0.304773
 30
0.0
 10
1.423377
 20
0.229646
 30
0.0
 10
1.400057
 20
0.209608
 30
0.0
 10
0.986728
 20
0.000284
 30
0.0
 10
0.487735
 20
0.012137
 30
0.0
 10
0.284996
 20
0.091103
 30
0.0
 10
0.113430
 20
0.233512
 30
0.0
 10
0.000282
 20
0.498067
 30
0.0
 10
0.066553
 20
0.727288
 30
0.0
 10
0.222533
 20
0.940704
 30
0.0
 10
0.378513
 20
1.157874
 30
0.0
 10
0.557813
 20
1.454236
 30
0.0
 10
0.729260
 20
1.758584
 30
0.0
 10
1.142589
 20
2.580444
 30
0.0
 10
1.551992
 20
3.469472
 30
0.0
 10
1.984715
 20
4.334737
 30
0.0
 10
2.483708
 20
5.101253
 30
0.0
 10
2.639808
 20
5.306880
 30
0.0
  0
LWPOLYLINE
  5
155
100
AcDbEntity
  8
8
 62
7
100
AcDbPolyline
 90
39
 70
0
 10
3.307821
 20
7.116178
 30
0.0
 10
3.537498
 20
7.112227
 30
0.0
 10
3.801638
 20
7.068821
 30
0.0
 10
4.058185
 20
6.926553
 30
0.0
 10
4.264848
 20
6.618338
 30
0.0
 10
4.674551
 20
6.555177
 30
0.0
 10
4.950141
 20
6.239003
 30
0.0
 10
5.080283
 20
5.764898
 30
0.0
 10
5.038226
 20
5.235562
 30
0.0
 10
4.839157
 20
4.690196
 30
0.0
 10
4.532843
 20
4.223908
 30
0.0
 10
4.142299
 20
3.824790
 30
0.0
 10
3.690772
 20
3.473197
 30
0.0
 10
3.954795
 20
3.192725
 30
0.0
 10
4.138560
 20
2.825187
 30
0.0
 10
4.238095
 20
2.422230
 30
0.0
 10
4.249660
 20
2.027204
 30
0.0
 10
4.000824
 20
1.193519
 30
0.0
 10
3.503151
 20
0.592922
 30
0.0
 10
2.909682
 20
0.217566
 30
0.0
 10
2.381401
 20
0.059381
 30
0.0
 10
1.638747
 20
0.000284
 30
0.0
 10
0.919108
 20
0.079278
 30
0.0
 10
0.333466
 20
0.442695
 30
0.0
 10
0.000282
 20
1.244912
 30
0.0
 10
0.027152
 20
1.995510
 30
0.0
 10
0.252974
 20
2.592128
 30
0.0
 10
0.624359
 20
3.054408
 30
0.0
 10
1.079975
 20
3.410008
 30
0.0
 10
1.569938
 20
3.702531
 30
0.0
 10
1.275189
 20
4.109354
 30
0.0
 10
1.060816
 20
4.543920
 30
0.0
 10
0.972730
 20
5.014187
 30
0.0
 10
1.056844
 20
5.535790
 30
0.0
 10
1.401477
 20
6.171863
 30
0.0
 10
1.933613
 20
6.681528
 30
0.0
 10
2.592036
 20
7.013478
 30
0.0
 10
3.307820
 20
7.116094
 30
0.0
 10
3.307821
 20
7.116178
 30
0.0
  0
LWPOLYLINE
  5
156
100
AcDbEntity
  8
8
 62
7
100
AcDbPolyline
 90
14
 70
0
 10
2.664818
 20
1.877061
 30
0.0
 10
2.622644
 20
2.299802
 30
0.0
 10
2.381402
 20
2.698921
 30
0.0
 10
2.197753
 20
2.627772
 30
0.0
 10
2.048451
 20
2.544827
 30
0.0
 10
2.021582
 20
2.513218
 30
0.0
 10
2.010133
 20
2.477658
 30
0.0
 10
1.899149
 20
2.382747
 30
0.0
 10
1.715384
 20
2.137863
 30
0.0
 10
1.776600
 20
1.904663
 30
0.0
 10
1.990973
 20
1.722968
 30
0.0
 10
2.270418
 20
1.632149
 30
0.0
 10
2.523109
 20
1.671716
 30
0.0
 10
2.664818
 20
1.877061
 30
0.0
  0
LWPOLYLINE
  5
157
100
AcDbEntity
  8
8
 62
7
100
AcDbPolyline
 90
14
 70
0
 10
3.353849
 20
5.535875
 30
0.0
 10
3.223590
 20
5.646337
 30
0.0
 10
3.028376
 20
5.571322
 30
0.0
 10
2.825569
 20
5.361998
 30
0.0
 10
2.668556
 20
5.057790
 30
0.0
 10
2.618789
 20
4.702219
 30
0.0
 10
2.733744
 20
4.342639
 30
0.0
 10
2.756641
 20
4.303100
 30
0.0
 10
2.917392
 20
4.445368
 30
0.0
 10
3.097302
 20
4.599462
 30
0.0
 10
3.296371
 20
4.812765
 30
0.0
 10
3.522310
 20
5.132918
 30
0.0
 10
3.529901
 20
5.215863
 30
0.0
 10
3.353849
 20
5.535875
 30
0.0
  0
LWPOLYLINE
  5
158
100
AcDbEntity
  8
9
 62
7
100
AcDbPolyline
 90
33
 70
0
 10
2.625317
 20
0.430926
 30
0.0
 10
2.340873
 20
0.174104
 30
0.0
 10
1.953696
 20
0.023990
 30
0.0
 10
1.554582
 20
0.000284
 30
0.0
 10
1.226609
 20
0.110971
 30
0.0
 10
1.044897
 20
0.375639
 30
0.0
 10
1.100243
 20
0.818276
 30
0.0
 10
1.345258
 20
1.256822
 30
0.0
 10
1.578336
 20
1.655827
 30
0.0
 10
1.843005
 20
2.066743
 30
0.0
 10
2.182795
 20
2.548835
 30
0.0
 10
1.416399
 20
2.485645
 30
0.0
 10
0.784207
 20
2.734396
 30
0.0
 10
0.353622
 20
3.236244
 30
0.0
 10
0.183727
 20
3.911968
 30
0.0
 10
0.325889
 20
4.690309
 30
0.0
 10
0.784207
 20
5.575330
 30
0.0
 10
1.440032
 20
6.286501
 30
0.0
 10
2.246098
 20
6.744830
 30
0.0
 10
3.146939
 20
6.855405
 30
0.0
 10
3.629012
 20
6.811999
 30
0.0
 10
4.158471
 20
6.709270
 30
0.0
 10
4.549627
 20
6.484142
 30
0.0
 10
4.616790
 20
6.073085
 30
0.0
 10
4.620647
 20
5.859781
 30
0.0
 10
4.747134
 20
5.737269
 30
0.0
 10
4.877600
 20
5.571350
 30
0.0
 10
4.901354
 20
5.219645
 30
0.0
 10
4.616790
 20
3.919814
 30
0.0
 10
4.126880
 20
2.651564
 30
0.0
 10
3.455138
 20
1.470125
 30
0.0
 10
2.625317
 20
0.430983
 30
0.0
 10
2.625317
 20
0.430926
 30
0.0
  0
LWPOLYLINE
  5
159
100
AcDbEntity
  8
9
 62
7
100
AcDbPolyline
 90
15
 70
0
 10
2.751804
 20
5.413221
 30
0.0
 10
2.463381
 20
5.203897
 30
0.0
 10
2.242119
 20
4.907535
 30
0.0
 10
2.119612
 20
4.599320
 30
0.0
 10
2.115754
 20
4.338632
 30
0.0
 10
2.261895
 20
4.192497
 30
0.0
 10
2.494973
 20
4.192384
 30
0.0
 10
2.747826
 20
4.322827
 30
0.0
 10
2.977045
 20
4.591475
 30
0.0
 10
3.146940
 20
5.014102
 30
0.0
 10
3.202165
 20
5.184141
 30
0.0
 10
3.233756
 20
5.318451
 30
0.0
 10
3.186369
 20
5.417200
 30
0.0
 10
3.004658
 20
5.472544
 30
0.0
 10
2.751804
 20
5.413221
 30
0.0
  0
LWPOLYLINE
  5
15a
100
AcDbEntity
  8
0
 62
7
100
AcDbPolyline
 90
39
 70
0
 10
1.149740
 20
5.982238
 30
0.0
 10
1.529200
 20
6.432834
 30
0.0
 10
2.114005
 20
6.804210
 30
0.0
 10
2.789605
 20
6.989912
 30
0.0
 10
3.457368
 20
6.883204
 30
0.0
 10
3.706242
 20
6.764670
 30
0.0
 10
3.804995
 20
6.685676
 30
0.0
 10
3.820791
 20
6.590793
 30
0.0
 10
3.820791
 20
6.424762
 30
0.0
 10
4.445026
 20
6.452420
 30
0.0
 10
4.828224
 20
6.021720
 30
0.0
 10
4.998239
 20
5.278968
 30
0.0
 10
4.970626
 20
4.362338
 30
0.0
 10
4.776978
 20
3.410121
 30
0.0
 10
4.445146
 20
2.568590
 30
0.0
 10
4.026257
 20
1.695254
 30
0.0
 10
3.524410
 20
1.007845
 30
0.0
 10
3.066092
 20
0.565321
 30
0.0
 10
2.769831
 20
0.426891
 30
0.0
 10
2.564365
 20
0.383485
 30
0.0
 10
2.426062
 20
0.347925
 30
0.0
 10
2.315491
 20
0.324218
 30
0.0
 10
2.185026
 20
0.316316
 30
0.0
 10
2.157292
 20
0.292609
 30
0.0
 10
2.137516
 20
0.268903
 30
0.0
 10
1.900459
 20
0.197754
 30
0.0
 10
1.695114
 20
0.020039
 30
0.0
 10
1.264409
 20
0.000284
 30
0.0
 10
0.778478
 20
0.138601
 30
0.0
 10
0.414934
 20
0.442808
 30
0.0
 10
0.268673
 20
0.794400
 30
0.0
 10
0.162081
 20
1.177602
 30
0.0
 10
0.102877
 20
1.620126
 30
0.0
 10
0.098778
 20
2.149716
 30
0.0
 10
0.201511
 20
3.271804
 30
0.0
 10
0.395159
 20
4.200399
 30
0.0
 10
0.703358
 20
5.061685
 30
0.0
 10
1.149739
 20
5.982181
 30
0.0
 10
1.149740
 20
5.982238
 30
0.0
  0
LWPOLYLINE
  5
15b
100
AcDbEntity
  8
0
 62
7
100
AcDbPolyline
 90
20
 70
0
 10
2.627548
 20
5.089456
 30
0.0
 10
2.319350
 20
4.374192
 30
0.0
 10
2.038884
 20
3.501081
 30
0.0
 10
1.849215
 20
2.576493
 30
0.0
 10
1.821602
 20
1.707248
 30
0.0
 10
1.837277
 20
1.707248
 30
0.0
 10
1.845236
 20
1.715150
 30
0.0
 10
2.489244
 20
2.829279
 30
0.0
 10
2.983254
 20
4.054124
 30
0.0
 10
3.105641
 20
4.457109
 30
0.0
 10
3.208374
 20
4.931214
 30
0.0
 10
3.235987
 20
5.369759
 30
0.0
 10
3.133254
 20
5.658303
 30
0.0
 10
3.097683
 20
5.626722
 30
0.0
 10
3.085867
 20
5.638576
 30
0.0
 10
3.062233
 20
5.666233
 30
0.0
 10
2.998930
 20
5.674136
 30
0.0
 10
2.793464
 20
5.366062
 30
0.0
 10
2.627548
 20
5.089569
 30
0.0
 10
2.627548
 20
5.089456
 30
0.0
  0
LWPOLYLINE
  5
15c
100
AcDbEntity
  8
`
 62
7
100
AcDbPolyline
 90
17
 70
0
 10
2.037733
 20
6.113866
 30
0.0
 10
2.164219
 20
6.627652
 30
0.0
 10
2.476397
 20
6.916083
 30
0.0
 10
2.871532
 20
6.995048
 30
0.0
 10
3.250871
 20
6.868698
 30
0.0
 10
3.511562
 20
6.540727
 30
0.0
 10
3.547132
 20
6.019096
 30
0.0
 10
3.503724
 20
5.659658
 30
0.0
 10
3.369400
 20
5.331687
 30
0.0
 10
3.183709
 20
5.027452
 30
0.0
 10
2.993919
 20
4.739049
 30
0.0
 10
2.772778
 20
4.529583
 30
0.0
 10
2.488213
 20
4.466281
 30
0.0
 10
2.243198
 20
4.592773
 30
0.0
 10
2.140466
 20
4.960170
 30
0.0
 10
2.097057
 20
5.497606
 30
0.0
 10
2.037733
 20
6.113866
 30
0.0
  0
LWPOLYLINE
  5
15d
100
AcDbEntity
  8
~
 62
7
100
AcDbPolyline
 90
36
 70
0
 10
2.683721
 20
2.302398
 30
0.0
 10
2.509967
 20
2.405240
 30
0.0
 10
2.328135
 20
2.586963
 30
0.0
 10
2.126528
 20
2.745036
 30
0.0
 10
1.901409
 20
2.776504
 30
0.0
 10
1.687985
 20
2.586963
 30
0.0
 10
1.486498
 20
2.401261
 30
0.0
 10
1.288991
 20
2.274797
 30
0.0
 10
1.095463
 20
2.270846
 30
0.0
 10
0.905673
 20
2.397451
 30
0.0
 10
0.644982
 20
2.666098
 30
0.0
 10
0.629187
 20
3.037474
 30
0.0
 10
0.822715
 20
3.432501
 30
0.0
 10
1.253421
 20
3.796031
 30
0.0
 10
1.458886
 20
3.961950
 30
0.0
 10
1.865838
 20
4.167408
 30
0.0
 10
2.241198
 20
4.167408
 30
0.0
 10
2.490193
 20
4.036964
 30
0.0
 10
2.652129
 20
3.748533
 30
0.0
 10
2.683721
 20
3.669426
 30
0.0
 10
2.822024
 20
3.452144
 30
0.0
 10
2.983961
 20
3.250778
 30
0.0
 10
3.379217
 20
3.361240
 30
0.0
 10
3.509562
 20
3.491570
 30
0.0
 10
3.647865
 20
3.622154
 30
0.0
 10
3.845373
 20
3.716953
 30
0.0
 10
4.035042
 20
3.728806
 30
0.0
 10
4.177325
 20
3.626077
 30
0.0
 10
4.232670
 20
3.369255
 30
0.0
 10
4.118000
 20
3.096628
 30
0.0
 10
3.884922
 20
2.855582
 30
0.0
 10
3.572745
 20
2.535570
 30
0.0
 10
3.300117
 20
2.337930
 30
0.0
 10
3.019531
 20
2.262944
 30
0.0
 10
2.683721
 20
2.302370
 30
0.0
 10
2.683721
 20
2.302398
 30
0.0
  0
LWPOLYLINE
  5
15e
100
AcDbEntity
  8
~
 62
7
100
AcDbPolyline
 90
2
 70
0
 10
1.127055
 20
3.693387
 30
0.0
 10
1.127055
 20
3.693387
 30
0.0
  0
LWPOLYLINE
  5
15f
100
AcDbEntity
  8
!
 62
7
100
AcDbPolyline
 90
32
 70
0
 10
4.372687
 20
6.633832
 30
0.0
 10
4.443828
 20
6.503474
 30
0.0
 10
4.518949
 20
6.404611
 30
0.0
 10
4.459504
 20
6.309700
 30
0.0
 10
4.345075
 20
6.108222
 30
0.0
 10
4.206772
 20
5.894918
 30
0.0
 10
4.072447
 20
5.681614
 30
0.0
 10
3.969715
 20
5.480136
 30
0.0
 10
3.463889
 20
4.290739
 30
0.0
 10
3.155690
 20
3.314786
 30
0.0
 10
2.910675
 20
2.552250
 30
0.0
 10
2.602598
 20
1.995171
 30
0.0
 10
2.578964
 20
1.971465
 30
0.0
 10
2.239054
 20
1.757907
 30
0.0
 10
1.741307
 20
1.738152
 30
0.0
 10
1.310601
 20
1.900204
 30
0.0
 10
1.180256
 20
2.232153
 30
0.0
 10
1.310480
 20
2.994690
 30
0.0
 10
1.508108
 20
3.662343
 30
0.0
 10
1.753123
 20
4.318284
 30
0.0
 10
2.025751
 20
5.053190
 30
0.0
 10
2.156096
 20
5.373230
 30
0.0
 10
2.349745
 20
5.784146
 30
0.0
 10
2.590660
 20
6.226670
 30
0.0
 10
2.859309
 20
6.645573
 30
0.0
 10
3.131936
 20
6.977522
 30
0.0
 10
3.384910
 20
7.163084
 30
0.0
 10
3.807657
 20
7.257967
 30
0.0
 10
4.186997
 20
7.210582
 30
0.0
 10
4.412237
 20
7.005124
 30
0.0
 10
4.372688
 20
6.633748
 30
0.0
 10
4.372687
 20
6.633832
 30
0.0
  0
LWPOLYLINE
  5
160
100
AcDbEntity
  8
!
 62
7
100
AcDbPolyline
 90
11
 70
0
 10
2.483948
 20
0.675557
 30
0.0
 10
2.124504
 20
0.189514
 30
0.0
 10
1.543678
 20
0.015636
 30
0.0
 10
0.970811
 20
0.134170
 30
0.0
 10
0.635000
 20
0.533288
 30
0.0
 10
0.725916
 20
1.003414
 30
0.0
 10
1.101156
 20
1.260124
 30
0.0
 10
1.595045
 20
1.339230
 30
0.0
 10
2.120525
 20
1.307650
 30
0.0
 10
2.484069
 20
1.102305
 30
0.0
 10
2.483948
 20
0.675557
 30
0.0
  0
LWPOLYLINE
  5
161
100
AcDbEntity
  8
@
 62
7
100
AcDbPolyline
 90
77
 70
0
 10
2.489757
 20
1.786101
 30
0.0
 10
2.447955
 20
1.991559
 30
0.0
 10
2.260393
 20
1.837324
 30
0.0
 10
2.049022
 20
1.778142
 30
0.0
 10
1.599290
 20
1.940082
 30
0.0
 10
1.352205
 20
2.386557
 30
0.0
 10
1.352205
 20
3.054323
 30
0.0
 10
1.638092
 20
3.880049
 30
0.0
 10
1.900171
 20
4.294972
 30
0.0
 10
2.230677
 20
4.662369
 30
0.0
 10
2.587991
 20
4.942954
 30
0.0
 10
2.939398
 20
5.097048
 30
0.0
 10
3.252003
 20
5.085194
 30
0.0
 10
3.484275
 20
4.867911
 30
0.0
 10
3.525986
 20
4.796904
 30
0.0
 10
3.499177
 20
4.690196
 30
0.0
 10
3.487273
 20
4.571663
 30
0.0
 10
3.567696
 20
4.472913
 30
0.0
 10
3.668838
 20
4.208104
 30
0.0
 10
3.707550
 20
3.895938
 30
0.0
 10
3.680742
 20
3.595682
 30
0.0
 10
3.591504
 20
3.366461
 30
0.0
 10
3.457466
 20
3.082037
 30
0.0
 10
3.418754
 20
2.892356
 30
0.0
 10
3.484274
 20
2.754067
 30
0.0
 10
3.662931
 20
2.623708
 30
0.0
 10
3.776159
 20
2.702815
 30
0.0
 10
3.883208
 20
2.805544
 30
0.0
 10
4.109573
 20
3.271691
 30
0.0
 10
4.178092
 20
3.789230
 30
0.0
 10
4.136381
 20
4.275273
 30
0.0
 10
4.038056
 20
4.646762
 30
0.0
 10
3.829683
 20
5.065552
 30
0.0
 10
3.543796
 20
5.349975
 30
0.0
 10
3.186482
 20
5.456712
 30
0.0
 10
2.757651
 20
5.349975
 30
0.0
 10
2.340815
 20
5.124734
 30
0.0
 10
2.016216
 20
4.844289
 30
0.0
 10
1.706519
 20
4.437325
 30
0.0
 10
1.334393
 20
3.824903
 30
0.0
 10
1.173547
 20
3.473197
 30
0.0
 10
1.033602
 20
2.979308
 30
0.0
 10
0.968083
 20
2.426096
 30
0.0
 10
1.033602
 20
1.896732
 30
0.0
 10
1.286775
 20
1.477971
 30
0.0
 10
1.780944
 20
1.256596
 30
0.0
 10
2.063924
 20
1.153867
 30
0.0
 10
2.144347
 20
0.995794
 30
0.0
 10
2.156252
 20
0.810092
 30
0.0
 10
2.227678
 20
0.632236
 30
0.0
 10
2.287200
 20
0.339966
 30
0.0
 10
2.022123
 20
0.106879
 30
0.0
 10
1.548673
 20
0.000284
 30
0.0
 10
0.988893
 20
0.071319
 30
0.0
 10
0.467825
 20
0.375526
 30
0.0
 10
0.101606
 20
0.979990
 30
0.0
 10
0.000282
 20
1.616147
 30
0.0
 10
0.044992
 20
2.406426
 30
0.0
 10
0.220650
 20
3.279649
 30
0.0
 10
0.509445
 20
4.168678
 30
0.0
 10
0.899565
 20
5.014187
 30
0.0
 10
1.376013
 20
5.745002
 30
0.0
 10
2.197872
 20
6.519476
 30
0.0
 10
3.076344
 20
6.883034
 30
0.0
 10
3.919012
 20
6.839600
 30
0.0
 10
4.639638
 20
6.392984
 30
0.0
 10
4.967145
 20
5.756940
 30
0.0
 10
5.080282
 20
4.705972
 30
0.0
 10
4.883814
 20
3.374420
 30
0.0
 10
4.276326
 20
1.896619
 30
0.0
 10
3.951727
 20
1.481950
 30
0.0
 10
3.564697
 20
1.221149
 30
0.0
 10
3.168671
 20
1.118420
 30
0.0
 10
2.820263
 20
1.177602
 30
0.0
 10
2.576086
 20
1.398864
 30
0.0
 10
2.489757
 20
1.786186
 30
0.0
 10
2.489757
 20
1.786101
 30
0.0
  0
LWPOLYLINE
  5
162
100
AcDbEntity
  8
@
 62
7
100
AcDbPolyline
 90
10
 70
0
 10
1.894173
 20
2.504978
 30
0.0
 10
2.087734
 20
2.671122
 30
0.0
 10
2.263392
 20
2.892384
 30
0.0
 10
2.424147
 20
3.133317
 30
0.0
 10
2.584992
 20
3.374335
 30
0.0
 10
2.495573
 20
3.437524
 30
0.0
 10
2.266391
 20
3.366517
 30
0.0
 10
2.069831
 20
3.153073
 30
0.0
 10
1.935793
 20
2.848752
 30
0.0
 10
1.894173
 20
2.504978
 30
0.0
  0
LWPOLYLINE
  5
163
100
AcDbEntity
  8
#
 62
7
100
AcDbPolyline
 90
110
 70
0
 10
3.794233
 20
2.651479
 30
0.0
 10
3.916498
 20
2.631724
 30
0.0
 10
4.029973
 20
2.643577
 30
0.0
 10
4.137588
 20
2.635675
 30
0.0
 10
4.242272
 20
2.564414
 30
0.0
 10
4.285958
 20
2.398608
 30
0.0
 10
4.312241
 20
2.232577
 30
0.0
 10
4.469223
 20
1.912565
 30
0.0
 10
4.445960
 20
1.584707
 30
0.0
 10
4.265625
 20
1.339682
 30
0.0
 10
3.945534
 20
1.268675
 30
0.0
 10
3.491723
 20
1.268534
 30
0.0
 10
3.037735
 20
1.276436
 30
0.0
 10
2.880752
 20
0.517992
 30
0.0
 10
2.714802
 20
0.363786
 30
0.0
 10
2.516976
 20
0.340079
 30
0.0
 10
2.348273
 20
0.454746
 30
0.0
 10
2.269692
 20
0.723534
 30
0.0
 10
2.263831
 20
0.723534
 30
0.0
 10
2.269692
 20
0.755115
 30
0.0
 10
2.263831
 20
0.964439
 30
0.0
 10
2.263831
 20
1.173764
 30
0.0
 10
2.185339
 20
1.181666
 30
0.0
 10
2.106671
 20
1.181666
 30
0.0
 10
1.836213
 20
1.169812
 30
0.0
 10
1.565578
 20
1.157959
 30
0.0
 10
1.551106
 20
1.161910
 30
0.0
 10
1.554036
 20
1.165861
 30
0.0
 10
1.466666
 20
1.161910
 30
0.0
 10
1.379295
 20
1.157959
 30
0.0
 10
1.231014
 20
0.731211
 30
0.0
 10
1.111679
 20
0.209721
 30
0.0
 10
0.948837
 20
0.051648
 30
0.0
 10
0.753851
 20
0.000284
 30
0.0
 10
0.585060
 20
0.087208
 30
0.0
 10
0.500797
 20
0.336100
 30
0.0
 10
0.494937
 20
0.336100
 30
0.0
 10
0.500797
 20
0.359806
 30
0.0
 10
0.500797
 20
0.375611
 30
0.0
 10
0.541463
 20
0.731070
 30
0.0
 10
0.576269
 20
1.086783
 30
0.0
 10
0.468744
 20
1.051223
 30
0.0
 10
0.430919
 20
1.031467
 30
0.0
 10
0.396024
 20
1.015663
 30
0.0
 10
0.297111
 20
1.007760
 30
0.0
 10
0.128319
 20
1.063104
 30
0.0
 10
0.035177
 20
1.229136
 30
0.0
 10
0.052669
 20
1.466202
 30
0.0
 10
0.221461
 20
1.742808
 30
0.0
 10
0.326145
 20
1.849404
 30
0.0
 10
0.413427
 20
1.904634
 30
0.0
 10
0.521041
 20
1.940194
 30
0.0
 10
0.686903
 20
1.987580
 30
0.0
 10
0.745150
 20
2.513190
 30
0.0
 10
0.809079
 20
3.054464
 30
0.0
 10
0.433760
 20
3.030758
 30
0.0
 10
0.081704
 20
3.149178
 30
0.0
 10
0.000282
 20
3.394203
 30
0.0
 10
0.139950
 20
3.639200
 30
0.0
 10
0.512340
 20
3.876267
 30
0.0
 10
0.954519
 20
4.065808
 30
0.0
 10
1.012766
 20
4.389940
 30
0.0
 10
1.102978
 20
4.950969
 30
0.0
 10
1.228173
 20
5.504068
 30
0.0
 10
1.484157
 20
5.993978
 30
0.0
 10
1.827423
 20
6.246849
 30
0.0
 10
2.182410
 20
6.278543
 30
0.0
 10
2.482168
 20
6.104666
 30
0.0
 10
2.653801
 20
5.741135
 30
0.0
 10
2.630538
 20
5.195882
 30
0.0
 10
2.403588
 20
4.563817
 30
0.0
 10
2.822504
 20
4.729707
 30
0.0
 10
2.860329
 20
4.875983
 30
0.0
 10
2.898154
 20
5.014159
 30
0.0
 10
2.933049
 20
5.176098
 30
0.0
 10
2.956400
 20
5.401340
 30
0.0
 10
3.165858
 20
5.942614
 30
0.0
 10
3.517825
 20
6.262766
 30
0.0
 10
3.910637
 20
6.393097
 30
0.0
 10
4.242271
 20
6.365439
 30
0.0
 10
4.396590
 20
6.278486
 30
0.0
 10
4.498433
 20
6.124393
 30
0.0
 10
4.527468
 20
5.918935
 30
0.0
 10
4.451818
 20
5.669930
 30
0.0
 10
4.393571
 20
5.345939
 30
0.0
 10
4.283115
 20
4.974676
 30
0.0
 10
4.428555
 20
4.950687
 30
0.0
 10
4.640943
 20
4.871834
 30
0.0
 10
4.824207
 20
4.721579
 30
0.0
 10
4.928981
 20
4.614871
 30
0.0
 10
4.998771
 20
4.531926
 30
0.0
 10
5.016263
 20
4.413392
 30
0.0
 10
4.963965
 20
4.207935
 30
0.0
 10
5.080281
 20
3.812795
 30
0.0
 10
5.071580
 20
3.473000
 30
0.0
 10
4.961035
 20
3.216178
 30
0.0
 10
4.771821
 20
3.062197
 30
0.0
 10
4.763120
 20
3.058246
 30
0.0
 10
4.748558
 20
3.054295
 30
0.0
 10
4.509976
 20
3.054408
 30
0.0
 10
4.306378
 20
3.109526
 30
0.0
 10
4.300517
 20
3.101906
 30
0.0
 10
4.399430
 20
3.077917
 30
0.0
 10
4.387887
 20
3.077917
 30
0.0
 10
3.608124
 20
3.149065
 30
0.0
 10
3.514982
 20
2.916119
 30
0.0
 10
3.427701
 20
2.682919
 30
0.0
 10
3.613896
 20
2.675016
 30
0.0
 10
3.794230
 20
2.651310
 30
0.0
 10
3.794233
 20
2.651479
 30
0.0
  0
LWPOLYLINE
  5
164
100
AcDbEntity
  8
#
 62
7
100
AcDbPolyline
 90
7
 70
0
 10
1.687755
 20
2.295794
 30
0.0
 10
2.048513
 20
2.414441
 30
0.0
 10
2.409271
 20
2.509211
 30
0.0
 10
2.485010
 20
2.880587
 30
0.0
 10
2.566431
 20
3.251963
 30
0.0
 10
1.937969
 20
3.204691
 30
0.0
 10
1.687755
 20
2.295794
 30
0.0
  0
LWPOLYLINE
  5
165
100
AcDbEntity
  8
#
 62
7
100
AcDbPolyline
 90
6
 70
0
 10
4.492486
 20
3.054464
 30
0.0
 10
4.518769
 20
3.050513
 30
0.0
 10
4.521611
 20
3.046562
 30
0.0
 10
4.466383
 20
3.054464
 30
0.0
 10
4.399434
 20
3.078171
 30
0.0
 10
4.492486
 20
3.054464
 30
0.0
  0
LWPOLYLINE
  5
166
100
AcDbEntity
  8
$
 62
7
100
AcDbPolyline
 90
81
 70
0
 10
2.701850
 20
6.959793
 30
0.0
 10
2.970578
 20
7.224574
 30
0.0
 10
3.370067
 20
7.394472
 30
0.0
 10
3.812997
 20
7.453795
 30
0.0
 10
4.205172
 20
7.390606
 30
0.0
 10
4.452069
 20
7.185148
 30
0.0
 10
4.459384
 20
6.833414
 30
0.0
 10
4.375829
 20
6.695125
 30
0.0
 10
4.303245
 20
6.517269
 30
0.0
 10
4.212377
 20
6.323721
 30
0.0
 10
4.074411
 20
6.137934
 30
0.0
 10
4.183343
 20
6.122130
 30
0.0
 10
4.292275
 20
6.098423
 30
0.0
 10
4.644557
 20
5.932392
 30
0.0
 10
4.945864
 20
5.703171
 30
0.0
 10
5.080283
 20
5.493705
 30
0.0
 10
5.000385
 20
5.363375
 30
0.0
 10
4.818869
 20
5.209282
 30
0.0
 10
4.655528
 20
4.936768
 30
0.0
 10
4.677247
 20
4.746974
 30
0.0
 10
4.648213
 20
4.529691
 30
0.0
 10
4.510138
 20
4.332192
 30
0.0
 10
4.197860
 20
4.201720
 30
0.0
 10
3.812998
 20
4.162294
 30
0.0
 10
3.428136
 20
4.150441
 30
0.0
 10
3.075854
 20
4.134636
 30
0.0
 10
2.796266
 20
4.079292
 30
0.0
 10
2.618408
 20
3.944870
 30
0.0
 10
2.578403
 20
3.703937
 30
0.0
 10
2.719915
 20
3.506438
 30
0.0
 10
3.021332
 20
3.277217
 30
0.0
 10
3.384475
 20
3.000611
 30
0.0
 10
3.718583
 20
2.656836
 30
0.0
 10
3.932789
 20
2.222157
 30
0.0
 10
3.936557
 20
1.680883
 30
0.0
 10
3.791168
 20
1.270081
 30
0.0
 10
3.518783
 20
0.835374
 30
0.0
 10
3.108545
 20
0.432304
 30
0.0
 10
2.549370
 20
0.116243
 30
0.0
 10
2.502163
 20
0.049103
 30
0.0
 10
2.462269
 20
-0.018066
 30
0.0
 10
2.403980
 20
-0.112837
 30
0.0
 10
2.266126
 20
-0.405247
 30
0.0
 10
2.106330
 20
-0.705616
 30
0.0
 10
2.091701
 20
-0.705616
 30
0.0
 10
1.935563
 20
-1.080972
 30
0.0
 10
1.648772
 20
-1.329835
 30
0.0
 10
1.321978
 20
-1.369262
 30
0.0
 10
1.046047
 20
-1.124265
 30
0.0
 10
1.038733
 20
-1.124265
 30
0.0
 10
1.038733
 20
-1.029494
 30
0.0
 10
1.038733
 20
-0.065564
 30
0.0
 10
0.486873
 20
0.140006
 30
0.0
 10
0.141904
 20
0.511383
 30
0.0
 10
0.000282
 20
0.965732
 30
0.0
 10
0.058239
 20
1.412236
 30
0.0
 10
0.388690
 20
1.653395
 30
0.0
 10
0.828073
 20
1.704759
 30
0.0
 10
1.292944
 20
1.696857
 30
0.0
 10
1.699637
 20
1.752088
 30
0.0
 10
2.160739
 20
1.890377
 30
0.0
 10
2.367743
 20
1.989126
 30
0.0
 10
2.382260
 20
2.060275
 30
0.0
 10
2.266015
 20
2.123464
 30
0.0
 10
2.084499
 20
2.194612
 30
0.0
 10
1.895781
 20
2.297341
 30
0.0
 10
1.488977
 20
2.573947
 30
0.0
 10
1.111318
 20
2.988842
 30
0.0
 10
0.849905
 20
3.538075
 30
0.0
 10
0.791838
 20
4.225625
 30
0.0
 10
0.933460
 20
4.830088
 30
0.0
 10
1.202187
 20
5.296235
 30
0.0
 10
1.547155
 20
5.636030
 30
0.0
 10
1.924814
 20
5.869117
 30
0.0
 10
2.269782
 20
6.019344
 30
0.0
 10
2.585717
 20
6.122073
 30
0.0
 10
2.600122
 20
6.477532
 30
0.0
 10
2.603779
 20
6.631654
 30
0.0
 10
2.629267
 20
6.738362
 30
0.0
 10
2.701851
 20
6.959624
 30
0.0
 10
2.701850
 20
6.959793
 30
0.0
  0
LWPOLYLINE
  5
167
100
AcDbEntity
  8
%
 62
7
100
AcDbPolyline
 90
33
 70
0
 10
1.044846
 20
-0.133913
 30
0.0
 10
0.955401
 20
-0.292099
 30
0.0
 10
0.731514
 20
-0.458017
 30
0.0
 10
0.492688
 20
-0.529165
 30
0.0
 10
0.280824
 20
-0.485760
 30
0.0
 10
0.137639
 20
-0.307790
 30
0.0
 10
0.000282
 20
-0.122088
 30
0.0
 10
0.036170
 20
0.217679
 30
0.0
 10
0.200305
 20
0.632602
 30
0.0
 10
0.448057
 20
1.043405
 30
0.0
 10
0.555446
 20
1.181835
 30
0.0
 10
0.621118
 20
1.308214
 30
0.0
 10
0.737525
 20
1.509693
 30
0.0
 10
1.009141
 20
1.873223
 30
0.0
 10
1.372211
 20
2.373801
 30
0.0
 10
3.140169
 20
5.105204
 30
0.0
 10
3.331266
 20
5.448866
 30
0.0
 10
3.552056
 20
5.800458
 30
0.0
 10
3.513253
 20
5.931071
 30
0.0
 10
3.468439
 20
6.069360
 30
0.0
 10
3.698246
 20
6.448582
 30
0.0
 10
4.044552
 20
6.669844
 30
0.0
 10
4.429569
 20
6.737013
 30
0.0
 10
4.781704
 20
6.650060
 30
0.0
 10
5.023444
 20
6.405063
 30
0.0
 10
5.080281
 20
5.998211
 30
0.0
 10
4.766766
 20
5.243408
 30
0.0
 10
4.357885
 20
4.563817
 30
0.0
 10
3.895264
 20
3.927660
 30
0.0
 10
3.426722
 20
3.311484
 30
0.0
 10
1.844846
 20
0.984223
 30
0.0
 10
1.170361
 20
0.008129
 30
0.0
 10
1.044846
 20
-0.133913
 30
0.0
  0
LWPOLYLINE
  5
168
100
AcDbEntity
  8
%
 62
7
100
AcDbPolyline
 90
25
 70
0
 10
2.244802
 20
1.525497
 30
0.0
 10
2.365874
 20
1.744078
 30
0.0
 10
2.699341
 20
2.228710
 30
0.0
 10
3.274428
 20
3.041313
 30
0.0
 10
3.620734
 20
3.193797
 30
0.0
 10
4.062497
 20
3.200853
 30
0.0
 10
4.572756
 20
2.821518
 30
0.0
 10
4.892191
 20
2.228880
 30
0.0
 10
4.901118
 20
1.557134
 30
0.0
 10
4.695174
 20
0.917111
 30
0.0
 10
4.369818
 20
0.427060
 30
0.0
 10
4.157954
 20
0.257190
 30
0.0
 10
3.919129
 20
0.142636
 30
0.0
 10
3.668372
 20
0.063642
 30
0.0
 10
3.426723
 20
0.008186
 30
0.0
 10
3.343107
 20
-0.007336
 30
0.0
 10
3.232620
 20
0.008468
 30
0.0
 10
3.152192
 20
0.024272
 30
0.0
 10
2.823831
 20
0.123022
 30
0.0
 10
2.552215
 20
0.284961
 30
0.0
 10
2.337345
 20
0.545763
 30
0.0
 10
2.191062
 20
0.948861
 30
0.0
 10
2.188056
 20
1.241271
 30
0.0
 10
2.244802
 20
1.525723
 30
0.0
 10
2.244802
 20
1.525497
 30
0.0
  0
LWPOLYLINE
  5
169
100
AcDbEntity
  8
%
 62
7
100
AcDbPolyline
 90
19
 70
0
 10
1.427040
 20
5.642527
 30
0.0
 10
1.880644
 20
5.804438
 30
0.0
 10
2.340259
 20
5.705688
 30
0.0
 10
2.611875
 20
5.448866
 30
0.0
 10
2.668530
 20
5.152476
 30
0.0
 10
2.691139
 20
4.841834
 30
0.0
 10
2.687792
 20
4.500966
 30
0.0
 10
1.549367
 20
2.750313
 30
0.0
 10
1.047943
 20
2.726607
 30
0.0
 10
0.600260
 20
2.999233
 30
0.0
 10
0.334565
 20
3.556171
 30
0.0
 10
0.301774
 20
4.433402
 30
0.0
 10
0.519650
 20
5.057734
 30
0.0
 10
0.901661
 20
5.448894
 30
0.0
 10
1.367288
 20
5.626750
 30
0.0
 10
1.394067
 20
5.630702
 30
0.0
 10
1.421028
 20
5.634653
 30
0.0
 10
1.427040
 20
5.642555
 30
0.0
 10
1.427040
 20
5.642527
 30
0.0
  0
LWPOLYLINE
  5
16a
100
AcDbEntity
  8
%
 62
7
100
AcDbPolyline
 90
13
 70
0
 10
4.083264
 20
1.572995
 30
0.0
 10
4.107219
 20
1.683570
 30
0.0
 10
4.119152
 20
1.794144
 30
0.0
 10
3.838609
 20
1.699233
 30
0.0
 10
3.483469
 20
1.450341
 30
0.0
 10
3.310316
 20
1.233058
 30
0.0
 10
3.217773
 20
0.984195
 30
0.0
 10
3.319242
 20
0.751108
 30
0.0
 10
3.558067
 20
0.723450
 30
0.0
 10
3.793796
 20
0.952558
 30
0.0
 10
3.981795
 20
1.284508
 30
0.0
 10
4.083264
 20
1.573052
 30
0.0
 10
4.083264
 20
1.572995
 30
0.0
  0
LWPOLYLINE
  5
16b
100
AcDbEntity
  8
%
 62
7
100
AcDbPolyline
 90
10
 70
0
 10
1.570225
 20
4.196533
 30
0.0
 10
1.188214
 20
3.856512
 30
0.0
 10
1.182203
 20
3.738091
 30
0.0
 10
1.212079
 20
3.635362
 30
0.0
 10
1.447807
 20
3.678768
 30
0.0
 10
1.656756
 20
3.809126
 30
0.0
 10
1.808960
 20
4.022543
 30
0.0
 10
1.868620
 20
4.314953
 30
0.0
 10
1.716417
 20
4.259610
 30
0.0
 10
1.570225
 20
4.196533
 30
0.0
  0
LWPOLYLINE
  5
16c
100
AcDbEntity
  8
^
 62
7
100
AcDbPolyline
 90
35
 70
0
 10
2.417874
 20
3.906606
 30
0.0
 10
1.532829
 20
3.677272
 30
0.0
 10
1.078369
 20
3.720791
 30
0.0
 10
0.718805
 20
3.902514
 30
0.0
 10
0.541072
 20
4.206721
 30
0.0
 10
0.631868
 20
4.617778
 30
0.0
 10
1.082348
 20
5.147114
 30
0.0
 10
1.517033
 20
5.613401
 30
0.0
 10
1.979210
 20
6.044101
 30
0.0
 10
2.512649
 20
6.474687
 30
0.0
 10
2.662769
 20
6.597313
 30
0.0
 10
2.828685
 20
6.723664
 30
0.0
 10
3.002558
 20
6.826421
 30
0.0
 10
3.184270
 20
6.877644
 30
0.0
 10
3.690096
 20
6.881595
 30
0.0
 10
4.100906
 20
6.616927
 30
0.0
 10
4.128519
 20
6.352146
 30
0.0
 10
3.982499
 20
6.126905
 30
0.0
 10
3.998295
 20
6.020309
 30
0.0
 10
4.006132
 20
5.937364
 30
0.0
 10
4.223414
 20
5.277557
 30
0.0
 10
4.385471
 20
4.609791
 30
0.0
 10
4.555366
 20
4.186909
 30
0.0
 10
4.661957
 20
3.740546
 30
0.0
 10
4.582979
 20
3.369170
 30
0.0
 10
4.203639
 20
3.171530
 30
0.0
 10
3.824300
 20
3.203252
 30
0.0
 10
3.547693
 20
3.448136
 30
0.0
 10
3.535998
 20
3.614054
 30
0.0
 10
3.539977
 20
3.779973
 30
0.0
 10
3.338491
 20
4.222610
 30
0.0
 10
3.073580
 20
4.641372
 30
0.0
 10
2.761524
 20
4.258170
 30
0.0
 10
2.417875
 20
3.906578
 30
0.0
 10
2.417874
 20
3.906606
 30
0.0
  0
LWPOLYLINE
  5
16d
100
AcDbEntity
  8
&
 62
7
100
AcDbPolyline
 90
65
 70
0
 10
4.518289
 20
0.781672
 30
0.0
 10
4.832253
 20
0.817119
 30
0.0
 10
4.883262
 20
0.670985
 30
0.0
 10
4.737251
 20
0.425959
 30
0.0
 10
4.456253
 20
0.165158
 30
0.0
 10
4.102195
 20
-0.024524
 30
0.0
 10
3.744683
 20
-0.056104
 30
0.0
 10
3.536636
 20
0.046737
 30
0.0
 10
3.390625
 20
0.220502
 30
0.0
 10
3.270229
 20
0.410183
 30
0.0
 10
3.146158
 20
0.568256
 30
0.0
 10
2.759244
 20
0.315413
 30
0.0
 10
2.321321
 20
0.113906
 30
0.0
 10
1.876047
 20
-0.008606
 30
0.0
 10
1.467303
 20
-0.016509
 30
0.0
 10
0.697373
 20
0.208733
 30
0.0
 10
0.204654
 20
0.623656
 30
0.0
 10
0.000282
 20
1.267659
 30
0.0
 10
0.095173
 20
2.196114
 30
0.0
 10
0.368820
 20
2.741480
 30
0.0
 10
0.748383
 20
3.231389
 30
0.0
 10
1.175280
 20
3.654158
 30
0.0
 10
1.591374
 20
4.013709
 30
0.0
 10
1.642606
 20
4.053277
 30
0.0
 10
1.627905
 20
5.021158
 30
0.0
 10
1.850542
 20
5.823234
 30
0.0
 10
2.230106
 20
6.439635
 30
0.0
 10
2.686183
 20
6.842733
 30
0.0
 10
3.084012
 20
7.040232
 30
0.0
 10
3.580406
 20
7.131136
 30
0.0
 10
4.087716
 20
7.083638
 30
0.0
 10
4.514725
 20
6.862376
 30
0.0
 10
4.770217
 20
6.431789
 30
0.0
 10
4.766430
 20
5.760157
 30
0.0
 10
4.609615
 20
5.317520
 30
0.0
 10
4.306677
 20
4.811834
 30
0.0
 10
3.861403
 20
4.286336
 30
0.0
 10
3.277579
 20
3.776671
 30
0.0
 10
3.328589
 20
3.420958
 30
0.0
 10
3.434506
 20
3.077183
 30
0.0
 10
3.565816
 20
2.737388
 30
0.0
 10
3.693451
 20
2.401571
 30
0.0
 10
3.744683
 20
2.468853
 30
0.0
 10
3.810282
 20
2.575448
 30
0.0
 10
3.883232
 20
2.686023
 30
0.0
 10
3.948943
 20
2.765017
 30
0.0
 10
4.003739
 20
2.812515
 30
0.0
 10
4.102305
 20
2.871838
 30
0.0
 10
4.226376
 20
2.907398
 30
0.0
 10
4.350336
 20
2.875705
 30
0.0
 10
4.412482
 20
2.903362
 30
0.0
 10
4.467279
 20
2.938810
 30
0.0
 10
4.580324
 20
3.041567
 30
0.0
 10
4.792046
 20
3.065273
 30
0.0
 10
4.992742
 20
3.010042
 30
0.0
 10
5.080283
 20
2.875620
 30
0.0
 10
5.043863
 20
2.689918
 30
0.0
 10
4.941733
 20
2.480594
 30
0.0
 10
4.667975
 20
1.844436
 30
0.0
 10
4.299326
 20
1.263708
 30
0.0
 10
4.284736
 20
1.243670
 30
0.0
 10
4.270145
 20
1.231817
 30
0.0
 10
4.412481
 20
0.998842
 30
0.0
 10
4.518287
 20
0.781559
 30
0.0
 10
4.518289
 20
0.781672
 30
0.0
  0
LWPOLYLINE
  5
16e
100
AcDbEntity
  8
&
 62
7
100
AcDbPolyline
 90
12
 70
0
 10
1.978288
 20
2.527894
 30
0.0
 10
1.686377
 20
2.089462
 30
0.0
 10
1.737497
 20
1.713993
 30
0.0
 10
1.865132
 20
1.587614
 30
0.0
 10
2.025622
 20
1.536250
 30
0.0
 10
2.226430
 20
1.532299
 30
0.0
 10
2.467221
 20
1.548103
 30
0.0
 10
2.379681
 20
1.694351
 30
0.0
 10
2.266636
 20
1.864248
 30
0.0
 10
2.131539
 20
2.121099
 30
0.0
 10
1.978288
 20
2.527922
 30
0.0
 10
1.978288
 20
2.527894
 30
0.0
  0
LWPOLYLINE
  5
16f
100
AcDbEntity
  8
&
 62
7
100
AcDbPolyline
 90
12
 70
0
 10
3.613262
 20
5.846940
 30
0.0
 10
3.518371
 20
5.949669
 30
0.0
 10
3.350419
 20
5.898305
 30
0.0
 10
3.160637
 20
5.728407
 30
0.0
 10
2.992796
 20
5.487361
 30
0.0
 10
2.894341
 20
5.218601
 30
0.0
 10
2.919845
 20
4.969850
 30
0.0
 10
2.978206
 20
5.017235
 30
0.0
 10
3.218996
 20
5.210755
 30
0.0
 10
3.401539
 20
5.333268
 30
0.0
 10
3.547551
 20
5.518970
 30
0.0
 10
3.613262
 20
5.846940
 30
0.0
  0
LWPOLYLINE
  5
170
100
AcDbEntity
  8
*
 62
7
100
AcDbPolyline
 90
78
 70
0
 10
3.801133
 20
4.966989
 30
0.0
 10
4.102872
 20
4.978842
 30
0.0
 10
4.426236
 20
4.959087
 30
0.0
 10
4.735073
 20
4.880121
 30
0.0
 10
5.000328
 20
4.706131
 30
0.0
 10
5.080282
 20
4.453288
 30
0.0
 10
4.887661
 20
4.220201
 30
0.0
 10
4.556979
 20
4.038478
 30
0.0
 10
4.208110
 20
3.931770
 30
0.0
 10
3.801244
 20
3.817216
 30
0.0
 10
3.412454
 20
3.698682
 30
0.0
 10
3.070904
 20
3.584157
 30
0.0
 10
2.820175
 20
3.473582
 30
0.0
 10
3.147198
 20
3.145470
 30
0.0
 10
3.492407
 20
2.778074
 30
0.0
 10
3.823090
 20
2.398852
 30
0.0
 10
4.113629
 20
2.043280
 30
0.0
 10
4.131929
 20
1.845527
 30
0.0
 10
4.015602
 20
1.766561
 30
0.0
 10
3.826641
 20
1.766561
 30
0.0
 10
3.634131
 20
1.813946
 30
0.0
 10
3.492299
 20
1.881228
 30
0.0
 10
3.365104
 20
1.972132
 30
0.0
 10
2.998160
 20
2.213036
 30
0.0
 10
2.638313
 20
2.477846
 30
0.0
 10
2.580205
 20
2.216903
 30
0.0
 10
2.562129
 20
2.011445
 30
0.0
 10
2.551150
 20
1.805987
 30
0.0
 10
2.511229
 20
1.628244
 30
0.0
 10
2.456670
 20
1.474150
 30
0.0
 10
2.198733
 20
1.253001
 30
0.0
 10
1.882577
 20
1.177874
 30
0.0
 10
1.551895
 20
1.229238
 30
0.0
 10
1.261245
 20
1.391318
 30
0.0
 10
1.061416
 20
1.644161
 30
0.0
 10
1.003308
 20
1.964173
 30
0.0
 10
1.163215
 20
2.533076
 30
0.0
 10
1.199366
 20
2.659427
 30
0.0
 10
0.843401
 20
2.564657
 30
0.0
 10
0.581693
 20
2.596238
 30
0.0
 10
0.312778
 20
2.691149
 30
0.0
 10
0.152871
 20
2.853201
 30
0.0
 10
0.218408
 20
3.078330
 30
0.0
 10
0.610747
 20
3.382537
 30
0.0
 10
1.068735
 20
3.639500
 30
0.0
 10
0.955957
 20
3.678927
 30
0.0
 10
0.799709
 20
3.734271
 30
0.0
 10
0.618066
 20
3.797460
 30
0.0
 10
0.443743
 20
3.868580
 30
0.0
 10
0.076576
 20
4.121451
 30
0.0
 10
0.000282
 20
4.421792
 30
0.0
 10
0.109290
 20
4.643054
 30
0.0
 10
0.305570
 20
4.650957
 30
0.0
 10
0.487213
 20
4.947234
 30
0.0
 10
0.770655
 20
5.069718
 30
0.0
 10
1.101337
 20
5.049962
 30
0.0
 10
1.424701
 20
4.927450
 30
0.0
 10
1.541027
 20
4.848343
 30
0.0
 10
1.617322
 20
4.781202
 30
0.0
 10
1.682748
 20
4.702208
 30
0.0
 10
1.773570
 20
4.603346
 30
0.0
 10
1.806283
 20
4.520514
 30
0.0
 10
1.838996
 20
4.445386
 30
0.0
 10
2.253292
 20
5.314630
 30
0.0
 10
2.703739
 20
6.049565
 30
0.0
 10
2.947259
 20
6.247064
 30
0.0
 10
3.223494
 20
6.251016
 30
0.0
 10
3.416114
 20
6.073159
 30
0.0
 10
3.408796
 20
5.733364
 30
0.0
 10
3.303448
 20
5.484500
 30
0.0
 10
3.219835
 20
5.263238
 30
0.0
 10
3.147089
 20
5.037996
 30
0.0
 10
3.081663
 20
4.777195
 30
0.0
 10
3.168935
 20
4.816847
 30
0.0
 10
3.263527
 20
4.848315
 30
0.0
 10
3.532331
 20
4.911617
 30
0.0
 10
3.801135
 20
4.966961
 30
0.0
 10
3.801133
 20
4.966989
 30
0.0
  0
LWPOLYLINE
  5
171
100
AcDbEntity
  8
(
 62
7
100
AcDbPolyline
 90
27
 70
0
 10
0.423333
 20
2.671235
 30
0.0
 10
0.727673
 20
4.366318
 30
0.0
 10
1.205766
 20
5.650485
 30
0.0
 10
1.774775
 20
6.551310
 30
0.0
 10
2.347643
 20
7.096564
 30
0.0
 10
2.841532
 20
7.317826
 30
0.0
 10
3.181201
 20
7.246706
 30
0.0
 10
3.517132
 20
7.546934
 30
0.0
 10
3.928063
 20
7.649663
 30
0.0
 10
4.319219
 20
7.590453
 30
0.0
 10
4.595826
 20
7.416604
 30
0.0
 10
4.662988
 20
7.175558
 30
0.0
 10
4.421952
 20
6.906910
 30
0.0
 10
3.426216
 20
6.077092
 30
0.0
 10
2.632087
 20
5.081469
 30
0.0
 10
2.059220
 20
3.844828
 30
0.0
 10
1.743184
 20
2.291900
 30
0.0
 10
1.743063
 20
1.517538
 30
0.0
 10
1.849775
 20
0.901137
 30
0.0
 10
1.976262
 20
0.434990
 30
0.0
 10
2.035466
 20
0.103154
 30
0.0
 10
1.948529
 20
-0.102304
 30
0.0
 10
1.624535
 20
-0.189370
 30
0.0
 10
1.031892
 20
0.099061
 30
0.0
 10
0.652553
 20
0.822171
 30
0.0
 10
0.459025
 20
1.754718
 30
0.0
 10
0.423333
 20
2.671235
 30
0.0
  0
LWPOLYLINE
  5
172
100
AcDbEntity
  8
)
 62
7
100
AcDbPolyline
 90
25
 70
0
 10
0.292685
 20
0.675726
 30
0.0
 10
1.387175
 20
1.865123
 30
0.0
 10
2.062775
 20
3.366574
 30
0.0
 10
2.378931
 20
5.018138
 30
0.0
 10
2.394848
 20
6.665836
 30
0.0
 10
2.501439
 20
7.294035
 30
0.0
 10
2.817475
 20
7.685195
 30
0.0
 10
3.244201
 20
7.831329
 30
0.0
 10
3.678886
 20
7.728600
 30
0.0
 10
4.014697
 20
7.365070
 30
0.0
 10
4.149022
 20
6.736730
 30
0.0
 10
4.141184
 20
6.337866
 30
0.0
 10
4.117430
 20
5.938747
 30
0.0
 10
3.986964
 20
4.804694
 30
0.0
 10
3.655132
 20
3.595654
 30
0.0
 10
3.173181
 20
2.426181
 30
0.0
 10
2.592355
 20
1.426465
 30
0.0
 10
2.149832
 20
0.814156
 30
0.0
 10
1.655944
 20
0.237322
 30
0.0
 10
1.181830
 20
-0.114299
 30
0.0
 10
0.790673
 20
-0.059068
 30
0.0
 10
0.312580
 20
-0.189398
 30
0.0
 10
0.028015
 20
0.004235
 30
0.0
 10
0.000282
 20
0.347897
 30
0.0
 10
0.292685
 20
0.675726
 30
0.0
  0
LWPOLYLINE
  5
173
100
AcDbEntity
  8
_
 62
7
100
AcDbPolyline
 90
31
 70
0
 10
4.689061
 20
-0.151072
 30
0.0
 10
4.951806
 20
-0.380180
 30
0.0
 10
5.080282
 20
-0.759515
 30
0.0
 10
4.995641
 20
-1.154654
 30
0.0
 10
4.624733
 20
-1.415456
 30
0.0
 10
4.467122
 20
-1.454911
 30
0.0
 10
4.326974
 20
-1.502409
 30
0.0
 10
4.181034
 20
-1.533989
 30
0.0
 10
4.005871
 20
-1.526087
 30
0.0
 10
3.378188
 20
-1.526087
 30
0.0
 10
2.931548
 20
-1.526087
 30
0.0
 10
2.543267
 20
-1.530038
 30
0.0
 10
2.093598
 20
-1.545843
 30
0.0
 10
1.462975
 20
-1.577564
 30
0.0
 10
0.531652
 20
-1.620970
 30
0.0
 10
0.117087
 20
-1.423443
 30
0.0
 10
0.000282
 20
-1.127081
 30
0.0
 10
0.131699
 20
-0.806928
 30
0.0
 10
0.467503
 20
-0.530464
 30
0.0
 10
0.636786
 20
0.006859
 30
0.0
 10
0.876187
 20
0.034517
 30
0.0
 10
1.299484
 20
0.030566
 30
0.0
 10
1.775347
 20
0.002908
 30
0.0
 10
2.172449
 20
-0.036659
 30
0.0
 10
2.365164
 20
-0.072219
 30
0.0
 10
2.219135
 20
-0.088024
 30
0.0
 10
2.779639
 20
-0.064317
 30
0.0
 10
3.427814
 20
-0.076170
 30
0.0
 10
4.087661
 20
-0.107751
 30
0.0
 10
4.689061
 20
-0.151157
 30
0.0
 10
4.689061
 20
-0.151072
 30
0.0
  0
LWPOLYLINE
  5
174
100
AcDbEntity
  8
-
 62
7
100
AcDbPolyline
 90
27
 70
0
 10
1.211272
 20
2.884115
 30
0.0
 10
0.772608
 20
2.959242
 30
0.0
 10
0.527713
 20
3.152903
 30
0.0
 10
0.559305
 20
3.405746
 30
0.0
 10
0.950340
 20
3.650772
 30
0.0
 10
1.092623
 20
3.666294
 30
0.0
 10
1.412758
 20
4.053587
 30
0.0
 10
2.191091
 20
4.298613
 30
0.0
 10
2.360986
 20
4.306515
 30
0.0
 10
2.649410
 20
4.314417
 30
0.0
 10
3.005116
 20
4.314417
 30
0.0
 10
3.384335
 20
4.306515
 30
0.0
 10
3.518659
 20
4.334173
 30
0.0
 10
3.700491
 20
4.346026
 30
0.0
 10
4.245626
 20
4.278857
 30
0.0
 10
4.632803
 20
4.061574
 30
0.0
 10
4.751331
 20
3.713961
 30
0.0
 10
4.482803
 20
3.263478
 30
0.0
 10
4.221992
 20
3.148811
 30
0.0
 10
3.961181
 20
3.042329
 30
0.0
 10
3.317173
 20
2.896053
 30
0.0
 10
2.641572
 20
2.860493
 30
0.0
 10
1.958013
 20
2.872346
 30
0.0
 10
1.290130
 20
2.884200
 30
0.0
 10
1.258659
 20
2.876297
 30
0.0
 10
1.219230
 20
2.868677
 30
0.0
 10
1.211272
 20
2.884115
 30
0.0
  0
LWPOLYLINE
  5
175
100
AcDbEntity
  8
+
 62
7
100
AcDbPolyline
 90
56
 70
0
 10
3.074654
 20
2.797275
 30
0.0
 10
2.912596
 20
2.204524
 30
0.0
 10
2.770435
 20
1.841106
 30
0.0
 10
2.636110
 20
1.643466
 30
0.0
 10
2.497807
 20
1.552562
 30
0.0
 10
2.343708
 20
1.505177
 30
0.0
 10
2.165734
 20
1.438121
 30
0.0
 10
1.731170
 20
1.339259
 30
0.0
 10
1.371605
 20
1.461771
 30
0.0
 10
1.170119
 20
1.769958
 30
0.0
 10
1.209789
 20
2.236104
 30
0.0
 10
1.284789
 20
2.473284
 30
0.0
 10
1.367747
 20
2.702279
 30
0.0
 10
1.201831
 20
2.820925
 30
0.0
 10
1.083182
 20
2.971152
 30
0.0
 10
0.747371
 20
3.133091
 30
0.0
 10
0.474744
 20
3.295030
 30
0.0
 10
0.336440
 20
3.492671
 30
0.0
 10
0.348377
 20
3.650743
 30
0.0
 10
0.482702
 20
3.777094
 30
0.0
 10
0.711800
 20
3.879823
 30
0.0
 10
1.071365
 20
3.867970
 30
0.0
 10
1.241260
 20
3.864019
 30
0.0
 10
1.581170
 20
3.808675
 30
0.0
 10
1.723332
 20
3.784968
 30
0.0
 10
1.881411
 20
3.769164
 30
0.0
 10
2.106530
 20
4.397503
 30
0.0
 10
2.292341
 20
5.025589
 30
0.0
 10
2.276424
 20
5.286532
 30
0.0
 10
2.742701
 20
5.677579
 30
0.0
 10
3.366935
 20
5.807909
 30
0.0
 10
3.639562
 20
5.811860
 30
0.0
 10
3.880598
 20
5.752537
 30
0.0
 10
4.030718
 20
5.618114
 30
0.0
 10
4.030839
 20
5.404811
 30
0.0
 10
4.117655
 20
5.302054
 30
0.0
 10
4.188796
 20
5.191366
 30
0.0
 10
4.034697
 20
4.847732
 30
0.0
 10
3.837190
 20
4.527721
 30
0.0
 10
3.619908
 20
4.211688
 30
0.0
 10
3.414442
 20
3.887669
 30
0.0
 10
3.398525
 20
3.840171
 30
0.0
 10
3.382850
 20
3.784940
 30
0.0
 10
3.777865
 20
3.820387
 30
0.0
 10
4.204712
 20
3.879710
 30
0.0
 10
4.579952
 20
3.848017
 30
0.0
 10
4.880313
 20
3.713679
 30
0.0
 10
4.955313
 20
3.508221
 30
0.0
 10
4.654952
 20
3.263337
 30
0.0
 10
4.378466
 20
3.211972
 30
0.0
 10
4.011064
 20
3.121153
 30
0.0
 10
3.639562
 20
3.026270
 30
0.0
 10
3.358976
 20
2.955122
 30
0.0
 10
3.228631
 20
2.911603
 30
0.0
 10
3.074652
 20
2.797162
 30
0.0
 10
3.074654
 20
2.797275
 30
0.0
  0
LWPOLYLINE
  5
176
100
AcDbEntity
  8
+
 62
7
100
AcDbPolyline
 90
7
 70
0
 10
3.366936
 20
3.785053
 30
0.0
 10
3.378874
 20
3.820500
 30
0.0
 10
3.382853
 20
3.848158
 30
0.0
 10
3.378874
 20
3.836304
 30
0.0
 10
3.374894
 20
3.816549
 30
0.0
 10
3.358977
 20
3.784940
 30
0.0
 10
3.366936
 20
3.785053
 30
0.0
  0
LWPOLYLINE
  5
177
100
AcDbEntity
  8
=
 62
7
100
AcDbPolyline
 90
20
 70
0
 10
1.077142
 20
1.991756
 30
0.0
 10
0.583253
 20
2.070976
 30
0.0
 10
0.334379
 20
2.359407
 30
0.0
 10
0.369950
 20
2.711000
 30
0.0
 10
0.721677
 20
2.987493
 30
0.0
 10
1.452623
 20
3.181126
 30
0.0
 10
2.242772
 20
3.252274
 30
0.0
 10
3.040880
 20
3.279932
 30
0.0
 10
3.811376
 20
3.350939
 30
0.0
 10
4.277653
 20
3.351052
 30
0.0
 10
4.546301
 20
3.196958
 30
0.0
 10
4.621421
 20
2.944115
 30
0.0
 10
4.506872
 20
2.651705
 30
0.0
 10
4.202532
 20
2.379078
 30
0.0
 10
3.708643
 20
2.189538
 30
0.0
 10
3.044860
 20
2.098493
 30
0.0
 10
2.444259
 20
2.055087
 30
0.0
 10
1.816046
 20
2.031380
 30
0.0
 10
1.077142
 20
1.991841
 30
0.0
 10
1.077142
 20
1.991756
 30
0.0
  0
LWPOLYLINE
  5
178
100
AcDbEntity
  8
=
 62
7
100
AcDbPolyline
 90
28
 70
0
 10
4.174799
 20
5.121008
 30
0.0
 10
4.838704
 20
4.895880
 30
0.0
 10
5.016436
 20
4.524503
 30
0.0
 10
4.728013
 20
4.172883
 30
0.0
 10
4.000925
 20
4.014810
 30
0.0
 10
3.850926
 20
4.026663
 30
0.0
 10
3.712622
 20
4.030614
 30
0.0
 10
3.724439
 20
4.030614
 30
0.0
 10
4.024800
 20
4.038234
 30
0.0
 10
4.005024
 20
4.042186
 30
0.0
 10
3.894333
 20
4.050088
 30
0.0
 10
3.752051
 20
4.050088
 30
0.0
 10
3.645460
 20
4.038234
 30
0.0
 10
3.550685
 20
4.022430
 30
0.0
 10
3.206916
 20
3.761628
 30
0.0
 10
2.701211
 20
3.647074
 30
0.0
 10
2.155955
 20
3.627319
 30
0.0
 10
1.685579
 20
3.651026
 30
0.0
 10
1.357727
 20
3.765467
 30
0.0
 10
1.140445
 20
3.935477
 30
0.0
 10
1.065324
 20
4.136956
 30
0.0
 10
1.164199
 20
4.346280
 30
0.0
 10
1.559213
 20
4.646508
 30
0.0
 10
1.954348
 20
4.757224
 30
0.0
 10
2.357442
 20
4.836302
 30
0.0
 10
3.266120
 20
5.018025
 30
0.0
 10
4.174799
 20
5.120641
 30
0.0
 10
4.174799
 20
5.121008
 30
0.0
  0
LWPOLYLINE
  5
179
100
AcDbEntity
  8
{
 62
7
100
AcDbPolyline
 90
74
 70
0
 10
2.434930
 20
7.293611
 30
0.0
 10
2.573233
 20
7.404045
 30
0.0
 10
2.735170
 20
7.475193
 30
0.0
 10
2.901206
 20
7.562259
 30
0.0
 10
3.130426
 20
7.633407
 30
0.0
 10
3.296341
 20
7.668854
 30
0.0
 10
3.434645
 20
7.680707
 30
0.0
 10
3.572948
 20
7.676756
 30
0.0
 10
3.746822
 20
7.672805
 30
0.0
 10
3.770456
 20
7.665185
 30
0.0
 10
4.216837
 20
7.495287
 30
0.0
 10
4.461852
 20
7.258108
 30
0.0
 10
4.434239
 20
6.981502
 30
0.0
 10
4.062737
 20
6.685112
 30
0.0
 10
3.908759
 20
6.645686
 30
0.0
 10
3.632152
 20
6.254526
 30
0.0
 10
3.584765
 20
5.827777
 30
0.0
 10
3.572948
 20
5.389232
 30
0.0
 10
3.454299
 20
4.970471
 30
0.0
 10
3.209404
 20
4.571352
 30
0.0
 10
2.980305
 20
4.290767
 30
0.0
 10
2.711536
 20
4.093268
 30
0.0
 10
2.355830
 20
3.943154
 30
0.0
 10
2.411296
 20
3.856201
 30
0.0
 10
2.367767
 20
3.749493
 30
0.0
 10
2.296626
 20
3.619163
 30
0.0
 10
2.276972
 20
3.461062
 30
0.0
 10
2.265035
 20
3.058105
 30
0.0
 10
2.158323
 20
2.674904
 30
0.0
 10
2.035936
 20
2.311345
 30
0.0
 10
1.980591
 20
1.967598
 30
0.0
 10
2.079344
 20
1.647586
 30
0.0
 10
2.411296
 20
1.351197
 30
0.0
 10
2.731311
 20
1.153698
 30
0.0
 10
2.992122
 20
0.932435
 30
0.0
 10
3.138263
 20
0.675585
 30
0.0
 10
3.130426
 20
0.371378
 30
0.0
 10
2.818249
 20
0.094772
 30
0.0
 10
2.513909
 20
-0.015916
 30
0.0
 10
2.178098
 20
-0.039623
 30
0.0
 10
1.810575
 20
-0.008014
 30
0.0
 10
1.632963
 20
0.031413
 30
0.0
 10
1.455110
 20
0.110378
 30
0.0
 10
1.158849
 20
0.311998
 30
0.0
 10
0.826897
 20
0.635989
 30
0.0
 10
0.546311
 20
0.991561
 30
0.0
 10
0.404150
 20
1.303642
 30
0.0
 10
0.467333
 20
1.829225
 30
0.0
 10
0.680756
 20
2.323226
 30
0.0
 10
0.838714
 20
2.615411
 30
0.0
 10
1.032363
 20
3.010522
 30
0.0
 10
1.127137
 20
3.397844
 30
0.0
 10
0.988955
 20
3.658533
 30
0.0
 10
0.684735
 20
3.757423
 30
0.0
 10
0.570065
 20
3.808788
 30
0.0
 10
0.392333
 20
3.871977
 30
0.0
 10
0.277663
 20
3.966860
 30
0.0
 10
0.273684
 20
4.093240
 30
0.0
 10
0.419825
 20
4.251312
 30
0.0
 10
0.846672
 20
4.346082
 30
0.0
 10
1.320666
 20
4.452791
 30
0.0
 10
1.786942
 20
4.622688
 30
0.0
 10
2.146507
 20
4.859755
 30
0.0
 10
2.308564
 20
5.167942
 30
0.0
 10
2.296627
 20
5.361603
 30
0.0
 10
2.190036
 20
5.567032
 30
0.0
 10
2.099120
 20
5.847618
 30
0.0
 10
2.031957
 20
6.140028
 30
0.0
 10
2.016041
 20
6.369249
 30
0.0
 10
2.047753
 20
6.641734
 30
0.0
 10
2.118895
 20
6.859017
 30
0.0
 10
2.241402
 20
7.060637
 30
0.0
 10
2.434930
 20
7.293837
 30
0.0
 10
2.434930
 20
7.293611
 30
0.0
  0
LWPOLYLINE
  5
17a
100
AcDbEntity
  8
}
 62
7
100
AcDbPolyline
 90
81
 70
0
 10
2.714723
 20
0.447832
 30
0.0
 10
2.580399
 20
0.329298
 30
0.0
 10
2.422200
 20
0.250332
 30
0.0
 10
2.264243
 20
0.159400
 30
0.0
 10
2.035144
 20
0.076455
 30
0.0
 10
1.869107
 20
0.029070
 30
0.0
 10
1.734783
 20
0.009315
 30
0.0
 10
1.600459
 20
0.005364
 30
0.0
 10
1.426706
 20
0.005364
 30
0.0
 10
1.402831
 20
0.013266
 30
0.0
 10
0.952471
 20
0.163380
 30
0.0
 10
0.695639
 20
0.388621
 30
0.0
 10
0.707456
 20
0.669094
 30
0.0
 10
1.063041
 20
0.977168
 30
0.0
 10
1.217261
 20
1.020686
 30
0.0
 10
1.446360
 20
1.419805
 30
0.0
 10
1.422726
 20
1.842546
 30
0.0
 10
1.359423
 20
2.277252
 30
0.0
 10
1.434422
 20
2.699993
 30
0.0
 10
2.106164
 20
3.423103
 30
0.0
 10
3.046555
 20
3.798458
 30
0.0
 10
2.821315
 20
3.995845
 30
0.0
 10
2.690849
 20
4.280522
 30
0.0
 10
2.667336
 20
4.651786
 30
0.0
 10
2.730519
 20
5.027141
 30
0.0
 10
2.833252
 20
5.398546
 30
0.0
 10
2.935864
 20
5.766055
 30
0.0
 10
2.900293
 20
5.943799
 30
0.0
 10
2.912231
 20
6.086067
 30
0.0
 10
2.908252
 20
6.220518
 30
0.0
 10
2.825173
 20
6.374498
 30
0.0
 10
2.647441
 20
6.504828
 30
0.0
 10
2.461750
 20
6.635187
 30
0.0
 10
2.125940
 20
6.686664
 30
0.0
 10
1.861270
 20
6.817023
 30
0.0
 10
1.703192
 20
7.034306
 30
0.0
 10
1.695354
 20
7.330695
 30
0.0
 10
1.734663
 20
7.393857
 30
0.0
 10
2.291976
 20
7.745590
 30
0.0
 10
2.999047
 20
7.773248
 30
0.0
 10
3.176900
 20
7.737688
 30
0.0
 10
3.354753
 20
7.670519
 30
0.0
 10
3.615444
 20
7.512559
 30
0.0
 10
3.868296
 20
7.279359
 30
0.0
 10
4.073762
 20
7.002753
 30
0.0
 10
4.184574
 20
6.730268
 30
0.0
 10
4.330594
 20
6.058522
 30
0.0
 10
4.231840
 20
5.497464
 30
0.0
 10
4.144903
 20
5.315629
 30
0.0
 10
4.026375
 20
5.070632
 30
0.0
 10
3.911825
 20
4.794138
 30
0.0
 10
3.840684
 20
4.525491
 30
0.0
 10
3.852501
 20
4.296270
 30
0.0
 10
3.986825
 20
4.146015
 30
0.0
 10
4.042170
 20
4.134162
 30
0.0
 10
4.156720
 20
4.102553
 30
0.0
 10
4.295023
 20
4.063014
 30
0.0
 10
4.413672
 20
4.019608
 30
0.0
 10
4.595384
 20
3.960398
 30
0.0
 10
4.709933
 20
3.869494
 30
0.0
 10
4.721750
 20
3.743002
 30
0.0
 10
4.587546
 20
3.577083
 30
0.0
 10
4.358206
 20
3.490131
 30
0.0
 10
4.160699
 20
3.466424
 30
0.0
 10
3.690564
 20
3.332199
 30
0.0
 10
3.236104
 20
3.142546
 30
0.0
 10
2.892456
 20
2.889703
 30
0.0
 10
2.746315
 20
2.573642
 30
0.0
 10
2.746315
 20
2.447037
 30
0.0
 10
2.769949
 20
2.320686
 30
0.0
 10
2.765970
 20
2.380010
 30
0.0
 10
2.785865
 20
2.383961
 30
0.0
 10
2.884498
 20
2.182454
 30
0.0
 10
2.983252
 20
1.902010
 30
0.0
 10
3.062351
 20
1.613579
 30
0.0
 10
3.094063
 20
1.388224
 30
0.0
 10
3.070309
 20
1.111731
 30
0.0
 10
3.010984
 20
0.894448
 30
0.0
 10
2.896314
 20
0.688990
 30
0.0
 10
2.714723
 20
0.447944
 30
0.0
 10
2.714723
 20
0.447832
 30
0.0
  0
LWPOLYLINE
  5
17b
100
AcDbEntity
  8
[
 62
7
100
AcDbPolyline
 90
57
 70
0
 10
3.291709
 20
6.792272
 30
0.0
 10
2.959636
 20
5.899264
 30
0.0
 10
2.888495
 20
5.535847
 30
0.0
 10
2.746333
 20
4.903528
 30
0.0
 10
2.592234
 20
4.235903
 30
0.0
 10
2.445973
 20
3.568137
 30
0.0
 10
2.343240
 20
2.927972
 30
0.0
 10
2.197220
 20
2.145680
 30
0.0
 10
2.003450
 20
1.371319
 30
0.0
 10
2.698946
 20
1.418591
 30
0.0
 10
3.323180
 20
1.248806
 30
0.0
 10
3.647174
 20
0.889255
 30
0.0
 10
3.572174
 20
0.474332
 30
0.0
 10
2.991228
 20
0.138516
 30
0.0
 10
2.236649
 20
0.146418
 30
0.0
 10
1.478090
 20
0.051648
 30
0.0
 10
0.747144
 20
0.000284
 30
0.0
 10
0.075403
 20
0.146531
 30
0.0
 10
0.067444
 20
0.162336
 30
0.0
 10
0.000282
 20
0.664183
 30
0.0
 10
0.312460
 20
0.984195
 30
0.0
 10
0.640433
 20
2.406651
 30
0.0
 10
0.992039
 20
3.876493
 30
0.0
 10
1.323991
 20
5.358160
 30
0.0
 10
1.600477
 20
6.824050
 30
0.0
 10
1.628211
 20
7.041333
 30
0.0
 10
1.655823
 20
7.282351
 30
0.0
 10
1.691393
 20
7.503613
 30
0.0
 10
1.734802
 20
7.669531
 30
0.0
 10
1.805943
 20
7.827491
 30
0.0
 10
1.833676
 20
7.855149
 30
0.0
 10
1.853451
 20
7.882807
 30
0.0
 10
1.869126
 20
7.874904
 30
0.0
 10
2.058916
 20
8.056740
 30
0.0
 10
2.347340
 20
8.139572
 30
0.0
 10
2.679292
 20
8.186986
 30
0.0
 10
3.015102
 20
8.175132
 30
0.0
 10
3.315342
 20
8.096026
 30
0.0
 10
3.568195
 20
8.060578
 30
0.0
 10
3.694682
 20
8.032921
 30
0.0
 10
3.777519
 20
8.032921
 30
0.0
 10
3.876273
 20
8.040823
 30
0.0
 10
4.291183
 20
8.052676
 30
0.0
 10
4.690177
 20
7.985536
 30
0.0
 10
4.872130
 20
7.716747
 30
0.0
 10
4.887925
 20
7.369134
 30
0.0
 10
4.753481
 20
7.226838
 30
0.0
 10
4.579727
 20
7.159556
 30
0.0
 10
4.386078
 20
7.135849
 30
0.0
 10
4.192430
 20
7.131898
 30
0.0
 10
3.888211
 20
7.104240
 30
0.0
 10
3.591949
 20
7.060834
 30
0.0
 10
3.583991
 20
7.056883
 30
0.0
 10
3.576032
 20
7.052932
 30
0.0
 10
3.576032
 20
7.037128
 30
0.0
 10
3.449666
 20
6.894831
 30
0.0
 10
3.291709
 20
6.792272
 30
0.0
  0
LWPOLYLINE
  5
17c
100
AcDbEntity
  8
]
 62
7
100
AcDbPolyline
 90
53
 70
0
 10
2.872585
 20
5.942924
 30
0.0
 10
2.908035
 20
6.136444
 30
0.0
 10
2.971339
 20
6.503954
 30
0.0
 10
3.038501
 20
6.875471
 30
0.0
 10
3.077809
 20
7.072970
 30
0.0
 10
3.093727
 20
7.175699
 30
0.0
 10
2.753937
 20
7.144118
 30
0.0
 10
2.386414
 20
7.155972
 30
0.0
 10
2.015033
 20
7.187552
 30
0.0
 10
1.671385
 20
7.215210
 30
0.0
 10
1.220904
 20
7.309980
 30
0.0
 10
0.964193
 20
7.519417
 30
0.0
 10
0.968051
 20
7.831470
 30
0.0
 10
1.292045
 20
8.226610
 30
0.0
 10
1.987420
 20
8.392528
 30
0.0
 10
2.706429
 20
8.416235
 30
0.0
 10
3.275559
 20
8.428088
 30
0.0
 10
3.789223
 20
8.463676
 30
0.0
 10
4.219808
 20
8.479481
 30
0.0
 10
4.543802
 20
8.424137
 30
0.0
 10
4.733471
 20
8.250260
 30
0.0
 10
4.761084
 20
7.910352
 30
0.0
 10
4.808471
 20
7.839203
 30
0.0
 10
4.930979
 20
7.752251
 30
0.0
 10
5.053487
 20
7.665439
 30
0.0
 10
5.100874
 20
7.594432
 30
0.0
 10
4.184237
 20
4.678484
 30
0.0
 10
3.307150
 20
1.588658
 30
0.0
 10
3.220093
 20
1.138288
 30
0.0
 10
3.129177
 20
0.727373
 30
0.0
 10
3.002811
 20
0.395423
 30
0.0
 10
2.809162
 20
0.197924
 30
0.0
 10
2.497105
 20
0.106992
 30
0.0
 10
2.030949
 20
0.035844
 30
0.0
 10
1.493532
 20
0.000284
 30
0.0
 10
0.964072
 20
0.023990
 30
0.0
 10
0.521550
 20
0.130586
 30
0.0
 10
0.241084
 20
0.332177
 30
0.0
 10
0.197556
 20
0.553439
 30
0.0
 10
0.343817
 20
0.735162
 30
0.0
 10
0.671670
 20
0.861626
 30
0.0
 10
1.051009
 20
0.936640
 30
0.0
 10
1.375003
 20
0.984026
 30
0.0
 10
1.537060
 20
1.035390
 30
0.0
 10
1.698997
 20
1.355515
 30
0.0
 10
1.857075
 20
1.790080
 30
0.0
 10
1.999237
 20
2.264214
 30
0.0
 10
2.121865
 20
2.694800
 30
0.0
 10
2.319252
 20
3.552332
 30
0.0
 10
2.477330
 20
4.255546
 30
0.0
 10
2.647225
 20
4.990368
 30
0.0
 10
2.872586
 20
5.942698
 30
0.0
 10
2.872585
 20
5.942924
 30
0.0
  0
LWPOLYLINE
  5
17d
100
AcDbEntity
  8
|
 62
7
100
AcDbPolyline
 90
61
 70
0
 10
2.488633
 20
8.048894
 30
0.0
 10
2.666486
 20
7.424421
 30
0.0
 10
2.828423
 20
6.792215
 30
0.0
 10
3.263108
 20
5.310662
 30
0.0
 10
3.713588
 20
3.892184
 30
0.0
 10
4.124399
 20
2.469728
 30
0.0
 10
4.448272
 20
0.976236
 30
0.0
 10
4.456231
 20
0.431096
 30
0.0
 10
4.187583
 20
0.099146
 30
0.0
 10
3.831997
 20
0.000284
 30
0.0
 10
3.587102
 20
0.154377
 30
0.0
 10
3.014114
 20
1.541273
 30
0.0
 10
2.500450
 20
3.026919
 30
0.0
 10
2.006561
 20
4.520411
 30
0.0
 10
1.484939
 20
5.938775
 30
0.0
 10
1.141412
 20
6.780531
 30
0.0
 10
0.726502
 20
7.582494
 30
0.0
 10
0.639565
 20
7.898639
 30
0.0
 10
0.710585
 20
8.119789
 30
0.0
 10
0.647402
 20
8.258219
 30
0.0
 10
0.592057
 20
8.404353
 30
0.0
 10
0.564444
 20
8.550601
 30
0.0
 10
0.592178
 20
8.688918
 30
0.0
 10
0.829114
 20
8.949720
 30
0.0
 10
1.097883
 20
9.060294
 30
0.0
 10
1.394265
 20
9.068196
 30
0.0
 10
1.722238
 20
9.020811
 30
0.0
 10
2.342493
 20
8.606001
 30
0.0
 10
2.433409
 20
8.214982
 30
0.0
 10
2.488634
 20
8.049064
 30
0.0
 10
2.488633
 20
8.048894
 30
0.0
 10
2.666486
 20
7.424421
 30
0.0
 10
2.828423
 20
6.792215
 30
0.0
 10
3.263108
 20
5.310662
 30
0.0
 10
3.713588
 20
3.892184
 30
0.0
 10
4.124399
 20
2.469728
 30
0.0
 10
4.448272
 20
0.976236
 30
0.0
 10
4.456231
 20
0.431096
 30
0.0
 10
4.187583
 20
0.099146
 30
0.0
 10
3.831997
 20
0.000284
 30
0.0
 10
3.587102
 20
0.154377
 30
0.0
 10
3.014114
 20
1.541273
 30
0.0
 10
2.500450
 20
3.026919
 30
0.0
 10
2.006561
 20
4.520411
 30
0.0
 10
1.484939
 20
5.938775
 30
0.0
 10
1.141412
 20
6.780531
 30
0.0
 10
0.726502
 20
7.582494
 30
0.0
 10
0.639565
 20
7.898639
 30
0.0
 10
0.710585
 20
8.119789
 30
0.0
 10
0.647402
 20
8.258219
 30
0.0
 10
0.592057
 20
8.404353
 30
0.0
 10
0.564444
 20
8.550601
 30
0.0
 10
0.592178
 20
8.688918
 30
0.0
 10
0.829114
 20
8.949720
 30
0.0
 10
1.097883
 20
9.060294
 30
0.0
 10
1.394265
 20
9.068196
 30
0.0
 10
1.722238
 20
9.020811
 30
0.0
 10
2.342493
 20
8.606001
 30
0.0
 10
2.433409
 20
8.214982
 30
0.0
 10
2.488634
 20
8.049064
 30
0.0
 10
2.488633
 20
8.048894
 30
0.0
  0
LWPOLYLINE
  5
17e
100
AcDbEntity
  8
;
 62
7
100
AcDbPolyline
 90
15
 70
0
 10
4.046849
 20
2.181269
 30
0.0
 10
3.742509
 20
1.904776
 30
0.0
 10
3.299986
 20
1.750682
 30
0.0
 10
2.814056
 20
1.726976
 30
0.0
 10
2.391187
 20
1.837663
 30
0.0
 10
2.130376
 20
2.090534
 30
0.0
 10
2.134476
 20
2.497470
 30
0.0
 10
2.158109
 20
2.544997
 30
0.0
 10
2.490061
 20
2.880672
 30
0.0
 10
2.964175
 20
3.038744
 30
0.0
 10
3.465902
 20
3.038744
 30
0.0
 10
3.888649
 20
2.896476
 30
0.0
 10
4.125706
 20
2.619870
 30
0.0
 10
4.070482
 20
2.228823
 30
0.0
 10
4.046849
 20
2.181269
 30
0.0
  0
LWPOLYLINE
  5
17f
100
AcDbEntity
  8
;
 62
7
100
AcDbPolyline
 90
27
 70
0
 10
3.446127
 20
0.869613
 30
0.0
 10
3.533185
 20
0.750966
 30
0.0
 10
3.556818
 20
0.727260
 30
0.0
 10
3.675226
 20
0.608585
 30
0.0
 10
3.695123
 20
0.419045
 30
0.0
 10
3.714777
 20
0.229504
 30
0.0
 10
3.572615
 20
-0.126208
 30
0.0
 10
3.280212
 20
-0.442354
 30
0.0
 10
2.948260
 20
-0.766232
 30
0.0
 10
2.549266
 20
-0.979648
 30
0.0
 10
2.130498
 20
-1.027034
 30
0.0
 10
1.731504
 20
-0.845339
 30
0.0
 10
1.676038
 20
-0.675441
 30
0.0
 10
1.731504
 20
-0.513502
 30
0.0
 10
1.861729
 20
-0.276435
 30
0.0
 10
1.976278
 20
-0.007675
 30
0.0
 10
1.786729
 20
0.205516
 30
0.0
 10
1.695813
 20
0.592809
 30
0.0
 10
1.849912
 20
0.877261
 30
0.0
 10
2.165948
 20
1.058956
 30
0.0
 10
2.561083
 20
1.130104
 30
0.0
 10
2.742915
 20
1.134055
 30
0.0
 10
2.877239
 20
1.118250
 30
0.0
 10
3.007585
 20
1.086670
 30
0.0
 10
3.177480
 20
1.035305
 30
0.0
 10
3.284071
 20
0.940535
 30
0.0
 10
3.446127
 20
0.869613
 30
0.0
  0
LWPOLYLINE
  5
180
100
AcDbEntity
  8
:
 62
7
100
AcDbPolyline
 90
15
 70
0
 10
4.018648
 20
2.581770
 30
0.0
 10
3.714308
 20
2.305051
 30
0.0
 10
3.271786
 20
2.150958
 30
0.0
 10
2.785855
 20
2.127251
 30
0.0
 10
2.362987
 20
2.237939
 30
0.0
 10
2.102176
 20
2.490782
 30
0.0
 10
2.106275
 20
2.897746
 30
0.0
 10
2.129908
 20
2.945244
 30
0.0
 10
2.461861
 20
3.281060
 30
0.0
 10
2.935975
 20
3.439020
 30
0.0
 10
3.437701
 20
3.439020
 30
0.0
 10
3.860449
 20
3.296865
 30
0.0
 10
4.097506
 20
3.020372
 30
0.0
 10
4.042281
 20
2.629099
 30
0.0
 10
4.018648
 20
2.581770
 30
0.0
  0
LWPOLYLINE
  5
181
100
AcDbEntity
  8
:
 62
7
100
AcDbPolyline
 90
15
 70
0
 10
3.417926
 20
0.898512
 30
0.0
 10
3.240194
 20
0.471764
 30
0.0
 10
2.884608
 20
0.159598
 30
0.0
 10
2.438107
 20
-0.010300
 30
0.0
 10
1.987626
 20
-0.018202
 30
0.0
 10
1.620103
 20
0.155675
 30
0.0
 10
1.462613
 20
0.323513
 30
0.0
 10
1.472388
 20
0.613129
 30
0.0
 10
1.568858
 20
0.787740
 30
0.0
 10
1.956035
 20
1.123556
 30
0.0
 10
2.473678
 20
1.329014
 30
0.0
 10
2.983362
 20
1.376540
 30
0.0
 10
3.342927
 20
1.246182
 30
0.0
 10
3.409968
 20
0.922078
 30
0.0
 10
3.417926
 20
0.898512
 30
0.0
  0
LWPOLYLINE
  5
182
100
AcDbEntity
  8
'
 62
7
100
AcDbPolyline
 90
17
 70
0
 10
3.250548
 20
6.377659
 30
0.0
 10
3.376914
 20
6.887352
 30
0.0
 10
3.688970
 20
7.179650
 30
0.0
 10
4.084106
 20
7.258616
 30
0.0
 10
4.463445
 20
7.132237
 30
0.0
 10
4.724256
 20
6.804266
 30
0.0
 10
4.759706
 20
6.282663
 30
0.0
 10
4.716298
 20
5.923197
 30
0.0
 10
4.581974
 20
5.595226
 30
0.0
 10
4.396283
 20
5.291019
 30
0.0
 10
4.206734
 20
5.002588
 30
0.0
 10
3.985352
 20
4.793151
 30
0.0
 10
3.700908
 20
4.729961
 30
0.0
 10
3.456013
 20
4.856453
 30
0.0
 10
3.353280
 20
5.223737
 30
0.0
 10
3.309752
 20
5.761286
 30
0.0
 10
3.250548
 20
6.377659
 30
0.0
  0
LWPOLYLINE
  5
183
100
AcDbEntity
  8
'
 62
7
100
AcDbPolyline
 90
16
 70
0
 10
1.551358
 20
5.057819
 30
0.0
 10
1.357829
 20
5.856056
 30
0.0
 10
1.484316
 20
6.523822
 30
0.0
 10
1.816268
 20
6.986102
 30
0.0
 10
2.250833
 20
7.167825
 30
0.0
 10
2.677559
 20
6.989968
 30
0.0
 10
2.989616
 20
6.385392
 30
0.0
 10
2.902800
 20
6.179934
 30
0.0
 10
2.792108
 20
5.713618
 30
0.0
 10
2.681417
 20
5.294744
 30
0.0
 10
2.389135
 20
4.852220
 30
0.0
 10
2.171733
 20
4.646734
 30
0.0
 10
1.895126
 20
4.587552
 30
0.0
 10
1.654090
 20
4.710064
 30
0.0
 10
1.551357
 20
5.057678
 30
0.0
 10
1.551358
 20
5.057819
 30
0.0
  0
LWPOLYLINE
  5
184
100
AcDbEntity
  8
"
 62
7
100
AcDbPolyline
 90
17
 70
0
 10
3.250548
 20
6.377659
 30
0.0
 10
3.376914
 20
6.887352
 30
0.0
 10
3.688970
 20
7.179650
 30
0.0
 10
4.084106
 20
7.258616
 30
0.0
 10
4.463445
 20
7.132237
 30
0.0
 10
4.724256
 20
6.804266
 30
0.0
 10
4.759706
 20
6.282663
 30
0.0
 10
4.716298
 20
5.923197
 30
0.0
 10
4.581974
 20
5.595226
 30
0.0
 10
4.396283
 20
5.291019
 30
0.0
 10
4.206734
 20
5.002588
 30
0.0
 10
3.985352
 20
4.793151
 30
0.0
 10
3.700908
 20
4.729961
 30
0.0
 10
3.456013
 20
4.856453
 30
0.0
 10
3.353280
 20
5.223737
 30
0.0
 10
3.309752
 20
5.761286
 30
0.0
 10
3.250548
 20
6.377659
 30
0.0
  0
LWPOLYLINE
  5
185
100
AcDbEntity
  8
"
 62
7
100
AcDbPolyline
 90
16
 70
0
 10
1.551358
 20
5.057819
 30
0.0
 10
1.357829
 20
5.856056
 30
0.0
 10
1.484316
 20
6.523822
 30
0.0
 10
1.816268
 20
6.986102
 30
0.0
 10
2.250833
 20
7.167825
 30
0.0
 10
2.677559
 20
6.989968
 30
0.0
 10
2.989616
 20
6.385392
 30
0.0
 10
2.902800
 20
6.179934
 30
0.0
 10
2.792108
 20
5.713618
 30
0.0
 10
2.681417
 20
5.294744
 30
0.0
 10
2.389135
 20
4.852220
 30
0.0
 10
2.171733
 20
4.646734
 30
0.0
 10
1.895126
 20
4.587552
 30
0.0
 10
1.654090
 20
4.710064
 30
0.0
 10
1.551357
 20
5.057678
 30
0.0
 10
1.551358
 20
5.057819
 30
0.0
  0
LWPOLYLINE
  5
186
100
AcDbEntity
  8
<
 62
7
100
AcDbPolyline
 90
40
 70
0
 10
3.790446
 20
5.440258
 30
0.0
 10
3.956656
 20
5.471726
 30
0.0
 10
4.088863
 20
5.495432
 30
0.0
 10
4.224758
 20
5.499384
 30
0.0
 10
4.394656
 20
5.479346
 30
0.0
 10
4.700680
 20
5.372750
 30
0.0
 10
4.964979
 20
5.175251
 30
0.0
 10
5.108482
 20
4.918429
 30
0.0
 10
5.051888
 20
4.625906
 30
0.0
 10
4.968783
 20
4.290090
 30
0.0
 10
4.636479
 20
3.985854
 30
0.0
 10
3.424024
 20
3.460384
 30
0.0
 10
2.181371
 20
2.998076
 30
0.0
 10
2.347580
 20
2.776814
 30
0.0
 10
2.823502
 20
2.492390
 30
0.0
 10
3.439124
 20
2.144749
 30
0.0
 10
4.024661
 20
1.741651
 30
0.0
 10
4.028350
 20
1.516551
 30
0.0
 10
3.937638
 20
1.326869
 30
0.0
 10
3.782839
 20
1.196539
 30
0.0
 10
3.601645
 20
1.141167
 30
0.0
 10
3.174710
 20
1.235965
 30
0.0
 10
2.540186
 20
1.346653
 30
0.0
 10
1.803768
 20
1.512571
 30
0.0
 10
1.067236
 20
1.777239
 30
0.0
 10
0.440204
 20
2.172379
 30
0.0
 10
0.028483
 20
2.745346
 30
0.0
 10
0.058682
 20
2.847962
 30
0.0
 10
0.115392
 20
2.966496
 30
0.0
 10
0.145706
 20
3.100833
 30
0.0
 10
0.088881
 20
3.251060
 30
0.0
 10
0.183397
 20
3.495944
 30
0.0
 10
0.413808
 20
3.721186
 30
0.0
 10
0.693206
 20
3.914847
 30
0.0
 10
0.934914
 20
4.064961
 30
0.0
 10
1.641247
 20
4.448162
 30
0.0
 10
2.328677
 20
4.823518
 30
0.0
 10
3.035011
 20
5.163313
 30
0.0
 10
3.790447
 20
5.440032
 30
0.0
 10
3.790446
 20
5.440258
 30
0.0
  0
LWPOLYLINE
  5
187
100
AcDbEntity
  8
>
 62
7
100
AcDbPolyline
 90
44
 70
0
 10
3.176438
 20
2.991529
 30
0.0
 10
2.884225
 20
3.196986
 30
0.0
 10
2.160547
 20
3.675184
 30
0.0
 10
1.451229
 20
4.177031
 30
0.0
 10
1.297834
 20
4.520693
 30
0.0
 10
1.408365
 20
4.856622
 30
0.0
 10
1.547400
 20
5.085589
 30
0.0
 10
1.807629
 20
5.338460
 30
0.0
 10
1.978757
 20
5.421518
 30
0.0
 10
2.142705
 20
5.496646
 30
0.0
 10
2.524127
 20
5.575640
 30
0.0
 10
2.852132
 20
5.540052
 30
0.0
 10
3.133792
 20
5.413701
 30
0.0
 10
3.383359
 20
5.220040
 30
0.0
 10
3.600723
 20
5.042184
 30
0.0
 10
3.967893
 20
4.730130
 30
0.0
 10
4.395769
 20
4.342950
 30
0.0
 10
4.787852
 20
3.932034
 30
0.0
 10
5.048080
 20
3.548720
 30
0.0
 10
5.080282
 20
3.252443
 30
0.0
 10
5.005325
 20
3.133797
 30
0.0
 10
4.930368
 20
3.023109
 30
0.0
 10
4.894902
 20
2.477856
 30
0.0
 10
4.737917
 20
2.244769
 30
0.0
 10
4.516962
 20
2.074871
 30
0.0
 10
3.967893
 20
1.912819
 30
0.0
 10
3.426005
 20
1.814182
 30
0.0
 10
2.609745
 20
1.632488
 30
0.0
 10
1.725600
 20
1.391442
 30
0.0
 10
0.862887
 20
1.170179
 30
0.0
 10
0.110705
 20
1.055512
 30
0.0
 10
0.071540
 20
1.166200
 30
0.0
 10
0.025195
 20
1.292579
 30
0.0
 10
0.000282
 20
1.422909
 30
0.0
 10
0.032376
 20
1.537576
 30
0.0
 10
0.135727
 20
1.683852
 30
0.0
 10
0.231898
 20
1.822141
 30
0.0
 10
0.538581
 20
2.067053
 30
0.0
 10
0.987779
 20
2.292295
 30
0.0
 10
1.511826
 20
2.493773
 30
0.0
 10
2.039354
 20
2.663671
 30
0.0
 10
2.502804
 20
2.794001
 30
0.0
 10
2.834399
 20
2.888772
 30
0.0
 10
3.176438
 20
2.991529
 30
0.0
  0
LWPOLYLINE
  5
188
100
AcDbEntity
  8
,
 62
7
100
AcDbPolyline
 90
27
 70
0
 10
3.449933
 20
0.864904
 30
0.0
 10
3.536991
 20
0.746258
 30
0.0
 10
3.560624
 20
0.722551
 30
0.0
 10
3.679032
 20
0.603877
 30
0.0
 10
3.698929
 20
0.414336
 30
0.0
 10
3.718583
 20
0.224796
 30
0.0
 10
3.576421
 20
-0.130917
 30
0.0
 10
3.284019
 20
-0.447063
 30
0.0
 10
2.952066
 20
-0.770941
 30
0.0
 10
2.553073
 20
-0.984357
 30
0.0
 10
2.134304
 20
-1.031742
 30
0.0
 10
1.735310
 20
-0.850048
 30
0.0
 10
1.679844
 20
-0.680150
 30
0.0
 10
1.735310
 20
-0.518211
 30
0.0
 10
1.865535
 20
-0.281144
 30
0.0
 10
1.980084
 20
-0.012384
 30
0.0
 10
1.790535
 20
0.200807
 30
0.0
 10
1.699619
 20
0.588100
 30
0.0
 10
1.853718
 20
0.872552
 30
0.0
 10
2.169754
 20
1.054247
 30
0.0
 10
2.564889
 20
1.125395
 30
0.0
 10
2.746721
 20
1.129346
 30
0.0
 10
2.881046
 20
1.113542
 30
0.0
 10
3.011391
 20
1.081961
 30
0.0
 10
3.181286
 20
1.030597
 30
0.0
 10
3.287877
 20
0.935826
 30
0.0
 10
3.449933
 20
0.864904
 30
0.0
  0
LWPOLYLINE
  5
189
100
AcDbEntity
  8
.
 62
7
100
AcDbPolyline
 90
15
 70
0
 10
3.754547
 20
0.301178
 30
0.0
 10
3.450207
 20
0.024685
 30
0.0
 10
3.007684
 20
-0.129409
 30
0.0
 10
2.521754
 20
-0.153115
 30
0.0
 10
2.098885
 20
-0.042428
 30
0.0
 10
1.838074
 20
0.210443
 30
0.0
 10
1.842175
 20
0.617380
 30
0.0
 10
1.865808
 20
0.664906
 30
0.0
 10
2.197761
 20
1.000581
 30
0.0
 10
2.671875
 20
1.158654
 30
0.0
 10
3.173601
 20
1.158654
 30
0.0
 10
3.596349
 20
1.016385
 30
0.0
 10
3.833406
 20
0.739779
 30
0.0
 10
3.778181
 20
0.348732
 30
0.0
 10
3.754547
 20
0.301178
 30
0.0
  0
LWPOLYLINE
  5
18a
100
AcDbEntity
  8
?
 62
7
100
AcDbPolyline
 90
42
 70
0
 10
4.802463
 20
5.045655
 30
0.0
 10
4.675856
 20
4.413562
 30
0.0
 10
4.233333
 20
3.840707
 30
0.0
 10
3.624895
 20
3.331014
 30
0.0
 10
3.000661
 20
2.896335
 30
0.0
 10
2.498814
 20
2.536784
 30
0.0
 10
2.265736
 20
2.256199
 30
0.0
 10
2.083904
 20
1.940138
 30
0.0
 10
1.712523
 20
1.762310
 30
0.0
 10
1.301592
 20
1.726722
 30
0.0
 10
1.001351
 20
1.837550
 30
0.0
 10
0.961922
 20
2.394600
 30
0.0
 10
1.258183
 20
2.975442
 30
0.0
 10
1.752072
 20
3.564101
 30
0.0
 10
2.309265
 20
4.140935
 30
0.0
 10
2.795196
 20
4.678371
 30
0.0
 10
3.079640
 20
5.156342
 30
0.0
 10
3.095557
 20
5.227462
 30
0.0
 10
3.071681
 20
5.227462
 30
0.0
 10
2.965090
 20
5.112937
 30
0.0
 10
2.731891
 20
4.950856
 30
0.0
 10
2.451426
 20
4.816660
 30
0.0
 10
2.139369
 20
4.682209
 30
0.0
 10
1.807297
 20
4.532208
 30
0.0
 10
1.400465
 20
4.472772
 30
0.0
 10
1.080450
 20
4.528116
 30
0.0
 10
0.831456
 20
4.717797
 30
0.0
 10
0.637928
 20
5.069531
 30
0.0
 10
0.645765
 20
5.436928
 30
0.0
 10
0.807823
 20
5.808304
 30
0.0
 10
1.048859
 20
6.128429
 30
0.0
 10
1.309549
 20
6.341619
 30
0.0
 10
2.198573
 20
6.701312
 30
0.0
 10
3.190210
 20
6.831642
 30
0.0
 10
4.091050
 20
6.681528
 30
0.0
 10
4.707447
 20
6.199577
 30
0.0
 10
4.758934
 20
6.013762
 30
0.0
 10
4.743138
 20
5.808304
 30
0.0
 10
4.695630
 20
5.602846
 30
0.0
 10
4.667896
 20
5.424990
 30
0.0
 10
4.731199
 20
5.247246
 30
0.0
 10
4.802463
 20
5.045655
 30
0.0
  0
LWPOLYLINE
  5
18b
100
AcDbEntity
  8
?
 62
7
100
AcDbPolyline
 90
14
 70
0
 10
1.783664
 20
0.644286
 30
0.0
 10
1.349099
 20
0.158243
 30
0.0
 10
0.831457
 20
0.000284
 30
0.0
 10
0.416546
 20
0.138460
 30
0.0
 10
0.282222
 20
0.557249
 30
0.0
 10
0.349505
 20
0.818164
 30
0.0
 10
0.491787
 20
0.988061
 30
0.0
 10
0.665541
 20
1.090790
 30
0.0
 10
0.843394
 20
1.150000
 30
0.0
 10
1.198859
 20
1.173707
 30
0.0
 10
1.562402
 20
1.086754
 30
0.0
 10
1.799460
 20
0.904919
 30
0.0
 10
1.783664
 20
0.644230
 30
0.0
 10
1.783664
 20
0.644286
 30
0.0
  0
LWPOLYLINE
  5
18c
100
AcDbEntity
  8
/
 62
7
100
AcDbPolyline
 90
33
 70
0
 10
3.309792
 20
7.503302
 30
0.0
 10
3.351819
 20
7.578430
 30
0.0
 10
3.394061
 20
7.653558
 30
0.0
 10
3.552090
 20
8.005037
 30
0.0
 10
4.124814
 20
8.262000
 30
0.0
 10
4.173917
 20
8.262000
 30
0.0
 10
4.469070
 20
8.234343
 30
0.0
 10
4.725519
 20
8.155377
 30
0.0
 10
4.932759
 20
7.981500
 30
0.0
 10
5.080282
 20
7.677264
 30
0.0
 10
5.020565
 20
7.392700
 30
0.0
 10
4.855567
 20
7.147702
 30
0.0
 10
4.873042
 20
6.914615
 30
0.0
 10
4.736133
 20
6.626297
 30
0.0
 10
4.209082
 20
5.950600
 30
0.0
 10
3.731347
 20
5.211686
 30
0.0
 10
2.983012
 20
3.955374
 30
0.0
 10
2.241752
 20
2.619842
 30
0.0
 10
1.486340
 20
1.300114
 30
0.0
 10
0.695977
 20
0.091216
 30
0.0
 10
0.544916
 20
0.000284
 30
0.0
 10
0.351721
 20
0.035872
 30
0.0
 10
0.165495
 20
0.182006
 30
0.0
 10
0.031910
 20
0.419045
 30
0.0
 10
0.000282
 20
0.731239
 30
0.0
 10
0.119823
 20
1.094657
 30
0.0
 10
0.717098
 20
2.469615
 30
0.0
 10
1.373982
 20
3.757621
 30
0.0
 10
2.062494
 20
5.025984
 30
0.0
 10
2.754651
 20
6.357650
 30
0.0
 10
3.025146
 20
6.938378
 30
0.0
 10
3.309792
 20
7.503387
 30
0.0
 10
3.309792
 20
7.503302
 30
0.0
  0
ENDSEC
  0
SECTION
  2
OBJECTS
  0
DICTIONARY
  5
C
330
0
100
AcDbDictionary
  3
ACAD_GROUP
350
D
  3
ACAD_MLINESTYLE
350
17
  0
DICTIONARY
  5
D
330
C
100
AcDbDictionary
  0
DICTIONARY
  5
1A
330
C
100
AcDbDictionary
  0
DICTIONARY
  5
17
330
C
100
AcDbDictionary
  3
STANDARD
350
18
  0
DICTIONARY
  5
19
330
C
100
AcDbDictionary
  0
ENDSEC
  0
EOF
